<?xml version="1.0" standalone="no"?>
 <!DOCTYPE svg PUBLIC "-//W3C//DTD SVG 1.1//EN" 
 "http://www.w3.org/Graphics/SVG/1.1/DTD/svg11.dtd"> 
<svg xmlns="http://www.w3.org/2000/svg" version="1.1" 
    width="21.0007cm" height="14.8006cm" viewBox="0 0 82680 58270 ">
<title>SVG Picture created as Autoscope-brd.svg date 2019/03/13 04:04:10 </title>
  <desc>Picture generated by PCBNEW </desc>
<g style="fill:#000000; fill-opacity:1;stroke:#000000; stroke-opacity:1;
stroke-linecap:round; stroke-linejoin:round; "
 transform="translate(0 0) scale(1 1)">
</g>
<g style="fill:#000000; fill-opacity:0.0; 
stroke:#000000; stroke-width:-0.000393701; stroke-opacity:1; 
stroke-linecap:round; stroke-linejoin:round;">
</g>
<g style="fill:#000000; fill-opacity:0.0; 
stroke:#000000; stroke-width:39.3701; stroke-opacity:1; 
stroke-linecap:round; stroke-linejoin:round;">
</g>
<g style="fill:#000000; fill-opacity:0.0; 
stroke:#000000; stroke-width:59.0551; stroke-opacity:1; 
stroke-linecap:round; stroke-linejoin:round;">
<rect x="35435.8" y="40947.1" width="42519.7" height="12598.4" rx="0" />
</g>
<g style="fill:#000000; fill-opacity:0.0; 
stroke:#000000; stroke-width:39.3701; stroke-opacity:1; 
stroke-linecap:round; stroke-linejoin:round;">
</g>
<g style="fill:#000000; fill-opacity:0.0; 
stroke:#000000; stroke-width:59.0551; stroke-opacity:1; 
stroke-linecap:round; stroke-linejoin:round;">
<rect x="3937.01" y="3937.01" width="74806" height="50396" rx="0" />
</g>
<g style="fill:#000000; fill-opacity:0.0; 
stroke:#000000; stroke-width:39.3701; stroke-opacity:1; 
stroke-linecap:round; stroke-linejoin:round;">
</g>
<g style="fill:#000000; fill-opacity:0.0; 
stroke:#000000; stroke-width:59.0551; stroke-opacity:1; 
stroke-linecap:round; stroke-linejoin:round;">
<rect x="4724.41" y="4724.41" width="73231.2" height="48821.2" rx="0" />
</g>
<g style="fill:#000000; fill-opacity:0.0; 
stroke:#000000; stroke-width:39.3701; stroke-opacity:1; 
stroke-linecap:round; stroke-linejoin:round;">
</g>
<g style="fill:#000000; fill-opacity:0.0; 
stroke:#000000; stroke-width:59.0551; stroke-opacity:1; 
stroke-linecap:round; stroke-linejoin:round;">
<path d="M23622 4724
L23622 3937
" />
</g>
<g style="fill:#000000; fill-opacity:0.0; 
stroke:#000000; stroke-width:39.3701; stroke-opacity:1; 
stroke-linecap:round; stroke-linejoin:round;">
</g>
<g style="fill:#000000; fill-opacity:0.0; 
stroke:#000000; stroke-width:59.0551; stroke-opacity:1; 
stroke-linecap:round; stroke-linejoin:round;">
<path d="M43307 4724
L43307 3937
" />
</g>
<g style="fill:#000000; fill-opacity:0.0; 
stroke:#000000; stroke-width:39.3701; stroke-opacity:1; 
stroke-linecap:round; stroke-linejoin:round;">
</g>
<g style="fill:#000000; fill-opacity:0.0; 
stroke:#000000; stroke-width:59.0551; stroke-opacity:1; 
stroke-linecap:round; stroke-linejoin:round;">
<path d="M62992 4724
L62992 3937
" />
</g>
<g style="fill:#000000; fill-opacity:0.0; 
stroke:#000000; stroke-width:39.3701; stroke-opacity:1; 
stroke-linecap:round; stroke-linejoin:round;">
</g>
<g style="fill:#000000; fill-opacity:0.0; 
stroke:#000000; stroke-width:59.0551; stroke-opacity:1; 
stroke-linecap:round; stroke-linejoin:round;">
<path d="M14199 4562
L13906 4562
" />
<path d="M14052 4562
L14052 4050
L14004 4123
L13955 4172
L13906 4196
" />
</g>
<g style="fill:#000000; fill-opacity:0.0; 
stroke:#000000; stroke-width:39.3701; stroke-opacity:1; 
stroke-linecap:round; stroke-linejoin:round;">
</g>
<g style="fill:#000000; fill-opacity:0.0; 
stroke:#000000; stroke-width:59.0551; stroke-opacity:1; 
stroke-linecap:round; stroke-linejoin:round;">
<path d="M33591 4099
L33615 4074
L33664 4050
L33786 4050
L33835 4074
L33859 4099
L33884 4147
L33884 4196
L33859 4269
L33567 4562
L33884 4562
" />
</g>
<g style="fill:#000000; fill-opacity:0.0; 
stroke:#000000; stroke-width:39.3701; stroke-opacity:1; 
stroke-linecap:round; stroke-linejoin:round;">
</g>
<g style="fill:#000000; fill-opacity:0.0; 
stroke:#000000; stroke-width:59.0551; stroke-opacity:1; 
stroke-linecap:round; stroke-linejoin:round;">
<path d="M53252 4050
L53569 4050
L53398 4245
L53471 4245
L53520 4269
L53544 4294
L53569 4342
L53569 4464
L53544 4513
L53520 4537
L53471 4562
L53325 4562
L53276 4537
L53252 4513
" />
</g>
<g style="fill:#000000; fill-opacity:0.0; 
stroke:#000000; stroke-width:39.3701; stroke-opacity:1; 
stroke-linecap:round; stroke-linejoin:round;">
</g>
<g style="fill:#000000; fill-opacity:0.0; 
stroke:#000000; stroke-width:59.0551; stroke-opacity:1; 
stroke-linecap:round; stroke-linejoin:round;">
<path d="M73205 4221
L73205 4562
" />
<path d="M73083 4026
L72961 4391
L73278 4391
" />
</g>
<g style="fill:#000000; fill-opacity:0.0; 
stroke:#000000; stroke-width:39.3701; stroke-opacity:1; 
stroke-linecap:round; stroke-linejoin:round;">
</g>
<g style="fill:#000000; fill-opacity:0.0; 
stroke:#000000; stroke-width:59.0551; stroke-opacity:1; 
stroke-linecap:round; stroke-linejoin:round;">
<path d="M23622 53545
L23622 54332
" />
</g>
<g style="fill:#000000; fill-opacity:0.0; 
stroke:#000000; stroke-width:39.3701; stroke-opacity:1; 
stroke-linecap:round; stroke-linejoin:round;">
</g>
<g style="fill:#000000; fill-opacity:0.0; 
stroke:#000000; stroke-width:59.0551; stroke-opacity:1; 
stroke-linecap:round; stroke-linejoin:round;">
<path d="M43307 53545
L43307 54332
" />
</g>
<g style="fill:#000000; fill-opacity:0.0; 
stroke:#000000; stroke-width:39.3701; stroke-opacity:1; 
stroke-linecap:round; stroke-linejoin:round;">
</g>
<g style="fill:#000000; fill-opacity:0.0; 
stroke:#000000; stroke-width:59.0551; stroke-opacity:1; 
stroke-linecap:round; stroke-linejoin:round;">
<path d="M62992 53545
L62992 54332
" />
</g>
<g style="fill:#000000; fill-opacity:0.0; 
stroke:#000000; stroke-width:39.3701; stroke-opacity:1; 
stroke-linecap:round; stroke-linejoin:round;">
</g>
<g style="fill:#000000; fill-opacity:0.0; 
stroke:#000000; stroke-width:59.0551; stroke-opacity:1; 
stroke-linecap:round; stroke-linejoin:round;">
<path d="M14199 54170
L13906 54170
" />
<path d="M14052 54170
L14052 53659
L14004 53732
L13955 53780
L13906 53805
" />
</g>
<g style="fill:#000000; fill-opacity:0.0; 
stroke:#000000; stroke-width:39.3701; stroke-opacity:1; 
stroke-linecap:round; stroke-linejoin:round;">
</g>
<g style="fill:#000000; fill-opacity:0.0; 
stroke:#000000; stroke-width:59.0551; stroke-opacity:1; 
stroke-linecap:round; stroke-linejoin:round;">
<path d="M33591 53707
L33615 53683
L33664 53659
L33786 53659
L33835 53683
L33859 53707
L33884 53756
L33884 53805
L33859 53878
L33567 54170
L33884 54170
" />
</g>
<g style="fill:#000000; fill-opacity:0.0; 
stroke:#000000; stroke-width:39.3701; stroke-opacity:1; 
stroke-linecap:round; stroke-linejoin:round;">
</g>
<g style="fill:#000000; fill-opacity:0.0; 
stroke:#000000; stroke-width:59.0551; stroke-opacity:1; 
stroke-linecap:round; stroke-linejoin:round;">
<path d="M53252 53659
L53569 53659
L53398 53853
L53471 53853
L53520 53878
L53544 53902
L53569 53951
L53569 54073
L53544 54122
L53520 54146
L53471 54170
L53325 54170
L53276 54146
L53252 54122
" />
</g>
<g style="fill:#000000; fill-opacity:0.0; 
stroke:#000000; stroke-width:39.3701; stroke-opacity:1; 
stroke-linecap:round; stroke-linejoin:round;">
</g>
<g style="fill:#000000; fill-opacity:0.0; 
stroke:#000000; stroke-width:59.0551; stroke-opacity:1; 
stroke-linecap:round; stroke-linejoin:round;">
<path d="M73205 53829
L73205 54170
" />
<path d="M73083 53634
L72961 54000
L73278 54000
" />
</g>
<g style="fill:#000000; fill-opacity:0.0; 
stroke:#000000; stroke-width:39.3701; stroke-opacity:1; 
stroke-linecap:round; stroke-linejoin:round;">
</g>
<g style="fill:#000000; fill-opacity:0.0; 
stroke:#000000; stroke-width:59.0551; stroke-opacity:1; 
stroke-linecap:round; stroke-linejoin:round;">
<path d="M3937 23622
L4724 23622
" />
</g>
<g style="fill:#000000; fill-opacity:0.0; 
stroke:#000000; stroke-width:39.3701; stroke-opacity:1; 
stroke-linecap:round; stroke-linejoin:round;">
</g>
<g style="fill:#000000; fill-opacity:0.0; 
stroke:#000000; stroke-width:59.0551; stroke-opacity:1; 
stroke-linecap:round; stroke-linejoin:round;">
<path d="M3937 43307
L4724 43307
" />
</g>
<g style="fill:#000000; fill-opacity:0.0; 
stroke:#000000; stroke-width:39.3701; stroke-opacity:1; 
stroke-linecap:round; stroke-linejoin:round;">
</g>
<g style="fill:#000000; fill-opacity:0.0; 
stroke:#000000; stroke-width:59.0551; stroke-opacity:1; 
stroke-linecap:round; stroke-linejoin:round;">
<path d="M4208 13864
L4452 13864
" />
<path d="M4160 14011
L4330 13499
L4501 14011
" />
</g>
<g style="fill:#000000; fill-opacity:0.0; 
stroke:#000000; stroke-width:39.3701; stroke-opacity:1; 
stroke-linecap:round; stroke-linejoin:round;">
</g>
<g style="fill:#000000; fill-opacity:0.0; 
stroke:#000000; stroke-width:59.0551; stroke-opacity:1; 
stroke-linecap:round; stroke-linejoin:round;">
<path d="M4367 33428
L4440 33452
L4464 33476
L4489 33525
L4489 33598
L4464 33647
L4440 33671
L4391 33696
L4196 33696
L4196 33184
L4367 33184
L4416 33208
L4440 33233
L4464 33281
L4464 33330
L4440 33379
L4416 33403
L4367 33428
L4196 33428
" />
</g>
<g style="fill:#000000; fill-opacity:0.0; 
stroke:#000000; stroke-width:39.3701; stroke-opacity:1; 
stroke-linecap:round; stroke-linejoin:round;">
</g>
<g style="fill:#000000; fill-opacity:0.0; 
stroke:#000000; stroke-width:59.0551; stroke-opacity:1; 
stroke-linecap:round; stroke-linejoin:round;">
<path d="M4489 53332
L4464 53356
L4391 53381
L4342 53381
L4269 53356
L4221 53308
L4196 53259
L4172 53161
L4172 53088
L4196 52991
L4221 52942
L4269 52893
L4342 52869
L4391 52869
L4464 52893
L4489 52918
" />
</g>
<g style="fill:#000000; fill-opacity:0.0; 
stroke:#000000; stroke-width:39.3701; stroke-opacity:1; 
stroke-linecap:round; stroke-linejoin:round;">
</g>
<g style="fill:#000000; fill-opacity:0.0; 
stroke:#000000; stroke-width:59.0551; stroke-opacity:1; 
stroke-linecap:round; stroke-linejoin:round;">
<path d="M78742 23622
L77955 23622
" />
</g>
<g style="fill:#000000; fill-opacity:0.0; 
stroke:#000000; stroke-width:39.3701; stroke-opacity:1; 
stroke-linecap:round; stroke-linejoin:round;">
</g>
<g style="fill:#000000; fill-opacity:0.0; 
stroke:#000000; stroke-width:59.0551; stroke-opacity:1; 
stroke-linecap:round; stroke-linejoin:round;">
<path d="M78742 43307
L77955 43307
" />
</g>
<g style="fill:#000000; fill-opacity:0.0; 
stroke:#000000; stroke-width:39.3701; stroke-opacity:1; 
stroke-linecap:round; stroke-linejoin:round;">
</g>
<g style="fill:#000000; fill-opacity:0.0; 
stroke:#000000; stroke-width:59.0551; stroke-opacity:1; 
stroke-linecap:round; stroke-linejoin:round;">
<path d="M78227 13864
L78471 13864
" />
<path d="M78178 14011
L78349 13499
L78519 14011
" />
</g>
<g style="fill:#000000; fill-opacity:0.0; 
stroke:#000000; stroke-width:39.3701; stroke-opacity:1; 
stroke-linecap:round; stroke-linejoin:round;">
</g>
<g style="fill:#000000; fill-opacity:0.0; 
stroke:#000000; stroke-width:59.0551; stroke-opacity:1; 
stroke-linecap:round; stroke-linejoin:round;">
<path d="M78385 33428
L78458 33452
L78483 33476
L78507 33525
L78507 33598
L78483 33647
L78458 33671
L78410 33696
L78215 33696
L78215 33184
L78385 33184
L78434 33208
L78458 33233
L78483 33281
L78483 33330
L78458 33379
L78434 33403
L78385 33428
L78215 33428
" />
</g>
<g style="fill:#000000; fill-opacity:0.0; 
stroke:#000000; stroke-width:39.3701; stroke-opacity:1; 
stroke-linecap:round; stroke-linejoin:round;">
</g>
<g style="fill:#000000; fill-opacity:0.0; 
stroke:#000000; stroke-width:59.0551; stroke-opacity:1; 
stroke-linecap:round; stroke-linejoin:round;">
<path d="M78507 53332
L78483 53356
L78410 53381
L78361 53381
L78288 53356
L78239 53308
L78215 53259
L78190 53161
L78190 53088
L78215 52991
L78239 52942
L78288 52893
L78361 52869
L78410 52869
L78483 52893
L78507 52918
" />
</g>
<g style="fill:#000000; fill-opacity:0.0; 
stroke:#000000; stroke-width:39.3701; stroke-opacity:1; 
stroke-linecap:round; stroke-linejoin:round;">
</g>
<g style="fill:#000000; fill-opacity:0.0; 
stroke:#000000; stroke-width:59.0551; stroke-opacity:1; 
stroke-linecap:round; stroke-linejoin:round;">
<path d="M65428 53261
L65428 52670
L65569 52670
L65653 52699
L65710 52755
L65738 52811
L65766 52924
L65766 53008
L65738 53120
L65710 53177
L65653 53233
L65569 53261
L65428 53261
" />
<path d="M66272 53261
L66272 52952
L66244 52895
L66188 52867
L66075 52867
L66019 52895
" />
<path d="M66272 53233
L66216 53261
L66075 53261
L66019 53233
L65991 53177
L65991 53120
L66019 53064
L66075 53036
L66216 53036
L66272 53008
" />
<path d="M66469 52867
L66694 52867
" />
<path d="M66553 52670
L66553 53177
L66581 53233
L66638 53261
L66694 53261
" />
<path d="M67116 53233
L67059 53261
L66947 53261
L66891 53233
L66862 53177
L66862 52952
L66891 52895
L66947 52867
L67059 52867
L67116 52895
L67144 52952
L67144 53008
L66862 53064
" />
<path d="M67397 53205
L67425 53233
L67397 53261
L67369 53233
L67397 53205
L67397 53261
" />
<path d="M67397 52895
L67425 52924
L67397 52952
L67369 52924
L67397 52895
L67397 52952
" />
<path d="M68100 52727
L68128 52699
L68184 52670
L68325 52670
L68381 52699
L68409 52727
L68437 52783
L68437 52839
L68409 52924
L68072 53261
L68437 53261
" />
<path d="M68803 52670
L68859 52670
L68915 52699
L68943 52727
L68972 52783
L69000 52895
L69000 53036
L68972 53148
L68943 53205
L68915 53233
L68859 53261
L68803 53261
L68747 53233
L68719 53205
L68690 53148
L68662 53036
L68662 52895
L68690 52783
L68719 52727
L68747 52699
L68803 52670
" />
<path d="M69562 53261
L69225 53261
" />
<path d="M69393 53261
L69393 52670
L69337 52755
L69281 52811
L69225 52839
" />
<path d="M69843 53261
L69956 53261
L70012 53233
L70040 53205
L70096 53120
L70125 53008
L70125 52783
L70096 52727
L70068 52699
L70012 52670
L69900 52670
L69843 52699
L69815 52727
L69787 52783
L69787 52924
L69815 52980
L69843 53008
L69900 53036
L70012 53036
L70068 53008
L70096 52980
L70125 52924
" />
<path d="M70378 53036
L70828 53036
" />
<path d="M71221 52670
L71278 52670
L71334 52699
L71362 52727
L71390 52783
L71418 52895
L71418 53036
L71390 53148
L71362 53205
L71334 53233
L71278 53261
L71221 53261
L71165 53233
L71137 53205
L71109 53148
L71081 53036
L71081 52895
L71109 52783
L71137 52727
L71165 52699
L71221 52670
" />
<path d="M71615 52670
L71981 52670
L71784 52895
L71868 52895
L71924 52924
L71952 52952
L71981 53008
L71981 53148
L71952 53205
L71924 53233
L71868 53261
L71699 53261
L71643 53233
L71615 53205
" />
<path d="M72234 53036
L72684 53036
" />
<path d="M73274 53261
L72937 53261
" />
<path d="M73105 53261
L73105 52670
L73049 52755
L72993 52811
L72937 52839
" />
<path d="M73471 52670
L73837 52670
L73640 52895
L73724 52895
L73780 52924
L73808 52952
L73837 53008
L73837 53148
L73808 53205
L73780 53233
L73724 53261
L73555 53261
L73499 53233
L73471 53205
" />
</g>
<g style="fill:#000000; fill-opacity:0.0; 
stroke:#000000; stroke-width:39.3701; stroke-opacity:1; 
stroke-linecap:round; stroke-linejoin:round;">
</g>
<g style="fill:#000000; fill-opacity:0.0; 
stroke:#000000; stroke-width:59.0551; stroke-opacity:1; 
stroke-linecap:round; stroke-linejoin:round;">
<path d="M35435 52364
L77955 52364
" />
</g>
<g style="fill:#000000; fill-opacity:0.0; 
stroke:#000000; stroke-width:39.3701; stroke-opacity:1; 
stroke-linecap:round; stroke-linejoin:round;">
</g>
<g style="fill:#000000; fill-opacity:0.0; 
stroke:#000000; stroke-width:59.0551; stroke-opacity:1; 
stroke-linecap:round; stroke-linejoin:round;">
<path d="M35999 53281
L35999 52690
" />
<path d="M36337 53281
L36084 52943
" />
<path d="M36337 52690
L35999 53028
" />
<path d="M36590 53281
L36590 52887
" />
<path d="M36590 52690
L36562 52718
L36590 52746
L36618 52718
L36590 52690
L36590 52746
" />
<path d="M37208 53224
L37180 53253
L37096 53281
L37040 53281
L36955 53253
L36899 53196
L36871 53140
L36843 53028
L36843 52943
L36871 52831
L36899 52774
L36955 52718
L37040 52690
L37096 52690
L37180 52718
L37208 52746
" />
<path d="M37715 53281
L37715 52971
L37686 52915
L37630 52887
L37518 52887
L37461 52915
" />
<path d="M37715 53253
L37658 53281
L37518 53281
L37461 53253
L37433 53196
L37433 53140
L37461 53084
L37518 53056
L37658 53056
L37715 53028
" />
<path d="M38249 53281
L38249 52690
" />
<path d="M38249 53253
L38193 53281
L38080 53281
L38024 53253
L37996 53224
L37968 53168
L37968 52999
L37996 52943
L38024 52915
L38080 52887
L38193 52887
L38249 52915
" />
<path d="M38980 52971
L39177 52971
" />
<path d="M39261 53281
L38980 53281
L38980 52690
L39261 52690
" />
<path d="M39514 53224
L39542 53253
L39514 53281
L39486 53253
L39514 53224
L39514 53281
" />
<path d="M39796 53281
L39796 52690
L39936 52690
L40021 52718
L40077 52774
L40105 52831
L40133 52943
L40133 53028
L40105 53140
L40077 53196
L40021 53253
L39936 53281
L39796 53281
" />
<path d="M40386 53224
L40414 53253
L40386 53281
L40358 53253
L40386 53224
L40386 53281
" />
<path d="M40639 53112
L40920 53112
" />
<path d="M40583 53281
L40780 52690
L40977 53281
" />
<path d="M41174 53224
L41202 53253
L41174 53281
L41145 53253
L41174 53224
L41174 53281
" />
<path d="M42355 53281
L42355 52690
" />
<path d="M42411 53056
L42580 53281
" />
<path d="M42580 52887
L42355 53112
" />
<path d="M42833 53281
L42833 52887
" />
<path d="M42833 52690
L42805 52718
L42833 52746
L42861 52718
L42833 52690
L42833 52746
" />
<path d="M43367 53253
L43311 53281
L43198 53281
L43142 53253
L43114 53224
L43086 53168
L43086 52999
L43114 52943
L43142 52915
L43198 52887
L43311 52887
L43367 52915
" />
<path d="M43873 53281
L43873 52971
L43845 52915
L43789 52887
L43676 52887
L43620 52915
" />
<path d="M43873 53253
L43817 53281
L43676 53281
L43620 53253
L43592 53196
L43592 53140
L43620 53084
L43676 53056
L43817 53056
L43873 53028
" />
<path d="M44407 53281
L44407 52690
" />
<path d="M44407 53253
L44351 53281
L44239 53281
L44183 53253
L44154 53224
L44126 53168
L44126 52999
L44154 52943
L44183 52915
L44239 52887
L44351 52887
L44407 52915
" />
<path d="M45420 52690
L45139 52690
L45111 52971
L45139 52943
L45195 52915
L45335 52915
L45392 52943
L45420 52971
L45448 53028
L45448 53168
L45420 53224
L45392 53253
L45335 53281
L45195 53281
L45139 53253
L45111 53224
" />
<path d="M45701 53224
L45729 53253
L45701 53281
L45673 53253
L45701 53224
L45701 53281
" />
<path d="M46095 52690
L46151 52690
L46207 52718
L46235 52746
L46264 52803
L46292 52915
L46292 53056
L46264 53168
L46235 53224
L46207 53253
L46151 53281
L46095 53281
L46039 53253
L46010 53224
L45982 53168
L45954 53056
L45954 52915
L45982 52803
L46010 52746
L46039 52718
L46095 52690
" />
<path d="M46545 53224
L46573 53253
L46545 53281
L46517 53253
L46545 53224
L46545 53281
" />
<path d="M46798 52746
L46826 52718
L46882 52690
L47023 52690
L47079 52718
L47107 52746
L47135 52803
L47135 52859
L47107 52943
L46770 53281
L47135 53281
" />
<path d="M47388 53056
L47838 53056
" />
<path d="M48120 53281
L48120 52690
" />
<path d="M48120 52915
L48176 52887
L48288 52887
L48344 52915
L48373 52943
L48401 52999
L48401 53168
L48373 53224
L48344 53253
L48288 53281
L48176 53281
L48120 53253
" />
<path d="M48879 53253
L48823 53281
L48710 53281
L48654 53253
L48626 53196
L48626 52971
L48654 52915
L48710 52887
L48823 52887
L48879 52915
L48907 52971
L48907 53028
L48626 53084
" />
<path d="M49385 53253
L49329 53281
L49216 53281
L49160 53253
L49132 53196
L49132 52971
L49160 52915
L49216 52887
L49329 52887
L49385 52915
L49413 52971
L49413 53028
L49132 53084
" />
<path d="M49610 52690
L50004 52690
L49751 53281
" />
<path d="M50482 52690
L50369 52690
L50313 52718
L50285 52746
L50229 52831
L50201 52943
L50201 53168
L50229 53224
L50257 53253
L50313 53281
L50425 53281
L50482 53253
L50510 53224
L50538 53168
L50538 53028
L50510 52971
L50482 52943
L50425 52915
L50313 52915
L50257 52943
L50229 52971
L50201 53028
" />
<path d="M51044 53281
L51044 52971
L51016 52915
L50960 52887
L50847 52887
L50791 52915
" />
<path d="M51044 53253
L50988 53281
L50847 53281
L50791 53253
L50763 53196
L50763 53140
L50791 53084
L50847 53056
L50988 53056
L51044 53028
" />
<path d="M51438 52690
L51494 52690
L51550 52718
L51578 52746
L51607 52803
L51635 52915
L51635 53056
L51607 53168
L51578 53224
L51550 53253
L51494 53281
L51438 53281
L51382 53253
L51353 53224
L51325 53168
L51297 53056
L51297 52915
L51325 52803
L51353 52746
L51382 52718
L51438 52690
" />
<path d="M51747 52529
L52310 52529
" />
<path d="M51832 52690
L52225 52690
L51972 53281
" />
<path d="M52310 52529
L52872 52529
" />
<path d="M52563 52690
L52619 52690
L52675 52718
L52703 52746
L52731 52803
L52760 52915
L52760 53056
L52731 53168
L52703 53224
L52675 53253
L52619 53281
L52563 53281
L52506 53253
L52478 53224
L52450 53168
L52422 53056
L52422 52915
L52450 52803
L52478 52746
L52506 52718
L52563 52690
" />
<path d="M53266 52887
L53266 53281
" />
<path d="M53013 52887
L53013 53196
L53041 53253
L53097 53281
L53181 53281
L53238 53253
L53266 53224
" />
<path d="M53547 53281
L53547 52690
" />
<path d="M53547 52915
L53603 52887
L53716 52887
L53772 52915
L53800 52943
L53828 52999
L53828 53168
L53800 53224
L53772 53253
L53716 53281
L53603 53281
L53547 53253
" />
<path d="M54334 52887
L54334 53281
" />
<path d="M54081 52887
L54081 53196
L54109 53253
L54166 53281
L54250 53281
L54306 53253
L54334 53224
" />
<path d="M54616 52887
L54616 53281
" />
<path d="M54616 52943
L54644 52915
L54700 52887
L54784 52887
L54841 52915
L54869 52971
L54869 53281
" />
<path d="M55066 52887
L55291 52887
" />
<path d="M55150 52690
L55150 53196
L55178 53253
L55234 53281
L55291 53281
" />
<path d="M55740 52887
L55740 53281
" />
<path d="M55487 52887
L55487 53196
L55515 53253
L55572 53281
L55656 53281
L55712 53253
L55740 53224
" />
<path d="M56331 53281
L55994 53281
" />
<path d="M56162 53281
L56162 52690
L56106 52774
L56050 52831
L55994 52859
" />
<path d="M56668 52943
L56612 52915
L56584 52887
L56556 52831
L56556 52803
L56584 52746
L56612 52718
L56668 52690
L56781 52690
L56837 52718
L56865 52746
L56893 52803
L56893 52831
L56865 52887
L56837 52915
L56781 52943
L56668 52943
L56612 52971
L56584 52999
L56556 53056
L56556 53168
L56584 53224
L56612 53253
L56668 53281
L56781 53281
L56837 53253
L56865 53224
L56893 53168
L56893 53056
L56865 52999
L56837 52971
L56781 52943
" />
<path d="M57147 53224
L57175 53253
L57147 53281
L57118 53253
L57147 53224
L57147 53281
" />
<path d="M57540 52690
L57596 52690
L57653 52718
L57681 52746
L57709 52803
L57737 52915
L57737 53056
L57709 53168
L57681 53224
L57653 53253
L57596 53281
L57540 53281
L57484 53253
L57456 53224
L57428 53168
L57400 53056
L57400 52915
L57428 52803
L57456 52746
L57484 52718
L57540 52690
" />
<path d="M58243 52887
L58243 53281
" />
<path d="M58103 52662
L57962 53084
L58328 53084
" />
<path d="M58553 53224
L58581 53253
L58553 53281
L58524 53253
L58553 53224
L58553 53281
" />
<path d="M59143 53281
L58806 53281
" />
<path d="M58974 53281
L58974 52690
L58918 52774
L58862 52831
L58806 52859
" />
</g>
<g style="fill:#000000; fill-opacity:0.0; 
stroke:#000000; stroke-width:39.3701; stroke-opacity:1; 
stroke-linecap:round; stroke-linejoin:round;">
</g>
<g style="fill:#000000; fill-opacity:0.0; 
stroke:#000000; stroke-width:59.0551; stroke-opacity:1; 
stroke-linecap:round; stroke-linejoin:round;">
<path d="M35435 51183
L77955 51183
" />
</g>
<g style="fill:#000000; fill-opacity:0.0; 
stroke:#000000; stroke-width:39.3701; stroke-opacity:1; 
stroke-linecap:round; stroke-linejoin:round;">
</g>
<g style="fill:#000000; fill-opacity:0.0; 
stroke:#000000; stroke-width:118.11; stroke-opacity:1; 
stroke-linecap:round; stroke-linejoin:round;">
<path d="M65553 50575
L65634 50604
L65774 50604
L65834 50575
L65866 50547
L65901 50491
L65908 50435
L65887 50379
L65862 50350
L65810 50322
L65701 50294
L65648 50266
L65623 50238
L65602 50182
L65609 50126
L65644 50069
L65676 50041
L65736 50013
L65876 50013
L65957 50041
" />
<path d="M66140 50604
L66189 50210
" />
<path d="M66214 50013
L66182 50041
L66207 50069
L66238 50041
L66214 50013
L66207 50069
" />
<path d="M66414 50210
L66724 50210
L66365 50604
L66674 50604
" />
<path d="M67128 50575
L67068 50604
L66956 50604
L66903 50575
L66882 50519
L66910 50294
L66945 50238
L67005 50210
L67117 50210
L67170 50238
L67191 50294
L67184 50350
L66896 50407
" />
<path d="M67412 50547
L67437 50575
L67405 50604
L67381 50575
L67412 50547
L67405 50604
" />
<path d="M67451 50238
L67476 50266
L67444 50294
L67420 50266
L67451 50238
L67444 50294
" />
<path d="M68210 50013
L68151 50491
L68172 50547
L68196 50575
L68249 50604
L68362 50604
L68421 50575
L68453 50547
L68488 50491
L68548 50013
" />
<path d="M68731 50575
L68783 50604
L68896 50604
L68956 50575
L68991 50519
L68994 50491
L68973 50435
L68921 50407
L68836 50407
L68783 50379
L68762 50322
L68766 50294
L68801 50238
L68861 50210
L68945 50210
L68998 50238
" />
<path d="M69462 50575
L69402 50604
L69290 50604
L69237 50575
L69216 50519
L69244 50294
L69279 50238
L69339 50210
L69451 50210
L69504 50238
L69525 50294
L69518 50350
L69230 50407
" />
<path d="M69740 50604
L69789 50210
" />
<path d="M69775 50322
L69810 50266
L69841 50238
L69901 50210
L69957 50210
" />
</g>
<g style="fill:#000000; fill-opacity:0.0; 
stroke:#000000; stroke-width:39.3701; stroke-opacity:1; 
stroke-linecap:round; stroke-linejoin:round;">
</g>
<g style="fill:#000000; fill-opacity:0.0; 
stroke:#000000; stroke-width:59.0551; stroke-opacity:1; 
stroke-linecap:round; stroke-linejoin:round;">
<path d="M65428 52100
L65428 51509
" />
<path d="M65963 52100
L65963 51509
" />
<path d="M65963 52071
L65906 52100
L65794 52100
L65738 52071
L65710 52043
L65681 51987
L65681 51818
L65710 51762
L65738 51734
L65794 51706
L65906 51706
L65963 51734
" />
<path d="M66244 52043
L66272 52071
L66244 52100
L66216 52071
L66244 52043
L66244 52100
" />
<path d="M66244 51734
L66272 51762
L66244 51790
L66216 51762
L66244 51734
L66244 51790
" />
<path d="M67284 52100
L66947 52100
" />
<path d="M67116 52100
L67116 51509
L67059 51593
L67003 51650
L66947 51678
" />
<path d="M67959 51481
L67453 52240
" />
<path d="M68465 52100
L68128 52100
" />
<path d="M68297 52100
L68297 51509
L68240 51593
L68184 51650
L68128 51678
" />
</g>
<g style="fill:#000000; fill-opacity:0.0; 
stroke:#000000; stroke-width:39.3701; stroke-opacity:1; 
stroke-linecap:round; stroke-linejoin:round;">
</g>
<g style="fill:#000000; fill-opacity:0.0; 
stroke:#000000; stroke-width:59.0551; stroke-opacity:1; 
stroke-linecap:round; stroke-linejoin:round;">
<path d="M35435 49313
L77955 49313
" />
</g>
<g style="fill:#000000; fill-opacity:0.0; 
stroke:#000000; stroke-width:39.3701; stroke-opacity:1; 
stroke-linecap:round; stroke-linejoin:round;">
</g>
<g style="fill:#000000; fill-opacity:0.0; 
stroke:#000000; stroke-width:157.48; stroke-opacity:1; 
stroke-linecap:round; stroke-linejoin:round;">
<path d="M36109 47819
L36559 47819
" />
<path d="M36236 48606
L36334 47819
" />
<path d="M36723 48606
L36789 48081
" />
<path d="M36822 47819
L36780 47856
L36813 47894
L36855 47856
L36822 47819
L36813 47894
" />
<path d="M37052 48081
L37352 48081
" />
<path d="M37197 47819
L37112 48493
L37141 48568
L37211 48606
L37286 48606
" />
<path d="M37661 48606
L37591 48568
L37562 48493
L37647 47819
" />
<path d="M38265 48568
L38186 48606
L38036 48606
L37966 48568
L37937 48493
L37975 48193
L38022 48119
L38101 48081
L38251 48081
L38322 48119
L38350 48193
L38340 48268
L37956 48343
" />
<path d="M38645 48531
L38678 48568
L38636 48606
L38603 48568
L38645 48531
L38636 48606
" />
<path d="M38697 48119
L38729 48156
L38687 48193
L38654 48156
L38697 48119
L38687 48193
" />
<path d="M39601 48381
L39976 48381
" />
<path d="M39498 48606
L39859 47819
L40023 48606
" />
<path d="M40689 48081
L40623 48606
" />
<path d="M40351 48081
L40300 48493
L40328 48568
L40398 48606
L40511 48606
L40590 48568
L40632 48531
" />
<path d="M40951 48081
L41251 48081
" />
<path d="M41096 47819
L41012 48493
L41040 48568
L41110 48606
L41185 48606
" />
<path d="M41560 48606
L41490 48568
L41457 48531
L41429 48456
L41457 48231
L41504 48156
L41546 48119
L41626 48081
L41738 48081
L41809 48119
L41842 48156
L41870 48231
L41842 48456
L41795 48531
L41753 48568
L41673 48606
L41560 48606
" />
<path d="M42127 48568
L42198 48606
L42348 48606
L42427 48568
L42474 48493
L42479 48456
L42451 48381
L42381 48343
L42268 48343
L42198 48306
L42170 48231
L42174 48193
L42221 48119
L42301 48081
L42413 48081
L42484 48119
" />
<path d="M43140 48568
L43060 48606
L42910 48606
L42840 48568
L42807 48531
L42779 48456
L42807 48231
L42854 48156
L42896 48119
L42976 48081
L43126 48081
L43196 48119
" />
<path d="M43585 48606
L43515 48568
L43482 48531
L43454 48456
L43482 48231
L43529 48156
L43571 48119
L43651 48081
L43763 48081
L43834 48119
L43866 48156
L43894 48231
L43866 48456
L43819 48531
L43777 48568
L43698 48606
L43585 48606
" />
<path d="M44251 48081
L44152 48868
" />
<path d="M44246 48119
L44326 48081
L44476 48081
L44546 48119
L44579 48156
L44607 48231
L44579 48456
L44532 48531
L44490 48568
L44410 48606
L44260 48606
L44190 48568
" />
<path d="M45202 48568
L45122 48606
L44972 48606
L44902 48568
L44874 48493
L44912 48193
L44958 48119
L45038 48081
L45188 48081
L45258 48119
L45286 48193
L45277 48268
L44893 48343
" />
</g>
<g style="fill:#000000; fill-opacity:0.0; 
stroke:#000000; stroke-width:39.3701; stroke-opacity:1; 
stroke-linecap:round; stroke-linejoin:round;">
</g>
<g style="fill:#000000; fill-opacity:0.0; 
stroke:#000000; stroke-width:59.0551; stroke-opacity:1; 
stroke-linecap:round; stroke-linejoin:round;">
<path d="M36196 51711
L35999 51711
" />
<path d="M35999 52021
L35999 51430
L36280 51430
" />
<path d="M36505 52021
L36505 51627
" />
<path d="M36505 51430
L36477 51458
L36505 51487
L36533 51458
L36505 51430
L36505 51487
" />
<path d="M36871 52021
L36815 51993
L36787 51936
L36787 51430
" />
<path d="M37321 51993
L37265 52021
L37152 52021
L37096 51993
L37068 51936
L37068 51711
L37096 51655
L37152 51627
L37265 51627
L37321 51655
L37349 51711
L37349 51768
L37068 51824
" />
<path d="M37602 51965
L37630 51993
L37602 52021
L37574 51993
L37602 51965
L37602 52021
" />
<path d="M37602 51655
L37630 51683
L37602 51711
L37574 51683
L37602 51655
L37602 51711
" />
<path d="M38305 51852
L38586 51852
" />
<path d="M38249 52021
L38446 51430
L38643 52021
" />
<path d="M39093 51627
L39093 52021
" />
<path d="M38839 51627
L38839 51936
L38868 51993
L38924 52021
L39008 52021
L39064 51993
L39093 51965
" />
<path d="M39289 51627
L39514 51627
" />
<path d="M39374 51430
L39374 51936
L39402 51993
L39458 52021
L39514 52021
" />
<path d="M39796 52021
L39739 51993
L39711 51965
L39683 51908
L39683 51740
L39711 51683
L39739 51655
L39796 51627
L39880 51627
L39936 51655
L39964 51683
L39992 51740
L39992 51908
L39964 51965
L39936 51993
L39880 52021
L39796 52021
" />
<path d="M40217 51993
L40274 52021
L40386 52021
L40442 51993
L40470 51936
L40470 51908
L40442 51852
L40386 51824
L40302 51824
L40246 51796
L40217 51740
L40217 51711
L40246 51655
L40302 51627
L40386 51627
L40442 51655
" />
<path d="M40977 51993
L40920 52021
L40808 52021
L40752 51993
L40724 51965
L40695 51908
L40695 51740
L40724 51683
L40752 51655
L40808 51627
L40920 51627
L40977 51655
" />
<path d="M41314 52021
L41258 51993
L41230 51965
L41202 51908
L41202 51740
L41230 51683
L41258 51655
L41314 51627
L41398 51627
L41455 51655
L41483 51683
L41511 51740
L41511 51908
L41483 51965
L41455 51993
L41398 52021
L41314 52021
" />
<path d="M41764 51627
L41764 52218
" />
<path d="M41764 51655
L41820 51627
L41933 51627
L41989 51655
L42017 51683
L42045 51740
L42045 51908
L42017 51965
L41989 51993
L41933 52021
L41820 52021
L41764 51993
" />
<path d="M42523 51993
L42467 52021
L42355 52021
L42298 51993
L42270 51936
L42270 51711
L42298 51655
L42355 51627
L42467 51627
L42523 51655
L42551 51711
L42551 51768
L42270 51824
" />
<path d="M42805 51965
L42833 51993
L42805 52021
L42776 51993
L42805 51965
L42805 52021
" />
<path d="M43086 52021
L43086 51430
" />
<path d="M43142 51796
L43311 52021
" />
<path d="M43311 51627
L43086 51852
" />
<path d="M43564 52021
L43564 51627
" />
<path d="M43564 51430
L43536 51458
L43564 51487
L43592 51458
L43564 51430
L43564 51487
" />
<path d="M44098 51993
L44042 52021
L43929 52021
L43873 51993
L43845 51965
L43817 51908
L43817 51740
L43845 51683
L43873 51655
L43929 51627
L44042 51627
L44098 51655
" />
<path d="M44604 52021
L44604 51711
L44576 51655
L44520 51627
L44407 51627
L44351 51655
" />
<path d="M44604 51993
L44548 52021
L44407 52021
L44351 51993
L44323 51936
L44323 51880
L44351 51824
L44407 51796
L44548 51796
L44604 51768
" />
<path d="M45139 52021
L45139 51430
" />
<path d="M45139 51993
L45082 52021
L44970 52021
L44914 51993
L44886 51965
L44857 51908
L44857 51740
L44886 51683
L44914 51655
L44970 51627
L45082 51627
L45139 51655
" />
<path d="M45279 52077
L45729 52077
" />
<path d="M45870 51627
L45870 52218
" />
<path d="M45870 51655
L45926 51627
L46039 51627
L46095 51655
L46123 51683
L46151 51740
L46151 51908
L46123 51965
L46095 51993
L46039 52021
L45926 52021
L45870 51993
" />
<path d="M46657 51993
L46601 52021
L46488 52021
L46432 51993
L46404 51965
L46376 51908
L46376 51740
L46404 51683
L46432 51655
L46488 51627
L46601 51627
L46657 51655
" />
<path d="M46910 52021
L46910 51430
" />
<path d="M46910 51655
L46967 51627
L47079 51627
L47135 51655
L47163 51683
L47192 51740
L47192 51908
L47163 51965
L47135 51993
L47079 52021
L46967 52021
L46910 51993
" />
</g>
<g style="fill:#000000; fill-opacity:0.0; 
stroke:#000000; stroke-width:39.3701; stroke-opacity:1; 
stroke-linecap:round; stroke-linejoin:round;">
</g>
<g style="fill:#000000; fill-opacity:0.0; 
stroke:#000000; stroke-width:59.0551; stroke-opacity:1; 
stroke-linecap:round; stroke-linejoin:round;">
<path d="M35435 47049
L77955 47049
" />
</g>
<g style="fill:#000000; fill-opacity:0.0; 
stroke:#000000; stroke-width:39.3701; stroke-opacity:1; 
stroke-linecap:round; stroke-linejoin:round;">
</g>
<g style="fill:#000000; fill-opacity:0.0; 
stroke:#000000; stroke-width:118.11; stroke-opacity:1; 
stroke-linecap:round; stroke-linejoin:round;">
<path d="M36141 50393
L36422 50393
" />
<path d="M36063 50561
L36334 49971
L36457 50561
" />
<path d="M36956 50168
L36907 50561
" />
<path d="M36703 50168
L36664 50477
L36685 50533
L36738 50561
L36822 50561
L36882 50533
L36914 50505
" />
<path d="M37153 50168
L37378 50168
" />
<path d="M37262 49971
L37199 50477
L37220 50533
L37272 50561
L37329 50561
" />
<path d="M37526 50561
L37599 49971
" />
<path d="M37779 50561
L37817 50252
L37796 50196
L37743 50168
L37659 50168
L37599 50196
L37568 50224
" />
<path d="M38144 50561
L38091 50533
L38067 50505
L38046 50449
L38067 50280
L38102 50224
L38134 50196
L38193 50168
L38278 50168
L38330 50196
L38355 50224
L38376 50280
L38355 50449
L38320 50505
L38288 50533
L38229 50561
L38144 50561
" />
<path d="M38594 50561
L38643 50168
" />
<path d="M38629 50280
L38664 50224
L38696 50196
L38756 50168
L38812 50168
" />
<path d="M38967 50505
L38991 50533
L38960 50561
L38935 50533
L38967 50505
L38960 50561
" />
<path d="M39005 50196
L39030 50224
L38998 50252
L38974 50224
L39005 50196
L38998 50252
" />
<path d="M39680 49971
L40018 49971
" />
<path d="M39775 50561
L39849 49971
" />
<path d="M40141 50561
L40215 49971
" />
<path d="M40394 50561
L40433 50252
L40411 50196
L40359 50168
L40274 50168
L40215 50196
L40183 50224
" />
<path d="M40759 50561
L40707 50533
L40682 50505
L40661 50449
L40682 50280
L40717 50224
L40749 50196
L40809 50168
L40893 50168
L40946 50196
L40970 50224
L40991 50280
L40970 50449
L40935 50505
L40904 50533
L40844 50561
L40759 50561
" />
<path d="M41209 50561
L41259 50168
" />
<path d="M41252 50224
L41283 50196
L41343 50168
L41427 50168
L41480 50196
L41501 50252
L41463 50561
" />
<path d="M41501 50252
L41536 50196
L41596 50168
L41680 50168
L41733 50196
L41754 50252
L41716 50561
" />
<path d="M42250 50561
L42289 50252
L42267 50196
L42215 50168
L42102 50168
L42043 50196
" />
<path d="M42253 50533
L42194 50561
L42053 50561
L42000 50533
L41979 50477
L41986 50421
L42021 50365
L42081 50336
L42222 50336
L42282 50308
" />
<path d="M42507 50533
L42559 50561
L42672 50561
L42732 50533
L42767 50477
L42770 50449
L42749 50393
L42696 50365
L42612 50365
L42559 50336
L42538 50280
L42542 50252
L42577 50196
L42637 50168
L42721 50168
L42774 50196
" />
<path d="M43740 50561
L43459 50561
L43533 49971
" />
<path d="M43976 50252
L44173 50252
" />
<path d="M44218 50561
L43937 50561
L44011 49971
L44292 49971
" />
<path d="M44472 50561
L44545 49971
L44770 49971
L44823 49999
L44848 50027
L44869 50083
L44858 50168
L44823 50224
L44791 50252
L44732 50280
L44507 50280
" />
<path d="M45248 49971
L45361 49971
L45414 49999
L45463 50055
L45477 50168
L45452 50365
L45410 50477
L45347 50533
L45287 50561
L45175 50561
L45122 50533
L45073 50477
L45059 50365
L45083 50168
L45125 50055
L45189 49999
L45248 49971
" />
<path d="M45681 50561
L45755 49971
" />
<path d="M45980 49971
L46299 50561
" />
<path d="M46373 49971
L45906 50561
" />
</g>
<g style="fill:#000000; fill-opacity:0.0; 
stroke:#000000; stroke-width:39.3701; stroke-opacity:1; 
stroke-linecap:round; stroke-linejoin:round;">
</g>
<g style="fill:#000000; fill-opacity:0.0; 
stroke:#000000; stroke-width:59.0551; stroke-opacity:1; 
stroke-linecap:round; stroke-linejoin:round;">
<path d="M64766 53545
L64766 49313
" />
</g>
<g style="fill:#000000; fill-opacity:0.0; 
stroke:#000000; stroke-width:39.3701; stroke-opacity:1; 
stroke-linecap:round; stroke-linejoin:round;">
<rect x="35637.1" y="41168.9" width="32666.7" height="5850" rx="0" />
</g>
<g style="fill:#000084; fill-opacity:0.0; 
stroke:#000084; stroke-width:-0.000393701; stroke-opacity:1; 
stroke-linecap:round; stroke-linejoin:round;">
</g>
<g style="fill:#000084; fill-opacity:0.0; 
stroke:#000084; stroke-width:39.3701; stroke-opacity:1; 
stroke-linecap:round; stroke-linejoin:round;">
<path d="M33113 30127
L33113 30915
" />
<path d="M32640 30127
L33113 30127
" />
<path d="M32640 30915
L32640 30127
" />
<path d="M33113 30915
L32640 30915
" />
<path d="M34097 30915
L33624 30915
" />
<path d="M33624 30915
L33624 30127
" />
<path d="M33624 30127
L34097 30127
" />
<path d="M34097 30127
L34097 30915
" />
<path d="M35081 30915
L34609 30915
" />
<path d="M34609 30915
L34609 30127
" />
<path d="M34609 30127
L35081 30127
" />
<path d="M35081 30127
L35081 30915
" />
<path d="M36065 30127
L36065 30915
" />
<path d="M35593 30127
L36065 30127
" />
<path d="M35593 30915
L35593 30127
" />
<path d="M36065 30915
L35593 30915
" />
<path d="M37050 30127
L37050 30915
" />
<path d="M36577 30127
L37050 30127
" />
<path d="M36577 30915
L36577 30127
" />
<path d="M37050 30915
L36577 30915
" />
<path d="M28782 28553
L28309 28553
" />
<path d="M28309 28553
L28309 27765
" />
<path d="M28309 27765
L28782 27765
" />
<path d="M28782 27765
L28782 28553
" />
<path d="M28782 23041
L28309 23041
" />
<path d="M28309 23041
L28309 22253
" />
<path d="M28309 22253
L28782 22253
" />
<path d="M28782 22253
L28782 23041
" />
<path d="M58457 16377
L57670 16377
" />
<path d="M58457 15905
L58457 16377
" />
<path d="M57670 15905
L58457 15905
" />
<path d="M57670 16377
L57670 15905
" />
<path d="M57689 24448
L57689 23976
" />
<path d="M57689 23976
L58477 23976
" />
<path d="M58477 23976
L58477 24448
" />
<path d="M58477 24448
L57689 24448
" />
<path d="M58477 32519
L57689 32519
" />
<path d="M58477 32047
L58477 32519
" />
<path d="M57689 32047
L58477 32047
" />
<path d="M57689 32519
L57689 32047
" />
<path d="M44353 22283
L41557 22283
" />
<path d="M41557 22283
L41557 19842
" />
<path d="M44353 19842
L44353 22283
" />
<path d="M44353 19842
L41557 19842
" />
<path d="M42699 21063
L42344 21063
" />
<path d="M43152 21063
L43545 21063
" />
<path d="M42699 20748
L42699 21378
" />
<path d="M43152 21358
L43152 20748
" />
<path d="M42699 21063
L43152 21358
" />
<path d="M42699 21063
L43152 20748
" />
<path d="M42699 23819
L43152 23504
" />
<path d="M42699 23819
L43152 24114
" />
<path d="M43152 24114
L43152 23504
" />
<path d="M42699 23504
L42699 24134
" />
<path d="M43152 23819
L43545 23819
" />
<path d="M42699 23819
L42344 23819
" />
<path d="M44353 22598
L41557 22598
" />
<path d="M44353 22598
L44353 25039
" />
<path d="M41557 25039
L41557 22598
" />
<path d="M44353 25039
L41557 25039
" />
<path d="M29687 13769
L30160 13769
" />
<path d="M30160 13769
L30160 14557
" />
<path d="M30160 14557
L29687 14557
" />
<path d="M29687 14557
L29687 13769
" />
<path d="M32246 13769
L32719 13769
" />
<path d="M32719 13769
L32719 14557
" />
<path d="M32719 14557
L32246 14557
" />
<path d="M32246 14557
L32246 13769
" />
<path d="M34805 14557
L34805 13769
" />
<path d="M35278 14557
L34805 14557
" />
<path d="M35278 13769
L35278 14557
" />
<path d="M34805 13769
L35278 13769
" />
<path d="M37365 13769
L37837 13769
" />
<path d="M37837 13769
L37837 14557
" />
<path d="M37837 14557
L37365 14557
" />
<path d="M37365 14557
L37365 13769
" />
<path d="M39924 14557
L39924 13769
" />
<path d="M40396 14557
L39924 14557
" />
<path d="M40396 13769
L40396 14557
" />
<path d="M39924 13769
L40396 13769
" />
<path d="M52739 17952
L50258 17952
" />
<path d="M50258 17952
L49865 18346
" />
<path d="M49865 18346
L49865 19645
" />
<path d="M49865 19645
L52739 19645
" />
<path d="M52739 19645
L52739 17952
" />
<path d="M52699 22775
L50219 22775
" />
<path d="M50219 22775
L49825 23169
" />
<path d="M49825 23169
L49825 24468
" />
<path d="M49825 24468
L52699 24468
" />
<path d="M52699 24468
L52699 22775
" />
<path d="M52699 31161
L52699 29468
" />
<path d="M49825 31161
L52699 31161
" />
<path d="M49825 29862
L49825 31161
" />
<path d="M50219 29468
L49825 29862
" />
<path d="M52699 29468
L50219 29468
" />
<path d="M48388 33480
L28388 33480
" />
<path d="M48388 31480
L48388 33480
" />
<path d="M28782 31480
L48388 31480
" />
<path d="M28388 31874
L28782 31480
" />
<path d="M28388 33480
L28388 31874
" />
<path d="M43542 15314
L46022 15314
" />
<path d="M46022 15314
L46416 14921
" />
<path d="M46416 14921
L46416 13622
" />
<path d="M46416 13622
L43542 13622
" />
<path d="M43542 13622
L43542 15314
" />
</g>
<g style="fill:#000084; fill-opacity:0.0; 
stroke:#000084; stroke-width:59.0551; stroke-opacity:1; 
stroke-linecap:round; stroke-linejoin:round;">
<path d="M32698 27540
L32698 27315
" />
<path d="M32698 27427
L33092 27427
L33036 27390
L32998 27352
L32979 27315
" />
<path d="M33092 27784
L33092 27821
L33073 27859
L33054 27877
L33017 27896
L32942 27915
L32848 27915
L32773 27896
L32736 27877
L32717 27859
L32698 27821
L32698 27784
L32717 27746
L32736 27727
L32773 27709
L32848 27690
L32942 27690
L33017 27709
L33054 27727
L33073 27746
L33092 27784
" />
<path d="M33092 28158
L33092 28196
L33073 28233
L33054 28252
L33017 28271
L32942 28290
L32848 28290
L32773 28271
L32736 28252
L32717 28233
L32698 28196
L32698 28158
L32717 28121
L32736 28102
L32773 28083
L32848 28065
L32942 28065
L33017 28083
L33054 28102
L33073 28121
L33092 28158
" />
<path d="M32961 28458
L32698 28458
" />
<path d="M32923 28458
L32942 28477
L32961 28515
L32961 28571
L32942 28608
L32904 28627
L32698 28627
" />
<path d="M32904 28946
L32904 28815
" />
<path d="M32698 28815
L33092 28815
L33092 29002
" />
<path d="M33683 27540
L33683 27315
" />
<path d="M33683 27427
L34076 27427
L34020 27390
L33982 27352
L33964 27315
" />
<path d="M34076 27784
L34076 27821
L34057 27859
L34039 27877
L34001 27896
L33926 27915
L33832 27915
L33757 27896
L33720 27877
L33701 27859
L33683 27821
L33683 27784
L33701 27746
L33720 27727
L33757 27709
L33832 27690
L33926 27690
L34001 27709
L34039 27727
L34057 27746
L34076 27784
" />
<path d="M34076 28158
L34076 28196
L34057 28233
L34039 28252
L34001 28271
L33926 28290
L33832 28290
L33757 28271
L33720 28252
L33701 28233
L33683 28196
L33683 28158
L33701 28121
L33720 28102
L33757 28083
L33832 28065
L33926 28065
L34001 28083
L34039 28102
L34057 28121
L34076 28158
" />
<path d="M33945 28458
L33683 28458
" />
<path d="M33907 28458
L33926 28477
L33945 28515
L33945 28571
L33926 28608
L33889 28627
L33683 28627
" />
<path d="M33889 28946
L33889 28815
" />
<path d="M33683 28815
L34076 28815
L34076 29002
" />
<path d="M34667 27540
L34667 27315
" />
<path d="M34667 27427
L35060 27427
L35004 27390
L34967 27352
L34948 27315
" />
<path d="M35060 27784
L35060 27821
L35042 27859
L35023 27877
L34985 27896
L34910 27915
L34817 27915
L34742 27896
L34704 27877
L34685 27859
L34667 27821
L34667 27784
L34685 27746
L34704 27727
L34742 27709
L34817 27690
L34910 27690
L34985 27709
L35023 27727
L35042 27746
L35060 27784
" />
<path d="M35060 28158
L35060 28196
L35042 28233
L35023 28252
L34985 28271
L34910 28290
L34817 28290
L34742 28271
L34704 28252
L34685 28233
L34667 28196
L34667 28158
L34685 28121
L34704 28102
L34742 28083
L34817 28065
L34910 28065
L34985 28083
L35023 28102
L35042 28121
L35060 28158
" />
<path d="M34929 28458
L34667 28458
" />
<path d="M34892 28458
L34910 28477
L34929 28515
L34929 28571
L34910 28608
L34873 28627
L34667 28627
" />
<path d="M34873 28946
L34873 28815
" />
<path d="M34667 28815
L35060 28815
L35060 29002
" />
<path d="M35651 27540
L35651 27315
" />
<path d="M35651 27427
L36045 27427
L35988 27390
L35951 27352
L35932 27315
" />
<path d="M36045 27784
L36045 27821
L36026 27859
L36007 27877
L35970 27896
L35895 27915
L35801 27915
L35726 27896
L35688 27877
L35670 27859
L35651 27821
L35651 27784
L35670 27746
L35688 27727
L35726 27709
L35801 27690
L35895 27690
L35970 27709
L36007 27727
L36026 27746
L36045 27784
" />
<path d="M36045 28158
L36045 28196
L36026 28233
L36007 28252
L35970 28271
L35895 28290
L35801 28290
L35726 28271
L35688 28252
L35670 28233
L35651 28196
L35651 28158
L35670 28121
L35688 28102
L35726 28083
L35801 28065
L35895 28065
L35970 28083
L36007 28102
L36026 28121
L36045 28158
" />
<path d="M35913 28458
L35651 28458
" />
<path d="M35876 28458
L35895 28477
L35913 28515
L35913 28571
L35895 28608
L35857 28627
L35651 28627
" />
<path d="M35857 28946
L35857 28815
" />
<path d="M35651 28815
L36045 28815
L36045 29002
" />
<path d="M36635 27540
L36635 27315
" />
<path d="M36635 27427
L37029 27427
L36973 27390
L36935 27352
L36916 27315
" />
<path d="M37029 27784
L37029 27821
L37010 27859
L36991 27877
L36954 27896
L36879 27915
L36785 27915
L36710 27896
L36673 27877
L36654 27859
L36635 27821
L36635 27784
L36654 27746
L36673 27727
L36710 27709
L36785 27690
L36879 27690
L36954 27709
L36991 27727
L37010 27746
L37029 27784
" />
<path d="M37029 28158
L37029 28196
L37010 28233
L36991 28252
L36954 28271
L36879 28290
L36785 28290
L36710 28271
L36673 28252
L36654 28233
L36635 28196
L36635 28158
L36654 28121
L36673 28102
L36710 28083
L36785 28065
L36879 28065
L36954 28083
L36991 28102
L37010 28121
L37029 28158
" />
<path d="M36898 28458
L36635 28458
" />
<path d="M36860 28458
L36879 28477
L36898 28515
L36898 28571
L36879 28608
L36841 28627
L36635 28627
" />
<path d="M36841 28946
L36841 28815
" />
<path d="M36635 28815
L37029 28815
L37029 29002
" />
<path d="M27936 27245
L27711 27245
" />
<path d="M27824 27245
L27824 26851
L27786 26907
L27749 26945
L27711 26963
" />
<path d="M28180 26851
L28218 26851
L28255 26870
L28274 26888
L28293 26926
L28311 27001
L28311 27095
L28293 27170
L28274 27207
L28255 27226
L28218 27245
L28180 27245
L28143 27226
L28124 27207
L28105 27170
L28086 27095
L28086 27001
L28105 26926
L28124 26888
L28143 26870
L28180 26851
" />
<path d="M28555 26851
L28593 26851
L28630 26870
L28649 26888
L28668 26926
L28686 27001
L28686 27095
L28668 27170
L28649 27207
L28630 27226
L28593 27245
L28555 27245
L28518 27226
L28499 27207
L28480 27170
L28461 27095
L28461 27001
L28480 26926
L28499 26888
L28518 26870
L28555 26851
" />
<path d="M28855 26982
L28855 27245
" />
<path d="M28855 27020
L28874 27001
L28911 26982
L28967 26982
L29005 27001
L29024 27038
L29024 27245
" />
<path d="M29342 27038
L29211 27038
" />
<path d="M29211 27245
L29211 26851
L29399 26851
" />
<path d="M27936 21733
L27711 21733
" />
<path d="M27824 21733
L27824 21339
L27786 21395
L27749 21433
L27711 21452
" />
<path d="M28180 21339
L28218 21339
L28255 21358
L28274 21377
L28293 21414
L28311 21489
L28311 21583
L28293 21658
L28274 21695
L28255 21714
L28218 21733
L28180 21733
L28143 21714
L28124 21695
L28105 21658
L28086 21583
L28086 21489
L28105 21414
L28124 21377
L28143 21358
L28180 21339
" />
<path d="M28555 21339
L28593 21339
L28630 21358
L28649 21377
L28668 21414
L28686 21489
L28686 21583
L28668 21658
L28649 21695
L28630 21714
L28593 21733
L28555 21733
L28518 21714
L28499 21695
L28480 21658
L28461 21583
L28461 21489
L28480 21414
L28499 21377
L28518 21358
L28555 21339
" />
<path d="M28855 21470
L28855 21733
" />
<path d="M28855 21508
L28874 21489
L28911 21470
L28967 21470
L29005 21489
L29024 21526
L29024 21733
" />
<path d="M29342 21526
L29211 21526
" />
<path d="M29211 21733
L29211 21339
L29399 21339
" />
<path d="M57464 17107
L57239 17107
" />
<path d="M57351 17107
L57351 16713
L57314 16769
L57276 16807
L57239 16826
" />
<path d="M57708 16713
L57745 16713
L57783 16732
L57801 16751
L57820 16788
L57839 16863
L57839 16957
L57820 17032
L57801 17069
L57783 17088
L57745 17107
L57708 17107
L57670 17088
L57651 17069
L57633 17032
L57614 16957
L57614 16863
L57633 16788
L57651 16751
L57670 16732
L57708 16713
" />
<path d="M58083 16713
L58120 16713
L58158 16732
L58176 16751
L58195 16788
L58214 16863
L58214 16957
L58195 17032
L58176 17069
L58158 17088
L58120 17107
L58083 17107
L58045 17088
L58026 17069
L58008 17032
L57989 16957
L57989 16863
L58008 16788
L58026 16751
L58045 16732
L58083 16713
" />
<path d="M58383 16844
L58383 17107
" />
<path d="M58383 16882
L58401 16863
L58439 16844
L58495 16844
L58533 16863
L58551 16901
L58551 17107
" />
<path d="M58870 16901
L58739 16901
" />
<path d="M58739 17107
L58739 16713
L58926 16713
" />
<path d="M57464 25178
L57239 25178
" />
<path d="M57351 25178
L57351 24784
L57314 24840
L57276 24878
L57239 24896
" />
<path d="M57708 24784
L57745 24784
L57783 24803
L57801 24821
L57820 24859
L57839 24934
L57839 25028
L57820 25103
L57801 25140
L57783 25159
L57745 25178
L57708 25178
L57670 25159
L57651 25140
L57633 25103
L57614 25028
L57614 24934
L57633 24859
L57651 24821
L57670 24803
L57708 24784
" />
<path d="M58083 24784
L58120 24784
L58158 24803
L58176 24821
L58195 24859
L58214 24934
L58214 25028
L58195 25103
L58176 25140
L58158 25159
L58120 25178
L58083 25178
L58045 25159
L58026 25140
L58008 25103
L57989 25028
L57989 24934
L58008 24859
L58026 24821
L58045 24803
L58083 24784
" />
<path d="M58383 24915
L58383 25178
" />
<path d="M58383 24953
L58401 24934
L58439 24915
L58495 24915
L58533 24934
L58551 24971
L58551 25178
" />
<path d="M58870 24971
L58739 24971
" />
<path d="M58739 25178
L58739 24784
L58926 24784
" />
<path d="M57464 33248
L57239 33248
" />
<path d="M57351 33248
L57351 32855
L57314 32911
L57276 32949
L57239 32967
" />
<path d="M57708 32855
L57745 32855
L57783 32874
L57801 32892
L57820 32930
L57839 33005
L57839 33098
L57820 33173
L57801 33211
L57783 33230
L57745 33248
L57708 33248
L57670 33230
L57651 33211
L57633 33173
L57614 33098
L57614 33005
L57633 32930
L57651 32892
L57670 32874
L57708 32855
" />
<path d="M58083 32855
L58120 32855
L58158 32874
L58176 32892
L58195 32930
L58214 33005
L58214 33098
L58195 33173
L58176 33211
L58158 33230
L58120 33248
L58083 33248
L58045 33230
L58026 33211
L58008 33173
L57989 33098
L57989 33005
L58008 32930
L58026 32892
L58045 32874
L58083 32855
" />
<path d="M58383 32986
L58383 33248
" />
<path d="M58383 33023
L58401 33005
L58439 32986
L58495 32986
L58533 33005
L58551 33042
L58551 33248
" />
<path d="M58870 33042
L58739 33042
" />
<path d="M58739 33248
L58739 32855
L58926 32855
" />
<path d="M41783 19568
L41840 19587
L41933 19587
L41971 19568
L41990 19550
L42008 19512
L42008 19475
L41990 19437
L41971 19418
L41933 19400
L41858 19381
L41821 19362
L41802 19343
L41783 19306
L41783 19268
L41802 19231
L41821 19212
L41858 19193
L41952 19193
L42008 19212
" />
<path d="M42346 19568
L42308 19587
L42233 19587
L42196 19568
L42177 19550
L42158 19512
L42158 19400
L42177 19362
L42196 19343
L42233 19325
L42308 19325
L42346 19343
" />
<path d="M42515 19587
L42515 19193
" />
<path d="M42683 19587
L42683 19381
L42665 19343
L42627 19325
L42571 19325
L42533 19343
L42515 19362
" />
<path d="M42927 19587
L42889 19568
L42871 19550
L42852 19512
L42852 19400
L42871 19362
L42889 19343
L42927 19325
L42983 19325
L43021 19343
L43039 19362
L43058 19400
L43058 19512
L43039 19550
L43021 19568
L42983 19587
L42927 19587
" />
<path d="M43171 19325
L43321 19325
" />
<path d="M43227 19193
L43227 19531
L43246 19568
L43283 19587
L43321 19587
" />
<path d="M43396 19325
L43546 19325
" />
<path d="M43452 19193
L43452 19531
L43471 19568
L43508 19587
L43546 19587
" />
<path d="M43677 19587
L43677 19193
" />
<path d="M43714 19437
L43827 19587
" />
<path d="M43827 19325
L43677 19475
" />
<path d="M43958 19325
L44052 19587
" />
<path d="M44146 19325
L44052 19587
L44014 19681
L43996 19700
L43958 19718
" />
<path d="M42711 25650
L42486 25650
" />
<path d="M42599 25650
L42599 25256
L42561 25313
L42524 25350
L42486 25369
" />
<path d="M43049 25388
L43049 25650
" />
<path d="M42955 25238
L42861 25519
L43105 25519
" />
<path d="M43199 25256
L43330 25650
L43461 25256
" />
<path d="M29305 16024
L29080 16024
" />
<path d="M29192 16024
L29192 15630
L29155 15687
L29117 15724
L29080 15743
" />
<path d="M29549 15630
L29586 15630
L29624 15649
L29642 15668
L29661 15705
L29680 15780
L29680 15874
L29661 15949
L29642 15987
L29624 16005
L29586 16024
L29549 16024
L29511 16005
L29492 15987
L29474 15949
L29455 15874
L29455 15780
L29474 15705
L29492 15668
L29511 15649
L29549 15630
" />
<path d="M29924 15630
L29961 15630
L29999 15649
L30017 15668
L30036 15705
L30055 15780
L30055 15874
L30036 15949
L30017 15987
L29999 16005
L29961 16024
L29924 16024
L29886 16005
L29867 15987
L29849 15949
L29830 15874
L29830 15780
L29849 15705
L29867 15668
L29886 15649
L29924 15630
" />
<path d="M30224 16024
L30224 15630
" />
<path d="M30261 15874
L30374 16024
" />
<path d="M30374 15762
L30224 15912
" />
<path d="M30767 16024
L30636 15837
" />
<path d="M30542 16024
L30542 15630
L30692 15630
L30730 15649
L30748 15668
L30767 15705
L30767 15762
L30748 15799
L30730 15818
L30692 15837
L30542 15837
" />
<path d="M31864 16024
L31639 16024
" />
<path d="M31751 16024
L31751 15630
L31714 15687
L31677 15724
L31639 15743
" />
<path d="M32108 15630
L32145 15630
L32183 15649
L32201 15668
L32220 15705
L32239 15780
L32239 15874
L32220 15949
L32201 15987
L32183 16005
L32145 16024
L32108 16024
L32070 16005
L32051 15987
L32033 15949
L32014 15874
L32014 15780
L32033 15705
L32051 15668
L32070 15649
L32108 15630
" />
<path d="M32483 15630
L32520 15630
L32558 15649
L32576 15668
L32595 15705
L32614 15780
L32614 15874
L32595 15949
L32576 15987
L32558 16005
L32520 16024
L32483 16024
L32445 16005
L32426 15987
L32408 15949
L32389 15874
L32389 15780
L32408 15705
L32426 15668
L32445 15649
L32483 15630
" />
<path d="M32783 16024
L32783 15630
" />
<path d="M32820 15874
L32933 16024
" />
<path d="M32933 15762
L32783 15912
" />
<path d="M33326 16024
L33195 15837
" />
<path d="M33101 16024
L33101 15630
L33251 15630
L33289 15649
L33308 15668
L33326 15705
L33326 15762
L33308 15799
L33289 15818
L33251 15837
L33101 15837
" />
<path d="M34423 16024
L34198 16024
" />
<path d="M34311 16024
L34311 15630
L34273 15687
L34236 15724
L34198 15743
" />
<path d="M34667 15630
L34704 15630
L34742 15649
L34760 15668
L34779 15705
L34798 15780
L34798 15874
L34779 15949
L34760 15987
L34742 16005
L34704 16024
L34667 16024
L34629 16005
L34611 15987
L34592 15949
L34573 15874
L34573 15780
L34592 15705
L34611 15668
L34629 15649
L34667 15630
" />
<path d="M35042 15630
L35079 15630
L35117 15649
L35135 15668
L35154 15705
L35173 15780
L35173 15874
L35154 15949
L35135 15987
L35117 16005
L35079 16024
L35042 16024
L35004 16005
L34985 15987
L34967 15949
L34948 15874
L34948 15780
L34967 15705
L34985 15668
L35004 15649
L35042 15630
" />
<path d="M35342 16024
L35342 15630
" />
<path d="M35379 15874
L35492 16024
" />
<path d="M35492 15762
L35342 15912
" />
<path d="M35885 16024
L35754 15837
" />
<path d="M35660 16024
L35660 15630
L35810 15630
L35848 15649
L35867 15668
L35885 15705
L35885 15762
L35867 15799
L35848 15818
L35810 15837
L35660 15837
" />
<path d="M36982 16024
L36757 16024
" />
<path d="M36870 16024
L36870 15630
L36832 15687
L36795 15724
L36757 15743
" />
<path d="M37226 15630
L37263 15630
L37301 15649
L37320 15668
L37338 15705
L37357 15780
L37357 15874
L37338 15949
L37320 15987
L37301 16005
L37263 16024
L37226 16024
L37188 16005
L37170 15987
L37151 15949
L37132 15874
L37132 15780
L37151 15705
L37170 15668
L37188 15649
L37226 15630
" />
<path d="M37601 15630
L37638 15630
L37676 15649
L37694 15668
L37713 15705
L37732 15780
L37732 15874
L37713 15949
L37694 15987
L37676 16005
L37638 16024
L37601 16024
L37563 16005
L37545 15987
L37526 15949
L37507 15874
L37507 15780
L37526 15705
L37545 15668
L37563 15649
L37601 15630
" />
<path d="M37901 16024
L37901 15630
" />
<path d="M37938 15874
L38051 16024
" />
<path d="M38051 15762
L37901 15912
" />
<path d="M38444 16024
L38313 15837
" />
<path d="M38219 16024
L38219 15630
L38369 15630
L38407 15649
L38426 15668
L38444 15705
L38444 15762
L38426 15799
L38407 15818
L38369 15837
L38219 15837
" />
<path d="M39541 16024
L39316 16024
" />
<path d="M39429 16024
L39429 15630
L39391 15687
L39354 15724
L39316 15743
" />
<path d="M39785 15630
L39822 15630
L39860 15649
L39879 15668
L39897 15705
L39916 15780
L39916 15874
L39897 15949
L39879 15987
L39860 16005
L39822 16024
L39785 16024
L39747 16005
L39729 15987
L39710 15949
L39691 15874
L39691 15780
L39710 15705
L39729 15668
L39747 15649
L39785 15630
" />
<path d="M40160 15630
L40197 15630
L40235 15649
L40254 15668
L40272 15705
L40291 15780
L40291 15874
L40272 15949
L40254 15987
L40235 16005
L40197 16024
L40160 16024
L40122 16005
L40104 15987
L40085 15949
L40066 15874
L40066 15780
L40085 15705
L40104 15668
L40122 15649
L40160 15630
" />
<path d="M40460 16024
L40460 15630
" />
<path d="M40497 15874
L40610 16024
" />
<path d="M40610 15762
L40460 15912
" />
<path d="M41003 16024
L40872 15837
" />
<path d="M40778 16024
L40778 15630
L40928 15630
L40966 15649
L40985 15668
L41003 15705
L41003 15762
L40985 15799
L40966 15818
L40928 15837
L40778 15837
" />
<path d="M50664 20256
L50439 20256
" />
<path d="M50552 20256
L50552 19863
L50514 19919
L50477 19956
L50439 19975
" />
<path d="M50908 19863
L50945 19863
L50983 19881
L51002 19900
L51020 19938
L51039 20013
L51039 20106
L51020 20181
L51002 20219
L50983 20238
L50945 20256
L50908 20256
L50870 20238
L50852 20219
L50833 20181
L50814 20106
L50814 20013
L50833 19938
L50852 19900
L50870 19881
L50908 19863
" />
<path d="M51283 19863
L51320 19863
L51358 19881
L51377 19900
L51395 19938
L51414 20013
L51414 20106
L51395 20181
L51377 20219
L51358 20238
L51320 20256
L51283 20256
L51245 20238
L51227 20219
L51208 20181
L51189 20106
L51189 20013
L51208 19938
L51227 19900
L51245 19881
L51283 19863
" />
<path d="M51583 19994
L51583 20388
" />
<path d="M51770 20200
L51789 20238
L51826 20256
" />
<path d="M51583 20200
L51602 20238
L51639 20256
L51714 20256
L51751 20238
L51770 20200
L51770 19994
" />
<path d="M52126 20050
L51995 20050
" />
<path d="M51995 20256
L51995 19863
L52183 19863
" />
<path d="M50625 25079
L50400 25079
" />
<path d="M50512 25079
L50512 24685
L50475 24742
L50437 24779
L50400 24798
" />
<path d="M50868 24685
L50906 24685
L50943 24704
L50962 24723
L50981 24760
L51000 24835
L51000 24929
L50981 25004
L50962 25042
L50943 25060
L50906 25079
L50868 25079
L50831 25060
L50812 25042
L50793 25004
L50775 24929
L50775 24835
L50793 24760
L50812 24723
L50831 24704
L50868 24685
" />
<path d="M51243 24685
L51281 24685
L51318 24704
L51337 24723
L51356 24760
L51375 24835
L51375 24929
L51356 25004
L51337 25042
L51318 25060
L51281 25079
L51243 25079
L51206 25060
L51187 25042
L51168 25004
L51150 24929
L51150 24835
L51168 24760
L51187 24723
L51206 24704
L51243 24685
" />
<path d="M51543 24817
L51543 25210
" />
<path d="M51731 25023
L51750 25060
L51787 25079
" />
<path d="M51543 25023
L51562 25060
L51600 25079
L51675 25079
L51712 25060
L51731 25023
L51731 24817
" />
<path d="M52087 24873
L51956 24873
" />
<path d="M51956 25079
L51956 24685
L52143 24685
" />
<path d="M50625 31772
L50400 31772
" />
<path d="M50512 31772
L50512 31378
L50475 31435
L50437 31472
L50400 31491
" />
<path d="M50868 31378
L50906 31378
L50943 31397
L50962 31416
L50981 31453
L51000 31528
L51000 31622
L50981 31697
L50962 31735
L50943 31753
L50906 31772
L50868 31772
L50831 31753
L50812 31735
L50793 31697
L50775 31622
L50775 31528
L50793 31453
L50812 31416
L50831 31397
L50868 31378
" />
<path d="M51243 31378
L51281 31378
L51318 31397
L51337 31416
L51356 31453
L51375 31528
L51375 31622
L51356 31697
L51337 31735
L51318 31753
L51281 31772
L51243 31772
L51206 31753
L51187 31735
L51168 31697
L51150 31622
L51150 31528
L51168 31453
L51187 31416
L51206 31397
L51243 31378
" />
<path d="M51543 31510
L51543 31903
" />
<path d="M51731 31716
L51750 31753
L51787 31772
" />
<path d="M51543 31716
L51562 31753
L51600 31772
L51675 31772
L51712 31753
L51731 31716
L51731 31510
" />
<path d="M52087 31566
L51956 31566
" />
<path d="M51956 31772
L51956 31378
L52143 31378
" />
<path d="M40497 31046
L40479 31064
L40422 31083
L40385 31083
L40329 31064
L40291 31027
L40272 30989
L40254 30914
L40254 30858
L40272 30783
L40291 30746
L40329 30708
L40385 30689
L40422 30689
L40479 30708
L40497 30727
" />
<path d="M40722 31083
L40685 31064
L40666 31046
L40647 31008
L40647 30896
L40666 30858
L40685 30839
L40722 30821
L40778 30821
L40816 30839
L40835 30858
L40853 30896
L40853 31008
L40835 31046
L40816 31064
L40778 31083
L40722 31083
" />
<path d="M41022 30821
L41022 31083
" />
<path d="M41022 30858
L41041 30839
L41078 30821
L41135 30821
L41172 30839
L41191 30877
L41191 31083
" />
<path d="M41378 30821
L41378 31083
" />
<path d="M41378 30858
L41397 30839
L41435 30821
L41491 30821
L41528 30839
L41547 30877
L41547 31083
" />
<path d="M41641 31121
L41941 31121
" />
<path d="M42110 30689
L42147 30689
L42185 30708
L42203 30727
L42222 30764
L42241 30839
L42241 30933
L42222 31008
L42203 31046
L42185 31064
L42147 31083
L42110 31083
L42072 31064
L42053 31046
L42035 31008
L42016 30933
L42016 30839
L42035 30764
L42053 30727
L42072 30708
L42110 30689
" />
<path d="M42391 30727
L42410 30708
L42447 30689
L42541 30689
L42578 30708
L42597 30727
L42616 30764
L42616 30802
L42597 30858
L42372 31083
L42616 31083
" />
<path d="M42747 31083
L42953 30821
" />
<path d="M42747 30821
L42953 31083
" />
<path d="M43084 30727
L43103 30708
L43141 30689
L43234 30689
L43272 30708
L43291 30727
L43309 30764
L43309 30802
L43291 30858
L43066 31083
L43309 31083
" />
<path d="M43553 30689
L43591 30689
L43628 30708
L43647 30727
L43666 30764
L43684 30839
L43684 30933
L43666 31008
L43647 31046
L43628 31064
L43591 31083
L43553 31083
L43516 31064
L43497 31046
L43478 31008
L43459 30933
L43459 30839
L43478 30764
L43497 30727
L43516 30708
L43553 30689
" />
<path d="M43759 31121
L44059 31121
" />
<path d="M44228 30689
L44303 30689
L44341 30708
L44378 30746
L44397 30821
L44397 30952
L44378 31027
L44341 31064
L44303 31083
L44228 31083
L44191 31064
L44153 31027
L44134 30952
L44134 30821
L44153 30746
L44191 30708
L44228 30689
" />
<path d="M44734 31083
L44734 30689
" />
<path d="M44734 31064
L44697 31083
L44622 31083
L44584 31064
L44566 31046
L44547 31008
L44547 30896
L44566 30858
L44584 30839
L44622 30821
L44697 30821
L44734 30839
" />
<path d="M45090 31083
L45090 30689
" />
<path d="M45090 31064
L45053 31083
L44978 31083
L44940 31064
L44922 31046
L44903 31008
L44903 30896
L44922 30858
L44940 30839
L44978 30821
L45053 30821
L45090 30839
" />
<path d="M45184 31121
L45484 31121
" />
<path d="M45578 30877
L45709 30877
" />
<path d="M45765 31083
L45578 31083
L45578 30689
L45765 30689
" />
<path d="M45897 30821
L45990 31083
L46084 30821
" />
<path d="M46384 31064
L46347 31083
L46272 31083
L46234 31064
L46215 31027
L46215 30877
L46234 30839
L46272 30821
L46347 30821
L46384 30839
L46403 30877
L46403 30914
L46215 30952
" />
<path d="M46572 30821
L46572 31083
" />
<path d="M46572 30858
L46590 30839
L46628 30821
L46684 30821
L46721 30839
L46740 30877
L46740 31083
" />
<path d="M44361 15926
L44136 15926
" />
<path d="M44248 15926
L44248 15532
L44211 15588
L44174 15626
L44136 15644
" />
<path d="M44605 15532
L44642 15532
L44680 15551
L44698 15569
L44717 15607
L44736 15682
L44736 15776
L44717 15851
L44698 15888
L44680 15907
L44642 15926
L44605 15926
L44567 15907
L44548 15888
L44530 15851
L44511 15776
L44511 15682
L44530 15607
L44548 15569
L44567 15551
L44605 15532
" />
<path d="M44980 15532
L45017 15532
L45055 15551
L45073 15569
L45092 15607
L45111 15682
L45111 15776
L45092 15851
L45073 15888
L45055 15907
L45017 15926
L44980 15926
L44942 15907
L44923 15888
L44905 15851
L44886 15776
L44886 15682
L44905 15607
L44923 15569
L44942 15551
L44980 15532
" />
<path d="M45280 15663
L45280 16057
" />
<path d="M45467 15869
L45486 15907
L45523 15926
" />
<path d="M45280 15869
L45298 15907
L45336 15926
L45411 15926
L45448 15907
L45467 15869
L45467 15663
" />
<path d="M45823 15719
L45692 15719
" />
<path d="M45692 15926
L45692 15532
L45880 15532
" />
</g>
<g style="fill:#000000; fill-opacity:0.0; 
stroke:#000000; stroke-width:59.0551; stroke-opacity:1; 
stroke-linecap:round; stroke-linejoin:round;">
</g>
<g style="fill:#848484; fill-opacity:0.0; 
stroke:#848484; stroke-width:59.0551; stroke-opacity:1; 
stroke-linecap:round; stroke-linejoin:round;">
</g>
<g style="fill:#848484; fill-opacity:0.0; 
stroke:#848484; stroke-width:19.685; stroke-opacity:1; 
stroke-linecap:round; stroke-linejoin:round;">
<path d="M33250 29793
L33250 31250
" />
<path d="M32502 29793
L33250 29793
" />
<path d="M32502 31250
L32502 29793
" />
<path d="M33250 31250
L32502 31250
" />
<path d="M34235 31250
L33487 31250
" />
<path d="M33487 31250
L33487 29793
" />
<path d="M33487 29793
L34235 29793
" />
<path d="M34235 29793
L34235 31250
" />
<path d="M35219 31250
L34471 31250
" />
<path d="M34471 31250
L34471 29793
" />
<path d="M34471 29793
L35219 29793
" />
<path d="M35219 29793
L35219 31250
" />
<path d="M36203 29793
L36203 31250
" />
<path d="M35455 29793
L36203 29793
" />
<path d="M35455 31250
L35455 29793
" />
<path d="M36203 31250
L35455 31250
" />
<path d="M37187 29793
L37187 31250
" />
<path d="M36439 29793
L37187 29793
" />
<path d="M36439 31250
L36439 29793
" />
<path d="M37187 31250
L36439 31250
" />
<path d="M28920 28887
L28172 28887
" />
<path d="M28172 28887
L28172 27431
" />
<path d="M28172 27431
L28920 27431
" />
<path d="M28920 27431
L28920 28887
" />
<path d="M28920 23375
L28172 23375
" />
<path d="M28172 23375
L28172 21919
" />
<path d="M28172 21919
L28920 21919
" />
<path d="M28920 21919
L28920 23375
" />
<path d="M58792 16515
L57335 16515
" />
<path d="M58792 15767
L58792 16515
" />
<path d="M57335 15767
L58792 15767
" />
<path d="M57335 16515
L57335 15767
" />
<path d="M57355 24586
L57355 23838
" />
<path d="M57355 23838
L58811 23838
" />
<path d="M58811 23838
L58811 24586
" />
<path d="M58811 24586
L57355 24586
" />
<path d="M58811 32657
L57355 32657
" />
<path d="M58811 31909
L58811 32657
" />
<path d="M57355 31909
L58811 31909
" />
<path d="M57355 32657
L57355 31909
" />
<path d="M40239 19744
L45672 19744
" />
<path d="M45672 19744
L45672 22381
" />
<path d="M45672 22381
L40239 22381
" />
<path d="M40239 22381
L40239 19744
" />
<path d="M40239 25137
L40239 22500
" />
<path d="M45672 25137
L40239 25137
" />
<path d="M45672 22500
L45672 25137
" />
<path d="M40239 22500
L45672 22500
" />
<path d="M29550 13435
L30298 13435
" />
<path d="M30298 13435
L30298 14891
" />
<path d="M30298 14891
L29550 14891
" />
<path d="M29550 14891
L29550 13435
" />
<path d="M32109 13435
L32857 13435
" />
<path d="M32857 13435
L32857 14891
" />
<path d="M32857 14891
L32109 14891
" />
<path d="M32109 14891
L32109 13435
" />
<path d="M34668 14891
L34668 13435
" />
<path d="M35416 14891
L34668 14891
" />
<path d="M35416 13435
L35416 14891
" />
<path d="M34668 13435
L35416 13435
" />
<path d="M37227 13435
L37975 13435
" />
<path d="M37975 13435
L37975 14891
" />
<path d="M37975 14891
L37227 14891
" />
<path d="M37227 14891
L37227 13435
" />
<path d="M39786 14891
L39786 13435
" />
<path d="M40534 14891
L39786 14891
" />
<path d="M40534 13435
L40534 14891
" />
<path d="M39786 13435
L40534 13435
" />
<path d="M49498 19744
L49498 17854
" />
<path d="M49498 17854
L53105 17854
" />
<path d="M53105 17854
L53105 19744
" />
<path d="M53105 19744
L49498 19744
" />
<path d="M49459 24566
L49459 22677
" />
<path d="M49459 22677
L53065 22677
" />
<path d="M53065 22677
L53065 24566
" />
<path d="M53065 24566
L49459 24566
" />
<path d="M53065 31259
L49459 31259
" />
<path d="M53065 29370
L53065 31259
" />
<path d="M49459 29370
L53065 29370
" />
<path d="M49459 31259
L49459 29370
" />
<path d="M48573 33688
L28180 33688
" />
<path d="M48573 31287
L48573 33688
" />
<path d="M28180 31287
L48573 31287
" />
<path d="M28180 33688
L28180 31287
" />
<path d="M46782 13523
L46782 15413
" />
<path d="M46782 15413
L43176 15413
" />
<path d="M43176 15413
L43176 13523
" />
<path d="M43176 13523
L46782 13523
" />
</g>
<g style="fill:#000000; fill-opacity:0.0; 
stroke:#000000; stroke-width:19.685; stroke-opacity:1; 
stroke-linecap:round; stroke-linejoin:round;">
</g>
<g style="fill:#840084; fill-opacity:0.0; 
stroke:#840084; stroke-width:19.685; stroke-opacity:1; 
stroke-linecap:round; stroke-linejoin:round;">
</g>
<g style="fill:#840084; fill-opacity:0.0; 
stroke:#840084; stroke-width:47.2441; stroke-opacity:1; 
stroke-linecap:round; stroke-linejoin:round;">
<path d="M33156 30624
L33156 30418
" />
<path d="M32597 30624
L32597 30418
" />
<path d="M33581 30624
L33581 30418
" />
<path d="M34140 30624
L34140 30418
" />
<path d="M34565 30624
L34565 30418
" />
<path d="M35124 30624
L35124 30418
" />
<path d="M36109 30624
L36109 30418
" />
<path d="M35550 30624
L35550 30418
" />
<path d="M37093 30624
L37093 30418
" />
<path d="M36534 30624
L36534 30418
" />
<path d="M28266 28262
L28266 28056
" />
<path d="M28825 28262
L28825 28056
" />
<path d="M28266 22750
L28266 22544
" />
<path d="M28825 22750
L28825 22544
" />
<path d="M57961 16421
L58166 16421
" />
<path d="M57961 15862
L58166 15862
" />
<path d="M57980 23933
L58186 23933
" />
<path d="M57980 24492
L58186 24492
" />
<path d="M57980 32562
L58186 32562
" />
<path d="M57980 32003
L58186 32003
" />
<path d="M40278 22342
L40278 19783
" />
<path d="M40278 22342
L44687 22342
" />
<path d="M40278 19783
L44687 19783
" />
<path d="M40278 22539
L44687 22539
" />
<path d="M40278 25098
L44687 25098
" />
<path d="M40278 25098
L40278 22539
" />
<path d="M30203 14060
L30203 14266
" />
<path d="M29644 14060
L29644 14266
" />
<path d="M32762 14060
L32762 14266
" />
<path d="M32203 14060
L32203 14266
" />
<path d="M34762 14060
L34762 14266
" />
<path d="M35321 14060
L35321 14266
" />
<path d="M37880 14060
L37880 14266
" />
<path d="M37321 14060
L37321 14266
" />
<path d="M39880 14060
L39880 14266
" />
<path d="M40439 14060
L40439 14266
" />
<path d="M52739 17909
L49496 17909
" />
<path d="M49496 17909
L49496 19688
" />
<path d="M49496 19688
L52739 19688
" />
<path d="M52699 22732
L49457 22732
" />
<path d="M49457 22732
L49457 24511
" />
<path d="M49457 24511
L52699 24511
" />
<path d="M49457 31204
L52699 31204
" />
<path d="M49457 29425
L49457 31204
" />
<path d="M52699 29425
L49457 29425
" />
<path d="M28365 31980
L28365 31456
" />
<path d="M28365 31456
L28888 31456
" />
<path d="M28365 32480
L29388 32480
" />
<path d="M29388 32480
L29388 31456
" />
<path d="M29388 31456
L48412 31456
" />
<path d="M48412 33503
L48412 31456
" />
<path d="M28365 33503
L48412 33503
" />
<path d="M28365 33503
L28365 32480
" />
<path d="M43542 15358
L46784 15358
" />
<path d="M46784 15358
L46784 13578
" />
<path d="M46784 13578
L43542 13578
" />
</g>
<g style="fill:#840084; fill-opacity:0.0; 
stroke:#840084; stroke-width:59.0551; stroke-opacity:1; 
stroke-linecap:round; stroke-linejoin:round;">
<path d="M32811 29569
L32792 29588
L32736 29607
L32698 29607
L32642 29588
L32605 29550
L32586 29513
L32567 29438
L32567 29382
L32586 29307
L32605 29269
L32642 29232
L32698 29213
L32736 29213
L32792 29232
L32811 29251
" />
<path d="M33186 29607
L32961 29607
" />
<path d="M33073 29607
L33073 29213
L33036 29269
L32998 29307
L32961 29326
" />
<path d="M33795 29569
L33776 29588
L33720 29607
L33683 29607
L33626 29588
L33589 29550
L33570 29513
L33551 29438
L33551 29382
L33570 29307
L33589 29269
L33626 29232
L33683 29213
L33720 29213
L33776 29232
L33795 29251
" />
<path d="M33945 29251
L33964 29232
L34001 29213
L34095 29213
L34132 29232
L34151 29251
L34170 29288
L34170 29326
L34151 29382
L33926 29607
L34170 29607
" />
<path d="M34779 29569
L34760 29588
L34704 29607
L34667 29607
L34611 29588
L34573 29550
L34554 29513
L34536 29438
L34536 29382
L34554 29307
L34573 29269
L34611 29232
L34667 29213
L34704 29213
L34760 29232
L34779 29251
" />
<path d="M34910 29213
L35154 29213
L35023 29363
L35079 29363
L35117 29382
L35135 29401
L35154 29438
L35154 29532
L35135 29569
L35117 29588
L35079 29607
L34967 29607
L34929 29588
L34910 29569
" />
<path d="M35763 29569
L35745 29588
L35688 29607
L35651 29607
L35595 29588
L35557 29550
L35539 29513
L35520 29438
L35520 29382
L35539 29307
L35557 29269
L35595 29232
L35651 29213
L35688 29213
L35745 29232
L35763 29251
" />
<path d="M36101 29344
L36101 29607
" />
<path d="M36007 29194
L35913 29476
L36157 29476
" />
<path d="M36748 29569
L36729 29588
L36673 29607
L36635 29607
L36579 29588
L36542 29550
L36523 29513
L36504 29438
L36504 29382
L36523 29307
L36542 29269
L36579 29232
L36635 29213
L36673 29213
L36729 29232
L36748 29251
" />
<path d="M37104 29213
L36916 29213
L36898 29401
L36916 29382
L36954 29363
L37048 29363
L37085 29382
L37104 29401
L37123 29438
L37123 29532
L37104 29569
L37085 29588
L37048 29607
L36954 29607
L36916 29588
L36898 29569
" />
<path d="M28480 29471
L28461 29490
L28405 29508
L28368 29508
L28311 29490
L28274 29452
L28255 29415
L28236 29340
L28236 29283
L28255 29208
L28274 29171
L28311 29133
L28368 29115
L28405 29115
L28461 29133
L28480 29152
" />
<path d="M28817 29115
L28742 29115
L28705 29133
L28686 29152
L28649 29208
L28630 29283
L28630 29433
L28649 29471
L28668 29490
L28705 29508
L28780 29508
L28817 29490
L28836 29471
L28855 29433
L28855 29340
L28836 29302
L28817 29283
L28780 29265
L28705 29265
L28668 29283
L28649 29302
L28630 29340
" />
<path d="M28480 23959
L28461 23978
L28405 23997
L28368 23997
L28311 23978
L28274 23940
L28255 23903
L28236 23828
L28236 23772
L28255 23697
L28274 23659
L28311 23622
L28368 23603
L28405 23603
L28461 23622
L28480 23640
" />
<path d="M28611 23603
L28874 23603
L28705 23997
" />
<path d="M56344 16282
L56325 16301
L56269 16319
L56231 16319
L56175 16301
L56138 16263
L56119 16226
L56100 16151
L56100 16094
L56119 16019
L56138 15982
L56175 15944
L56231 15926
L56269 15926
L56325 15944
L56344 15963
" />
<path d="M56719 16319
L56494 16319
" />
<path d="M56606 16319
L56606 15926
L56569 15982
L56531 16019
L56494 16038
" />
<path d="M56869 15963
L56887 15944
L56925 15926
L57019 15926
L57056 15944
L57075 15963
L57094 16001
L57094 16038
L57075 16094
L56850 16319
L57094 16319
" />
<path d="M56344 24353
L56325 24371
L56269 24390
L56231 24390
L56175 24371
L56138 24334
L56119 24296
L56100 24221
L56100 24165
L56119 24090
L56138 24053
L56175 24015
L56231 23997
L56269 23997
L56325 24015
L56344 24034
" />
<path d="M56719 24390
L56494 24390
" />
<path d="M56606 24390
L56606 23997
L56569 24053
L56531 24090
L56494 24109
" />
<path d="M56850 23997
L57094 23997
L56962 24146
L57019 24146
L57056 24165
L57075 24184
L57094 24221
L57094 24315
L57075 24353
L57056 24371
L57019 24390
L56906 24390
L56869 24371
L56850 24353
" />
<path d="M56344 32424
L56325 32442
L56269 32461
L56231 32461
L56175 32442
L56138 32405
L56119 32367
L56100 32292
L56100 32236
L56119 32161
L56138 32124
L56175 32086
L56231 32067
L56269 32067
L56325 32086
L56344 32105
" />
<path d="M56719 32461
L56494 32461
" />
<path d="M56606 32461
L56606 32067
L56569 32124
L56531 32161
L56494 32180
" />
<path d="M57056 32199
L57056 32461
" />
<path d="M56962 32049
L56869 32330
L57112 32330
" />
<path d="M42665 20650
L42665 20256
L42758 20256
L42814 20275
L42852 20313
L42871 20350
L42889 20425
L42889 20481
L42871 20556
L42852 20594
L42814 20631
L42758 20650
L42665 20650
" />
<path d="M43264 20650
L43039 20650
" />
<path d="M43152 20650
L43152 20256
L43114 20313
L43077 20350
L43039 20369
" />
<path d="M42665 23406
L42665 23012
L42758 23012
L42814 23031
L42852 23068
L42871 23106
L42889 23181
L42889 23237
L42871 23312
L42852 23350
L42814 23387
L42758 23406
L42665 23406
" />
<path d="M43039 23050
L43058 23031
L43096 23012
L43189 23012
L43227 23031
L43246 23050
L43264 23087
L43264 23125
L43246 23181
L43021 23406
L43264 23406
" />
<path d="M29858 15434
L29727 15246
" />
<path d="M29633 15434
L29633 15040
L29783 15040
L29820 15059
L29839 15077
L29858 15115
L29858 15171
L29839 15209
L29820 15227
L29783 15246
L29633 15246
" />
<path d="M30233 15434
L30008 15434
" />
<path d="M30120 15434
L30120 15040
L30083 15096
L30045 15134
L30008 15152
" />
<path d="M32417 15434
L32286 15246
" />
<path d="M32192 15434
L32192 15040
L32342 15040
L32380 15059
L32398 15077
L32417 15115
L32417 15171
L32398 15209
L32380 15227
L32342 15246
L32192 15246
" />
<path d="M32567 15077
L32586 15059
L32623 15040
L32717 15040
L32754 15059
L32773 15077
L32792 15115
L32792 15152
L32773 15209
L32548 15434
L32792 15434
" />
<path d="M34976 15434
L34845 15246
" />
<path d="M34751 15434
L34751 15040
L34901 15040
L34939 15059
L34957 15077
L34976 15115
L34976 15171
L34957 15209
L34939 15227
L34901 15246
L34751 15246
" />
<path d="M35107 15040
L35351 15040
L35220 15190
L35276 15190
L35314 15209
L35332 15227
L35351 15265
L35351 15359
L35332 15396
L35314 15415
L35276 15434
L35164 15434
L35126 15415
L35107 15396
" />
<path d="M37535 15434
L37404 15246
" />
<path d="M37310 15434
L37310 15040
L37460 15040
L37498 15059
L37516 15077
L37535 15115
L37535 15171
L37516 15209
L37498 15227
L37460 15246
L37310 15246
" />
<path d="M37873 15171
L37873 15434
" />
<path d="M37779 15021
L37685 15302
L37929 15302
" />
<path d="M40094 15434
L39963 15246
" />
<path d="M39869 15434
L39869 15040
L40019 15040
L40057 15059
L40075 15077
L40094 15115
L40094 15171
L40075 15209
L40057 15227
L40019 15246
L39869 15246
" />
<path d="M40450 15040
L40263 15040
L40244 15227
L40263 15209
L40300 15190
L40394 15190
L40432 15209
L40450 15227
L40469 15265
L40469 15359
L40450 15396
L40432 15415
L40394 15434
L40300 15434
L40263 15415
L40244 15396
" />
<path d="M51236 18939
L51217 18958
L51161 18977
L51123 18977
L51067 18958
L51030 18921
L51011 18883
L50992 18808
L50992 18752
L51011 18677
L51030 18639
L51067 18602
L51123 18583
L51161 18583
L51217 18602
L51236 18621
" />
<path d="M51423 18977
L51498 18977
L51536 18958
L51555 18939
L51592 18883
L51611 18808
L51611 18658
L51592 18621
L51573 18602
L51536 18583
L51461 18583
L51423 18602
L51405 18621
L51386 18658
L51386 18752
L51405 18789
L51423 18808
L51461 18827
L51536 18827
L51573 18808
L51592 18789
L51611 18752
" />
<path d="M51009 23762
L50990 23781
L50934 23800
L50897 23800
L50840 23781
L50803 23743
L50784 23706
L50765 23631
L50765 23575
L50784 23500
L50803 23462
L50840 23425
L50897 23406
L50934 23406
L50990 23425
L51009 23443
" />
<path d="M51384 23800
L51159 23800
" />
<path d="M51272 23800
L51272 23406
L51234 23462
L51197 23500
L51159 23518
" />
<path d="M51628 23406
L51665 23406
L51703 23425
L51721 23443
L51740 23481
L51759 23556
L51759 23650
L51740 23725
L51721 23762
L51703 23781
L51665 23800
L51628 23800
L51590 23781
L51572 23762
L51553 23725
L51534 23650
L51534 23556
L51553 23481
L51572 23443
L51590 23425
L51628 23406
" />
<path d="M51009 30455
L50990 30474
L50934 30493
L50897 30493
L50840 30474
L50803 30436
L50784 30399
L50765 30324
L50765 30268
L50784 30193
L50803 30155
L50840 30118
L50897 30099
L50934 30099
L50990 30118
L51009 30136
" />
<path d="M51384 30493
L51159 30493
" />
<path d="M51272 30493
L51272 30099
L51234 30155
L51197 30193
L51159 30211
" />
<path d="M51759 30493
L51534 30493
" />
<path d="M51647 30493
L51647 30099
L51609 30155
L51572 30193
L51534 30211
" />
<path d="M27529 32264
L27529 32545
L27510 32602
L27472 32639
L27416 32658
L27379 32658
" />
<path d="M27772 32433
L27735 32414
L27716 32395
L27697 32358
L27697 32339
L27716 32302
L27735 32283
L27772 32264
L27847 32264
L27885 32283
L27904 32302
L27922 32339
L27922 32358
L27904 32395
L27885 32414
L27847 32433
L27772 32433
L27735 32452
L27716 32470
L27697 32508
L27697 32583
L27716 32620
L27735 32639
L27772 32658
L27847 32658
L27885 32639
L27904 32620
L27922 32583
L27922 32508
L27904 32470
L27885 32452
L27847 32433
" />
<path d="M44745 14609
L44727 14627
L44670 14646
L44633 14646
L44577 14627
L44539 14590
L44520 14552
L44502 14477
L44502 14421
L44520 14346
L44539 14309
L44577 14271
L44633 14252
L44670 14252
L44727 14271
L44745 14290
" />
<path d="M45120 14646
L44895 14646
" />
<path d="M45008 14646
L45008 14252
L44970 14309
L44933 14346
L44895 14365
" />
<path d="M45476 14252
L45289 14252
L45270 14440
L45289 14421
L45326 14402
L45420 14402
L45458 14421
L45476 14440
L45495 14477
L45495 14571
L45476 14609
L45458 14627
L45420 14646
L45326 14646
L45289 14627
L45270 14609
" />
</g>
<g style="fill:#000000; fill-opacity:0.0; 
stroke:#000000; stroke-width:59.0551; stroke-opacity:1; 
stroke-linecap:round; stroke-linejoin:round;">
</g>
<g style="fill:#C2C200; fill-opacity:0.0; 
stroke:#C2C200; stroke-width:59.0551; stroke-opacity:1; 
stroke-linecap:round; stroke-linejoin:round;">
</g>
<g style="fill:#C2C200; fill-opacity:0.0; 
stroke:#C2C200; stroke-width:78.7402; stroke-opacity:1; 
stroke-linecap:round; stroke-linejoin:round;">
<path d="M25593 11811
L59057 11811
" />
<path d="M25593 33858
L25593 11811
" />
<path d="M59057 33858
L25593 33858
" />
<path d="M59057 11811
L59057 33858
" />
</g> 
</svg>
