<?xml version="1.0" standalone="no"?>
 <!DOCTYPE svg PUBLIC "-//W3C//DTD SVG 1.1//EN" 
 "http://www.w3.org/Graphics/SVG/1.1/DTD/svg11.dtd"> 
<svg xmlns="http://www.w3.org/2000/svg" version="1.1" 
    width="21.0007cm" height="14.8006cm" viewBox="0 0 82680 58270 ">
<title>SVG Picture created as Autoscope-brd.svg date 2019/03/13 04:01:37 </title>
  <desc>Picture generated by PCBNEW </desc>
<g style="fill:#000000; fill-opacity:1;stroke:#000000; stroke-opacity:1;
stroke-linecap:round; stroke-linejoin:round; "
 transform="translate(0 0) scale(1 1)">
</g>
<g style="fill:#000000; fill-opacity:0.0; 
stroke:#000000; stroke-width:-0.000393701; stroke-opacity:1; 
stroke-linecap:round; stroke-linejoin:round;">
</g>
<g style="fill:#000000; fill-opacity:0.0; 
stroke:#000000; stroke-width:39.3701; stroke-opacity:1; 
stroke-linecap:round; stroke-linejoin:round;">
</g>
<g style="fill:#000000; fill-opacity:0.0; 
stroke:#000000; stroke-width:59.0551; stroke-opacity:1; 
stroke-linecap:round; stroke-linejoin:round;">
<rect x="35435.8" y="40947.1" width="42519.7" height="12598.4" rx="0" />
</g>
<g style="fill:#000000; fill-opacity:0.0; 
stroke:#000000; stroke-width:39.3701; stroke-opacity:1; 
stroke-linecap:round; stroke-linejoin:round;">
</g>
<g style="fill:#000000; fill-opacity:0.0; 
stroke:#000000; stroke-width:59.0551; stroke-opacity:1; 
stroke-linecap:round; stroke-linejoin:round;">
<rect x="3937.01" y="3937.01" width="74806" height="50396" rx="0" />
</g>
<g style="fill:#000000; fill-opacity:0.0; 
stroke:#000000; stroke-width:39.3701; stroke-opacity:1; 
stroke-linecap:round; stroke-linejoin:round;">
</g>
<g style="fill:#000000; fill-opacity:0.0; 
stroke:#000000; stroke-width:59.0551; stroke-opacity:1; 
stroke-linecap:round; stroke-linejoin:round;">
<rect x="4724.41" y="4724.41" width="73231.2" height="48821.2" rx="0" />
</g>
<g style="fill:#000000; fill-opacity:0.0; 
stroke:#000000; stroke-width:39.3701; stroke-opacity:1; 
stroke-linecap:round; stroke-linejoin:round;">
</g>
<g style="fill:#000000; fill-opacity:0.0; 
stroke:#000000; stroke-width:59.0551; stroke-opacity:1; 
stroke-linecap:round; stroke-linejoin:round;">
<path d="M23622 4724
L23622 3937
" />
</g>
<g style="fill:#000000; fill-opacity:0.0; 
stroke:#000000; stroke-width:39.3701; stroke-opacity:1; 
stroke-linecap:round; stroke-linejoin:round;">
</g>
<g style="fill:#000000; fill-opacity:0.0; 
stroke:#000000; stroke-width:59.0551; stroke-opacity:1; 
stroke-linecap:round; stroke-linejoin:round;">
<path d="M43307 4724
L43307 3937
" />
</g>
<g style="fill:#000000; fill-opacity:0.0; 
stroke:#000000; stroke-width:39.3701; stroke-opacity:1; 
stroke-linecap:round; stroke-linejoin:round;">
</g>
<g style="fill:#000000; fill-opacity:0.0; 
stroke:#000000; stroke-width:59.0551; stroke-opacity:1; 
stroke-linecap:round; stroke-linejoin:round;">
<path d="M62992 4724
L62992 3937
" />
</g>
<g style="fill:#000000; fill-opacity:0.0; 
stroke:#000000; stroke-width:39.3701; stroke-opacity:1; 
stroke-linecap:round; stroke-linejoin:round;">
</g>
<g style="fill:#000000; fill-opacity:0.0; 
stroke:#000000; stroke-width:59.0551; stroke-opacity:1; 
stroke-linecap:round; stroke-linejoin:round;">
<path d="M14199 4562
L13906 4562
" />
<path d="M14052 4562
L14052 4050
L14004 4123
L13955 4172
L13906 4196
" />
</g>
<g style="fill:#000000; fill-opacity:0.0; 
stroke:#000000; stroke-width:39.3701; stroke-opacity:1; 
stroke-linecap:round; stroke-linejoin:round;">
</g>
<g style="fill:#000000; fill-opacity:0.0; 
stroke:#000000; stroke-width:59.0551; stroke-opacity:1; 
stroke-linecap:round; stroke-linejoin:round;">
<path d="M33591 4099
L33615 4074
L33664 4050
L33786 4050
L33835 4074
L33859 4099
L33884 4147
L33884 4196
L33859 4269
L33567 4562
L33884 4562
" />
</g>
<g style="fill:#000000; fill-opacity:0.0; 
stroke:#000000; stroke-width:39.3701; stroke-opacity:1; 
stroke-linecap:round; stroke-linejoin:round;">
</g>
<g style="fill:#000000; fill-opacity:0.0; 
stroke:#000000; stroke-width:59.0551; stroke-opacity:1; 
stroke-linecap:round; stroke-linejoin:round;">
<path d="M53252 4050
L53569 4050
L53398 4245
L53471 4245
L53520 4269
L53544 4294
L53569 4342
L53569 4464
L53544 4513
L53520 4537
L53471 4562
L53325 4562
L53276 4537
L53252 4513
" />
</g>
<g style="fill:#000000; fill-opacity:0.0; 
stroke:#000000; stroke-width:39.3701; stroke-opacity:1; 
stroke-linecap:round; stroke-linejoin:round;">
</g>
<g style="fill:#000000; fill-opacity:0.0; 
stroke:#000000; stroke-width:59.0551; stroke-opacity:1; 
stroke-linecap:round; stroke-linejoin:round;">
<path d="M73205 4221
L73205 4562
" />
<path d="M73083 4026
L72961 4391
L73278 4391
" />
</g>
<g style="fill:#000000; fill-opacity:0.0; 
stroke:#000000; stroke-width:39.3701; stroke-opacity:1; 
stroke-linecap:round; stroke-linejoin:round;">
</g>
<g style="fill:#000000; fill-opacity:0.0; 
stroke:#000000; stroke-width:59.0551; stroke-opacity:1; 
stroke-linecap:round; stroke-linejoin:round;">
<path d="M23622 53545
L23622 54332
" />
</g>
<g style="fill:#000000; fill-opacity:0.0; 
stroke:#000000; stroke-width:39.3701; stroke-opacity:1; 
stroke-linecap:round; stroke-linejoin:round;">
</g>
<g style="fill:#000000; fill-opacity:0.0; 
stroke:#000000; stroke-width:59.0551; stroke-opacity:1; 
stroke-linecap:round; stroke-linejoin:round;">
<path d="M43307 53545
L43307 54332
" />
</g>
<g style="fill:#000000; fill-opacity:0.0; 
stroke:#000000; stroke-width:39.3701; stroke-opacity:1; 
stroke-linecap:round; stroke-linejoin:round;">
</g>
<g style="fill:#000000; fill-opacity:0.0; 
stroke:#000000; stroke-width:59.0551; stroke-opacity:1; 
stroke-linecap:round; stroke-linejoin:round;">
<path d="M62992 53545
L62992 54332
" />
</g>
<g style="fill:#000000; fill-opacity:0.0; 
stroke:#000000; stroke-width:39.3701; stroke-opacity:1; 
stroke-linecap:round; stroke-linejoin:round;">
</g>
<g style="fill:#000000; fill-opacity:0.0; 
stroke:#000000; stroke-width:59.0551; stroke-opacity:1; 
stroke-linecap:round; stroke-linejoin:round;">
<path d="M14199 54170
L13906 54170
" />
<path d="M14052 54170
L14052 53659
L14004 53732
L13955 53780
L13906 53805
" />
</g>
<g style="fill:#000000; fill-opacity:0.0; 
stroke:#000000; stroke-width:39.3701; stroke-opacity:1; 
stroke-linecap:round; stroke-linejoin:round;">
</g>
<g style="fill:#000000; fill-opacity:0.0; 
stroke:#000000; stroke-width:59.0551; stroke-opacity:1; 
stroke-linecap:round; stroke-linejoin:round;">
<path d="M33591 53707
L33615 53683
L33664 53659
L33786 53659
L33835 53683
L33859 53707
L33884 53756
L33884 53805
L33859 53878
L33567 54170
L33884 54170
" />
</g>
<g style="fill:#000000; fill-opacity:0.0; 
stroke:#000000; stroke-width:39.3701; stroke-opacity:1; 
stroke-linecap:round; stroke-linejoin:round;">
</g>
<g style="fill:#000000; fill-opacity:0.0; 
stroke:#000000; stroke-width:59.0551; stroke-opacity:1; 
stroke-linecap:round; stroke-linejoin:round;">
<path d="M53252 53659
L53569 53659
L53398 53853
L53471 53853
L53520 53878
L53544 53902
L53569 53951
L53569 54073
L53544 54122
L53520 54146
L53471 54170
L53325 54170
L53276 54146
L53252 54122
" />
</g>
<g style="fill:#000000; fill-opacity:0.0; 
stroke:#000000; stroke-width:39.3701; stroke-opacity:1; 
stroke-linecap:round; stroke-linejoin:round;">
</g>
<g style="fill:#000000; fill-opacity:0.0; 
stroke:#000000; stroke-width:59.0551; stroke-opacity:1; 
stroke-linecap:round; stroke-linejoin:round;">
<path d="M73205 53829
L73205 54170
" />
<path d="M73083 53634
L72961 54000
L73278 54000
" />
</g>
<g style="fill:#000000; fill-opacity:0.0; 
stroke:#000000; stroke-width:39.3701; stroke-opacity:1; 
stroke-linecap:round; stroke-linejoin:round;">
</g>
<g style="fill:#000000; fill-opacity:0.0; 
stroke:#000000; stroke-width:59.0551; stroke-opacity:1; 
stroke-linecap:round; stroke-linejoin:round;">
<path d="M3937 23622
L4724 23622
" />
</g>
<g style="fill:#000000; fill-opacity:0.0; 
stroke:#000000; stroke-width:39.3701; stroke-opacity:1; 
stroke-linecap:round; stroke-linejoin:round;">
</g>
<g style="fill:#000000; fill-opacity:0.0; 
stroke:#000000; stroke-width:59.0551; stroke-opacity:1; 
stroke-linecap:round; stroke-linejoin:round;">
<path d="M3937 43307
L4724 43307
" />
</g>
<g style="fill:#000000; fill-opacity:0.0; 
stroke:#000000; stroke-width:39.3701; stroke-opacity:1; 
stroke-linecap:round; stroke-linejoin:round;">
</g>
<g style="fill:#000000; fill-opacity:0.0; 
stroke:#000000; stroke-width:59.0551; stroke-opacity:1; 
stroke-linecap:round; stroke-linejoin:round;">
<path d="M4208 13864
L4452 13864
" />
<path d="M4160 14011
L4330 13499
L4501 14011
" />
</g>
<g style="fill:#000000; fill-opacity:0.0; 
stroke:#000000; stroke-width:39.3701; stroke-opacity:1; 
stroke-linecap:round; stroke-linejoin:round;">
</g>
<g style="fill:#000000; fill-opacity:0.0; 
stroke:#000000; stroke-width:59.0551; stroke-opacity:1; 
stroke-linecap:round; stroke-linejoin:round;">
<path d="M4367 33428
L4440 33452
L4464 33476
L4489 33525
L4489 33598
L4464 33647
L4440 33671
L4391 33696
L4196 33696
L4196 33184
L4367 33184
L4416 33208
L4440 33233
L4464 33281
L4464 33330
L4440 33379
L4416 33403
L4367 33428
L4196 33428
" />
</g>
<g style="fill:#000000; fill-opacity:0.0; 
stroke:#000000; stroke-width:39.3701; stroke-opacity:1; 
stroke-linecap:round; stroke-linejoin:round;">
</g>
<g style="fill:#000000; fill-opacity:0.0; 
stroke:#000000; stroke-width:59.0551; stroke-opacity:1; 
stroke-linecap:round; stroke-linejoin:round;">
<path d="M4489 53332
L4464 53356
L4391 53381
L4342 53381
L4269 53356
L4221 53308
L4196 53259
L4172 53161
L4172 53088
L4196 52991
L4221 52942
L4269 52893
L4342 52869
L4391 52869
L4464 52893
L4489 52918
" />
</g>
<g style="fill:#000000; fill-opacity:0.0; 
stroke:#000000; stroke-width:39.3701; stroke-opacity:1; 
stroke-linecap:round; stroke-linejoin:round;">
</g>
<g style="fill:#000000; fill-opacity:0.0; 
stroke:#000000; stroke-width:59.0551; stroke-opacity:1; 
stroke-linecap:round; stroke-linejoin:round;">
<path d="M78742 23622
L77955 23622
" />
</g>
<g style="fill:#000000; fill-opacity:0.0; 
stroke:#000000; stroke-width:39.3701; stroke-opacity:1; 
stroke-linecap:round; stroke-linejoin:round;">
</g>
<g style="fill:#000000; fill-opacity:0.0; 
stroke:#000000; stroke-width:59.0551; stroke-opacity:1; 
stroke-linecap:round; stroke-linejoin:round;">
<path d="M78742 43307
L77955 43307
" />
</g>
<g style="fill:#000000; fill-opacity:0.0; 
stroke:#000000; stroke-width:39.3701; stroke-opacity:1; 
stroke-linecap:round; stroke-linejoin:round;">
</g>
<g style="fill:#000000; fill-opacity:0.0; 
stroke:#000000; stroke-width:59.0551; stroke-opacity:1; 
stroke-linecap:round; stroke-linejoin:round;">
<path d="M78227 13864
L78471 13864
" />
<path d="M78178 14011
L78349 13499
L78519 14011
" />
</g>
<g style="fill:#000000; fill-opacity:0.0; 
stroke:#000000; stroke-width:39.3701; stroke-opacity:1; 
stroke-linecap:round; stroke-linejoin:round;">
</g>
<g style="fill:#000000; fill-opacity:0.0; 
stroke:#000000; stroke-width:59.0551; stroke-opacity:1; 
stroke-linecap:round; stroke-linejoin:round;">
<path d="M78385 33428
L78458 33452
L78483 33476
L78507 33525
L78507 33598
L78483 33647
L78458 33671
L78410 33696
L78215 33696
L78215 33184
L78385 33184
L78434 33208
L78458 33233
L78483 33281
L78483 33330
L78458 33379
L78434 33403
L78385 33428
L78215 33428
" />
</g>
<g style="fill:#000000; fill-opacity:0.0; 
stroke:#000000; stroke-width:39.3701; stroke-opacity:1; 
stroke-linecap:round; stroke-linejoin:round;">
</g>
<g style="fill:#000000; fill-opacity:0.0; 
stroke:#000000; stroke-width:59.0551; stroke-opacity:1; 
stroke-linecap:round; stroke-linejoin:round;">
<path d="M78507 53332
L78483 53356
L78410 53381
L78361 53381
L78288 53356
L78239 53308
L78215 53259
L78190 53161
L78190 53088
L78215 52991
L78239 52942
L78288 52893
L78361 52869
L78410 52869
L78483 52893
L78507 52918
" />
</g>
<g style="fill:#000000; fill-opacity:0.0; 
stroke:#000000; stroke-width:39.3701; stroke-opacity:1; 
stroke-linecap:round; stroke-linejoin:round;">
</g>
<g style="fill:#000000; fill-opacity:0.0; 
stroke:#000000; stroke-width:59.0551; stroke-opacity:1; 
stroke-linecap:round; stroke-linejoin:round;">
<path d="M65428 53261
L65428 52670
L65569 52670
L65653 52699
L65710 52755
L65738 52811
L65766 52924
L65766 53008
L65738 53120
L65710 53177
L65653 53233
L65569 53261
L65428 53261
" />
<path d="M66272 53261
L66272 52952
L66244 52895
L66188 52867
L66075 52867
L66019 52895
" />
<path d="M66272 53233
L66216 53261
L66075 53261
L66019 53233
L65991 53177
L65991 53120
L66019 53064
L66075 53036
L66216 53036
L66272 53008
" />
<path d="M66469 52867
L66694 52867
" />
<path d="M66553 52670
L66553 53177
L66581 53233
L66638 53261
L66694 53261
" />
<path d="M67116 53233
L67059 53261
L66947 53261
L66891 53233
L66862 53177
L66862 52952
L66891 52895
L66947 52867
L67059 52867
L67116 52895
L67144 52952
L67144 53008
L66862 53064
" />
<path d="M67397 53205
L67425 53233
L67397 53261
L67369 53233
L67397 53205
L67397 53261
" />
<path d="M67397 52895
L67425 52924
L67397 52952
L67369 52924
L67397 52895
L67397 52952
" />
<path d="M68100 52727
L68128 52699
L68184 52670
L68325 52670
L68381 52699
L68409 52727
L68437 52783
L68437 52839
L68409 52924
L68072 53261
L68437 53261
" />
<path d="M68803 52670
L68859 52670
L68915 52699
L68943 52727
L68972 52783
L69000 52895
L69000 53036
L68972 53148
L68943 53205
L68915 53233
L68859 53261
L68803 53261
L68747 53233
L68719 53205
L68690 53148
L68662 53036
L68662 52895
L68690 52783
L68719 52727
L68747 52699
L68803 52670
" />
<path d="M69562 53261
L69225 53261
" />
<path d="M69393 53261
L69393 52670
L69337 52755
L69281 52811
L69225 52839
" />
<path d="M69843 53261
L69956 53261
L70012 53233
L70040 53205
L70096 53120
L70125 53008
L70125 52783
L70096 52727
L70068 52699
L70012 52670
L69900 52670
L69843 52699
L69815 52727
L69787 52783
L69787 52924
L69815 52980
L69843 53008
L69900 53036
L70012 53036
L70068 53008
L70096 52980
L70125 52924
" />
<path d="M70378 53036
L70828 53036
" />
<path d="M71221 52670
L71278 52670
L71334 52699
L71362 52727
L71390 52783
L71418 52895
L71418 53036
L71390 53148
L71362 53205
L71334 53233
L71278 53261
L71221 53261
L71165 53233
L71137 53205
L71109 53148
L71081 53036
L71081 52895
L71109 52783
L71137 52727
L71165 52699
L71221 52670
" />
<path d="M71615 52670
L71981 52670
L71784 52895
L71868 52895
L71924 52924
L71952 52952
L71981 53008
L71981 53148
L71952 53205
L71924 53233
L71868 53261
L71699 53261
L71643 53233
L71615 53205
" />
<path d="M72234 53036
L72684 53036
" />
<path d="M73274 53261
L72937 53261
" />
<path d="M73105 53261
L73105 52670
L73049 52755
L72993 52811
L72937 52839
" />
<path d="M73471 52670
L73837 52670
L73640 52895
L73724 52895
L73780 52924
L73808 52952
L73837 53008
L73837 53148
L73808 53205
L73780 53233
L73724 53261
L73555 53261
L73499 53233
L73471 53205
" />
</g>
<g style="fill:#000000; fill-opacity:0.0; 
stroke:#000000; stroke-width:39.3701; stroke-opacity:1; 
stroke-linecap:round; stroke-linejoin:round;">
</g>
<g style="fill:#000000; fill-opacity:0.0; 
stroke:#000000; stroke-width:59.0551; stroke-opacity:1; 
stroke-linecap:round; stroke-linejoin:round;">
<path d="M35435 52364
L77955 52364
" />
</g>
<g style="fill:#000000; fill-opacity:0.0; 
stroke:#000000; stroke-width:39.3701; stroke-opacity:1; 
stroke-linecap:round; stroke-linejoin:round;">
</g>
<g style="fill:#000000; fill-opacity:0.0; 
stroke:#000000; stroke-width:59.0551; stroke-opacity:1; 
stroke-linecap:round; stroke-linejoin:round;">
<path d="M35999 53281
L35999 52690
" />
<path d="M36337 53281
L36084 52943
" />
<path d="M36337 52690
L35999 53028
" />
<path d="M36590 53281
L36590 52887
" />
<path d="M36590 52690
L36562 52718
L36590 52746
L36618 52718
L36590 52690
L36590 52746
" />
<path d="M37208 53224
L37180 53253
L37096 53281
L37040 53281
L36955 53253
L36899 53196
L36871 53140
L36843 53028
L36843 52943
L36871 52831
L36899 52774
L36955 52718
L37040 52690
L37096 52690
L37180 52718
L37208 52746
" />
<path d="M37715 53281
L37715 52971
L37686 52915
L37630 52887
L37518 52887
L37461 52915
" />
<path d="M37715 53253
L37658 53281
L37518 53281
L37461 53253
L37433 53196
L37433 53140
L37461 53084
L37518 53056
L37658 53056
L37715 53028
" />
<path d="M38249 53281
L38249 52690
" />
<path d="M38249 53253
L38193 53281
L38080 53281
L38024 53253
L37996 53224
L37968 53168
L37968 52999
L37996 52943
L38024 52915
L38080 52887
L38193 52887
L38249 52915
" />
<path d="M38980 52971
L39177 52971
" />
<path d="M39261 53281
L38980 53281
L38980 52690
L39261 52690
" />
<path d="M39514 53224
L39542 53253
L39514 53281
L39486 53253
L39514 53224
L39514 53281
" />
<path d="M39796 53281
L39796 52690
L39936 52690
L40021 52718
L40077 52774
L40105 52831
L40133 52943
L40133 53028
L40105 53140
L40077 53196
L40021 53253
L39936 53281
L39796 53281
" />
<path d="M40386 53224
L40414 53253
L40386 53281
L40358 53253
L40386 53224
L40386 53281
" />
<path d="M40639 53112
L40920 53112
" />
<path d="M40583 53281
L40780 52690
L40977 53281
" />
<path d="M41174 53224
L41202 53253
L41174 53281
L41145 53253
L41174 53224
L41174 53281
" />
<path d="M42355 53281
L42355 52690
" />
<path d="M42411 53056
L42580 53281
" />
<path d="M42580 52887
L42355 53112
" />
<path d="M42833 53281
L42833 52887
" />
<path d="M42833 52690
L42805 52718
L42833 52746
L42861 52718
L42833 52690
L42833 52746
" />
<path d="M43367 53253
L43311 53281
L43198 53281
L43142 53253
L43114 53224
L43086 53168
L43086 52999
L43114 52943
L43142 52915
L43198 52887
L43311 52887
L43367 52915
" />
<path d="M43873 53281
L43873 52971
L43845 52915
L43789 52887
L43676 52887
L43620 52915
" />
<path d="M43873 53253
L43817 53281
L43676 53281
L43620 53253
L43592 53196
L43592 53140
L43620 53084
L43676 53056
L43817 53056
L43873 53028
" />
<path d="M44407 53281
L44407 52690
" />
<path d="M44407 53253
L44351 53281
L44239 53281
L44183 53253
L44154 53224
L44126 53168
L44126 52999
L44154 52943
L44183 52915
L44239 52887
L44351 52887
L44407 52915
" />
<path d="M45420 52690
L45139 52690
L45111 52971
L45139 52943
L45195 52915
L45335 52915
L45392 52943
L45420 52971
L45448 53028
L45448 53168
L45420 53224
L45392 53253
L45335 53281
L45195 53281
L45139 53253
L45111 53224
" />
<path d="M45701 53224
L45729 53253
L45701 53281
L45673 53253
L45701 53224
L45701 53281
" />
<path d="M46095 52690
L46151 52690
L46207 52718
L46235 52746
L46264 52803
L46292 52915
L46292 53056
L46264 53168
L46235 53224
L46207 53253
L46151 53281
L46095 53281
L46039 53253
L46010 53224
L45982 53168
L45954 53056
L45954 52915
L45982 52803
L46010 52746
L46039 52718
L46095 52690
" />
<path d="M46545 53224
L46573 53253
L46545 53281
L46517 53253
L46545 53224
L46545 53281
" />
<path d="M46798 52746
L46826 52718
L46882 52690
L47023 52690
L47079 52718
L47107 52746
L47135 52803
L47135 52859
L47107 52943
L46770 53281
L47135 53281
" />
<path d="M47388 53056
L47838 53056
" />
<path d="M48120 53281
L48120 52690
" />
<path d="M48120 52915
L48176 52887
L48288 52887
L48344 52915
L48373 52943
L48401 52999
L48401 53168
L48373 53224
L48344 53253
L48288 53281
L48176 53281
L48120 53253
" />
<path d="M48879 53253
L48823 53281
L48710 53281
L48654 53253
L48626 53196
L48626 52971
L48654 52915
L48710 52887
L48823 52887
L48879 52915
L48907 52971
L48907 53028
L48626 53084
" />
<path d="M49385 53253
L49329 53281
L49216 53281
L49160 53253
L49132 53196
L49132 52971
L49160 52915
L49216 52887
L49329 52887
L49385 52915
L49413 52971
L49413 53028
L49132 53084
" />
<path d="M49610 52690
L50004 52690
L49751 53281
" />
<path d="M50482 52690
L50369 52690
L50313 52718
L50285 52746
L50229 52831
L50201 52943
L50201 53168
L50229 53224
L50257 53253
L50313 53281
L50425 53281
L50482 53253
L50510 53224
L50538 53168
L50538 53028
L50510 52971
L50482 52943
L50425 52915
L50313 52915
L50257 52943
L50229 52971
L50201 53028
" />
<path d="M51044 53281
L51044 52971
L51016 52915
L50960 52887
L50847 52887
L50791 52915
" />
<path d="M51044 53253
L50988 53281
L50847 53281
L50791 53253
L50763 53196
L50763 53140
L50791 53084
L50847 53056
L50988 53056
L51044 53028
" />
<path d="M51438 52690
L51494 52690
L51550 52718
L51578 52746
L51607 52803
L51635 52915
L51635 53056
L51607 53168
L51578 53224
L51550 53253
L51494 53281
L51438 53281
L51382 53253
L51353 53224
L51325 53168
L51297 53056
L51297 52915
L51325 52803
L51353 52746
L51382 52718
L51438 52690
" />
<path d="M51747 52529
L52310 52529
" />
<path d="M51832 52690
L52225 52690
L51972 53281
" />
<path d="M52310 52529
L52872 52529
" />
<path d="M52563 52690
L52619 52690
L52675 52718
L52703 52746
L52731 52803
L52760 52915
L52760 53056
L52731 53168
L52703 53224
L52675 53253
L52619 53281
L52563 53281
L52506 53253
L52478 53224
L52450 53168
L52422 53056
L52422 52915
L52450 52803
L52478 52746
L52506 52718
L52563 52690
" />
<path d="M53266 52887
L53266 53281
" />
<path d="M53013 52887
L53013 53196
L53041 53253
L53097 53281
L53181 53281
L53238 53253
L53266 53224
" />
<path d="M53547 53281
L53547 52690
" />
<path d="M53547 52915
L53603 52887
L53716 52887
L53772 52915
L53800 52943
L53828 52999
L53828 53168
L53800 53224
L53772 53253
L53716 53281
L53603 53281
L53547 53253
" />
<path d="M54334 52887
L54334 53281
" />
<path d="M54081 52887
L54081 53196
L54109 53253
L54166 53281
L54250 53281
L54306 53253
L54334 53224
" />
<path d="M54616 52887
L54616 53281
" />
<path d="M54616 52943
L54644 52915
L54700 52887
L54784 52887
L54841 52915
L54869 52971
L54869 53281
" />
<path d="M55066 52887
L55291 52887
" />
<path d="M55150 52690
L55150 53196
L55178 53253
L55234 53281
L55291 53281
" />
<path d="M55740 52887
L55740 53281
" />
<path d="M55487 52887
L55487 53196
L55515 53253
L55572 53281
L55656 53281
L55712 53253
L55740 53224
" />
<path d="M56331 53281
L55994 53281
" />
<path d="M56162 53281
L56162 52690
L56106 52774
L56050 52831
L55994 52859
" />
<path d="M56668 52943
L56612 52915
L56584 52887
L56556 52831
L56556 52803
L56584 52746
L56612 52718
L56668 52690
L56781 52690
L56837 52718
L56865 52746
L56893 52803
L56893 52831
L56865 52887
L56837 52915
L56781 52943
L56668 52943
L56612 52971
L56584 52999
L56556 53056
L56556 53168
L56584 53224
L56612 53253
L56668 53281
L56781 53281
L56837 53253
L56865 53224
L56893 53168
L56893 53056
L56865 52999
L56837 52971
L56781 52943
" />
<path d="M57147 53224
L57175 53253
L57147 53281
L57118 53253
L57147 53224
L57147 53281
" />
<path d="M57540 52690
L57596 52690
L57653 52718
L57681 52746
L57709 52803
L57737 52915
L57737 53056
L57709 53168
L57681 53224
L57653 53253
L57596 53281
L57540 53281
L57484 53253
L57456 53224
L57428 53168
L57400 53056
L57400 52915
L57428 52803
L57456 52746
L57484 52718
L57540 52690
" />
<path d="M58243 52887
L58243 53281
" />
<path d="M58103 52662
L57962 53084
L58328 53084
" />
<path d="M58553 53224
L58581 53253
L58553 53281
L58524 53253
L58553 53224
L58553 53281
" />
<path d="M59143 53281
L58806 53281
" />
<path d="M58974 53281
L58974 52690
L58918 52774
L58862 52831
L58806 52859
" />
</g>
<g style="fill:#000000; fill-opacity:0.0; 
stroke:#000000; stroke-width:39.3701; stroke-opacity:1; 
stroke-linecap:round; stroke-linejoin:round;">
</g>
<g style="fill:#000000; fill-opacity:0.0; 
stroke:#000000; stroke-width:59.0551; stroke-opacity:1; 
stroke-linecap:round; stroke-linejoin:round;">
<path d="M35435 51183
L77955 51183
" />
</g>
<g style="fill:#000000; fill-opacity:0.0; 
stroke:#000000; stroke-width:39.3701; stroke-opacity:1; 
stroke-linecap:round; stroke-linejoin:round;">
</g>
<g style="fill:#000000; fill-opacity:0.0; 
stroke:#000000; stroke-width:118.11; stroke-opacity:1; 
stroke-linecap:round; stroke-linejoin:round;">
<path d="M65553 50575
L65634 50604
L65774 50604
L65834 50575
L65866 50547
L65901 50491
L65908 50435
L65887 50379
L65862 50350
L65810 50322
L65701 50294
L65648 50266
L65623 50238
L65602 50182
L65609 50126
L65644 50069
L65676 50041
L65736 50013
L65876 50013
L65957 50041
" />
<path d="M66140 50604
L66189 50210
" />
<path d="M66214 50013
L66182 50041
L66207 50069
L66238 50041
L66214 50013
L66207 50069
" />
<path d="M66414 50210
L66724 50210
L66365 50604
L66674 50604
" />
<path d="M67128 50575
L67068 50604
L66956 50604
L66903 50575
L66882 50519
L66910 50294
L66945 50238
L67005 50210
L67117 50210
L67170 50238
L67191 50294
L67184 50350
L66896 50407
" />
<path d="M67412 50547
L67437 50575
L67405 50604
L67381 50575
L67412 50547
L67405 50604
" />
<path d="M67451 50238
L67476 50266
L67444 50294
L67420 50266
L67451 50238
L67444 50294
" />
<path d="M68210 50013
L68151 50491
L68172 50547
L68196 50575
L68249 50604
L68362 50604
L68421 50575
L68453 50547
L68488 50491
L68548 50013
" />
<path d="M68731 50575
L68783 50604
L68896 50604
L68956 50575
L68991 50519
L68994 50491
L68973 50435
L68921 50407
L68836 50407
L68783 50379
L68762 50322
L68766 50294
L68801 50238
L68861 50210
L68945 50210
L68998 50238
" />
<path d="M69462 50575
L69402 50604
L69290 50604
L69237 50575
L69216 50519
L69244 50294
L69279 50238
L69339 50210
L69451 50210
L69504 50238
L69525 50294
L69518 50350
L69230 50407
" />
<path d="M69740 50604
L69789 50210
" />
<path d="M69775 50322
L69810 50266
L69841 50238
L69901 50210
L69957 50210
" />
</g>
<g style="fill:#000000; fill-opacity:0.0; 
stroke:#000000; stroke-width:39.3701; stroke-opacity:1; 
stroke-linecap:round; stroke-linejoin:round;">
</g>
<g style="fill:#000000; fill-opacity:0.0; 
stroke:#000000; stroke-width:59.0551; stroke-opacity:1; 
stroke-linecap:round; stroke-linejoin:round;">
<path d="M65428 52100
L65428 51509
" />
<path d="M65963 52100
L65963 51509
" />
<path d="M65963 52071
L65906 52100
L65794 52100
L65738 52071
L65710 52043
L65681 51987
L65681 51818
L65710 51762
L65738 51734
L65794 51706
L65906 51706
L65963 51734
" />
<path d="M66244 52043
L66272 52071
L66244 52100
L66216 52071
L66244 52043
L66244 52100
" />
<path d="M66244 51734
L66272 51762
L66244 51790
L66216 51762
L66244 51734
L66244 51790
" />
<path d="M67284 52100
L66947 52100
" />
<path d="M67116 52100
L67116 51509
L67059 51593
L67003 51650
L66947 51678
" />
<path d="M67959 51481
L67453 52240
" />
<path d="M68465 52100
L68128 52100
" />
<path d="M68297 52100
L68297 51509
L68240 51593
L68184 51650
L68128 51678
" />
</g>
<g style="fill:#000000; fill-opacity:0.0; 
stroke:#000000; stroke-width:39.3701; stroke-opacity:1; 
stroke-linecap:round; stroke-linejoin:round;">
</g>
<g style="fill:#000000; fill-opacity:0.0; 
stroke:#000000; stroke-width:59.0551; stroke-opacity:1; 
stroke-linecap:round; stroke-linejoin:round;">
<path d="M35435 49313
L77955 49313
" />
</g>
<g style="fill:#000000; fill-opacity:0.0; 
stroke:#000000; stroke-width:39.3701; stroke-opacity:1; 
stroke-linecap:round; stroke-linejoin:round;">
</g>
<g style="fill:#000000; fill-opacity:0.0; 
stroke:#000000; stroke-width:157.48; stroke-opacity:1; 
stroke-linecap:round; stroke-linejoin:round;">
<path d="M36109 47819
L36559 47819
" />
<path d="M36236 48606
L36334 47819
" />
<path d="M36723 48606
L36789 48081
" />
<path d="M36822 47819
L36780 47856
L36813 47894
L36855 47856
L36822 47819
L36813 47894
" />
<path d="M37052 48081
L37352 48081
" />
<path d="M37197 47819
L37112 48493
L37141 48568
L37211 48606
L37286 48606
" />
<path d="M37661 48606
L37591 48568
L37562 48493
L37647 47819
" />
<path d="M38265 48568
L38186 48606
L38036 48606
L37966 48568
L37937 48493
L37975 48193
L38022 48119
L38101 48081
L38251 48081
L38322 48119
L38350 48193
L38340 48268
L37956 48343
" />
<path d="M38645 48531
L38678 48568
L38636 48606
L38603 48568
L38645 48531
L38636 48606
" />
<path d="M38697 48119
L38729 48156
L38687 48193
L38654 48156
L38697 48119
L38687 48193
" />
<path d="M39601 48381
L39976 48381
" />
<path d="M39498 48606
L39859 47819
L40023 48606
" />
<path d="M40689 48081
L40623 48606
" />
<path d="M40351 48081
L40300 48493
L40328 48568
L40398 48606
L40511 48606
L40590 48568
L40632 48531
" />
<path d="M40951 48081
L41251 48081
" />
<path d="M41096 47819
L41012 48493
L41040 48568
L41110 48606
L41185 48606
" />
<path d="M41560 48606
L41490 48568
L41457 48531
L41429 48456
L41457 48231
L41504 48156
L41546 48119
L41626 48081
L41738 48081
L41809 48119
L41842 48156
L41870 48231
L41842 48456
L41795 48531
L41753 48568
L41673 48606
L41560 48606
" />
<path d="M42127 48568
L42198 48606
L42348 48606
L42427 48568
L42474 48493
L42479 48456
L42451 48381
L42381 48343
L42268 48343
L42198 48306
L42170 48231
L42174 48193
L42221 48119
L42301 48081
L42413 48081
L42484 48119
" />
<path d="M43140 48568
L43060 48606
L42910 48606
L42840 48568
L42807 48531
L42779 48456
L42807 48231
L42854 48156
L42896 48119
L42976 48081
L43126 48081
L43196 48119
" />
<path d="M43585 48606
L43515 48568
L43482 48531
L43454 48456
L43482 48231
L43529 48156
L43571 48119
L43651 48081
L43763 48081
L43834 48119
L43866 48156
L43894 48231
L43866 48456
L43819 48531
L43777 48568
L43698 48606
L43585 48606
" />
<path d="M44251 48081
L44152 48868
" />
<path d="M44246 48119
L44326 48081
L44476 48081
L44546 48119
L44579 48156
L44607 48231
L44579 48456
L44532 48531
L44490 48568
L44410 48606
L44260 48606
L44190 48568
" />
<path d="M45202 48568
L45122 48606
L44972 48606
L44902 48568
L44874 48493
L44912 48193
L44958 48119
L45038 48081
L45188 48081
L45258 48119
L45286 48193
L45277 48268
L44893 48343
" />
</g>
<g style="fill:#000000; fill-opacity:0.0; 
stroke:#000000; stroke-width:39.3701; stroke-opacity:1; 
stroke-linecap:round; stroke-linejoin:round;">
</g>
<g style="fill:#000000; fill-opacity:0.0; 
stroke:#000000; stroke-width:59.0551; stroke-opacity:1; 
stroke-linecap:round; stroke-linejoin:round;">
<path d="M36196 51711
L35999 51711
" />
<path d="M35999 52021
L35999 51430
L36280 51430
" />
<path d="M36505 52021
L36505 51627
" />
<path d="M36505 51430
L36477 51458
L36505 51487
L36533 51458
L36505 51430
L36505 51487
" />
<path d="M36871 52021
L36815 51993
L36787 51936
L36787 51430
" />
<path d="M37321 51993
L37265 52021
L37152 52021
L37096 51993
L37068 51936
L37068 51711
L37096 51655
L37152 51627
L37265 51627
L37321 51655
L37349 51711
L37349 51768
L37068 51824
" />
<path d="M37602 51965
L37630 51993
L37602 52021
L37574 51993
L37602 51965
L37602 52021
" />
<path d="M37602 51655
L37630 51683
L37602 51711
L37574 51683
L37602 51655
L37602 51711
" />
<path d="M38305 51852
L38586 51852
" />
<path d="M38249 52021
L38446 51430
L38643 52021
" />
<path d="M39093 51627
L39093 52021
" />
<path d="M38839 51627
L38839 51936
L38868 51993
L38924 52021
L39008 52021
L39064 51993
L39093 51965
" />
<path d="M39289 51627
L39514 51627
" />
<path d="M39374 51430
L39374 51936
L39402 51993
L39458 52021
L39514 52021
" />
<path d="M39796 52021
L39739 51993
L39711 51965
L39683 51908
L39683 51740
L39711 51683
L39739 51655
L39796 51627
L39880 51627
L39936 51655
L39964 51683
L39992 51740
L39992 51908
L39964 51965
L39936 51993
L39880 52021
L39796 52021
" />
<path d="M40217 51993
L40274 52021
L40386 52021
L40442 51993
L40470 51936
L40470 51908
L40442 51852
L40386 51824
L40302 51824
L40246 51796
L40217 51740
L40217 51711
L40246 51655
L40302 51627
L40386 51627
L40442 51655
" />
<path d="M40977 51993
L40920 52021
L40808 52021
L40752 51993
L40724 51965
L40695 51908
L40695 51740
L40724 51683
L40752 51655
L40808 51627
L40920 51627
L40977 51655
" />
<path d="M41314 52021
L41258 51993
L41230 51965
L41202 51908
L41202 51740
L41230 51683
L41258 51655
L41314 51627
L41398 51627
L41455 51655
L41483 51683
L41511 51740
L41511 51908
L41483 51965
L41455 51993
L41398 52021
L41314 52021
" />
<path d="M41764 51627
L41764 52218
" />
<path d="M41764 51655
L41820 51627
L41933 51627
L41989 51655
L42017 51683
L42045 51740
L42045 51908
L42017 51965
L41989 51993
L41933 52021
L41820 52021
L41764 51993
" />
<path d="M42523 51993
L42467 52021
L42355 52021
L42298 51993
L42270 51936
L42270 51711
L42298 51655
L42355 51627
L42467 51627
L42523 51655
L42551 51711
L42551 51768
L42270 51824
" />
<path d="M42805 51965
L42833 51993
L42805 52021
L42776 51993
L42805 51965
L42805 52021
" />
<path d="M43086 52021
L43086 51430
" />
<path d="M43142 51796
L43311 52021
" />
<path d="M43311 51627
L43086 51852
" />
<path d="M43564 52021
L43564 51627
" />
<path d="M43564 51430
L43536 51458
L43564 51487
L43592 51458
L43564 51430
L43564 51487
" />
<path d="M44098 51993
L44042 52021
L43929 52021
L43873 51993
L43845 51965
L43817 51908
L43817 51740
L43845 51683
L43873 51655
L43929 51627
L44042 51627
L44098 51655
" />
<path d="M44604 52021
L44604 51711
L44576 51655
L44520 51627
L44407 51627
L44351 51655
" />
<path d="M44604 51993
L44548 52021
L44407 52021
L44351 51993
L44323 51936
L44323 51880
L44351 51824
L44407 51796
L44548 51796
L44604 51768
" />
<path d="M45139 52021
L45139 51430
" />
<path d="M45139 51993
L45082 52021
L44970 52021
L44914 51993
L44886 51965
L44857 51908
L44857 51740
L44886 51683
L44914 51655
L44970 51627
L45082 51627
L45139 51655
" />
<path d="M45279 52077
L45729 52077
" />
<path d="M45870 51627
L45870 52218
" />
<path d="M45870 51655
L45926 51627
L46039 51627
L46095 51655
L46123 51683
L46151 51740
L46151 51908
L46123 51965
L46095 51993
L46039 52021
L45926 52021
L45870 51993
" />
<path d="M46657 51993
L46601 52021
L46488 52021
L46432 51993
L46404 51965
L46376 51908
L46376 51740
L46404 51683
L46432 51655
L46488 51627
L46601 51627
L46657 51655
" />
<path d="M46910 52021
L46910 51430
" />
<path d="M46910 51655
L46967 51627
L47079 51627
L47135 51655
L47163 51683
L47192 51740
L47192 51908
L47163 51965
L47135 51993
L47079 52021
L46967 52021
L46910 51993
" />
</g>
<g style="fill:#000000; fill-opacity:0.0; 
stroke:#000000; stroke-width:39.3701; stroke-opacity:1; 
stroke-linecap:round; stroke-linejoin:round;">
</g>
<g style="fill:#000000; fill-opacity:0.0; 
stroke:#000000; stroke-width:59.0551; stroke-opacity:1; 
stroke-linecap:round; stroke-linejoin:round;">
<path d="M35435 47049
L77955 47049
" />
</g>
<g style="fill:#000000; fill-opacity:0.0; 
stroke:#000000; stroke-width:39.3701; stroke-opacity:1; 
stroke-linecap:round; stroke-linejoin:round;">
</g>
<g style="fill:#000000; fill-opacity:0.0; 
stroke:#000000; stroke-width:118.11; stroke-opacity:1; 
stroke-linecap:round; stroke-linejoin:round;">
<path d="M36141 50393
L36422 50393
" />
<path d="M36063 50561
L36334 49971
L36457 50561
" />
<path d="M36956 50168
L36907 50561
" />
<path d="M36703 50168
L36664 50477
L36685 50533
L36738 50561
L36822 50561
L36882 50533
L36914 50505
" />
<path d="M37153 50168
L37378 50168
" />
<path d="M37262 49971
L37199 50477
L37220 50533
L37272 50561
L37329 50561
" />
<path d="M37526 50561
L37599 49971
" />
<path d="M37779 50561
L37817 50252
L37796 50196
L37743 50168
L37659 50168
L37599 50196
L37568 50224
" />
<path d="M38144 50561
L38091 50533
L38067 50505
L38046 50449
L38067 50280
L38102 50224
L38134 50196
L38193 50168
L38278 50168
L38330 50196
L38355 50224
L38376 50280
L38355 50449
L38320 50505
L38288 50533
L38229 50561
L38144 50561
" />
<path d="M38594 50561
L38643 50168
" />
<path d="M38629 50280
L38664 50224
L38696 50196
L38756 50168
L38812 50168
" />
<path d="M38967 50505
L38991 50533
L38960 50561
L38935 50533
L38967 50505
L38960 50561
" />
<path d="M39005 50196
L39030 50224
L38998 50252
L38974 50224
L39005 50196
L38998 50252
" />
<path d="M39680 49971
L40018 49971
" />
<path d="M39775 50561
L39849 49971
" />
<path d="M40141 50561
L40215 49971
" />
<path d="M40394 50561
L40433 50252
L40411 50196
L40359 50168
L40274 50168
L40215 50196
L40183 50224
" />
<path d="M40759 50561
L40707 50533
L40682 50505
L40661 50449
L40682 50280
L40717 50224
L40749 50196
L40809 50168
L40893 50168
L40946 50196
L40970 50224
L40991 50280
L40970 50449
L40935 50505
L40904 50533
L40844 50561
L40759 50561
" />
<path d="M41209 50561
L41259 50168
" />
<path d="M41252 50224
L41283 50196
L41343 50168
L41427 50168
L41480 50196
L41501 50252
L41463 50561
" />
<path d="M41501 50252
L41536 50196
L41596 50168
L41680 50168
L41733 50196
L41754 50252
L41716 50561
" />
<path d="M42250 50561
L42289 50252
L42267 50196
L42215 50168
L42102 50168
L42043 50196
" />
<path d="M42253 50533
L42194 50561
L42053 50561
L42000 50533
L41979 50477
L41986 50421
L42021 50365
L42081 50336
L42222 50336
L42282 50308
" />
<path d="M42507 50533
L42559 50561
L42672 50561
L42732 50533
L42767 50477
L42770 50449
L42749 50393
L42696 50365
L42612 50365
L42559 50336
L42538 50280
L42542 50252
L42577 50196
L42637 50168
L42721 50168
L42774 50196
" />
<path d="M43740 50561
L43459 50561
L43533 49971
" />
<path d="M43976 50252
L44173 50252
" />
<path d="M44218 50561
L43937 50561
L44011 49971
L44292 49971
" />
<path d="M44472 50561
L44545 49971
L44770 49971
L44823 49999
L44848 50027
L44869 50083
L44858 50168
L44823 50224
L44791 50252
L44732 50280
L44507 50280
" />
<path d="M45248 49971
L45361 49971
L45414 49999
L45463 50055
L45477 50168
L45452 50365
L45410 50477
L45347 50533
L45287 50561
L45175 50561
L45122 50533
L45073 50477
L45059 50365
L45083 50168
L45125 50055
L45189 49999
L45248 49971
" />
<path d="M45681 50561
L45755 49971
" />
<path d="M45980 49971
L46299 50561
" />
<path d="M46373 49971
L45906 50561
" />
</g>
<g style="fill:#000000; fill-opacity:0.0; 
stroke:#000000; stroke-width:39.3701; stroke-opacity:1; 
stroke-linecap:round; stroke-linejoin:round;">
</g>
<g style="fill:#000000; fill-opacity:0.0; 
stroke:#000000; stroke-width:59.0551; stroke-opacity:1; 
stroke-linecap:round; stroke-linejoin:round;">
<path d="M64766 53545
L64766 49313
" />
</g>
<g style="fill:#000000; fill-opacity:0.0; 
stroke:#000000; stroke-width:39.3701; stroke-opacity:1; 
stroke-linecap:round; stroke-linejoin:round;">
<rect x="35637.1" y="41168.9" width="32666.7" height="5850" rx="0" />
</g>
<g style="fill:#008484; fill-opacity:0.0; 
stroke:#008484; stroke-width:39.3701; stroke-opacity:1; 
stroke-linecap:round; stroke-linejoin:round;">
</g>
<g style="fill:#008484; fill-opacity:0.0; 
stroke:#008484; stroke-width:59.0551; stroke-opacity:1; 
stroke-linecap:round; stroke-linejoin:round;">
<path d="M49232 24980
L49232 20688
" />
<path d="M43956 24980
L43956 20688
" />
<path d="M49685 25393
L49685 20275
" />
<path d="M43503 25393
L43503 20275
" />
<path d="M49232 24980
L43956 24980
" />
<path d="M43503 25393
L49685 25393
" />
<path d="M49232 20688
L43956 20688
" />
<path d="M43503 20275
L49685 20275
" />
<circle cx="45748" cy="22834.6" r="324.803" /> 
<circle cx="45748" cy="22834.6" r="866.142" /> 
</g>
<g style="fill:#008484; fill-opacity:0.0; 
stroke:#008484; stroke-width:47.2441; stroke-opacity:1; 
stroke-linecap:round; stroke-linejoin:round;">
<path d="M31576 11740
L31576 12263
" />
<path d="M31053 11740
L31576 11740
" />
<path d="M30553 11740
L30553 12787
" />
<path d="M30553 12787
L23529 12787
" />
<path d="M30553 11740
L23529 11740
" />
<path d="M23529 11740
L23529 12787
" />
<path d="M23559 17787
L31588 17787
" />
<path d="M23559 16740
L31588 16740
" />
<path d="M31588 17787
L31588 16740
" />
<path d="M23535 17787
L23535 16740
" />
<path d="M31576 27881
L31576 28405
" />
<path d="M31053 27881
L31576 27881
" />
<path d="M30553 27881
L30553 28929
" />
<path d="M30553 28929
L23529 28929
" />
<path d="M30553 27881
L23529 27881
" />
<path d="M23529 27881
L23529 28929
" />
<path d="M23559 33929
L31588 33929
" />
<path d="M23559 32881
L31588 32881
" />
<path d="M31588 33929
L31588 32881
" />
<path d="M23535 33929
L23535 32881
" />
<path d="M31576 19811
L31576 20334
" />
<path d="M31053 19811
L31576 19811
" />
<path d="M30553 19811
L30553 20858
" />
<path d="M30553 20858
L23529 20858
" />
<path d="M30553 19811
L23529 19811
" />
<path d="M23529 19811
L23529 20858
" />
<path d="M23559 25858
L31588 25858
" />
<path d="M23559 24811
L31588 24811
" />
<path d="M31588 25858
L31588 24811
" />
<path d="M23535 25858
L23535 24811
" />
<path d="M52232 15377
L54279 15377
" />
<path d="M54279 15377
L54279 14330
" />
<path d="M54279 14330
L52232 14330
" />
<path d="M52232 14330
L52232 15377
" />
<path d="M52606 14330
L52606 11968
" />
<path d="M52606 11968
L52905 11968
" />
<path d="M52905 11968
L52905 14330
" />
<path d="M52629 14330
L52629 11968
" />
<path d="M52677 14330
L52677 11968
" />
<path d="M52724 14330
L52724 11968
" />
<path d="M52771 14330
L52771 11968
" />
<path d="M52818 14330
L52818 11968
" />
<path d="M52866 14330
L52866 11968
" />
<path d="M52606 15507
L52606 15377
" />
<path d="M52905 15507
L52905 15377
" />
<path d="M53255 15377
L53255 14330
" />
<path d="M53606 14330
L53606 11968
" />
<path d="M53606 11968
L53905 11968
" />
<path d="M53905 11968
L53905 14330
" />
<path d="M53606 15534
L53606 15377
" />
<path d="M53905 15534
L53905 15377
" />
<path d="M52755 16444
L52255 16444
" />
<path d="M52255 16444
L52255 15944
" />
<path d="M49696 16444
L49696 15944
" />
<path d="M50196 16444
L49696 16444
" />
<path d="M51346 15534
L51346 15377
" />
<path d="M51047 15534
L51047 15377
" />
<path d="M51346 11968
L51346 14330
" />
<path d="M51047 11968
L51346 11968
" />
<path d="M51047 14330
L51047 11968
" />
<path d="M50696 15377
L50696 14330
" />
<path d="M50346 15507
L50346 15377
" />
<path d="M50047 15507
L50047 15377
" />
<path d="M50307 14330
L50307 11968
" />
<path d="M50259 14330
L50259 11968
" />
<path d="M50212 14330
L50212 11968
" />
<path d="M50165 14330
L50165 11968
" />
<path d="M50118 14330
L50118 11968
" />
<path d="M50070 14330
L50070 11968
" />
<path d="M50346 11968
L50346 14330
" />
<path d="M50047 11968
L50346 11968
" />
<path d="M50047 14330
L50047 11968
" />
<path d="M49673 14330
L49673 15377
" />
<path d="M51720 14330
L49673 14330
" />
<path d="M51720 15377
L51720 14330
" />
<path d="M49673 15377
L51720 15377
" />
<path d="M47122 16444
L47122 15944
" />
<path d="M47622 16444
L47122 16444
" />
<path d="M48771 15534
L48771 15377
" />
<path d="M48472 15534
L48472 15377
" />
<path d="M48771 11968
L48771 14330
" />
<path d="M48472 11968
L48771 11968
" />
<path d="M48472 14330
L48472 11968
" />
<path d="M48122 15377
L48122 14330
" />
<path d="M47771 15507
L47771 15377
" />
<path d="M47472 15507
L47472 15377
" />
<path d="M47732 14330
L47732 11968
" />
<path d="M47685 14330
L47685 11968
" />
<path d="M47637 14330
L47637 11968
" />
<path d="M47590 14330
L47590 11968
" />
<path d="M47543 14330
L47543 11968
" />
<path d="M47496 14330
L47496 11968
" />
<path d="M47771 11968
L47771 14330
" />
<path d="M47472 11968
L47771 11968
" />
<path d="M47472 14330
L47472 11968
" />
<path d="M47098 14330
L47098 15377
" />
<path d="M49145 14330
L47098 14330
" />
<path d="M49145 15377
L49145 14330
" />
<path d="M47098 15377
L49145 15377
" />
<path d="M44555 15377
L46602 15377
" />
<path d="M46602 15377
L46602 14330
" />
<path d="M46602 14330
L44555 14330
" />
<path d="M44555 14330
L44555 15377
" />
<path d="M44929 14330
L44929 11968
" />
<path d="M44929 11968
L45228 11968
" />
<path d="M45228 11968
L45228 14330
" />
<path d="M44952 14330
L44952 11968
" />
<path d="M45000 14330
L45000 11968
" />
<path d="M45047 14330
L45047 11968
" />
<path d="M45094 14330
L45094 11968
" />
<path d="M45141 14330
L45141 11968
" />
<path d="M45188 14330
L45188 11968
" />
<path d="M44929 15507
L44929 15377
" />
<path d="M45228 15507
L45228 15377
" />
<path d="M45578 15377
L45578 14330
" />
<path d="M45929 14330
L45929 11968
" />
<path d="M45929 11968
L46228 11968
" />
<path d="M46228 11968
L46228 14330
" />
<path d="M45929 15534
L45929 15377
" />
<path d="M46228 15534
L46228 15377
" />
<path d="M45078 16444
L44578 16444
" />
<path d="M44578 16444
L44578 15944
" />
<path d="M42019 16444
L42019 15944
" />
<path d="M42519 16444
L42019 16444
" />
<path d="M43669 15534
L43669 15377
" />
<path d="M43370 15534
L43370 15377
" />
<path d="M43669 11968
L43669 14330
" />
<path d="M43370 11968
L43669 11968
" />
<path d="M43370 14330
L43370 11968
" />
<path d="M43019 15377
L43019 14330
" />
<path d="M42669 15507
L42669 15377
" />
<path d="M42370 15507
L42370 15377
" />
<path d="M42629 14330
L42629 11968
" />
<path d="M42582 14330
L42582 11968
" />
<path d="M42535 14330
L42535 11968
" />
<path d="M42488 14330
L42488 11968
" />
<path d="M42440 14330
L42440 11968
" />
<path d="M42393 14330
L42393 11968
" />
<path d="M42669 11968
L42669 14330
" />
<path d="M42370 11968
L42669 11968
" />
<path d="M42370 14330
L42370 11968
" />
<path d="M41996 14330
L41996 15377
" />
<path d="M44043 14330
L41996 14330
" />
<path d="M44043 15377
L44043 14330
" />
<path d="M41996 15377
L44043 15377
" />
<path d="M27173 15787
L27173 13740
" />
<path d="M27173 13740
L26125 13740
" />
<path d="M26125 13740
L26125 15787
" />
<path d="M26125 15787
L27173 15787
" />
<path d="M26125 15413
L23763 15413
" />
<path d="M23763 15413
L23763 15114
" />
<path d="M23763 15114
L26125 15114
" />
<path d="M26125 15389
L23763 15389
" />
<path d="M26125 15342
L23763 15342
" />
<path d="M26125 15295
L23763 15295
" />
<path d="M26125 15248
L23763 15248
" />
<path d="M26125 15200
L23763 15200
" />
<path d="M26125 15153
L23763 15153
" />
<path d="M27329 15413
L27173 15413
" />
<path d="M27329 15114
L27173 15114
" />
<path d="M28303 15413
L28150 15413
" />
<path d="M28303 15114
L28150 15114
" />
<path d="M27173 14763
L26125 14763
" />
<path d="M26125 14413
L23763 14413
" />
<path d="M23763 14413
L23763 14114
" />
<path d="M23763 14114
L26125 14114
" />
<path d="M27329 14413
L27173 14413
" />
<path d="M27329 14114
L27173 14114
" />
<path d="M28329 14413
L28150 14413
" />
<path d="M28329 14114
L28150 14114
" />
<path d="M29240 15263
L29240 15763
" />
<path d="M29240 15763
L28740 15763
" />
<path d="M29240 23834
L28740 23834
" />
<path d="M29240 23334
L29240 23834
" />
<path d="M28329 22185
L28150 22185
" />
<path d="M28329 22484
L28150 22484
" />
<path d="M27329 22185
L27173 22185
" />
<path d="M27329 22484
L27173 22484
" />
<path d="M23763 22185
L26125 22185
" />
<path d="M23763 22484
L23763 22185
" />
<path d="M26125 22484
L23763 22484
" />
<path d="M27173 22834
L26125 22834
" />
<path d="M28303 23185
L28150 23185
" />
<path d="M28303 23484
L28150 23484
" />
<path d="M27329 23185
L27173 23185
" />
<path d="M27329 23484
L27173 23484
" />
<path d="M26125 23224
L23763 23224
" />
<path d="M26125 23271
L23763 23271
" />
<path d="M26125 23318
L23763 23318
" />
<path d="M26125 23366
L23763 23366
" />
<path d="M26125 23413
L23763 23413
" />
<path d="M26125 23460
L23763 23460
" />
<path d="M23763 23185
L26125 23185
" />
<path d="M23763 23484
L23763 23185
" />
<path d="M26125 23484
L23763 23484
" />
<path d="M26125 23858
L27173 23858
" />
<path d="M26125 21811
L26125 23858
" />
<path d="M27173 21811
L26125 21811
" />
<path d="M27173 23858
L27173 21811
" />
<path d="M38437 15377
L40484 15377
" />
<path d="M40484 15377
L40484 14330
" />
<path d="M40484 14330
L38437 14330
" />
<path d="M38437 14330
L38437 15377
" />
<path d="M38811 14330
L38811 11968
" />
<path d="M38811 11968
L39110 11968
" />
<path d="M39110 11968
L39110 14330
" />
<path d="M38834 14330
L38834 11968
" />
<path d="M38881 14330
L38881 11968
" />
<path d="M38929 14330
L38929 11968
" />
<path d="M38976 14330
L38976 11968
" />
<path d="M39023 14330
L39023 11968
" />
<path d="M39070 14330
L39070 11968
" />
<path d="M38811 15507
L38811 15377
" />
<path d="M39110 15507
L39110 15377
" />
<path d="M39460 15377
L39460 14330
" />
<path d="M39811 14330
L39811 11968
" />
<path d="M39811 11968
L40110 11968
" />
<path d="M40110 11968
L40110 14330
" />
<path d="M39811 15534
L39811 15377
" />
<path d="M40110 15534
L40110 15377
" />
<path d="M38960 16444
L38460 16444
" />
<path d="M38460 16444
L38460 15944
" />
<path d="M54040 29641
L54246 29641
" />
<path d="M54040 30200
L54246 30200
" />
<path d="M52452 18594
L52952 18594
" />
<path d="M52452 19094
L52452 18594
" />
<path d="M53363 23244
L53519 23244
" />
<path d="M53363 22944
L53519 22944
" />
<path d="M56929 23244
L54566 23244
" />
<path d="M56929 22944
L56929 23244
" />
<path d="M54566 22944
L56929 22944
" />
<path d="M53519 22594
L54566 22594
" />
<path d="M53363 22244
L53519 22244
" />
<path d="M53363 21944
L53519 21944
" />
<path d="M56929 22244
L54566 22244
" />
<path d="M56929 21944
L56929 22244
" />
<path d="M54566 21944
L56929 21944
" />
<path d="M53519 21594
L54566 21594
" />
<path d="M53363 21244
L53519 21244
" />
<path d="M53363 20944
L53519 20944
" />
<path d="M56929 21244
L54566 21244
" />
<path d="M56929 20944
L56929 21244
" />
<path d="M54566 20944
L56929 20944
" />
<path d="M53519 20594
L54566 20594
" />
<path d="M53363 20244
L53519 20244
" />
<path d="M53363 19944
L53519 19944
" />
<path d="M56929 20244
L54566 20244
" />
<path d="M56929 19944
L56929 20244
" />
<path d="M54566 19944
L56929 19944
" />
<path d="M53519 19594
L54566 19594
" />
<path d="M53389 19244
L53519 19244
" />
<path d="M53389 18944
L53519 18944
" />
<path d="M54566 19204
L56929 19204
" />
<path d="M54566 19157
L56929 19157
" />
<path d="M54566 19110
L56929 19110
" />
<path d="M54566 19062
L56929 19062
" />
<path d="M54566 19015
L56929 19015
" />
<path d="M54566 18968
L56929 18968
" />
<path d="M56929 19244
L54566 19244
" />
<path d="M56929 18944
L56929 19244
" />
<path d="M54566 18944
L56929 18944
" />
<path d="M54566 18570
L53519 18570
" />
<path d="M54566 23618
L54566 18570
" />
<path d="M53519 23618
L54566 23618
" />
<path d="M53519 18570
L53519 23618
" />
<path d="M53519 25263
L53519 29311
" />
<path d="M53519 29311
L54566 29311
" />
<path d="M54566 29311
L54566 25263
" />
<path d="M54566 25263
L53519 25263
" />
<path d="M54566 25637
L56929 25637
" />
<path d="M56929 25637
L56929 25937
" />
<path d="M56929 25937
L54566 25937
" />
<path d="M54566 25661
L56929 25661
" />
<path d="M54566 25708
L56929 25708
" />
<path d="M54566 25755
L56929 25755
" />
<path d="M54566 25803
L56929 25803
" />
<path d="M54566 25850
L56929 25850
" />
<path d="M54566 25897
L56929 25897
" />
<path d="M53389 25637
L53519 25637
" />
<path d="M53389 25937
L53519 25937
" />
<path d="M53519 26287
L54566 26287
" />
<path d="M54566 26637
L56929 26637
" />
<path d="M56929 26637
L56929 26937
" />
<path d="M56929 26937
L54566 26937
" />
<path d="M53363 26637
L53519 26637
" />
<path d="M53363 26937
L53519 26937
" />
<path d="M53519 27287
L54566 27287
" />
<path d="M54566 27637
L56929 27637
" />
<path d="M56929 27637
L56929 27937
" />
<path d="M56929 27937
L54566 27937
" />
<path d="M53363 27637
L53519 27637
" />
<path d="M53363 27937
L53519 27937
" />
<path d="M53519 28287
L54566 28287
" />
<path d="M54566 28637
L56929 28637
" />
<path d="M56929 28637
L56929 28937
" />
<path d="M56929 28937
L54566 28937
" />
<path d="M53363 28637
L53519 28637
" />
<path d="M53363 28937
L53519 28937
" />
<path d="M52452 25787
L52452 25287
" />
<path d="M52452 25287
L52952 25287
" />
</g>
<g style="fill:#008484; fill-opacity:0.0; 
stroke:#008484; stroke-width:59.0551; stroke-opacity:1; 
stroke-linecap:round; stroke-linejoin:round;">
<path d="M40551 25196
L39566 25196
" />
<path d="M43504 25196
L42519 25196
" />
<path d="M43504 20472
L42519 20472
" />
<path d="M39566 20472
L40551 20472
" />
<path d="M41535 24606
L41535 21062
" />
<path d="M40551 24606
L42519 24606
" />
<path d="M40551 21062
L42519 21062
" />
<path d="M40787 18897
L40551 18897
" />
<path d="M42283 26771
L42519 26771
" />
<path d="M42519 26771
L42519 18897
" />
<path d="M42519 18897
L42283 18897
" />
<path d="M40551 18897
L40551 26771
" />
<path d="M40551 26771
L40787 26771
" />
<path d="M40787 18110
L39566 18110
" />
<path d="M42283 27558
L43504 27558
" />
<path d="M43504 27558
L43504 18110
" />
<path d="M43504 18110
L42283 18110
" />
<path d="M39566 18110
L39566 27558
" />
<path d="M39566 27558
L40787 27558
" />
</g>
<g style="fill:#008484; fill-opacity:0.0; 
stroke:#008484; stroke-width:47.2441; stroke-opacity:1; 
stroke-linecap:round; stroke-linejoin:round;">
<path d="M43401 25472
L43889 25472
" />
<path d="M43401 25960
L43401 25472
" />
<path d="M48070 25566
L48070 28960
" />
<path d="M43496 25566
L43496 28960
" />
<path d="M43496 28960
L48070 28960
" />
<path d="M43496 25566
L48070 25566
" />
<path d="M29240 31905
L28740 31905
" />
<path d="M29240 31405
L29240 31905
" />
<path d="M28329 30255
L28150 30255
" />
<path d="M28329 30555
L28150 30555
" />
<path d="M27329 30255
L27173 30255
" />
<path d="M27329 30555
L27173 30555
" />
<path d="M23763 30255
L26125 30255
" />
<path d="M23763 30555
L23763 30255
" />
<path d="M26125 30555
L23763 30555
" />
<path d="M27173 30905
L26125 30905
" />
<path d="M28303 31255
L28150 31255
" />
<path d="M28303 31555
L28150 31555
" />
<path d="M27329 31255
L27173 31255
" />
<path d="M27329 31555
L27173 31555
" />
<path d="M26125 31295
L23763 31295
" />
<path d="M26125 31342
L23763 31342
" />
<path d="M26125 31389
L23763 31389
" />
<path d="M26125 31437
L23763 31437
" />
<path d="M26125 31484
L23763 31484
" />
<path d="M26125 31531
L23763 31531
" />
<path d="M23763 31255
L26125 31255
" />
<path d="M23763 31555
L23763 31255
" />
<path d="M26125 31555
L23763 31555
" />
<path d="M26125 31929
L27173 31929
" />
<path d="M26125 29881
L26125 31929
" />
<path d="M27173 29881
L26125 29881
" />
<path d="M27173 31929
L27173 29881
" />
<path d="M35877 15377
L37925 15377
" />
<path d="M37925 15377
L37925 14330
" />
<path d="M37925 14330
L35877 14330
" />
<path d="M35877 14330
L35877 15377
" />
<path d="M36251 14330
L36251 11968
" />
<path d="M36251 11968
L36551 11968
" />
<path d="M36551 11968
L36551 14330
" />
<path d="M36275 14330
L36275 11968
" />
<path d="M36322 14330
L36322 11968
" />
<path d="M36370 14330
L36370 11968
" />
<path d="M36417 14330
L36417 11968
" />
<path d="M36464 14330
L36464 11968
" />
<path d="M36511 14330
L36511 11968
" />
<path d="M36251 15507
L36251 15377
" />
<path d="M36551 15507
L36551 15377
" />
<path d="M36901 15377
L36901 14330
" />
<path d="M37251 14330
L37251 11968
" />
<path d="M37251 11968
L37551 11968
" />
<path d="M37551 11968
L37551 14330
" />
<path d="M37251 15534
L37251 15377
" />
<path d="M37551 15534
L37551 15377
" />
<path d="M36401 16444
L35901 16444
" />
<path d="M35901 16444
L35901 15944
" />
</g>
<g style="fill:#008484; fill-opacity:0.0; 
stroke:#008484; stroke-width:59.0551; stroke-opacity:1; 
stroke-linecap:round; stroke-linejoin:round;">
<path d="M46719 24095
L46719 24376
L46700 24432
L46662 24470
L46606 24489
L46569 24489
" />
<path d="M47075 24095
L47000 24095
L46962 24114
L46944 24132
L46906 24189
L46887 24264
L46887 24414
L46906 24451
L46925 24470
L46962 24489
L47037 24489
L47075 24470
L47094 24451
L47112 24414
L47112 24320
L47094 24282
L47075 24264
L47037 24245
L46962 24245
L46925 24264
L46906 24282
L46887 24320
" />
<path d="M32081 12087
L32081 12406
L32100 12443
L32119 12462
L32156 12481
L32231 12481
L32269 12462
L32288 12443
L32306 12406
L32306 12087
" />
<path d="M32475 12125
L32494 12106
L32531 12087
L32625 12087
L32663 12106
L32681 12125
L32700 12162
L32700 12200
L32681 12256
L32456 12481
L32700 12481
" />
<path d="M32081 28229
L32081 28547
L32100 28585
L32119 28604
L32156 28622
L32231 28622
L32269 28604
L32288 28585
L32306 28547
L32306 28229
" />
<path d="M32456 28229
L32700 28229
L32569 28379
L32625 28379
L32663 28398
L32681 28416
L32700 28454
L32700 28547
L32681 28585
L32663 28604
L32625 28622
L32513 28622
L32475 28604
L32456 28585
" />
<path d="M32081 20158
L32081 20477
L32100 20514
L32119 20533
L32156 20552
L32231 20552
L32269 20533
L32288 20514
L32306 20477
L32306 20158
" />
<path d="M32663 20289
L32663 20552
" />
<path d="M32569 20139
L32475 20420
L32719 20420
" />
<path d="M53116 16811
L53116 17093
L53098 17149
L53060 17186
L53004 17205
L52966 17205
" />
<path d="M53510 17205
L53285 17205
" />
<path d="M53398 17205
L53398 16811
L53360 16868
L53323 16905
L53285 16924
" />
<path d="M50557 16811
L50557 17093
L50538 17149
L50501 17186
L50445 17205
L50407 17205
" />
<path d="M50726 16849
L50745 16830
L50782 16811
L50876 16811
L50913 16830
L50932 16849
L50951 16886
L50951 16924
L50932 16980
L50707 17205
L50951 17205
" />
<path d="M47998 16811
L47998 17093
L47979 17149
L47942 17186
L47886 17205
L47848 17205
" />
<path d="M48148 16811
L48392 16811
L48261 16961
L48317 16961
L48354 16980
L48373 16999
L48392 17036
L48392 17130
L48373 17168
L48354 17186
L48317 17205
L48204 17205
L48167 17186
L48148 17168
" />
<path d="M45439 16811
L45439 17093
L45420 17149
L45383 17186
L45327 17205
L45289 17205
" />
<path d="M45795 16943
L45795 17205
" />
<path d="M45702 16793
L45608 17074
L45852 17074
" />
<path d="M42880 16811
L42880 17093
L42861 17149
L42824 17186
L42768 17205
L42730 17205
" />
<path d="M43255 16811
L43068 16811
L43049 16999
L43068 16980
L43105 16961
L43199 16961
L43236 16980
L43255 16999
L43274 17036
L43274 17130
L43255 17168
L43236 17186
L43199 17205
L43105 17205
L43068 17186
L43049 17168
" />
<path d="M29897 14548
L29897 14829
L29879 14885
L29841 14923
L29785 14941
L29747 14941
" />
<path d="M30291 14941
L30066 14941
" />
<path d="M30179 14941
L30179 14548
L30141 14604
L30104 14641
L30066 14660
" />
<path d="M30535 14548
L30572 14548
L30610 14566
L30628 14585
L30647 14623
L30666 14698
L30666 14791
L30647 14866
L30628 14904
L30610 14923
L30572 14941
L30535 14941
L30497 14923
L30479 14904
L30460 14866
L30441 14791
L30441 14698
L30460 14623
L30479 14585
L30497 14566
L30535 14548
" />
<path d="M29897 22619
L29897 22900
L29879 22956
L29841 22994
L29785 23012
L29747 23012
" />
<path d="M30291 23012
L30066 23012
" />
<path d="M30179 23012
L30179 22619
L30141 22675
L30104 22712
L30066 22731
" />
<path d="M30666 23012
L30441 23012
" />
<path d="M30553 23012
L30553 22619
L30516 22675
L30479 22712
L30441 22731
" />
<path d="M38927 17186
L38984 17205
L39077 17205
L39115 17186
L39134 17168
L39152 17130
L39152 17093
L39134 17055
L39115 17036
L39077 17018
L39002 16999
L38965 16980
L38946 16961
L38927 16924
L38927 16886
L38946 16849
L38965 16830
L39002 16811
L39096 16811
L39152 16830
" />
<path d="M39284 16811
L39377 17205
L39452 16924
L39527 17205
L39621 16811
" />
<path d="M39977 17205
L39752 17205
" />
<path d="M39865 17205
L39865 16811
L39827 16868
L39790 16905
L39752 16924
" />
<path d="M54068 30849
L54049 30868
L53993 30886
L53955 30886
L53899 30868
L53862 30830
L53843 30793
L53824 30718
L53824 30661
L53843 30586
L53862 30549
L53899 30511
L53955 30493
L53993 30493
L54049 30511
L54068 30530
" />
<path d="M54293 30661
L54255 30643
L54236 30624
L54218 30586
L54218 30568
L54236 30530
L54255 30511
L54293 30493
L54368 30493
L54405 30511
L54424 30530
L54443 30568
L54443 30586
L54424 30624
L54405 30643
L54368 30661
L54293 30661
L54255 30680
L54236 30699
L54218 30736
L54218 30811
L54236 30849
L54255 30868
L54293 30886
L54368 30886
L54405 30868
L54424 30849
L54443 30811
L54443 30736
L54424 30699
L54405 30680
L54368 30661
" />
<path d="M51640 20847
L51640 21128
L51621 21184
L51584 21222
L51527 21241
L51490 21241
" />
<path d="M51846 21241
L51921 21241
L51959 21222
L51977 21203
L52015 21147
L52034 21072
L52034 20922
L52015 20884
L51996 20866
L51959 20847
L51884 20847
L51846 20866
L51827 20884
L51809 20922
L51809 21016
L51827 21053
L51846 21072
L51884 21091
L51959 21091
L51996 21072
L52015 21053
L52034 21016
" />
<path d="M51640 27048
L51640 27329
L51621 27385
L51584 27423
L51527 27441
L51490 27441
" />
<path d="M51790 27048
L52052 27048
L51884 27441
" />
<path d="M41404 20444
L41272 20444
" />
<path d="M41272 20650
L41272 20256
L41460 20256
" />
<path d="M41816 20650
L41591 20650
" />
<path d="M41704 20650
L41704 20256
L41666 20313
L41629 20350
L41591 20369
" />
<path d="M45566 27245
L45566 27563
L45584 27601
L45603 27619
L45641 27638
L45716 27638
L45753 27619
L45772 27601
L45791 27563
L45791 27245
" />
<path d="M46184 27638
L45959 27638
" />
<path d="M46072 27638
L46072 27245
L46034 27301
L45997 27338
L45959 27357
" />
<path d="M29897 30689
L29897 30971
L29879 31027
L29841 31064
L29785 31083
L29747 31083
" />
<path d="M30291 31083
L30066 31083
" />
<path d="M30179 31083
L30179 30689
L30141 30746
L30104 30783
L30066 30802
" />
<path d="M30441 30727
L30460 30708
L30497 30689
L30591 30689
L30628 30708
L30647 30727
L30666 30764
L30666 30802
L30647 30858
L30422 31083
L30666 31083
" />
<path d="M36574 16811
L36574 17093
L36556 17149
L36518 17186
L36462 17205
L36425 17205
" />
<path d="M36968 17205
L36743 17205
" />
<path d="M36856 17205
L36856 16811
L36818 16868
L36781 16905
L36743 16924
" />
<path d="M37099 16811
L37343 16811
L37212 16961
L37268 16961
L37306 16980
L37324 16999
L37343 17036
L37343 17130
L37324 17168
L37306 17186
L37268 17205
L37156 17205
L37118 17186
L37099 17168
" />
</g>
<g style="fill:#000000; fill-opacity:0.0; 
stroke:#000000; stroke-width:59.0551; stroke-opacity:1; 
stroke-linecap:round; stroke-linejoin:round;">
</g>
<g style="fill:#C2C2C2; fill-opacity:0.0; 
stroke:#C2C2C2; stroke-width:59.0551; stroke-opacity:1; 
stroke-linecap:round; stroke-linejoin:round;">
</g>
<g style="fill:#C2C2C2; fill-opacity:0.0; 
stroke:#C2C2C2; stroke-width:19.685; stroke-opacity:1; 
stroke-linecap:round; stroke-linejoin:round;">
<path d="M31761 12972
L31761 11555
" />
<path d="M23356 12972
L31761 12972
" />
<path d="M23356 11555
L23356 12972
" />
<path d="M31761 11555
L23356 11555
" />
<path d="M31761 16555
L23356 16555
" />
<path d="M23356 17972
L31761 17972
" />
<path d="M23356 16555
L23356 17972
" />
<path d="M31761 17972
L31761 16555
" />
<path d="M31761 29114
L31761 27696
" />
<path d="M23356 29114
L31761 29114
" />
<path d="M23356 27696
L23356 29114
" />
<path d="M31761 27696
L23356 27696
" />
<path d="M31761 32696
L23356 32696
" />
<path d="M23356 34114
L31761 34114
" />
<path d="M23356 32696
L23356 34114
" />
<path d="M31761 34114
L31761 32696
" />
<path d="M31761 21043
L31761 19625
" />
<path d="M23356 21043
L31761 21043
" />
<path d="M23356 19625
L23356 21043
" />
<path d="M31761 19625
L23356 19625
" />
<path d="M31761 24625
L23356 24625
" />
<path d="M23356 26043
L31761 26043
" />
<path d="M23356 24625
L23356 26043
" />
<path d="M31761 26043
L31761 24625
" />
<path d="M52047 16653
L54468 16653
" />
<path d="M54468 16653
L54468 11791
" />
<path d="M54468 11791
L52047 11791
" />
<path d="M52047 11791
L52047 16653
" />
<path d="M49488 11791
L49488 16653
" />
<path d="M51909 11791
L49488 11791
" />
<path d="M51909 16653
L51909 11791
" />
<path d="M49488 16653
L51909 16653
" />
<path d="M46913 11791
L46913 16653
" />
<path d="M49334 11791
L46913 11791
" />
<path d="M49334 16653
L49334 11791
" />
<path d="M46913 16653
L49334 16653
" />
<path d="M44370 16653
L46791 16653
" />
<path d="M46791 16653
L46791 11791
" />
<path d="M46791 11791
L44370 11791
" />
<path d="M44370 11791
L44370 16653
" />
<path d="M41811 11791
L41811 16653
" />
<path d="M44232 11791
L41811 11791
" />
<path d="M44232 16653
L44232 11791
" />
<path d="M41811 16653
L44232 16653
" />
<path d="M29448 15972
L29448 13551
" />
<path d="M29448 13551
L23582 13551
" />
<path d="M23582 13551
L23582 15972
" />
<path d="M23582 15972
L29448 15972
" />
<path d="M23582 24043
L29448 24043
" />
<path d="M23582 21622
L23582 24043
" />
<path d="M29448 21622
L23582 21622
" />
<path d="M29448 24043
L29448 21622
" />
<path d="M38251 16653
L40673 16653
" />
<path d="M40673 16653
L40673 11791
" />
<path d="M40673 11791
L38251 11791
" />
<path d="M38251 11791
L38251 16653
" />
<path d="M53415 30295
L53415 29547
" />
<path d="M53415 29547
L54872 29547
" />
<path d="M54872 29547
L54872 30295
" />
<path d="M54872 30295
L53415 30295
" />
<path d="M57106 18385
L52244 18385
" />
<path d="M57106 23799
L57106 18385
" />
<path d="M52244 23799
L57106 23799
" />
<path d="M52244 18385
L52244 23799
" />
<path d="M52244 25078
L52244 29488
" />
<path d="M52244 29488
L57106 29488
" />
<path d="M57106 29488
L57106 25078
" />
<path d="M57106 25078
L52244 25078
" />
<path d="M48145 25492
L43421 25492
" />
<path d="M48145 29035
L48145 25492
" />
<path d="M43421 29035
L48145 29035
" />
<path d="M43421 25492
L43421 29035
" />
<path d="M23582 32114
L29448 32114
" />
<path d="M23582 29692
L23582 32114
" />
<path d="M29448 29692
L23582 29692
" />
<path d="M29448 32114
L29448 29692
" />
<path d="M35692 16653
L38114 16653
" />
<path d="M38114 16653
L38114 11791
" />
<path d="M38114 11791
L35692 11791
" />
<path d="M35692 11791
L35692 16653
" />
</g>
<g style="fill:#000000; fill-opacity:0.0; 
stroke:#000000; stroke-width:19.685; stroke-opacity:1; 
stroke-linecap:round; stroke-linejoin:round;">
</g>
<g style="fill:#848484; fill-opacity:0.0; 
stroke:#848484; stroke-width:19.685; stroke-opacity:1; 
stroke-linecap:round; stroke-linejoin:round;">
</g>
<g style="fill:#848484; fill-opacity:0.0; 
stroke:#848484; stroke-width:39.3701; stroke-opacity:1; 
stroke-linecap:round; stroke-linejoin:round;">
<path d="M31303 11763
L31553 12013
" />
<path d="M23553 11763
L31303 11763
" />
<path d="M23553 12763
L23553 11763
" />
<path d="M31553 12763
L23553 12763
" />
<path d="M31553 12013
L31553 12763
" />
<path d="M31564 17763
L23814 17763
" />
<path d="M23564 16763
L31564 16763
" />
<path d="M23564 17513
L23564 16763
" />
<path d="M23814 17763
L23564 17513
" />
<path d="M31564 16763
L31564 17763
" />
<path d="M31303 27905
L31553 28155
" />
<path d="M23553 27905
L31303 27905
" />
<path d="M23553 28905
L23553 27905
" />
<path d="M31553 28905
L23553 28905
" />
<path d="M31553 28155
L31553 28905
" />
<path d="M31564 33905
L23814 33905
" />
<path d="M23564 32905
L31564 32905
" />
<path d="M23564 33655
L23564 32905
" />
<path d="M23814 33905
L23564 33655
" />
<path d="M31564 32905
L31564 33905
" />
<path d="M31303 19834
L31553 20084
" />
<path d="M23553 19834
L31303 19834
" />
<path d="M23553 20834
L23553 19834
" />
<path d="M31553 20834
L23553 20834
" />
<path d="M31553 20084
L31553 20834
" />
<path d="M31564 25834
L23814 25834
" />
<path d="M23564 24834
L31564 24834
" />
<path d="M23564 25584
L23564 24834
" />
<path d="M23814 25834
L23564 25584
" />
<path d="M31564 24834
L31564 25834
" />
<path d="M52255 15104
L52255 14354
" />
<path d="M52255 14354
L54255 14354
" />
<path d="M54255 14354
L54255 15354
" />
<path d="M54255 15354
L52505 15354
" />
<path d="M52505 15354
L52255 15104
" />
<path d="M52629 16070
L52629 15354
" />
<path d="M52629 16070
L52881 16070
" />
<path d="M52881 16070
L52881 15354
" />
<path d="M52629 14354
L52629 11992
" />
<path d="M52629 11992
L52881 11992
" />
<path d="M52881 14354
L52881 11992
" />
<path d="M53629 16070
L53629 15354
" />
<path d="M53629 16070
L53881 16070
" />
<path d="M53881 16070
L53881 15354
" />
<path d="M53629 14354
L53629 11992
" />
<path d="M53629 11992
L53881 11992
" />
<path d="M53881 14354
L53881 11992
" />
<path d="M51322 14354
L51322 11992
" />
<path d="M51070 11992
L51322 11992
" />
<path d="M51070 14354
L51070 11992
" />
<path d="M51322 16070
L51322 15354
" />
<path d="M51070 16070
L51322 16070
" />
<path d="M51070 16070
L51070 15354
" />
<path d="M50322 14354
L50322 11992
" />
<path d="M50070 11992
L50322 11992
" />
<path d="M50070 14354
L50070 11992
" />
<path d="M50322 16070
L50322 15354
" />
<path d="M50070 16070
L50322 16070
" />
<path d="M50070 16070
L50070 15354
" />
<path d="M49946 15354
L49696 15104
" />
<path d="M51696 15354
L49946 15354
" />
<path d="M51696 14354
L51696 15354
" />
<path d="M49696 14354
L51696 14354
" />
<path d="M49696 15104
L49696 14354
" />
<path d="M48748 14354
L48748 11992
" />
<path d="M48496 11992
L48748 11992
" />
<path d="M48496 14354
L48496 11992
" />
<path d="M48748 16070
L48748 15354
" />
<path d="M48496 16070
L48748 16070
" />
<path d="M48496 16070
L48496 15354
" />
<path d="M47748 14354
L47748 11992
" />
<path d="M47496 11992
L47748 11992
" />
<path d="M47496 14354
L47496 11992
" />
<path d="M47748 16070
L47748 15354
" />
<path d="M47496 16070
L47748 16070
" />
<path d="M47496 16070
L47496 15354
" />
<path d="M47372 15354
L47122 15104
" />
<path d="M49122 15354
L47372 15354
" />
<path d="M49122 14354
L49122 15354
" />
<path d="M47122 14354
L49122 14354
" />
<path d="M47122 15104
L47122 14354
" />
<path d="M44578 15104
L44578 14354
" />
<path d="M44578 14354
L46578 14354
" />
<path d="M46578 14354
L46578 15354
" />
<path d="M46578 15354
L44828 15354
" />
<path d="M44828 15354
L44578 15104
" />
<path d="M44952 16070
L44952 15354
" />
<path d="M44952 16070
L45204 16070
" />
<path d="M45204 16070
L45204 15354
" />
<path d="M44952 14354
L44952 11992
" />
<path d="M44952 11992
L45204 11992
" />
<path d="M45204 14354
L45204 11992
" />
<path d="M45952 16070
L45952 15354
" />
<path d="M45952 16070
L46204 16070
" />
<path d="M46204 16070
L46204 15354
" />
<path d="M45952 14354
L45952 11992
" />
<path d="M45952 11992
L46204 11992
" />
<path d="M46204 14354
L46204 11992
" />
<path d="M43645 14354
L43645 11992
" />
<path d="M43393 11992
L43645 11992
" />
<path d="M43393 14354
L43393 11992
" />
<path d="M43645 16070
L43645 15354
" />
<path d="M43393 16070
L43645 16070
" />
<path d="M43393 16070
L43393 15354
" />
<path d="M42645 14354
L42645 11992
" />
<path d="M42393 11992
L42645 11992
" />
<path d="M42393 14354
L42393 11992
" />
<path d="M42645 16070
L42645 15354
" />
<path d="M42393 16070
L42645 16070
" />
<path d="M42393 16070
L42393 15354
" />
<path d="M42269 15354
L42019 15104
" />
<path d="M44019 15354
L42269 15354
" />
<path d="M44019 14354
L44019 15354
" />
<path d="M42019 14354
L44019 14354
" />
<path d="M42019 15104
L42019 14354
" />
<path d="M26899 15763
L26149 15763
" />
<path d="M26149 15763
L26149 13763
" />
<path d="M26149 13763
L27149 13763
" />
<path d="M27149 13763
L27149 15513
" />
<path d="M27149 15513
L26899 15763
" />
<path d="M28866 15389
L27149 15389
" />
<path d="M28866 15389
L28866 15137
" />
<path d="M28866 15137
L27149 15137
" />
<path d="M26149 15389
L23787 15389
" />
<path d="M23787 15389
L23787 15137
" />
<path d="M26149 15137
L23787 15137
" />
<path d="M28866 14389
L27149 14389
" />
<path d="M28866 14389
L28866 14137
" />
<path d="M28866 14137
L27149 14137
" />
<path d="M26149 14389
L23787 14389
" />
<path d="M23787 14389
L23787 14137
" />
<path d="M26149 14137
L23787 14137
" />
<path d="M26149 22208
L23787 22208
" />
<path d="M23787 22460
L23787 22208
" />
<path d="M26149 22460
L23787 22460
" />
<path d="M28866 22208
L27149 22208
" />
<path d="M28866 22460
L28866 22208
" />
<path d="M28866 22460
L27149 22460
" />
<path d="M26149 23208
L23787 23208
" />
<path d="M23787 23460
L23787 23208
" />
<path d="M26149 23460
L23787 23460
" />
<path d="M28866 23208
L27149 23208
" />
<path d="M28866 23460
L28866 23208
" />
<path d="M28866 23460
L27149 23460
" />
<path d="M27149 23584
L26899 23834
" />
<path d="M27149 21834
L27149 23584
" />
<path d="M26149 21834
L27149 21834
" />
<path d="M26149 23834
L26149 21834
" />
<path d="M26899 23834
L26149 23834
" />
<path d="M38460 15104
L38460 14354
" />
<path d="M38460 14354
L40460 14354
" />
<path d="M40460 14354
L40460 15354
" />
<path d="M40460 15354
L38710 15354
" />
<path d="M38710 15354
L38460 15104
" />
<path d="M38834 16070
L38834 15354
" />
<path d="M38834 16070
L39086 16070
" />
<path d="M39086 16070
L39086 15354
" />
<path d="M38834 14354
L38834 11992
" />
<path d="M38834 11992
L39086 11992
" />
<path d="M39086 14354
L39086 11992
" />
<path d="M39834 16070
L39834 15354
" />
<path d="M39834 16070
L40086 16070
" />
<path d="M40086 16070
L40086 15354
" />
<path d="M39834 14354
L39834 11992
" />
<path d="M39834 11992
L40086 11992
" />
<path d="M40086 14354
L40086 11992
" />
<path d="M53750 30157
L53750 29685
" />
<path d="M53750 29685
L54537 29685
" />
<path d="M54537 29685
L54537 30157
" />
<path d="M54537 30157
L53750 30157
" />
<path d="M54543 23220
L56905 23220
" />
<path d="M56905 22968
L56905 23220
" />
<path d="M54543 22968
L56905 22968
" />
<path d="M52826 23220
L53543 23220
" />
<path d="M52826 22968
L52826 23220
" />
<path d="M52826 22968
L53543 22968
" />
<path d="M54543 22220
L56905 22220
" />
<path d="M56905 21968
L56905 22220
" />
<path d="M54543 21968
L56905 21968
" />
<path d="M52826 22220
L53543 22220
" />
<path d="M52826 21968
L52826 22220
" />
<path d="M52826 21968
L53543 21968
" />
<path d="M54543 21220
L56905 21220
" />
<path d="M56905 20968
L56905 21220
" />
<path d="M54543 20968
L56905 20968
" />
<path d="M52826 21220
L53543 21220
" />
<path d="M52826 20968
L52826 21220
" />
<path d="M52826 20968
L53543 20968
" />
<path d="M54543 20220
L56905 20220
" />
<path d="M56905 19968
L56905 20220
" />
<path d="M54543 19968
L56905 19968
" />
<path d="M52826 20220
L53543 20220
" />
<path d="M52826 19968
L52826 20220
" />
<path d="M52826 19968
L53543 19968
" />
<path d="M54543 19220
L56905 19220
" />
<path d="M56905 18968
L56905 19220
" />
<path d="M54543 18968
L56905 18968
" />
<path d="M52826 19220
L53543 19220
" />
<path d="M52826 18968
L52826 19220
" />
<path d="M52826 18968
L53543 18968
" />
<path d="M53543 18844
L53793 18594
" />
<path d="M53543 23594
L53543 18844
" />
<path d="M54543 23594
L53543 23594
" />
<path d="M54543 18594
L54543 23594
" />
<path d="M53793 18594
L54543 18594
" />
<path d="M53793 25287
L54543 25287
" />
<path d="M54543 25287
L54543 29287
" />
<path d="M54543 29287
L53543 29287
" />
<path d="M53543 29287
L53543 25537
" />
<path d="M53543 25537
L53793 25287
" />
<path d="M52826 25661
L53543 25661
" />
<path d="M52826 25661
L52826 25913
" />
<path d="M52826 25913
L53543 25913
" />
<path d="M54543 25661
L56905 25661
" />
<path d="M56905 25661
L56905 25913
" />
<path d="M54543 25913
L56905 25913
" />
<path d="M52826 26661
L53543 26661
" />
<path d="M52826 26661
L52826 26913
" />
<path d="M52826 26913
L53543 26913
" />
<path d="M54543 26661
L56905 26661
" />
<path d="M56905 26661
L56905 26913
" />
<path d="M54543 26913
L56905 26913
" />
<path d="M52826 27661
L53543 27661
" />
<path d="M52826 27661
L52826 27913
" />
<path d="M52826 27913
L53543 27913
" />
<path d="M54543 27661
L56905 27661
" />
<path d="M56905 27661
L56905 27913
" />
<path d="M54543 27913
L56905 27913
" />
<path d="M52826 28661
L53543 28661
" />
<path d="M52826 28661
L52826 28913
" />
<path d="M52826 28913
L53543 28913
" />
<path d="M54543 28661
L56905 28661
" />
<path d="M56905 28661
L56905 28913
" />
<path d="M54543 28913
L56905 28913
" />
<path d="M43519 25984
L43913 25590
" />
<path d="M43519 28937
L43519 25984
" />
<path d="M48047 28937
L43519 28937
" />
<path d="M48047 25590
L48047 28937
" />
<path d="M43913 25590
L48047 25590
" />
<path d="M26149 30279
L23787 30279
" />
<path d="M23787 30531
L23787 30279
" />
<path d="M26149 30531
L23787 30531
" />
<path d="M28866 30279
L27149 30279
" />
<path d="M28866 30531
L28866 30279
" />
<path d="M28866 30531
L27149 30531
" />
<path d="M26149 31279
L23787 31279
" />
<path d="M23787 31531
L23787 31279
" />
<path d="M26149 31531
L23787 31531
" />
<path d="M28866 31279
L27149 31279
" />
<path d="M28866 31531
L28866 31279
" />
<path d="M28866 31531
L27149 31531
" />
<path d="M27149 31655
L26899 31905
" />
<path d="M27149 29905
L27149 31655
" />
<path d="M26149 29905
L27149 29905
" />
<path d="M26149 31905
L26149 29905
" />
<path d="M26899 31905
L26149 31905
" />
<path d="M35901 15104
L35901 14354
" />
<path d="M35901 14354
L37901 14354
" />
<path d="M37901 14354
L37901 15354
" />
<path d="M37901 15354
L36151 15354
" />
<path d="M36151 15354
L35901 15104
" />
<path d="M36275 16070
L36275 15354
" />
<path d="M36275 16070
L36527 16070
" />
<path d="M36527 16070
L36527 15354
" />
<path d="M36275 14354
L36275 11992
" />
<path d="M36275 11992
L36527 11992
" />
<path d="M36527 14354
L36527 11992
" />
<path d="M37275 16070
L37275 15354
" />
<path d="M37275 16070
L37527 16070
" />
<path d="M37527 16070
L37527 15354
" />
<path d="M37275 14354
L37275 11992
" />
<path d="M37275 11992
L37527 11992
" />
<path d="M37527 14354
L37527 11992
" />
</g>
<g style="fill:#848484; fill-opacity:0.0; 
stroke:#848484; stroke-width:59.0551; stroke-opacity:1; 
stroke-linecap:round; stroke-linejoin:round;">
<path d="M45088 20059
L44863 20059
" />
<path d="M44975 20059
L44975 19666
L44938 19722
L44900 19760
L44863 19778
" />
<path d="M45238 19703
L45256 19685
L45294 19666
L45388 19666
L45425 19685
L45444 19703
L45463 19741
L45463 19778
L45444 19835
L45219 20059
L45463 20059
" />
<path d="M45575 19666
L45706 20059
L45838 19666
" />
<path d="M45969 20059
L45969 19666
L46062 19666
L46119 19685
L46156 19722
L46175 19760
L46194 19835
L46194 19891
L46175 19966
L46156 20003
L46119 20041
L46062 20059
L45969 20059
" />
<path d="M46587 20022
L46569 20041
L46512 20059
L46475 20059
L46419 20041
L46381 20003
L46362 19966
L46344 19891
L46344 19835
L46362 19760
L46381 19722
L46419 19685
L46475 19666
L46512 19666
L46569 19685
L46587 19703
" />
<path d="M47037 20041
L47094 20059
L47187 20059
L47225 20041
L47244 20022
L47262 19985
L47262 19947
L47244 19910
L47225 19891
L47187 19872
L47112 19853
L47075 19835
L47056 19816
L47037 19778
L47037 19741
L47056 19703
L47075 19685
L47112 19666
L47206 19666
L47262 19685
" />
<path d="M47600 19797
L47600 20059
" />
<path d="M47431 19797
L47431 20003
L47450 20041
L47487 20059
L47544 20059
L47581 20041
L47600 20022
" />
<path d="M47787 19797
L47787 20191
" />
<path d="M47787 19816
L47825 19797
L47900 19797
L47937 19816
L47956 19835
L47975 19872
L47975 19985
L47956 20022
L47937 20041
L47900 20059
L47825 20059
L47787 20041
" />
<path d="M48143 19797
L48143 20191
" />
<path d="M48143 19816
L48181 19797
L48256 19797
L48293 19816
L48312 19835
L48331 19872
L48331 19985
L48312 20022
L48293 20041
L48256 20059
L48181 20059
L48143 20041
" />
<path d="M48556 20059
L48518 20041
L48500 20003
L48500 19666
" />
<path d="M48668 19797
L48762 20059
" />
<path d="M48856 19797
L48762 20059
L48725 20153
L48706 20172
L48668 20191
" />
<path d="M32030 17388
L32217 17388
" />
<path d="M31992 17500
L32124 17107
L32255 17500
" />
<path d="M32555 17238
L32555 17500
" />
<path d="M32461 17088
L32367 17369
L32611 17369
" />
<path d="M32780 17500
L32855 17500
L32892 17482
L32911 17463
L32949 17407
L32967 17332
L32967 17182
L32949 17144
L32930 17125
L32892 17107
L32817 17107
L32780 17125
L32761 17144
L32742 17182
L32742 17275
L32761 17313
L32780 17332
L32817 17350
L32892 17350
L32930 17332
L32949 17313
L32967 17275
" />
<path d="M33192 17275
L33155 17257
L33136 17238
L33117 17200
L33117 17182
L33136 17144
L33155 17125
L33192 17107
L33267 17107
L33305 17125
L33323 17144
L33342 17182
L33342 17200
L33323 17238
L33305 17257
L33267 17275
L33192 17275
L33155 17294
L33136 17313
L33117 17350
L33117 17425
L33136 17463
L33155 17482
L33192 17500
L33267 17500
L33305 17482
L33323 17463
L33342 17425
L33342 17350
L33323 17313
L33305 17294
L33267 17275
" />
<path d="M33567 17275
L33530 17257
L33511 17238
L33492 17200
L33492 17182
L33511 17144
L33530 17125
L33567 17107
L33642 17107
L33680 17125
L33698 17144
L33717 17182
L33717 17200
L33698 17238
L33680 17257
L33642 17275
L33567 17275
L33530 17294
L33511 17313
L33492 17350
L33492 17425
L33511 17463
L33530 17482
L33567 17500
L33642 17500
L33680 17482
L33698 17463
L33717 17425
L33717 17350
L33698 17313
L33680 17294
L33642 17275
" />
<path d="M32030 33431
L32217 33431
" />
<path d="M31992 33544
L32124 33150
L32255 33544
" />
<path d="M32555 33281
L32555 33544
" />
<path d="M32461 33131
L32367 33413
L32611 33413
" />
<path d="M32780 33544
L32855 33544
L32892 33525
L32911 33506
L32949 33450
L32967 33375
L32967 33225
L32949 33188
L32930 33169
L32892 33150
L32817 33150
L32780 33169
L32761 33188
L32742 33225
L32742 33319
L32761 33356
L32780 33375
L32817 33394
L32892 33394
L32930 33375
L32949 33356
L32967 33319
" />
<path d="M33192 33319
L33155 33300
L33136 33281
L33117 33244
L33117 33225
L33136 33188
L33155 33169
L33192 33150
L33267 33150
L33305 33169
L33323 33188
L33342 33225
L33342 33244
L33323 33281
L33305 33300
L33267 33319
L33192 33319
L33155 33338
L33136 33356
L33117 33394
L33117 33469
L33136 33506
L33155 33525
L33192 33544
L33267 33544
L33305 33525
L33323 33506
L33342 33469
L33342 33394
L33323 33356
L33305 33338
L33267 33319
" />
<path d="M33567 33319
L33530 33300
L33511 33281
L33492 33244
L33492 33225
L33511 33188
L33530 33169
L33567 33150
L33642 33150
L33680 33169
L33698 33188
L33717 33225
L33717 33244
L33698 33281
L33680 33300
L33642 33319
L33567 33319
L33530 33338
L33511 33356
L33492 33394
L33492 33469
L33511 33506
L33530 33525
L33567 33544
L33642 33544
L33680 33525
L33698 33506
L33717 33469
L33717 33394
L33698 33356
L33680 33338
L33642 33319
" />
<path d="M32030 25459
L32217 25459
" />
<path d="M31992 25571
L32124 25178
L32255 25571
" />
<path d="M32555 25309
L32555 25571
" />
<path d="M32461 25159
L32367 25440
L32611 25440
" />
<path d="M32780 25571
L32855 25571
L32892 25553
L32911 25534
L32949 25478
L32967 25403
L32967 25253
L32949 25215
L32930 25196
L32892 25178
L32817 25178
L32780 25196
L32761 25215
L32742 25253
L32742 25346
L32761 25384
L32780 25403
L32817 25421
L32892 25421
L32930 25403
L32949 25384
L32967 25346
" />
<path d="M33192 25346
L33155 25328
L33136 25309
L33117 25271
L33117 25253
L33136 25215
L33155 25196
L33192 25178
L33267 25178
L33305 25196
L33323 25215
L33342 25253
L33342 25271
L33323 25309
L33305 25328
L33267 25346
L33192 25346
L33155 25365
L33136 25384
L33117 25421
L33117 25496
L33136 25534
L33155 25553
L33192 25571
L33267 25571
L33305 25553
L33323 25534
L33342 25496
L33342 25421
L33323 25384
L33305 25365
L33267 25346
" />
<path d="M33567 25346
L33530 25328
L33511 25309
L33492 25271
L33492 25253
L33511 25215
L33530 25196
L33567 25178
L33642 25178
L33680 25196
L33698 25215
L33717 25253
L33717 25271
L33698 25309
L33680 25328
L33642 25346
L33567 25346
L33530 25365
L33511 25384
L33492 25421
L33492 25496
L33511 25534
L33530 25553
L33567 25571
L33642 25571
L33680 25553
L33698 25534
L33717 25496
L33717 25421
L33698 25384
L33680 25365
L33642 25346
" />
<path d="M55160 15743
L55179 15762
L55197 15818
L55197 15855
L55179 15912
L55141 15949
L55104 15968
L55029 15987
L54972 15987
L54897 15968
L54860 15949
L54822 15912
L54804 15855
L54804 15818
L54822 15762
L54841 15743
" />
<path d="M55197 15518
L55179 15555
L55160 15574
L55122 15593
L55010 15593
L54972 15574
L54954 15555
L54935 15518
L54935 15462
L54954 15424
L54972 15405
L55010 15387
L55122 15387
L55160 15405
L55179 15424
L55197 15462
L55197 15518
" />
<path d="M54935 15218
L55197 15218
" />
<path d="M54972 15218
L54954 15199
L54935 15162
L54935 15105
L54954 15068
L54991 15049
L55197 15049
" />
<path d="M54935 14862
L55197 14862
" />
<path d="M54972 14862
L54954 14843
L54935 14805
L54935 14749
L54954 14712
L54991 14693
L55197 14693
" />
<path d="M55235 14599
L55235 14299
" />
<path d="M54804 14131
L54804 14093
L54822 14056
L54841 14037
L54879 14018
L54954 13999
L55047 13999
L55122 14018
L55160 14037
L55179 14056
L55197 14093
L55197 14131
L55179 14168
L55160 14187
L55122 14206
L55047 14224
L54954 14224
L54879 14206
L54841 14187
L54822 14168
L54804 14131
" />
<path d="M55197 13624
L55197 13849
" />
<path d="M55197 13737
L54804 13737
L54860 13774
L54897 13812
L54916 13849
" />
<path d="M55197 13493
L54935 13287
" />
<path d="M54935 13493
L55197 13287
" />
<path d="M54804 13062
L54804 13024
L54822 12987
L54841 12968
L54879 12949
L54954 12931
L55047 12931
L55122 12949
L55160 12968
L55179 12987
L55197 13024
L55197 13062
L55179 13099
L55160 13118
L55122 13137
L55047 13156
L54954 13156
L54879 13137
L54841 13118
L54822 13099
L54804 13062
" />
<path d="M54841 12781
L54822 12762
L54804 12724
L54804 12631
L54822 12593
L54841 12574
L54879 12556
L54916 12556
L54972 12574
L55197 12799
L55197 12556
" />
<path d="M24057 13428
L24039 13446
L23982 13465
L23945 13465
L23889 13446
L23851 13409
L23832 13371
L23814 13296
L23814 13240
L23832 13165
L23851 13128
L23889 13090
L23945 13071
L23982 13071
L24039 13090
L24057 13109
" />
<path d="M24282 13465
L24245 13446
L24226 13428
L24207 13390
L24207 13278
L24226 13240
L24245 13221
L24282 13203
L24339 13203
L24376 13221
L24395 13240
L24414 13278
L24414 13390
L24395 13428
L24376 13446
L24339 13465
L24282 13465
" />
<path d="M24582 13203
L24582 13465
" />
<path d="M24582 13240
L24601 13221
L24639 13203
L24695 13203
L24732 13221
L24751 13259
L24751 13465
" />
<path d="M24939 13203
L24939 13465
" />
<path d="M24939 13240
L24957 13221
L24995 13203
L25051 13203
L25089 13221
L25107 13259
L25107 13465
" />
<path d="M25201 13502
L25501 13502
" />
<path d="M25670 13071
L25707 13071
L25745 13090
L25763 13109
L25782 13146
L25801 13221
L25801 13315
L25782 13390
L25763 13428
L25745 13446
L25707 13465
L25670 13465
L25632 13446
L25613 13428
L25595 13390
L25576 13315
L25576 13221
L25595 13146
L25613 13109
L25632 13090
L25670 13071
" />
<path d="M25951 13109
L25970 13090
L26007 13071
L26101 13071
L26138 13090
L26157 13109
L26176 13146
L26176 13184
L26157 13240
L25932 13465
L26176 13465
" />
<path d="M26307 13465
L26513 13203
" />
<path d="M26307 13203
L26513 13465
" />
<path d="M26738 13071
L26776 13071
L26813 13090
L26832 13109
L26851 13146
L26870 13221
L26870 13315
L26851 13390
L26832 13428
L26813 13446
L26776 13465
L26738 13465
L26701 13446
L26682 13428
L26663 13390
L26645 13315
L26645 13221
L26663 13146
L26682 13109
L26701 13090
L26738 13071
" />
<path d="M27020 13109
L27038 13090
L27076 13071
L27170 13071
L27207 13090
L27226 13109
L27245 13146
L27245 13184
L27226 13240
L27001 13465
L27245 13465
" />
<path d="M27320 13502
L27619 13502
" />
<path d="M27788 13071
L27863 13071
L27901 13090
L27938 13128
L27957 13203
L27957 13334
L27938 13409
L27901 13446
L27863 13465
L27788 13465
L27751 13446
L27713 13409
L27694 13334
L27694 13203
L27713 13128
L27751 13090
L27788 13071
" />
<path d="M28294 13465
L28294 13071
" />
<path d="M28294 13446
L28257 13465
L28182 13465
L28144 13446
L28126 13428
L28107 13390
L28107 13278
L28126 13240
L28144 13221
L28182 13203
L28257 13203
L28294 13221
" />
<path d="M28651 13465
L28651 13071
" />
<path d="M28651 13446
L28613 13465
L28538 13465
L28501 13446
L28482 13428
L28463 13390
L28463 13278
L28482 13240
L28501 13221
L28538 13203
L28613 13203
L28651 13221
" />
<path d="M28744 13502
L29044 13502
" />
<path d="M29138 13259
L29269 13259
" />
<path d="M29326 13465
L29138 13465
L29138 13071
L29326 13071
" />
<path d="M29457 13203
L29550 13465
L29644 13203
" />
<path d="M29944 13446
L29907 13465
L29832 13465
L29794 13446
L29775 13409
L29775 13259
L29794 13221
L29832 13203
L29907 13203
L29944 13221
L29963 13259
L29963 13296
L29775 13334
" />
<path d="M30132 13203
L30132 13465
" />
<path d="M30132 13240
L30150 13221
L30188 13203
L30244 13203
L30282 13221
L30300 13259
L30300 13465
" />
<path d="M24057 21498
L24039 21517
L23982 21536
L23945 21536
L23889 21517
L23851 21480
L23832 21442
L23814 21367
L23814 21311
L23832 21236
L23851 21198
L23889 21161
L23945 21142
L23982 21142
L24039 21161
L24057 21180
" />
<path d="M24282 21536
L24245 21517
L24226 21498
L24207 21461
L24207 21348
L24226 21311
L24245 21292
L24282 21273
L24339 21273
L24376 21292
L24395 21311
L24414 21348
L24414 21461
L24395 21498
L24376 21517
L24339 21536
L24282 21536
" />
<path d="M24582 21273
L24582 21536
" />
<path d="M24582 21311
L24601 21292
L24639 21273
L24695 21273
L24732 21292
L24751 21330
L24751 21536
" />
<path d="M24939 21273
L24939 21536
" />
<path d="M24939 21311
L24957 21292
L24995 21273
L25051 21273
L25089 21292
L25107 21330
L25107 21536
" />
<path d="M25201 21573
L25501 21573
" />
<path d="M25670 21142
L25707 21142
L25745 21161
L25763 21180
L25782 21217
L25801 21292
L25801 21386
L25782 21461
L25763 21498
L25745 21517
L25707 21536
L25670 21536
L25632 21517
L25613 21498
L25595 21461
L25576 21386
L25576 21292
L25595 21217
L25613 21180
L25632 21161
L25670 21142
" />
<path d="M25951 21180
L25970 21161
L26007 21142
L26101 21142
L26138 21161
L26157 21180
L26176 21217
L26176 21255
L26157 21311
L25932 21536
L26176 21536
" />
<path d="M26307 21536
L26513 21273
" />
<path d="M26307 21273
L26513 21536
" />
<path d="M26738 21142
L26776 21142
L26813 21161
L26832 21180
L26851 21217
L26870 21292
L26870 21386
L26851 21461
L26832 21498
L26813 21517
L26776 21536
L26738 21536
L26701 21517
L26682 21498
L26663 21461
L26645 21386
L26645 21292
L26663 21217
L26682 21180
L26701 21161
L26738 21142
" />
<path d="M27020 21180
L27038 21161
L27076 21142
L27170 21142
L27207 21161
L27226 21180
L27245 21217
L27245 21255
L27226 21311
L27001 21536
L27245 21536
" />
<path d="M27320 21573
L27619 21573
" />
<path d="M27788 21142
L27863 21142
L27901 21161
L27938 21198
L27957 21273
L27957 21405
L27938 21480
L27901 21517
L27863 21536
L27788 21536
L27751 21517
L27713 21480
L27694 21405
L27694 21273
L27713 21198
L27751 21161
L27788 21142
" />
<path d="M28294 21536
L28294 21142
" />
<path d="M28294 21517
L28257 21536
L28182 21536
L28144 21517
L28126 21498
L28107 21461
L28107 21348
L28126 21311
L28144 21292
L28182 21273
L28257 21273
L28294 21292
" />
<path d="M28651 21536
L28651 21142
" />
<path d="M28651 21517
L28613 21536
L28538 21536
L28501 21517
L28482 21498
L28463 21461
L28463 21348
L28482 21311
L28501 21292
L28538 21273
L28613 21273
L28651 21292
" />
<path d="M28744 21573
L29044 21573
" />
<path d="M29138 21330
L29269 21330
" />
<path d="M29326 21536
L29138 21536
L29138 21142
L29326 21142
" />
<path d="M29457 21273
L29550 21536
L29644 21273
" />
<path d="M29944 21517
L29907 21536
L29832 21536
L29794 21517
L29775 21480
L29775 21330
L29794 21292
L29832 21273
L29907 21273
L29944 21292
L29963 21330
L29963 21367
L29775 21405
" />
<path d="M30132 21273
L30132 21536
" />
<path d="M30132 21311
L30150 21292
L30188 21273
L30244 21273
L30282 21292
L30300 21330
L30300 21536
" />
<path d="M53524 31477
L53299 31477
" />
<path d="M53412 31477
L53412 31083
L53374 31139
L53337 31177
L53299 31196
" />
<path d="M53768 31083
L53805 31083
L53843 31102
L53862 31121
L53880 31158
L53899 31233
L53899 31327
L53880 31402
L53862 31439
L53843 31458
L53805 31477
L53768 31477
L53730 31458
L53712 31439
L53693 31402
L53674 31327
L53674 31233
L53693 31158
L53712 31121
L53730 31102
L53768 31083
" />
<path d="M54143 31083
L54180 31083
L54218 31102
L54236 31121
L54255 31158
L54274 31233
L54274 31327
L54255 31402
L54236 31439
L54218 31458
L54180 31477
L54143 31477
L54105 31458
L54086 31439
L54068 31402
L54049 31327
L54049 31233
L54068 31158
L54086 31121
L54105 31102
L54143 31083
" />
<path d="M54443 31214
L54443 31477
" />
<path d="M54443 31252
L54461 31233
L54499 31214
L54555 31214
L54593 31233
L54611 31271
L54611 31477
" />
<path d="M54930 31271
L54799 31271
" />
<path d="M54799 31477
L54799 31083
L54986 31083
" />
<path d="M53252 18152
L53233 18171
L53177 18189
L53140 18189
L53083 18171
L53046 18133
L53027 18096
L53008 18021
L53008 17964
L53027 17889
L53046 17852
L53083 17814
L53140 17796
L53177 17796
L53233 17814
L53252 17833
" />
<path d="M53477 18189
L53440 18171
L53421 18152
L53402 18114
L53402 18002
L53421 17964
L53440 17946
L53477 17927
L53533 17927
L53571 17946
L53590 17964
L53608 18002
L53608 18114
L53590 18152
L53571 18171
L53533 18189
L53477 18189
" />
<path d="M53777 17927
L53777 18189
" />
<path d="M53777 17964
L53796 17946
L53833 17927
L53890 17927
L53927 17946
L53946 17983
L53946 18189
" />
<path d="M54133 17927
L54133 18189
" />
<path d="M54133 17964
L54152 17946
L54190 17927
L54246 17927
L54283 17946
L54302 17983
L54302 18189
" />
<path d="M54396 18227
L54696 18227
" />
<path d="M54865 17796
L54902 17796
L54940 17814
L54958 17833
L54977 17871
L54996 17946
L54996 18039
L54977 18114
L54958 18152
L54940 18171
L54902 18189
L54865 18189
L54827 18171
L54808 18152
L54790 18114
L54771 18039
L54771 17946
L54790 17871
L54808 17833
L54827 17814
L54865 17796
" />
<path d="M55371 18189
L55146 18189
" />
<path d="M55258 18189
L55258 17796
L55221 17852
L55183 17889
L55146 17908
" />
<path d="M55502 18189
L55708 17927
" />
<path d="M55502 17927
L55708 18189
" />
<path d="M55933 17796
L55971 17796
L56008 17814
L56027 17833
L56046 17871
L56064 17946
L56064 18039
L56046 18114
L56027 18152
L56008 18171
L55971 18189
L55933 18189
L55896 18171
L55877 18152
L55858 18114
L55839 18039
L55839 17946
L55858 17871
L55877 17833
L55896 17814
L55933 17796
" />
<path d="M56421 17796
L56233 17796
L56214 17983
L56233 17964
L56271 17946
L56364 17946
L56402 17964
L56421 17983
L56439 18021
L56439 18114
L56421 18152
L56402 18171
L56364 18189
L56271 18189
L56233 18171
L56214 18152
" />
<path d="M53252 24845
L53233 24864
L53177 24882
L53140 24882
L53083 24864
L53046 24826
L53027 24789
L53008 24714
L53008 24657
L53027 24582
L53046 24545
L53083 24507
L53140 24489
L53177 24489
L53233 24507
L53252 24526
" />
<path d="M53477 24882
L53440 24864
L53421 24845
L53402 24807
L53402 24695
L53421 24657
L53440 24639
L53477 24620
L53533 24620
L53571 24639
L53590 24657
L53608 24695
L53608 24807
L53590 24845
L53571 24864
L53533 24882
L53477 24882
" />
<path d="M53777 24620
L53777 24882
" />
<path d="M53777 24657
L53796 24639
L53833 24620
L53890 24620
L53927 24639
L53946 24676
L53946 24882
" />
<path d="M54133 24620
L54133 24882
" />
<path d="M54133 24657
L54152 24639
L54190 24620
L54246 24620
L54283 24639
L54302 24676
L54302 24882
" />
<path d="M54396 24920
L54696 24920
" />
<path d="M54865 24489
L54902 24489
L54940 24507
L54958 24526
L54977 24564
L54996 24639
L54996 24732
L54977 24807
L54958 24845
L54940 24864
L54902 24882
L54865 24882
L54827 24864
L54808 24845
L54790 24807
L54771 24732
L54771 24639
L54790 24564
L54808 24526
L54827 24507
L54865 24489
" />
<path d="M55371 24882
L55146 24882
" />
<path d="M55258 24882
L55258 24489
L55221 24545
L55183 24582
L55146 24601
" />
<path d="M55502 24882
L55708 24620
" />
<path d="M55502 24620
L55708 24882
" />
<path d="M55933 24489
L55971 24489
L56008 24507
L56027 24526
L56046 24564
L56064 24639
L56064 24732
L56046 24807
L56027 24845
L56008 24864
L55971 24882
L55933 24882
L55896 24864
L55877 24845
L55858 24807
L55839 24732
L55839 24639
L55858 24564
L55877 24526
L55896 24507
L55933 24489
" />
<path d="M56402 24620
L56402 24882
" />
<path d="M56308 24470
L56214 24751
L56458 24751
" />
<path d="M41235 24981
L41479 24981
L41347 25131
L41404 25131
L41441 25149
L41460 25168
L41479 25206
L41479 25299
L41460 25337
L41441 25356
L41404 25374
L41291 25374
L41254 25356
L41235 25337
" />
<path d="M41629 25262
L41816 25262
" />
<path d="M41591 25374
L41722 24981
L41854 25374
" />
<path d="M43892 29607
L43761 29419
" />
<path d="M43667 29607
L43667 29213
L43817 29213
L43855 29232
L43874 29251
L43892 29288
L43892 29344
L43874 29382
L43855 29401
L43817 29419
L43667 29419
" />
<path d="M44061 29457
L44361 29457
" />
<path d="M44511 29213
L44774 29213
L44605 29607
" />
<path d="M44980 29382
L44942 29363
L44924 29344
L44905 29307
L44905 29288
L44924 29251
L44942 29232
L44980 29213
L45055 29213
L45092 29232
L45111 29251
L45130 29288
L45130 29307
L45111 29344
L45092 29363
L45055 29382
L44980 29382
L44942 29401
L44924 29419
L44905 29457
L44905 29532
L44924 29569
L44942 29588
L44980 29607
L45055 29607
L45092 29588
L45111 29569
L45130 29532
L45130 29457
L45111 29419
L45092 29401
L45055 29382
" />
<path d="M45430 29401
L45486 29419
L45505 29438
L45523 29476
L45523 29532
L45505 29569
L45486 29588
L45449 29607
L45299 29607
L45299 29213
L45430 29213
L45467 29232
L45486 29251
L45505 29288
L45505 29326
L45486 29363
L45467 29382
L45430 29401
L45299 29401
" />
<path d="M45880 29213
L45692 29213
L45673 29401
L45692 29382
L45730 29363
L45823 29363
L45861 29382
L45880 29401
L45898 29438
L45898 29532
L45880 29569
L45861 29588
L45823 29607
L45730 29607
L45692 29588
L45673 29569
" />
<path d="M46067 29569
L46086 29588
L46067 29607
L46048 29588
L46067 29569
L46067 29607
" />
<path d="M46330 29213
L46367 29213
L46405 29232
L46423 29251
L46442 29288
L46461 29363
L46461 29457
L46442 29532
L46423 29569
L46405 29588
L46367 29607
L46330 29607
L46292 29588
L46273 29569
L46255 29532
L46236 29457
L46236 29363
L46255 29288
L46273 29251
L46292 29232
L46330 29213
" />
<path d="M46630 29457
L46930 29457
" />
<path d="M47098 29251
L47117 29232
L47155 29213
L47248 29213
L47286 29232
L47305 29251
L47323 29288
L47323 29326
L47305 29382
L47080 29607
L47323 29607
" />
<path d="M47492 29569
L47511 29588
L47492 29607
L47473 29588
L47492 29569
L47492 29607
" />
<path d="M47754 29213
L47792 29213
L47829 29232
L47848 29251
L47867 29288
L47886 29363
L47886 29457
L47867 29532
L47848 29569
L47829 29588
L47792 29607
L47754 29607
L47717 29588
L47698 29569
L47679 29532
L47661 29457
L47661 29363
L47679 29288
L47698 29251
L47717 29232
L47754 29213
" />
<path d="M24057 29569
L24039 29588
L23982 29607
L23945 29607
L23889 29588
L23851 29550
L23832 29513
L23814 29438
L23814 29382
L23832 29307
L23851 29269
L23889 29232
L23945 29213
L23982 29213
L24039 29232
L24057 29251
" />
<path d="M24282 29607
L24245 29588
L24226 29569
L24207 29532
L24207 29419
L24226 29382
L24245 29363
L24282 29344
L24339 29344
L24376 29363
L24395 29382
L24414 29419
L24414 29532
L24395 29569
L24376 29588
L24339 29607
L24282 29607
" />
<path d="M24582 29344
L24582 29607
" />
<path d="M24582 29382
L24601 29363
L24639 29344
L24695 29344
L24732 29363
L24751 29401
L24751 29607
" />
<path d="M24939 29344
L24939 29607
" />
<path d="M24939 29382
L24957 29363
L24995 29344
L25051 29344
L25089 29363
L25107 29401
L25107 29607
" />
<path d="M25201 29644
L25501 29644
" />
<path d="M25670 29213
L25707 29213
L25745 29232
L25763 29251
L25782 29288
L25801 29363
L25801 29457
L25782 29532
L25763 29569
L25745 29588
L25707 29607
L25670 29607
L25632 29588
L25613 29569
L25595 29532
L25576 29457
L25576 29363
L25595 29288
L25613 29251
L25632 29232
L25670 29213
" />
<path d="M25951 29251
L25970 29232
L26007 29213
L26101 29213
L26138 29232
L26157 29251
L26176 29288
L26176 29326
L26157 29382
L25932 29607
L26176 29607
" />
<path d="M26307 29607
L26513 29344
" />
<path d="M26307 29344
L26513 29607
" />
<path d="M26738 29213
L26776 29213
L26813 29232
L26832 29251
L26851 29288
L26870 29363
L26870 29457
L26851 29532
L26832 29569
L26813 29588
L26776 29607
L26738 29607
L26701 29588
L26682 29569
L26663 29532
L26645 29457
L26645 29363
L26663 29288
L26682 29251
L26701 29232
L26738 29213
" />
<path d="M27020 29251
L27038 29232
L27076 29213
L27170 29213
L27207 29232
L27226 29251
L27245 29288
L27245 29326
L27226 29382
L27001 29607
L27245 29607
" />
<path d="M27320 29644
L27619 29644
" />
<path d="M27788 29213
L27863 29213
L27901 29232
L27938 29269
L27957 29344
L27957 29476
L27938 29550
L27901 29588
L27863 29607
L27788 29607
L27751 29588
L27713 29550
L27694 29476
L27694 29344
L27713 29269
L27751 29232
L27788 29213
" />
<path d="M28294 29607
L28294 29213
" />
<path d="M28294 29588
L28257 29607
L28182 29607
L28144 29588
L28126 29569
L28107 29532
L28107 29419
L28126 29382
L28144 29363
L28182 29344
L28257 29344
L28294 29363
" />
<path d="M28651 29607
L28651 29213
" />
<path d="M28651 29588
L28613 29607
L28538 29607
L28501 29588
L28482 29569
L28463 29532
L28463 29419
L28482 29382
L28501 29363
L28538 29344
L28613 29344
L28651 29363
" />
<path d="M28744 29644
L29044 29644
" />
<path d="M29138 29401
L29269 29401
" />
<path d="M29326 29607
L29138 29607
L29138 29213
L29326 29213
" />
<path d="M29457 29344
L29550 29607
L29644 29344
" />
<path d="M29944 29588
L29907 29607
L29832 29607
L29794 29588
L29775 29550
L29775 29401
L29794 29363
L29832 29344
L29907 29344
L29944 29363
L29963 29401
L29963 29438
L29775 29476
" />
<path d="M30132 29344
L30132 29607
" />
<path d="M30132 29382
L30150 29363
L30188 29344
L30244 29344
L30282 29363
L30300 29401
L30300 29607
" />
</g>
<g style="fill:#000000; fill-opacity:0.0; 
stroke:#000000; stroke-width:59.0551; stroke-opacity:1; 
stroke-linecap:round; stroke-linejoin:round;">
</g>
<g style="fill:#C2C200; fill-opacity:0.0; 
stroke:#C2C200; stroke-width:59.0551; stroke-opacity:1; 
stroke-linecap:round; stroke-linejoin:round;">
</g>
<g style="fill:#C2C200; fill-opacity:0.0; 
stroke:#C2C200; stroke-width:78.7402; stroke-opacity:1; 
stroke-linecap:round; stroke-linejoin:round;">
<path d="M57086 11811
L23622 11811
" />
<path d="M57086 33858
L57086 11811
" />
<path d="M23622 33858
L57086 33858
" />
<path d="M23622 11811
L23622 33858
" />
</g> 
</svg>
