<?xml version="1.0" encoding="UTF-8" standalone="no"?>
<svg
   xmlns:dc="http://purl.org/dc/elements/1.1/"
   xmlns:cc="http://creativecommons.org/ns#"
   xmlns:rdf="http://www.w3.org/1999/02/22-rdf-syntax-ns#"
   xmlns:svg="http://www.w3.org/2000/svg"
   xmlns="http://www.w3.org/2000/svg"
   viewBox="0 0 632.99597 593.51599"
   height="593.51599"
   width="632.99597"
   xml:space="preserve"
   id="svg2"
   version="1.1"><metadata
     id="metadata8"><rdf:RDF><cc:Work
         rdf:about=""><dc:format>image/svg+xml</dc:format><dc:type
           rdf:resource="http://purl.org/dc/dcmitype/StillImage" /></cc:Work></rdf:RDF></metadata><defs
     id="defs6" /><g
     transform="matrix(1.3333333,0,0,1.3333333,0,1.4171233e-5)"
     id="g10"><g
       id="g12"><g
         id="g14"><path
           id="path16"
           style="fill:none;stroke:#000000;stroke-width:0.98699999;stroke-linecap:butt;stroke-linejoin:miter;stroke-miterlimit:4;stroke-dasharray:none;stroke-opacity:1"
           d="m 240.688,30.102 h 52.593 c 1.836,0 3.313,1.48 3.313,3.316 v 42.723 c 0,1.836 -1.477,3.312 -3.313,3.312 h -52.593 c -1.836,0 -3.313,-1.476 -3.313,-3.312 V 33.418 c 0,-1.836 1.477,-3.316 3.313,-3.316 z" /></g><text
         id="text20"
         style="font-variant:normal;font-weight:normal;font-size:11.84399891px;font-family:Arimo;-inkscape-font-specification:Arimo;writing-mode:lr-tb;fill:#000000;fill-opacity:1;fill-rule:nonzero;stroke:none"
         transform="translate(244.25551,58.726504)"><tspan
           id="tspan18"
           y="0"
           x="0 6.5852633 13.170527 21.05863 24.339418 27.620205 30.900993 37.486256">12V / 5V</tspan></text>
<g
         id="g22"><path
           id="path24"
           style="fill:none;stroke:#000000;stroke-width:0.98699999;stroke-linecap:butt;stroke-linejoin:miter;stroke-miterlimit:4;stroke-dasharray:none;stroke-opacity:1"
           d="m 240.688,138.672 h 52.593 c 1.836,0 3.313,1.48 3.313,3.316 v 42.723 c 0,1.836 -1.477,3.312 -3.313,3.312 h -52.593 c -1.836,0 -3.313,-1.476 -3.313,-3.312 v -42.723 c 0,-1.836 1.477,-3.316 3.313,-3.316 z" /></g><text
         id="text28"
         style="font-variant:normal;font-weight:normal;font-size:11.84399891px;font-family:Arimo;-inkscape-font-specification:Arimo;writing-mode:lr-tb;fill:#000000;fill-opacity:1;fill-rule:nonzero;stroke:none"
         transform="translate(254.46865,167.29648)"><tspan
           id="tspan26"
           y="0"
           x="0 9.2027874 17.090891">GPS</tspan></text>
<g
         id="g30"><path
           id="path32"
           style="fill:none;stroke:#000000;stroke-width:0.98699999;stroke-linecap:butt;stroke-linejoin:miter;stroke-miterlimit:4;stroke-dasharray:none;stroke-opacity:1"
           d="m 240.688,197.895 h 52.593 c 1.836,0 3.313,1.476 3.313,3.312 v 42.723 c 0,1.836 -1.477,3.312 -3.313,3.312 h -52.593 c -1.836,0 -3.313,-1.476 -3.313,-3.312 v -42.723 c 0,-1.836 1.477,-3.312 3.313,-3.312 z" /></g><text
         id="text36"
         style="font-variant:normal;font-weight:normal;font-size:11.84399891px;font-family:Arimo;-inkscape-font-specification:Arimo;writing-mode:lr-tb;fill:#000000;fill-opacity:1;fill-rule:nonzero;stroke:none"
         transform="translate(256.12265,226.51648)"><tspan
           id="tspan34"
           y="0"
           x="0 3.2807877 13.146839">IMU</tspan></text>
<g
         id="g38"><path
           id="path40"
           style="fill:none;stroke:#000000;stroke-width:0.98699999;stroke-linecap:butt;stroke-linejoin:miter;stroke-miterlimit:4;stroke-dasharray:none;stroke-opacity:1"
           d="m 240.688,257.113 h 52.593 c 1.836,0 3.313,1.477 3.313,3.313 v 42.722 c 0,1.836 -1.477,3.317 -3.313,3.317 h -52.593 c -1.836,0 -3.313,-1.481 -3.313,-3.317 v -42.722 c 0,-1.836 1.477,-3.313 3.313,-3.313 z" /></g><text
         id="text46"
         style="font-variant:normal;font-weight:normal;font-size:11.84399891px;font-family:Arimo;-inkscape-font-specification:Arimo;writing-mode:lr-tb;fill:#000000;fill-opacity:1;fill-rule:nonzero;stroke:none"
         transform="translate(245.89794,278.82749)"><tspan
           id="tspan42"
           y="0"
           x="0 7.8881035 14.473367 20.395367 23.024734 26.305521 28.934889 35.520153">Position</tspan><tspan
           id="tspan44"
           y="13.818026"
           x="3.2964218 9.218421 15.803685 22.388948 28.310947 34.89621">sensor</tspan></text>
<g
         id="g48"><path
           id="path50"
           style="fill:none;stroke:#000000;stroke-width:0.98699999;stroke-linecap:butt;stroke-linejoin:miter;stroke-miterlimit:4;stroke-dasharray:none;stroke-opacity:1"
           d="m 418.348,138.672 h 52.593 c 1.836,0 3.313,1.48 3.313,3.316 v 42.723 c 0,1.836 -1.477,3.312 -3.313,3.312 h -52.593 c -1.836,0 -3.313,-1.476 -3.313,-3.312 v -42.723 c 0,-1.836 1.477,-3.316 3.313,-3.316 z" /></g><text
         id="text54"
         style="font-variant:normal;font-weight:normal;font-size:11.84399891px;font-family:Arimo;-inkscape-font-specification:Arimo;writing-mode:lr-tb;fill:#000000;fill-opacity:1;fill-rule:nonzero;stroke:none"
         transform="translate(423.55794,167.29648)"><tspan
           id="tspan52"
           y="0"
           x="0 8.5513668 15.136631 25.002682 31.587946 35.567528">Camera</tspan></text>
<g
         id="g56"><path
           id="path58"
           style="fill:none;stroke:#000000;stroke-width:0.98699999;stroke-linecap:butt;stroke-linejoin:miter;stroke-miterlimit:4;stroke-dasharray:none;stroke-opacity:1"
           d="m 418.348,197.895 h 52.593 c 1.836,0 3.313,1.476 3.313,3.312 v 42.723 c 0,1.836 -1.477,3.312 -3.313,3.312 h -52.593 c -1.836,0 -3.313,-1.476 -3.313,-3.312 v -42.723 c 0,-1.836 1.477,-3.312 3.313,-3.312 z" /></g><text
         id="text62"
         style="font-variant:normal;font-weight:normal;font-size:11.84399891px;font-family:Arimo;-inkscape-font-specification:Arimo;writing-mode:lr-tb;fill:#000000;fill-opacity:1;fill-rule:nonzero;stroke:none"
         transform="translate(425.85966,226.51648)"><tspan
           id="tspan60"
           y="0"
           x="0 7.8881035 13.810102 17.754154 24.339418 30.960213">Screen</tspan></text>
<g
         id="g64"><path
           id="path66"
           style="fill:none;stroke:#000000;stroke-width:0.98699999;stroke-linecap:butt;stroke-linejoin:miter;stroke-miterlimit:4;stroke-dasharray:none;stroke-opacity:1"
           d="m 330.18,69.582 h 51.269 c 2.199,0 3.973,1.773 3.973,3.977 v 228.929 c 0,2.203 -1.774,3.977 -3.973,3.977 H 330.18 c -2.203,0 -3.977,-1.774 -3.977,-3.977 V 73.559 c 0,-2.204 1.774,-3.977 3.977,-3.977 z" /></g><text
         id="text70"
         style="font-variant:normal;font-weight:normal;font-size:11.84399891px;font-family:Arimo;-inkscape-font-specification:Arimo;writing-mode:lr-tb;fill:#000000;fill-opacity:1;fill-rule:nonzero;stroke:none"
         transform="translate(345.93579,191.97148)"><tspan
           id="tspan68"
           y="0"
           x="0 8.5513668 16.43947">RPI</tspan></text>
<g
         id="g72"><path
           id="path74"
           style="fill:none;stroke:#000000;stroke-width:0.98699999;stroke-linecap:butt;stroke-linejoin:miter;stroke-miterlimit:4;stroke-dasharray:none;stroke-opacity:1"
           d="m 464.383,360.75 c 0,13.625 -11.047,24.672 -24.676,24.672 -13.625,0 -24.672,-11.047 -24.672,-24.672 0,-13.629 11.047,-24.676 24.672,-24.676 13.629,0 24.676,11.047 24.676,24.676 z" /></g><text
         id="text78"
         style="font-variant:normal;font-weight:normal;font-size:11.84399891px;font-family:Arimo;-inkscape-font-specification:Arimo;writing-mode:lr-tb;fill:#000000;fill-opacity:1;fill-rule:nonzero;stroke:none"
         transform="translate(434.76965,364.69648)"><tspan
           id="tspan76"
           y="0"
           x="0">M</tspan></text>
<g
         id="g80"><path
           id="path82"
           style="fill:none;stroke:#000000;stroke-width:0.98699999;stroke-linecap:butt;stroke-linejoin:miter;stroke-miterlimit:4;stroke-dasharray:none;stroke-opacity:1"
           d="m 326.203,79.453 h 29.609 v 19.742 h -29.609 z" /></g><text
         id="text86"
         style="font-variant:normal;font-weight:normal;font-size:11.84399891px;font-family:Arimo;-inkscape-font-specification:Arimo;writing-mode:lr-tb;fill:#000000;fill-opacity:1;fill-rule:nonzero;stroke:none"
         transform="translate(333.75636,93.271483)"><tspan
           id="tspan84"
           y="0"
           x="0 6.5852633">5V</tspan></text>
<g
         id="g88"><path
           id="path90"
           style="fill:none;stroke:#000000;stroke-width:0.98699999;stroke-linecap:butt;stroke-linejoin:miter;stroke-miterlimit:4;stroke-dasharray:none;stroke-opacity:1"
           d="m 326.203,99.195 h 29.609 v 19.738 h -29.609 z" /></g><text
         id="text94"
         style="font-variant:normal;font-weight:normal;font-size:11.84399891px;font-family:Arimo;-inkscape-font-specification:Arimo;writing-mode:lr-tb;fill:#000000;fill-opacity:1;fill-rule:nonzero;stroke:none"
         transform="translate(328.81751,113.01148)"><tspan
           id="tspan92"
           y="0"
           x="0 6.5852633 9.8660507 16.451315">3,3V</tspan></text>
<g
         id="g96"><path
           id="path98"
           style="fill:none;stroke:#000000;stroke-width:0.98699999;stroke-linecap:butt;stroke-linejoin:miter;stroke-miterlimit:4;stroke-dasharray:none;stroke-opacity:1"
           d="m 3.809,30.102 h 52.589 c 1.836,0 3.317,1.48 3.317,3.316 v 42.723 c 0,1.836 -1.481,3.312 -3.317,3.312 H 3.809 c -1.836,0 -3.317,-1.476 -3.317,-3.312 V 33.418 c 0,-1.836 1.481,-3.316 3.317,-3.316 z" /></g><text
         id="text106"
         style="font-variant:normal;font-weight:normal;font-size:11.84399891px;font-family:Arimo;-inkscape-font-specification:Arimo;writing-mode:lr-tb;fill:#000000;fill-opacity:1;fill-rule:nonzero;stroke:none"
         transform="translate(8.462755,44.9085)"><tspan
           id="tspan100"
           y="0"
           x="0 6.5852633 13.170527 19.755791 26.791126 34.67923">220VAC</tspan><tspan
           id="tspan102"
           y="13.818003"
           x="19.99832">/</tspan><tspan
           id="tspan104"
           y="27.636005"
           x="2.5330524 9.1183157 15.703579 23.591682 32.143051">12VDC</tspan></text>
<g
         id="g108"><path
           id="path110"
           style="fill:none;stroke:#000000;stroke-width:1.97399998;stroke-linecap:butt;stroke-linejoin:miter;stroke-miterlimit:10;stroke-dasharray:none;stroke-opacity:1"
           d="M 230.727,54.777 H 118.934 c -6.582,0 -13.161,0 -19.739,0 h -39.48" /></g><g
         id="g112"><path
           id="path114"
           style="fill:#000000;fill-opacity:1;fill-rule:nonzero;stroke:#000000;stroke-width:1.97399998;stroke-linecap:butt;stroke-linejoin:miter;stroke-miterlimit:10;stroke-dasharray:none;stroke-opacity:1"
           d="m 235.168,54.777 -5.922,2.961 1.481,-2.961 -1.481,-2.961 z" /></g><g
         id="g116"><path
           id="path118"
           style="fill:none;stroke:#000000;stroke-width:1.97399998;stroke-linecap:butt;stroke-linejoin:miter;stroke-miterlimit:10;stroke-dasharray:none;stroke-opacity:1"
           d="M 408.387,163.348 H 392.07" /></g><g
         id="g120"><path
           id="path122"
           style="fill:#000000;fill-opacity:1;fill-rule:nonzero;stroke:#000000;stroke-width:1.97399998;stroke-linecap:butt;stroke-linejoin:miter;stroke-miterlimit:10;stroke-dasharray:none;stroke-opacity:1"
           d="m 412.828,163.348 -5.922,2.961 1.481,-2.961 -1.481,-2.961 z" /></g><g
         id="g124"><path
           id="path126"
           style="fill:#000000;fill-opacity:1;fill-rule:nonzero;stroke:#000000;stroke-width:1.97399998;stroke-linecap:butt;stroke-linejoin:miter;stroke-miterlimit:10;stroke-dasharray:none;stroke-opacity:1"
           d="m 387.629,163.348 5.922,-2.961 -1.481,2.961 1.481,2.961 z" /></g><g
         id="g128"><path
           id="path130"
           style="fill:none;stroke:#000000;stroke-width:1.97399998;stroke-linecap:butt;stroke-linejoin:miter;stroke-miterlimit:10;stroke-dasharray:none;stroke-opacity:1"
           d="M 408.387,222.57 H 392.07" /></g><g
         id="g132"><path
           id="path134"
           style="fill:#000000;fill-opacity:1;fill-rule:nonzero;stroke:#000000;stroke-width:1.97399998;stroke-linecap:butt;stroke-linejoin:miter;stroke-miterlimit:10;stroke-dasharray:none;stroke-opacity:1"
           d="m 412.828,222.57 -5.922,2.961 1.481,-2.961 -1.481,-2.961 z" /></g><g
         id="g136"><path
           id="path138"
           style="fill:#000000;fill-opacity:1;fill-rule:nonzero;stroke:#000000;stroke-width:1.97399998;stroke-linecap:butt;stroke-linejoin:miter;stroke-miterlimit:10;stroke-dasharray:none;stroke-opacity:1"
           d="m 387.629,222.57 5.922,-2.961 -1.481,2.961 1.481,2.961 z" /></g><g
         id="g140"><path
           id="path142"
           style="fill:none;stroke:#000000;stroke-width:1.97399998;stroke-linecap:butt;stroke-linejoin:miter;stroke-miterlimit:10;stroke-dasharray:none;stroke-opacity:1"
           d="m 303.242,222.57 h 16.313" /></g><g
         id="g144"><path
           id="path146"
           style="fill:#000000;fill-opacity:1;fill-rule:nonzero;stroke:#000000;stroke-width:1.97399998;stroke-linecap:butt;stroke-linejoin:miter;stroke-miterlimit:10;stroke-dasharray:none;stroke-opacity:1"
           d="m 298.801,222.57 5.922,-2.961 -1.481,2.961 1.481,2.961 z" /></g><g
         id="g148"><path
           id="path150"
           style="fill:#000000;fill-opacity:1;fill-rule:nonzero;stroke:#000000;stroke-width:1.97399998;stroke-linecap:butt;stroke-linejoin:miter;stroke-miterlimit:10;stroke-dasharray:none;stroke-opacity:1"
           d="m 323.996,222.57 -5.922,2.961 1.481,-2.961 -1.481,-2.961 z" /></g><g
         id="g152"><path
           id="path154"
           style="fill:none;stroke:#000000;stroke-width:1.97399998;stroke-linecap:butt;stroke-linejoin:miter;stroke-miterlimit:10;stroke-dasharray:none;stroke-opacity:1"
           d="m 266.984,79.453 v 4.934 c 0,3.293 3.289,4.937 9.868,4.937 h 42.703" /></g><g
         id="g156"><path
           id="path158"
           style="fill:#000000;fill-opacity:1;fill-rule:nonzero;stroke:#000000;stroke-width:1.97399998;stroke-linecap:butt;stroke-linejoin:miter;stroke-miterlimit:10;stroke-dasharray:none;stroke-opacity:1"
           d="m 323.996,89.324 -5.922,2.961 1.481,-2.961 -1.481,-2.961 z" /></g><g
         id="g160"><path
           id="path162"
           style="fill:none;stroke:#000000;stroke-width:1.97399998;stroke-linecap:butt;stroke-linejoin:miter;stroke-miterlimit:10;stroke-dasharray:none;stroke-opacity:1"
           d="m 326.203,109.062 h -108.57 c -6.578,0 -9.871,3.29 -9.871,9.872 v 34.543 c 0,6.582 3.293,9.871 9.871,9.871 h 13.094" /></g><g
         id="g164"><path
           id="path166"
           style="fill:#000000;fill-opacity:1;fill-rule:nonzero;stroke:#000000;stroke-width:1.97399998;stroke-linecap:butt;stroke-linejoin:miter;stroke-miterlimit:10;stroke-dasharray:none;stroke-opacity:1"
           d="m 235.168,163.348 -5.922,2.961 1.481,-2.961 -1.481,-2.961 z" /></g><g
         id="g168"><path
           id="path170"
           style="fill:none;stroke:#000000;stroke-width:1.97399998;stroke-linecap:butt;stroke-linejoin:miter;stroke-miterlimit:10;stroke-dasharray:none;stroke-opacity:1"
           d="m 326.203,109.062 h -108.57 c -6.578,0 -9.871,3.29 -9.871,9.872 v 93.765 c 0,6.578 3.293,9.871 9.871,9.871 h 13.094" /></g><g
         id="g172"><path
           id="path174"
           style="fill:#000000;fill-opacity:1;fill-rule:nonzero;stroke:#000000;stroke-width:1.97399998;stroke-linecap:butt;stroke-linejoin:miter;stroke-miterlimit:10;stroke-dasharray:none;stroke-opacity:1"
           d="m 235.168,222.57 -5.922,2.961 1.481,-2.961 -1.481,-2.961 z" /></g><g
         id="g176"><path
           id="path178"
           style="fill:none;stroke:#000000;stroke-width:1.97399998;stroke-linecap:butt;stroke-linejoin:miter;stroke-miterlimit:10;stroke-dasharray:none;stroke-opacity:1"
           d="m 326.203,109.062 h -108.57 c -6.578,0 -9.871,3.29 -9.871,9.872 v 152.984 c 0,6.582 3.293,9.871 9.871,9.871 h 13.094" /></g><g
         id="g180"><path
           id="path182"
           style="fill:#000000;fill-opacity:1;fill-rule:nonzero;stroke:#000000;stroke-width:1.97399998;stroke-linecap:butt;stroke-linejoin:miter;stroke-miterlimit:10;stroke-dasharray:none;stroke-opacity:1"
           d="m 235.168,281.789 -5.922,2.961 1.481,-2.961 -1.481,-2.961 z" /></g><g
         id="g184"><path
           id="path186"
           style="fill:none;stroke:#000000;stroke-width:1.97399998;stroke-linecap:butt;stroke-linejoin:miter;stroke-miterlimit:10;stroke-dasharray:none;stroke-opacity:1"
           d="m 303.242,163.348 h 16.313" /></g><g
         id="g188"><path
           id="path190"
           style="fill:#000000;fill-opacity:1;fill-rule:nonzero;stroke:#000000;stroke-width:1.97399998;stroke-linecap:butt;stroke-linejoin:miter;stroke-miterlimit:10;stroke-dasharray:none;stroke-opacity:1"
           d="m 298.801,163.348 5.922,-2.961 -1.481,2.961 1.481,2.961 z" /></g><g
         id="g192"><path
           id="path194"
           style="fill:#000000;fill-opacity:1;fill-rule:nonzero;stroke:#000000;stroke-width:1.97399998;stroke-linecap:butt;stroke-linejoin:miter;stroke-miterlimit:10;stroke-dasharray:none;stroke-opacity:1"
           d="m 323.996,163.348 -5.922,2.961 1.481,-2.961 -1.481,-2.961 z" /></g><g
         id="g196"><path
           id="path198"
           style="fill:none;stroke:#000000;stroke-width:1.97399998;stroke-linecap:butt;stroke-linejoin:miter;stroke-miterlimit:10;stroke-dasharray:none;stroke-opacity:1"
           d="m 296.594,281.789 h 22.961" /></g><g
         id="g200"><path
           id="path202"
           style="fill:#000000;fill-opacity:1;fill-rule:nonzero;stroke:#000000;stroke-width:1.97399998;stroke-linecap:butt;stroke-linejoin:miter;stroke-miterlimit:10;stroke-dasharray:none;stroke-opacity:1"
           d="m 323.996,281.789 -5.922,2.961 1.481,-2.961 -1.481,-2.961 z" /></g><g
         transform="scale(-1)"
         id="g204"><path
           id="path206"
           style="fill:none;stroke:#000000;stroke-width:0.98699999;stroke-linecap:butt;stroke-linejoin:miter;stroke-miterlimit:10;stroke-dasharray:2.961, 2.961;stroke-dashoffset:0;stroke-opacity:1"
           d="m -79.453,-107.09 h -9.871 V -0.492 h 9.871" /></g><g
         id="g208"><path
           id="path210"
           style="fill:none;stroke:#000000;stroke-width:0.98699999;stroke-linecap:butt;stroke-linejoin:miter;stroke-miterlimit:4;stroke-dasharray:none;stroke-opacity:1"
           d="m 329.516,336.074 h 52.593 c 1.836,0 3.313,1.477 3.313,3.313 v 42.722 c 0,1.836 -1.477,3.313 -3.313,3.313 h -52.593 c -1.836,0 -3.313,-1.477 -3.313,-3.313 v -42.722 c 0,-1.836 1.477,-3.313 3.313,-3.313 z" /></g><text
         id="text214"
         style="font-variant:normal;font-weight:normal;font-size:11.84399891px;font-family:Arimo;-inkscape-font-specification:Arimo;writing-mode:lr-tb;fill:#000000;fill-opacity:1;fill-rule:nonzero;stroke:none"
         transform="translate(330.11295,364.69648)"><tspan
           id="tspan212"
           y="0"
           x="0 8.5513668 15.136631 21.721893 25.002682 28.946733 35.531998 38.196896 40.826263 47.41153">Controller</tspan></text>
<g
         id="g216"><path
           id="path218"
           style="fill:none;stroke:#000000;stroke-width:1.97399998;stroke-linecap:butt;stroke-linejoin:miter;stroke-miterlimit:10;stroke-dasharray:none;stroke-opacity:1"
           d="m 326.203,109.062 h -108.57 c -6.578,0 -9.871,3.29 -9.871,9.872 v 227.011 c 0,6.578 3.293,9.867 9.871,9.867 h 101.922" /></g><g
         id="g220"><path
           id="path222"
           style="fill:#000000;fill-opacity:1;fill-rule:nonzero;stroke:#000000;stroke-width:1.97399998;stroke-linecap:butt;stroke-linejoin:miter;stroke-miterlimit:10;stroke-dasharray:none;stroke-opacity:1"
           d="m 323.996,355.812 -5.922,2.961 1.481,-2.961 -1.481,-2.96 z" /></g><g
         id="g224"><path
           id="path226"
           style="fill:none;stroke:#000000;stroke-width:1.97399998;stroke-linecap:butt;stroke-linejoin:miter;stroke-miterlimit:10;stroke-dasharray:none;stroke-opacity:1"
           d="m 355.812,306.465 v 22.961" /></g><g
         id="g228"><path
           id="path230"
           style="fill:#000000;fill-opacity:1;fill-rule:nonzero;stroke:#000000;stroke-width:1.97399998;stroke-linecap:butt;stroke-linejoin:miter;stroke-miterlimit:10;stroke-dasharray:none;stroke-opacity:1"
           d="m 355.812,333.867 -2.96,-5.922 2.96,1.481 2.961,-1.481 z" /></g><g
         id="g232"><path
           id="path234"
           style="fill:none;stroke:#000000;stroke-width:1.97399998;stroke-linecap:butt;stroke-linejoin:miter;stroke-miterlimit:10;stroke-dasharray:none;stroke-opacity:1"
           d="m 385.422,360.75 h 22.965" /></g><g
         id="g236"><path
           id="path238"
           style="fill:#000000;fill-opacity:1;fill-rule:nonzero;stroke:#000000;stroke-width:1.97399998;stroke-linecap:butt;stroke-linejoin:miter;stroke-miterlimit:10;stroke-dasharray:none;stroke-opacity:1"
           d="m 412.828,360.75 -5.922,2.961 1.481,-2.961 -1.481,-2.961 z" /></g><g
         id="g240"><path
           id="path242"
           style="fill:none;stroke:#000000;stroke-width:1.97399998;stroke-linecap:butt;stroke-linejoin:miter;stroke-miterlimit:10;stroke-dasharray:none;stroke-opacity:1"
           d="m 59.715,54.777 h 78.957 c 6.582,0 9.871,3.293 9.871,9.871 v 291.164 c 0,6.583 3.289,9.872 9.871,9.872 h 161.141" /></g><g
         id="g244"><path
           id="path246"
           style="fill:#000000;fill-opacity:1;fill-rule:nonzero;stroke:#000000;stroke-width:1.97399998;stroke-linecap:butt;stroke-linejoin:miter;stroke-miterlimit:10;stroke-dasharray:none;stroke-opacity:1"
           d="m 323.996,365.684 -5.922,2.961 1.481,-2.961 -1.481,-2.961 z" /></g><g
         id="g248"><path
           id="path250"
           style="fill:none;stroke:#000000;stroke-width:0.98699999;stroke-linecap:butt;stroke-linejoin:miter;stroke-miterlimit:4;stroke-dasharray:none;stroke-opacity:1"
           d="m 464.383,419.969 c 0,13.629 -11.047,24.676 -24.676,24.676 -13.625,0 -24.672,-11.047 -24.672,-24.676 0,-13.629 11.047,-24.676 24.672,-24.676 13.629,0 24.676,11.047 24.676,24.676 z" /></g><text
         id="text254"
         style="font-variant:normal;font-weight:normal;font-size:11.84399891px;font-family:Arimo;-inkscape-font-specification:Arimo;writing-mode:lr-tb;fill:#000000;fill-opacity:1;fill-rule:nonzero;stroke:none"
         transform="translate(429.49536,423.91648)"><tspan
           id="tspan252"
           y="0"
           x="0 7.2248392 13.810102">Fan</tspan></text>
<g
         id="g256"><path
           id="path258"
           style="fill:none;stroke:#000000;stroke-width:1.97399998;stroke-linecap:butt;stroke-linejoin:miter;stroke-miterlimit:10;stroke-dasharray:none;stroke-opacity:1"
           d="m 59.715,54.777 h 78.957 c 6.582,0 9.871,3.293 9.871,9.871 v 345.45 c 0,6.582 3.289,9.871 9.871,9.871 h 249.973" /></g><g
         id="g260"><path
           id="path262"
           style="fill:#000000;fill-opacity:1;fill-rule:nonzero;stroke:#000000;stroke-width:1.97399998;stroke-linecap:butt;stroke-linejoin:miter;stroke-miterlimit:10;stroke-dasharray:none;stroke-opacity:1"
           d="m 412.828,419.969 -5.922,2.961 1.481,-2.961 -1.481,-2.961 z" /></g></g></g></svg>