<?xml version="1.0" encoding="UTF-8" standalone="no"?>
<svg
   xmlns:dc="http://purl.org/dc/elements/1.1/"
   xmlns:cc="http://creativecommons.org/ns#"
   xmlns:rdf="http://www.w3.org/1999/02/22-rdf-syntax-ns#"
   xmlns:svg="http://www.w3.org/2000/svg"
   xmlns="http://www.w3.org/2000/svg"
   viewBox="0 0 1236.288 633.18402"
   height="633.18402"
   width="1236.288"
   xml:space="preserve"
   id="svg2"
   version="1.1"><metadata
     id="metadata8"><rdf:RDF><cc:Work
         rdf:about=""><dc:format>image/svg+xml</dc:format><dc:type
           rdf:resource="http://purl.org/dc/dcmitype/StillImage" /></cc:Work></rdf:RDF></metadata><defs
     id="defs6" /><g
     transform="matrix(1.3333333,0,0,1.3333333,0,1.4496268e-5)"
     id="g10"><g
       id="g12"><g
         id="g14"><path
           id="path16"
           style="fill:#ff7f00;fill-opacity:1;fill-rule:nonzero;stroke:#000000;stroke-width:1.12800002;stroke-linecap:butt;stroke-linejoin:miter;stroke-miterlimit:10;stroke-dasharray:none;stroke-opacity:1"
           d="M 34.969,0.562 H 294.407 V 26.507 H 34.969 Z" /></g><g
         id="g18"><path
           id="path20"
           style="fill:none;stroke:#000000;stroke-width:1.12800002;stroke-linecap:butt;stroke-linejoin:miter;stroke-miterlimit:10;stroke-dasharray:none;stroke-opacity:1"
           d="M 34.969,26.508 V 305.125 H 294.406 V 26.508" /></g><text
         id="text24"
         style="font-variant:normal;font-weight:bold;font-size:13.53600121px;font-family:Arimo;-inkscape-font-specification:Arimo-Bold;writing-mode:lr-tb;fill:#000000;fill-opacity:1;fill-rule:nonzero;stroke:none"
         transform="translate(113.505,18.752991)"><tspan
           id="tspan22"
           y="0"
           x="0 9.7729931 18.029953 22.537441 30.794403 38.361027 45.887043 54.144005 62.400963 69.926979 73.676453 81.202469 89.459427 94.724937">Autoscope core</tspan></text>
<g
         id="g26"><path
           id="path28"
           style="fill:#ff7f00;fill-opacity:1;fill-rule:nonzero;stroke:#000000;stroke-width:1.12800002;stroke-linecap:butt;stroke-linejoin:miter;stroke-miterlimit:10;stroke-dasharray:none;stroke-opacity:1"
           d="m 508.727,0.562 h 248.16 v 25.945 h -248.16 z" /></g><g
         id="g30"><path
           id="path32"
           style="fill:none;stroke:#000000;stroke-width:1.12800002;stroke-linecap:butt;stroke-linejoin:miter;stroke-miterlimit:10;stroke-dasharray:none;stroke-opacity:1"
           d="m 508.727,26.508 v 312.457 h 248.16 V 26.508" /></g><text
         id="text36"
         style="font-variant:normal;font-weight:bold;font-size:13.53600121px;font-family:Arimo;-inkscape-font-specification:Arimo-Bold;writing-mode:lr-tb;fill:#000000;fill-opacity:1;fill-rule:nonzero;stroke:none"
         transform="translate(575.24034,18.752991)"><tspan
           id="tspan34"
           y="0"
           x="0 3.7494724 12.006433 19.53245 24.797955 28.547426 36.804386 40.55386 48.810818 52.560291 64.593796 69.101288 76.627304 84.15332 91.679337 99.205353 106.73137">/usr/bin/mtk3339d</tspan></text>
<g
         id="g38"><path
           id="path40"
           style="fill:#ff7f00;fill-opacity:1;fill-rule:nonzero;stroke:#000000;stroke-width:1.12800002;stroke-linecap:butt;stroke-linejoin:miter;stroke-miterlimit:10;stroke-dasharray:none;stroke-opacity:1"
           d="M 813.289,0.562 H 926.09 V 26.507 H 813.289 Z" /></g><g
         id="g42"><path
           id="path44"
           style="fill:none;stroke:#000000;stroke-width:1.12800002;stroke-linecap:butt;stroke-linejoin:miter;stroke-miterlimit:10;stroke-dasharray:none;stroke-opacity:1"
           d="M 813.289,26.508 V 147.203 H 926.09 V 26.508" /></g><text
         id="text48"
         style="font-variant:normal;font-weight:bold;font-size:13.53600121px;font-family:Arimo;-inkscape-font-specification:Arimo-Bold;writing-mode:lr-tb;fill:#000000;fill-opacity:1;fill-rule:nonzero;stroke:none"
         transform="translate(850.87772,18.752991)"><tspan
           id="tspan46"
           y="0"
           x="0 9.7729931 19.545986 29.318977">UART</tspan></text>
<g
         id="g50"><path
           id="path52"
           style="fill:none;stroke:#000000;stroke-width:1.12800002;stroke-linecap:butt;stroke-linejoin:miter;stroke-miterlimit:10;stroke-dasharray:none;stroke-opacity:1"
           d="m 332.508,124.645 h 138.121 c 8.582,0 15.539,7.578 15.539,16.917 0,9.344 -6.957,16.922 -15.539,16.922 H 332.508 c -8.582,0 -15.539,-7.578 -15.539,-16.922 0,-9.339 6.957,-16.917 15.539,-16.917 z" /></g><g
         id="g54"><path
           id="path56"
           style="fill:none;stroke:#000000;stroke-width:1.12800002;stroke-linecap:butt;stroke-linejoin:miter;stroke-miterlimit:10;stroke-dasharray:none;stroke-opacity:1"
           d="m 470.629,124.645 c -8.578,0 -15.539,7.578 -15.539,16.917 0,9.344 6.961,16.922 15.539,16.922" /></g><text
         id="text60"
         style="font-variant:normal;font-weight:bold;font-size:13.53600121px;font-family:Arimo;-inkscape-font-specification:Arimo-Bold;writing-mode:lr-tb;fill:#000000;fill-opacity:1;fill-rule:nonzero;stroke:none"
         transform="translate(334.2449,146.07602)"><tspan
           id="tspan58"
           y="0"
           x="0 3.7494724 8.2569609 20.290466 28.547426 32.296898 40.55386 48.810818 56.336838 63.862854 67.612328 75.138344 79.68644 83.435913 87.943398 96.200356 104.45732 111.98334">/tmp/gps_latitude </tspan></text>
<g
         id="g62"><path
           id="path64"
           style="fill:none;stroke:#000000;stroke-width:1.12800002;stroke-linecap:butt;stroke-linejoin:miter;stroke-miterlimit:10;stroke-dasharray:none;stroke-opacity:1"
           d="m 332.508,169.766 h 138.121 c 8.582,0 15.539,7.578 15.539,16.918 0,9.339 -6.957,16.921 -15.539,16.921 H 332.508 c -8.582,0 -15.539,-7.582 -15.539,-16.921 0,-9.34 6.957,-16.918 15.539,-16.918 z" /></g><g
         id="g66"><path
           id="path68"
           style="fill:none;stroke:#000000;stroke-width:1.12800002;stroke-linecap:butt;stroke-linejoin:miter;stroke-miterlimit:10;stroke-dasharray:none;stroke-opacity:1"
           d="m 470.629,169.766 c -8.578,0 -15.539,7.578 -15.539,16.918 0,9.339 6.961,16.921 15.539,16.921" /></g><text
         id="text72"
         style="font-variant:normal;font-weight:bold;font-size:13.53600121px;font-family:Arimo;-inkscape-font-specification:Arimo-Bold;writing-mode:lr-tb;fill:#000000;fill-opacity:1;fill-rule:nonzero;stroke:none"
         transform="translate(327.86025,191.19602)"><tspan
           id="tspan70"
           y="0"
           x="0 3.7494724 8.2569609 20.290466 28.547426 32.296898 40.55386 48.810818 56.336838 63.862854 67.612328 75.869286 84.126244 92.423813 96.173286 100.68078 108.93774 117.19469 124.72071">/tmp/gps_longitude </tspan></text>
<g
         id="g74"><path
           id="path76"
           style="fill:none;stroke:#000000;stroke-width:1.12800002;stroke-linecap:butt;stroke-linejoin:miter;stroke-miterlimit:10;stroke-dasharray:none;stroke-opacity:1"
           d="m 332.508,214.883 h 138.121 c 8.582,0 15.539,7.578 15.539,16.922 0,9.34 -6.957,16.918 -15.539,16.918 H 332.508 c -8.582,0 -15.539,-7.578 -15.539,-16.918 0,-9.344 6.957,-16.922 15.539,-16.922 z" /></g><g
         id="g78"><path
           id="path80"
           style="fill:none;stroke:#000000;stroke-width:1.12800002;stroke-linecap:butt;stroke-linejoin:miter;stroke-miterlimit:10;stroke-dasharray:none;stroke-opacity:1"
           d="m 470.629,214.883 c -8.578,0 -15.539,7.578 -15.539,16.922 0,9.34 6.961,16.918 15.539,16.918" /></g><text
         id="text84"
         style="font-variant:normal;font-weight:bold;font-size:13.53600121px;font-family:Arimo;-inkscape-font-specification:Arimo-Bold;writing-mode:lr-tb;fill:#000000;fill-opacity:1;fill-rule:nonzero;stroke:none"
         transform="translate(334.2449,236.31602)"><tspan
           id="tspan82"
           y="0"
           x="0 3.7494724 8.2569609 20.290466 28.547426 32.296898 40.55386 48.810818 56.336838 63.862854 71.38887 75.138344 79.68644 83.435913 87.943398 96.200356 104.45732 111.98334">/tmp/gps_altitude </tspan></text>
<g
         id="g86"><path
           id="path88"
           style="fill:none;stroke:#000000;stroke-width:1.12800002;stroke-linecap:butt;stroke-linejoin:miter;stroke-miterlimit:10;stroke-dasharray:none;stroke-opacity:1"
           d="m 332.508,260.004 h 138.121 c 8.582,0 15.539,7.578 15.539,16.922 0,9.34 -6.957,16.918 -15.539,16.918 H 332.508 c -8.582,0 -15.539,-7.578 -15.539,-16.918 0,-9.344 6.957,-16.922 15.539,-16.922 z" /></g><g
         id="g90"><path
           id="path92"
           style="fill:none;stroke:#000000;stroke-width:1.12800002;stroke-linecap:butt;stroke-linejoin:miter;stroke-miterlimit:10;stroke-dasharray:none;stroke-opacity:1"
           d="m 470.629,260.004 c -8.578,0 -15.539,7.578 -15.539,16.922 0,9.34 6.961,16.918 15.539,16.918" /></g><text
         id="text96"
         style="font-variant:normal;font-weight:bold;font-size:13.53600121px;font-family:Arimo;-inkscape-font-specification:Arimo-Bold;writing-mode:lr-tb;fill:#000000;fill-opacity:1;fill-rule:nonzero;stroke:none"
         transform="translate(330.12065,281.43602)"><tspan
           id="tspan94"
           y="0"
           x="0 3.7494724 8.2569609 20.290466 28.547426 32.296898 40.55386 48.810818 56.336838 63.862854 68.41095 72.160423 77.425926 89.459427 99.976906 107.50292 112.76842 120.29444">/tmp/gps_firmware </tspan></text>
<g
         id="g98"><path
           id="path100"
           style="fill:none;stroke:#000000;stroke-width:1.12800002;stroke-linecap:butt;stroke-linejoin:miter;stroke-miterlimit:10;stroke-dasharray:none;stroke-opacity:1"
           d="M 316.969,58.578 H 419.355 V 45.684 l 66.813,22.558 -66.813,22.563 V 77.91 H 316.969 Z" /></g><text
         id="text104"
         style="font-variant:normal;font-weight:bold;font-size:13.53600121px;font-family:Arimo;-inkscape-font-specification:Arimo-Bold;writing-mode:lr-tb;fill:#000000;fill-opacity:1;fill-rule:nonzero;stroke:none"
         transform="translate(371.83903,72.756017)"><tspan
           id="tspan102"
           y="0"
           x="0 9.0149765 12.764449 23.281921 33.054913 42.069893 51.842884">SIGUSR1</tspan></text>
<g
         id="g106"><path
           id="path108"
           style="fill:none;stroke:#000000;stroke-width:1.12800002;stroke-linecap:butt;stroke-linejoin:miter;stroke-miterlimit:10;stroke-dasharray:none;stroke-opacity:1"
           d="m 598.969,228.047 v -37.606 c 0,-5.187 12.625,-9.398 28.199,-9.398 15.574,0 28.199,4.211 28.199,9.398 v 37.606 c 0,5.187 -12.625,9.398 -28.199,9.398 -15.574,0 -28.199,-4.211 -28.199,-9.398 z" /></g><g
         id="g110"><path
           id="path112"
           style="fill:none;stroke:#000000;stroke-width:1.12800002;stroke-linecap:butt;stroke-linejoin:miter;stroke-miterlimit:10;stroke-dasharray:none;stroke-opacity:1"
           d="m 598.969,190.441 c 0,5.196 12.625,9.407 28.199,9.407 15.574,0 28.199,-4.211 28.199,-9.407" /></g><text
         id="text116"
         style="font-variant:normal;font-weight:normal;font-size:13.53600121px;font-family:Arimo;-inkscape-font-specification:Arimo;writing-mode:lr-tb;fill:#000000;fill-opacity:1;fill-rule:nonzero;stroke:none"
         transform="translate(609.48131,213.75602)"><tspan
           id="tspan114"
           y="0"
           x="0 9.7729931 17.299009 21.048481 28.574497">Datas</tspan></text>
<g
         id="g118"><path
           id="path120"
           style="fill:none;stroke:#000000;stroke-width:2.25600004;stroke-linecap:butt;stroke-linejoin:miter;stroke-miterlimit:10;stroke-dasharray:none;stroke-opacity:1"
           d="m 598.969,209.242 h -56.403 c -7.519,0 -11.277,3.762 -11.277,11.281 v 5.641 c 0,3.762 -3.762,5.641 -11.281,5.641 H 493.77" /></g><g
         id="g122"><path
           id="path124"
           style="fill:#000000;fill-opacity:1;fill-rule:nonzero;stroke:#000000;stroke-width:2.25600004;stroke-linecap:butt;stroke-linejoin:miter;stroke-miterlimit:10;stroke-dasharray:none;stroke-opacity:1"
           d="m 488.691,231.805 6.77,-3.383 -1.691,3.383 1.691,3.383 z" /></g><g
         id="g126"><path
           id="path128"
           style="fill:none;stroke:#000000;stroke-width:2.25600004;stroke-linecap:butt;stroke-linejoin:miter;stroke-miterlimit:10;stroke-dasharray:none;stroke-opacity:1"
           d="m 598.969,209.242 h -56.403 c -7.519,0 -11.277,-3.758 -11.277,-11.277 v -5.641 c 0,-3.762 -3.762,-5.64 -11.281,-5.64 H 493.77" /></g><g
         id="g130"><path
           id="path132"
           style="fill:#000000;fill-opacity:1;fill-rule:nonzero;stroke:#000000;stroke-width:2.25600004;stroke-linecap:butt;stroke-linejoin:miter;stroke-miterlimit:10;stroke-dasharray:none;stroke-opacity:1"
           d="m 488.691,186.684 6.77,-3.383 -1.691,3.383 1.691,3.382 z" /></g><g
         id="g134"><path
           id="path136"
           style="fill:none;stroke:#000000;stroke-width:2.25600004;stroke-linecap:butt;stroke-linejoin:miter;stroke-miterlimit:10;stroke-dasharray:none;stroke-opacity:1"
           d="m 598.969,209.242 h -56.403 c -7.519,0 -11.277,-3.758 -11.277,-11.277 v -45.121 c 0,-7.52 -3.762,-11.282 -11.281,-11.282 H 493.77" /></g><g
         id="g138"><path
           id="path140"
           style="fill:#000000;fill-opacity:1;fill-rule:nonzero;stroke:#000000;stroke-width:2.25600004;stroke-linecap:butt;stroke-linejoin:miter;stroke-miterlimit:10;stroke-dasharray:none;stroke-opacity:1"
           d="m 488.691,141.562 6.77,-3.382 -1.691,3.382 1.691,3.387 z" /></g><g
         id="g142"><path
           id="path144"
           style="fill:none;stroke:#000000;stroke-width:2.25600004;stroke-linecap:butt;stroke-linejoin:miter;stroke-miterlimit:10;stroke-dasharray:none;stroke-opacity:1"
           d="m 598.969,209.242 h -56.403 c -7.519,0 -11.277,3.762 -11.277,11.281 v 45.122 c 0,7.519 -3.762,11.281 -11.281,11.281 H 493.77" /></g><g
         id="g146"><path
           id="path148"
           style="fill:#000000;fill-opacity:1;fill-rule:nonzero;stroke:#000000;stroke-width:2.25600004;stroke-linecap:butt;stroke-linejoin:miter;stroke-miterlimit:10;stroke-dasharray:none;stroke-opacity:1"
           d="m 488.691,276.926 6.77,-3.387 -1.691,3.387 1.691,3.383 z" /></g><g
         id="g150"><path
           id="path152"
           style="fill:none;stroke:#000000;stroke-width:2.25600004;stroke-linecap:butt;stroke-linejoin:miter;stroke-miterlimit:10;stroke-dasharray:6.768, 6.768;stroke-dashoffset:0;stroke-opacity:1"
           d="m 486.168,68.242 c 52.641,0 78.961,44.469 78.961,133.403" /></g><g
         id="g154"><path
           id="path156"
           style="fill:#000000;fill-opacity:1;fill-rule:nonzero;stroke:#000000;stroke-width:2.25600004;stroke-linecap:butt;stroke-linejoin:miter;stroke-miterlimit:10;stroke-dasharray:none;stroke-opacity:1"
           d="m 565.129,206.719 -3.387,-6.766 3.387,1.692 3.383,-1.692 z" /></g><g
         id="g158"><path
           id="path160"
           style="fill:none;stroke:#000000;stroke-width:1.12800002;stroke-linecap:butt;stroke-linejoin:miter;stroke-miterlimit:4;stroke-dasharray:none;stroke-opacity:1"
           d="m 655.367,102.086 h 78.961 v 45.117 h -78.961 z" /></g><text
         id="text164"
         style="font-variant:normal;font-weight:normal;font-size:13.53600121px;font-family:Arimo;-inkscape-font-specification:Arimo;writing-mode:lr-tb;fill:#000000;fill-opacity:1;fill-rule:nonzero;stroke:none"
         transform="translate(675.64115,129.15602)"><tspan
           id="tspan162"
           y="0"
           x="0 7.5260167 15.052033 19.559521 26.327522 33.853539">parser</tspan></text>
<g
         id="g166"><path
           id="path168"
           style="fill:none;stroke:#000000;stroke-width:2.25600004;stroke-linecap:butt;stroke-linejoin:miter;stroke-miterlimit:10;stroke-dasharray:none;stroke-opacity:1"
           d="m 655.367,124.645 h -16.918 c -7.519,0 -11.281,3.757 -11.281,11.281 v 37.519" /></g><g
         id="g170"><path
           id="path172"
           style="fill:#000000;fill-opacity:1;fill-rule:nonzero;stroke:#000000;stroke-width:2.25600004;stroke-linecap:butt;stroke-linejoin:miter;stroke-miterlimit:10;stroke-dasharray:none;stroke-opacity:1"
           d="m 627.168,178.52 -3.383,-6.766 3.383,1.691 3.383,-1.691 z" /></g><g
         id="g174"><path
           id="path176"
           style="fill:none;stroke:#000000;stroke-width:2.25600004;stroke-linecap:butt;stroke-linejoin:miter;stroke-miterlimit:10;stroke-dasharray:none;stroke-opacity:1"
           d="m 813.289,124.645 h -45.121 c -7.52,0 -13.773,0 -18.762,0 h -7.476" /></g><g
         id="g178"><path
           id="path180"
           style="fill:#000000;fill-opacity:1;fill-rule:nonzero;stroke:#000000;stroke-width:2.25600004;stroke-linecap:butt;stroke-linejoin:miter;stroke-miterlimit:10;stroke-dasharray:none;stroke-opacity:1"
           d="m 736.852,124.645 6.769,-3.383 -1.691,3.383 1.691,3.382 z" /></g><g
         transform="scale(-1)"
         id="g182"><path
           id="path184"
           style="fill:none;stroke:#000000;stroke-width:1.12800002;stroke-linecap:butt;stroke-linejoin:miter;stroke-miterlimit:10;stroke-dasharray:none;stroke-opacity:1"
           d="m -880.969,-303.508 h 61.434 v -12.894 l 40.086,22.558 -40.086,22.559 v -12.895 h -61.434 z" /></g><text
         id="text188"
         style="font-variant:normal;font-weight:bold;font-size:13.53600121px;font-family:Arimo;-inkscape-font-specification:Arimo-Bold;writing-mode:lr-tb;fill:#000000;fill-opacity:1;fill-rule:nonzero;stroke:none"
         transform="translate(799.35544,298.35602)"><tspan
           id="tspan186"
           y="0"
           x="0 9.0149765 12.764449 23.281921 31.538883 40.55386 50.326851">SIGTERM</tspan></text>
<g
         id="g190"><path
           id="path192"
           style="fill:none;stroke:#000000;stroke-width:1.12800002;stroke-linecap:butt;stroke-linejoin:miter;stroke-miterlimit:4;stroke-dasharray:none;stroke-opacity:1"
           d="m 655.367,271.285 h 78.961 v 45.117 h -78.961 z" /></g><text
         id="text196"
         style="font-variant:normal;font-weight:normal;font-size:13.53600121px;font-family:Arimo;-inkscape-font-specification:Arimo;writing-mode:lr-tb;fill:#000000;fill-opacity:1;fill-rule:nonzero;stroke:none"
         transform="translate(683.92931,298.35602)"><tspan
           id="tspan194"
           y="0"
           x="0 7.5260167 15.052033 18.057026">quit</tspan></text>
<g
         id="g198"><path
           id="path200"
           style="fill:none;stroke:#000000;stroke-width:2.25600004;stroke-linecap:butt;stroke-linejoin:miter;stroke-miterlimit:10;stroke-dasharray:6.768, 6.768;stroke-dashoffset:0;stroke-opacity:1"
           d="M 779.449,293.844 H 741.93" /></g><g
         id="g202"><path
           id="path204"
           style="fill:#000000;fill-opacity:1;fill-rule:nonzero;stroke:#000000;stroke-width:2.25600004;stroke-linecap:butt;stroke-linejoin:miter;stroke-miterlimit:10;stroke-dasharray:none;stroke-opacity:1"
           d="m 736.852,293.844 6.769,-3.383 -1.691,3.383 1.691,3.383 z" /></g><g
         id="g206"><path
           id="path208"
           style="fill:none;stroke:#000000;stroke-width:1.12800002;stroke-linecap:butt;stroke-linejoin:miter;stroke-miterlimit:4;stroke-dasharray:none;stroke-opacity:1"
           d="m 655.367,406.645 h 78.961 v 45.121 h -78.961 z" /></g><text
         id="text212"
         style="font-variant:normal;font-weight:normal;font-size:13.53600121px;font-family:Arimo;-inkscape-font-specification:Arimo;writing-mode:lr-tb;fill:#000000;fill-opacity:1;fill-rule:nonzero;stroke:none"
         transform="translate(685.80637,433.71602)"><tspan
           id="tspan210"
           y="0"
           x="0 9.0149765 12.019969 15.024961">Kill</tspan></text>
<g
         id="g214"><path
           id="path216"
           style="fill:none;stroke:#000000;stroke-width:1.12800002;stroke-linecap:butt;stroke-linejoin:miter;stroke-miterlimit:4;stroke-dasharray:none;stroke-opacity:1"
           d="m 531.289,406.645 h 78.957 v 45.121 h -78.957 z" /></g><text
         id="text220"
         style="font-variant:normal;font-weight:normal;font-size:13.53600121px;font-family:Arimo;-inkscape-font-specification:Arimo;writing-mode:lr-tb;fill:#000000;fill-opacity:1;fill-rule:nonzero;stroke:none"
         transform="translate(556.46531,433.71602)"><tspan
           id="tspan218"
           y="0"
           x="0 9.0149765 12.764449 20.290466 24.797955">Start</tspan></text>
<g
         id="g222"><path
           id="path224"
           style="fill:none;stroke:#000000;stroke-width:2.25600004;stroke-linecap:butt;stroke-linejoin:miter;stroke-miterlimit:10;stroke-dasharray:6.768, 6.768;stroke-dashoffset:0;stroke-opacity:1"
           d="m 734.328,429.203 c 127.84,0 191.762,-22.558 191.762,-67.68 0,-45.121 -12.508,-67.679 -37.524,-67.679" /></g><g
         id="g226"><path
           id="path228"
           style="fill:#000000;fill-opacity:1;fill-rule:nonzero;stroke:#000000;stroke-width:2.25600004;stroke-linecap:butt;stroke-linejoin:miter;stroke-miterlimit:10;stroke-dasharray:none;stroke-opacity:1"
           d="m 883.492,293.844 6.77,-3.383 -1.696,3.383 1.696,3.383 z" /></g><g
         id="g230"><path
           id="path232"
           style="fill:none;stroke:#000000;stroke-width:2.25600004;stroke-linecap:butt;stroke-linejoin:miter;stroke-miterlimit:10;stroke-dasharray:6.768, 6.768;stroke-dashoffset:0;stroke-opacity:1"
           d="m 531.289,429.203 c -60.16,0 -90.242,-18.801 -90.242,-56.398 0,-37.602 20.027,-56.403 60.082,-56.403" /></g><g
         id="g234"><path
           id="path236"
           style="fill:#000000;fill-opacity:1;fill-rule:nonzero;stroke:#000000;stroke-width:2.25600004;stroke-linecap:butt;stroke-linejoin:miter;stroke-miterlimit:10;stroke-dasharray:none;stroke-opacity:1"
           d="m 506.203,316.402 -6.765,3.387 1.691,-3.387 -1.691,-3.382 z" /></g><g
         id="g238"><path
           id="path240"
           style="fill:none;stroke:#000000;stroke-width:1.12800002;stroke-linecap:butt;stroke-linejoin:miter;stroke-miterlimit:10;stroke-dasharray:none;stroke-opacity:1"
           d="m 192.887,228.047 v -37.606 c 0,-5.187 12.629,-9.398 28.203,-9.398 15.57,0 28.199,4.211 28.199,9.398 v 37.606 c 0,5.187 -12.629,9.398 -28.199,9.398 -15.574,0 -28.203,-4.211 -28.203,-9.398 z" /></g><g
         id="g242"><path
           id="path244"
           style="fill:none;stroke:#000000;stroke-width:1.12800002;stroke-linecap:butt;stroke-linejoin:miter;stroke-miterlimit:10;stroke-dasharray:none;stroke-opacity:1"
           d="m 192.887,190.441 c 0,5.196 12.629,9.407 28.203,9.407 15.57,0 28.199,-4.211 28.199,-9.407" /></g><text
         id="text250"
         style="font-variant:normal;font-weight:normal;font-size:13.53600121px;font-family:Arimo;-inkscape-font-specification:Arimo;writing-mode:lr-tb;fill:#000000;fill-opacity:1;fill-rule:nonzero;stroke:none"
         transform="translate(206.78531,213.75602)"><tspan
           id="tspan246"
           y="0"
           x="0 10.517473 19.53245">GPS</tspan><tspan
           id="tspan248"
           y="15.791979"
           x="-3.3840003 6.3889923 13.915009 17.664482 25.190498">Datas</tspan></text>
<g
         id="g252"><path
           id="path254"
           style="fill:none;stroke:#000000;stroke-width:1.12800002;stroke-linecap:butt;stroke-linejoin:miter;stroke-miterlimit:4;stroke-dasharray:none;stroke-opacity:1"
           d="m 170.328,45.684 h 101.52 v 45.121 h -101.52 z" /></g><text
         id="text258"
         style="font-variant:normal;font-weight:normal;font-size:13.53600121px;font-family:Arimo;-inkscape-font-specification:Arimo;writing-mode:lr-tb;fill:#000000;fill-opacity:1;fill-rule:nonzero;stroke:none"
         transform="translate(176.65978,72.756017)"><tspan
           id="tspan256"
           y="0"
           x="0 7.5260167 15.052033 18.801506 26.327522 33.853539 41.379555 48.147556 55.673573 63.240196 70.766212 74.515686 82.041702">get_gps_datas</tspan></text>
<g
         id="g260"><path
           id="path262"
           style="fill:none;stroke:#000000;stroke-width:2.25600004;stroke-linecap:butt;stroke-linejoin:miter;stroke-miterlimit:10;stroke-dasharray:6.768, 6.768;stroke-dashoffset:0;stroke-opacity:1"
           d="m 271.848,68.242 h 37.519" /></g><g
         id="g264"><path
           id="path266"
           style="fill:#000000;fill-opacity:1;fill-rule:nonzero;stroke:#000000;stroke-width:2.25600004;stroke-linecap:butt;stroke-linejoin:miter;stroke-miterlimit:10;stroke-dasharray:none;stroke-opacity:1"
           d="m 314.445,68.242 -6.769,3.387 1.691,-3.387 -1.691,-3.383 z" /></g><g
         id="g268"><path
           id="path270"
           style="fill:none;stroke:#000000;stroke-width:2.25600004;stroke-linecap:butt;stroke-linejoin:miter;stroke-miterlimit:10;stroke-dasharray:none;stroke-opacity:1"
           d="m 316.969,141.562 h -33.84 c -7.52,0 -11.281,3.762 -11.281,11.282 v 45.121 c 0,7.519 -2.493,11.277 -7.481,11.277 h -7.48" /></g><g
         id="g272"><path
           id="path274"
           style="fill:#000000;fill-opacity:1;fill-rule:nonzero;stroke:#000000;stroke-width:2.25600004;stroke-linecap:butt;stroke-linejoin:miter;stroke-miterlimit:10;stroke-dasharray:none;stroke-opacity:1"
           d="m 251.812,209.242 6.766,-3.383 -1.691,3.383 1.691,3.387 z" /></g><g
         id="g276"><path
           id="path278"
           style="fill:none;stroke:#000000;stroke-width:2.25600004;stroke-linecap:butt;stroke-linejoin:miter;stroke-miterlimit:10;stroke-dasharray:none;stroke-opacity:1"
           d="m 316.969,186.684 h -33.84 c -7.52,0 -11.281,3.761 -11.281,11.281 v 5.64 c 0,3.758 -2.493,5.637 -7.481,5.637 h -7.48" /></g><g
         id="g280"><path
           id="path282"
           style="fill:#000000;fill-opacity:1;fill-rule:nonzero;stroke:#000000;stroke-width:2.25600004;stroke-linecap:butt;stroke-linejoin:miter;stroke-miterlimit:10;stroke-dasharray:none;stroke-opacity:1"
           d="m 251.812,209.242 6.766,-3.383 -1.691,3.383 1.691,3.387 z" /></g><g
         id="g284"><path
           id="path286"
           style="fill:none;stroke:#000000;stroke-width:2.25600004;stroke-linecap:butt;stroke-linejoin:miter;stroke-miterlimit:10;stroke-dasharray:none;stroke-opacity:1"
           d="m 316.969,231.805 h -33.84 c -7.52,0 -11.281,-3.762 -11.281,-11.282 v -5.64 c 0,-3.758 -2.493,-5.641 -7.481,-5.641 h -7.48" /></g><g
         id="g288"><path
           id="path290"
           style="fill:#000000;fill-opacity:1;fill-rule:nonzero;stroke:#000000;stroke-width:2.25600004;stroke-linecap:butt;stroke-linejoin:miter;stroke-miterlimit:10;stroke-dasharray:none;stroke-opacity:1"
           d="m 251.812,209.242 6.766,-3.383 -1.691,3.383 1.691,3.387 z" /></g><g
         id="g292"><path
           id="path294"
           style="fill:none;stroke:#000000;stroke-width:2.25600004;stroke-linecap:butt;stroke-linejoin:miter;stroke-miterlimit:10;stroke-dasharray:none;stroke-opacity:1"
           d="m 316.969,276.926 h -33.84 c -7.52,0 -11.281,-3.762 -11.281,-11.281 v -45.122 c 0,-7.519 -2.493,-11.281 -7.481,-11.281 h -7.48" /></g><g
         id="g296"><path
           id="path298"
           style="fill:#000000;fill-opacity:1;fill-rule:nonzero;stroke:#000000;stroke-width:2.25600004;stroke-linecap:butt;stroke-linejoin:miter;stroke-miterlimit:10;stroke-dasharray:none;stroke-opacity:1"
           d="m 251.812,209.242 6.766,-3.383 -1.691,3.383 1.691,3.387 z" /></g><g
         id="g300"><path
           id="path302"
           style="fill:none;stroke:#000000;stroke-width:1.12800002;stroke-linecap:butt;stroke-linejoin:miter;stroke-miterlimit:10;stroke-dasharray:none;stroke-opacity:1"
           d="m 34.969,361.523 h 259.438 v 25.945 H 34.969 Z" /></g><g
         id="g304"><path
           id="path306"
           style="fill:none;stroke:#000000;stroke-width:1.12800002;stroke-linecap:butt;stroke-linejoin:miter;stroke-miterlimit:10;stroke-dasharray:none;stroke-opacity:1"
           d="m 34.969,387.469 v 86.855 h 259.437 v -86.855" /></g><text
         id="text310"
         style="font-variant:normal;font-weight:bold;font-size:13.53600121px;font-family:Arimo;-inkscape-font-specification:Arimo-Bold;writing-mode:lr-tb;fill:#000000;fill-opacity:1;fill-rule:nonzero;stroke:none"
         transform="translate(94.707935,379.71303)"><tspan
           id="tspan308"
           y="0"
           x="0 3.7494724 11.275489 18.801506 24.067009 27.816483 33.081985 41.338947 49.595909 53.345379 65.378883 69.886375 77.412392 84.938408 92.464424 99.99044 107.51646 115.81403 119.5635 127.82046 131.56993">/var/run/mtk3339d.pid</tspan></text>
<g
         id="g312"><path
           id="path314"
           style="fill:none;stroke:#000000;stroke-width:1.12800002;stroke-linecap:butt;stroke-linejoin:miter;stroke-miterlimit:10;stroke-dasharray:none;stroke-opacity:1"
           d="M 80.09,92.688 V 55.082 c 0,-5.187 12.625,-9.398 28.199,-9.398 15.574,0 28.199,4.211 28.199,9.398 v 37.606 c 0,5.187 -12.625,9.398 -28.199,9.398 -15.574,0 -28.199,-4.211 -28.199,-9.398 z" /></g><g
         id="g316"><path
           id="path318"
           style="fill:none;stroke:#000000;stroke-width:1.12800002;stroke-linecap:butt;stroke-linejoin:miter;stroke-miterlimit:10;stroke-dasharray:none;stroke-opacity:1"
           d="m 80.09,55.082 c 0,5.195 12.625,9.406 28.199,9.406 15.574,0 28.199,-4.211 28.199,-9.406" /></g><text
         id="text324"
         style="font-variant:normal;font-weight:normal;font-size:13.53600121px;font-family:Arimo;-inkscape-font-specification:Arimo;writing-mode:lr-tb;fill:#000000;fill-opacity:1;fill-rule:nonzero;stroke:none"
         transform="translate(93.985312,78.396017)"><tspan
           id="tspan320"
           y="0"
           x="0 10.517473 19.53245">GPS</tspan><tspan
           id="tspan322"
           y="15.791979"
           x="3.0138719 12.028849 15.77832">PID</tspan></text>
<g
         id="g326"><path
           id="path328"
           style="fill:none;stroke:#000000;stroke-width:1.12800002;stroke-linecap:butt;stroke-linejoin:miter;stroke-miterlimit:10;stroke-dasharray:none;stroke-opacity:1"
           d="m 136.488,453.645 v -37.602 c 0,-5.191 12.625,-9.398 28.2,-9.398 15.574,0 28.199,4.207 28.199,9.398 v 37.602 c 0,5.191 -12.625,9.398 -28.199,9.398 -15.575,0 -28.2,-4.207 -28.2,-9.398 z" /></g><g
         id="g330"><path
           id="path332"
           style="fill:none;stroke:#000000;stroke-width:1.12800002;stroke-linecap:butt;stroke-linejoin:miter;stroke-miterlimit:10;stroke-dasharray:none;stroke-opacity:1"
           d="m 136.488,416.043 c 0,5.195 12.625,9.402 28.2,9.402 15.574,0 28.199,-4.207 28.199,-9.402" /></g><text
         id="text336"
         style="font-variant:normal;font-weight:normal;font-size:13.53600121px;font-family:Arimo;-inkscape-font-specification:Arimo;writing-mode:lr-tb;fill:#000000;fill-opacity:1;fill-rule:nonzero;stroke:none"
         transform="translate(153.39919,439.35602)"><tspan
           id="tspan334"
           y="0"
           x="0 9.0149765 12.764449">PID</tspan></text>
<g
         id="g338"><path
           id="path340"
           style="fill:none;stroke:#000000;stroke-width:2.25600004;stroke-linecap:butt;stroke-linejoin:miter;stroke-miterlimit:10;stroke-dasharray:none;stroke-opacity:1"
           d="M 531.289,429.203 H 302.008" /></g><g
         id="g342"><path
           id="path344"
           style="fill:#000000;fill-opacity:1;fill-rule:nonzero;stroke:#000000;stroke-width:2.25600004;stroke-linecap:butt;stroke-linejoin:miter;stroke-miterlimit:10;stroke-dasharray:none;stroke-opacity:1"
           d="m 296.934,429.203 6.765,-3.383 -1.691,3.383 1.691,3.387 z" /></g><g
         id="g346"><path
           id="path348"
           style="fill:none;stroke:#000000;stroke-width:1.12800002;stroke-linecap:butt;stroke-linejoin:miter;stroke-miterlimit:4;stroke-dasharray:none;stroke-opacity:1"
           d="m 57.527,181.043 h 101.52 v 45.121 H 57.527 Z" /></g><text
         id="text352"
         style="font-variant:normal;font-weight:normal;font-size:13.53600121px;font-family:Arimo;-inkscape-font-specification:Arimo;writing-mode:lr-tb;fill:#000000;fill-opacity:1;fill-rule:nonzero;stroke:none"
         transform="translate(71.381249,208.11602)"><tspan
           id="tspan350"
           y="0"
           x="0 7.5260167 15.052033 18.801506 26.327522 33.853539 41.379555 48.147556 55.673573 63.240196 66.245186">get_gps_pid</tspan></text>
<g
         id="g354"><path
           id="path356"
           style="fill:none;stroke:#000000;stroke-width:2.25600004;stroke-linecap:butt;stroke-linejoin:miter;stroke-miterlimit:10;stroke-dasharray:none;stroke-opacity:1"
           d="M 136.488,434.844 H 12.406 c -7.519,0 -11.277,-3.758 -11.277,-11.282 V 85.164 c 0,-7.519 3.758,-11.281 11.277,-11.281 h 60.082" /></g><g
         id="g358"><path
           id="path360"
           style="fill:#000000;fill-opacity:1;fill-rule:nonzero;stroke:#000000;stroke-width:2.25600004;stroke-linecap:butt;stroke-linejoin:miter;stroke-miterlimit:10;stroke-dasharray:none;stroke-opacity:1"
           d="M 77.562,73.883 70.797,77.27 72.488,73.883 70.797,70.5 Z" /></g><g
         id="g362"><path
           id="path364"
           style="fill:none;stroke:#000000;stroke-width:2.25600004;stroke-linecap:butt;stroke-linejoin:miter;stroke-miterlimit:10;stroke-dasharray:6.768, 6.768;stroke-dashoffset:0;stroke-opacity:1"
           d="m 108.289,226.164 c 0,71.441 -33.187,107.16 -99.562,107.16" /></g><g
         id="g366"><path
           id="path368"
           style="fill:#000000;fill-opacity:1;fill-rule:nonzero;stroke:#000000;stroke-width:2.25600004;stroke-linecap:butt;stroke-linejoin:miter;stroke-miterlimit:10;stroke-dasharray:none;stroke-opacity:1"
           d="m 3.652,333.324 6.766,-3.383 -1.691,3.383 1.691,3.383 z" /></g><g
         id="g370"><path
           id="path372"
           style="fill:#ff7f00;fill-opacity:1;fill-rule:nonzero;stroke:#000000;stroke-width:1.12800002;stroke-linecap:butt;stroke-linejoin:miter;stroke-miterlimit:10;stroke-dasharray:none;stroke-opacity:1"
           d="m 508.727,361.523 h 248.16 v 25.945 h -248.16 z" /></g><g
         id="g374"><path
           id="path376"
           style="fill:none;stroke:#000000;stroke-width:1.12800002;stroke-linecap:butt;stroke-linejoin:miter;stroke-miterlimit:10;stroke-dasharray:none;stroke-opacity:1"
           d="m 508.727,387.469 v 86.855 h 248.16 v -86.855" /></g><text
         id="text380"
         style="font-variant:normal;font-weight:bold;font-size:13.53600121px;font-family:Arimo;-inkscape-font-specification:Arimo-Bold;writing-mode:lr-tb;fill:#000000;fill-opacity:1;fill-rule:nonzero;stroke:none"
         transform="translate(569.58272,379.71303)"><tspan
           id="tspan378"
           y="0"
           x="0 3.7494724 11.275489 15.782977 23.308994 27.058466 30.807938 39.064899 42.814373 47.321861 51.82935 60.126915 63.876389 75.909897 80.417381 87.943398 95.469414 102.99543 110.52145 118.04746">/etc/init!d/mtk3339d</tspan></text>
<g
         id="g382"><path
           id="path384"
           style="fill:none;stroke:#000000;stroke-width:2.25600004;stroke-linecap:butt;stroke-linejoin:miter;stroke-miterlimit:10;stroke-dasharray:none;stroke-opacity:1"
           d="M 926.09,197.965 H 798.328" /></g><g
         id="g386"><path
           id="path388"
           style="fill:#000000;fill-opacity:1;fill-rule:nonzero;stroke:#000000;stroke-width:2.25600004;stroke-linecap:butt;stroke-linejoin:miter;stroke-miterlimit:10;stroke-dasharray:none;stroke-opacity:1"
           d="m 793.25,197.965 6.77,-3.387 -1.692,3.387 1.692,3.383 z" /></g><text
         id="text392"
         style="font-variant:normal;font-weight:normal;font-size:12.40799999px;font-family:Arimo;-inkscape-font-specification:Arimo;writing-mode:lr-tb;fill:#000000;fill-opacity:1;fill-rule:nonzero;stroke:none"
         transform="translate(826.67309,192.324)"><tspan
           id="tspan390"
           y="0"
           x="0 8.9585762 15.857424 19.294439 26.193289 29.630304 33.067322 37.199184 44.098034 50.99688 57.200878 59.955456">Data transit</tspan></text>
<g
         id="g394"><path
           id="path396"
           style="fill:none;stroke:#000000;stroke-width:2.25600004;stroke-linecap:butt;stroke-linejoin:miter;stroke-miterlimit:10;stroke-dasharray:6.768, 6.768;stroke-dashoffset:0;stroke-opacity:1"
           d="M 926.09,220.523 H 798.328" /></g><g
         id="g398"><path
           id="path400"
           style="fill:#000000;fill-opacity:1;fill-rule:nonzero;stroke:#000000;stroke-width:2.25600004;stroke-linecap:butt;stroke-linejoin:miter;stroke-miterlimit:10;stroke-dasharray:none;stroke-opacity:1"
           d="m 793.25,220.523 6.77,-3.382 -1.692,3.382 1.692,3.383 z" /></g><text
         id="text404"
         style="font-variant:normal;font-weight:normal;font-size:12.40799999px;font-family:Arimo;-inkscape-font-specification:Arimo;writing-mode:lr-tb;fill:#000000;fill-opacity:1;fill-rule:nonzero;stroke:none"
         transform="translate(838.95991,214.884)"><tspan
           id="tspan402"
           y="0"
           x="0 7.1097841 11.241648 13.996224 20.895073 27.831144 34.729992">Trigger</tspan></text>
<g
         id="g406"><path
           id="path408"
           style="fill:none;stroke:#000000;stroke-width:1.12800002;stroke-linecap:butt;stroke-linejoin:miter;stroke-miterlimit:4;stroke-dasharray:none;stroke-opacity:1"
           d="m 655.367,45.684 h 78.961 v 45.121 h -78.961 z" /></g><text
         id="text412"
         style="font-variant:normal;font-weight:normal;font-size:13.53600121px;font-family:Arimo;-inkscape-font-specification:Arimo;writing-mode:lr-tb;fill:#000000;fill-opacity:1;fill-rule:nonzero;stroke:none"
         transform="translate(671.50369,72.756017)"><tspan
           id="tspan410"
           y="0"
           x="0 3.0049922 10.531009 13.536001 17.285473 24.811489 32.337505 39.863522">init_gps</tspan></text>
<g
         id="g414"><path
           id="path416"
           style="fill:none;stroke:#000000;stroke-width:2.25600004;stroke-linecap:butt;stroke-linejoin:miter;stroke-miterlimit:10;stroke-dasharray:none;stroke-opacity:1"
           d="m 734.328,68.242 h 71.36" /></g><g
         id="g418"><path
           id="path420"
           style="fill:#000000;fill-opacity:1;fill-rule:nonzero;stroke:#000000;stroke-width:2.25600004;stroke-linecap:butt;stroke-linejoin:miter;stroke-miterlimit:10;stroke-dasharray:none;stroke-opacity:1"
           d="m 810.766,68.242 -6.77,3.387 1.692,-3.387 -1.692,-3.383 z" /></g><g
         id="g422"><path
           id="path424"
           style="fill:#ff7f00;fill-opacity:1;fill-rule:evenodd;stroke:#ff7f00;stroke-width:0.98699999;stroke-linecap:round;stroke-linejoin:bevel;stroke-miterlimit:10;stroke-dasharray:2.961, 2.961;stroke-dashoffset:0;stroke-opacity:1"
           d="m 617.793,368.691 h 2.648 v 8.438 h -2.648 z" /></g></g></g></svg>