<?xml version="1.0" encoding="UTF-8" standalone="no"?>
<svg
   xmlns:dc="http://purl.org/dc/elements/1.1/"
   xmlns:cc="http://creativecommons.org/ns#"
   xmlns:rdf="http://www.w3.org/1999/02/22-rdf-syntax-ns#"
   xmlns:svg="http://www.w3.org/2000/svg"
   xmlns="http://www.w3.org/2000/svg"
   viewBox="0 0 320.04001 202.44"
   height="202.44"
   width="320.04001"
   xml:space="preserve"
   id="svg2"
   version="1.1"><metadata
     id="metadata8"><rdf:RDF><cc:Work
         rdf:about=""><dc:format>image/svg+xml</dc:format><dc:type
           rdf:resource="http://purl.org/dc/dcmitype/StillImage" /></cc:Work></rdf:RDF></metadata><defs
     id="defs6" /><g
     transform="matrix(1.3333333,0,0,1.3333333,0,2.3943334e-6)"
     id="g10"><g
       id="g12"><g
         id="g14"><path
           id="path16"
           style="fill:none;stroke:#000000;stroke-width:0.63;stroke-linecap:butt;stroke-linejoin:miter;stroke-miterlimit:4;stroke-dasharray:none;stroke-opacity:1"
           d="m 10.469,0.316 h 219.09 c 5.629,0 10.156,4.528 10.156,10.153 v 130.89 c 0,5.625 -4.527,10.157 -10.156,10.157 H 10.469 c -5.625,0 -10.153,-4.532 -10.153,-10.157 V 10.469 C 0.316,4.844 4.844,0.316 10.469,0.316 Z" /></g><g
         id="g18"><path
           id="path20"
           style="fill:#ff7f00;fill-opacity:1;fill-rule:nonzero;stroke:#000000;stroke-width:0.63;stroke-linecap:butt;stroke-linejoin:miter;stroke-miterlimit:4;stroke-dasharray:none;stroke-opacity:1"
           d="m 233.414,138.914 c 0,3.481 -2.82,6.301 -6.301,6.301 -3.476,0 -6.297,-2.82 -6.297,-6.301 0,-3.476 2.821,-6.301 6.297,-6.301 3.481,0 6.301,2.825 6.301,6.301 z" /></g><g
         id="g22"><path
           id="path24"
           style="fill:#ff7f00;fill-opacity:1;fill-rule:nonzero;stroke:#000000;stroke-width:0.63;stroke-linecap:butt;stroke-linejoin:miter;stroke-miterlimit:4;stroke-dasharray:none;stroke-opacity:1"
           d="m 233.414,12.914 c 0,3.481 -2.82,6.301 -6.301,6.301 -3.476,0 -6.297,-2.82 -6.297,-6.301 0,-3.476 2.821,-6.301 6.297,-6.301 3.481,0 6.301,2.825 6.301,6.301 z" /></g><g
         id="g26"><path
           id="path28"
           style="fill:#ff7f00;fill-opacity:1;fill-rule:nonzero;stroke:#000000;stroke-width:0.63;stroke-linecap:butt;stroke-linejoin:miter;stroke-miterlimit:4;stroke-dasharray:none;stroke-opacity:1"
           d="m 75.914,138.914 c 0,3.481 -2.82,6.301 -6.301,6.301 -3.476,0 -6.297,-2.82 -6.297,-6.301 0,-3.476 2.821,-6.301 6.297,-6.301 3.481,0 6.301,2.825 6.301,6.301 z" /></g><g
         id="g30"><path
           id="path32"
           style="fill:#ff7f00;fill-opacity:1;fill-rule:nonzero;stroke:#000000;stroke-width:0.63;stroke-linecap:butt;stroke-linejoin:miter;stroke-miterlimit:4;stroke-dasharray:none;stroke-opacity:1"
           d="m 75.914,12.914 c 0,3.481 -2.82,6.301 -6.301,6.301 -3.476,0 -6.297,-2.82 -6.297,-6.301 0,-3.476 2.821,-6.301 6.297,-6.301 3.481,0 6.301,2.825 6.301,6.301 z" /></g><g
         id="g34"><path
           id="path36"
           style="fill:#ff7f00;fill-opacity:1;fill-rule:nonzero;stroke:#000000;stroke-width:0.63;stroke-linecap:butt;stroke-linejoin:miter;stroke-miterlimit:4;stroke-dasharray:none;stroke-opacity:1"
           d="m 82.215,132.613 h 132.301 v 12.602 H 82.215 Z" /></g><g
         id="g38"><path
           id="path40"
           style="fill:none;stroke:#000000;stroke-width:0.63;stroke-linecap:butt;stroke-linejoin:miter;stroke-miterlimit:4;stroke-dasharray:none;stroke-opacity:1"
           d="m 220.816,88.516 h 6.297 v 31.5 h -6.297 z" /></g><g
         id="g42"><path
           id="path44"
           style="fill:none;stroke:#000000;stroke-width:0.63;stroke-linecap:butt;stroke-linejoin:miter;stroke-miterlimit:4;stroke-dasharray:none;stroke-opacity:1"
           d="m 220.816,50.715 h 6.297 v 25.199 h -6.297 z" /></g><g
         id="g46"><path
           id="path48"
           style="fill:none;stroke:#000000;stroke-width:0.63;stroke-linecap:butt;stroke-linejoin:miter;stroke-miterlimit:4;stroke-dasharray:none;stroke-opacity:1"
           d="m 201.914,12.914 h 12.602 v 6.301 h -12.602 z" /></g><g
         id="g50"><path
           id="path52"
           style="fill:none;stroke:#000000;stroke-width:0.63;stroke-linecap:butt;stroke-linejoin:miter;stroke-miterlimit:4;stroke-dasharray:none;stroke-opacity:1"
           d="m 183.016,12.914 h 12.598 v 6.301 h -12.598 z" /></g><g
         id="g54"><path
           id="path56"
           style="fill:none;stroke:#000000;stroke-width:0.63;stroke-linecap:butt;stroke-linejoin:miter;stroke-miterlimit:4;stroke-dasharray:none;stroke-opacity:1"
           d="m 164.113,12.914 h 12.602 v 6.301 h -12.602 z" /></g><g
         id="g58"><path
           id="path60"
           style="fill:none;stroke:#000000;stroke-width:0.63;stroke-linecap:butt;stroke-linejoin:miter;stroke-miterlimit:4;stroke-dasharray:none;stroke-opacity:1"
           d="m 145.215,12.914 h 12.602 v 6.301 h -12.602 z" /></g><g
         id="g62"><path
           id="path64"
           style="fill:none;stroke:#000000;stroke-width:0.63;stroke-linecap:butt;stroke-linejoin:miter;stroke-miterlimit:4;stroke-dasharray:none;stroke-opacity:1"
           d="m 126.316,12.914 h 12.598 v 6.301 h -12.598 z" /></g><g
         id="g66"><path
           id="path68"
           style="fill:none;stroke:#000000;stroke-width:0.63;stroke-linecap:butt;stroke-linejoin:miter;stroke-miterlimit:4;stroke-dasharray:none;stroke-opacity:1"
           d="m 94.816,12.914 h 12.598 v 6.301 H 94.816 Z" /></g><g
         id="g70"><path
           id="path72"
           style="fill:none;stroke:#000000;stroke-width:0.63;stroke-linecap:butt;stroke-linejoin:miter;stroke-miterlimit:4;stroke-dasharray:1.89, 1.89;stroke-dashoffset:0;stroke-opacity:1"
           d="M 12.914,19.215 H 25.516 V 31.817 H 12.914 Z" /></g><g
         id="g74"><path
           id="path76"
           style="fill:none;stroke:#000000;stroke-width:0.63;stroke-linecap:butt;stroke-linejoin:miter;stroke-miterlimit:4;stroke-dasharray:1.89, 1.89;stroke-dashoffset:0;stroke-opacity:1"
           d="M 12.914,69.613 H 25.516 V 82.215 H 12.914 Z" /></g><g
         id="g78"><path
           id="path80"
           style="fill:none;stroke:#000000;stroke-width:0.63;stroke-linecap:butt;stroke-linejoin:miter;stroke-miterlimit:4;stroke-dasharray:1.89, 1.89;stroke-dashoffset:0;stroke-opacity:1"
           d="m 12.914,120.016 h 12.602 v 12.598 H 12.914 Z" /></g><g
         id="g82"><path
           id="path84"
           style="fill:none;stroke:#000000;stroke-width:0.63;stroke-linecap:butt;stroke-linejoin:miter;stroke-miterlimit:4;stroke-dasharray:none;stroke-opacity:1"
           d="m 0.316,6.613 h 50.398 v 6.301 H 0.316 Z" /></g><g
         id="g86"><path
           id="path88"
           style="fill:none;stroke:#000000;stroke-width:0.63;stroke-linecap:butt;stroke-linejoin:miter;stroke-miterlimit:4;stroke-dasharray:none;stroke-opacity:1"
           d="m 0.316,38.113 h 50.398 v 6.301 H 0.316 Z" /></g><g
         id="g90"><path
           id="path92"
           style="fill:none;stroke:#000000;stroke-width:0.63;stroke-linecap:butt;stroke-linejoin:miter;stroke-miterlimit:4;stroke-dasharray:none;stroke-opacity:1"
           d="m 0.316,57.016 h 50.398 v 6.301 H 0.316 Z" /></g><g
         id="g94"><path
           id="path96"
           style="fill:none;stroke:#000000;stroke-width:0.63;stroke-linecap:butt;stroke-linejoin:miter;stroke-miterlimit:4;stroke-dasharray:none;stroke-opacity:1"
           d="m 0.316,88.516 h 50.398 v 6.301 H 0.316 Z" /></g><g
         id="g98"><path
           id="path100"
           style="fill:none;stroke:#000000;stroke-width:0.63;stroke-linecap:butt;stroke-linejoin:miter;stroke-miterlimit:4;stroke-dasharray:none;stroke-opacity:1"
           d="m 0.316,107.414 h 50.398 v 6.301 H 0.316 Z" /></g><g
         id="g102"><path
           id="path104"
           style="fill:none;stroke:#000000;stroke-width:0.63;stroke-linecap:butt;stroke-linejoin:miter;stroke-miterlimit:4;stroke-dasharray:none;stroke-opacity:1"
           d="m 0.316,138.914 h 50.398 v 6.301 H 0.316 Z" /></g><g
         id="g106"><path
           id="path108"
           style="fill:#ff7f00;fill-opacity:1;fill-rule:nonzero;stroke:#000000;stroke-width:0.63;stroke-linecap:butt;stroke-linejoin:miter;stroke-miterlimit:4;stroke-dasharray:none;stroke-opacity:1"
           d="m 145.215,63.316 h 25.199 v 25.199 h -25.199 z" /></g><g
         id="g110"><path
           id="path112"
           style="fill:#ffffff;fill-opacity:1;fill-rule:nonzero;stroke:#000000;stroke-width:0.63;stroke-linecap:butt;stroke-linejoin:miter;stroke-miterlimit:4;stroke-dasharray:none;stroke-opacity:1"
           d="m 164.113,75.914 c 0,3.481 -2.82,6.301 -6.297,6.301 -3.48,0 -6.3,-2.82 -6.3,-6.301 0,-3.476 2.82,-6.301 6.3,-6.301 3.477,0 6.297,2.825 6.297,6.301 z" /></g><g
         id="g114"><path
           id="path116"
           style="fill:none;stroke:#000000;stroke-width:0.63;stroke-linecap:butt;stroke-linejoin:miter;stroke-miterlimit:4;stroke-dasharray:none;stroke-opacity:1"
           d="m 145.215,94.816 h 25.199 v 18.898 h -25.199 z" /></g><g
         id="g118"><path
           id="path120"
           style="fill:none;stroke:#000000;stroke-width:0.63;stroke-linecap:butt;stroke-linejoin:miter;stroke-miterlimit:4;stroke-dasharray:none;stroke-opacity:1"
           d="m 120.016,44.414 h 18.898 v 63 h -18.898 z" /></g><g
         id="g122"><path
           id="path124"
           style="fill:none;stroke:#000000;stroke-width:0.63;stroke-linecap:butt;stroke-linejoin:miter;stroke-miterlimit:4;stroke-dasharray:none;stroke-opacity:1"
           d="M 0.316,6.613 H 50.714 V 44.414 H 0.316 Z" /></g><g
         id="g126"><path
           id="path128"
           style="fill:none;stroke:#000000;stroke-width:0.63;stroke-linecap:butt;stroke-linejoin:miter;stroke-miterlimit:4;stroke-dasharray:none;stroke-opacity:1"
           d="M 0.316,57.016 H 50.714 V 94.817 H 0.316 Z" /></g><g
         id="g130"><path
           id="path132"
           style="fill:none;stroke:#000000;stroke-width:0.63;stroke-linecap:butt;stroke-linejoin:miter;stroke-miterlimit:4;stroke-dasharray:none;stroke-opacity:1"
           d="m 0.316,107.414 h 50.398 v 37.801 H 0.316 Z" /></g><g
         id="g134"><path
           id="path136"
           style="fill:none;stroke:#000000;stroke-width:0.63;stroke-linecap:butt;stroke-linejoin:miter;stroke-miterlimit:4;stroke-dasharray:none;stroke-opacity:1"
           d="m 126.316,50.715 h 6.297 v 50.398 h -6.297 z" /></g></g></g></svg>