<?xml version="1.0" encoding="UTF-8" standalone="no"?>
<svg
   xmlns:dc="http://purl.org/dc/elements/1.1/"
   xmlns:cc="http://creativecommons.org/ns#"
   xmlns:rdf="http://www.w3.org/1999/02/22-rdf-syntax-ns#"
   xmlns:svg="http://www.w3.org/2000/svg"
   xmlns="http://www.w3.org/2000/svg"
   viewBox="0 0 1024.976 618.14398"
   height="618.14398"
   width="1024.976"
   xml:space="preserve"
   id="svg2"
   version="1.1"><metadata
     id="metadata8"><rdf:RDF><cc:Work
         rdf:about=""><dc:format>image/svg+xml</dc:format><dc:type
           rdf:resource="http://purl.org/dc/dcmitype/StillImage" /></cc:Work></rdf:RDF></metadata><defs
     id="defs6" /><g
     transform="matrix(1.3333333,0,0,1.3333333,0,1.2786933e-5)"
     id="g10"><g
       id="g12"><g
         id="g14"><path
           id="path16"
           style="fill:none;stroke:#000000;stroke-width:1.12800002;stroke-linecap:butt;stroke-linejoin:miter;stroke-miterlimit:4;stroke-dasharray:none;stroke-opacity:1"
           d="m 258.574,90.805 h 126.942 c 5.457,0 9.847,4.39 9.847,9.847 v 205.903 c 0,5.457 -4.39,9.847 -9.847,9.847 H 258.574 c -5.457,0 -9.851,-4.39 -9.851,-9.847 V 100.652 c 0,-5.457 4.394,-9.847 9.851,-9.847 z" /></g><text
         id="text22"
         style="font-variant:normal;font-weight:normal;font-size:13.53600121px;font-family:Arimo;-inkscape-font-specification:Arimo;writing-mode:lr-tb;fill:#000000;fill-opacity:1;fill-rule:nonzero;stroke:none"
         transform="translate(290.79487,200.22001)"><tspan
           id="tspan18"
           y="0"
           x="0 9.7729931 17.299009 24.067009 31.593027 39.119041 46.645058 51.193157 55.700645">Raspberry</tspan><tspan
           id="tspan20"
           y="15.791979"
           x="13.179097 22.194075 25.199066 28.948538 36.474556 40.224026">Pi 3 B</tspan></text>
<g
         id="g24"><path
           id="path26"
           style="fill:none;stroke:#000000;stroke-width:1.12800002;stroke-linecap:butt;stroke-linejoin:miter;stroke-miterlimit:4;stroke-dasharray:none;stroke-opacity:1"
           d="m 450.332,90.805 h 126.941 c 5.457,0 9.852,4.39 9.852,9.847 v 205.903 c 0,5.457 -4.395,9.847 -9.852,9.847 H 450.332 c -5.457,0 -9.848,-4.39 -9.848,-9.847 V 100.652 c 0,-5.457 4.391,-9.847 9.848,-9.847 z" /></g><g
         id="g28"><path
           id="path30"
           style="fill:none;stroke:#000000;stroke-width:1.12800002;stroke-linecap:butt;stroke-linejoin:miter;stroke-miterlimit:4;stroke-dasharray:none;stroke-opacity:1"
           d="m 654.805,119.004 c 0,9.344 -7.575,16.922 -16.922,16.922 -9.344,0 -16.918,-7.578 -16.918,-16.922 0,-9.344 7.574,-16.918 16.918,-16.918 9.347,0 16.922,7.574 16.922,16.918 z" /></g><text
         id="text34"
         style="font-variant:normal;font-weight:normal;font-size:13.53600121px;font-family:Arimo;-inkscape-font-specification:Arimo;writing-mode:lr-tb;fill:#000000;fill-opacity:1;fill-rule:nonzero;stroke:none"
         transform="translate(632.23959,123.51602)"><tspan
           id="tspan32"
           y="0"
           x="0">M</tspan></text>
<g
         id="g36"><path
           id="path38"
           style="fill:none;stroke:#000000;stroke-width:1.12800002;stroke-linecap:butt;stroke-linejoin:miter;stroke-miterlimit:4;stroke-dasharray:none;stroke-opacity:1"
           d="m 654.805,164.125 c 0,9.344 -7.575,16.918 -16.922,16.918 -9.344,0 -16.918,-7.574 -16.918,-16.918 0,-9.344 7.574,-16.922 16.918,-16.922 9.347,0 16.922,7.578 16.922,16.922 z" /></g><text
         id="text42"
         style="font-variant:normal;font-weight:normal;font-size:13.53600121px;font-family:Arimo;-inkscape-font-specification:Arimo;writing-mode:lr-tb;fill:#000000;fill-opacity:1;fill-rule:nonzero;stroke:none"
         transform="translate(632.23959,168.63602)"><tspan
           id="tspan40"
           y="0"
           x="0">M</tspan></text>
<g
         id="g44"><path
           id="path46"
           style="fill:none;stroke:#000000;stroke-width:1.12800002;stroke-linecap:butt;stroke-linejoin:miter;stroke-miterlimit:4;stroke-dasharray:none;stroke-opacity:1"
           d="m 510.434,102.086 h 63.14 c 1.258,0 2.27,1.012 2.27,2.269 v 29.297 c 0,1.258 -1.012,2.274 -2.27,2.274 h -63.14 c -1.258,0 -2.27,-1.016 -2.27,-2.274 v -29.297 c 0,-1.257 1.012,-2.269 2.27,-2.269 z" /></g><text
         id="text50"
         style="font-variant:normal;font-weight:normal;font-size:13.53600121px;font-family:Arimo;-inkscape-font-specification:Arimo;writing-mode:lr-tb;fill:#000000;fill-opacity:1;fill-rule:nonzero;stroke:none"
         transform="translate(512.63194,123.51602)"><tspan
           id="tspan48"
           y="0"
           x="0 9.7729931 17.299009 24.825026 28.574497 33.081985 40.608002 43.653603 46.658596 54.184612">Controller</tspan></text>
<g
         id="g52"><path
           id="path54"
           style="fill:none;stroke:#000000;stroke-width:1.12800002;stroke-linecap:butt;stroke-linejoin:miter;stroke-miterlimit:4;stroke-dasharray:none;stroke-opacity:1"
           d="m 510.434,147.203 h 63.14 c 1.258,0 2.27,1.012 2.27,2.27 v 29.3 c 0,1.258 -1.012,2.27 -2.27,2.27 h -63.14 c -1.258,0 -2.27,-1.012 -2.27,-2.27 v -29.3 c 0,-1.258 1.012,-2.27 2.27,-2.27 z" /></g><text
         id="text58"
         style="font-variant:normal;font-weight:normal;font-size:13.53600121px;font-family:Arimo;-inkscape-font-specification:Arimo;writing-mode:lr-tb;fill:#000000;fill-opacity:1;fill-rule:nonzero;stroke:none"
         transform="translate(512.63194,168.63602)"><tspan
           id="tspan56"
           y="0"
           x="0 9.7729931 17.299009 24.825026 28.574497 33.081985 40.608002 43.653603 46.658596 54.184612">Controller</tspan></text>
<g
         id="g60"><path
           id="path62"
           style="fill:none;stroke:#000000;stroke-width:1.12800002;stroke-linecap:butt;stroke-linejoin:miter;stroke-miterlimit:4;stroke-dasharray:none;stroke-opacity:1"
           d="m 454.035,271.285 h 119.539 c 1.258,0 2.27,1.012 2.27,2.27 v 29.3 c 0,1.258 -1.012,2.27 -2.27,2.27 H 454.035 c -1.258,0 -2.269,-1.012 -2.269,-2.27 v -29.3 c 0,-1.258 1.011,-2.27 2.269,-2.27 z" /></g><text
         id="text66"
         style="font-variant:normal;font-weight:normal;font-size:13.53600121px;font-family:Arimo;-inkscape-font-specification:Arimo;writing-mode:lr-tb;fill:#000000;fill-opacity:1;fill-rule:nonzero;stroke:none"
         transform="translate(492.36319,292.71602)"><tspan
           id="tspan64"
           y="0"
           x="0 9.7729931 19.545986 23.295458 33.068451">DC/DC</tspan></text>
<g
         id="g68"><path
           id="path70"
           style="fill:none;stroke:#000000;stroke-width:1.12800002;stroke-linecap:butt;stroke-linejoin:miter;stroke-miterlimit:4;stroke-dasharray:none;stroke-opacity:1"
           d="m 487.875,338.965 h 51.859 c 1.258,0 2.27,1.012 2.27,2.269 v 29.301 c 0,1.258 -1.012,2.27 -2.27,2.27 h -51.859 c -1.258,0 -2.27,-1.012 -2.27,-2.27 v -29.301 c 0,-1.257 1.012,-2.269 2.27,-2.269 z" /></g><text
         id="text74"
         style="font-variant:normal;font-weight:normal;font-size:13.53600121px;font-family:Arimo;-inkscape-font-specification:Arimo;writing-mode:lr-tb;fill:#000000;fill-opacity:1;fill-rule:nonzero;stroke:none"
         transform="translate(492.73331,360.39602)"><tspan
           id="tspan72"
           y="0"
           x="0 9.0149765 18.78797 22.537441 32.310436">AC/DC</tspan></text>
<g
         id="g76"><path
           id="path78"
           style="fill:none;stroke:#000000;stroke-width:1.12800002;stroke-linecap:butt;stroke-linejoin:miter;stroke-miterlimit:4;stroke-dasharray:none;stroke-opacity:1"
           d="m 286.352,0.562 h 71.386 c 2.098,0 3.785,1.692 3.785,3.79 V 53.18 c 0,2.097 -1.687,3.785 -3.785,3.785 h -71.386 c -2.098,0 -3.79,-1.688 -3.79,-3.785 V 4.352 c 0,-2.098 1.692,-3.79 3.79,-3.79 z" /></g><text
         id="text82"
         style="font-variant:normal;font-weight:normal;font-size:13.53600121px;font-family:Arimo;-inkscape-font-specification:Arimo;writing-mode:lr-tb;fill:#000000;fill-opacity:1;fill-rule:nonzero;stroke:none"
         transform="translate(297.94622,33.275996)"><tspan
           id="tspan80"
           y="0"
           x="0 9.7729931 17.299009 28.574497 36.100513 40.648609">Camera</tspan></text>
<g
         id="g84"><path
           id="path86"
           style="fill:none;stroke:#000000;stroke-width:1.12800002;stroke-linecap:butt;stroke-linejoin:miter;stroke-miterlimit:4;stroke-dasharray:none;stroke-opacity:1"
           d="m 117.148,102.086 h 71.391 c 2.098,0 3.785,1.687 3.785,3.785 v 48.828 c 0,2.098 -1.687,3.785 -3.785,3.785 h -71.391 c -2.097,0 -3.785,-1.687 -3.785,-3.785 v -48.828 c 0,-2.098 1.688,-3.785 3.785,-3.785 z" /></g><text
         id="text92"
         style="font-variant:normal;font-weight:normal;font-size:13.53600121px;font-family:Arimo;-inkscape-font-specification:Arimo;writing-mode:lr-tb;fill:#000000;fill-opacity:1;fill-rule:nonzero;stroke:none"
         transform="translate(134.77397,126.90001)"><tspan
           id="tspan88"
           y="0"
           x="0 6.7544646 14.280481 21.806498 28.574497">Touch</tspan><tspan
           id="tspan90"
           y="15.791979"
           x="-2.2604039 4.5075965 11.275598 15.783086 23.309101 30.835119">screen</tspan></text>
<path
         id="path94"
         style="fill:#000000;fill-opacity:1;fill-rule:nonzero;stroke:none"
         d="m 598.402,352.578 h -4.847 v -2.336 h -5.063 v 0.934 h -4.32 c -2.688,0 -4.844,1.449 -4.844,3.25 v 0.984 h -3.484 v 0.945 h 3.484 v 0.989 c 0,1.797 2.156,3.25 4.844,3.25 h 4.32 v 0.929 h 5.063 v -2.332 h 4.847 v -2.363 h -4.847 v -1.89 h 4.847 z m -1.449,0.945 v 0.473 h -3.527 v -0.473 z m 0,4.25 v 0.473 h -3.527 v -0.473 z m -4.894,-6.613 v 9.449 h -2.207 v -9.449 z m -2.864,0.918 v 7.613 h -5.203 v -0.015 c -1.844,-0.078 -3.304,-1.086 -3.304,-2.348 v -2.89 c 0,-1.262 1.46,-2.27 3.304,-2.348 v -0.012 z" /><g
         transform="rotate(90)"
         id="g96"><path
           id="path98"
           style="fill:#ffffff;fill-opacity:1;fill-rule:nonzero;stroke:#000000;stroke-width:1.12800002;stroke-linecap:round;stroke-linejoin:bevel;stroke-miterlimit:10;stroke-dasharray:none;stroke-opacity:1"
           d="m 354.191,-580.73 c -0.554,-0.079 -1.086,-0.481 -1.472,-1.106 -0.289,-0.465 -0.473,-1 -0.578,-1.68 -0.036,-0.246 -0.043,-0.336 -0.051,-2.961 v -2.714 h 7.586 v 2.714 c -0.008,2.625 -0.012,2.715 -0.047,2.961 -0.227,1.461 -0.926,2.477 -1.906,2.766 -0.133,0.043 -3.278,0.062 -3.532,0.02 z" /></g><g
         transform="rotate(90)"
         id="g100"><path
           id="path102"
           style="fill:#ffffff;fill-opacity:1;fill-rule:nonzero;stroke:#000000;stroke-width:1.12800002;stroke-linecap:round;stroke-linejoin:bevel;stroke-miterlimit:10;stroke-dasharray:none;stroke-opacity:1"
           d="m 354.043,-580.766 c -0.316,-0.082 -0.66,-0.296 -0.922,-0.562 -0.168,-0.172 -0.473,-0.621 -0.586,-0.867 -0.254,-0.535 -0.394,-1.149 -0.414,-1.758 -0.008,-0.168 -0.016,-1.41 -0.023,-2.77 l -0.012,-2.468 h 7.59 l -0.008,2.582 c -0.004,1.425 -0.02,2.699 -0.027,2.839 -0.028,0.332 -0.09,0.684 -0.203,1.032 -0.282,0.914 -0.778,1.55 -1.438,1.875 -0.172,0.078 -0.227,0.09 -0.508,0.113 -0.172,0.012 -0.988,0.02 -1.804,0.02 -1.184,0 -1.532,-0.008 -1.645,-0.036 z" /></g><g
         transform="rotate(90)"
         id="g104"><path
           id="path106"
           style="fill:#ffffff;fill-opacity:1;fill-rule:nonzero;stroke:#000000;stroke-width:1.12800002;stroke-linecap:round;stroke-linejoin:bevel;stroke-miterlimit:10;stroke-dasharray:none;stroke-opacity:1"
           d="m 351.168,-590.961 v -1.082 h 9.434 v 2.168 h -9.434 z" /></g><g
         transform="rotate(90)"
         id="g108"><path
           id="path110"
           style="fill:#ffffff;fill-opacity:1;fill-rule:nonzero;stroke:#000000;stroke-width:1.12800002;stroke-linecap:round;stroke-linejoin:bevel;stroke-miterlimit:10;stroke-dasharray:none;stroke-opacity:1"
           d="m 353.531,-595.195 v -1.743 h 0.457 v 3.489 h -0.457 z" /></g><g
         transform="rotate(90)"
         id="g112"><path
           id="path114"
           style="fill:#ffffff;fill-opacity:1;fill-rule:nonzero;stroke:#000000;stroke-width:1.12800002;stroke-linecap:round;stroke-linejoin:bevel;stroke-miterlimit:10;stroke-dasharray:none;stroke-opacity:1"
           d="m 357.781,-595.195 v -1.743 h 0.457 v 3.489 h -0.457 z" /></g><g
         id="g116"><path
           id="path118"
           style="fill:none;stroke:#000000;stroke-width:2.25600004;stroke-linecap:butt;stroke-linejoin:miter;stroke-miterlimit:10;stroke-dasharray:none;stroke-opacity:1"
           d="m 575.844,355.883 h -33.84" /></g><g
         id="g120"><path
           id="path122"
           style="fill:none;stroke:#000000;stroke-width:2.25600004;stroke-linecap:butt;stroke-linejoin:miter;stroke-miterlimit:10;stroke-dasharray:none;stroke-opacity:1"
           d="m 513.805,338.965 v -33.84" /></g><g
         id="g124"><path
           id="path126"
           style="fill:none;stroke:#000000;stroke-width:2.25600004;stroke-linecap:butt;stroke-linejoin:miter;stroke-miterlimit:10;stroke-dasharray:none;stroke-opacity:1"
           d="M 432.883,203.605 H 402.965" /></g><g
         id="g128"><path
           id="path130"
           style="fill:#000000;fill-opacity:1;fill-rule:nonzero;stroke:#000000;stroke-width:2.25600004;stroke-linecap:butt;stroke-linejoin:miter;stroke-miterlimit:10;stroke-dasharray:none;stroke-opacity:1"
           d="m 437.961,203.605 -6.77,3.383 1.692,-3.383 -1.692,-3.386 z" /></g><g
         id="g132"><path
           id="path134"
           style="fill:#000000;fill-opacity:1;fill-rule:nonzero;stroke:#000000;stroke-width:2.25600004;stroke-linecap:butt;stroke-linejoin:miter;stroke-miterlimit:10;stroke-dasharray:none;stroke-opacity:1"
           d="m 397.887,203.605 6.769,-3.386 -1.691,3.386 1.691,3.383 z" /></g><g
         id="g136"><path
           id="path138"
           style="fill:none;stroke:#000000;stroke-width:2.25600004;stroke-linecap:butt;stroke-linejoin:miter;stroke-miterlimit:10;stroke-dasharray:none;stroke-opacity:1"
           d="M 613.363,164.125 H 575.844" /></g><g
         id="g140"><path
           id="path142"
           style="fill:#000000;fill-opacity:1;fill-rule:nonzero;stroke:#000000;stroke-width:2.25600004;stroke-linecap:butt;stroke-linejoin:miter;stroke-miterlimit:10;stroke-dasharray:none;stroke-opacity:1"
           d="m 618.441,164.125 -6.769,3.383 1.691,-3.383 -1.691,-3.387 z" /></g><g
         id="g144"><path
           id="path146"
           style="fill:none;stroke:#000000;stroke-width:2.25600004;stroke-linecap:butt;stroke-linejoin:miter;stroke-miterlimit:10;stroke-dasharray:none;stroke-opacity:1"
           d="M 613.363,119.004 H 575.844" /></g><g
         id="g148"><path
           id="path150"
           style="fill:#000000;fill-opacity:1;fill-rule:nonzero;stroke:#000000;stroke-width:2.25600004;stroke-linecap:butt;stroke-linejoin:miter;stroke-miterlimit:10;stroke-dasharray:none;stroke-opacity:1"
           d="m 618.441,119.004 -6.769,3.383 1.691,-3.383 -1.691,-3.383 z" /></g><g
         id="g152"><path
           id="path154"
           style="fill:none;stroke:#000000;stroke-width:1.12800002;stroke-linecap:butt;stroke-linejoin:miter;stroke-miterlimit:4;stroke-dasharray:none;stroke-opacity:1"
           d="m 679.633,147.203 h 51.859 c 1.258,0 2.274,1.012 2.274,2.27 v 29.3 c 0,1.258 -1.016,2.27 -2.274,2.27 h -51.859 c -1.258,0 -2.27,-1.012 -2.27,-2.27 v -29.3 c 0,-1.258 1.012,-2.27 2.27,-2.27 z" /></g><text
         id="text160"
         style="font-variant:normal;font-weight:normal;font-size:13.53600121px;font-family:Arimo;-inkscape-font-specification:Arimo;writing-mode:lr-tb;fill:#000000;fill-opacity:1;fill-rule:nonzero;stroke:none"
         transform="translate(681.46622,160.74001)"><tspan
           id="tspan156"
           y="0"
           x="0 9.0149765 16.540993 23.308994 26.313986 30.063457 33.068451 40.594467">Position</tspan><tspan
           id="tspan158"
           y="15.791979"
           x="3.7673397 10.53534 18.061357 25.587374 32.355373 39.88139">sensor</tspan></text>
<g
         id="g162"><path
           id="path164"
           style="fill:none;stroke:#000000;stroke-width:1.12800002;stroke-linecap:butt;stroke-linejoin:miter;stroke-miterlimit:4;stroke-dasharray:none;stroke-opacity:1"
           d="m 679.633,102.086 h 51.859 c 1.258,0 2.274,1.012 2.274,2.269 v 29.297 c 0,1.258 -1.016,2.274 -2.274,2.274 h -51.859 c -1.258,0 -2.27,-1.016 -2.27,-2.274 v -29.297 c 0,-1.257 1.012,-2.269 2.27,-2.269 z" /></g><text
         id="text170"
         style="font-variant:normal;font-weight:normal;font-size:13.53600121px;font-family:Arimo;-inkscape-font-specification:Arimo;writing-mode:lr-tb;fill:#000000;fill-opacity:1;fill-rule:nonzero;stroke:none"
         transform="translate(681.46622,115.62001)"><tspan
           id="tspan166"
           y="0"
           x="0 9.0149765 16.540993 23.308994 26.313986 30.063457 33.068451 40.594467">Position</tspan><tspan
           id="tspan168"
           y="15.791979"
           x="3.7673397 10.53534 18.061357 25.587374 32.355373 39.88139">sensor</tspan></text>
<g
         id="g172"><path
           id="path174"
           style="fill:none;stroke:#000000;stroke-width:2.25600004;stroke-linecap:butt;stroke-linejoin:miter;stroke-miterlimit:10;stroke-dasharray:none;stroke-opacity:1"
           d="M 322.043,56.965 V 83.203" /></g><g
         id="g176"><path
           id="path178"
           style="fill:#000000;fill-opacity:1;fill-rule:nonzero;stroke:#000000;stroke-width:2.25600004;stroke-linecap:butt;stroke-linejoin:miter;stroke-miterlimit:10;stroke-dasharray:none;stroke-opacity:1"
           d="m 322.043,88.281 -3.383,-6.769 3.383,1.691 3.387,-1.691 z" /></g><g
         id="g180"><path
           id="path182"
           style="fill:none;stroke:#000000;stroke-width:2.25600004;stroke-linecap:butt;stroke-linejoin:miter;stroke-miterlimit:10;stroke-dasharray:none;stroke-opacity:1"
           d="m 199.926,130.285 h 41.199" /></g><g
         id="g184"><path
           id="path186"
           style="fill:#000000;fill-opacity:1;fill-rule:nonzero;stroke:#000000;stroke-width:2.25600004;stroke-linecap:butt;stroke-linejoin:miter;stroke-miterlimit:10;stroke-dasharray:none;stroke-opacity:1"
           d="m 194.848,130.285 6.769,-3.387 -1.691,3.387 1.691,3.383 z" /></g><g
         id="g188"><path
           id="path190"
           style="fill:#000000;fill-opacity:1;fill-rule:nonzero;stroke:#000000;stroke-width:2.25600004;stroke-linecap:butt;stroke-linejoin:miter;stroke-miterlimit:10;stroke-dasharray:none;stroke-opacity:1"
           d="m 246.199,130.285 -6.765,3.383 1.691,-3.383 -1.691,-3.387 z" /></g><g
         id="g192"><path
           id="path194"
           style="fill:none;stroke:#000000;stroke-width:2.25600004;stroke-linecap:butt;stroke-linejoin:miter;stroke-miterlimit:10;stroke-dasharray:none;stroke-opacity:1"
           d="m 733.766,164.125 h 11.277 c 7.519,0 11.281,3.758 11.281,11.277 v 62.043 c 0,7.52 -3.762,11.278 -11.281,11.278 h -150.32" /></g><g
         id="g196"><path
           id="path198"
           style="fill:#000000;fill-opacity:1;fill-rule:nonzero;stroke:#000000;stroke-width:2.25600004;stroke-linecap:butt;stroke-linejoin:miter;stroke-miterlimit:10;stroke-dasharray:none;stroke-opacity:1"
           d="m 589.648,248.723 6.766,-3.383 -1.691,3.383 1.691,3.386 z" /></g><g
         id="g200"><path
           id="path202"
           style="fill:none;stroke:#000000;stroke-width:2.25600004;stroke-linecap:butt;stroke-linejoin:miter;stroke-miterlimit:10;stroke-dasharray:none;stroke-opacity:1"
           d="m 733.766,119.004 h 22.558 c 7.52,0 11.281,3.762 11.281,11.281 v 118.438 c 0,7.519 -3.761,11.281 -11.281,11.281 H 594.723" /></g><g
         id="g204"><path
           id="path206"
           style="fill:#000000;fill-opacity:1;fill-rule:nonzero;stroke:#000000;stroke-width:2.25600004;stroke-linecap:butt;stroke-linejoin:miter;stroke-miterlimit:10;stroke-dasharray:none;stroke-opacity:1"
           d="m 589.648,260.004 6.766,-3.383 -1.691,3.383 1.691,3.383 z" /></g><g
         id="g208"><path
           id="path210"
           style="fill:none;stroke:#000000;stroke-width:1.12800002;stroke-linecap:butt;stroke-linejoin:miter;stroke-miterlimit:4;stroke-dasharray:none;stroke-opacity:1"
           d="m 34.402,79.523 c 0,6.231 -5.047,11.282 -11.277,11.282 -6.23,0 -11.281,-5.051 -11.281,-11.282 0,-6.23 5.051,-11.281 11.281,-11.281 6.23,0 11.277,5.051 11.277,11.281 z" /></g><g
         id="g212"><path
           id="path214"
           style="fill:none;stroke:#000000;stroke-width:1.12800002;stroke-linecap:butt;stroke-linejoin:miter;stroke-miterlimit:10;stroke-dasharray:none;stroke-opacity:1"
           d="m 23.125,90.805 v 37.597 m 0,-30.074 H 0.562 m 22.563,0 H 45.684 M 23.125,128.402 0.562,158.484 m 22.563,-30.082 22.559,30.082" /></g><g
         transform="scale(-1)"
         id="g216"><path
           id="path218"
           style="fill:none;stroke:#000000;stroke-width:1.12800002;stroke-linecap:butt;stroke-linejoin:miter;stroke-miterlimit:4;stroke-dasharray:none;stroke-opacity:1"
           d="m -0.562,-355.883 c 0,59.184 -50.504,107.16 -112.801,107.16 -62.297,0 -112.801,-47.976 -112.801,-107.16 0,-59.183 50.504,-107.16 112.801,-107.16 62.297,0 112.801,47.977 112.801,107.16 z" /></g><text
         id="text222"
         style="font-variant:normal;font-weight:normal;font-size:13.53600121px;font-family:Arimo;-inkscape-font-specification:Arimo;writing-mode:lr-tb;fill:#000000;fill-opacity:1;fill-rule:nonzero;stroke:none"
         transform="translate(88.525968,360.39602)"><tspan
           id="tspan220"
           y="0"
           x="0 9.7729931 17.299009 21.048481 30.821474 38.347492 42.85498">Network</tspan></text>
<g
         id="g224"><path
           id="path226"
           style="fill:none;stroke:#000000;stroke-width:1.12800002;stroke-linecap:butt;stroke-linejoin:miter;stroke-miterlimit:4;stroke-dasharray:none;stroke-opacity:1"
           d="m 93.074,282.562 h 51.86 c 1.257,0 2.269,1.016 2.269,2.274 v 29.297 c 0,1.258 -1.012,2.269 -2.269,2.269 h -51.86 c -1.258,0 -2.269,-1.011 -2.269,-2.269 v -29.297 c 0,-1.258 1.011,-2.274 2.269,-2.274 z" /></g><text
         id="text230"
         style="font-variant:normal;font-weight:normal;font-size:13.53600121px;font-family:Arimo;-inkscape-font-specification:Arimo;writing-mode:lr-tb;fill:#000000;fill-opacity:1;fill-rule:nonzero;stroke:none"
         transform="translate(104.33119,303.99602)"><tspan
           id="tspan228"
           y="0"
           x="0 7.5260167 11.275489 15.024961 22.550978">https</tspan></text>
<g
         id="g232"><path
           id="path234"
           style="fill:none;stroke:#000000;stroke-width:1.12800002;stroke-linecap:butt;stroke-linejoin:miter;stroke-miterlimit:4;stroke-dasharray:none;stroke-opacity:1"
           d="m 149.473,338.965 h 51.859 c 1.258,0 2.273,1.012 2.273,2.269 v 29.301 c 0,1.258 -1.015,2.27 -2.273,2.27 h -51.859 c -1.258,0 -2.27,-1.012 -2.27,-2.27 v -29.301 c 0,-1.257 1.012,-2.269 2.27,-2.269 z" /></g><text
         id="text238"
         style="font-variant:normal;font-weight:normal;font-size:13.53600121px;font-family:Arimo;-inkscape-font-specification:Arimo;writing-mode:lr-tb;fill:#000000;fill-opacity:1;fill-rule:nonzero;stroke:none"
         transform="translate(164.86866,360.39602)"><tspan
           id="tspan236"
           y="0"
           x="0 6.7680006 13.536001">ssh</tspan></text>
<g
         id="g240"><path
           id="path242"
           style="fill:none;stroke:#000000;stroke-width:2.25600004;stroke-linecap:butt;stroke-linejoin:miter;stroke-miterlimit:10;stroke-dasharray:none;stroke-opacity:1"
           d="m 233.766,355.883 h 77 c 7.519,0 11.277,-3.758 11.277,-11.278 v -20.601" /></g><g
         id="g244"><path
           id="path246"
           style="fill:#000000;fill-opacity:1;fill-rule:nonzero;stroke:#000000;stroke-width:2.25600004;stroke-linecap:butt;stroke-linejoin:miter;stroke-miterlimit:10;stroke-dasharray:none;stroke-opacity:1"
           d="m 228.688,355.883 6.769,-3.383 -1.691,3.383 1.691,3.387 z" /></g><g
         id="g248"><path
           id="path250"
           style="fill:#000000;fill-opacity:1;fill-rule:nonzero;stroke:#000000;stroke-width:2.25600004;stroke-linecap:butt;stroke-linejoin:miter;stroke-miterlimit:10;stroke-dasharray:none;stroke-opacity:1"
           d="m 322.043,318.93 3.387,6.765 -3.387,-1.691 -3.383,1.691 z" /></g><text
         id="text256"
         style="font-variant:normal;font-weight:normal;font-size:12.40799999px;font-family:Arimo;-inkscape-font-specification:Arimo;writing-mode:lr-tb;fill:#000000;fill-opacity:1;fill-rule:nonzero;stroke:none"
         transform="translate(283.50804,369.42001)"><tspan
           id="tspan252"
           y="0"
           x="0 11.700744 14.45532 17.892336">Wifi</tspan><tspan
           id="tspan254"
           y="14.663985"
           x="-13.135035 -4.8713064 -1.4342904 5.4645576 12.363405 16.49527 23.431341 30.330189">Ethernet</tspan></text>
<g
         id="g258"><path
           id="path260"
           style="fill:none;stroke:#000000;stroke-width:1.12800002;stroke-linecap:butt;stroke-linejoin:miter;stroke-miterlimit:4;stroke-dasharray:none;stroke-opacity:1"
           d="m 14.113,203.605 h 63.141 c 1.258,0 2.269,1.012 2.269,2.27 v 29.301 c 0,1.254 -1.011,2.269 -2.269,2.269 H 14.113 c -1.258,0 -2.269,-1.015 -2.269,-2.269 v -29.301 c 0,-1.258 1.011,-2.27 2.269,-2.27 z" /></g><text
         id="text264"
         style="font-variant:normal;font-weight:normal;font-size:13.53600121px;font-family:Arimo;-inkscape-font-specification:Arimo;writing-mode:lr-tb;fill:#000000;fill-opacity:1;fill-rule:nonzero;stroke:none"
         transform="translate(15.941811,225.03602)"><tspan
           id="tspan262"
           y="0"
           x="0 9.7729931 17.299009 28.574497 36.100513 43.667141 47.416611 54.942627">Computer</tspan></text>
<g
         id="g266"><path
           id="path268"
           style="fill:none;stroke:#000000;stroke-width:2.25600004;stroke-linecap:butt;stroke-linejoin:miter;stroke-miterlimit:10;stroke-dasharray:none;stroke-opacity:1"
           d="m 34.184,165.922 6.375,30.246" /></g><g
         id="g270"><path
           id="path272"
           style="fill:#000000;fill-opacity:1;fill-rule:nonzero;stroke:#000000;stroke-width:2.25600004;stroke-linecap:butt;stroke-linejoin:miter;stroke-miterlimit:10;stroke-dasharray:none;stroke-opacity:1"
           d="m 33.141,160.953 4.711,5.926 -3.668,-0.957 -2.961,2.348 z" /></g><g
         id="g274"><path
           id="path276"
           style="fill:#000000;fill-opacity:1;fill-rule:nonzero;stroke:#000000;stroke-width:2.25600004;stroke-linecap:butt;stroke-linejoin:miter;stroke-miterlimit:10;stroke-dasharray:none;stroke-opacity:1"
           d="m 41.602,201.137 -4.704,-5.93 3.661,0.961 2.961,-2.348 z" /></g><g
         id="g278"><path
           id="path280"
           style="fill:none;stroke:#000000;stroke-width:2.25600004;stroke-linecap:butt;stroke-linejoin:miter;stroke-miterlimit:10;stroke-dasharray:none;stroke-opacity:1"
           d="m 53.219,117.289 52.609,6.863" /></g><g
         id="g282"><path
           id="path284"
           style="fill:#000000;fill-opacity:1;fill-rule:nonzero;stroke:#000000;stroke-width:2.25600004;stroke-linecap:butt;stroke-linejoin:miter;stroke-miterlimit:10;stroke-dasharray:none;stroke-opacity:1"
           d="m 48.188,116.637 7.148,-2.485 -2.117,3.137 1.242,3.574 z" /></g><g
         id="g286"><path
           id="path288"
           style="fill:#000000;fill-opacity:1;fill-rule:nonzero;stroke:#000000;stroke-width:2.25600004;stroke-linecap:butt;stroke-linejoin:miter;stroke-miterlimit:10;stroke-dasharray:none;stroke-opacity:1"
           d="m 110.859,124.805 -7.148,2.484 2.117,-3.137 -1.242,-3.578 z" /></g><g
         id="g290"><path
           id="path292"
           style="fill:none;stroke:#000000;stroke-width:2.25600004;stroke-linecap:butt;stroke-linejoin:miter;stroke-miterlimit:10;stroke-dasharray:none;stroke-opacity:1"
           d="m 87.125,220.523 h 14.961 c 7.519,0 11.277,3.434 11.277,10.301 v 10.301" /></g><g
         id="g294"><path
           id="path296"
           style="fill:#000000;fill-opacity:1;fill-rule:nonzero;stroke:#000000;stroke-width:2.25600004;stroke-linecap:butt;stroke-linejoin:miter;stroke-miterlimit:10;stroke-dasharray:none;stroke-opacity:1"
           d="m 82.047,220.523 6.769,-3.382 -1.691,3.382 1.691,3.383 z" /></g><g
         id="g298"><path
           id="path300"
           style="fill:#000000;fill-opacity:1;fill-rule:nonzero;stroke:#000000;stroke-width:2.25600004;stroke-linecap:butt;stroke-linejoin:miter;stroke-miterlimit:10;stroke-dasharray:none;stroke-opacity:1"
           d="m 113.363,246.199 -3.383,-6.765 3.383,1.691 3.383,-1.691 z" /></g><g
         id="g302"><path
           id="path304"
           style="fill:none;stroke:#000000;stroke-width:1.12800002;stroke-linecap:butt;stroke-linejoin:miter;stroke-miterlimit:4;stroke-dasharray:none;stroke-opacity:1"
           d="m 444.27,0.562 h 60.109 c 2.098,0 3.785,1.692 3.785,3.79 V 53.18 c 0,2.097 -1.687,3.785 -3.785,3.785 H 444.27 c -2.098,0 -3.786,-1.688 -3.786,-3.785 V 4.352 c 0,-2.098 1.688,-3.79 3.786,-3.79 z" /></g><text
         id="text308"
         style="font-variant:normal;font-weight:normal;font-size:13.53600121px;font-family:Arimo;-inkscape-font-specification:Arimo;writing-mode:lr-tb;fill:#000000;fill-opacity:1;fill-rule:nonzero;stroke:none"
         transform="translate(460.02131,33.275996)"><tspan
           id="tspan306"
           y="0"
           x="0 10.517473 19.53245">GPS</tspan></text>
<g
         id="g310"><path
           id="path312"
           style="fill:none;stroke:#000000;stroke-width:1.12800002;stroke-linecap:butt;stroke-linejoin:miter;stroke-miterlimit:4;stroke-dasharray:none;stroke-opacity:1"
           d="m 523.23,0.562 h 60.11 c 2.094,0 3.785,1.692 3.785,3.79 V 53.18 c 0,2.097 -1.691,3.785 -3.785,3.785 h -60.11 c -2.097,0 -3.785,-1.688 -3.785,-3.785 V 4.352 c 0,-2.098 1.688,-3.79 3.785,-3.79 z" /></g><text
         id="text316"
         style="font-variant:normal;font-weight:normal;font-size:13.53600121px;font-family:Arimo;-inkscape-font-specification:Arimo;writing-mode:lr-tb;fill:#000000;fill-opacity:1;fill-rule:nonzero;stroke:none"
         transform="translate(540.87159,33.275996)"><tspan
           id="tspan314"
           y="0"
           x="0 3.7494724 15.024961">IMU</tspan></text>
<g
         id="g318"><path
           id="path320"
           style="fill:none;stroke:#000000;stroke-width:2.25600004;stroke-linecap:butt;stroke-linejoin:miter;stroke-miterlimit:10;stroke-dasharray:none;stroke-opacity:1"
           d="m 553.285,56.965 v 5.64 c 0,3.758 0,8.133 0,13.118 v 7.48" /></g><g
         id="g322"><path
           id="path324"
           style="fill:#000000;fill-opacity:1;fill-rule:nonzero;stroke:#000000;stroke-width:2.25600004;stroke-linecap:butt;stroke-linejoin:miter;stroke-miterlimit:10;stroke-dasharray:none;stroke-opacity:1"
           d="m 553.285,88.281 -3.387,-6.769 3.387,1.691 3.383,-1.691 z" /></g><g
         id="g326"><path
           id="path328"
           style="fill:none;stroke:#000000;stroke-width:2.25600004;stroke-linecap:butt;stroke-linejoin:miter;stroke-miterlimit:10;stroke-dasharray:none;stroke-opacity:1"
           d="m 474.324,56.965 v 5.64 c 0,3.758 0,8.133 0,13.118 v 7.48" /></g><g
         id="g330"><path
           id="path332"
           style="fill:#000000;fill-opacity:1;fill-rule:nonzero;stroke:#000000;stroke-width:2.25600004;stroke-linecap:butt;stroke-linejoin:miter;stroke-miterlimit:10;stroke-dasharray:none;stroke-opacity:1"
           d="m 474.324,88.281 -3.383,-6.769 3.383,1.691 3.383,-1.691 z" /></g><g
         id="g334"><path
           id="path336"
           style="fill:none;stroke:#000000;stroke-width:1.12800002;stroke-linecap:butt;stroke-linejoin:miter;stroke-miterlimit:4;stroke-dasharray:none;stroke-opacity:1"
           d="m 654.805,209.242 c 0,9.348 -7.575,16.922 -16.922,16.922 -9.344,0 -16.918,-7.574 -16.918,-16.922 0,-9.344 7.574,-16.918 16.918,-16.918 9.347,0 16.922,7.574 16.922,16.918 z" /></g><text
         id="text340"
         style="font-variant:normal;font-weight:normal;font-size:13.53600121px;font-family:Arimo;-inkscape-font-specification:Arimo;writing-mode:lr-tb;fill:#000000;fill-opacity:1;fill-rule:nonzero;stroke:none"
         transform="translate(632.23959,213.75602)"><tspan
           id="tspan338"
           y="0"
           x="0">M</tspan></text>
<g
         id="g342"><path
           id="path344"
           style="fill:none;stroke:#000000;stroke-width:1.12800002;stroke-linecap:butt;stroke-linejoin:miter;stroke-miterlimit:4;stroke-dasharray:none;stroke-opacity:1"
           d="m 510.434,192.324 h 63.14 c 1.258,0 2.27,1.012 2.27,2.27 v 29.301 c 0,1.257 -1.012,2.269 -2.27,2.269 h -63.14 c -1.258,0 -2.27,-1.012 -2.27,-2.269 v -29.301 c 0,-1.258 1.012,-2.27 2.27,-2.27 z" /></g><text
         id="text348"
         style="font-variant:normal;font-weight:normal;font-size:13.53600121px;font-family:Arimo;-inkscape-font-specification:Arimo;writing-mode:lr-tb;fill:#000000;fill-opacity:1;fill-rule:nonzero;stroke:none"
         transform="translate(512.63194,213.75602)"><tspan
           id="tspan346"
           y="0"
           x="0 9.7729931 17.299009 24.825026 28.574497 33.081985 40.608002 43.653603 46.658596 54.184612">Controller</tspan></text>
<g
         id="g350"><path
           id="path352"
           style="fill:none;stroke:#000000;stroke-width:2.25600004;stroke-linecap:butt;stroke-linejoin:miter;stroke-miterlimit:10;stroke-dasharray:none;stroke-opacity:1"
           d="M 613.363,209.242 H 575.844" /></g><g
         id="g354"><path
           id="path356"
           style="fill:#000000;fill-opacity:1;fill-rule:nonzero;stroke:#000000;stroke-width:2.25600004;stroke-linecap:butt;stroke-linejoin:miter;stroke-miterlimit:10;stroke-dasharray:none;stroke-opacity:1"
           d="m 618.441,209.242 -6.769,3.387 1.691,-3.387 -1.691,-3.383 z" /></g><g
         id="g358"><path
           id="path360"
           style="fill:none;stroke:#000000;stroke-width:1.12800002;stroke-linecap:butt;stroke-linejoin:miter;stroke-miterlimit:4;stroke-dasharray:none;stroke-opacity:1"
           d="m 679.633,192.324 h 51.859 c 1.258,0 2.274,1.012 2.274,2.27 v 29.301 c 0,1.257 -1.016,2.269 -2.274,2.269 h -51.859 c -1.258,0 -2.27,-1.012 -2.27,-2.269 v -29.301 c 0,-1.258 1.012,-2.27 2.27,-2.27 z" /></g><text
         id="text366"
         style="font-variant:normal;font-weight:normal;font-size:13.53600121px;font-family:Arimo;-inkscape-font-specification:Arimo;writing-mode:lr-tb;fill:#000000;fill-opacity:1;fill-rule:nonzero;stroke:none"
         transform="translate(681.46622,205.86001)"><tspan
           id="tspan362"
           y="0"
           x="0 9.0149765 16.540993 23.308994 26.313986 30.063457 33.068451 40.594467">Position</tspan><tspan
           id="tspan364"
           y="15.791979"
           x="3.7673397 10.53534 18.061357 25.587374 32.355373 39.88139">sensor</tspan></text>
<g
         id="g368"><path
           id="path370"
           style="fill:none;stroke:#000000;stroke-width:2.25600004;stroke-linecap:butt;stroke-linejoin:miter;stroke-miterlimit:10;stroke-dasharray:none;stroke-opacity:1"
           d="m 733.766,209.242 h 5.636 c 3.762,0 5.641,3.762 5.641,11.281 v 8.461 c 0,5.641 -3.758,8.461 -11.277,8.461 H 594.723" /></g><g
         id="g372"><path
           id="path374"
           style="fill:#000000;fill-opacity:1;fill-rule:nonzero;stroke:#000000;stroke-width:2.25600004;stroke-linecap:butt;stroke-linejoin:miter;stroke-miterlimit:10;stroke-dasharray:none;stroke-opacity:1"
           d="m 589.648,237.445 6.766,-3.386 -1.691,3.386 1.691,3.383 z" /></g><g
         id="g376"><path
           id="path378"
           style="fill:none;stroke:#000000;stroke-width:1.12800002;stroke-linecap:butt;stroke-linejoin:miter;stroke-miterlimit:4;stroke-dasharray:none;stroke-opacity:1"
           d="m 81.793,395.363 h 51.859 c 1.258,0 2.274,1.012 2.274,2.27 v 29.301 c 0,1.257 -1.016,2.269 -2.274,2.269 H 81.793 c -1.258,0 -2.27,-1.012 -2.27,-2.269 v -29.301 c 0,-1.258 1.012,-2.27 2.27,-2.27 z" /></g><text
         id="text382"
         style="font-variant:normal;font-weight:normal;font-size:13.53600121px;font-family:Arimo;-inkscape-font-specification:Arimo;writing-mode:lr-tb;fill:#000000;fill-opacity:1;fill-rule:nonzero;stroke:none"
         transform="translate(100.20253,416.79602)"><tspan
           id="tspan380"
           y="0"
           x="0 3.7494724 7.4989448">ftp</tspan></text>
<g
         id="g384"><path
           id="path386"
           style="fill:none;stroke:#000000;stroke-width:1.12800002;stroke-linecap:butt;stroke-linejoin:miter;stroke-miterlimit:4;stroke-dasharray:none;stroke-opacity:1"
           d="m 25.395,338.965 h 51.859 c 1.258,0 2.269,1.012 2.269,2.269 v 29.301 c 0,1.258 -1.011,2.27 -2.269,2.27 H 25.395 c -1.258,0 -2.27,-1.012 -2.27,-2.27 v -29.301 c 0,-1.257 1.012,-2.269 2.27,-2.269 z" /></g><text
         id="text390"
         style="font-variant:normal;font-weight:normal;font-size:13.53600121px;font-family:Arimo;-inkscape-font-specification:Arimo;writing-mode:lr-tb;fill:#000000;fill-opacity:1;fill-rule:nonzero;stroke:none"
         transform="translate(47.556656,360.39602)"><tspan
           id="tspan388"
           y="0"
           x="0">?</tspan></text>
<g
         id="g392"><path
           id="path394"
           style="fill:none;stroke:#000000;stroke-width:1.12800002;stroke-linecap:butt;stroke-linejoin:miter;stroke-miterlimit:4;stroke-dasharray:none;stroke-opacity:1"
           d="m 654.805,288.203 c 0,9.344 -7.575,16.922 -16.922,16.922 -9.344,0 -16.918,-7.578 -16.918,-16.922 0,-9.344 7.574,-16.918 16.918,-16.918 9.347,0 16.922,7.574 16.922,16.918 z" /></g><text
         id="text398"
         style="font-variant:normal;font-weight:normal;font-size:13.53600121px;font-family:Arimo;-inkscape-font-specification:Arimo;writing-mode:lr-tb;fill:#000000;fill-opacity:1;fill-rule:nonzero;stroke:none"
         transform="translate(626.21184,292.71602)"><tspan
           id="tspan396"
           y="0"
           x="0 8.2569609 15.782977">Fan</tspan></text>
<g
         id="g400"><path
           id="path402"
           style="fill:none;stroke:#000000;stroke-width:2.25600004;stroke-linecap:butt;stroke-linejoin:miter;stroke-miterlimit:10;stroke-dasharray:none;stroke-opacity:1"
           d="M 613.363,288.203 H 587.125" /></g><g
         id="g404"><path
           id="path406"
           style="fill:#000000;fill-opacity:1;fill-rule:nonzero;stroke:#000000;stroke-width:2.25600004;stroke-linecap:butt;stroke-linejoin:miter;stroke-miterlimit:10;stroke-dasharray:none;stroke-opacity:1"
           d="m 618.441,288.203 -6.769,3.387 1.691,-3.387 -1.691,-3.383 z" /></g></g></g></svg>