<?xml version="1.0" encoding="UTF-8" standalone="no"?>
<svg
   xmlns:dc="http://purl.org/dc/elements/1.1/"
   xmlns:cc="http://creativecommons.org/ns#"
   xmlns:rdf="http://www.w3.org/1999/02/22-rdf-syntax-ns#"
   xmlns:svg="http://www.w3.org/2000/svg"
   xmlns="http://www.w3.org/2000/svg"
   viewBox="0 0 1002.82 420.42001"
   height="420.42001"
   width="1002.82"
   xml:space="preserve"
   id="svg2"
   version="1.1"><metadata
     id="metadata8"><rdf:RDF><cc:Work
         rdf:about=""><dc:format>image/svg+xml</dc:format><dc:type
           rdf:resource="http://purl.org/dc/dcmitype/StillImage" /></cc:Work></rdf:RDF></metadata><defs
     id="defs6" /><g
     transform="matrix(1.3333333,0,0,1.3333333,0,7.8438334e-6)"
     id="g10"><g
       id="g12"><g
         id="g14"><path
           id="path16"
           style="fill:none;stroke:#000000;stroke-width:1.36500001;stroke-linecap:butt;stroke-linejoin:miter;stroke-miterlimit:4;stroke-dasharray:none;stroke-opacity:1"
           d="m 674.117,0.684 h 72.731 c 2.539,0 4.586,2.043 4.586,4.586 v 59.078 c 0,2.539 -2.047,4.586 -4.586,4.586 h -72.731 c -2.539,0 -4.586,-2.047 -4.586,-4.586 V 5.27 c 0,-2.543 2.047,-4.586 4.586,-4.586 z" /></g><text
         id="text20"
         style="font-variant:normal;font-weight:normal;font-size:16.37999916px;font-family:Arimo;-inkscape-font-specification:Arimo;writing-mode:lr-tb;fill:#000000;fill-opacity:1;fill-rule:nonzero;stroke:none"
         transform="translate(692.83348,39.92625)"><tspan
           id="tspan18"
           y="0"
           x="0 12.72726 23.636339">GPS</tspan></text>
<g
         id="g22"><path
           id="path24"
           style="fill:none;stroke:#000000;stroke-width:1.36500001;stroke-linecap:butt;stroke-linejoin:miter;stroke-miterlimit:4;stroke-dasharray:none;stroke-opacity:1"
           d="m 674.117,82.582 h 72.731 c 2.539,0 4.586,2.047 4.586,4.586 v 59.078 c 0,2.539 -2.047,4.586 -4.586,4.586 h -72.731 c -2.539,0 -4.586,-2.047 -4.586,-4.586 V 87.168 c 0,-2.539 2.047,-4.586 4.586,-4.586 z" /></g><text
         id="text28"
         style="font-variant:normal;font-weight:normal;font-size:16.37999916px;font-family:Arimo;-inkscape-font-specification:Arimo;writing-mode:lr-tb;fill:#000000;fill-opacity:1;fill-rule:nonzero;stroke:none"
         transform="translate(695.12092,121.82625)"><tspan
           id="tspan26"
           y="0"
           x="0 4.5372601 18.181801">IMU</tspan></text>
<g
         id="g30"><path
           id="path32"
           style="fill:none;stroke:#000000;stroke-width:1.36500001;stroke-linecap:butt;stroke-linejoin:miter;stroke-miterlimit:4;stroke-dasharray:none;stroke-opacity:1"
           d="m 737.781,280.508 c 0,18.847 -15.277,34.125 -34.125,34.125 -18.844,0 -34.125,-15.278 -34.125,-34.125 0,-18.848 15.281,-34.125 34.125,-34.125 18.848,0 34.125,15.277 34.125,34.125 z" /></g><text
         id="text36"
         style="font-variant:normal;font-weight:normal;font-size:16.37999916px;font-family:Arimo;-inkscape-font-specification:Arimo;writing-mode:lr-tb;fill:#000000;fill-opacity:1;fill-rule:nonzero;stroke:none"
         transform="translate(696.48592,285.62625)"><tspan
           id="tspan34"
           y="0"
           x="0">M</tspan></text>
<g
         id="g38"><path
           id="path40"
           style="fill:#ff7f00;fill-opacity:1;fill-rule:nonzero;stroke:#000000;stroke-width:1.36500001;stroke-linecap:butt;stroke-linejoin:miter;stroke-miterlimit:4;stroke-dasharray:none;stroke-opacity:1"
           d="M 287.332,0.684 H 451.133 V 27.985 H 287.332 Z" /></g><text
         id="text44"
         style="font-variant:normal;font-weight:bold;font-size:16.37999916px;font-family:Arimo;-inkscape-font-specification:Arimo-Bold;writing-mode:lr-tb;fill:#000000;fill-opacity:1;fill-rule:nonzero;stroke:none"
         transform="translate(306.95437,19.45125)"><tspan
           id="tspan42"
           y="0"
           x="0 11.82636 21.818159 27.272699 37.2645 46.420921 55.528198 65.519997 75.511803 84.61908 89.156342 98.263618 108.25542 114.62724">Autoscope core</tspan></text>
<g
         id="g46"><path
           id="path48"
           style="fill:#ff7f00;fill-opacity:1;fill-rule:nonzero;stroke:#000000;stroke-width:1.36500001;stroke-linecap:butt;stroke-linejoin:miter;stroke-miterlimit:4;stroke-dasharray:none;stroke-opacity:1"
           d="M 478.434,0.684 H 642.235 V 27.985 H 478.434 Z" /></g><text
         id="text52"
         style="font-variant:normal;font-weight:bold;font-size:16.37999916px;font-family:Arimo;-inkscape-font-specification:Arimo-Bold;writing-mode:lr-tb;fill:#000000;fill-opacity:1;fill-rule:nonzero;stroke:none"
         transform="translate(516.73781,19.45125)"><tspan
           id="tspan50"
           y="0"
           x="0 11.82636 18.198179 22.735439 31.84272 40.950001 47.321819 51.859081 64.586342 75.495422">Driver GPS</tspan></text>
<g
         id="g54"><path
           id="path56"
           style="fill:#ff7f00;fill-opacity:1;fill-rule:nonzero;stroke:#000000;stroke-width:1.36500001;stroke-linecap:butt;stroke-linejoin:miter;stroke-miterlimit:4;stroke-dasharray:none;stroke-opacity:1"
           d="m 478.434,82.582 h 163.801 v 27.301 H 478.434 Z" /></g><text
         id="text60"
         style="font-variant:normal;font-weight:bold;font-size:16.37999916px;font-family:Arimo;-inkscape-font-specification:Arimo-Bold;writing-mode:lr-tb;fill:#000000;fill-opacity:1;fill-rule:nonzero;stroke:none"
         transform="translate(519.02525,101.35125)"><tspan
           id="tspan58"
           y="0"
           x="0 11.82636 18.198179 22.735439 31.84272 40.950001 47.321819 51.859081 56.396339 70.040878">Driver IMU</tspan></text>
<g
         id="g62"><path
           id="path64"
           style="fill:#ff7f00;fill-opacity:1;fill-rule:nonzero;stroke:#000000;stroke-width:1.36500001;stroke-linecap:butt;stroke-linejoin:miter;stroke-miterlimit:4;stroke-dasharray:none;stroke-opacity:1"
           d="m 478.434,164.484 h 163.801 v 27.297 H 478.434 Z" /></g><text
         id="text68"
         style="font-variant:normal;font-weight:bold;font-size:16.37999916px;font-family:Arimo;-inkscape-font-specification:Arimo-Bold;writing-mode:lr-tb;fill:#000000;fill-opacity:1;fill-rule:nonzero;stroke:none"
         transform="translate(506.27637,183.25125)"><tspan
           id="tspan66"
           y="0"
           x="0 11.82636 18.198179 22.735439 31.84272 40.950001 47.321819 51.859081 66.420898 76.412697 81.867241 91.859039 98.230858">Driver motors</tspan></text>
<g
         id="g70"><path
           id="path72"
           style="fill:none;stroke:#000000;stroke-width:1.36500001;stroke-linecap:butt;stroke-linejoin:miter;stroke-miterlimit:4;stroke-dasharray:none;stroke-opacity:1"
           d="M 478.434,191.781 H 642.235 V 314.633 H 478.434 Z" /></g><text
         id="text78"
         style="font-variant:normal;font-weight:normal;font-size:16.37999916px;font-family:Arimo;-inkscape-font-specification:Arimo;writing-mode:lr-tb;fill:#000000;fill-opacity:1;fill-rule:nonzero;stroke:none"
         transform="translate(485.73738,248.77125)"><tspan
           id="tspan74"
           y="0"
           x="0 5.4545398 10.90908 20.016359 24.553619 33.6609 38.198158 47.305439 52.80912 66.453659 75.560944 80.098198 89.205482 93.808258 98.34552 102.88278 111.99006 120.18006 124.71732 133.8246 142.93188">-rotate(motor, nstep)</tspan><tspan
           id="tspan76"
           y="19.110004"
           x="29.608767 35.063305 43.253307 47.790565 56.897846 66.005127 71.459663 85.153343 94.260628 98.79789 107.90517 113.3597">-stop(motor)</tspan></text>
<g
         id="g80"><path
           id="path82"
           style="fill:none;stroke:#000000;stroke-width:1.36500001;stroke-linecap:butt;stroke-linejoin:miter;stroke-miterlimit:4;stroke-dasharray:none;stroke-opacity:1"
           d="m 478.434,109.883 h 163.801 v 40.949 H 478.434 Z" /></g><text
         id="text86"
         style="font-variant:normal;font-weight:normal;font-size:16.37999916px;font-family:Arimo;-inkscape-font-specification:Arimo;writing-mode:lr-tb;fill:#000000;fill-opacity:1;fill-rule:nonzero;stroke:none"
         transform="translate(518.06549,135.47625)"><tspan
           id="tspan84"
           y="0"
           x="0 5.4545398 14.56182 23.6691 28.20636 40.032719 49.139999 58.296421 63.750961 72.858238 78.312782">-getCoord()</tspan></text>
<g
         id="g88"><path
           id="path90"
           style="fill:none;stroke:#000000;stroke-width:1.36500001;stroke-linecap:butt;stroke-linejoin:miter;stroke-miterlimit:4;stroke-dasharray:none;stroke-opacity:1"
           d="M 478.434,27.984 H 642.235 V 68.933 H 478.434 Z" /></g><text
         id="text94"
         style="font-variant:normal;font-weight:normal;font-size:16.37999916px;font-family:Arimo;-inkscape-font-specification:Arimo;writing-mode:lr-tb;fill:#000000;fill-opacity:1;fill-rule:nonzero;stroke:none"
         transform="translate(518.06549,53.57625)"><tspan
           id="tspan92"
           y="0"
           x="0 5.4545398 14.56182 23.6691 28.20636 40.032719 49.139999 58.296421 63.750961 72.858238 78.312782">-getCoord()</tspan></text>
<g
         id="g96"><path
           id="path98"
           style="fill:none;stroke:#000000;stroke-width:1.36500001;stroke-linecap:butt;stroke-linejoin:miter;stroke-miterlimit:4;stroke-dasharray:none;stroke-opacity:1"
           d="M 287.332,27.984 H 451.133 V 314.632 H 287.332 Z" /></g><text
         id="text104"
         style="font-variant:normal;font-weight:normal;font-size:16.37999916px;font-family:Arimo;-inkscape-font-specification:Arimo;writing-mode:lr-tb;fill:#000000;fill-opacity:1;fill-rule:nonzero;stroke:none"
         transform="translate(305.56271,166.87125)"><tspan
           id="tspan100"
           y="0"
           x="0 5.4545398 14.56182 23.6691 28.20636 39.11544 48.271858 56.461861 60.098221 64.635483 68.271843 77.37912 86.486397 91.940941 101.09736 109.28736 112.92372 121.11372">-getPosition(axis)</tspan><tspan
           id="tspan102"
           y="19.110004"
           x="-10.013553 -4.5590124 4.5482674 13.655547 21.861927 30.969208 36.423748 45.531029 53.721027 57.406528 65.596527 70.133789 74.671051 83.778328 92.885605 101.07561 104.71197 109.24923 112.88559 121.99287 131.10014">-goTo(axis, position)</tspan></text>
<g
         id="g106"><path
           id="path108"
           style="fill:none;stroke:#000000;stroke-width:1.36500001;stroke-linecap:butt;stroke-linejoin:miter;stroke-miterlimit:4;stroke-dasharray:none;stroke-opacity:1"
           d="m 123.531,27.984 h 136.5 v 286.648 h -136.5 z" /></g><text
         id="text118"
         style="font-variant:normal;font-weight:normal;font-size:16.37999916px;font-family:Arimo;-inkscape-font-specification:Arimo;writing-mode:lr-tb;fill:#000000;fill-opacity:1;fill-rule:nonzero;stroke:none"
         transform="translate(142.84512,147.76125)"><tspan
           id="tspan110"
           y="0"
           x="0 5.4545398 13.64454 25.4709 29.10726 33.64452 41.834518 50.941799 61.605179 65.241539 74.348824 86.175179 91.678864">-switchView()</tspan><tspan
           id="tspan112"
           y="19.110004"
           x="3.4871545 8.9416943 13.478954 22.586235 30.776234 39.883514 50.792595 59.949013 69.056297 73.593552 82.700836 88.155373">-takePhoto()</tspan><tspan
           id="tspan114"
           y="38.220013"
           x="-15.660165 -10.205625 -1.0983446 2.5380154 11.645295 19.835295 28.991716 39.900795 44.438057 53.545334 57.181694 60.818054 69.925339 75.429016 79.065376 88.172653 101.81719 107.32088">-placeStellarium()</tspan><tspan
           id="tspan116"
           y="57.330017"
           x="-16.108055 -10.653514 -1.5462344 2.0901256 11.197406 19.387405 28.543825 36.717445 45.824726 49.461086 58.568367 66.758369 74.948364 84.055649 93.212067 102.31934 107.77389">-placeTelescope()</tspan></text>
<g
         id="g120"><path
           id="path122"
           style="fill:#ff7f00;fill-opacity:1;fill-rule:nonzero;stroke:#000000;stroke-width:1.36500001;stroke-linecap:butt;stroke-linejoin:miter;stroke-miterlimit:4;stroke-dasharray:none;stroke-opacity:1"
           d="m 123.531,0.684 h 136.5 v 27.301 h -136.5 z" /></g><text
         id="text126"
         style="font-variant:normal;font-weight:bold;font-size:16.37999916px;font-family:Arimo;-inkscape-font-specification:Arimo-Bold;writing-mode:lr-tb;fill:#000000;fill-opacity:1;fill-rule:nonzero;stroke:none"
         transform="translate(136.7826,19.45125)"><tspan
           id="tspan124"
           y="0"
           x="0 11.82636 20.93364 30.04092 36.412739 40.950001 45.487259 55.479061 60.933601 70.040878 76.412697 81.867241 91.023659 100.13094">User interface</tspan></text>
<g
         id="g128"><path
           id="path130"
           style="fill:none;stroke:#000000;stroke-width:1.36500001;stroke-linecap:butt;stroke-linejoin:miter;stroke-miterlimit:4;stroke-dasharray:none;stroke-opacity:1"
           d="m 0.684,109.883 h 95.551 v 40.949 H 0.684 Z" /></g><g
         id="g132"><path
           id="path134"
           style="fill:#ff7f00;fill-opacity:1;fill-rule:nonzero;stroke:#000000;stroke-width:1.36500001;stroke-linecap:butt;stroke-linejoin:miter;stroke-miterlimit:4;stroke-dasharray:none;stroke-opacity:1"
           d="m 0.684,82.582 h 95.551 v 27.301 H 0.684 Z" /></g><text
         id="text138"
         style="font-variant:normal;font-weight:bold;font-size:16.37999916px;font-family:Arimo;-inkscape-font-specification:Arimo-Bold;writing-mode:lr-tb;fill:#000000;fill-opacity:1;fill-rule:nonzero;stroke:none"
         transform="translate(8.509922,101.35125)"><tspan
           id="tspan136"
           y="0"
           x="0 10.90908 16.363621 25.4709 30.00816 34.545422 43.652699 50.024521 54.561779 64.553581">Stellarium</tspan></text>
<g
         id="g140"><path
           id="path142"
           style="fill:none;stroke:#000000;stroke-width:1.36500001;stroke-linecap:butt;stroke-linejoin:miter;stroke-miterlimit:4;stroke-dasharray:none;stroke-opacity:1"
           d="M 0.684,27.984 H 96.235 V 68.933 H 0.684 Z" /></g><g
         id="g144"><path
           id="path146"
           style="fill:#ff7f00;fill-opacity:1;fill-rule:nonzero;stroke:#000000;stroke-width:1.36500001;stroke-linecap:butt;stroke-linejoin:miter;stroke-miterlimit:4;stroke-dasharray:none;stroke-opacity:1"
           d="M 0.684,0.684 H 96.235 V 27.985 H 0.684 Z" /></g><text
         id="text150"
         style="font-variant:normal;font-weight:bold;font-size:16.37999916px;font-family:Arimo;-inkscape-font-specification:Arimo-Bold;writing-mode:lr-tb;fill:#000000;fill-opacity:1;fill-rule:nonzero;stroke:none"
         transform="translate(25.945664,19.45125)"><tspan
           id="tspan148"
           y="0"
           x="0 10.63062 15.16788 25.159679 34.26696">Video</tspan></text>
<g
         id="g152"><path
           id="path154"
           style="fill:none;stroke:#000000;stroke-width:1.36500001;stroke-linecap:butt;stroke-linejoin:miter;stroke-miterlimit:4;stroke-dasharray:none;stroke-opacity:1"
           d="m 0.684,191.781 h 95.551 v 40.953 H 0.684 Z" /></g><g
         id="g156"><path
           id="path158"
           style="fill:#ff7f00;fill-opacity:1;fill-rule:nonzero;stroke:#000000;stroke-width:1.36500001;stroke-linecap:butt;stroke-linejoin:miter;stroke-miterlimit:4;stroke-dasharray:none;stroke-opacity:1"
           d="m 0.684,164.484 h 95.551 v 27.297 H 0.684 Z" /></g><text
         id="text162"
         style="font-variant:normal;font-weight:bold;font-size:16.37999916px;font-family:Arimo;-inkscape-font-specification:Arimo-Bold;writing-mode:lr-tb;fill:#000000;fill-opacity:1;fill-rule:nonzero;stroke:none"
         transform="translate(32.648027,183.25125)"><tspan
           id="tspan160"
           y="0"
           x="0 10.90908 15.44634 21.818159 26.355419">Siril</tspan></text>
<g
         id="g164"><path
           id="path166"
           style="fill:none;stroke:#000000;stroke-width:1.36500001;stroke-linecap:butt;stroke-linejoin:miter;stroke-miterlimit:4;stroke-dasharray:none;stroke-opacity:1"
           d="m 0.684,273.684 h 95.551 v 40.949 H 0.684 Z" /></g><text
         id="text172"
         style="font-variant:normal;font-weight:normal;font-size:16.37999916px;font-family:Arimo;-inkscape-font-specification:Arimo;writing-mode:lr-tb;fill:#000000;fill-opacity:1;fill-rule:nonzero;stroke:none"
         transform="translate(8.621895,289.72125)"><tspan
           id="tspan168"
           y="0"
           x="0 5.4545398 14.56182 23.6691 35.495461 44.651878 50.106419 59.213699 63.4725 68.009758 73.464302">-poweroff()</tspan><tspan
           id="tspan170"
           y="19.110004"
           x="14.428471 19.883011 28.073009 37.18029 46.287571 49.923931 53.609432 59.063969">-shell()</tspan></text>
<g
         id="g174"><path
           id="path176"
           style="fill:#ff7f00;fill-opacity:1;fill-rule:nonzero;stroke:#000000;stroke-width:1.36500001;stroke-linecap:butt;stroke-linejoin:miter;stroke-miterlimit:4;stroke-dasharray:none;stroke-opacity:1"
           d="m 0.684,246.383 h 95.551 v 27.301 H 0.684 Z" /></g><text
         id="text180"
         style="font-variant:normal;font-weight:bold;font-size:16.37999916px;font-family:Arimo;-inkscape-font-specification:Arimo-Bold;writing-mode:lr-tb;fill:#000000;fill-opacity:1;fill-rule:nonzero;stroke:none"
         transform="translate(18.955371,265.15125)"><tspan
           id="tspan178"
           y="0"
           x="0 10.90908 20.016359 29.12364 34.627319 43.7346">System</tspan></text>
<g
         id="g182"><path
           id="path184"
           style="fill:none;stroke:#000000;stroke-width:1.36500001;stroke-linecap:butt;stroke-linejoin:miter;stroke-miterlimit:4;stroke-dasharray:none;stroke-opacity:1"
           d="m 674.117,164.484 h 72.731 c 2.539,0 4.586,2.043 4.586,4.586 v 59.075 c 0,2.543 -2.047,4.589 -4.586,4.589 h -72.731 c -2.539,0 -4.586,-2.046 -4.586,-4.589 V 169.07 c 0,-2.543 2.047,-4.586 4.586,-4.586 z" /></g><text
         id="text190"
         style="font-variant:normal;font-weight:normal;font-size:16.37999916px;font-family:Arimo;-inkscape-font-specification:Arimo;writing-mode:lr-tb;fill:#000000;fill-opacity:1;fill-rule:nonzero;stroke:none"
         transform="translate(680.98037,194.17125)"><tspan
           id="tspan186"
           y="0"
           x="0 10.90908 20.016359 28.20636 31.84272 36.379978 40.016338 49.123619">Position</tspan><tspan
           id="tspan188"
           y="19.110004"
           x="4.5588818 12.748881 21.856161 30.963442 39.153442 48.260723">sensor</tspan></text>
<g
         id="g192"><path
           id="path194"
           style="fill:none;stroke:#000000;stroke-width:2.73000002;stroke-linecap:butt;stroke-linejoin:miter;stroke-miterlimit:10;stroke-dasharray:none;stroke-opacity:1"
           d="m 96.234,41.633 h 6.825 c 4.55,0 9.097,0 13.648,0 h 6.824" /></g><g
         id="g196"><path
           id="path198"
           style="fill:none;stroke:#000000;stroke-width:2.73000002;stroke-linecap:butt;stroke-linejoin:miter;stroke-miterlimit:10;stroke-dasharray:none;stroke-opacity:1"
           d="m 96.234,123.531 h 6.825 c 4.55,0 9.097,0 13.648,0 h 6.824" /></g><g
         id="g200"><path
           id="path202"
           style="fill:none;stroke:#000000;stroke-width:2.73000002;stroke-linecap:butt;stroke-linejoin:miter;stroke-miterlimit:10;stroke-dasharray:none;stroke-opacity:1"
           d="m 96.234,205.434 h 6.825 c 4.55,0 9.097,0 13.648,0 h 6.824" /></g><g
         id="g204"><path
           id="path206"
           style="fill:none;stroke:#000000;stroke-width:2.73000002;stroke-linecap:butt;stroke-linejoin:miter;stroke-miterlimit:10;stroke-dasharray:none;stroke-opacity:1"
           d="m 96.234,287.332 h 6.825 c 4.55,0 9.097,0 13.648,0 h 6.824" /></g><g
         id="g208"><path
           id="path210"
           style="fill:none;stroke:#000000;stroke-width:2.73000002;stroke-linecap:butt;stroke-linejoin:miter;stroke-miterlimit:10;stroke-dasharray:none;stroke-opacity:1"
           d="m 269.227,171.309 h 8.914" /></g><g
         id="g212"><path
           id="path214"
           style="fill:#000000;fill-opacity:1;fill-rule:nonzero;stroke:#000000;stroke-width:2.73000002;stroke-linecap:butt;stroke-linejoin:miter;stroke-miterlimit:10;stroke-dasharray:none;stroke-opacity:1"
           d="m 263.082,171.309 8.191,-4.098 -2.046,4.098 2.046,4.093 z" /></g><g
         id="g216"><path
           id="path218"
           style="fill:#000000;fill-opacity:1;fill-rule:nonzero;stroke:#000000;stroke-width:2.73000002;stroke-linecap:butt;stroke-linejoin:miter;stroke-miterlimit:10;stroke-dasharray:none;stroke-opacity:1"
           d="m 284.281,171.309 -8.191,4.093 2.051,-4.093 -2.051,-4.098 z" /></g><g
         id="g220"><path
           id="path222"
           style="fill:none;stroke:#000000;stroke-width:2.73000002;stroke-linecap:butt;stroke-linejoin:miter;stroke-miterlimit:10;stroke-dasharray:none;stroke-opacity:1"
           d="m 469.238,246.383 h -2.23 c -1.485,0 -4.5,0 -9.051,0 h -6.824" /></g><g
         id="g224"><path
           id="path226"
           style="fill:#000000;fill-opacity:1;fill-rule:nonzero;stroke:#000000;stroke-width:2.73000002;stroke-linecap:butt;stroke-linejoin:miter;stroke-miterlimit:10;stroke-dasharray:none;stroke-opacity:1"
           d="m 475.383,246.383 -8.192,4.094 2.047,-4.094 -2.047,-4.094 z" /></g><g
         id="g228"><path
           id="path230"
           style="fill:none;stroke:#000000;stroke-width:2.73000002;stroke-linecap:butt;stroke-linejoin:miter;stroke-miterlimit:10;stroke-dasharray:none;stroke-opacity:1"
           d="m 478.434,123.531 h -6.825 c -4.55,0 -7.57,0 -9.05,0 h -2.235" /></g><g
         id="g232"><path
           id="path234"
           style="fill:#000000;fill-opacity:1;fill-rule:nonzero;stroke:#000000;stroke-width:2.73000002;stroke-linecap:butt;stroke-linejoin:miter;stroke-miterlimit:10;stroke-dasharray:none;stroke-opacity:1"
           d="m 454.184,123.531 8.191,-4.093 -2.051,4.093 2.051,4.098 z" /></g><g
         id="g236"><path
           id="path238"
           style="fill:none;stroke:#000000;stroke-width:2.73000002;stroke-linecap:butt;stroke-linejoin:miter;stroke-miterlimit:10;stroke-dasharray:none;stroke-opacity:1"
           d="m 478.434,41.633 h -6.825 c -4.55,0 -7.57,0 -9.05,0 h -2.235" /></g><g
         id="g240"><path
           id="path242"
           style="fill:#000000;fill-opacity:1;fill-rule:nonzero;stroke:#000000;stroke-width:2.73000002;stroke-linecap:butt;stroke-linejoin:miter;stroke-miterlimit:10;stroke-dasharray:none;stroke-opacity:1"
           d="m 454.184,41.633 8.191,-4.094 -2.051,4.094 2.051,4.094 z" /></g><g
         id="g244"><path
           id="path246"
           style="fill:none;stroke:#000000;stroke-width:2.73000002;stroke-linecap:butt;stroke-linejoin:miter;stroke-miterlimit:10;stroke-dasharray:none;stroke-opacity:1"
           d="M 669.531,34.809 H 651.426" /></g><g
         id="g248"><path
           id="path250"
           style="fill:#000000;fill-opacity:1;fill-rule:nonzero;stroke:#000000;stroke-width:2.73000002;stroke-linecap:butt;stroke-linejoin:miter;stroke-miterlimit:10;stroke-dasharray:none;stroke-opacity:1"
           d="m 645.285,34.809 8.188,-4.098 -2.047,4.098 2.047,4.093 z" /></g><g
         id="g252"><path
           id="path254"
           style="fill:none;stroke:#000000;stroke-width:2.73000002;stroke-linecap:butt;stroke-linejoin:miter;stroke-miterlimit:10;stroke-dasharray:none;stroke-opacity:1"
           d="M 669.531,116.707 H 651.426" /></g><g
         id="g256"><path
           id="path258"
           style="fill:#000000;fill-opacity:1;fill-rule:nonzero;stroke:#000000;stroke-width:2.73000002;stroke-linecap:butt;stroke-linejoin:miter;stroke-miterlimit:10;stroke-dasharray:none;stroke-opacity:1"
           d="m 645.285,116.707 8.188,-4.094 -2.047,4.094 2.047,4.094 z" /></g><g
         id="g260"><path
           id="path262"
           style="fill:none;stroke:#000000;stroke-width:2.73000002;stroke-linecap:butt;stroke-linejoin:miter;stroke-miterlimit:10;stroke-dasharray:none;stroke-opacity:1"
           d="M 669.531,198.609 H 651.426" /></g><g
         id="g264"><path
           id="path266"
           style="fill:#000000;fill-opacity:1;fill-rule:nonzero;stroke:#000000;stroke-width:2.73000002;stroke-linecap:butt;stroke-linejoin:miter;stroke-miterlimit:10;stroke-dasharray:none;stroke-opacity:1"
           d="m 645.285,198.609 8.188,-4.097 -2.047,4.097 2.047,4.094 z" /></g><g
         id="g268"><path
           id="path270"
           style="fill:none;stroke:#000000;stroke-width:2.73000002;stroke-linecap:butt;stroke-linejoin:miter;stroke-miterlimit:10;stroke-dasharray:none;stroke-opacity:1"
           d="M 660.34,280.508 H 642.234" /></g><g
         id="g272"><path
           id="path274"
           style="fill:#000000;fill-opacity:1;fill-rule:nonzero;stroke:#000000;stroke-width:2.73000002;stroke-linecap:butt;stroke-linejoin:miter;stroke-miterlimit:10;stroke-dasharray:none;stroke-opacity:1"
           d="m 666.48,280.508 -8.187,4.094 2.047,-4.094 -2.047,-4.094 z" /></g></g></g></svg>