<?xml version="1.0" encoding="UTF-8" standalone="no"?>
<svg
   xmlns:dc="http://purl.org/dc/elements/1.1/"
   xmlns:cc="http://creativecommons.org/ns#"
   xmlns:rdf="http://www.w3.org/1999/02/22-rdf-syntax-ns#"
   xmlns:svg="http://www.w3.org/2000/svg"
   xmlns="http://www.w3.org/2000/svg"
   viewBox="0 0 723.42401 633.18402"
   height="633.18402"
   width="723.42401"
   xml:space="preserve"
   id="svg2"
   version="1.1"><metadata
     id="metadata8"><rdf:RDF><cc:Work
         rdf:about=""><dc:format>image/svg+xml</dc:format><dc:type
           rdf:resource="http://purl.org/dc/dcmitype/StillImage" /></cc:Work></rdf:RDF></metadata><defs
     id="defs6" /><g
     transform="matrix(1.3333333,0,0,1.3333333,0,1.4496268e-5)"
     id="g10"><g
       id="g12"><g
         id="g14"><path
           id="path16"
           style="fill:none;stroke:#000000;stroke-width:1.12800002;stroke-linecap:butt;stroke-linejoin:miter;stroke-miterlimit:4;stroke-dasharray:none;stroke-opacity:1"
           d="m 139.711,34.402 h 60.105 c 2.098,0 3.789,1.692 3.789,3.789 V 87.02 c 0,2.097 -1.691,3.785 -3.789,3.785 h -60.105 c -2.098,0 -3.785,-1.688 -3.785,-3.785 V 38.191 c 0,-2.097 1.687,-3.789 3.785,-3.789 z" /></g><text
         id="text20"
         style="font-variant:normal;font-weight:normal;font-size:13.53600121px;font-family:Arimo;-inkscape-font-specification:Arimo;writing-mode:lr-tb;fill:#000000;fill-opacity:1;fill-rule:nonzero;stroke:none"
         transform="translate(143.78915,67.116017)"><tspan
           id="tspan18"
           y="0"
           x="0 7.5260167 15.052033 24.067009 27.816483 31.565954 35.315426 42.841442">12V / 5V</tspan></text>
<g
         id="g22"><path
           id="path24"
           style="fill:none;stroke:#000000;stroke-width:1.12800002;stroke-linecap:butt;stroke-linejoin:miter;stroke-miterlimit:4;stroke-dasharray:none;stroke-opacity:1"
           d="m 275.07,124.645 h 60.11 c 2.097,0 3.785,1.687 3.785,3.785 v 48.828 c 0,2.097 -1.688,3.785 -3.785,3.785 h -60.11 c -2.097,0 -3.785,-1.688 -3.785,-3.785 V 128.43 c 0,-2.098 1.688,-3.785 3.785,-3.785 z" /></g><text
         id="text28"
         style="font-variant:normal;font-weight:normal;font-size:13.53600121px;font-family:Arimo;-inkscape-font-specification:Arimo;writing-mode:lr-tb;fill:#000000;fill-opacity:1;fill-rule:nonzero;stroke:none"
         transform="translate(290.82131,157.35602)"><tspan
           id="tspan26"
           y="0"
           x="0 10.517473 19.53245">GPS</tspan></text>
<g
         id="g30"><path
           id="path32"
           style="fill:none;stroke:#000000;stroke-width:1.12800002;stroke-linecap:butt;stroke-linejoin:miter;stroke-miterlimit:4;stroke-dasharray:none;stroke-opacity:1"
           d="m 275.07,192.324 h 60.11 c 2.097,0 3.785,1.688 3.785,3.785 v 48.829 c 0,2.097 -1.688,3.785 -3.785,3.785 h -60.11 c -2.097,0 -3.785,-1.688 -3.785,-3.785 v -48.829 c 0,-2.097 1.688,-3.785 3.785,-3.785 z" /></g><text
         id="text36"
         style="font-variant:normal;font-weight:normal;font-size:13.53600121px;font-family:Arimo;-inkscape-font-specification:Arimo;writing-mode:lr-tb;fill:#000000;fill-opacity:1;fill-rule:nonzero;stroke:none"
         transform="translate(292.71159,225.03602)"><tspan
           id="tspan34"
           y="0"
           x="0 3.7494724 15.024961">IMU</tspan></text>
<g
         id="g38"><path
           id="path40"
           style="fill:none;stroke:#000000;stroke-width:1.12800002;stroke-linecap:butt;stroke-linejoin:miter;stroke-miterlimit:4;stroke-dasharray:none;stroke-opacity:1"
           d="m 275.07,260.004 h 60.11 c 2.097,0 3.785,1.687 3.785,3.785 v 48.828 c 0,2.098 -1.688,3.785 -3.785,3.785 h -60.11 c -2.097,0 -3.785,-1.687 -3.785,-3.785 v -48.828 c 0,-2.098 1.688,-3.785 3.785,-3.785 z" /></g><text
         id="text46"
         style="font-variant:normal;font-weight:normal;font-size:13.53600121px;font-family:Arimo;-inkscape-font-specification:Arimo;writing-mode:lr-tb;fill:#000000;fill-opacity:1;fill-rule:nonzero;stroke:none"
         transform="translate(281.02622,284.82001)"><tspan
           id="tspan42"
           y="0"
           x="0 9.0149765 16.540993 23.308994 26.313986 30.063457 33.068451 40.594467">Position</tspan><tspan
           id="tspan44"
           y="15.791979"
           x="3.7673397 10.53534 18.061357 25.587374 32.355373 39.88139">sensor</tspan></text>
<g
         id="g48"><path
           id="path50"
           style="fill:none;stroke:#000000;stroke-width:1.12800002;stroke-linecap:butt;stroke-linejoin:miter;stroke-miterlimit:4;stroke-dasharray:none;stroke-opacity:1"
           d="m 478.109,124.645 h 60.11 c 2.097,0 3.785,1.687 3.785,3.785 v 48.828 c 0,2.097 -1.688,3.785 -3.785,3.785 h -60.11 c -2.097,0 -3.785,-1.688 -3.785,-3.785 V 128.43 c 0,-2.098 1.688,-3.785 3.785,-3.785 z" /></g><text
         id="text54"
         style="font-variant:normal;font-weight:normal;font-size:13.53600121px;font-family:Arimo;-inkscape-font-specification:Arimo;writing-mode:lr-tb;fill:#000000;fill-opacity:1;fill-rule:nonzero;stroke:none"
         transform="translate(484.06622,157.35602)"><tspan
           id="tspan52"
           y="0"
           x="0 9.7729931 17.299009 28.574497 36.100513 40.648609">Camera</tspan></text>
<g
         id="g56"><path
           id="path58"
           style="fill:none;stroke:#000000;stroke-width:1.12800002;stroke-linecap:butt;stroke-linejoin:miter;stroke-miterlimit:4;stroke-dasharray:none;stroke-opacity:1"
           d="m 478.109,192.324 h 60.11 c 2.097,0 3.785,1.688 3.785,3.785 v 48.829 c 0,2.097 -1.688,3.785 -3.785,3.785 h -60.11 c -2.097,0 -3.785,-1.688 -3.785,-3.785 v -48.829 c 0,-2.097 1.688,-3.785 3.785,-3.785 z" /></g><text
         id="text62"
         style="font-variant:normal;font-weight:normal;font-size:13.53600121px;font-family:Arimo;-inkscape-font-specification:Arimo;writing-mode:lr-tb;fill:#000000;fill-opacity:1;fill-rule:nonzero;stroke:none"
         transform="translate(486.69675,225.03602)"><tspan
           id="tspan60"
           y="0"
           x="0 9.0149765 15.782977 20.290466 27.816483 35.383106">Screen</tspan></text>
<g
         id="g64"><path
           id="path66"
           style="fill:none;stroke:#000000;stroke-width:1.12800002;stroke-linecap:butt;stroke-linejoin:miter;stroke-miterlimit:4;stroke-dasharray:none;stroke-opacity:1"
           d="m 377.352,45.684 h 58.586 c 2.519,0 4.546,2.027 4.546,4.546 v 261.625 c 0,2.52 -2.027,4.547 -4.546,4.547 h -58.586 c -2.52,0 -4.547,-2.027 -4.547,-4.547 V 50.23 c 0,-2.519 2.027,-4.546 4.547,-4.546 z" /></g><text
         id="text70"
         style="font-variant:normal;font-weight:normal;font-size:13.53600121px;font-family:Arimo;-inkscape-font-specification:Arimo;writing-mode:lr-tb;fill:#000000;fill-opacity:1;fill-rule:nonzero;stroke:none"
         transform="translate(395.35519,185.55602)"><tspan
           id="tspan68"
           y="0"
           x="0 9.7729931 18.78797">RPI</tspan></text>
<g
         id="g72"><path
           id="path74"
           style="fill:none;stroke:#000000;stroke-width:1.12800002;stroke-linecap:butt;stroke-linejoin:miter;stroke-miterlimit:4;stroke-dasharray:none;stroke-opacity:1"
           d="m 530.723,378.445 c 0,15.575 -12.625,28.2 -28.2,28.2 -15.574,0 -28.199,-12.625 -28.199,-28.2 0,-15.574 12.625,-28.203 28.199,-28.203 15.575,0 28.2,12.629 28.2,28.203 z" /></g><text
         id="text78"
         style="font-variant:normal;font-weight:normal;font-size:13.53600121px;font-family:Arimo;-inkscape-font-specification:Arimo;writing-mode:lr-tb;fill:#000000;fill-opacity:1;fill-rule:nonzero;stroke:none"
         transform="translate(496.87959,382.95602)"><tspan
           id="tspan76"
           y="0"
           x="0">M</tspan></text>
<g
         id="g80"><path
           id="path82"
           style="fill:none;stroke:#000000;stroke-width:1.12800002;stroke-linecap:butt;stroke-linejoin:miter;stroke-miterlimit:4;stroke-dasharray:none;stroke-opacity:1"
           d="m 372.805,56.965 h 33.84 v 22.559 h -33.84 z" /></g><text
         id="text86"
         style="font-variant:normal;font-weight:normal;font-size:13.53600121px;font-family:Arimo;-inkscape-font-specification:Arimo;writing-mode:lr-tb;fill:#000000;fill-opacity:1;fill-rule:nonzero;stroke:none"
         transform="translate(381.43584,72.756017)"><tspan
           id="tspan84"
           y="0"
           x="0 7.5260167">5V</tspan></text>
<g
         id="g88"><path
           id="path90"
           style="fill:none;stroke:#000000;stroke-width:1.12800002;stroke-linecap:butt;stroke-linejoin:miter;stroke-miterlimit:4;stroke-dasharray:none;stroke-opacity:1"
           d="m 372.805,79.523 h 33.84 v 22.562 h -33.84 z" /></g><text
         id="text94"
         style="font-variant:normal;font-weight:normal;font-size:13.53600121px;font-family:Arimo;-inkscape-font-specification:Arimo;writing-mode:lr-tb;fill:#000000;fill-opacity:1;fill-rule:nonzero;stroke:none"
         transform="translate(375.79144,95.316017)"><tspan
           id="tspan92"
           y="0"
           x="0 7.5260167 11.275489 18.801506">3,3V</tspan></text>
<g
         id="g96"><path
           id="path98"
           style="fill:none;stroke:#000000;stroke-width:1.12800002;stroke-linecap:butt;stroke-linejoin:miter;stroke-miterlimit:4;stroke-dasharray:none;stroke-opacity:1"
           d="m 4.352,34.402 h 60.105 c 2.098,0 3.785,1.692 3.785,3.789 V 87.02 c 0,2.097 -1.687,3.785 -3.785,3.785 H 4.352 c -2.098,0 -3.79,-1.688 -3.79,-3.785 V 38.191 c 0,-2.097 1.692,-3.789 3.79,-3.789 z" /></g><text
         id="text106"
         style="font-variant:normal;font-weight:normal;font-size:13.53600121px;font-family:Arimo;-inkscape-font-specification:Arimo;writing-mode:lr-tb;fill:#000000;fill-opacity:1;fill-rule:nonzero;stroke:none"
         transform="translate(9.671718,51.324)"><tspan
           id="tspan100"
           y="0"
           x="0 7.5260167 15.052033 22.578051 30.618435 39.633411">220VAC</tspan><tspan
           id="tspan102"
           y="15.792019"
           x="22.855227">/</tspan><tspan
           id="tspan104"
           y="31.583998"
           x="2.8949175 10.420934 17.946951 26.961927 36.734921">12VDC</tspan></text>
<g
         id="g108"><path
           id="path110"
           style="fill:none;stroke:#000000;stroke-width:2.25600004;stroke-linecap:butt;stroke-linejoin:miter;stroke-miterlimit:10;stroke-dasharray:none;stroke-opacity:1"
           d="m 128.324,62.605 h -1.84 c -1.226,0 -5.601,0 -13.121,0 H 68.242" /></g><g
         id="g112"><path
           id="path114"
           style="fill:#000000;fill-opacity:1;fill-rule:nonzero;stroke:#000000;stroke-width:2.25600004;stroke-linecap:butt;stroke-linejoin:miter;stroke-miterlimit:10;stroke-dasharray:none;stroke-opacity:1"
           d="m 133.398,62.605 -6.765,3.383 1.691,-3.383 -1.691,-3.386 z" /></g><g
         id="g116"><path
           id="path118"
           style="fill:none;stroke:#000000;stroke-width:2.25600004;stroke-linecap:butt;stroke-linejoin:miter;stroke-miterlimit:10;stroke-dasharray:none;stroke-opacity:1"
           d="M 466.723,152.844 H 448.082" /></g><g
         id="g120"><path
           id="path122"
           style="fill:#000000;fill-opacity:1;fill-rule:nonzero;stroke:#000000;stroke-width:2.25600004;stroke-linecap:butt;stroke-linejoin:miter;stroke-miterlimit:10;stroke-dasharray:none;stroke-opacity:1"
           d="m 471.801,152.844 -6.77,3.383 1.692,-3.383 -1.692,-3.383 z" /></g><g
         id="g124"><path
           id="path126"
           style="fill:#000000;fill-opacity:1;fill-rule:nonzero;stroke:#000000;stroke-width:2.25600004;stroke-linecap:butt;stroke-linejoin:miter;stroke-miterlimit:10;stroke-dasharray:none;stroke-opacity:1"
           d="m 443.008,152.844 6.769,-3.383 -1.695,3.383 1.695,3.383 z" /></g><g
         id="g128"><path
           id="path130"
           style="fill:none;stroke:#000000;stroke-width:2.25600004;stroke-linecap:butt;stroke-linejoin:miter;stroke-miterlimit:10;stroke-dasharray:none;stroke-opacity:1"
           d="M 466.723,220.523 H 448.082" /></g><g
         id="g132"><path
           id="path134"
           style="fill:#000000;fill-opacity:1;fill-rule:nonzero;stroke:#000000;stroke-width:2.25600004;stroke-linecap:butt;stroke-linejoin:miter;stroke-miterlimit:10;stroke-dasharray:none;stroke-opacity:1"
           d="m 471.801,220.523 -6.77,3.383 1.692,-3.383 -1.692,-3.382 z" /></g><g
         id="g136"><path
           id="path138"
           style="fill:#000000;fill-opacity:1;fill-rule:nonzero;stroke:#000000;stroke-width:2.25600004;stroke-linecap:butt;stroke-linejoin:miter;stroke-miterlimit:10;stroke-dasharray:none;stroke-opacity:1"
           d="m 443.008,220.523 6.769,-3.382 -1.695,3.382 1.695,3.383 z" /></g><g
         id="g140"><path
           id="path142"
           style="fill:none;stroke:#000000;stroke-width:2.25600004;stroke-linecap:butt;stroke-linejoin:miter;stroke-miterlimit:10;stroke-dasharray:none;stroke-opacity:1"
           d="m 346.562,220.523 h 18.641" /></g><g
         id="g144"><path
           id="path146"
           style="fill:#000000;fill-opacity:1;fill-rule:nonzero;stroke:#000000;stroke-width:2.25600004;stroke-linecap:butt;stroke-linejoin:miter;stroke-miterlimit:10;stroke-dasharray:none;stroke-opacity:1"
           d="m 341.488,220.523 6.77,-3.382 -1.696,3.382 1.696,3.383 z" /></g><g
         id="g148"><path
           id="path150"
           style="fill:#000000;fill-opacity:1;fill-rule:nonzero;stroke:#000000;stroke-width:2.25600004;stroke-linecap:butt;stroke-linejoin:miter;stroke-miterlimit:10;stroke-dasharray:none;stroke-opacity:1"
           d="m 370.281,220.523 -6.769,3.383 1.691,-3.383 -1.691,-3.382 z" /></g><g
         id="g152"><path
           id="path154"
           style="fill:none;stroke:#000000;stroke-width:2.25600004;stroke-linecap:butt;stroke-linejoin:miter;stroke-miterlimit:10;stroke-dasharray:none;stroke-opacity:1"
           d="m 203.605,68.242 h 90.239 c 7.519,0 15.039,0 22.558,0 h 48.801" /></g><g
         id="g156"><path
           id="path158"
           style="fill:#000000;fill-opacity:1;fill-rule:nonzero;stroke:#000000;stroke-width:2.25600004;stroke-linecap:butt;stroke-linejoin:miter;stroke-miterlimit:10;stroke-dasharray:none;stroke-opacity:1"
           d="m 370.281,68.242 -6.769,3.387 1.691,-3.387 -1.691,-3.383 z" /></g><g
         id="g160"><path
           id="path162"
           style="fill:none;stroke:#000000;stroke-width:2.25600004;stroke-linecap:butt;stroke-linejoin:miter;stroke-miterlimit:10;stroke-dasharray:none;stroke-opacity:1"
           d="M 372.805,90.805 H 248.723 c -7.52,0 -11.278,3.757 -11.278,11.281 v 39.476 c 0,7.524 3.758,11.282 11.278,11.282 h 14.961" /></g><g
         id="g164"><path
           id="path166"
           style="fill:#000000;fill-opacity:1;fill-rule:nonzero;stroke:#000000;stroke-width:2.25600004;stroke-linecap:butt;stroke-linejoin:miter;stroke-miterlimit:10;stroke-dasharray:none;stroke-opacity:1"
           d="m 268.762,152.844 -6.77,3.383 1.692,-3.383 -1.692,-3.383 z" /></g><g
         id="g168"><path
           id="path170"
           style="fill:none;stroke:#000000;stroke-width:2.25600004;stroke-linecap:butt;stroke-linejoin:miter;stroke-miterlimit:10;stroke-dasharray:none;stroke-opacity:1"
           d="M 372.805,90.805 H 248.723 c -7.52,0 -11.278,3.757 -11.278,11.281 v 107.156 c 0,7.524 3.758,11.281 11.278,11.281 h 14.961" /></g><g
         id="g172"><path
           id="path174"
           style="fill:#000000;fill-opacity:1;fill-rule:nonzero;stroke:#000000;stroke-width:2.25600004;stroke-linecap:butt;stroke-linejoin:miter;stroke-miterlimit:10;stroke-dasharray:none;stroke-opacity:1"
           d="m 268.762,220.523 -6.77,3.383 1.692,-3.383 -1.692,-3.382 z" /></g><g
         id="g176"><path
           id="path178"
           style="fill:none;stroke:#000000;stroke-width:2.25600004;stroke-linecap:butt;stroke-linejoin:miter;stroke-miterlimit:10;stroke-dasharray:none;stroke-opacity:1"
           d="M 372.805,90.805 H 248.723 c -7.52,0 -11.278,3.757 -11.278,11.281 v 174.84 c 0,7.519 3.758,11.277 11.278,11.277 h 14.961" /></g><g
         id="g180"><path
           id="path182"
           style="fill:#000000;fill-opacity:1;fill-rule:nonzero;stroke:#000000;stroke-width:2.25600004;stroke-linecap:butt;stroke-linejoin:miter;stroke-miterlimit:10;stroke-dasharray:none;stroke-opacity:1"
           d="m 268.762,288.203 -6.77,3.387 1.692,-3.387 -1.692,-3.383 z" /></g><g
         id="g184"><path
           id="path186"
           style="fill:none;stroke:#000000;stroke-width:2.25600004;stroke-linecap:butt;stroke-linejoin:miter;stroke-miterlimit:10;stroke-dasharray:none;stroke-opacity:1"
           d="m 346.562,152.844 h 18.641" /></g><g
         id="g188"><path
           id="path190"
           style="fill:#000000;fill-opacity:1;fill-rule:nonzero;stroke:#000000;stroke-width:2.25600004;stroke-linecap:butt;stroke-linejoin:miter;stroke-miterlimit:10;stroke-dasharray:none;stroke-opacity:1"
           d="m 341.488,152.844 6.77,-3.383 -1.696,3.383 1.696,3.383 z" /></g><g
         id="g192"><path
           id="path194"
           style="fill:#000000;fill-opacity:1;fill-rule:nonzero;stroke:#000000;stroke-width:2.25600004;stroke-linecap:butt;stroke-linejoin:miter;stroke-miterlimit:10;stroke-dasharray:none;stroke-opacity:1"
           d="m 370.281,152.844 -6.769,3.383 1.691,-3.383 -1.691,-3.383 z" /></g><g
         id="g196"><path
           id="path198"
           style="fill:none;stroke:#000000;stroke-width:2.25600004;stroke-linecap:butt;stroke-linejoin:miter;stroke-miterlimit:10;stroke-dasharray:none;stroke-opacity:1"
           d="m 338.965,288.203 h 26.238" /></g><g
         id="g200"><path
           id="path202"
           style="fill:#000000;fill-opacity:1;fill-rule:nonzero;stroke:#000000;stroke-width:2.25600004;stroke-linecap:butt;stroke-linejoin:miter;stroke-miterlimit:10;stroke-dasharray:none;stroke-opacity:1"
           d="m 370.281,288.203 -6.769,3.387 1.691,-3.387 -1.691,-3.383 z" /></g><g
         transform="scale(-1)"
         id="g204"><path
           id="path206"
           style="fill:none;stroke:#000000;stroke-width:1.12800002;stroke-linecap:butt;stroke-linejoin:miter;stroke-miterlimit:10;stroke-dasharray:3.384, 3.384;stroke-dashoffset:0;stroke-opacity:1"
           d="m -90.805,-122.387 h -11.281 V -0.563 h 11.281" /></g><g
         id="g208"><path
           id="path210"
           style="fill:none;stroke:#000000;stroke-width:1.12800002;stroke-linecap:butt;stroke-linejoin:miter;stroke-miterlimit:4;stroke-dasharray:none;stroke-opacity:1"
           d="m 376.59,350.242 h 60.109 c 2.098,0 3.785,1.692 3.785,3.789 v 48.828 c 0,2.098 -1.687,3.786 -3.785,3.786 H 376.59 c -2.098,0 -3.785,-1.688 -3.785,-3.786 v -48.828 c 0,-2.097 1.687,-3.789 3.785,-3.789 z" /></g><text
         id="text214"
         style="font-variant:normal;font-weight:normal;font-size:13.53600121px;font-family:Arimo;-inkscape-font-specification:Arimo;writing-mode:lr-tb;fill:#000000;fill-opacity:1;fill-rule:nonzero;stroke:none"
         transform="translate(377.27194,382.95602)"><tspan
           id="tspan212"
           y="0"
           x="0 9.7729931 17.299009 24.825026 28.574497 33.081985 40.608002 43.653603 46.658596 54.184612">Controller</tspan></text>
<g
         id="g216"><path
           id="path218"
           style="fill:none;stroke:#000000;stroke-width:2.25600004;stroke-linecap:butt;stroke-linejoin:miter;stroke-miterlimit:10;stroke-dasharray:none;stroke-opacity:1"
           d="M 372.805,90.805 H 248.723 c -7.52,0 -11.278,3.757 -11.278,11.281 v 259.437 c 0,7.52 3.758,11.282 11.278,11.282 h 116.48" /></g><g
         id="g220"><path
           id="path222"
           style="fill:#000000;fill-opacity:1;fill-rule:nonzero;stroke:#000000;stroke-width:2.25600004;stroke-linecap:butt;stroke-linejoin:miter;stroke-miterlimit:10;stroke-dasharray:none;stroke-opacity:1"
           d="m 370.281,372.805 -6.769,3.383 1.691,-3.383 -1.691,-3.383 z" /></g><g
         id="g224"><path
           id="path226"
           style="fill:none;stroke:#000000;stroke-width:2.25600004;stroke-linecap:butt;stroke-linejoin:miter;stroke-miterlimit:10;stroke-dasharray:none;stroke-opacity:1"
           d="m 406.645,316.402 v 26.243" /></g><g
         id="g228"><path
           id="path230"
           style="fill:#000000;fill-opacity:1;fill-rule:nonzero;stroke:#000000;stroke-width:2.25600004;stroke-linecap:butt;stroke-linejoin:miter;stroke-miterlimit:10;stroke-dasharray:none;stroke-opacity:1"
           d="m 406.645,347.719 -3.383,-6.766 3.383,1.692 3.382,-1.692 z" /></g><g
         id="g232"><path
           id="path234"
           style="fill:none;stroke:#000000;stroke-width:2.25600004;stroke-linecap:butt;stroke-linejoin:miter;stroke-miterlimit:10;stroke-dasharray:none;stroke-opacity:1"
           d="m 440.484,378.445 h 26.239" /></g><g
         id="g236"><path
           id="path238"
           style="fill:#000000;fill-opacity:1;fill-rule:nonzero;stroke:#000000;stroke-width:2.25600004;stroke-linecap:butt;stroke-linejoin:miter;stroke-miterlimit:10;stroke-dasharray:none;stroke-opacity:1"
           d="m 471.801,378.445 -6.77,3.383 1.692,-3.383 -1.692,-3.386 z" /></g><g
         id="g240"><path
           id="path242"
           style="fill:none;stroke:#000000;stroke-width:2.25600004;stroke-linecap:butt;stroke-linejoin:miter;stroke-miterlimit:10;stroke-dasharray:none;stroke-opacity:1"
           d="m 169.766,90.805 v 282 c 0,7.519 3.757,11.281 11.277,11.281 h 184.16" /></g><g
         id="g244"><path
           id="path246"
           style="fill:#000000;fill-opacity:1;fill-rule:nonzero;stroke:#000000;stroke-width:2.25600004;stroke-linecap:butt;stroke-linejoin:miter;stroke-miterlimit:10;stroke-dasharray:none;stroke-opacity:1"
           d="m 370.281,384.086 -6.769,3.383 1.691,-3.383 -1.691,-3.387 z" /></g><g
         id="g248"><path
           id="path250"
           style="fill:none;stroke:#000000;stroke-width:1.12800002;stroke-linecap:butt;stroke-linejoin:miter;stroke-miterlimit:4;stroke-dasharray:none;stroke-opacity:1"
           d="m 530.723,446.125 c 0,15.574 -12.625,28.199 -28.2,28.199 -15.574,0 -28.199,-12.625 -28.199,-28.199 0,-15.574 12.625,-28.199 28.199,-28.199 15.575,0 28.2,12.625 28.2,28.199 z" /></g><text
         id="text254"
         style="font-variant:normal;font-weight:normal;font-size:13.53600121px;font-family:Arimo;-inkscape-font-specification:Arimo;writing-mode:lr-tb;fill:#000000;fill-opacity:1;fill-rule:nonzero;stroke:none"
         transform="translate(490.85184,450.63602)"><tspan
           id="tspan252"
           y="0"
           x="0 8.2569609 15.782977">Fan</tspan></text>
<g
         id="g256"><path
           id="path258"
           style="fill:none;stroke:#000000;stroke-width:2.25600004;stroke-linecap:butt;stroke-linejoin:miter;stroke-miterlimit:10;stroke-dasharray:none;stroke-opacity:1"
           d="m 169.766,90.805 v 344.039 c 0,7.519 3.757,11.281 11.277,11.281 h 285.68" /></g><g
         id="g260"><path
           id="path262"
           style="fill:#000000;fill-opacity:1;fill-rule:nonzero;stroke:#000000;stroke-width:2.25600004;stroke-linecap:butt;stroke-linejoin:miter;stroke-miterlimit:10;stroke-dasharray:none;stroke-opacity:1"
           d="m 471.801,446.125 -6.77,3.383 1.692,-3.383 -1.692,-3.387 z" /></g></g></g></svg>