<?xml version="1.0" encoding="UTF-8" standalone="no"?>
<svg
   xmlns:dc="http://purl.org/dc/elements/1.1/"
   xmlns:cc="http://creativecommons.org/ns#"
   xmlns:rdf="http://www.w3.org/1999/02/22-rdf-syntax-ns#"
   xmlns:svg="http://www.w3.org/2000/svg"
   xmlns="http://www.w3.org/2000/svg"
   viewBox="0 0 400.14917 191.73"
   height="191.73"
   width="400.14917"
   xml:space="preserve"
   id="svg2"
   version="1.1"><metadata
     id="metadata8"><rdf:RDF><cc:Work
         rdf:about=""><dc:format>image/svg+xml</dc:format><dc:type
           rdf:resource="http://purl.org/dc/dcmitype/StillImage" /></cc:Work></rdf:RDF></metadata><defs
     id="defs6" /><g
     transform="matrix(1.3333333,0,0,1.3333333,0,3.4599167e-6)"
     id="g10"><g
       id="g12"><g
         id="g14"><path
           id="path16"
           style="fill:none;stroke:#000000;stroke-width:0.6225;stroke-linecap:butt;stroke-linejoin:miter;stroke-miterlimit:4;stroke-dasharray:none;stroke-opacity:1"
           d="m 18.984,56.336 h 236.551 v 6.227 H 18.984 Z" /></g><text
         id="text20"
         style="font-variant:normal;font-weight:normal;font-size:7.46999979px;font-family:Arimo;-inkscape-font-specification:Arimo;writing-mode:lr-tb;fill:#000000;fill-opacity:1;fill-rule:nonzero;stroke:none"
         transform="translate(257.40375,61.93875)"><tspan
           id="tspan18"
           y="0"
           x="0 5.3933401 9.5466604 13.28166 17.43498 21.588301 25.741619 28.251539 30.73905 34.474049 36.54324 41.518261">Raspberry Pi</tspan></text>
<g
         id="g22"><path
           id="path24"
           style="fill:none;stroke:#000000;stroke-width:0.6225;stroke-linecap:butt;stroke-linejoin:miter;stroke-miterlimit:4;stroke-dasharray:none;stroke-opacity:1"
           d="m 18.984,106.137 h 236.551 v 6.223 H 18.984 Z" /></g><text
         id="text30"
         style="font-variant:normal;font-weight:normal;font-size:7.46999979px;font-family:Arimo;-inkscape-font-specification:Arimo;writing-mode:lr-tb;fill:#000000;fill-opacity:1;fill-rule:nonzero;stroke:none"
         transform="translate(257.40375,107.38125)"><tspan
           id="tspan26"
           y="0"
           x="0 4.9750199 9.1283398 11.19753 15.35085 19.08585 22.82085 26.974171 31.127489">Autoscope</tspan><tspan
           id="tspan28"
           y="8.7150021"
           x="0 4.1533198 8.3066397 10.79415 14.94747 20.36322 24.516541 27.004049">hardware</tspan></text>
<g
         id="g32"><path
           id="path34"
           style="fill:#ff7f00;fill-opacity:1;fill-rule:nonzero;stroke:#000000;stroke-width:0.6225;stroke-linecap:butt;stroke-linejoin:miter;stroke-miterlimit:4;stroke-dasharray:none;stroke-opacity:1"
           d="m 220.277,62.562 h 33.168 c 1.157,0 2.09,0.93 2.09,2.09 v 26.942 c 0,1.16 -0.933,2.094 -2.09,2.094 h -33.168 c -1.16,0 -2.089,-0.934 -2.089,-2.094 V 64.652 c 0,-1.16 0.929,-2.09 2.089,-2.09 z" /></g><g
         id="g36"><path
           id="path38"
           style="fill:#ff7f00;fill-opacity:1;fill-rule:nonzero;stroke:#000000;stroke-width:0.6225;stroke-linecap:butt;stroke-linejoin:miter;stroke-miterlimit:4;stroke-dasharray:none;stroke-opacity:1"
           d="m 26.047,18.984 h 10.781 c 0.461,0 0.832,0.375 0.832,0.836 v 35.684 c 0,0.461 -0.371,0.832 -0.832,0.832 H 26.047 c -0.465,0 -0.836,-0.371 -0.836,-0.832 V 19.82 c 0,-0.461 0.371,-0.836 0.836,-0.836 z" /></g><g
         id="g40"><path
           id="path42"
           style="fill:#ff7f00;fill-opacity:1;fill-rule:nonzero;stroke:#000000;stroke-width:0.6225;stroke-linecap:butt;stroke-linejoin:miter;stroke-miterlimit:4;stroke-dasharray:none;stroke-opacity:1"
           d="m 181.672,18.984 h 10.781 c 0.461,0 0.832,0.375 0.832,0.836 v 35.684 c 0,0.461 -0.371,0.832 -0.832,0.832 h -10.781 c -0.465,0 -0.836,-0.371 -0.836,-0.832 V 19.82 c 0,-0.461 0.371,-0.836 0.836,-0.836 z" /></g><g
         id="g44"><path
           id="path46"
           style="fill:#ff7f00;fill-opacity:1;fill-rule:nonzero;stroke:#000000;stroke-width:0.6225;stroke-linecap:butt;stroke-linejoin:miter;stroke-miterlimit:4;stroke-dasharray:none;stroke-opacity:1"
           d="m 26.047,62.562 h 10.781 c 0.461,0 0.832,0.372 0.832,0.833 v 41.906 c 0,0.465 -0.371,0.836 -0.832,0.836 H 26.047 c -0.465,0 -0.836,-0.371 -0.836,-0.836 V 63.395 c 0,-0.461 0.371,-0.833 0.836,-0.833 z" /></g><g
         id="g48"><path
           id="path50"
           style="fill:#ff7f00;fill-opacity:1;fill-rule:nonzero;stroke:#000000;stroke-width:0.6225;stroke-linecap:butt;stroke-linejoin:miter;stroke-miterlimit:4;stroke-dasharray:none;stroke-opacity:1"
           d="m 181.672,62.562 h 10.781 c 0.461,0 0.832,0.372 0.832,0.833 v 41.906 c 0,0.465 -0.371,0.836 -0.832,0.836 h -10.781 c -0.465,0 -0.836,-0.371 -0.836,-0.836 V 63.395 c 0,-0.461 0.371,-0.833 0.836,-0.833 z" /></g><g
         id="g52"><path
           id="path54"
           style="fill:#ff7f00;fill-opacity:1;fill-rule:nonzero;stroke:#000000;stroke-width:0.6225;stroke-linecap:butt;stroke-linejoin:miter;stroke-miterlimit:4;stroke-dasharray:none;stroke-opacity:1"
           d="m 25.629,112.359 h 11.617 c 0.231,0 0.414,0.188 0.414,0.418 v 5.391 c 0,0.23 -0.183,0.418 -0.414,0.418 H 25.629 c -0.231,0 -0.418,-0.188 -0.418,-0.418 v -5.391 c 0,-0.23 0.187,-0.418 0.418,-0.418 z" /></g><g
         id="g56"><path
           id="path58"
           style="fill:#ff7f00;fill-opacity:1;fill-rule:nonzero;stroke:#000000;stroke-width:0.6225;stroke-linecap:butt;stroke-linejoin:miter;stroke-miterlimit:4;stroke-dasharray:none;stroke-opacity:1"
           d="m 181.254,112.359 h 11.617 c 0.231,0 0.414,0.188 0.414,0.418 v 5.391 c 0,0.23 -0.183,0.418 -0.414,0.418 h -11.617 c -0.231,0 -0.418,-0.188 -0.418,-0.418 v -5.391 c 0,-0.23 0.187,-0.418 0.418,-0.418 z" /></g><g
         id="g60"><path
           id="path62"
           style="fill:none;stroke:#000000;stroke-width:0.6225;stroke-linecap:butt;stroke-linejoin:miter;stroke-miterlimit:4;stroke-dasharray:none;stroke-opacity:1"
           d="m 206.152,112.359 h 48.969 c 0.231,0 0.414,0.188 0.414,0.418 v 5.391 c 0,0.23 -0.183,0.418 -0.414,0.418 h -48.969 c -0.23,0 -0.418,-0.188 -0.418,-0.418 v -5.391 c 0,-0.23 0.188,-0.418 0.418,-0.418 z" /></g><g
         id="g64"><path
           id="path66"
           style="fill:none;stroke:#000000;stroke-width:0.6225;stroke-linecap:butt;stroke-linejoin:miter;stroke-miterlimit:4;stroke-dasharray:none;stroke-opacity:1"
           d="m 206.992,118.586 h 47.285 c 0.7,0 1.258,0.562 1.258,1.258 v 16.16 c 0,0.695 -0.558,1.258 -1.258,1.258 h -47.285 c -0.695,0 -1.258,-0.563 -1.258,-1.258 v -16.16 c 0,-0.696 0.563,-1.258 1.258,-1.258 z" /></g><g
         id="g68"><path
           id="path70"
           style="fill:none;stroke:#000000;stroke-width:0.6225;stroke-linecap:butt;stroke-linejoin:miter;stroke-miterlimit:4;stroke-dasharray:none;stroke-opacity:1"
           d="m 44.719,112.359 h 10.785 c 0.461,0 0.832,0.375 0.832,0.836 v 10.782 c 0,0.461 -0.371,0.835 -0.832,0.835 H 44.719 c -0.461,0 -0.832,-0.374 -0.832,-0.835 v -10.782 c 0,-0.461 0.371,-0.836 0.832,-0.836 z" /></g><g
         id="g72"><path
           id="path74"
           style="fill:none;stroke:#000000;stroke-width:0.6225;stroke-linecap:butt;stroke-linejoin:miter;stroke-miterlimit:4;stroke-dasharray:none;stroke-opacity:1"
           d="m 100.746,112.359 h 10.781 c 0.461,0 0.832,0.375 0.832,0.836 v 10.782 c 0,0.461 -0.371,0.835 -0.832,0.835 h -10.781 c -0.461,0 -0.836,-0.374 -0.836,-0.835 v -10.782 c 0,-0.461 0.375,-0.836 0.836,-0.836 z" /></g><g
         id="g76"><path
           id="path78"
           style="fill:none;stroke:#000000;stroke-width:0.6225;stroke-linecap:butt;stroke-linejoin:miter;stroke-miterlimit:4;stroke-dasharray:none;stroke-opacity:1"
           d="m 119.422,112.359 h 10.781 c 0.461,0 0.832,0.375 0.832,0.836 v 10.782 c 0,0.461 -0.371,0.835 -0.832,0.835 h -10.781 c -0.465,0 -0.836,-0.374 -0.836,-0.835 v -10.782 c 0,-0.461 0.371,-0.836 0.836,-0.836 z" /></g><g
         id="g80"><path
           id="path82"
           style="fill:none;stroke:#000000;stroke-width:0.6225;stroke-linecap:butt;stroke-linejoin:miter;stroke-miterlimit:4;stroke-dasharray:none;stroke-opacity:1"
           d="m 150.547,112.359 h 10.781 c 0.461,0 0.832,0.375 0.832,0.836 v 10.782 c 0,0.461 -0.371,0.835 -0.832,0.835 h -10.781 c -0.465,0 -0.836,-0.374 -0.836,-0.835 v -10.782 c 0,-0.461 0.371,-0.836 0.836,-0.836 z" /></g><g
         id="g84"><path
           id="path86"
           style="fill:none;stroke:#000000;stroke-width:0.6225;stroke-linecap:butt;stroke-linejoin:miter;stroke-miterlimit:4;stroke-dasharray:none;stroke-opacity:1"
           d="m 63.395,112.359 h 10.781 c 0.465,0 0.836,0.375 0.836,0.836 v 10.782 c 0,0.461 -0.371,0.835 -0.836,0.835 H 63.395 c -0.461,0 -0.833,-0.374 -0.833,-0.835 v -10.782 c 0,-0.461 0.372,-0.836 0.833,-0.836 z" /></g><g
         id="g88"><path
           id="path90"
           style="fill:none;stroke:#000000;stroke-width:0.6225;stroke-linecap:butt;stroke-linejoin:miter;stroke-miterlimit:4;stroke-dasharray:none;stroke-opacity:1"
           d="m 82.07,112.359 h 10.782 c 0.46,0 0.836,0.375 0.836,0.836 v 10.782 c 0,0.461 -0.376,0.835 -0.836,0.835 H 82.07 c -0.461,0 -0.836,-0.374 -0.836,-0.835 v -10.782 c 0,-0.461 0.375,-0.836 0.836,-0.836 z" /></g><g
         id="g92"><path
           id="path94"
           style="fill:none;stroke:#000000;stroke-width:0.6225;stroke-linecap:butt;stroke-linejoin:miter;stroke-miterlimit:4;stroke-dasharray:1.8675, 1.8675;stroke-dashoffset:0;stroke-opacity:1"
           d="m 231.469,112.359 h 10.785 c 0.461,0 0.832,0.375 0.832,0.836 v 10.782 c 0,0.461 -0.371,0.835 -0.832,0.835 h -10.785 c -0.461,0 -0.832,-0.374 -0.832,-0.835 v -10.782 c 0,-0.461 0.371,-0.836 0.832,-0.836 z" /></g><g
         id="g96"><path
           id="path98"
           style="fill:none;stroke:#000000;stroke-width:0.6225;stroke-linecap:butt;stroke-linejoin:miter;stroke-miterlimit:4;stroke-dasharray:none;stroke-opacity:1"
           d="m 206.152,137.262 h 48.969 c 0.231,0 0.414,0.183 0.414,0.418 v 5.39 c 0,0.231 -0.183,0.414 -0.414,0.414 h -48.969 c -0.23,0 -0.418,-0.183 -0.418,-0.414 v -5.39 c 0,-0.235 0.188,-0.418 0.418,-0.418 z" /></g><g
         id="g100"><path
           id="path102"
           style="fill:none;stroke:#000000;stroke-width:0.6225;stroke-linecap:butt;stroke-linejoin:miter;stroke-miterlimit:4;stroke-dasharray:none;stroke-opacity:1"
           d="m 1.57,0.312 h 265.16 c 0.696,0 1.254,0.559 1.254,1.258 v 16.16 c 0,0.696 -0.558,1.254 -1.254,1.254 H 1.57 c -0.699,0 -1.258,-0.558 -1.258,-1.254 V 1.57 c 0,-0.699 0.559,-1.258 1.258,-1.258 z" /></g><text
         id="text106"
         style="font-variant:normal;font-weight:normal;font-size:7.46999979px;font-family:Arimo;-inkscape-font-specification:Arimo;writing-mode:lr-tb;fill:#000000;fill-opacity:1;fill-rule:nonzero;stroke:none"
         transform="translate(117.31937,12.13875)"><tspan
           id="tspan104"
           y="0"
           x="0 3.72753 7.8808498 9.5391903 13.69251 17.427509 21.16251 25.31583 29.49156">Telescope</tspan></text>
<g
         id="g108"><path
           id="path110"
           style="fill:none;stroke:#000000;stroke-width:0.6225;stroke-linecap:butt;stroke-linejoin:miter;stroke-miterlimit:4;stroke-dasharray:none;stroke-opacity:1"
           d="m 44.305,62.562 h 129.89 c 0.231,0 0.414,0.184 0.414,0.415 v 5.394 c 0,0.231 -0.183,0.414 -0.414,0.414 H 44.305 c -0.235,0 -0.418,-0.183 -0.418,-0.414 v -5.394 c 0,-0.231 0.183,-0.415 0.418,-0.415 z" /></g><g
         id="g112"><path
           id="path114"
           style="fill:none;stroke:#000000;stroke-width:0.6225;stroke-linecap:butt;stroke-linejoin:miter;stroke-miterlimit:4;stroke-dasharray:none;stroke-opacity:1"
           d="m 46.395,68.785 h 125.707 c 1.39,0 2.507,1.121 2.507,2.512 v 32.332 c 0,1.387 -1.117,2.508 -2.507,2.508 H 46.395 c -1.391,0 -2.508,-1.121 -2.508,-2.508 V 71.297 c 0,-1.391 1.117,-2.512 2.508,-2.512 z" /></g><text
         id="text118"
         style="font-variant:normal;font-weight:normal;font-size:6.84749985px;font-family:Arimo;-inkscape-font-specification:Arimo;writing-mode:lr-tb;fill:#000000;fill-opacity:1;fill-rule:nonzero;stroke:none"
         transform="translate(109.27801,67.8525)"><tspan
           id="tspan116"
           y="0"
           x="0 3.80721 5.7039676 9.5111771 13.318387 19.022354">2,54mm</tspan></text>
<g
         id="g120"><path
           id="path122"
           style="fill:none;stroke:#000000;stroke-width:1.245;stroke-linecap:butt;stroke-linejoin:miter;stroke-miterlimit:10;stroke-dasharray:none;stroke-opacity:1"
           d="m 106.137,56.336 v 2.031" /></g><g
         id="g124"><path
           id="path126"
           style="fill:#000000;fill-opacity:1;fill-rule:nonzero;stroke:#000000;stroke-width:1.245;stroke-linecap:butt;stroke-linejoin:miter;stroke-miterlimit:10;stroke-dasharray:none;stroke-opacity:1"
           d="m 106.137,61.168 -1.867,-3.734 1.867,0.933 1.867,-0.933 z" /></g><g
         id="g128"><path
           id="path130"
           style="fill:none;stroke:#000000;stroke-width:1.245;stroke-linecap:butt;stroke-linejoin:miter;stroke-miterlimit:10;stroke-dasharray:none;stroke-opacity:1"
           d="M 106.137,75.012 V 72.98" /></g><g
         id="g132"><path
           id="path134"
           style="fill:#000000;fill-opacity:1;fill-rule:nonzero;stroke:#000000;stroke-width:1.245;stroke-linecap:butt;stroke-linejoin:miter;stroke-miterlimit:10;stroke-dasharray:none;stroke-opacity:1"
           d="m 106.137,70.18 1.867,3.734 -1.867,-0.934 -1.867,0.934 z" /></g><g
         id="g136"><path
           id="path138"
           style="fill:none;stroke:#000000;stroke-width:1.245;stroke-linecap:butt;stroke-linejoin:miter;stroke-miterlimit:10;stroke-dasharray:none;stroke-opacity:1"
           d="m 87.461,72.98 v 28.961" /></g><g
         id="g140"><path
           id="path142"
           style="fill:#000000;fill-opacity:1;fill-rule:nonzero;stroke:#000000;stroke-width:1.245;stroke-linecap:butt;stroke-linejoin:miter;stroke-miterlimit:10;stroke-dasharray:none;stroke-opacity:1"
           d="m 87.461,70.18 1.867,3.734 -1.867,-0.934 -1.867,0.934 z" /></g><g
         id="g144"><path
           id="path146"
           style="fill:#000000;fill-opacity:1;fill-rule:nonzero;stroke:#000000;stroke-width:1.245;stroke-linecap:butt;stroke-linejoin:miter;stroke-miterlimit:10;stroke-dasharray:none;stroke-opacity:1"
           d="m 87.461,104.742 -1.867,-3.734 1.867,0.933 1.867,-0.933 z" /></g><text
         id="text150"
         style="font-variant:normal;font-weight:normal;font-size:6.84749985px;font-family:Arimo;-inkscape-font-specification:Arimo;writing-mode:lr-tb;fill:#000000;fill-opacity:1;fill-rule:nonzero;stroke:none"
         transform="translate(90.603008,89.64)"><tspan
           id="tspan148"
           y="0"
           x="0 3.80721 7.6144199 9.5111771 13.318387 17.125597 22.829565">16,13mm</tspan></text>
</g></g></svg>