<?xml version="1.0" encoding="UTF-8" standalone="no"?>
<svg
   xmlns:dc="http://purl.org/dc/elements/1.1/"
   xmlns:cc="http://creativecommons.org/ns#"
   xmlns:rdf="http://www.w3.org/1999/02/22-rdf-syntax-ns#"
   xmlns:svg="http://www.w3.org/2000/svg"
   xmlns="http://www.w3.org/2000/svg"
   viewBox="0 0 409.49155 191.73"
   height="191.73"
   width="409.49155"
   xml:space="preserve"
   id="svg2"
   version="1.1"><metadata
     id="metadata8"><rdf:RDF><cc:Work
         rdf:about=""><dc:format>image/svg+xml</dc:format><dc:type
           rdf:resource="http://purl.org/dc/dcmitype/StillImage" /></cc:Work></rdf:RDF></metadata><defs
     id="defs6" /><g
     transform="matrix(1.3333333,0,0,1.3333333,0,3.4599167e-6)"
     id="g10"><g
       id="g12"><g
         id="g14"><path
           id="path16"
           style="fill:none;stroke:#000000;stroke-width:0.6225;stroke-linecap:butt;stroke-linejoin:miter;stroke-miterlimit:4;stroke-dasharray:none;stroke-opacity:1"
           d="m 25.992,56.336 h 236.551 v 6.227 H 25.992 Z" /></g><text
         id="text20"
         style="font-variant:normal;font-weight:normal;font-size:7.46999979px;font-family:Arimo;-inkscape-font-specification:Arimo;writing-mode:lr-tb;fill:#000000;fill-opacity:1;fill-rule:nonzero;stroke:none"
         transform="translate(264.41052,61.93875)"><tspan
           id="tspan18"
           y="0"
           x="0 5.3933401 9.5466604 13.28166 17.43498 21.588301 25.741619 28.251539 30.73905 34.474049 36.54324 41.518261">Raspberry Pi</tspan></text>
<g
         id="g22"><path
           id="path24"
           style="fill:none;stroke:#000000;stroke-width:0.6225;stroke-linecap:butt;stroke-linejoin:miter;stroke-miterlimit:4;stroke-dasharray:none;stroke-opacity:1"
           d="m 25.992,106.137 h 236.551 v 6.223 H 25.992 Z" /></g><text
         id="text30"
         style="font-variant:normal;font-weight:normal;font-size:7.46999979px;font-family:Arimo;-inkscape-font-specification:Arimo;writing-mode:lr-tb;fill:#000000;fill-opacity:1;fill-rule:nonzero;stroke:none"
         transform="translate(264.41052,107.38125)"><tspan
           id="tspan26"
           y="0"
           x="0 4.9750199 9.1283398 11.19753 15.35085 19.08585 22.82085 26.974171 31.127489">Autoscope</tspan><tspan
           id="tspan28"
           y="8.7150021"
           x="0 4.1533198 8.3066397 10.79415 14.94747 20.36322 24.516541 27.004049">hardware</tspan></text>
<g
         id="g32"><path
           id="path34"
           style="fill:#ff7f00;fill-opacity:1;fill-rule:nonzero;stroke:#000000;stroke-width:0.6225;stroke-linecap:butt;stroke-linejoin:miter;stroke-miterlimit:4;stroke-dasharray:none;stroke-opacity:1"
           d="M 28.086,62.562 H 61.25 c 1.16,0 2.094,0.93 2.094,2.09 v 26.942 c 0,1.16 -0.934,2.094 -2.094,2.094 H 28.086 c -1.16,0 -2.094,-0.934 -2.094,-2.094 V 64.652 c 0,-1.16 0.934,-2.09 2.094,-2.09 z" /></g><g
         id="g36"><path
           id="path38"
           style="fill:#ff7f00;fill-opacity:1;fill-rule:nonzero;stroke:#000000;stroke-width:0.6225;stroke-linecap:butt;stroke-linejoin:miter;stroke-miterlimit:4;stroke-dasharray:none;stroke-opacity:1"
           d="m 89.078,18.984 h 10.781 c 0.461,0 0.832,0.375 0.832,0.836 v 35.684 c 0,0.461 -0.371,0.832 -0.832,0.832 H 89.078 c -0.465,0 -0.836,-0.371 -0.836,-0.832 V 19.82 c 0,-0.461 0.371,-0.836 0.836,-0.836 z" /></g><g
         id="g40"><path
           id="path42"
           style="fill:#ff7f00;fill-opacity:1;fill-rule:nonzero;stroke:#000000;stroke-width:0.6225;stroke-linecap:butt;stroke-linejoin:miter;stroke-miterlimit:4;stroke-dasharray:none;stroke-opacity:1"
           d="m 244.703,18.984 h 10.781 c 0.461,0 0.832,0.375 0.832,0.836 v 35.684 c 0,0.461 -0.371,0.832 -0.832,0.832 h -10.781 c -0.465,0 -0.836,-0.371 -0.836,-0.832 V 19.82 c 0,-0.461 0.371,-0.836 0.836,-0.836 z" /></g><g
         id="g44"><path
           id="path46"
           style="fill:#ff7f00;fill-opacity:1;fill-rule:nonzero;stroke:#000000;stroke-width:0.6225;stroke-linecap:butt;stroke-linejoin:miter;stroke-miterlimit:4;stroke-dasharray:none;stroke-opacity:1"
           d="m 89.078,62.562 h 10.781 c 0.461,0 0.832,0.372 0.832,0.833 v 41.906 c 0,0.465 -0.371,0.836 -0.832,0.836 H 89.078 c -0.465,0 -0.836,-0.371 -0.836,-0.836 V 63.395 c 0,-0.461 0.371,-0.833 0.836,-0.833 z" /></g><g
         id="g48"><path
           id="path50"
           style="fill:#ff7f00;fill-opacity:1;fill-rule:nonzero;stroke:#000000;stroke-width:0.6225;stroke-linecap:butt;stroke-linejoin:miter;stroke-miterlimit:4;stroke-dasharray:none;stroke-opacity:1"
           d="m 244.703,62.562 h 10.781 c 0.461,0 0.832,0.372 0.832,0.833 v 41.906 c 0,0.465 -0.371,0.836 -0.832,0.836 h -10.781 c -0.465,0 -0.836,-0.371 -0.836,-0.836 V 63.395 c 0,-0.461 0.371,-0.833 0.836,-0.833 z" /></g><g
         id="g52"><path
           id="path54"
           style="fill:#ff7f00;fill-opacity:1;fill-rule:nonzero;stroke:#000000;stroke-width:0.6225;stroke-linecap:butt;stroke-linejoin:miter;stroke-miterlimit:4;stroke-dasharray:none;stroke-opacity:1"
           d="m 88.66,112.359 h 11.617 c 0.231,0 0.414,0.188 0.414,0.418 v 5.391 c 0,0.23 -0.183,0.418 -0.414,0.418 H 88.66 c -0.23,0 -0.418,-0.188 -0.418,-0.418 v -5.391 c 0,-0.23 0.188,-0.418 0.418,-0.418 z" /></g><g
         id="g56"><path
           id="path58"
           style="fill:#ff7f00;fill-opacity:1;fill-rule:nonzero;stroke:#000000;stroke-width:0.6225;stroke-linecap:butt;stroke-linejoin:miter;stroke-miterlimit:4;stroke-dasharray:none;stroke-opacity:1"
           d="m 244.285,112.359 h 11.617 c 0.231,0 0.414,0.188 0.414,0.418 v 5.391 c 0,0.23 -0.183,0.418 -0.414,0.418 h -11.617 c -0.23,0 -0.418,-0.188 -0.418,-0.418 v -5.391 c 0,-0.23 0.188,-0.418 0.418,-0.418 z" /></g><g
         id="g60"><path
           id="path62"
           style="fill:none;stroke:#000000;stroke-width:0.6225;stroke-linecap:butt;stroke-linejoin:miter;stroke-miterlimit:4;stroke-dasharray:none;stroke-opacity:1"
           d="M 213.16,62.562 H 231 c 0.23,0 0.418,0.184 0.418,0.415 v 5.394 c 0,0.231 -0.188,0.414 -0.418,0.414 h -17.84 c -0.23,0 -0.418,-0.183 -0.418,-0.414 v -5.394 c 0,-0.231 0.188,-0.415 0.418,-0.415 z" /></g><g
         id="g64"><path
           id="path66"
           style="fill:none;stroke:#000000;stroke-width:0.6225;stroke-linecap:butt;stroke-linejoin:miter;stroke-miterlimit:4;stroke-dasharray:none;stroke-opacity:1"
           d="m 26.41,112.359 h 48.965 c 0.23,0 0.418,0.188 0.418,0.418 v 5.391 c 0,0.23 -0.188,0.418 -0.418,0.418 H 26.41 c -0.23,0 -0.418,-0.188 -0.418,-0.418 v -5.391 c 0,-0.23 0.188,-0.418 0.418,-0.418 z" /></g><g
         id="g68"><path
           id="path70"
           style="fill:none;stroke:#000000;stroke-width:0.6225;stroke-linecap:butt;stroke-linejoin:miter;stroke-miterlimit:4;stroke-dasharray:none;stroke-opacity:1"
           d="m 27.25,118.586 h 47.285 c 0.695,0 1.258,0.562 1.258,1.258 v 16.16 c 0,0.695 -0.563,1.258 -1.258,1.258 H 27.25 c -0.695,0 -1.258,-0.563 -1.258,-1.258 v -16.16 c 0,-0.696 0.563,-1.258 1.258,-1.258 z" /></g><g
         id="g72"><path
           id="path74"
           style="fill:none;stroke:#000000;stroke-width:0.6225;stroke-linecap:butt;stroke-linejoin:miter;stroke-miterlimit:4;stroke-dasharray:1.8675, 1.8675;stroke-dashoffset:0;stroke-opacity:1"
           d="m 39.277,112.359 h 10.782 c 0.461,0 0.836,0.375 0.836,0.836 v 10.782 c 0,0.461 -0.375,0.835 -0.836,0.835 H 39.277 c -0.461,0 -0.836,-0.374 -0.836,-0.835 v -10.782 c 0,-0.461 0.375,-0.836 0.836,-0.836 z" /></g><g
         id="g76"><path
           id="path78"
           style="fill:#ff7f00;fill-opacity:1;fill-rule:nonzero;stroke:#000000;stroke-width:0.6225;stroke-linecap:butt;stroke-linejoin:miter;stroke-miterlimit:4;stroke-dasharray:none;stroke-opacity:1"
           d="m 113.977,93.688 h 23.23 c 0.465,0 0.836,0.371 0.836,0.832 v 10.781 c 0,0.465 -0.371,0.836 -0.836,0.836 h -23.23 c -0.461,0 -0.832,-0.371 -0.832,-0.836 V 94.52 c 0,-0.461 0.371,-0.832 0.832,-0.832 z" /></g><text
         id="text82"
         style="font-variant:normal;font-weight:normal;font-size:7.46999979px;font-family:Arimo;-inkscape-font-specification:Arimo;writing-mode:lr-tb;fill:#000000;fill-opacity:1;fill-rule:nonzero;stroke:none"
         transform="translate(122.8939,102.40125)"><tspan
           id="tspan80"
           y="0"
           x="0">C</tspan></text>
<g
         id="g84"><path
           id="path86"
           style="fill:none;stroke:#000000;stroke-width:0.6225;stroke-linecap:butt;stroke-linejoin:miter;stroke-miterlimit:4;stroke-dasharray:none;stroke-opacity:1"
           d="m 120.203,112.359 h 10.781 c 0.461,0 0.832,0.375 0.832,0.836 v 10.782 c 0,0.461 -0.371,0.835 -0.832,0.835 h -10.781 c -0.465,0 -0.836,-0.374 -0.836,-0.835 v -10.782 c 0,-0.461 0.371,-0.836 0.836,-0.836 z" /></g><g
         id="g88"><path
           id="path90"
           style="fill:none;stroke:#000000;stroke-width:0.6225;stroke-linecap:butt;stroke-linejoin:miter;stroke-miterlimit:4;stroke-dasharray:none;stroke-opacity:1"
           d="m 151.328,112.359 h 10.781 c 0.461,0 0.832,0.375 0.832,0.836 v 10.782 c 0,0.461 -0.371,0.835 -0.832,0.835 h -10.781 c -0.465,0 -0.836,-0.374 -0.836,-0.835 v -10.782 c 0,-0.461 0.371,-0.836 0.836,-0.836 z" /></g><g
         id="g92"><path
           id="path94"
           style="fill:none;stroke:#000000;stroke-width:0.6225;stroke-linecap:butt;stroke-linejoin:miter;stroke-miterlimit:4;stroke-dasharray:none;stroke-opacity:1"
           d="m 170.004,112.359 h 10.781 c 0.461,0 0.832,0.375 0.832,0.836 v 10.782 c 0,0.461 -0.371,0.835 -0.832,0.835 h -10.781 c -0.465,0 -0.836,-0.374 -0.836,-0.835 v -10.782 c 0,-0.461 0.371,-0.836 0.836,-0.836 z" /></g><g
         id="g96"><path
           id="path98"
           style="fill:none;stroke:#000000;stroke-width:0.6225;stroke-linecap:butt;stroke-linejoin:miter;stroke-miterlimit:4;stroke-dasharray:none;stroke-opacity:1"
           d="m 188.676,112.359 h 10.781 c 0.465,0 0.836,0.375 0.836,0.836 v 10.782 c 0,0.461 -0.371,0.835 -0.836,0.835 h -10.781 c -0.461,0 -0.832,-0.374 -0.832,-0.835 v -10.782 c 0,-0.461 0.371,-0.836 0.832,-0.836 z" /></g><g
         id="g100"><path
           id="path102"
           style="fill:none;stroke:#000000;stroke-width:0.6225;stroke-linecap:butt;stroke-linejoin:miter;stroke-miterlimit:4;stroke-dasharray:none;stroke-opacity:1"
           d="m 207.352,112.359 h 10.781 c 0.465,0 0.836,0.375 0.836,0.836 v 10.782 c 0,0.461 -0.371,0.835 -0.836,0.835 h -10.781 c -0.461,0 -0.832,-0.374 -0.832,-0.835 v -10.782 c 0,-0.461 0.371,-0.836 0.832,-0.836 z" /></g><g
         id="g104"><path
           id="path106"
           style="fill:none;stroke:#000000;stroke-width:0.6225;stroke-linecap:butt;stroke-linejoin:miter;stroke-miterlimit:4;stroke-dasharray:none;stroke-opacity:1"
           d="m 226.027,112.359 h 10.782 c 0.461,0 0.836,0.375 0.836,0.836 v 10.782 c 0,0.461 -0.375,0.835 -0.836,0.835 h -10.782 c -0.461,0 -0.836,-0.374 -0.836,-0.835 v -10.782 c 0,-0.461 0.375,-0.836 0.836,-0.836 z" /></g><g
         id="g108"><path
           id="path110"
           style="fill:none;stroke:#000000;stroke-width:0.6225;stroke-linecap:butt;stroke-linejoin:miter;stroke-miterlimit:4;stroke-dasharray:none;stroke-opacity:1"
           d="m 26.41,137.262 h 48.965 c 0.23,0 0.418,0.183 0.418,0.418 v 5.39 c 0,0.231 -0.188,0.414 -0.418,0.414 H 26.41 c -0.23,0 -0.418,-0.183 -0.418,-0.414 v -5.39 c 0,-0.235 0.188,-0.418 0.418,-0.418 z" /></g><g
         id="g112"><path
           id="path114"
           style="fill:none;stroke:#000000;stroke-width:0.6225;stroke-linecap:butt;stroke-linejoin:miter;stroke-miterlimit:4;stroke-dasharray:none;stroke-opacity:1"
           d="m 8.574,0.312 h 265.16 c 0.7,0 1.258,0.559 1.258,1.258 v 16.16 c 0,0.696 -0.558,1.254 -1.258,1.254 H 8.574 c -0.695,0 -1.258,-0.558 -1.258,-1.254 V 1.57 c 0,-0.699 0.563,-1.258 1.258,-1.258 z" /></g><text
         id="text118"
         style="font-variant:normal;font-weight:normal;font-size:7.46999979px;font-family:Arimo;-inkscape-font-specification:Arimo;writing-mode:lr-tb;fill:#000000;fill-opacity:1;fill-rule:nonzero;stroke:none"
         transform="translate(124.32613,12.13875)"><tspan
           id="tspan116"
           y="0"
           x="0 3.72753 7.8808498 9.5391903 13.69251 17.427509 21.16251 25.31583 29.49156">Telescope</tspan></text>
<g
         id="g120"><path
           id="path122"
           style="fill:none;stroke:#000000;stroke-width:1.245;stroke-linecap:butt;stroke-linejoin:miter;stroke-miterlimit:10;stroke-dasharray:none;stroke-opacity:1"
           d="m 30.188,50.109 h 28.96" /></g><g
         id="g124"><path
           id="path126"
           style="fill:#000000;fill-opacity:1;fill-rule:nonzero;stroke:#000000;stroke-width:1.245;stroke-linecap:butt;stroke-linejoin:miter;stroke-miterlimit:10;stroke-dasharray:none;stroke-opacity:1"
           d="m 27.387,50.109 3.734,-1.867 -0.933,1.867 0.933,1.871 z" /></g><g
         id="g128"><path
           id="path130"
           style="fill:#000000;fill-opacity:1;fill-rule:nonzero;stroke:#000000;stroke-width:1.245;stroke-linecap:butt;stroke-linejoin:miter;stroke-miterlimit:10;stroke-dasharray:none;stroke-opacity:1"
           d="m 61.949,50.109 -3.734,1.871 0.933,-1.871 -0.933,-1.867 z" /></g><text
         id="text134"
         style="font-variant:normal;font-weight:normal;font-size:6.84749985px;font-family:Arimo;-inkscape-font-specification:Arimo;writing-mode:lr-tb;fill:#000000;fill-opacity:1;fill-rule:nonzero;stroke:none"
         transform="translate(35.145715,46.99875)"><tspan
           id="tspan132"
           y="0"
           x="0 3.80721 7.6144199 13.318387">15mm</tspan></text>
<g
         id="g136"><path
           id="path138"
           style="fill:none;stroke:#000000;stroke-width:1.245;stroke-linecap:butt;stroke-linejoin:miter;stroke-miterlimit:10;stroke-dasharray:none;stroke-opacity:1"
           d="M 19.77,66.758 V 89.492" /></g><g
         id="g140"><path
           id="path142"
           style="fill:#000000;fill-opacity:1;fill-rule:nonzero;stroke:#000000;stroke-width:1.245;stroke-linecap:butt;stroke-linejoin:miter;stroke-miterlimit:10;stroke-dasharray:none;stroke-opacity:1"
           d="m 19.77,63.957 1.867,3.734 -1.867,-0.933 -1.868,0.933 z" /></g><g
         id="g144"><path
           id="path146"
           style="fill:#000000;fill-opacity:1;fill-rule:nonzero;stroke:#000000;stroke-width:1.245;stroke-linecap:butt;stroke-linejoin:miter;stroke-miterlimit:10;stroke-dasharray:none;stroke-opacity:1"
           d="m 19.77,92.293 -1.868,-3.734 1.868,0.933 1.867,-0.933 z" /></g><text
         id="text150"
         style="font-variant:normal;font-weight:normal;font-size:6.84749985px;font-family:Arimo;-inkscape-font-specification:Arimo;writing-mode:lr-tb;fill:#000000;fill-opacity:1;fill-rule:nonzero;stroke:none"
         transform="translate(-0.521589,80.3025)"><tspan
           id="tspan148"
           y="0"
           x="0 3.80721 7.6144199 13.318387 19.042898">16mm </tspan></text>
<g
         id="g152"><path
           id="path154"
           style="fill:none;stroke:#000000;stroke-width:1.245;stroke-linecap:butt;stroke-linejoin:miter;stroke-miterlimit:10;stroke-dasharray:none;stroke-opacity:1"
           d="m 144.27,97.883 v 4.058" /></g><g
         id="g156"><path
           id="path158"
           style="fill:#000000;fill-opacity:1;fill-rule:nonzero;stroke:#000000;stroke-width:1.245;stroke-linecap:butt;stroke-linejoin:miter;stroke-miterlimit:10;stroke-dasharray:none;stroke-opacity:1"
           d="m 144.27,95.082 1.867,3.734 -1.867,-0.933 -1.868,0.933 z" /></g><g
         id="g160"><path
           id="path162"
           style="fill:#000000;fill-opacity:1;fill-rule:nonzero;stroke:#000000;stroke-width:1.245;stroke-linecap:butt;stroke-linejoin:miter;stroke-miterlimit:10;stroke-dasharray:none;stroke-opacity:1"
           d="m 144.27,104.742 -1.868,-3.734 1.868,0.933 1.867,-0.933 z" /></g><text
         id="text166"
         style="font-variant:normal;font-weight:normal;font-size:6.84749985px;font-family:Arimo;-inkscape-font-specification:Arimo;writing-mode:lr-tb;fill:#000000;fill-opacity:1;fill-rule:nonzero;stroke:none"
         transform="translate(149.30653,102.09)"><tspan
           id="tspan164"
           y="0"
           x="0 3.80721 5.7039676 9.5111771 15.215145">4,3mm</tspan></text>
<g
         id="g168"><path
           id="path170"
           style="fill:none;stroke:#000000;stroke-width:1.245;stroke-linecap:butt;stroke-linejoin:miter;stroke-miterlimit:10;stroke-dasharray:none;stroke-opacity:1"
           d="m 200.293,66.758 v 35.183" /></g><g
         id="g172"><path
           id="path174"
           style="fill:#000000;fill-opacity:1;fill-rule:nonzero;stroke:#000000;stroke-width:1.245;stroke-linecap:butt;stroke-linejoin:miter;stroke-miterlimit:10;stroke-dasharray:none;stroke-opacity:1"
           d="m 200.293,63.957 1.867,3.734 -1.867,-0.933 -1.867,0.933 z" /></g><g
         id="g176"><path
           id="path178"
           style="fill:#000000;fill-opacity:1;fill-rule:nonzero;stroke:#000000;stroke-width:1.245;stroke-linecap:butt;stroke-linejoin:miter;stroke-miterlimit:10;stroke-dasharray:none;stroke-opacity:1"
           d="m 200.293,104.742 -1.867,-3.734 1.867,0.933 1.867,-0.933 z" /></g><text
         id="text182"
         style="font-variant:normal;font-weight:normal;font-size:6.84749985px;font-family:Arimo;-inkscape-font-specification:Arimo;writing-mode:lr-tb;fill:#000000;fill-opacity:1;fill-rule:nonzero;stroke:none"
         transform="translate(203.43478,86.5275)"><tspan
           id="tspan180"
           y="0"
           x="0 3.80721 7.6144199 13.318387">19mm</tspan></text>
<g
         id="g184"><path
           id="path186"
           style="fill:none;stroke:#000000;stroke-width:0.6225;stroke-linecap:butt;stroke-linejoin:miter;stroke-miterlimit:4;stroke-dasharray:none;stroke-opacity:1"
           d="m 151.328,62.562 h 35.68 c 0.465,0 0.836,0.372 0.836,0.833 v 10.781 c 0,0.465 -0.371,0.836 -0.836,0.836 h -35.68 c -0.465,0 -0.836,-0.371 -0.836,-0.836 V 63.395 c 0,-0.461 0.371,-0.833 0.836,-0.833 z" /></g><g
         id="g188"><path
           id="path190"
           style="fill:none;stroke:#000000;stroke-width:0.6225;stroke-linecap:butt;stroke-linejoin:miter;stroke-miterlimit:4;stroke-dasharray:none;stroke-opacity:1"
           d="m 120.203,62.562 h 10.781 c 0.461,0 0.832,0.372 0.832,0.833 v 10.781 c 0,0.465 -0.371,0.836 -0.832,0.836 h -10.781 c -0.465,0 -0.836,-0.371 -0.836,-0.836 V 63.395 c 0,-0.461 0.371,-0.833 0.836,-0.833 z" /></g></g></g></svg>