<?xml version="1.0" encoding="UTF-8" standalone="no"?>
<svg
   xmlns:dc="http://purl.org/dc/elements/1.1/"
   xmlns:cc="http://creativecommons.org/ns#"
   xmlns:rdf="http://www.w3.org/1999/02/22-rdf-syntax-ns#"
   xmlns:svg="http://www.w3.org/2000/svg"
   xmlns="http://www.w3.org/2000/svg"
   viewBox="0 0 472.99841 222.63255"
   height="222.63255"
   width="472.99841"
   xml:space="preserve"
   id="svg2"
   version="1.1"><metadata
     id="metadata8"><rdf:RDF><cc:Work
         rdf:about=""><dc:format>image/svg+xml</dc:format><dc:type
           rdf:resource="http://purl.org/dc/dcmitype/StillImage" /></cc:Work></rdf:RDF></metadata><defs
     id="defs6" /><g
     transform="matrix(1.3333333,0,0,1.3333333,0,7.5658137e-6)"
     id="g10"><g
       id="g12"><path
         id="path14"
         style="fill:#000000;fill-opacity:1;fill-rule:evenodd;stroke:none"
         d="m 0.375,0.301 h 354 v 12.801 h -354 z" /><g
         transform="scale(1,-1)"
         id="g16"><path
           id="path18"
           style="fill:none;stroke:#000000;stroke-width:0.74880999;stroke-linecap:butt;stroke-linejoin:round;stroke-miterlimit:10;stroke-dasharray:none;stroke-opacity:1"
           d="M 0.074,-0.398 H 354.676" /></g><g
         transform="scale(1,-1)"
         id="g20"><path
           id="path22"
           style="fill:none;stroke:#000000;stroke-width:0.74880999;stroke-linecap:butt;stroke-linejoin:round;stroke-miterlimit:10;stroke-dasharray:none;stroke-opacity:1"
           d="M 0.074,-166.602 H 354.676" /></g><g
         transform="scale(1,-1)"
         id="g24"><path
           id="path26"
           style="fill:none;stroke:#000000;stroke-width:0.74880999;stroke-linecap:butt;stroke-linejoin:round;stroke-miterlimit:10;stroke-dasharray:none;stroke-opacity:1"
           d="M 0.074,-166.602 H 354.676" /></g><g
         transform="scale(1,-1)"
         id="g28"><path
           id="path30"
           style="fill:none;stroke:#000000;stroke-width:0.74880999;stroke-linecap:butt;stroke-linejoin:round;stroke-miterlimit:10;stroke-dasharray:none;stroke-opacity:1"
           d="M 0.375,0 V -166.898" /></g><g
         transform="scale(1,-1)"
         id="g32"><path
           id="path34"
           style="fill:none;stroke:#000000;stroke-width:0.74880999;stroke-linecap:butt;stroke-linejoin:round;stroke-miterlimit:10;stroke-dasharray:none;stroke-opacity:1"
           d="M 96.973,0 V -166.898" /></g><g
         transform="scale(1,-1)"
         id="g36"><path
           id="path38"
           style="fill:none;stroke:#000000;stroke-width:0.74880999;stroke-linecap:butt;stroke-linejoin:round;stroke-miterlimit:10;stroke-dasharray:none;stroke-opacity:1"
           d="M 255.273,0 V -13.199" /></g><g
         transform="scale(1,-1)"
         id="g40"><path
           id="path42"
           style="fill:none;stroke:#000000;stroke-width:0.74880999;stroke-linecap:butt;stroke-linejoin:round;stroke-miterlimit:10;stroke-dasharray:none;stroke-opacity:1"
           d="M 354.375,0 V -13.199" /></g><g
         transform="scale(1,-1)"
         id="g44"><path
           id="path46"
           style="fill:none;stroke:#000000;stroke-width:0.74880999;stroke-linecap:butt;stroke-linejoin:round;stroke-miterlimit:10;stroke-dasharray:none;stroke-opacity:1"
           d="M 255.273,-13.199 V -25.898" /></g><g
         transform="scale(1,-1)"
         id="g48"><path
           id="path50"
           style="fill:none;stroke:#000000;stroke-width:0.74880999;stroke-linecap:butt;stroke-linejoin:round;stroke-miterlimit:10;stroke-dasharray:none;stroke-opacity:1"
           d="M 354.375,-13.199 V -25.898" /></g><g
         transform="scale(1,-1)"
         id="g52"><path
           id="path54"
           style="fill:none;stroke:#000000;stroke-width:0.74880999;stroke-linecap:butt;stroke-linejoin:round;stroke-miterlimit:10;stroke-dasharray:none;stroke-opacity:1"
           d="M 255.273,-25.898 V -38.699" /></g><g
         transform="scale(1,-1)"
         id="g56"><path
           id="path58"
           style="fill:none;stroke:#000000;stroke-width:0.74880999;stroke-linecap:butt;stroke-linejoin:round;stroke-miterlimit:10;stroke-dasharray:none;stroke-opacity:1"
           d="M 354.375,-25.898 V -38.699" /></g><g
         transform="scale(1,-1)"
         id="g60"><path
           id="path62"
           style="fill:none;stroke:#000000;stroke-width:0.74880999;stroke-linecap:butt;stroke-linejoin:round;stroke-miterlimit:10;stroke-dasharray:none;stroke-opacity:1"
           d="M 255.273,-38.699 V -51.5" /></g><g
         transform="scale(1,-1)"
         id="g64"><path
           id="path66"
           style="fill:none;stroke:#000000;stroke-width:0.74880999;stroke-linecap:butt;stroke-linejoin:round;stroke-miterlimit:10;stroke-dasharray:none;stroke-opacity:1"
           d="M 354.375,-38.699 V -51.5" /></g><g
         transform="scale(1,-1)"
         id="g68"><path
           id="path70"
           style="fill:none;stroke:#000000;stroke-width:0.74880999;stroke-linecap:butt;stroke-linejoin:round;stroke-miterlimit:10;stroke-dasharray:none;stroke-opacity:1"
           d="M 255.273,-51.5 V -64.301" /></g><g
         transform="scale(1,-1)"
         id="g72"><path
           id="path74"
           style="fill:none;stroke:#000000;stroke-width:0.74880999;stroke-linecap:butt;stroke-linejoin:round;stroke-miterlimit:10;stroke-dasharray:none;stroke-opacity:1"
           d="M 354.375,-51.5 V -64.301" /></g><g
         transform="scale(1,-1)"
         id="g76"><path
           id="path78"
           style="fill:none;stroke:#000000;stroke-width:0.74880999;stroke-linecap:butt;stroke-linejoin:round;stroke-miterlimit:10;stroke-dasharray:none;stroke-opacity:1"
           d="M 255.273,-64.301 V -77.102" /></g><g
         transform="scale(1,-1)"
         id="g80"><path
           id="path82"
           style="fill:none;stroke:#000000;stroke-width:0.74880999;stroke-linecap:butt;stroke-linejoin:round;stroke-miterlimit:10;stroke-dasharray:none;stroke-opacity:1"
           d="M 354.375,-64.301 V -77.102" /></g><g
         transform="scale(1,-1)"
         id="g84"><path
           id="path86"
           style="fill:none;stroke:#000000;stroke-width:0.74880999;stroke-linecap:butt;stroke-linejoin:round;stroke-miterlimit:10;stroke-dasharray:none;stroke-opacity:1"
           d="M 255.273,-77.102 V -89.898" /></g><g
         transform="scale(1,-1)"
         id="g88"><path
           id="path90"
           style="fill:none;stroke:#000000;stroke-width:0.74880999;stroke-linecap:butt;stroke-linejoin:round;stroke-miterlimit:10;stroke-dasharray:none;stroke-opacity:1"
           d="M 354.375,-77.102 V -89.898" /></g><g
         transform="scale(1,-1)"
         id="g92"><path
           id="path94"
           style="fill:none;stroke:#000000;stroke-width:0.74880999;stroke-linecap:butt;stroke-linejoin:round;stroke-miterlimit:10;stroke-dasharray:none;stroke-opacity:1"
           d="m 255.273,-89.898 v -12.801" /></g><g
         transform="scale(1,-1)"
         id="g96"><path
           id="path98"
           style="fill:none;stroke:#000000;stroke-width:0.74880999;stroke-linecap:butt;stroke-linejoin:round;stroke-miterlimit:10;stroke-dasharray:none;stroke-opacity:1"
           d="m 354.375,-89.898 v -12.801" /></g><g
         transform="scale(1,-1)"
         id="g100"><path
           id="path102"
           style="fill:none;stroke:#000000;stroke-width:0.74880999;stroke-linecap:butt;stroke-linejoin:round;stroke-miterlimit:10;stroke-dasharray:none;stroke-opacity:1"
           d="m 255.273,-102.699 v -12.699" /></g><g
         transform="scale(1,-1)"
         id="g104"><path
           id="path106"
           style="fill:none;stroke:#000000;stroke-width:0.74880999;stroke-linecap:butt;stroke-linejoin:round;stroke-miterlimit:10;stroke-dasharray:none;stroke-opacity:1"
           d="m 354.375,-102.699 v -12.699" /></g><g
         transform="scale(1,-1)"
         id="g108"><path
           id="path110"
           style="fill:none;stroke:#000000;stroke-width:0.74880999;stroke-linecap:butt;stroke-linejoin:round;stroke-miterlimit:10;stroke-dasharray:none;stroke-opacity:1"
           d="m 255.273,-115.398 v -12.801" /></g><g
         transform="scale(1,-1)"
         id="g112"><path
           id="path114"
           style="fill:none;stroke:#000000;stroke-width:0.74880999;stroke-linecap:butt;stroke-linejoin:round;stroke-miterlimit:10;stroke-dasharray:none;stroke-opacity:1"
           d="m 354.375,-115.398 v -12.801" /></g><g
         transform="scale(1,-1)"
         id="g116"><path
           id="path118"
           style="fill:none;stroke:#000000;stroke-width:0.74880999;stroke-linecap:butt;stroke-linejoin:round;stroke-miterlimit:10;stroke-dasharray:none;stroke-opacity:1"
           d="M 255.273,-128.199 V -141" /></g><g
         transform="scale(1,-1)"
         id="g120"><path
           id="path122"
           style="fill:none;stroke:#000000;stroke-width:0.74880999;stroke-linecap:butt;stroke-linejoin:round;stroke-miterlimit:10;stroke-dasharray:none;stroke-opacity:1"
           d="M 354.375,-128.199 V -141" /></g><g
         transform="scale(1,-1)"
         id="g124"><path
           id="path126"
           style="fill:none;stroke:#000000;stroke-width:0.74880999;stroke-linecap:butt;stroke-linejoin:round;stroke-miterlimit:10;stroke-dasharray:none;stroke-opacity:1"
           d="m 255.273,-141 v -12.801" /></g><g
         transform="scale(1,-1)"
         id="g128"><path
           id="path130"
           style="fill:none;stroke:#000000;stroke-width:0.74880999;stroke-linecap:butt;stroke-linejoin:round;stroke-miterlimit:10;stroke-dasharray:none;stroke-opacity:1"
           d="m 354.375,-141 v -12.801" /></g><g
         transform="scale(1,-1)"
         id="g132"><path
           id="path134"
           style="fill:none;stroke:#000000;stroke-width:0.74880999;stroke-linecap:butt;stroke-linejoin:round;stroke-miterlimit:10;stroke-dasharray:none;stroke-opacity:1"
           d="m 255.273,-153.801 v -13.097" /></g><g
         transform="scale(1,-1)"
         id="g136"><path
           id="path138"
           style="fill:none;stroke:#000000;stroke-width:0.74880999;stroke-linecap:butt;stroke-linejoin:round;stroke-miterlimit:10;stroke-dasharray:none;stroke-opacity:1"
           d="m 354.375,-153.801 v -13.097" /></g><g
         transform="scale(1,-1)"
         id="g140"><path
           id="path142"
           style="fill:none;stroke:#000000;stroke-width:0.74880999;stroke-linecap:butt;stroke-linejoin:round;stroke-miterlimit:10;stroke-dasharray:none;stroke-opacity:1"
           d="M 354.375,0 V -166.898" /></g><text
         id="text146"
         style="font-variant:normal;font-weight:bold;font-size:10px;font-family:Ubuntu;-inkscape-font-specification:Ubuntu-Bold;writing-mode:lr-tb;fill:#ffffff;fill-opacity:1;fill-rule:nonzero;stroke:none"
         transform="translate(5.874404,10.300019)"><tspan
           id="tspan144"
           y="0"
           x="0 7.5900002 10.29 15.69 21.49 26.99 32.880001 35.279999 41.470001 43.169998 48.970001 54.470001 57.360001 63.259998 69.059998 74.949997 79.75 111.8 117.89 121.08 126.88 135.5 141.28 147.17 151.57001 153.97 158.34 160.74001 164.86 170.92999 176.82001 181.82001 186.25999 189.14999 195.22 201.11 207 212.5 215.69 218.58 222.78 255.5 262.29999 267.79999 270.98999 276.79001 282.67999 286.89999 289.29999 293.67001 296.07001 300.17001 305.97 310.07001 315.87 319.97 325.76999 331.66 336.45999">Niveau d’exigenceÉlément / fonctionnalitéValeur / référence</tspan></text>
<text
         id="text176"
         style="font-variant:normal;font-weight:normal;font-size:10px;font-family:Ubuntu;-inkscape-font-specification:Ubuntu;writing-mode:lr-tb;fill:#000000;fill-opacity:1;fill-rule:nonzero;stroke:none"
         transform="translate(22.874404,23.100018)"><tspan
           id="tspan148"
           y="0"
           x="0 7.7800002 13.67 16.4 18.879999 24.66 29.879999 33.77 39.669998 42.169998 46.060001 105.2 113.91 119.81 125.5 130.39999 135.99001 144.60001 150.19 155.88 159.89999 162.17999 168.07001 170.46001 175.67999 180.36 182.86 191.47 197.16 271.89999 277.5 283.10001 288.70001">ObligatoireMouvement d’azimut360°</tspan><tspan
           id="tspan150"
           y="12.8"
           x="0 7.7800002 13.67 16.4 18.879999 24.66 29.879999 33.77 39.669998 42.169998 46.060001 99.5 108.21 114.11 119.8 124.7 130.28999 138.89999 144.49001 150.17999 154.2 156.48 162.37 164.75999 170.35001 173.05 178.64 183.66 188.84 192.86 195.34 201.24001">ObligatoireMouvement d’élévation</tspan><tspan
           id="tspan152"
           y="25.6"
           x="0 7.7800002 13.67 16.4 18.879999 24.66 29.879999 33.77 39.669998 42.169998 46.060001 144.5 149.82001 155.72 244.60001 250.89 256.10999 260.57001 266.45999 272.35001 277.94 281.84 285.92999 290.89999 293.89001 300 302.5 304.81 310.39999 312.70999">ObligatoireSoCRaspberry-Pi 3 B</tspan><tspan
           id="tspan154"
           y="38.299999"
           x="0 7.7800002 13.67 16.4 18.879999 24.66 29.879999 33.77 39.669998 42.169998 46.060001 135.89999 142.10001 147.32001 155.89999 161.49001 165.38 264.70001 267.39001 276.10001 282.41 287.98999 293.59">ObligatoireCaméraIMX219</tspan><tspan
           id="tspan156"
           y="51.099998"
           x="0 7.7800002 13.67 16.4 18.879999 24.66 29.879999 33.77 39.669998 42.169998 46.060001 116.2 118.89 124.59 128.49001 134.08 137.97 141.86 147.08 151.73 157.32001 159.63 163.53 169.12 173.61 179.2 184.42">ObligatoireInterface réseau</tspan><tspan
           id="tspan158"
           y="63.900002"
           x="0 7.7800002 13.67 16.4 18.879999 24.66 29.879999 33.77 39.669998 42.169998 46.060001 125.3 127.99 133.69 137.59 143.17999 147.07001 150.96001 156.17999 160.83 168.74001 174.82001">ObligatoireInterfacePC</tspan><tspan
           id="tspan160"
           y="76.699997"
           x="0 7.7800002 13.67 16.4 18.879999 24.66 29.879999 33.77 39.669998 42.169998 46.060001 87 92.32 98 100.5 105.52 108 110.31 114.1 116.41 120.27 125.86 130.38 136.28 141.98 147.67999 152.89999 155.38 159.87 164.36 169.58 175.25999 179.95 185.53999 187.85001 193.74001 196.12 201.34 205.8 209.82001 213.67999 258.89999 264.22 268.10001 273.69 276.39001 279.09 284.31 288.17001 290.70001 296.38">ObligatoireSuivi / reconnaissance d’astreStellarium</tspan><tspan
           id="tspan162"
           y="89.5"
           x="2.9000001 10.68 16.57 20.59 23.08 28.98 34.68 40.380001 45.970001 97.300003 103.9 112.51 118.1 120.79 123.29 129.19 133.08 138.3 142.28 144.78 150.67999 156.38 158.69 164.58 170.17 174.63 176.94 179.47 188.05 193.27 199.05 204.64">OptionnelAmélioration des images</tspan><tspan
           id="tspan164"
           y="102.3"
           x="2.9000001 10.68 16.57 20.59 23.08 28.98 34.68 40.380001 45.970001 125.2 130.8 135.49001 139.38 144.60001 150.28 152.59 156.58 161.8 166.45 170.47 172.97 175.67">OptionnelÉcran tactile</tspan><tspan
           id="tspan166"
           y="115"
           x="2.9000001 10.68 16.57 20.59 23.08 28.98 34.68 40.380001 45.970001 82 84.690002 90.389999 94.290001 99.879997 103.77 107.66 112.88 117.53 123.12 125.43 131.32001 136.91 139.22 145.11 147.61 150.31 156.21001 160.23 165.41 171.19 176.78 179.09 184.11 186.59 191.81 194.09 196.78999 199.17999 204.77 209.46001 213.35001 218.57001">OptionnelInterface de pilotage via l’écran</tspan><tspan
           id="tspan168"
           y="127.8"
           x="2.9000001 10.68 16.57 20.59 23.08 28.98 34.68 40.380001 45.970001 99 105.5 111.2 115.1 121 126.7 132.60001 141.21001 143.7 149.28999 151.60001 157.19 162.88 168.47 172.36 178.14 183.73 187.75 190.24001 196.13 201.83 264.60001 269.92001 275.51001 280.16 284.07999 289.67001 295.37">OptionnelAutonomie énergétiqueSecteur</tspan><tspan
           id="tspan170"
           y="140.60001"
           x="2.9000001 10.68 16.57 20.59 23.08 28.98 34.68 40.380001 45.970001 105.4 114.11 120.01 125.7 130.60001 136.19 144.8 150.39 156.08 160.10001 162.38 168.27 173.86 176.17 180.66 186.56 192.46001">OptionnelMouvement de zoom</tspan><tspan
           id="tspan172"
           y="51.099998"
           x="247.2 256.48999 258.98999 265.39001 267.88 270.19 275.89999 279.88 285.59 291.17999 295.04001 300.78 306.37 310.35001 312.66">Wif, Ethernet ?</tspan><tspan
           id="tspan174"
           y="89.5"
           x="270.29999 275.62 278.10001 281.98999 284.48999 287.19 289.5">Siril ?</tspan></text>
</g></g></svg>