<?xml version="1.0" encoding="UTF-8" standalone="no"?>
<svg
   xmlns:dc="http://purl.org/dc/elements/1.1/"
   xmlns:cc="http://creativecommons.org/ns#"
   xmlns:rdf="http://www.w3.org/1999/02/22-rdf-syntax-ns#"
   xmlns:svg="http://www.w3.org/2000/svg"
   xmlns="http://www.w3.org/2000/svg"
   viewBox="0 0 1512.2666 801.19995"
   height="801.19995"
   width="1512.2666"
   xml:space="preserve"
   id="svg2"
   version="1.1"><metadata
     id="metadata8"><rdf:RDF><cc:Work
         rdf:about=""><dc:format>image/svg+xml</dc:format><dc:type
           rdf:resource="http://purl.org/dc/dcmitype/StillImage" /></cc:Work></rdf:RDF></metadata><defs
     id="defs6" /><g
     transform="matrix(1.3333333,0,0,1.3333333,0,1.9363332e-5)"
     id="g10"><g
       id="g12"><path
         id="path14"
         style="fill:#000000;fill-opacity:1;fill-rule:evenodd;stroke:none"
         d="M 0,0 H 1134.199 V 12.801 H 0 Z" /><path
         id="path16"
         style="fill:#000000;fill-opacity:1;fill-rule:evenodd;stroke:none"
         d="M 0,12.801 H 76.699 V 38.399 H 0 Z" /><path
         id="path18"
         style="fill:#ffff00;fill-opacity:1;fill-rule:evenodd;stroke:none"
         d="M 76.602,12.801 H 1134.2 V 38.399 H 76.602 Z" /><path
         id="path20"
         style="fill:#000000;fill-opacity:1;fill-rule:evenodd;stroke:none"
         d="M 0,38.398 H 76.699 V 51.199 H 0 Z" /><path
         id="path22"
         style="fill:#adff2f;fill-opacity:1;fill-rule:evenodd;stroke:none"
         d="M 76.602,38.398 H 1134.2 V 51.199 H 76.602 Z" /><path
         id="path24"
         style="fill:#000000;fill-opacity:1;fill-rule:evenodd;stroke:none"
         d="M 0,51.102 H 1134.199 V 63.899 H 0 Z" /><path
         id="path26"
         style="fill:#000000;fill-opacity:1;fill-rule:evenodd;stroke:none"
         d="M 0,63.898 H 76.699 V 89.5 H 0 Z" /><path
         id="path28"
         style="fill:#adff2f;fill-opacity:1;fill-rule:evenodd;stroke:none"
         d="M 76.602,63.898 H 1134.2 V 89.5 H 76.602 Z" /><path
         id="path30"
         style="fill:#000000;fill-opacity:1;fill-rule:evenodd;stroke:none"
         d="m 0,89.5 h 1134.199 v 12.801 H 0 Z" /><path
         id="path32"
         style="fill:#000000;fill-opacity:1;fill-rule:evenodd;stroke:none"
         d="m 0,102.301 h 76.699 v 38.398 H 0 Z" /><path
         id="path34"
         style="fill:#adff2f;fill-opacity:1;fill-rule:evenodd;stroke:none"
         d="M 76.602,102.301 H 1134.2 v 38.398 H 76.602 Z" /><path
         id="path36"
         style="fill:#000000;fill-opacity:1;fill-rule:evenodd;stroke:none"
         d="m 0,140.602 h 76.699 v 12.797 H 0 Z" /><path
         id="path38"
         style="fill:#ffa500;fill-opacity:1;fill-rule:evenodd;stroke:none"
         d="M 76.602,140.602 H 1134.2 v 12.797 H 76.602 Z" /><path
         id="path40"
         style="fill:#000000;fill-opacity:1;fill-rule:evenodd;stroke:none"
         d="m 0,153.398 h 1134.199 v 12.801 H 0 Z" /><path
         id="path42"
         style="fill:#000000;fill-opacity:1;fill-rule:evenodd;stroke:none"
         d="M 0,166.102 H 76.699 V 473 H 0 Z" /><path
         id="path44"
         style="fill:#adff2f;fill-opacity:1;fill-rule:evenodd;stroke:none"
         d="M 76.602,166.102 H 1134.2 V 473 H 76.602 Z" /><path
         id="path46"
         style="fill:#000000;fill-opacity:1;fill-rule:evenodd;stroke:none"
         d="m 0,473 h 76.699 v 12.801 H 0 Z" /><path
         id="path48"
         style="fill:#ffa500;fill-opacity:1;fill-rule:evenodd;stroke:none"
         d="M 76.602,473 H 1134.2 v 12.801 H 76.602 Z" /><path
         id="path50"
         style="fill:#000000;fill-opacity:1;fill-rule:evenodd;stroke:none"
         d="m 0,485.801 h 76.699 v 38.398 H 0 Z" /><path
         id="path52"
         style="fill:#adff2f;fill-opacity:1;fill-rule:evenodd;stroke:none"
         d="M 76.602,485.801 H 1134.2 v 38.398 H 76.602 Z" /><path
         id="path54"
         style="fill:#000000;fill-opacity:1;fill-rule:evenodd;stroke:none"
         d="M 0,524.199 H 76.699 V 537 H 0 Z" /><path
         id="path56"
         style="fill:#ffa500;fill-opacity:1;fill-rule:evenodd;stroke:none"
         d="M 76.602,524.199 H 1134.2 V 537 H 76.602 Z" /><path
         id="path58"
         style="fill:#000000;fill-opacity:1;fill-rule:evenodd;stroke:none"
         d="M 0,536.898 H 76.699 V 562.5 H 0 Z" /><path
         id="path60"
         style="fill:#adff2f;fill-opacity:1;fill-rule:evenodd;stroke:none"
         d="M 76.602,536.898 H 1134.2 V 562.5 H 76.602 Z" /><path
         id="path62"
         style="fill:#000000;fill-opacity:1;fill-rule:evenodd;stroke:none"
         d="m 0,562.5 h 76.699 v 12.801 H 0 Z" /><path
         id="path64"
         style="fill:#ffa500;fill-opacity:1;fill-rule:evenodd;stroke:none"
         d="M 76.602,562.5 H 1134.2 v 12.801 H 76.602 Z" /><path
         id="path66"
         style="fill:#000000;fill-opacity:1;fill-rule:evenodd;stroke:none"
         d="m 0,575.301 h 1134.199 v 12.801 H 0 Z" /><path
         id="path68"
         style="fill:#000000;fill-opacity:1;fill-rule:evenodd;stroke:none"
         d="m 1016.398,588.102 h 117.801 v 12.797 h -117.801 z" /><text
         id="text74"
         style="font-variant:normal;font-weight:bold;font-size:10px;font-family:Ubuntu;-inkscape-font-specification:Ubuntu-Bold;writing-mode:lr-tb;fill:#ffffff;fill-opacity:1;fill-rule:nonzero;stroke:none"
         transform="translate(101.99999,10.000002)"><tspan
           id="tspan70"
           y="0"
           x="0 6.4000001 12.2 16.299999 22.1 26.200001 32 37.889999 42.689999 124.5 131.3 136.8 139.99001 145.78999 151.67999 219 226.59 232.66 243.67999 249.67999 257.97 263.97 268.07001 274.14001 280.17999 286.07001 288.95999 310.29999 317.89001 323.95999 334.98001 340.98001 349.26999 353.37 358.87 364.87 369.09 371.98001 376.76001 382.26001 388.14999 408.89999 415.29999 421.10001 425.20001 431 435.10001 440.89999 446.79001 451.59 459.79001 465.79001 474.07999 478.17999 483.67999 489.67999 493.89999 496.79001 501.57001 507.07001 512.96002 533.79999 541.39001 547.46002 558.47998 564.47998 572.77002 576.87 582.94 588.83002 593.04999 598.94 601.83002 606.71997 611.60999 617.40997 623.29999 637.09998 643.5 649.29999 653.40002 659.20001 663.29999 669.09998 674.98999 679.78998 687.98999 693.98999 702.28003 706.38 712.45001 718.34003 722.56 728.45001 731.34003 736.22998 741.12 746.91998 752.81 767.09998 775 780.89001 786.39001 792.28003 796.67999 799.57001 803.77002 819.79999 826.20001 830.41998 833.31 841.19 847.08002 852.96997 855.85999 860.06 865.56 868.45001 872.54999 880.75 888.04999 896.54999 900.14001 905.82001 918.5 924.90002 929.12 932.01001 939.89001 946.28003 952.17999 961.07001 964.65997 970.34003 985.29999 990.70001 996.77002 1000.99 1006.49 1012.08 1015.67 1021.35">RéférenceValeurNomduproduitNomdufabricantRéférencedufabricantNomdufournisseurRéférencedufournisseurQuantitéPrixunitaireHT(€)PrixTTC(€)Total(€)</tspan><tspan
           id="tspan72"
           y="25.799999"
           x="-83.099998 -75.199997 -69.199997 -64.800003 -61.91 -55.91 -50.02">Optique</tspan></text>
<text
         id="text82"
         style="font-variant:normal;font-weight:normal;font-size:10px;font-family:Ubuntu;-inkscape-font-specification:Ubuntu;writing-mode:lr-tb;fill:#000000;fill-opacity:1;fill-rule:nonzero;stroke:none"
         transform="translate(124.69999,22.800002)"><tspan
           id="tspan76"
           y="0"
           x="0 191.5 200.21001 202.7 206.59 212.49001 214.99001 218.88 221.19 227.08 232.27 236.16 241.38 247.27 253.17 255.85001 258.35001 264.23999 269.94 511.10001 518.88 524.77002 528.78998 531.28003 537.16998 542.87 548.46002 550.77002 557.65002 563.34998 567.25 572.84003 576.72998 579.42999 581.92999 587.63 593.52002 599.10999 660 666.28998 672 677.59003 683.19 762.90002 915.20001 920.79999 926.40002 974 979.59998 985.20001">-Miroir paraboliqueOptique UnterlindenKE0311325325</tspan><tspan
           id="tspan78"
           y="12.8"
           x="0 103.3 108.9 114.5 123.11 208.89999 217.61 220.10001 223.99001 229.89 232.39 236.28 238.59 244.48 247.17 252.39 511.10001 518.88 524.77002 528.78998 531.28003 537.16998 542.87 548.46002 550.77002 557.65002 563.34998 567.25 572.84003 576.72998 579.42999 581.92999 587.63 593.52002 599.10999 660 666.28998 672 677.59003 683.19 762.90002 918 923.59998 976.79999 982.40002">-70mmMiroir planOptique UnterlindenKE03517070</tspan><tspan
           id="tspan80"
           y="25.6"
           x="0 88.300003 93.900002 102.51 111.12 113.4 118.39 123.99 129.59 138.2 212.10001 219.88 224.58 229.27 234.97 237.67 242.89 245.37 249.25999 309 316.78 325.39001 330.98001 336.76001 342.66 533 539.78998 544.28003 548.29999 552.15997 558.06 561.04999 565.54999 571.26001 577.15997 663.20001 668.79999 674.40002 680 762.90002 918 923.59998 976.79999 982.40002">-7mm –21mmOcculaireOmegonAstro-shop508415959</tspan></text>
<text
         id="text88"
         style="font-variant:normal;font-weight:bold;font-size:10px;font-family:Ubuntu;-inkscape-font-specification:Ubuntu-Bold;writing-mode:lr-tb;fill:#ffffff;fill-opacity:1;fill-rule:nonzero;stroke:none"
         transform="translate(1098.6,61.100001)"><tspan
           id="tspan84"
           y="0"
           x="0 5.6799998 11.36">454</tspan><tspan
           id="tspan86"
           y="19.4"
           x="-1093.3 -1084.33 -1078.49 -1073.71 -1068.21 -1063.8101 -1059.71 -1053.64 -1047.75 -1044.86 -1038.8199 -1032.9301">Mécatronique</tspan></text>
<text
         id="text94"
         style="font-variant:normal;font-weight:normal;font-size:10px;font-family:Ubuntu;-inkscape-font-specification:Ubuntu;writing-mode:lr-tb;fill:#000000;fill-opacity:1;fill-rule:nonzero;stroke:none"
         transform="translate(124.69999,73.900001)"><tspan
           id="tspan90"
           y="0"
           x="0 195 203.71001 209.61 213.5 219.09 224.78999 228.67999 230.99001 236.88 242.07001 246.56 248.87 254.06 256.37 262.26001 267.45001 406 411.60001 417.20001 424.29001 433 438.59 444.19 447.17999 452.78 458.38 463.98001 469.57999 538.40002 545.12 551.02002 555 558.89001 564.78998 570.48999 572.98999 660.40002 666 671.59998 677.20001 682.79999 762.90002 829.5 835.09998 840.70001 843.19 848.78998 913.90002 919.5 925.09998 927.59003 972.79999 978.40002 984 986.48999">-Moteur pas à pas17HM15-0904SGotronic31119217,4220,941,8</tspan><tspan
           id="tspan92"
           y="12.8"
           x="0 195 203.71001 209.61 213.5 219.09 224.78999 228.67999 230.99001 236.88 242.07001 246.56 248.87 254.06 256.37 262.26001 267.45001 404.20001 409.51999 415.10001 420.70001 426.39001 433.48001 439.07999 444.67999 447.67001 453.26999 458.87 464.47 470.07001 538.40002 545.12 551.02002 555 558.89001 564.78998 570.48999 572.98999 660.40002 666 671.59998 677.20001 682.79999 762.90002 829.5 835.09998 840.70001 843.19 848.78998 913.90002 919.5 925.09998 927.59003 972.79999 978.40002 984 986.48999">-Moteur pas à pasS20TH30-0604AGotronic31107119,0822,922,9</tspan></text>
<text
         id="text100"
         style="font-variant:normal;font-weight:bold;font-size:10px;font-family:Ubuntu;-inkscape-font-specification:Ubuntu-Bold;writing-mode:lr-tb;fill:#ffffff;fill-opacity:1;fill-rule:nonzero;stroke:none"
         transform="translate(1097.3,99.5)"><tspan
           id="tspan96"
           y="0"
           x="0 5.6799998 11.36 13.87">64,7</tspan><tspan
           id="tspan98"
           y="32.099998"
           x="-1069 -1063.1801 -1055.28">SOC</tspan></text>
<text
         id="text110"
         style="font-variant:normal;font-weight:normal;font-size:10px;font-family:Ubuntu;-inkscape-font-specification:Ubuntu;writing-mode:lr-tb;fill:#000000;fill-opacity:1;fill-rule:nonzero;stroke:none"
         transform="translate(124.69999,112.3)"><tspan
           id="tspan102"
           y="0"
           x="0 196.60001 202.89 208.11 212.57001 218.46001 224.35001 229.94 233.84 237.92999 242.89999 245.21001 251.28999 253.82001 256.13 261.70999 264.01999 300.10001 306.39001 311.60999 316.07001 321.95999 327.85001 333.44 337.34 341.42999 346.39999 348.70999 354.79001 378.20001 384.79001 391.57999 396.89999 402.98001 409.37 415.07999 421.37 427.45999 433.44 439.51999 442.20999 447.85001 450.84 459.51999 467.29999 474.42999 480.81 483.79999 489.39999 496.12 542.70001 547.59998 552.82001 556.67999 562.39001 567.97998 570.67999 654.79999 660.40002 666 671.59998 677.20001 682.79999 688.40002 762.90002 829.5 835.09998 840.70001 843.19 848.78998 970 975.59998 981.20001 983.69 989.28998">-Raspberry Pi 3 BRaspberry PiRASPBERRYPI3-MODB-1GBFarnell2525225129,2929,29</tspan><tspan
           id="tspan104"
           y="12.8"
           x="0 107.4 113 121.71 196.39999 202.69 207.91 212.37 218.25999 220.78999 223.07001 229.27 234.49001 243.07001 248.66 252.55 257.76999 260.04999 265.07001 300.10001 306.39001 311.60999 316.07001 321.95999 327.85001 333.44 337.34 341.42999 346.39999 348.70999 354.79001 382 388.29001 394.37 397.06 399.37 404.97 413.67999 419.76001 422.07001 428.45001 435.04999 443.76001 449.47 456.04001 462.64001 464.95001 471.34 478.94 485.54001 491.82999 542.70001 547.59998 552.82001 556.67999 562.39001 567.97998 570.67999 654.79999 660.40002 666 671.59998 677.20001 682.79999 688.40002 762.90002 829.5 835.09998 840.70001 843.19 848.78998 970 975.59998 981.20001 983.69 989.28998">-8MpRaspi Camera v2Raspberry PiRPI 8MP CAMERA BOARDFarnell2510728122,1922,19</tspan><tspan
           id="tspan106"
           y="25.5"
           x="0 105.4 111 116.6 123.32 199.8 206 211.22 215.08 218.99001 224.58 226.89 235.5 237.98 242.67 246.56 252.46001 254.77 260.06 311.5 316.82001 322 327.70001 333.59 336.09 340.57999 404.5 409.82001 416.79999 422.12 429.20001 436.79999 443.39999 449.79999 452.79001 458.39001 463.98999 469.59 540.90002 549.60999 555.51001 561.20001 565.69 571.28003 628.59998 634.20001 639.79999 645.40002 648.39001 653.71002 660.69 666.01001 673.09003 680.69 687.28998 693.69 696.67999 702.28003 707.88 713.47998 762.90002 835.09998 840.70001 843.19 975.59998 981.20001 983.69">-16GBCarte micro SDSandiskSDSDQAB-016GMouser467-SDSDQAB-016G19,89,8</tspan><tspan
           id="tspan108"
           y="38.299999"
           x="0">-</tspan></text>
<text
         id="text114"
         style="font-variant:normal;font-weight:normal;font-size:10px;font-family:'Liberation Sans';-inkscape-font-specification:LiberationSans;writing-mode:lr-tb;fill:#000000;fill-opacity:1;fill-rule:nonzero;stroke:none"
         transform="translate(333.69999,150.4)"><tspan
           id="tspan112"
           y="0"
           x="0 7.2199998 12.78 18.379999 23.940001 29.549999 32.32 39.540001 46.200001 553.90002">Nappe CSI1</tspan></text>
<text
         id="text118"
         style="font-variant:normal;font-weight:normal;font-size:10px;font-family:Ubuntu;-inkscape-font-specification:Ubuntu;writing-mode:lr-tb;fill:#000000;fill-opacity:1;fill-rule:nonzero;stroke:none"
         transform="translate(1104.3,150.6)"><tspan
           id="tspan116"
           y="0"
           x="0">0</tspan></text>
<text
         id="text122"
         style="font-variant:normal;font-weight:bold;font-size:10px;font-family:Ubuntu;-inkscape-font-specification:Ubuntu-Bold;writing-mode:lr-tb;fill:#ffffff;fill-opacity:1;fill-rule:nonzero;stroke:none"
         transform="translate(1094.5,163.4)"><tspan
           id="tspan120"
           y="0"
           x="0 5.6799998 11.36 13.87 19.549999">61,28</tspan></text>
<text
         id="text188"
         style="font-variant:normal;font-weight:normal;font-size:10px;font-family:Ubuntu;-inkscape-font-specification:Ubuntu;writing-mode:lr-tb;fill:#000000;fill-opacity:1;fill-rule:nonzero;stroke:none"
         transform="translate(124.69999,176.2)"><tspan
           id="tspan124"
           y="0"
           x="0 190.89999 197 202.89999 208.60001 212.62 216.48 222.38 225.11 230.7 236.38 240.27 242.58 251.19 257.09 260.97 266.56 272.26001 314.29999 320.20001 326.10001 328.79999 334.70001 337.39999 543.59998 549.5 555.40002 558.09998 564 566.70001 663.20001 668.79999 674.40002 680 762.90002 905.5 911.09998 913.59003 919.19 924.78998 930.39001 935.98999 961.59998 967.20001 972.79999 975.28998 980.89001 986.48999 992.09003 997.69">-Contrôleur moteurPololuPololu118235,2380615,71418</tspan><tspan
           id="tspan126"
           y="12.8"
           x="0 95.800003 101.4 103.89 109.49 115.09 120.69 127.41 134.46001 206.10001 214.81 220.71001 226.60001 232.28999 234.99001 242.88 249.60001 255.67999 309.89999 316.39999 322.29001 327.51001 331.37 335.26999 340.97 343.47 400.29999 407.17999 409.91 413.89001 416.39001 425 430.19 434.09 439.67999 442.67001 449.39001 455.47 460.76001 463.75 469.35001 474.95001 540.90002 549.60999 555.51001 561.20001 565.69 571.28003 656.09998 661.70001 667.29999 672.90002 675.89001 681.48999 687.09003 762.90002 829.5 835.09998 840.70001 843.19 848.78998 970 975.59998 981.20001 983.69 989.28998">-1,575GHzModuleGPSAdafruitUltimate-GPS-746Mouser485-746134,8934,89</tspan><tspan
           id="tspan128"
           y="25.6"
           x="0 206 214.71001 220.61 226.5 232.19 234.89 240.48 242.78999 245.48 254.19 308.29999 313.62 319.51001 324.69 328.57999 333.79999 337.66 343.37 415.79999 421.12 426.79999 434.07999 437.07001 442.67999 448.28 453.88 459.48001 540.90002 549.60999 555.51001 561.20001 565.69 571.28003 639.79999 645.40002 651 656.59998 659.59003 664.90997 670.59003 677.87 680.85999 686.46997 692.07001 697.66998 703.27002 762.90002 829.5 835.09998 840.70001 843.19 848.78998 970 975.59998 981.20001 983.69 989.28998">-Module IMUSparkfunSEN-13762Mouser474-SEN-13762113,0613,06</tspan><tspan
           id="tspan130"
           y="38.299999"
           x="-4.6999998 2.1800001 199.89999 208.61 214.50999 220.39999 226.09 228.78999 234.38 236.69 243.78 249.98 253.78 260.88 313.20001 319.48999 325.07999 329.57999 335.48001 411.79999 418.09 421.07999 426.67999 432.28 438.67999 444.28 446.76999 452.37 455.35999 460.95999 463.45001 540.90002 549.60999 555.51001 561.20001 565.69 571.28003 635.79999 641.40002 647 652.59998 655.59003 661.88 664.87 670.46997 676.07001 682.46997 688.07001 690.56 696.15997 699.15002 704.75 707.23999 762.90002 832.29999 837.90002 840.39001 845.98999 972.79999 978.40002 980.89001 986.48999">U1Module DC/DCRecomR-78B5.0-2.0Mouser919-R-78B5.0-2.018,628,62</tspan><tspan
           id="tspan132"
           y="51.099998"
           x="0 188 194.60001 197.3 199.8 208.41 214 219.69 223.71001 228.89 232.91 235.39 241.28999 246.99001 249.3 255.69 261.89001 265.69 272.79001 306.79999 313.10999 319.19 321.5 327.39001 333.19 340.95999 346.54999 414 420.59 425.98999 432.19 437.79001 443.39001 450.26999 455.59 461.17999 542.70001 547.59998 552.82001 556.67999 562.39001 567.97998 570.67999 654.79999 660.40002 666 671.59998 677.20001 682.79999 688.40002 762.90002 829.5 835.09998 840.70001 843.19 848.78998 970 975.59998 981.20001 983.69 989.28998">-Alimentation AC/DCXP PowerVEC65US12Farnell2524410121,7521,75</tspan><tspan
           id="tspan134"
           y="63.900002"
           x="0 196.5 202.60001 208.5 214.2 219.89999 225.49001 230.17999 234.08 239.67 245.37 249.25999 251.57001 256.76001 259.45999 261.95999 313.20001 319.39999 326.28 328.97 331.28 333.78 339.48001 424.39999 430.48001 436.56 439.54999 445.19 450.76999 540.90002 549.60999 555.51001 561.20001 565.69 571.28003 651.29999 656.90002 662.5 668.09998 671.09003 677.16998 683.25 686.23999 691.88 762.90002 829.5 835.09998 837.59003 843.19 848.78998 970 975.59998 978.09003 983.69 989.28998">-Connecteur alimCUI incPP-013Mouser490-PP-1310,9870,987</tspan><tspan
           id="tspan136"
           y="76.699997"
           x="-3.8 1.2 196.5 202.60001 208.5 214.2 219.89999 225.49001 230.17999 234.08 239.67 245.37 249.25999 251.57001 256.76001 259.45999 261.95999 313.20001 319.39999 326.28 328.97 331.28 333.78 339.48001 421.89999 427 432 434.98999 440.59 446.19 451.79001 540.90002 549.60999 555.51001 561.20001 565.69 571.28003 646 651.59998 657.20001 662.79999 665.78998 670.89001 675.89001 678.88 684.47998 690.08002 695.67999 762.90002 829.5 835.09998 837.59003 843.19 848.78998 970 975.59998 978.09003 983.69 989.28998">J6Connecteur alimCUI incPJ-043HMouser490-PJ-043H10,7070,707</tspan><tspan
           id="tspan138"
           y="89.5"
           x="216.89999 223.99001 229.58 234.8 240.69 246.28 305.39999 312 320.60999 326.5 332.20999 337.79999 343.48001 349.38 411.29999 416.89999 422.5 428.10001 433.70001 439.29999 442.29001 447.89001 453.48999 459.09 464.28 540.90002 549.60999 555.51001 561.20001 565.69 571.28003 635.29999 640.90002 646.5 652.09998 655.09003 660.69 666.28998 671.89001 677.48999 683.09003 686.08002 691.67999 697.28003 702.88 708.07001 762.90002 829.5 835.09998 837.59003 843.19 848.78998 970 975.59998 978.09003 983.69 989.28998">HeaderAmphenol76383-302LFMouser649-76383-302LF30,9872,961</tspan><tspan
           id="tspan140"
           y="102.3"
           x="0 216.89999 223.99001 229.58 234.8 240.69 246.28 305.39999 312 320.60999 326.5 332.20999 337.79999 343.48001 349.38 411.29999 416.89999 422.5 428.10001 433.70001 439.29999 442.29001 447.89001 453.48999 459.09 464.28 540.90002 549.60999 555.51001 561.20001 565.69 571.28003 635.29999 640.90002 646.5 652.09998 655.09003 660.69 666.28998 671.89001 677.48999 683.09003 686.08002 691.67999 697.28003 702.88 708.07001 762.90002 829.5 835.09998 837.59003 843.19 848.78998 970 975.59998 978.09003 983.69 989.28998">-HeaderAmphenol65239-002LFMouser649-65239-002LF30,3411,023</tspan><tspan
           id="tspan142"
           y="115.1"
           x="216.89999 223.99001 229.58 234.8 240.69 246.28 305.39999 312 320.60999 326.5 332.20999 337.79999 343.48001 349.38 411.29999 416.89999 422.5 428.10001 433.70001 439.29999 442.29001 447.89001 453.48999 459.09 464.28 540.90002 549.60999 555.51001 561.20001 565.69 571.28003 635.29999 640.90002 646.5 652.09998 655.09003 660.69 666.28998 671.89001 677.48999 683.09003 686.08002 691.67999 697.28003 702.88 708.07001 762.90002 829.5 835.09998 837.59003 843.19 848.78998 970 975.59998 978.09003 983.69 989.28998">HeaderAmphenol76382-302LFMouser649-76382-302LF70,4983,486</tspan><tspan
           id="tspan144"
           y="127.8"
           x="0 216.89999 223.99001 229.58 234.8 240.69 246.28 305.39999 312 320.60999 326.5 332.20999 337.79999 343.48001 349.38 411.29999 416.89999 422.5 428.10001 433.70001 439.29999 442.29001 447.89001 453.48999 459.09 464.28 540.90002 549.60999 555.51001 561.20001 565.69 571.28003 635.29999 640.90002 646.5 652.09998 655.09003 660.69 666.28998 671.89001 677.48999 683.09003 686.08002 691.67999 697.28003 702.88 708.07001 762.90002 829.5 835.09998 837.59003 843.19 848.78998 970 975.59998 978.09003 983.69 989.28998">-HeaderAmphenol65240-002LFMouser649-65240-002LF70,2011,407</tspan><tspan
           id="tspan146"
           y="140.60001"
           x="-3.8 1.2 216.89999 223.99001 229.58 234.8 240.69 246.28 305.39999 312 320.60999 326.5 332.20999 337.79999 343.48001 349.38 411.29999 416.89999 422.5 428.10001 433.70001 439.29999 442.29001 447.89001 453.48999 459.09 464.28 540.90002 549.60999 555.51001 561.20001 565.69 571.28003 635.29999 640.90002 646.5 652.09998 655.09003 660.69 666.28998 671.89001 677.48999 683.09003 686.08002 691.67999 697.28003 702.88 708.07001 762.90002 829.5 835.09998 837.59003 843.19 848.78998 970 975.59998 978.09003 983.69 989.28998">J7HeaderAmphenol76382-304LFMouser649-76382-304LF10,6990,699</tspan><tspan
           id="tspan148"
           y="153.39999"
           x="0 216.89999 223.99001 229.58 234.8 240.69 246.28 305.39999 312 320.60999 326.5 332.20999 337.79999 343.48001 349.38 411.29999 416.89999 422.5 428.10001 433.70001 439.29999 442.29001 447.89001 453.48999 459.09 464.28 540.90002 549.60999 555.51001 561.20001 565.69 571.28003 635.29999 640.90002 646.5 652.09998 655.09003 660.69 666.28998 671.89001 677.48999 683.09003 686.08002 691.67999 697.28003 702.88 708.07001 762.90002 829.5 835.09998 837.59003 843.19 848.78998 970 975.59998 978.09003 983.69 989.28998">-HeaderAmphenol65240-004LFMouser649-65240-004LF10,3140,314</tspan><tspan
           id="tspan150"
           y="166.2"
           x="-3.8 1.2 216.89999 223.99001 229.58 234.8 240.69 246.28 305.39999 312 320.60999 326.5 332.20999 337.79999 343.48001 349.38 411.29999 416.89999 422.5 428.10001 433.70001 439.29999 442.29001 447.89001 453.48999 459.09 464.28 540.90002 549.60999 555.51001 561.20001 565.69 571.28003 635.29999 640.90002 646.5 652.09998 655.09003 660.69 666.28998 671.89001 677.48999 683.09003 686.08002 691.67999 697.28003 702.88 708.07001 762.90002 829.5 835.09998 837.59003 843.19 848.78998 970 975.59998 978.09003 983.69 989.28998">J9HeaderAmphenol76382-305LFMouser649-76382-305LF10,8820,882</tspan><tspan
           id="tspan152"
           y="179"
           x="0 216.89999 223.99001 229.58 234.8 240.69 246.28 305.39999 312 320.60999 326.5 332.20999 337.79999 343.48001 349.38 411.29999 416.89999 422.5 428.10001 433.70001 439.29999 442.29001 447.89001 453.48999 459.09 464.28 540.90002 549.60999 555.51001 561.20001 565.69 571.28003 635.29999 640.90002 646.5 652.09998 655.09003 660.69 666.28998 671.89001 677.48999 683.09003 686.08002 691.67999 697.28003 702.88 708.07001 762.90002 829.5 835.09998 837.59003 843.19 848.78998 970 975.59998 978.09003 983.69 989.28998">-HeaderAmphenol65240-005LFMouser649-65240-005LF10,4020,402</tspan><tspan
           id="tspan154"
           y="191.8"
           x="0 99.300003 104.9 107.39 112.99 118.59 127.2 195.7 201.8 207.7 213.39999 217.42 222.60001 227.28999 231.31 238.08 245.17 250.75999 255.98 261.87 267.45999 305.39999 312 320.60999 326.5 332.20999 337.79999 343.48001 349.38 411.29999 416.89999 422.5 428.10001 433.70001 439.29999 442.29001 447.89001 453.48999 459.09 464.28 540.90002 549.60999 555.51001 561.20001 565.69 571.28003 635.29999 640.90002 646.5 652.09998 655.09003 660.69 666.28998 671.89001 677.48999 683.09003 686.08002 691.67999 697.28003 702.88 708.07001 760.09998 765.70001 829.5 835.09998 837.59003 843.19 848.78998 970 975.59998 978.09003 983.69 989.28998">-2,54mmContactsHeaderAmphenol76357-401LFMouser649-76357-401LF360,1926,912</tspan><tspan
           id="tspan156"
           y="204.5"
           x="-3.8 1.2 216.89999 223.99001 229.58 234.8 240.69 246.28 312 317.32001 322.5 331.10999 335 340.59 405.10001 410.81 416.10001 423.88 426.87 432.48001 438.07999 443.67999 446.67001 452.26999 457.87 460.37 465.57001 468.56 540.90002 549.60999 555.51001 561.20001 565.69 571.28003 634.70001 640.29999 645.90002 651.5 654.48999 660.20001 665.48999 673.27002 678.88 684.47998 690.08002 695.67999 701.28003 706.96997 762.90002 832.29999 837.90002 840.39001 845.98999 972.79999 978.40002 980.89001 986.48999">J8HeaderSamtecESQ-120-33-T-DMouser200-ESQ12033TD14,544,54</tspan><tspan
           id="tspan158"
           y="217.3"
           x="-17.6 -14.7 -7.8200002 -2.21 0.1 2.5599999 4.8699999 11.75 17.389999 216.89999 223.99001 229.58 234.8 240.69 246.28 305.39999 312 320.60999 326.5 332.20999 337.79999 343.48001 349.38 411.29999 416.89999 422.5 428.10001 433.70001 439.29999 442.29001 447.89001 453.48999 459.09 464.28 540.90002 549.60999 555.51001 561.20001 565.69 571.28003 635.29999 640.90002 646.5 652.09998 655.09003 660.69 666.28998 671.89001 677.48999 683.09003 686.08002 691.67999 697.28003 702.88 708.07001 762.90002 829.5 835.09998 837.59003 843.19 848.78998 970 975.59998 978.09003 983.69 989.28998">[U2 ; U4]HeaderAmphenol76341-308LFMouser649-76341-308LF60,9965,976</tspan><tspan
           id="tspan160"
           y="230.10001"
           x="-4.8000002 2.3 210 217.10001 219.60001 225.5 231.39 236.98 239.28999 245.17 251.75999 306.79999 311.98999 314.48999 318.51001 322.48999 325.19 330.78 334.67001 340.37 344.85999 418.89999 424.22 432.89999 439.29001 444.29001 449.89001 455.48999 540.90002 549.60999 555.51001 561.20001 565.69 571.28003 642.90002 648.5 654.09998 659.70001 662.69 668.01001 676.69 683.08002 688.08002 693.67999 699.28003 762.90002 832.29999 837.90002 840.39001 845.98999 972.79999 978.40002 980.89001 986.48999">D2Diode TVSLittlefuseSMCJ12AMouser576-SMCJ12A10,540,54</tspan><tspan
           id="tspan162"
           y="242.89999"
           x="-4.8000002 2.3 199 206.10001 208.60001 214.5 220.39 225.98 228.28999 233.58 238.27 243.98 249.88 253.87 257.89001 263.07001 316.89999 325.60999 334.32001 419.70001 425.01999 431.31 436.89001 442.48999 446.98999 449.48999 455.17999 540.90002 549.60999 555.51001 561.20001 565.69 571.28003 643.70001 649.29999 654.90002 660.5 663.48999 668.81 675.09998 680.67999 686.28003 690.78003 693.28003 698.96997 762.90002 829.5 835.09998 837.59003 843.19 848.78998 970 975.59998 978.09003 983.69 989.28998">D1Diode SchottkyMMCSK54L-TPMouser833-SK54L-TP10,4450,445</tspan><tspan
           id="tspan164"
           y="255.7"
           x="201.7 207.8 213.7 219.39999 225.28999 230.88 236.58 241.07001 246.28999 250.17 255.75999 261.45999 313.70001 319.79999 325.39001 334 339.59 400.29999 405.98999 411.59 417.19 422.79001 429.10001 434.69 440.29001 445.89001 452.17999 457.78 463.38 468.98001 474.98001 540.90002 549.60999 555.51001 561.20001 565.69 571.28003 633.20001 638.79999 644.40002 646.90002 652.59003 658.19 663.78998 669.39001 675.70001 681.28998 686.89001 692.48999 698.78003 704.38 709.97998 762.90002 832.29999 837.90002 840.39001 845.98999 972.79999 978.40002 980.89001 986.48999">CondensateurKemetT491X107K016ATMouser80-T491X107K01631,965,88</tspan><tspan
           id="tspan166"
           y="268.5"
           x="201.7 207.8 213.7 219.39999 225.28999 230.88 236.58 241.07001 246.28999 250.17 255.75999 261.45999 314.70001 320.29999 325.51999 331.29999 336.89001 390.10001 396.10001 402.29999 407.89999 413.5 419.10001 424.70001 430.98999 437.48001 443.79001 449.38 455.67001 461.26999 467.67001 474.07001 479.67001 485.26999 540.90002 549.60999 555.51001 561.20001 565.69 571.28003 616.90002 622.5 628.09998 633.70001 636.69 642.69 648.89001 654.48999 660.09003 665.69 671.97998 678.46997 684.78003 690.37 696.65997 702.26001 708.65997 715.06 720.65997 726.26001 760.09998 765.70001 829.5 835.09998 837.59003 843.19 848.78998 970 975.59998 978.09003 983.69 989.28998">CondensateurYageoCC0805KRX7R9BB104Mouser603-CC805KRX7R9BB104110,1311,441</tspan><tspan
           id="tspan168"
           y="281.29999"
           x="209.2 215.49001 221.08 225.57001 228.07001 232.56 236.58 241.75999 247.46001 252.14999 312.60001 319 324.89999 330.60001 334.48999 340.19 395 401.20001 407.48999 413.09 418.69 424.29001 429.89001 432.88 438.25 444.26999 447.26001 452.85999 458.45999 464.06 469.66 475.37 480.56 540.90002 549.60999 555.51001 561.20001 565.69 571.28003 620.5 626.09998 631.70001 637.29999 640.28998 646.48999 652.78003 658.38 663.97998 669.58002 675.17999 680.54999 686.57001 689.56 695.15997 700.76001 706.35999 711.96002 717.66998 722.85999 762.90002 829.5 835.09998 837.59003 843.19 848.78998 970 975.59998 978.09003 983.69 989.28998">RésistanceBournsCR0805-FX-1003ELFMouser652-CR0805FX-1003ELF50,0870,435</tspan><tspan
           id="tspan170"
           y="294"
           x="0 96.099998 103.88 109.28 114.65 117.64 120.56 128.34 135.62 196.2 202.60001 208.5 214.2 218.10001 224 229.7 232.00999 237.89999 243.8 249.49001 253.98 258.47 264.37 266.87 312.79999 320.57999 329.19 333.07999 338.98001 416.5 421.82001 427.10001 430.09 435.69 442.41 447.60001 453.17999 458.78 540.90002 549.60999 555.51001 561.20001 565.69 571.28003 640.59998 646.20001 651.79999 657.40002 660.39001 665.71002 670.98999 673.97998 679.58002 686.29999 691.48999 697.07001 702.66998 762.90002 832.29999 837.90002 840.39001 845.98999 975.59998 981.20001 983.69">-OFF-(ON)Bouton poussoirOmronSS-5GL111Mouser653-SS-5GL11151,989,9</tspan><tspan
           id="tspan172"
           y="306.79999"
           x="0 99.199997 106.98 112.38 117.75 120.74 128.55 205.3 207.99001 213.69 217.59 223.17999 227.07001 230.96001 236.66 242.55 246.45 252.03999 257.73999 979.59998">-OFF-ONInterrupteur0</tspan><tspan
           id="tspan174"
           y="319.60001"
           x="0 209.89999 215.61 221.3 225.32001 229.17999 234.77 238.67999 244.58 247.08 251.57001 319.39999 325.98999 332.59 405.39999 414.10999 419.70001 425.29999 430.89999 436.5 439.48999 445.09 450.69 456.29001 461.89001 464.88 470.20001 540.90002 549.60999 555.51001 561.20001 565.69 571.28003 629.5 635.09998 640.70001 646.29999 649.28998 658 663.59003 669.19 674.78998 680.39001 683.38 688.97998 694.58002 700.17999 705.78003 708.77002 714.09003 762.90002 832.29999 837.90002 840.39001 845.98999 972.79999 978.40002 980.89001 986.48999">-EntretoiseRAFM1266-2545-SSMouser761-M1266-2545-SS41,626,48</tspan><tspan
           id="tspan176"
           y="332.39999"
           x="0 209.89999 215.61 221.3 225.32001 229.17999 234.77 238.67999 244.58 247.08 251.57001 319.39999 325.98999 332.59 405.39999 414.10999 419.70001 425.29999 430.89999 436.5 439.48999 445.09 450.69 456.29001 461.89001 464.88 470.20001 540.90002 549.60999 555.51001 561.20001 565.69 571.28003 629.5 635.09998 640.70001 646.29999 649.28998 658 663.59003 669.19 674.78998 680.39001 683.38 688.97998 694.58002 700.17999 705.78003 708.77002 714.09003 762.90002 832.29999 837.90002 840.39001 845.98999 972.79999 978.40002 980.89001 986.48999">-EntretoiseRAFM2105-2545-SSMouser761-M2105-2545-SS41,375,48</tspan><tspan
           id="tspan178"
           y="345.20001"
           x="0 226.7 233.28999 235.78999 307.5 313.60001 319.19 324.16 328.67001 332.57001 338.47 344.17001 426.5 432.10001 437.70001 443.29999 448.89999 540.90002 549.60999 555.51001 561.20001 565.69 571.28003 650.5 656.09998 661.70001 667.29999 670.28998 675.89001 681.48999 687.09003 692.69 762.90002 829.5 835.09998 837.59003 843.19 848.78998 970 975.59998 978.09003 983.69 989.28998">-VisKeystone29301Mouser534-2930140,3611,444</tspan><tspan
           id="tspan180"
           y="358"
           x="0 226.7 233.28999 235.78999 979.59998">-Vis0</tspan><tspan
           id="tspan182"
           y="370.70001"
           x="-4 1.37 204.39999 210.3 216.2 220.09 223.99001 229.58 231.89 235.75 241.49001 245.95 248.48 254.37 257.04999 314.29999 320.70001 326.39999 329.10001 334.88 337.41 423.39999 428.76999 435.07999 440.69 446.29001 451.89001 540.90002 549.60999 555.51001 561.20001 565.69 571.28003 647.5 653.09998 658.70001 664.29999 667.28998 672.65997 678.96997 684.58002 690.17999 695.78003 762.90002 832.29999 837.90002 840.39001 845.98999 972.79999 978.40002 980.89001 986.48999">F1Porte fusibleBulginFX0321Mouser422-FX032111,621,62</tspan><tspan
           id="tspan184"
           y="383.5"
           x="0 217.5 222.60001 228.3 232.78999 235.28999 241.17999 243.88 309.79999 316.20001 321.79001 324.48999 326.79999 331.89001 337.59 342.07999 420.79999 426.39999 435.10999 440.48001 442.79001 448.39001 450.70001 453.69 540.90002 549.60999 555.51001 561.20001 565.69 571.28003 647.20001 652.79999 658.40002 664 666.98999 672.59003 681.29999 686.66998 692.28003 695.27002 762.90002 829.5 835.09998 837.59003 843.19 848.78998 970 975.59998 978.09003 983.69 989.28998">-FusibleBel Fuse5MF 3 -RMouser530-5MF3-R30,1750,525</tspan><tspan
           id="tspan186"
           y="396.29999"
           x="0 108.6 114.2 119.8 208.10001 214.2 219.78999 225.49001 229.50999 231.99001 234.69 239.91 243.78999 249.38 255.08 979.59998">-12VVentilateur0</tspan></text>
<text
         id="text194"
         style="font-variant:normal;font-weight:bold;font-size:10px;font-family:Ubuntu;-inkscape-font-specification:Ubuntu-Bold;writing-mode:lr-tb;fill:#ffffff;fill-opacity:1;fill-rule:nonzero;stroke:none"
         transform="translate(1083.1,585.29999)"><tspan
           id="tspan190"
           y="0"
           x="0 5.6799998 11.36 17.07 19.559999 25.24 30.92 36.630001 42.310001">158,52018</tspan><tspan
           id="tspan192"
           y="12.8"
           x="-54.700001 -49.299999 -43.23 -39.009998 -33.509998 -30.32 -27.92 -24.33 -18.65 0 5.6799998 11.36 17.07 19.559999 25.24 30.92 36.630001 42.310001">Total (€)738,50018</tspan></text>
<text
         id="text202"
         style="font-variant:normal;font-weight:normal;font-size:10px;font-family:Ubuntu;-inkscape-font-specification:Ubuntu;writing-mode:lr-tb;fill:#000000;fill-opacity:1;fill-rule:nonzero;stroke:none"
         transform="translate(207.99999,22.800002)"><tspan
           id="tspan196"
           y="0"
           x="0 5.5999999 11.2 16.799999 25.41 36.299999 38.790001 41.099998 46.470001 50.279999 57.380001 62.98">254mm; F/D=5</tspan><tspan
           id="tspan198"
           y="51.099998"
           x="-1.7 3.99 6.48 11.98 15.37 17.68 20.07 22.379999 28.059999 30.459999 36.150002 42.650002 44.959999 47.540001 49.849998 55.34 57.93 63.43">0,9° ; 5,4V ; 0,9A</tspan><tspan
           id="tspan200"
           y="63.900002"
           x="-1.7 3.99 6.48 11.98 15.37 17.68 20.07 22.379999 28.059999 30.459999 36.150002 42.650002 44.959999 47.540001 49.849998 55.34 57.93 63.43">1,8° ; 3,9V ; 0,6A</tspan></text>
<text
         id="text206"
         style="font-variant:normal;font-weight:normal;font-size:10px;font-family:'Liberation Sans';-inkscape-font-specification:LiberationSans;writing-mode:lr-tb;fill:#000000;fill-opacity:1;fill-rule:nonzero;stroke:none"
         transform="translate(224.09999,150.4)"><tspan
           id="tspan204"
           y="0"
           x="0 5.5900002 8.3599997 13.96 19.549999 27.85 30.620001">1,20m ?</tspan></text>
<text
         id="text212"
         style="font-variant:normal;font-weight:bold;font-size:10px;font-family:Ubuntu;-inkscape-font-specification:Ubuntu-Bold;writing-mode:lr-tb;fill:#ffffff;fill-opacity:1;fill-rule:nonzero;stroke:none"
         transform="translate(25.199996,368.99999)"><tspan
           id="tspan208"
           y="0"
           x="0 6.48 12.01 16.190001 20.59">Carte</tspan><tspan
           id="tspan210"
           y="11.1"
           x="-17.5 -11.41 -8.2200003 -2.4200001 2.5799999 6.98 11.2 17.27 23.16 26.049999 32.049999 37.939999">Électronique</tspan></text>
<text
         id="text232"
         style="font-variant:normal;font-weight:normal;font-size:10px;font-family:Ubuntu;-inkscape-font-specification:Ubuntu;writing-mode:lr-tb;fill:#000000;fill-opacity:1;fill-rule:nonzero;stroke:none"
         transform="translate(214.09999,214.6)"><tspan
           id="tspan214"
           y="0"
           x="0 5.5999999 11.2 17.790001 20.1 22.559999 24.780001 30.469999 37.060001 39.369999 41.830002 44.139999 49.75">12V ; 5V ; 2A</tspan><tspan
           id="tspan216"
           y="12.7"
           x="2.8 8.3999996 14 20.59 22.9 25.360001 27.67 33.279999 35.77 41.369999 46.970001">12V ; 5,41A</tspan><tspan
           id="tspan218"
           y="25.5"
           x="-10.1 -1.39 0.92000002 3.3800001 5.6900001 11.29 19.9 28.51 30.790001 33.279999 35.59 41.18 43.669998 49.27 57.880001">M ; 4mm ; 1,7mm</tspan><tspan
           id="tspan220"
           y="38.299999"
           x="-11.3 -5.9299998 -3.6199999 -1.12 1.1900001 6.7800002 15.39 24 26.280001 28.77 31.08 36.669998 39.16 44.759998 50.360001 58.970001">F ; 4mm ; 1,65mm</tspan><tspan
           id="tspan222"
           y="51.099998"
           x="-111 -107.71 -102.71 -97.110001 -91.510002 -89.199997 -86.739998 -84.43 -79.43 -73.82 -68.220001 -20.700001 -15.1 -9.5 -3.9000001 -1.59 0.87 3.1800001 11.89 14.2 16.66 18.969999 24.58 30.18 33.5 35.779999 38.27 40.580002 46.169998 48.66 54.259998 59.860001 68.470001">[J10 ; J12]2×2 ; M ; 90° ; 2,54mm</tspan><tspan
           id="tspan224"
           y="63.900002"
           x="-22.5 -16.9 -11.3 -5.6999998 -3.3900001 -0.93000001 1.38 6.7800002 9.0900002 11.55 13.86 23.15 25.68 29.540001 35.130001 37.439999 39.93 42.240002 47.830002 50.32 55.919998 61.52 70.129997">2×2 ; F ; Wire ; 2,54mm</tspan><tspan
           id="tspan226"
           y="76.699997"
           x="-130.7 -125.38 -116.09 -110.51 -108.2 -105.74 -103.43 -100.03 -95.129997 -89.529999 -87.220001 -84.760002 -82.449997 -77.449997 -71.839996 -68.550003 -66.239998 -63.779999 -61.470001 -56.470001 -50.860001 -20.700001 -15.1 -9.5 -3.9000001 -1.59 0.87 3.1800001 11.89 14.2 16.66 18.969999 24.58 30.18 33.5 35.779999 38.27 40.580002 46.169998 48.66 54.259998 59.860001 68.470001">SW1 ; [J1 ; J5] ; J131×2 ; M ; 90° ; 2,54mm</tspan><tspan
           id="tspan228"
           y="89.400002"
           x="-22.5 -16.9 -11.3 -3.4000001 1.39 9.0799999 13.87 23.16 25.66 29.549999 37.439999 42.299999 47.900002 50.389999 55.990002 61.59 70.199997">1×2;F;Wire;2,54mm</tspan><tspan
           id="tspan230"
           y="102.2"
           x="-20.700001 -15.1 -9.5 -3.9000001 -1.59 0.87 3.1800001 11.89 14.2 16.66 18.969999 24.58 30.18 33.5 35.779999 38.27 40.580002 46.169998 48.66 54.259998 59.860001 68.470001">1×4 ; M ; 90° ; 2,54mm</tspan></text>
<text
         id="text236"
         style="font-variant:normal;font-weight:normal;font-size:10px;font-family:'Liberation Sans';-inkscape-font-specification:LiberationSans;writing-mode:lr-tb;fill:#000000;fill-opacity:1;fill-rule:nonzero;stroke:none"
         transform="translate(189.89999,329.4)"><tspan
           id="tspan234"
           y="0"
           x="0 5.5900002 11.28 16.969999 19.74 22.440001 25.209999 31.309999 34.080002 36.98 39.75 49.049999 51.34 54.540001 60.23 63">1×4 ; F ; Wire ;</tspan></text>
<text
         id="text240"
         style="font-variant:normal;font-weight:normal;font-size:10px;font-family:Ubuntu;-inkscape-font-specification:Ubuntu;writing-mode:lr-tb;fill:#000000;fill-opacity:1;fill-rule:nonzero;stroke:none"
         transform="translate(257.99999,329.4)"><tspan
           id="tspan238"
           y="0"
           x="0 5.5999999 8.0900002 13.69 19.290001 27.9">2,54mm</tspan></text>
<text
         id="text244"
         style="font-variant:normal;font-weight:normal;font-size:10px;font-family:'Liberation Sans';-inkscape-font-specification:LiberationSans;writing-mode:lr-tb;fill:#000000;fill-opacity:1;fill-rule:nonzero;stroke:none"
         transform="translate(191.29999,342.2)"><tspan
           id="tspan242"
           y="0"
           x="0 5.5900002 11.38 16.969999 19.74 22.51 25.309999 33.610001 36.380001 39.18 41.950001 47.549999 53.110001 57.099998 59.900002 62.669998 65.440002 71.050003 73.82 79.419998 85.010002 93.309998">1×5 ; M ; 90° ; 2,54mm</tspan></text>
<text
         id="text264"
         style="font-variant:normal;font-weight:normal;font-size:10px;font-family:Ubuntu;-inkscape-font-specification:Ubuntu;writing-mode:lr-tb;fill:#000000;fill-opacity:1;fill-rule:nonzero;stroke:none"
         transform="translate(191.59999,355.2)"><tspan
           id="tspan246"
           y="0"
           x="0 5.5999999 11.2 16.799999 19.110001 21.57 23.879999 29.280001 31.59 34.049999 36.360001 45.650002 48.18 52.040001 57.630001 59.939999 62.43 64.739998 70.330002 72.82 78.419998 84.019997 92.629997">1×5 ; F ; Wire ; 2,54mm</tspan><tspan
           id="tspan248"
           y="25.6"
           x="-13.2 -7.5999999 -2 3.5999999 9.1999998 11.51 13.97 16.280001 21.68 23.99 26.450001 28.76 34.369999 36.860001 42.459999 48.060001 56.669998 65.279999 67.559998 70.050003 72.360001 77.949997 83.550003 86.040001 91.639999 97.239998 105.85">2×20 ; F ; 2,54mm ; 16,13mm</tspan><tspan
           id="tspan250"
           y="38.299999"
           x="14.2 19.799999 25.4 31 33.310001 35.77 38.080002 43.48 45.790001 48.25 50.560001 56.169998 58.66 64.260002 69.860001 78.470001">1×8 ; F ; 2,54mm</tspan><tspan
           id="tspan252"
           y="51.099998"
           x="14.4 20 25.5 32.189999 34.389999 36.880001 39.189999 46.369999 54.07 57.16 62.66 68.349998 73.949997 80.449997">14V ; DO-214AB</tspan><tspan
           id="tspan254"
           y="63.900002"
           x="17.200001 22.799999 29.299999 31.690001 34.18 36.490002 43.48 51.369999 54.27 59.959999 65.459999 71.150002 77.75">5A ; DO-214AB</tspan><tspan
           id="tspan256"
           y="76.699997"
           x="-99.099998 -95.809998 -89.610001 -84.010002 -81.699997 -79.239998 -76.93 -70.730003 -65.120003 -59.52 -56.23 -53.919998 -51.459999 -49.150002 -42.950001 -37.34 6.4000001 12 17.6 23.200001 28.9 34.389999 36.700001 39.16 41.470001 47.080002 52.580002 59.27 61.470001 64.059998 66.370003 72.459999 78.150002 83.75 89.349998">[C9 ; C11] ; C15100µF ; 16V ; C2917</tspan><tspan
           id="tspan258"
           y="89.5"
           x="-111.8 -108.6 -102.4 -96.709999 -94.400002 -91.940002 -89.720001 -83.43 -77.93 -74.540001 -72.230003 -69.839996 -67.529999 -64.150002 -58.049999 -52.360001 -46.759998 -44.450001 -41.990002 -39.68 -33.48 -27.969999 -22.280001 18.9 24.5 30.1 35.700001 41.400002 46.77 48.990002 51.580002 53.889999 59.98 65.669998 71.269997 76.870003">[C1 ; C8] ; [C12 ; C14]100nF ; C0805</tspan><tspan
           id="tspan260"
           y="102.3"
           x="-84.199997 -80.910004 -74.519997 -69.019997 -66.709999 -64.129997 -61.82 -55.630001 -49.939999">[R1 ; R5]</tspan><tspan
           id="tspan262"
           y="102.1"
           x="16.9 22.5 28.1 33.700001">100k</tspan></text>
<text
         id="text268"
         style="font-variant:normal;font-weight:normal;font-size:10px;font-family:'Liberation Sans';-inkscape-font-specification:LiberationSans;writing-mode:lr-tb;fill:#000000;fill-opacity:1;fill-rule:nonzero;stroke:none"
         transform="translate(230.51999,457.3)"><tspan
           id="tspan266"
           y="0"
           x="0">Ω</tspan></text>
<text
         id="text272"
         style="font-variant:normal;font-weight:normal;font-size:10px;font-family:'Liberation Sans';-inkscape-font-specification:LiberationSans;writing-mode:lr-tb;fill:#000000;fill-opacity:1;fill-rule:nonzero;stroke:none"
         transform="translate(240.75999,457.3)"><tspan
           id="tspan270"
           y="0"
           x="0 2.77 5.5700002 12.79 18.35 23.940001 29.530001">; R0805</tspan></text>
<text
         id="text286"
         style="font-variant:normal;font-weight:normal;font-size:10px;font-family:Ubuntu;-inkscape-font-specification:Ubuntu;writing-mode:lr-tb;fill:#000000;fill-opacity:1;fill-rule:nonzero;stroke:none"
         transform="translate(204.39999,495.8)"><tspan
           id="tspan274"
           y="0"
           x="0 5.5999999 11.2 19.809999 28.42 30.700001 33.189999 35.5 44.209999 49.790001 52.279999 57.880001 60.189999 62.650002 64.959999 70.360001">19mm ; M2,5 ; FF</tspan><tspan
           id="tspan276"
           y="12.8"
           x="-1.7 3.9000001 9.5 18.110001 26.719999 29 31.49 33.799999 42.509998 48.09 50.580002 56.18 58.490002 60.950001 63.259998 71.970001">10mm ; M2,5 ; MF</tspan><tspan
           id="tspan278"
           y="25.6"
           x="11.7 17.299999 25.91 34.52 36.799999 39.290001 41.599998 50.310001 55.889999 58.380001">6mm ; M2,5</tspan><tspan
           id="tspan280"
           y="38.400002"
           x="12.5 16.5 25.110001 33.720001 36 38.490002 40.799999 49.509998 55.09 57.580002">?mm ; M2,5</tspan><tspan
           id="tspan282"
           y="51.099998"
           x="4.4000001 10 15.6 21.200001 26.799999 35.41 44.02 46.299999 48.700001 51.009998 56.689999 59.18 64.779999">5×20mm ; 6,3A</tspan><tspan
           id="tspan284"
           y="63.900002"
           x="8.3999996 14 19.6 25.200001 30.799999 39.41 48.02 50.299999 52.790001 55.099998 60.689999">5×20mm ; 3A</tspan></text>
</g></g></svg>