<?xml version="1.0" standalone="no"?>
 <!DOCTYPE svg PUBLIC "-//W3C//DTD SVG 1.1//EN" 
 "http://www.w3.org/Graphics/SVG/1.1/DTD/svg11.dtd"> 
<svg xmlns="http://www.w3.org/2000/svg" version="1.1" 
    width="29.7002cm" height="21.0007cm" viewBox="0 0 116930 82680 ">
<title>SVG Picture created as Autoscope-brd.svg date 2019/03/05 20:06:52 </title>
  <desc>Picture generated by PCBNEW </desc>
<g style="fill:#000000; fill-opacity:1;stroke:#000000; stroke-opacity:1;
stroke-linecap:round; stroke-linejoin:round; "
 transform="translate(0 0) scale(1 1)">
</g>
<g style="fill:#000000; fill-opacity:0.0; 
stroke:#000000; stroke-width:-0.000393701; stroke-opacity:1; 
stroke-linecap:round; stroke-linejoin:round;">
</g>
<g style="fill:#008484; fill-opacity:0.0; 
stroke:#008484; stroke-width:-0.000393701; stroke-opacity:1; 
stroke-linecap:round; stroke-linejoin:round;">
</g>
<g style="fill:#008484; fill-opacity:0.0; 
stroke:#008484; stroke-width:59.0551; stroke-opacity:1; 
stroke-linecap:round; stroke-linejoin:round;">
<path d="M57106 32854
L57106 28562
" />
<path d="M51830 32854
L51830 28562
" />
<path d="M57559 33267
L57559 28149
" />
<path d="M51377 33267
L51377 28149
" />
<path d="M57106 32854
L51830 32854
" />
<path d="M51377 33267
L57559 33267
" />
<path d="M57106 28562
L51830 28562
" />
<path d="M51377 28149
L57559 28149
" />
<circle cx="53622" cy="30708.7" r="324.803" /> 
<circle cx="53622" cy="30708.7" r="866.142" /> 
</g>
<g style="fill:#008484; fill-opacity:0.0; 
stroke:#008484; stroke-width:47.2441; stroke-opacity:1; 
stroke-linecap:round; stroke-linejoin:round;">
<path d="M39450 19614
L39450 20137
" />
<path d="M38927 19614
L39450 19614
" />
<path d="M38427 19614
L38427 20661
" />
<path d="M38427 20661
L31403 20661
" />
<path d="M38427 19614
L31403 19614
" />
<path d="M31403 19614
L31403 20661
" />
<path d="M31433 25661
L39462 25661
" />
<path d="M31433 24614
L39462 24614
" />
<path d="M39462 25661
L39462 24614
" />
<path d="M31409 25661
L31409 24614
" />
<path d="M39450 35755
L39450 36279
" />
<path d="M38927 35755
L39450 35755
" />
<path d="M38427 35755
L38427 36803
" />
<path d="M38427 36803
L31403 36803
" />
<path d="M38427 35755
L31403 35755
" />
<path d="M31403 35755
L31403 36803
" />
<path d="M31433 41803
L39462 41803
" />
<path d="M31433 40755
L39462 40755
" />
<path d="M39462 41803
L39462 40755
" />
<path d="M31409 41803
L31409 40755
" />
<path d="M39450 27685
L39450 28208
" />
<path d="M38927 27685
L39450 27685
" />
<path d="M38427 27685
L38427 28732
" />
<path d="M38427 28732
L31403 28732
" />
<path d="M38427 27685
L31403 27685
" />
<path d="M31403 27685
L31403 28732
" />
<path d="M31433 33732
L39462 33732
" />
<path d="M31433 32685
L39462 32685
" />
<path d="M39462 33732
L39462 32685
" />
<path d="M31409 33732
L31409 32685
" />
<path d="M60106 23251
L62153 23251
" />
<path d="M62153 23251
L62153 22204
" />
<path d="M62153 22204
L60106 22204
" />
<path d="M60106 22204
L60106 23251
" />
<path d="M60480 22204
L60480 19842
" />
<path d="M60480 19842
L60779 19842
" />
<path d="M60779 19842
L60779 22204
" />
<path d="M60503 22204
L60503 19842
" />
<path d="M60551 22204
L60551 19842
" />
<path d="M60598 22204
L60598 19842
" />
<path d="M60645 22204
L60645 19842
" />
<path d="M60692 22204
L60692 19842
" />
<path d="M60740 22204
L60740 19842
" />
<path d="M60480 23381
L60480 23251
" />
<path d="M60779 23381
L60779 23251
" />
<path d="M61129 23251
L61129 22204
" />
<path d="M61480 22204
L61480 19842
" />
<path d="M61480 19842
L61779 19842
" />
<path d="M61779 19842
L61779 22204
" />
<path d="M61480 23408
L61480 23251
" />
<path d="M61779 23408
L61779 23251
" />
<path d="M60629 24318
L60129 24318
" />
<path d="M60129 24318
L60129 23818
" />
<path d="M57570 24318
L57570 23818
" />
<path d="M58070 24318
L57570 24318
" />
<path d="M59220 23408
L59220 23251
" />
<path d="M58921 23408
L58921 23251
" />
<path d="M59220 19842
L59220 22204
" />
<path d="M58921 19842
L59220 19842
" />
<path d="M58921 22204
L58921 19842
" />
<path d="M58570 23251
L58570 22204
" />
<path d="M58220 23381
L58220 23251
" />
<path d="M57921 23381
L57921 23251
" />
<path d="M58181 22204
L58181 19842
" />
<path d="M58133 22204
L58133 19842
" />
<path d="M58086 22204
L58086 19842
" />
<path d="M58039 22204
L58039 19842
" />
<path d="M57992 22204
L57992 19842
" />
<path d="M57944 22204
L57944 19842
" />
<path d="M58220 19842
L58220 22204
" />
<path d="M57921 19842
L58220 19842
" />
<path d="M57921 22204
L57921 19842
" />
<path d="M57547 22204
L57547 23251
" />
<path d="M59594 22204
L57547 22204
" />
<path d="M59594 23251
L59594 22204
" />
<path d="M57547 23251
L59594 23251
" />
<path d="M54996 24318
L54996 23818
" />
<path d="M55496 24318
L54996 24318
" />
<path d="M56645 23408
L56645 23251
" />
<path d="M56346 23408
L56346 23251
" />
<path d="M56645 19842
L56645 22204
" />
<path d="M56346 19842
L56645 19842
" />
<path d="M56346 22204
L56346 19842
" />
<path d="M55996 23251
L55996 22204
" />
<path d="M55645 23381
L55645 23251
" />
<path d="M55346 23381
L55346 23251
" />
<path d="M55606 22204
L55606 19842
" />
<path d="M55559 22204
L55559 19842
" />
<path d="M55511 22204
L55511 19842
" />
<path d="M55464 22204
L55464 19842
" />
<path d="M55417 22204
L55417 19842
" />
<path d="M55370 22204
L55370 19842
" />
<path d="M55645 19842
L55645 22204
" />
<path d="M55346 19842
L55645 19842
" />
<path d="M55346 22204
L55346 19842
" />
<path d="M54972 22204
L54972 23251
" />
<path d="M57019 22204
L54972 22204
" />
<path d="M57019 23251
L57019 22204
" />
<path d="M54972 23251
L57019 23251
" />
<path d="M52429 23251
L54476 23251
" />
<path d="M54476 23251
L54476 22204
" />
<path d="M54476 22204
L52429 22204
" />
<path d="M52429 22204
L52429 23251
" />
<path d="M52803 22204
L52803 19842
" />
<path d="M52803 19842
L53102 19842
" />
<path d="M53102 19842
L53102 22204
" />
<path d="M52826 22204
L52826 19842
" />
<path d="M52874 22204
L52874 19842
" />
<path d="M52921 22204
L52921 19842
" />
<path d="M52968 22204
L52968 19842
" />
<path d="M53015 22204
L53015 19842
" />
<path d="M53062 22204
L53062 19842
" />
<path d="M52803 23381
L52803 23251
" />
<path d="M53102 23381
L53102 23251
" />
<path d="M53452 23251
L53452 22204
" />
<path d="M53803 22204
L53803 19842
" />
<path d="M53803 19842
L54102 19842
" />
<path d="M54102 19842
L54102 22204
" />
<path d="M53803 23408
L53803 23251
" />
<path d="M54102 23408
L54102 23251
" />
<path d="M52952 24318
L52452 24318
" />
<path d="M52452 24318
L52452 23818
" />
<path d="M49893 24318
L49893 23818
" />
<path d="M50393 24318
L49893 24318
" />
<path d="M51543 23408
L51543 23251
" />
<path d="M51244 23408
L51244 23251
" />
<path d="M51543 19842
L51543 22204
" />
<path d="M51244 19842
L51543 19842
" />
<path d="M51244 22204
L51244 19842
" />
<path d="M50893 23251
L50893 22204
" />
<path d="M50543 23381
L50543 23251
" />
<path d="M50244 23381
L50244 23251
" />
<path d="M50503 22204
L50503 19842
" />
<path d="M50456 22204
L50456 19842
" />
<path d="M50409 22204
L50409 19842
" />
<path d="M50362 22204
L50362 19842
" />
<path d="M50314 22204
L50314 19842
" />
<path d="M50267 22204
L50267 19842
" />
<path d="M50543 19842
L50543 22204
" />
<path d="M50244 19842
L50543 19842
" />
<path d="M50244 22204
L50244 19842
" />
<path d="M49870 22204
L49870 23251
" />
<path d="M51917 22204
L49870 22204
" />
<path d="M51917 23251
L51917 22204
" />
<path d="M49870 23251
L51917 23251
" />
<path d="M35047 23661
L35047 21614
" />
<path d="M35047 21614
L34000 21614
" />
<path d="M34000 21614
L34000 23661
" />
<path d="M34000 23661
L35047 23661
" />
<path d="M34000 23287
L31637 23287
" />
<path d="M31637 23287
L31637 22988
" />
<path d="M31637 22988
L34000 22988
" />
<path d="M34000 23263
L31637 23263
" />
<path d="M34000 23216
L31637 23216
" />
<path d="M34000 23169
L31637 23169
" />
<path d="M34000 23122
L31637 23122
" />
<path d="M34000 23074
L31637 23074
" />
<path d="M34000 23027
L31637 23027
" />
<path d="M35203 23287
L35047 23287
" />
<path d="M35203 22988
L35047 22988
" />
<path d="M36177 23287
L36024 23287
" />
<path d="M36177 22988
L36024 22988
" />
<path d="M35047 22637
L34000 22637
" />
<path d="M34000 22287
L31637 22287
" />
<path d="M31637 22287
L31637 21988
" />
<path d="M31637 21988
L34000 21988
" />
<path d="M35203 22287
L35047 22287
" />
<path d="M35203 21988
L35047 21988
" />
<path d="M36203 22287
L36024 22287
" />
<path d="M36203 21988
L36024 21988
" />
<path d="M37114 23137
L37114 23637
" />
<path d="M37114 23637
L36614 23637
" />
<path d="M37114 31708
L36614 31708
" />
<path d="M37114 31208
L37114 31708
" />
<path d="M36203 30059
L36024 30059
" />
<path d="M36203 30358
L36024 30358
" />
<path d="M35203 30059
L35047 30059
" />
<path d="M35203 30358
L35047 30358
" />
<path d="M31637 30059
L34000 30059
" />
<path d="M31637 30358
L31637 30059
" />
<path d="M34000 30358
L31637 30358
" />
<path d="M35047 30708
L34000 30708
" />
<path d="M36177 31059
L36024 31059
" />
<path d="M36177 31358
L36024 31358
" />
<path d="M35203 31059
L35047 31059
" />
<path d="M35203 31358
L35047 31358
" />
<path d="M34000 31098
L31637 31098
" />
<path d="M34000 31145
L31637 31145
" />
<path d="M34000 31192
L31637 31192
" />
<path d="M34000 31240
L31637 31240
" />
<path d="M34000 31287
L31637 31287
" />
<path d="M34000 31334
L31637 31334
" />
<path d="M31637 31059
L34000 31059
" />
<path d="M31637 31358
L31637 31059
" />
<path d="M34000 31358
L31637 31358
" />
<path d="M34000 31732
L35047 31732
" />
<path d="M34000 29685
L34000 31732
" />
<path d="M35047 29685
L34000 29685
" />
<path d="M35047 31732
L35047 29685
" />
<path d="M46311 23251
L48358 23251
" />
<path d="M48358 23251
L48358 22204
" />
<path d="M48358 22204
L46311 22204
" />
<path d="M46311 22204
L46311 23251
" />
<path d="M46685 22204
L46685 19842
" />
<path d="M46685 19842
L46984 19842
" />
<path d="M46984 19842
L46984 22204
" />
<path d="M46708 22204
L46708 19842
" />
<path d="M46755 22204
L46755 19842
" />
<path d="M46803 22204
L46803 19842
" />
<path d="M46850 22204
L46850 19842
" />
<path d="M46897 22204
L46897 19842
" />
<path d="M46944 22204
L46944 19842
" />
<path d="M46685 23381
L46685 23251
" />
<path d="M46984 23381
L46984 23251
" />
<path d="M47334 23251
L47334 22204
" />
<path d="M47685 22204
L47685 19842
" />
<path d="M47685 19842
L47984 19842
" />
<path d="M47984 19842
L47984 22204
" />
<path d="M47685 23408
L47685 23251
" />
<path d="M47984 23408
L47984 23251
" />
<path d="M46834 24318
L46334 24318
" />
<path d="M46334 24318
L46334 23818
" />
<path d="M61914 37515
L62120 37515
" />
<path d="M61914 38074
L62120 38074
" />
<path d="M60326 26468
L60826 26468
" />
<path d="M60326 26968
L60326 26468
" />
<path d="M61237 31118
L61393 31118
" />
<path d="M61237 30818
L61393 30818
" />
<path d="M64803 31118
L62440 31118
" />
<path d="M64803 30818
L64803 31118
" />
<path d="M62440 30818
L64803 30818
" />
<path d="M61393 30468
L62440 30468
" />
<path d="M61237 30118
L61393 30118
" />
<path d="M61237 29818
L61393 29818
" />
<path d="M64803 30118
L62440 30118
" />
<path d="M64803 29818
L64803 30118
" />
<path d="M62440 29818
L64803 29818
" />
<path d="M61393 29468
L62440 29468
" />
<path d="M61237 29118
L61393 29118
" />
<path d="M61237 28818
L61393 28818
" />
<path d="M64803 29118
L62440 29118
" />
<path d="M64803 28818
L64803 29118
" />
<path d="M62440 28818
L64803 28818
" />
<path d="M61393 28468
L62440 28468
" />
<path d="M61237 28118
L61393 28118
" />
<path d="M61237 27818
L61393 27818
" />
<path d="M64803 28118
L62440 28118
" />
<path d="M64803 27818
L64803 28118
" />
<path d="M62440 27818
L64803 27818
" />
<path d="M61393 27468
L62440 27468
" />
<path d="M61263 27118
L61393 27118
" />
<path d="M61263 26818
L61393 26818
" />
<path d="M62440 27078
L64803 27078
" />
<path d="M62440 27031
L64803 27031
" />
<path d="M62440 26984
L64803 26984
" />
<path d="M62440 26937
L64803 26937
" />
<path d="M62440 26889
L64803 26889
" />
<path d="M62440 26842
L64803 26842
" />
<path d="M64803 27118
L62440 27118
" />
<path d="M64803 26818
L64803 27118
" />
<path d="M62440 26818
L64803 26818
" />
<path d="M62440 26444
L61393 26444
" />
<path d="M62440 31492
L62440 26444
" />
<path d="M61393 31492
L62440 31492
" />
<path d="M61393 26444
L61393 31492
" />
<path d="M61393 33137
L61393 37185
" />
<path d="M61393 37185
L62440 37185
" />
<path d="M62440 37185
L62440 33137
" />
<path d="M62440 33137
L61393 33137
" />
<path d="M62440 33511
L64803 33511
" />
<path d="M64803 33511
L64803 33811
" />
<path d="M64803 33811
L62440 33811
" />
<path d="M62440 33535
L64803 33535
" />
<path d="M62440 33582
L64803 33582
" />
<path d="M62440 33629
L64803 33629
" />
<path d="M62440 33677
L64803 33677
" />
<path d="M62440 33724
L64803 33724
" />
<path d="M62440 33771
L64803 33771
" />
<path d="M61263 33511
L61393 33511
" />
<path d="M61263 33811
L61393 33811
" />
<path d="M61393 34161
L62440 34161
" />
<path d="M62440 34511
L64803 34511
" />
<path d="M64803 34511
L64803 34811
" />
<path d="M64803 34811
L62440 34811
" />
<path d="M61237 34511
L61393 34511
" />
<path d="M61237 34811
L61393 34811
" />
<path d="M61393 35161
L62440 35161
" />
<path d="M62440 35511
L64803 35511
" />
<path d="M64803 35511
L64803 35811
" />
<path d="M64803 35811
L62440 35811
" />
<path d="M61237 35511
L61393 35511
" />
<path d="M61237 35811
L61393 35811
" />
<path d="M61393 36161
L62440 36161
" />
<path d="M62440 36511
L64803 36511
" />
<path d="M64803 36511
L64803 36811
" />
<path d="M64803 36811
L62440 36811
" />
<path d="M61237 36511
L61393 36511
" />
<path d="M61237 36811
L61393 36811
" />
<path d="M60326 33661
L60326 33161
" />
<path d="M60326 33161
L60826 33161
" />
</g>
<g style="fill:#008484; fill-opacity:0.0; 
stroke:#008484; stroke-width:59.0551; stroke-opacity:1; 
stroke-linecap:round; stroke-linejoin:round;">
<path d="M48425 33070
L47440 33070
" />
<path d="M51378 33070
L50393 33070
" />
<path d="M51378 28346
L50393 28346
" />
<path d="M47440 28346
L48425 28346
" />
<path d="M49409 32480
L49409 28936
" />
<path d="M48425 32480
L50393 32480
" />
<path d="M48425 28936
L50393 28936
" />
<path d="M48661 26771
L48425 26771
" />
<path d="M50157 34645
L50393 34645
" />
<path d="M50393 34645
L50393 26771
" />
<path d="M50393 26771
L50157 26771
" />
<path d="M48425 26771
L48425 34645
" />
<path d="M48425 34645
L48661 34645
" />
<path d="M48661 25984
L47440 25984
" />
<path d="M50157 35432
L51378 35432
" />
<path d="M51378 35432
L51378 25984
" />
<path d="M51378 25984
L50157 25984
" />
<path d="M47440 25984
L47440 35432
" />
<path d="M47440 35432
L48661 35432
" />
</g>
<g style="fill:#008484; fill-opacity:0.0; 
stroke:#008484; stroke-width:47.2441; stroke-opacity:1; 
stroke-linecap:round; stroke-linejoin:round;">
<path d="M51275 33346
L51763 33346
" />
<path d="M51275 33834
L51275 33346
" />
<path d="M55944 33440
L55944 36834
" />
<path d="M51370 33440
L51370 36834
" />
<path d="M51370 36834
L55944 36834
" />
<path d="M51370 33440
L55944 33440
" />
<path d="M37114 39779
L36614 39779
" />
<path d="M37114 39279
L37114 39779
" />
<path d="M36203 38129
L36024 38129
" />
<path d="M36203 38429
L36024 38429
" />
<path d="M35203 38129
L35047 38129
" />
<path d="M35203 38429
L35047 38429
" />
<path d="M31637 38129
L34000 38129
" />
<path d="M31637 38429
L31637 38129
" />
<path d="M34000 38429
L31637 38429
" />
<path d="M35047 38779
L34000 38779
" />
<path d="M36177 39129
L36024 39129
" />
<path d="M36177 39429
L36024 39429
" />
<path d="M35203 39129
L35047 39129
" />
<path d="M35203 39429
L35047 39429
" />
<path d="M34000 39169
L31637 39169
" />
<path d="M34000 39216
L31637 39216
" />
<path d="M34000 39263
L31637 39263
" />
<path d="M34000 39311
L31637 39311
" />
<path d="M34000 39358
L31637 39358
" />
<path d="M34000 39405
L31637 39405
" />
<path d="M31637 39129
L34000 39129
" />
<path d="M31637 39429
L31637 39129
" />
<path d="M34000 39429
L31637 39429
" />
<path d="M34000 39803
L35047 39803
" />
<path d="M34000 37755
L34000 39803
" />
<path d="M35047 37755
L34000 37755
" />
<path d="M35047 39803
L35047 37755
" />
<path d="M43751 23251
L45799 23251
" />
<path d="M45799 23251
L45799 22204
" />
<path d="M45799 22204
L43751 22204
" />
<path d="M43751 22204
L43751 23251
" />
<path d="M44125 22204
L44125 19842
" />
<path d="M44125 19842
L44425 19842
" />
<path d="M44425 19842
L44425 22204
" />
<path d="M44149 22204
L44149 19842
" />
<path d="M44196 22204
L44196 19842
" />
<path d="M44244 22204
L44244 19842
" />
<path d="M44291 22204
L44291 19842
" />
<path d="M44338 22204
L44338 19842
" />
<path d="M44385 22204
L44385 19842
" />
<path d="M44125 23381
L44125 23251
" />
<path d="M44425 23381
L44425 23251
" />
<path d="M44775 23251
L44775 22204
" />
<path d="M45125 22204
L45125 19842
" />
<path d="M45125 19842
L45425 19842
" />
<path d="M45425 19842
L45425 22204
" />
<path d="M45125 23408
L45125 23251
" />
<path d="M45425 23408
L45425 23251
" />
<path d="M44275 24318
L43775 24318
" />
<path d="M43775 24318
L43775 23818
" />
</g>
<g style="fill:#008484; fill-opacity:0.0; 
stroke:#008484; stroke-width:59.0551; stroke-opacity:1; 
stroke-linecap:round; stroke-linejoin:round;">
<path d="M54593 31969
L54593 32250
L54574 32306
L54536 32344
L54480 32363
L54443 32363
" />
<path d="M54949 31969
L54874 31969
L54836 31988
L54818 32006
L54780 32063
L54761 32138
L54761 32288
L54780 32325
L54799 32344
L54836 32363
L54911 32363
L54949 32344
L54968 32325
L54986 32288
L54986 32194
L54968 32156
L54949 32138
L54911 32119
L54836 32119
L54799 32138
L54780 32156
L54761 32194
" />
<path d="M39955 19961
L39955 20280
L39974 20317
L39993 20336
L40030 20355
L40105 20355
L40143 20336
L40162 20317
L40180 20280
L40180 19961
" />
<path d="M40349 19999
L40368 19980
L40405 19961
L40499 19961
L40537 19980
L40555 19999
L40574 20036
L40574 20074
L40555 20130
L40330 20355
L40574 20355
" />
<path d="M39955 36103
L39955 36422
L39974 36459
L39993 36478
L40030 36497
L40105 36497
L40143 36478
L40162 36459
L40180 36422
L40180 36103
" />
<path d="M40330 36103
L40574 36103
L40443 36253
L40499 36253
L40537 36272
L40555 36290
L40574 36328
L40574 36422
L40555 36459
L40537 36478
L40499 36497
L40387 36497
L40349 36478
L40330 36459
" />
<path d="M39955 28032
L39955 28351
L39974 28388
L39993 28407
L40030 28426
L40105 28426
L40143 28407
L40162 28388
L40180 28351
L40180 28032
" />
<path d="M40537 28163
L40537 28426
" />
<path d="M40443 28013
L40349 28294
L40593 28294
" />
<path d="M60990 24685
L60990 24967
L60972 25023
L60934 25060
L60878 25079
L60840 25079
" />
<path d="M61384 25079
L61159 25079
" />
<path d="M61272 25079
L61272 24685
L61234 24742
L61197 24779
L61159 24798
" />
<path d="M58431 24685
L58431 24967
L58413 25023
L58375 25060
L58319 25079
L58281 25079
" />
<path d="M58600 24723
L58619 24704
L58656 24685
L58750 24685
L58787 24704
L58806 24723
L58825 24760
L58825 24798
L58806 24854
L58581 25079
L58825 25079
" />
<path d="M55872 24685
L55872 24967
L55853 25023
L55816 25060
L55760 25079
L55722 25079
" />
<path d="M56022 24685
L56266 24685
L56135 24835
L56191 24835
L56228 24854
L56247 24873
L56266 24910
L56266 25004
L56247 25042
L56228 25060
L56191 25079
L56078 25079
L56041 25060
L56022 25042
" />
<path d="M53313 24685
L53313 24967
L53294 25023
L53257 25060
L53201 25079
L53163 25079
" />
<path d="M53669 24817
L53669 25079
" />
<path d="M53576 24667
L53482 24948
L53726 24948
" />
<path d="M50754 24685
L50754 24967
L50735 25023
L50698 25060
L50642 25079
L50604 25079
" />
<path d="M51129 24685
L50942 24685
L50923 24873
L50942 24854
L50979 24835
L51073 24835
L51110 24854
L51129 24873
L51148 24910
L51148 25004
L51129 25042
L51110 25060
L51073 25079
L50979 25079
L50942 25060
L50923 25042
" />
<path d="M37771 22422
L37771 22703
L37753 22759
L37715 22797
L37659 22815
L37621 22815
" />
<path d="M38165 22815
L37940 22815
" />
<path d="M38053 22815
L38053 22422
L38015 22478
L37978 22515
L37940 22534
" />
<path d="M38409 22422
L38446 22422
L38484 22440
L38502 22459
L38521 22497
L38540 22572
L38540 22665
L38521 22740
L38502 22778
L38484 22797
L38446 22815
L38409 22815
L38371 22797
L38353 22778
L38334 22740
L38315 22665
L38315 22572
L38334 22497
L38353 22459
L38371 22440
L38409 22422
" />
<path d="M37771 30493
L37771 30774
L37753 30830
L37715 30868
L37659 30886
L37621 30886
" />
<path d="M38165 30886
L37940 30886
" />
<path d="M38053 30886
L38053 30493
L38015 30549
L37978 30586
L37940 30605
" />
<path d="M38540 30886
L38315 30886
" />
<path d="M38428 30886
L38428 30493
L38390 30549
L38353 30586
L38315 30605
" />
<path d="M46801 25060
L46858 25079
L46951 25079
L46989 25060
L47008 25042
L47026 25004
L47026 24967
L47008 24929
L46989 24910
L46951 24892
L46876 24873
L46839 24854
L46820 24835
L46801 24798
L46801 24760
L46820 24723
L46839 24704
L46876 24685
L46970 24685
L47026 24704
" />
<path d="M47158 24685
L47251 25079
L47326 24798
L47401 25079
L47495 24685
" />
<path d="M47851 25079
L47626 25079
" />
<path d="M47739 25079
L47739 24685
L47701 24742
L47664 24779
L47626 24798
" />
<path d="M61942 38723
L61923 38742
L61867 38760
L61829 38760
L61773 38742
L61736 38704
L61717 38667
L61698 38592
L61698 38535
L61717 38460
L61736 38423
L61773 38385
L61829 38367
L61867 38367
L61923 38385
L61942 38404
" />
<path d="M62167 38535
L62129 38517
L62110 38498
L62092 38460
L62092 38442
L62110 38404
L62129 38385
L62167 38367
L62242 38367
L62279 38385
L62298 38404
L62317 38442
L62317 38460
L62298 38498
L62279 38517
L62242 38535
L62167 38535
L62129 38554
L62110 38573
L62092 38610
L62092 38685
L62110 38723
L62129 38742
L62167 38760
L62242 38760
L62279 38742
L62298 38723
L62317 38685
L62317 38610
L62298 38573
L62279 38554
L62242 38535
" />
<path d="M59514 28721
L59514 29002
L59495 29058
L59458 29096
L59401 29115
L59364 29115
" />
<path d="M59720 29115
L59795 29115
L59833 29096
L59851 29077
L59889 29021
L59908 28946
L59908 28796
L59889 28758
L59870 28740
L59833 28721
L59758 28721
L59720 28740
L59701 28758
L59683 28796
L59683 28890
L59701 28927
L59720 28946
L59758 28965
L59833 28965
L59870 28946
L59889 28927
L59908 28890
" />
<path d="M59514 34922
L59514 35203
L59495 35259
L59458 35297
L59401 35315
L59364 35315
" />
<path d="M59664 34922
L59926 34922
L59758 35315
" />
<path d="M49278 28318
L49146 28318
" />
<path d="M49146 28524
L49146 28130
L49334 28130
" />
<path d="M49690 28524
L49465 28524
" />
<path d="M49578 28524
L49578 28130
L49540 28187
L49503 28224
L49465 28243
" />
<path d="M53440 35119
L53440 35437
L53458 35475
L53477 35494
L53515 35512
L53590 35512
L53627 35494
L53646 35475
L53665 35437
L53665 35119
" />
<path d="M54058 35512
L53833 35512
" />
<path d="M53946 35512
L53946 35119
L53908 35175
L53871 35212
L53833 35231
" />
<path d="M37771 38563
L37771 38845
L37753 38901
L37715 38938
L37659 38957
L37621 38957
" />
<path d="M38165 38957
L37940 38957
" />
<path d="M38053 38957
L38053 38563
L38015 38620
L37978 38657
L37940 38676
" />
<path d="M38315 38601
L38334 38582
L38371 38563
L38465 38563
L38502 38582
L38521 38601
L38540 38638
L38540 38676
L38521 38732
L38296 38957
L38540 38957
" />
<path d="M44449 24685
L44449 24967
L44430 25023
L44392 25060
L44336 25079
L44299 25079
" />
<path d="M44842 25079
L44617 25079
" />
<path d="M44730 25079
L44730 24685
L44692 24742
L44655 24779
L44617 24798
" />
<path d="M44973 24685
L45217 24685
L45086 24835
L45142 24835
L45180 24854
L45198 24873
L45217 24910
L45217 25004
L45198 25042
L45180 25060
L45142 25079
L45030 25079
L44992 25060
L44973 25042
" />
</g>
<g style="fill:#000000; fill-opacity:0.0; 
stroke:#000000; stroke-width:59.0551; stroke-opacity:1; 
stroke-linecap:round; stroke-linejoin:round;">
</g>
<g style="fill:#C2C2C2; fill-opacity:0.0; 
stroke:#C2C2C2; stroke-width:59.0551; stroke-opacity:1; 
stroke-linecap:round; stroke-linejoin:round;">
</g>
<g style="fill:#C2C2C2; fill-opacity:0.0; 
stroke:#C2C2C2; stroke-width:19.685; stroke-opacity:1; 
stroke-linecap:round; stroke-linejoin:round;">
<path d="M39635 20846
L39635 19429
" />
<path d="M31230 20846
L39635 20846
" />
<path d="M31230 19429
L31230 20846
" />
<path d="M39635 19429
L31230 19429
" />
<path d="M39635 24429
L31230 24429
" />
<path d="M31230 25846
L39635 25846
" />
<path d="M31230 24429
L31230 25846
" />
<path d="M39635 25846
L39635 24429
" />
<path d="M39635 36988
L39635 35570
" />
<path d="M31230 36988
L39635 36988
" />
<path d="M31230 35570
L31230 36988
" />
<path d="M39635 35570
L31230 35570
" />
<path d="M39635 40570
L31230 40570
" />
<path d="M31230 41988
L39635 41988
" />
<path d="M31230 40570
L31230 41988
" />
<path d="M39635 41988
L39635 40570
" />
<path d="M39635 28917
L39635 27500
" />
<path d="M31230 28917
L39635 28917
" />
<path d="M31230 27500
L31230 28917
" />
<path d="M39635 27500
L31230 27500
" />
<path d="M39635 32500
L31230 32500
" />
<path d="M31230 33917
L39635 33917
" />
<path d="M31230 32500
L31230 33917
" />
<path d="M39635 33917
L39635 32500
" />
<path d="M59921 24527
L62342 24527
" />
<path d="M62342 24527
L62342 19665
" />
<path d="M62342 19665
L59921 19665
" />
<path d="M59921 19665
L59921 24527
" />
<path d="M57362 19665
L57362 24527
" />
<path d="M59783 19665
L57362 19665
" />
<path d="M59783 24527
L59783 19665
" />
<path d="M57362 24527
L59783 24527
" />
<path d="M54787 19665
L54787 24527
" />
<path d="M57208 19665
L54787 19665
" />
<path d="M57208 24527
L57208 19665
" />
<path d="M54787 24527
L57208 24527
" />
<path d="M52244 24527
L54665 24527
" />
<path d="M54665 24527
L54665 19665
" />
<path d="M54665 19665
L52244 19665
" />
<path d="M52244 19665
L52244 24527
" />
<path d="M49685 19665
L49685 24527
" />
<path d="M52106 19665
L49685 19665
" />
<path d="M52106 24527
L52106 19665
" />
<path d="M49685 24527
L52106 24527
" />
<path d="M37322 23846
L37322 21425
" />
<path d="M37322 21425
L31456 21425
" />
<path d="M31456 21425
L31456 23846
" />
<path d="M31456 23846
L37322 23846
" />
<path d="M31456 31917
L37322 31917
" />
<path d="M31456 29496
L31456 31917
" />
<path d="M37322 29496
L31456 29496
" />
<path d="M37322 31917
L37322 29496
" />
<path d="M46125 24527
L48547 24527
" />
<path d="M48547 24527
L48547 19665
" />
<path d="M48547 19665
L46125 19665
" />
<path d="M46125 19665
L46125 24527
" />
<path d="M61289 38169
L61289 37421
" />
<path d="M61289 37421
L62746 37421
" />
<path d="M62746 37421
L62746 38169
" />
<path d="M62746 38169
L61289 38169
" />
<path d="M64980 26259
L60118 26259
" />
<path d="M64980 31673
L64980 26259
" />
<path d="M60118 31673
L64980 31673
" />
<path d="M60118 26259
L60118 31673
" />
<path d="M60118 32952
L60118 37362
" />
<path d="M60118 37362
L64980 37362
" />
<path d="M64980 37362
L64980 32952
" />
<path d="M64980 32952
L60118 32952
" />
<path d="M56019 33366
L51295 33366
" />
<path d="M56019 36909
L56019 33366
" />
<path d="M51295 36909
L56019 36909
" />
<path d="M51295 33366
L51295 36909
" />
<path d="M31456 39988
L37322 39988
" />
<path d="M31456 37566
L31456 39988
" />
<path d="M37322 37566
L31456 37566
" />
<path d="M37322 39988
L37322 37566
" />
<path d="M43566 24527
L45988 24527
" />
<path d="M45988 24527
L45988 19665
" />
<path d="M45988 19665
L43566 19665
" />
<path d="M43566 19665
L43566 24527
" />
</g>
<g style="fill:#000000; fill-opacity:0.0; 
stroke:#000000; stroke-width:19.685; stroke-opacity:1; 
stroke-linecap:round; stroke-linejoin:round;">
</g>
<g style="fill:#848484; fill-opacity:0.0; 
stroke:#848484; stroke-width:19.685; stroke-opacity:1; 
stroke-linecap:round; stroke-linejoin:round;">
</g>
<g style="fill:#848484; fill-opacity:0.0; 
stroke:#848484; stroke-width:39.3701; stroke-opacity:1; 
stroke-linecap:round; stroke-linejoin:round;">
<path d="M39177 19637
L39427 19887
" />
<path d="M31427 19637
L39177 19637
" />
<path d="M31427 20637
L31427 19637
" />
<path d="M39427 20637
L31427 20637
" />
<path d="M39427 19887
L39427 20637
" />
<path d="M39438 25637
L31688 25637
" />
<path d="M31438 24637
L39438 24637
" />
<path d="M31438 25387
L31438 24637
" />
<path d="M31688 25637
L31438 25387
" />
<path d="M39438 24637
L39438 25637
" />
<path d="M39177 35779
L39427 36029
" />
<path d="M31427 35779
L39177 35779
" />
<path d="M31427 36779
L31427 35779
" />
<path d="M39427 36779
L31427 36779
" />
<path d="M39427 36029
L39427 36779
" />
<path d="M39438 41779
L31688 41779
" />
<path d="M31438 40779
L39438 40779
" />
<path d="M31438 41529
L31438 40779
" />
<path d="M31688 41779
L31438 41529
" />
<path d="M39438 40779
L39438 41779
" />
<path d="M39177 27708
L39427 27958
" />
<path d="M31427 27708
L39177 27708
" />
<path d="M31427 28708
L31427 27708
" />
<path d="M39427 28708
L31427 28708
" />
<path d="M39427 27958
L39427 28708
" />
<path d="M39438 33708
L31688 33708
" />
<path d="M31438 32708
L39438 32708
" />
<path d="M31438 33458
L31438 32708
" />
<path d="M31688 33708
L31438 33458
" />
<path d="M39438 32708
L39438 33708
" />
<path d="M60129 22978
L60129 22228
" />
<path d="M60129 22228
L62129 22228
" />
<path d="M62129 22228
L62129 23228
" />
<path d="M62129 23228
L60379 23228
" />
<path d="M60379 23228
L60129 22978
" />
<path d="M60503 23944
L60503 23228
" />
<path d="M60503 23944
L60755 23944
" />
<path d="M60755 23944
L60755 23228
" />
<path d="M60503 22228
L60503 19866
" />
<path d="M60503 19866
L60755 19866
" />
<path d="M60755 22228
L60755 19866
" />
<path d="M61503 23944
L61503 23228
" />
<path d="M61503 23944
L61755 23944
" />
<path d="M61755 23944
L61755 23228
" />
<path d="M61503 22228
L61503 19866
" />
<path d="M61503 19866
L61755 19866
" />
<path d="M61755 22228
L61755 19866
" />
<path d="M59196 22228
L59196 19866
" />
<path d="M58944 19866
L59196 19866
" />
<path d="M58944 22228
L58944 19866
" />
<path d="M59196 23944
L59196 23228
" />
<path d="M58944 23944
L59196 23944
" />
<path d="M58944 23944
L58944 23228
" />
<path d="M58196 22228
L58196 19866
" />
<path d="M57944 19866
L58196 19866
" />
<path d="M57944 22228
L57944 19866
" />
<path d="M58196 23944
L58196 23228
" />
<path d="M57944 23944
L58196 23944
" />
<path d="M57944 23944
L57944 23228
" />
<path d="M57820 23228
L57570 22978
" />
<path d="M59570 23228
L57820 23228
" />
<path d="M59570 22228
L59570 23228
" />
<path d="M57570 22228
L59570 22228
" />
<path d="M57570 22978
L57570 22228
" />
<path d="M56622 22228
L56622 19866
" />
<path d="M56370 19866
L56622 19866
" />
<path d="M56370 22228
L56370 19866
" />
<path d="M56622 23944
L56622 23228
" />
<path d="M56370 23944
L56622 23944
" />
<path d="M56370 23944
L56370 23228
" />
<path d="M55622 22228
L55622 19866
" />
<path d="M55370 19866
L55622 19866
" />
<path d="M55370 22228
L55370 19866
" />
<path d="M55622 23944
L55622 23228
" />
<path d="M55370 23944
L55622 23944
" />
<path d="M55370 23944
L55370 23228
" />
<path d="M55246 23228
L54996 22978
" />
<path d="M56996 23228
L55246 23228
" />
<path d="M56996 22228
L56996 23228
" />
<path d="M54996 22228
L56996 22228
" />
<path d="M54996 22978
L54996 22228
" />
<path d="M52452 22978
L52452 22228
" />
<path d="M52452 22228
L54452 22228
" />
<path d="M54452 22228
L54452 23228
" />
<path d="M54452 23228
L52702 23228
" />
<path d="M52702 23228
L52452 22978
" />
<path d="M52826 23944
L52826 23228
" />
<path d="M52826 23944
L53078 23944
" />
<path d="M53078 23944
L53078 23228
" />
<path d="M52826 22228
L52826 19866
" />
<path d="M52826 19866
L53078 19866
" />
<path d="M53078 22228
L53078 19866
" />
<path d="M53826 23944
L53826 23228
" />
<path d="M53826 23944
L54078 23944
" />
<path d="M54078 23944
L54078 23228
" />
<path d="M53826 22228
L53826 19866
" />
<path d="M53826 19866
L54078 19866
" />
<path d="M54078 22228
L54078 19866
" />
<path d="M51519 22228
L51519 19866
" />
<path d="M51267 19866
L51519 19866
" />
<path d="M51267 22228
L51267 19866
" />
<path d="M51519 23944
L51519 23228
" />
<path d="M51267 23944
L51519 23944
" />
<path d="M51267 23944
L51267 23228
" />
<path d="M50519 22228
L50519 19866
" />
<path d="M50267 19866
L50519 19866
" />
<path d="M50267 22228
L50267 19866
" />
<path d="M50519 23944
L50519 23228
" />
<path d="M50267 23944
L50519 23944
" />
<path d="M50267 23944
L50267 23228
" />
<path d="M50143 23228
L49893 22978
" />
<path d="M51893 23228
L50143 23228
" />
<path d="M51893 22228
L51893 23228
" />
<path d="M49893 22228
L51893 22228
" />
<path d="M49893 22978
L49893 22228
" />
<path d="M34773 23637
L34023 23637
" />
<path d="M34023 23637
L34023 21637
" />
<path d="M34023 21637
L35023 21637
" />
<path d="M35023 21637
L35023 23387
" />
<path d="M35023 23387
L34773 23637
" />
<path d="M36740 23263
L35023 23263
" />
<path d="M36740 23263
L36740 23011
" />
<path d="M36740 23011
L35023 23011
" />
<path d="M34023 23263
L31661 23263
" />
<path d="M31661 23263
L31661 23011
" />
<path d="M34023 23011
L31661 23011
" />
<path d="M36740 22263
L35023 22263
" />
<path d="M36740 22263
L36740 22011
" />
<path d="M36740 22011
L35023 22011
" />
<path d="M34023 22263
L31661 22263
" />
<path d="M31661 22263
L31661 22011
" />
<path d="M34023 22011
L31661 22011
" />
<path d="M34023 30082
L31661 30082
" />
<path d="M31661 30334
L31661 30082
" />
<path d="M34023 30334
L31661 30334
" />
<path d="M36740 30082
L35023 30082
" />
<path d="M36740 30334
L36740 30082
" />
<path d="M36740 30334
L35023 30334
" />
<path d="M34023 31082
L31661 31082
" />
<path d="M31661 31334
L31661 31082
" />
<path d="M34023 31334
L31661 31334
" />
<path d="M36740 31082
L35023 31082
" />
<path d="M36740 31334
L36740 31082
" />
<path d="M36740 31334
L35023 31334
" />
<path d="M35023 31458
L34773 31708
" />
<path d="M35023 29708
L35023 31458
" />
<path d="M34023 29708
L35023 29708
" />
<path d="M34023 31708
L34023 29708
" />
<path d="M34773 31708
L34023 31708
" />
<path d="M46334 22978
L46334 22228
" />
<path d="M46334 22228
L48334 22228
" />
<path d="M48334 22228
L48334 23228
" />
<path d="M48334 23228
L46584 23228
" />
<path d="M46584 23228
L46334 22978
" />
<path d="M46708 23944
L46708 23228
" />
<path d="M46708 23944
L46960 23944
" />
<path d="M46960 23944
L46960 23228
" />
<path d="M46708 22228
L46708 19866
" />
<path d="M46708 19866
L46960 19866
" />
<path d="M46960 22228
L46960 19866
" />
<path d="M47708 23944
L47708 23228
" />
<path d="M47708 23944
L47960 23944
" />
<path d="M47960 23944
L47960 23228
" />
<path d="M47708 22228
L47708 19866
" />
<path d="M47708 19866
L47960 19866
" />
<path d="M47960 22228
L47960 19866
" />
<path d="M61624 38031
L61624 37559
" />
<path d="M61624 37559
L62411 37559
" />
<path d="M62411 37559
L62411 38031
" />
<path d="M62411 38031
L61624 38031
" />
<path d="M62417 31094
L64779 31094
" />
<path d="M64779 30842
L64779 31094
" />
<path d="M62417 30842
L64779 30842
" />
<path d="M60700 31094
L61417 31094
" />
<path d="M60700 30842
L60700 31094
" />
<path d="M60700 30842
L61417 30842
" />
<path d="M62417 30094
L64779 30094
" />
<path d="M64779 29842
L64779 30094
" />
<path d="M62417 29842
L64779 29842
" />
<path d="M60700 30094
L61417 30094
" />
<path d="M60700 29842
L60700 30094
" />
<path d="M60700 29842
L61417 29842
" />
<path d="M62417 29094
L64779 29094
" />
<path d="M64779 28842
L64779 29094
" />
<path d="M62417 28842
L64779 28842
" />
<path d="M60700 29094
L61417 29094
" />
<path d="M60700 28842
L60700 29094
" />
<path d="M60700 28842
L61417 28842
" />
<path d="M62417 28094
L64779 28094
" />
<path d="M64779 27842
L64779 28094
" />
<path d="M62417 27842
L64779 27842
" />
<path d="M60700 28094
L61417 28094
" />
<path d="M60700 27842
L60700 28094
" />
<path d="M60700 27842
L61417 27842
" />
<path d="M62417 27094
L64779 27094
" />
<path d="M64779 26842
L64779 27094
" />
<path d="M62417 26842
L64779 26842
" />
<path d="M60700 27094
L61417 27094
" />
<path d="M60700 26842
L60700 27094
" />
<path d="M60700 26842
L61417 26842
" />
<path d="M61417 26718
L61667 26468
" />
<path d="M61417 31468
L61417 26718
" />
<path d="M62417 31468
L61417 31468
" />
<path d="M62417 26468
L62417 31468
" />
<path d="M61667 26468
L62417 26468
" />
<path d="M61667 33161
L62417 33161
" />
<path d="M62417 33161
L62417 37161
" />
<path d="M62417 37161
L61417 37161
" />
<path d="M61417 37161
L61417 33411
" />
<path d="M61417 33411
L61667 33161
" />
<path d="M60700 33535
L61417 33535
" />
<path d="M60700 33535
L60700 33787
" />
<path d="M60700 33787
L61417 33787
" />
<path d="M62417 33535
L64779 33535
" />
<path d="M64779 33535
L64779 33787
" />
<path d="M62417 33787
L64779 33787
" />
<path d="M60700 34535
L61417 34535
" />
<path d="M60700 34535
L60700 34787
" />
<path d="M60700 34787
L61417 34787
" />
<path d="M62417 34535
L64779 34535
" />
<path d="M64779 34535
L64779 34787
" />
<path d="M62417 34787
L64779 34787
" />
<path d="M60700 35535
L61417 35535
" />
<path d="M60700 35535
L60700 35787
" />
<path d="M60700 35787
L61417 35787
" />
<path d="M62417 35535
L64779 35535
" />
<path d="M64779 35535
L64779 35787
" />
<path d="M62417 35787
L64779 35787
" />
<path d="M60700 36535
L61417 36535
" />
<path d="M60700 36535
L60700 36787
" />
<path d="M60700 36787
L61417 36787
" />
<path d="M62417 36535
L64779 36535
" />
<path d="M64779 36535
L64779 36787
" />
<path d="M62417 36787
L64779 36787
" />
<path d="M51393 33858
L51787 33464
" />
<path d="M51393 36811
L51393 33858
" />
<path d="M55921 36811
L51393 36811
" />
<path d="M55921 33464
L55921 36811
" />
<path d="M51787 33464
L55921 33464
" />
<path d="M34023 38153
L31661 38153
" />
<path d="M31661 38405
L31661 38153
" />
<path d="M34023 38405
L31661 38405
" />
<path d="M36740 38153
L35023 38153
" />
<path d="M36740 38405
L36740 38153
" />
<path d="M36740 38405
L35023 38405
" />
<path d="M34023 39153
L31661 39153
" />
<path d="M31661 39405
L31661 39153
" />
<path d="M34023 39405
L31661 39405
" />
<path d="M36740 39153
L35023 39153
" />
<path d="M36740 39405
L36740 39153
" />
<path d="M36740 39405
L35023 39405
" />
<path d="M35023 39529
L34773 39779
" />
<path d="M35023 37779
L35023 39529
" />
<path d="M34023 37779
L35023 37779
" />
<path d="M34023 39779
L34023 37779
" />
<path d="M34773 39779
L34023 39779
" />
<path d="M43775 22978
L43775 22228
" />
<path d="M43775 22228
L45775 22228
" />
<path d="M45775 22228
L45775 23228
" />
<path d="M45775 23228
L44025 23228
" />
<path d="M44025 23228
L43775 22978
" />
<path d="M44149 23944
L44149 23228
" />
<path d="M44149 23944
L44401 23944
" />
<path d="M44401 23944
L44401 23228
" />
<path d="M44149 22228
L44149 19866
" />
<path d="M44149 19866
L44401 19866
" />
<path d="M44401 22228
L44401 19866
" />
<path d="M45149 23944
L45149 23228
" />
<path d="M45149 23944
L45401 23944
" />
<path d="M45401 23944
L45401 23228
" />
<path d="M45149 22228
L45149 19866
" />
<path d="M45149 19866
L45401 19866
" />
<path d="M45401 22228
L45401 19866
" />
</g>
<g style="fill:#848484; fill-opacity:0.0; 
stroke:#848484; stroke-width:59.0551; stroke-opacity:1; 
stroke-linecap:round; stroke-linejoin:round;">
<path d="M52962 27934
L52737 27934
" />
<path d="M52849 27934
L52849 27540
L52812 27596
L52774 27634
L52737 27652
" />
<path d="M53112 27577
L53130 27559
L53168 27540
L53262 27540
L53299 27559
L53318 27577
L53337 27615
L53337 27652
L53318 27709
L53093 27934
L53337 27934
" />
<path d="M53449 27540
L53580 27934
L53712 27540
" />
<path d="M53843 27934
L53843 27540
L53937 27540
L53993 27559
L54030 27596
L54049 27634
L54068 27709
L54068 27765
L54049 27840
L54030 27877
L53993 27915
L53937 27934
L53843 27934
" />
<path d="M54461 27896
L54443 27915
L54386 27934
L54349 27934
L54293 27915
L54255 27877
L54236 27840
L54218 27765
L54218 27709
L54236 27634
L54255 27596
L54293 27559
L54349 27540
L54386 27540
L54443 27559
L54461 27577
" />
<path d="M54911 27915
L54968 27934
L55061 27934
L55099 27915
L55118 27896
L55136 27859
L55136 27821
L55118 27784
L55099 27765
L55061 27746
L54986 27727
L54949 27709
L54930 27690
L54911 27652
L54911 27615
L54930 27577
L54949 27559
L54986 27540
L55080 27540
L55136 27559
" />
<path d="M55474 27671
L55474 27934
" />
<path d="M55305 27671
L55305 27877
L55324 27915
L55361 27934
L55418 27934
L55455 27915
L55474 27896
" />
<path d="M55661 27671
L55661 28065
" />
<path d="M55661 27690
L55699 27671
L55774 27671
L55811 27690
L55830 27709
L55849 27746
L55849 27859
L55830 27896
L55811 27915
L55774 27934
L55699 27934
L55661 27915
" />
<path d="M56017 27671
L56017 28065
" />
<path d="M56017 27690
L56055 27671
L56130 27671
L56167 27690
L56186 27709
L56205 27746
L56205 27859
L56186 27896
L56167 27915
L56130 27934
L56055 27934
L56017 27915
" />
<path d="M56430 27934
L56392 27915
L56374 27877
L56374 27540
" />
<path d="M56542 27671
L56636 27934
" />
<path d="M56730 27671
L56636 27934
L56599 28027
L56580 28046
L56542 28065
" />
<path d="M39904 25262
L40091 25262
" />
<path d="M39866 25374
L39998 24981
L40129 25374
" />
<path d="M40429 25112
L40429 25374
" />
<path d="M40335 24962
L40241 25243
L40485 25243
" />
<path d="M40654 25374
L40729 25374
L40766 25356
L40785 25337
L40823 25281
L40841 25206
L40841 25056
L40823 25018
L40804 25000
L40766 24981
L40691 24981
L40654 25000
L40635 25018
L40616 25056
L40616 25149
L40635 25187
L40654 25206
L40691 25224
L40766 25224
L40804 25206
L40823 25187
L40841 25149
" />
<path d="M41066 25149
L41029 25131
L41010 25112
L40991 25074
L40991 25056
L41010 25018
L41029 25000
L41066 24981
L41141 24981
L41179 25000
L41197 25018
L41216 25056
L41216 25074
L41197 25112
L41179 25131
L41141 25149
L41066 25149
L41029 25168
L41010 25187
L40991 25224
L40991 25299
L41010 25337
L41029 25356
L41066 25374
L41141 25374
L41179 25356
L41197 25337
L41216 25299
L41216 25224
L41197 25187
L41179 25168
L41141 25149
" />
<path d="M41441 25149
L41404 25131
L41385 25112
L41366 25074
L41366 25056
L41385 25018
L41404 25000
L41441 24981
L41516 24981
L41554 25000
L41572 25018
L41591 25056
L41591 25074
L41572 25112
L41554 25131
L41516 25149
L41441 25149
L41404 25168
L41385 25187
L41366 25224
L41366 25299
L41385 25337
L41404 25356
L41441 25374
L41516 25374
L41554 25356
L41572 25337
L41591 25299
L41591 25224
L41572 25187
L41554 25168
L41516 25149
" />
<path d="M39904 41305
L40091 41305
" />
<path d="M39866 41418
L39998 41024
L40129 41418
" />
<path d="M40429 41155
L40429 41418
" />
<path d="M40335 41005
L40241 41287
L40485 41287
" />
<path d="M40654 41418
L40729 41418
L40766 41399
L40785 41380
L40823 41324
L40841 41249
L40841 41099
L40823 41062
L40804 41043
L40766 41024
L40691 41024
L40654 41043
L40635 41062
L40616 41099
L40616 41193
L40635 41230
L40654 41249
L40691 41268
L40766 41268
L40804 41249
L40823 41230
L40841 41193
" />
<path d="M41066 41193
L41029 41174
L41010 41155
L40991 41118
L40991 41099
L41010 41062
L41029 41043
L41066 41024
L41141 41024
L41179 41043
L41197 41062
L41216 41099
L41216 41118
L41197 41155
L41179 41174
L41141 41193
L41066 41193
L41029 41212
L41010 41230
L40991 41268
L40991 41343
L41010 41380
L41029 41399
L41066 41418
L41141 41418
L41179 41399
L41197 41380
L41216 41343
L41216 41268
L41197 41230
L41179 41212
L41141 41193
" />
<path d="M41441 41193
L41404 41174
L41385 41155
L41366 41118
L41366 41099
L41385 41062
L41404 41043
L41441 41024
L41516 41024
L41554 41043
L41572 41062
L41591 41099
L41591 41118
L41572 41155
L41554 41174
L41516 41193
L41441 41193
L41404 41212
L41385 41230
L41366 41268
L41366 41343
L41385 41380
L41404 41399
L41441 41418
L41516 41418
L41554 41399
L41572 41380
L41591 41343
L41591 41268
L41572 41230
L41554 41212
L41516 41193
" />
<path d="M39904 33333
L40091 33333
" />
<path d="M39866 33445
L39998 33052
L40129 33445
" />
<path d="M40429 33183
L40429 33445
" />
<path d="M40335 33033
L40241 33314
L40485 33314
" />
<path d="M40654 33445
L40729 33445
L40766 33427
L40785 33408
L40823 33352
L40841 33277
L40841 33127
L40823 33089
L40804 33070
L40766 33052
L40691 33052
L40654 33070
L40635 33089
L40616 33127
L40616 33220
L40635 33258
L40654 33277
L40691 33295
L40766 33295
L40804 33277
L40823 33258
L40841 33220
" />
<path d="M41066 33220
L41029 33202
L41010 33183
L40991 33145
L40991 33127
L41010 33089
L41029 33070
L41066 33052
L41141 33052
L41179 33070
L41197 33089
L41216 33127
L41216 33145
L41197 33183
L41179 33202
L41141 33220
L41066 33220
L41029 33239
L41010 33258
L40991 33295
L40991 33370
L41010 33408
L41029 33427
L41066 33445
L41141 33445
L41179 33427
L41197 33408
L41216 33370
L41216 33295
L41197 33258
L41179 33239
L41141 33220
" />
<path d="M41441 33220
L41404 33202
L41385 33183
L41366 33145
L41366 33127
L41385 33089
L41404 33070
L41441 33052
L41516 33052
L41554 33070
L41572 33089
L41591 33127
L41591 33145
L41572 33183
L41554 33202
L41516 33220
L41441 33220
L41404 33239
L41385 33258
L41366 33295
L41366 33370
L41385 33408
L41404 33427
L41441 33445
L41516 33445
L41554 33427
L41572 33408
L41591 33370
L41591 33295
L41572 33258
L41554 33239
L41516 33220
" />
<path d="M63034 23617
L63053 23636
L63071 23692
L63071 23729
L63053 23786
L63015 23823
L62978 23842
L62903 23861
L62846 23861
L62771 23842
L62734 23823
L62696 23786
L62678 23729
L62678 23692
L62696 23636
L62715 23617
" />
<path d="M63071 23392
L63053 23429
L63034 23448
L62996 23467
L62884 23467
L62846 23448
L62828 23429
L62809 23392
L62809 23336
L62828 23298
L62846 23279
L62884 23261
L62996 23261
L63034 23279
L63053 23298
L63071 23336
L63071 23392
" />
<path d="M62809 23092
L63071 23092
" />
<path d="M62846 23092
L62828 23073
L62809 23036
L62809 22979
L62828 22942
L62865 22923
L63071 22923
" />
<path d="M62809 22736
L63071 22736
" />
<path d="M62846 22736
L62828 22717
L62809 22679
L62809 22623
L62828 22586
L62865 22567
L63071 22567
" />
<path d="M63109 22473
L63109 22173
" />
<path d="M62678 22005
L62678 21967
L62696 21930
L62715 21911
L62753 21892
L62828 21873
L62921 21873
L62996 21892
L63034 21911
L63053 21930
L63071 21967
L63071 22005
L63053 22042
L63034 22061
L62996 22080
L62921 22098
L62828 22098
L62753 22080
L62715 22061
L62696 22042
L62678 22005
" />
<path d="M63071 21498
L63071 21723
" />
<path d="M63071 21611
L62678 21611
L62734 21648
L62771 21686
L62790 21723
" />
<path d="M63071 21367
L62809 21161
" />
<path d="M62809 21367
L63071 21161
" />
<path d="M62678 20936
L62678 20898
L62696 20861
L62715 20842
L62753 20823
L62828 20805
L62921 20805
L62996 20823
L63034 20842
L63053 20861
L63071 20898
L63071 20936
L63053 20973
L63034 20992
L62996 21011
L62921 21030
L62828 21030
L62753 21011
L62715 20992
L62696 20973
L62678 20936
" />
<path d="M62715 20655
L62696 20636
L62678 20598
L62678 20505
L62696 20467
L62715 20449
L62753 20430
L62790 20430
L62846 20449
L63071 20673
L63071 20430
" />
<path d="M31931 21302
L31913 21320
L31856 21339
L31819 21339
L31763 21320
L31725 21283
L31706 21245
L31688 21170
L31688 21114
L31706 21039
L31725 21002
L31763 20964
L31819 20945
L31856 20945
L31913 20964
L31931 20983
" />
<path d="M32156 21339
L32119 21320
L32100 21302
L32081 21264
L32081 21152
L32100 21114
L32119 21095
L32156 21077
L32213 21077
L32250 21095
L32269 21114
L32288 21152
L32288 21264
L32269 21302
L32250 21320
L32213 21339
L32156 21339
" />
<path d="M32456 21077
L32456 21339
" />
<path d="M32456 21114
L32475 21095
L32513 21077
L32569 21077
L32606 21095
L32625 21133
L32625 21339
" />
<path d="M32813 21077
L32813 21339
" />
<path d="M32813 21114
L32831 21095
L32869 21077
L32925 21077
L32963 21095
L32981 21133
L32981 21339
" />
<path d="M33075 21377
L33375 21377
" />
<path d="M33544 20945
L33581 20945
L33619 20964
L33637 20983
L33656 21020
L33675 21095
L33675 21189
L33656 21264
L33637 21302
L33619 21320
L33581 21339
L33544 21339
L33506 21320
L33488 21302
L33469 21264
L33450 21189
L33450 21095
L33469 21020
L33488 20983
L33506 20964
L33544 20945
" />
<path d="M33825 20983
L33844 20964
L33881 20945
L33975 20945
L34012 20964
L34031 20983
L34050 21020
L34050 21058
L34031 21114
L33806 21339
L34050 21339
" />
<path d="M34181 21339
L34387 21077
" />
<path d="M34181 21077
L34387 21339
" />
<path d="M34612 20945
L34650 20945
L34687 20964
L34706 20983
L34725 21020
L34744 21095
L34744 21189
L34725 21264
L34706 21302
L34687 21320
L34650 21339
L34612 21339
L34575 21320
L34556 21302
L34537 21264
L34519 21189
L34519 21095
L34537 21020
L34556 20983
L34575 20964
L34612 20945
" />
<path d="M34894 20983
L34912 20964
L34950 20945
L35044 20945
L35081 20964
L35100 20983
L35119 21020
L35119 21058
L35100 21114
L34875 21339
L35119 21339
" />
<path d="M35194 21377
L35494 21377
" />
<path d="M35662 20945
L35737 20945
L35775 20964
L35812 21002
L35831 21077
L35831 21208
L35812 21283
L35775 21320
L35737 21339
L35662 21339
L35625 21320
L35587 21283
L35568 21208
L35568 21077
L35587 21002
L35625 20964
L35662 20945
" />
<path d="M36168 21339
L36168 20945
" />
<path d="M36168 21320
L36131 21339
L36056 21339
L36018 21320
L36000 21302
L35981 21264
L35981 21152
L36000 21114
L36018 21095
L36056 21077
L36131 21077
L36168 21095
" />
<path d="M36525 21339
L36525 20945
" />
<path d="M36525 21320
L36487 21339
L36412 21339
L36375 21320
L36356 21302
L36337 21264
L36337 21152
L36356 21114
L36375 21095
L36412 21077
L36487 21077
L36525 21095
" />
<path d="M36618 21377
L36918 21377
" />
<path d="M37012 21133
L37143 21133
" />
<path d="M37200 21339
L37012 21339
L37012 20945
L37200 20945
" />
<path d="M37331 21077
L37425 21339
L37518 21077
" />
<path d="M37818 21320
L37781 21339
L37706 21339
L37668 21320
L37649 21283
L37649 21133
L37668 21095
L37706 21077
L37781 21077
L37818 21095
L37837 21133
L37837 21170
L37649 21208
" />
<path d="M38006 21077
L38006 21339
" />
<path d="M38006 21114
L38024 21095
L38062 21077
L38118 21077
L38156 21095
L38174 21133
L38174 21339
" />
<path d="M31931 29372
L31913 29391
L31856 29410
L31819 29410
L31763 29391
L31725 29354
L31706 29316
L31688 29241
L31688 29185
L31706 29110
L31725 29072
L31763 29035
L31819 29016
L31856 29016
L31913 29035
L31931 29054
" />
<path d="M32156 29410
L32119 29391
L32100 29372
L32081 29335
L32081 29222
L32100 29185
L32119 29166
L32156 29147
L32213 29147
L32250 29166
L32269 29185
L32288 29222
L32288 29335
L32269 29372
L32250 29391
L32213 29410
L32156 29410
" />
<path d="M32456 29147
L32456 29410
" />
<path d="M32456 29185
L32475 29166
L32513 29147
L32569 29147
L32606 29166
L32625 29204
L32625 29410
" />
<path d="M32813 29147
L32813 29410
" />
<path d="M32813 29185
L32831 29166
L32869 29147
L32925 29147
L32963 29166
L32981 29204
L32981 29410
" />
<path d="M33075 29447
L33375 29447
" />
<path d="M33544 29016
L33581 29016
L33619 29035
L33637 29054
L33656 29091
L33675 29166
L33675 29260
L33656 29335
L33637 29372
L33619 29391
L33581 29410
L33544 29410
L33506 29391
L33488 29372
L33469 29335
L33450 29260
L33450 29166
L33469 29091
L33488 29054
L33506 29035
L33544 29016
" />
<path d="M33825 29054
L33844 29035
L33881 29016
L33975 29016
L34012 29035
L34031 29054
L34050 29091
L34050 29129
L34031 29185
L33806 29410
L34050 29410
" />
<path d="M34181 29410
L34387 29147
" />
<path d="M34181 29147
L34387 29410
" />
<path d="M34612 29016
L34650 29016
L34687 29035
L34706 29054
L34725 29091
L34744 29166
L34744 29260
L34725 29335
L34706 29372
L34687 29391
L34650 29410
L34612 29410
L34575 29391
L34556 29372
L34537 29335
L34519 29260
L34519 29166
L34537 29091
L34556 29054
L34575 29035
L34612 29016
" />
<path d="M34894 29054
L34912 29035
L34950 29016
L35044 29016
L35081 29035
L35100 29054
L35119 29091
L35119 29129
L35100 29185
L34875 29410
L35119 29410
" />
<path d="M35194 29447
L35494 29447
" />
<path d="M35662 29016
L35737 29016
L35775 29035
L35812 29072
L35831 29147
L35831 29279
L35812 29354
L35775 29391
L35737 29410
L35662 29410
L35625 29391
L35587 29354
L35568 29279
L35568 29147
L35587 29072
L35625 29035
L35662 29016
" />
<path d="M36168 29410
L36168 29016
" />
<path d="M36168 29391
L36131 29410
L36056 29410
L36018 29391
L36000 29372
L35981 29335
L35981 29222
L36000 29185
L36018 29166
L36056 29147
L36131 29147
L36168 29166
" />
<path d="M36525 29410
L36525 29016
" />
<path d="M36525 29391
L36487 29410
L36412 29410
L36375 29391
L36356 29372
L36337 29335
L36337 29222
L36356 29185
L36375 29166
L36412 29147
L36487 29147
L36525 29166
" />
<path d="M36618 29447
L36918 29447
" />
<path d="M37012 29204
L37143 29204
" />
<path d="M37200 29410
L37012 29410
L37012 29016
L37200 29016
" />
<path d="M37331 29147
L37425 29410
L37518 29147
" />
<path d="M37818 29391
L37781 29410
L37706 29410
L37668 29391
L37649 29354
L37649 29204
L37668 29166
L37706 29147
L37781 29147
L37818 29166
L37837 29204
L37837 29241
L37649 29279
" />
<path d="M38006 29147
L38006 29410
" />
<path d="M38006 29185
L38024 29166
L38062 29147
L38118 29147
L38156 29166
L38174 29204
L38174 29410
" />
<path d="M61398 39351
L61173 39351
" />
<path d="M61286 39351
L61286 38957
L61248 39013
L61211 39051
L61173 39070
" />
<path d="M61642 38957
L61679 38957
L61717 38976
L61736 38995
L61754 39032
L61773 39107
L61773 39201
L61754 39276
L61736 39313
L61717 39332
L61679 39351
L61642 39351
L61604 39332
L61586 39313
L61567 39276
L61548 39201
L61548 39107
L61567 39032
L61586 38995
L61604 38976
L61642 38957
" />
<path d="M62017 38957
L62054 38957
L62092 38976
L62110 38995
L62129 39032
L62148 39107
L62148 39201
L62129 39276
L62110 39313
L62092 39332
L62054 39351
L62017 39351
L61979 39332
L61961 39313
L61942 39276
L61923 39201
L61923 39107
L61942 39032
L61961 38995
L61979 38976
L62017 38957
" />
<path d="M62317 39088
L62317 39351
" />
<path d="M62317 39126
L62335 39107
L62373 39088
L62429 39088
L62467 39107
L62485 39145
L62485 39351
" />
<path d="M62804 39145
L62673 39145
" />
<path d="M62673 39351
L62673 38957
L62860 38957
" />
<path d="M61126 26026
L61107 26045
L61051 26063
L61014 26063
L60958 26045
L60920 26007
L60901 25970
L60883 25895
L60883 25838
L60901 25763
L60920 25726
L60958 25688
L61014 25670
L61051 25670
L61107 25688
L61126 25707
" />
<path d="M61351 26063
L61314 26045
L61295 26026
L61276 25988
L61276 25876
L61295 25838
L61314 25820
L61351 25801
L61407 25801
L61445 25820
L61464 25838
L61482 25876
L61482 25988
L61464 26026
L61445 26045
L61407 26063
L61351 26063
" />
<path d="M61651 25801
L61651 26063
" />
<path d="M61651 25838
L61670 25820
L61707 25801
L61764 25801
L61801 25820
L61820 25857
L61820 26063
" />
<path d="M62007 25801
L62007 26063
" />
<path d="M62007 25838
L62026 25820
L62064 25801
L62120 25801
L62157 25820
L62176 25857
L62176 26063
" />
<path d="M62270 26101
L62570 26101
" />
<path d="M62739 25670
L62776 25670
L62814 25688
L62832 25707
L62851 25745
L62870 25820
L62870 25913
L62851 25988
L62832 26026
L62814 26045
L62776 26063
L62739 26063
L62701 26045
L62682 26026
L62664 25988
L62645 25913
L62645 25820
L62664 25745
L62682 25707
L62701 25688
L62739 25670
" />
<path d="M63245 26063
L63020 26063
" />
<path d="M63132 26063
L63132 25670
L63095 25726
L63057 25763
L63020 25782
" />
<path d="M63376 26063
L63582 25801
" />
<path d="M63376 25801
L63582 26063
" />
<path d="M63807 25670
L63845 25670
L63882 25688
L63901 25707
L63920 25745
L63938 25820
L63938 25913
L63920 25988
L63901 26026
L63882 26045
L63845 26063
L63807 26063
L63770 26045
L63751 26026
L63732 25988
L63713 25913
L63713 25820
L63732 25745
L63751 25707
L63770 25688
L63807 25670
" />
<path d="M64295 25670
L64107 25670
L64088 25857
L64107 25838
L64145 25820
L64238 25820
L64276 25838
L64295 25857
L64313 25895
L64313 25988
L64295 26026
L64276 26045
L64238 26063
L64145 26063
L64107 26045
L64088 26026
" />
<path d="M61126 32719
L61107 32738
L61051 32756
L61014 32756
L60958 32738
L60920 32700
L60901 32663
L60883 32588
L60883 32531
L60901 32456
L60920 32419
L60958 32381
L61014 32363
L61051 32363
L61107 32381
L61126 32400
" />
<path d="M61351 32756
L61314 32738
L61295 32719
L61276 32681
L61276 32569
L61295 32531
L61314 32513
L61351 32494
L61407 32494
L61445 32513
L61464 32531
L61482 32569
L61482 32681
L61464 32719
L61445 32738
L61407 32756
L61351 32756
" />
<path d="M61651 32494
L61651 32756
" />
<path d="M61651 32531
L61670 32513
L61707 32494
L61764 32494
L61801 32513
L61820 32550
L61820 32756
" />
<path d="M62007 32494
L62007 32756
" />
<path d="M62007 32531
L62026 32513
L62064 32494
L62120 32494
L62157 32513
L62176 32550
L62176 32756
" />
<path d="M62270 32794
L62570 32794
" />
<path d="M62739 32363
L62776 32363
L62814 32381
L62832 32400
L62851 32438
L62870 32513
L62870 32606
L62851 32681
L62832 32719
L62814 32738
L62776 32756
L62739 32756
L62701 32738
L62682 32719
L62664 32681
L62645 32606
L62645 32513
L62664 32438
L62682 32400
L62701 32381
L62739 32363
" />
<path d="M63245 32756
L63020 32756
" />
<path d="M63132 32756
L63132 32363
L63095 32419
L63057 32456
L63020 32475
" />
<path d="M63376 32756
L63582 32494
" />
<path d="M63376 32494
L63582 32756
" />
<path d="M63807 32363
L63845 32363
L63882 32381
L63901 32400
L63920 32438
L63938 32513
L63938 32606
L63920 32681
L63901 32719
L63882 32738
L63845 32756
L63807 32756
L63770 32738
L63751 32719
L63732 32681
L63713 32606
L63713 32513
L63732 32438
L63751 32400
L63770 32381
L63807 32363
" />
<path d="M64276 32494
L64276 32756
" />
<path d="M64182 32344
L64088 32625
L64332 32625
" />
<path d="M49109 32855
L49353 32855
L49221 33005
L49278 33005
L49315 33023
L49334 33042
L49353 33080
L49353 33173
L49334 33211
L49315 33230
L49278 33248
L49165 33248
L49128 33230
L49109 33211
" />
<path d="M49503 33136
L49690 33136
" />
<path d="M49465 33248
L49596 32855
L49728 33248
" />
<path d="M51766 37481
L51635 37293
" />
<path d="M51541 37481
L51541 37087
L51691 37087
L51729 37106
L51748 37125
L51766 37162
L51766 37218
L51748 37256
L51729 37275
L51691 37293
L51541 37293
" />
<path d="M51935 37331
L52235 37331
" />
<path d="M52385 37087
L52648 37087
L52479 37481
" />
<path d="M52854 37256
L52816 37237
L52798 37218
L52779 37181
L52779 37162
L52798 37125
L52816 37106
L52854 37087
L52929 37087
L52966 37106
L52985 37125
L53004 37162
L53004 37181
L52985 37218
L52966 37237
L52929 37256
L52854 37256
L52816 37275
L52798 37293
L52779 37331
L52779 37406
L52798 37443
L52816 37462
L52854 37481
L52929 37481
L52966 37462
L52985 37443
L53004 37406
L53004 37331
L52985 37293
L52966 37275
L52929 37256
" />
<path d="M53304 37275
L53360 37293
L53379 37312
L53398 37350
L53398 37406
L53379 37443
L53360 37462
L53323 37481
L53173 37481
L53173 37087
L53304 37087
L53341 37106
L53360 37125
L53379 37162
L53379 37200
L53360 37237
L53341 37256
L53304 37275
L53173 37275
" />
<path d="M53754 37087
L53566 37087
L53547 37275
L53566 37256
L53604 37237
L53697 37237
L53735 37256
L53754 37275
L53772 37312
L53772 37406
L53754 37443
L53735 37462
L53697 37481
L53604 37481
L53566 37462
L53547 37443
" />
<path d="M53941 37443
L53960 37462
L53941 37481
L53922 37462
L53941 37443
L53941 37481
" />
<path d="M54204 37087
L54241 37087
L54279 37106
L54297 37125
L54316 37162
L54335 37237
L54335 37331
L54316 37406
L54297 37443
L54279 37462
L54241 37481
L54204 37481
L54166 37462
L54147 37443
L54129 37406
L54110 37331
L54110 37237
L54129 37162
L54147 37125
L54166 37106
L54204 37087
" />
<path d="M54504 37331
L54804 37331
" />
<path d="M54972 37125
L54991 37106
L55029 37087
L55122 37087
L55160 37106
L55179 37125
L55197 37162
L55197 37200
L55179 37256
L54954 37481
L55197 37481
" />
<path d="M55366 37443
L55385 37462
L55366 37481
L55347 37462
L55366 37443
L55366 37481
" />
<path d="M55628 37087
L55666 37087
L55703 37106
L55722 37125
L55741 37162
L55760 37237
L55760 37331
L55741 37406
L55722 37443
L55703 37462
L55666 37481
L55628 37481
L55591 37462
L55572 37443
L55553 37406
L55535 37331
L55535 37237
L55553 37162
L55572 37125
L55591 37106
L55628 37087
" />
<path d="M31931 37443
L31913 37462
L31856 37481
L31819 37481
L31763 37462
L31725 37425
L31706 37387
L31688 37312
L31688 37256
L31706 37181
L31725 37143
L31763 37106
L31819 37087
L31856 37087
L31913 37106
L31931 37125
" />
<path d="M32156 37481
L32119 37462
L32100 37443
L32081 37406
L32081 37293
L32100 37256
L32119 37237
L32156 37218
L32213 37218
L32250 37237
L32269 37256
L32288 37293
L32288 37406
L32269 37443
L32250 37462
L32213 37481
L32156 37481
" />
<path d="M32456 37218
L32456 37481
" />
<path d="M32456 37256
L32475 37237
L32513 37218
L32569 37218
L32606 37237
L32625 37275
L32625 37481
" />
<path d="M32813 37218
L32813 37481
" />
<path d="M32813 37256
L32831 37237
L32869 37218
L32925 37218
L32963 37237
L32981 37275
L32981 37481
" />
<path d="M33075 37518
L33375 37518
" />
<path d="M33544 37087
L33581 37087
L33619 37106
L33637 37125
L33656 37162
L33675 37237
L33675 37331
L33656 37406
L33637 37443
L33619 37462
L33581 37481
L33544 37481
L33506 37462
L33488 37443
L33469 37406
L33450 37331
L33450 37237
L33469 37162
L33488 37125
L33506 37106
L33544 37087
" />
<path d="M33825 37125
L33844 37106
L33881 37087
L33975 37087
L34012 37106
L34031 37125
L34050 37162
L34050 37200
L34031 37256
L33806 37481
L34050 37481
" />
<path d="M34181 37481
L34387 37218
" />
<path d="M34181 37218
L34387 37481
" />
<path d="M34612 37087
L34650 37087
L34687 37106
L34706 37125
L34725 37162
L34744 37237
L34744 37331
L34725 37406
L34706 37443
L34687 37462
L34650 37481
L34612 37481
L34575 37462
L34556 37443
L34537 37406
L34519 37331
L34519 37237
L34537 37162
L34556 37125
L34575 37106
L34612 37087
" />
<path d="M34894 37125
L34912 37106
L34950 37087
L35044 37087
L35081 37106
L35100 37125
L35119 37162
L35119 37200
L35100 37256
L34875 37481
L35119 37481
" />
<path d="M35194 37518
L35494 37518
" />
<path d="M35662 37087
L35737 37087
L35775 37106
L35812 37143
L35831 37218
L35831 37350
L35812 37425
L35775 37462
L35737 37481
L35662 37481
L35625 37462
L35587 37425
L35568 37350
L35568 37218
L35587 37143
L35625 37106
L35662 37087
" />
<path d="M36168 37481
L36168 37087
" />
<path d="M36168 37462
L36131 37481
L36056 37481
L36018 37462
L36000 37443
L35981 37406
L35981 37293
L36000 37256
L36018 37237
L36056 37218
L36131 37218
L36168 37237
" />
<path d="M36525 37481
L36525 37087
" />
<path d="M36525 37462
L36487 37481
L36412 37481
L36375 37462
L36356 37443
L36337 37406
L36337 37293
L36356 37256
L36375 37237
L36412 37218
L36487 37218
L36525 37237
" />
<path d="M36618 37518
L36918 37518
" />
<path d="M37012 37275
L37143 37275
" />
<path d="M37200 37481
L37012 37481
L37012 37087
L37200 37087
" />
<path d="M37331 37218
L37425 37481
L37518 37218
" />
<path d="M37818 37462
L37781 37481
L37706 37481
L37668 37462
L37649 37425
L37649 37275
L37668 37237
L37706 37218
L37781 37218
L37818 37237
L37837 37275
L37837 37312
L37649 37350
" />
<path d="M38006 37218
L38006 37481
" />
<path d="M38006 37256
L38024 37237
L38062 37218
L38118 37218
L38156 37237
L38174 37275
L38174 37481
" />
</g>
<g style="fill:#000000; fill-opacity:0.0; 
stroke:#000000; stroke-width:59.0551; stroke-opacity:1; 
stroke-linecap:round; stroke-linejoin:round;">
</g>
<g style="fill:#C2C200; fill-opacity:0.0; 
stroke:#C2C200; stroke-width:59.0551; stroke-opacity:1; 
stroke-linecap:round; stroke-linejoin:round;">
</g>
<g style="fill:#C2C200; fill-opacity:0.0; 
stroke:#C2C200; stroke-width:78.7402; stroke-opacity:1; 
stroke-linecap:round; stroke-linejoin:round;">
<path d="M64960 19685
L31496 19685
" />
<path d="M64960 41732
L64960 19685
" />
<path d="M31496 41732
L64960 41732
" />
<path d="M31496 19685
L31496 41732
" />
</g> 
</svg>
