<?xml version="1.0" standalone="no"?>
 <!DOCTYPE svg PUBLIC "-//W3C//DTD SVG 1.1//EN" 
 "http://www.w3.org/Graphics/SVG/1.1/DTD/svg11.dtd"> 
<svg xmlns="http://www.w3.org/2000/svg" version="1.1" 
    width="29.7002cm" height="21.0007cm" viewBox="0 0 116930 82680 ">
<title>SVG Picture created as Autoscope-brd.svg date 2019/03/05 20:05:19 </title>
  <desc>Picture generated by PCBNEW </desc>
<g style="fill:#000000; fill-opacity:1;stroke:#000000; stroke-opacity:1;
stroke-linecap:round; stroke-linejoin:round; "
 transform="translate(0 0) scale(1 1)">
</g>
<g style="fill:#000000; fill-opacity:0.0; 
stroke:#000000; stroke-width:-0.000393701; stroke-opacity:1; 
stroke-linecap:round; stroke-linejoin:round;">
</g>
<g style="fill:#000000; fill-opacity:0.0; 
stroke:#000000; stroke-width:39.3701; stroke-opacity:1; 
stroke-linecap:round; stroke-linejoin:round;">
</g>
<g style="fill:#000000; fill-opacity:0.0; 
stroke:#000000; stroke-width:59.0551; stroke-opacity:1; 
stroke-linecap:round; stroke-linejoin:round;">
<rect x="69685.8" y="65357.1" width="42519.7" height="12598.4" rx="0" />
</g>
<g style="fill:#000000; fill-opacity:0.0; 
stroke:#000000; stroke-width:39.3701; stroke-opacity:1; 
stroke-linecap:round; stroke-linejoin:round;">
</g>
<g style="fill:#000000; fill-opacity:0.0; 
stroke:#000000; stroke-width:59.0551; stroke-opacity:1; 
stroke-linecap:round; stroke-linejoin:round;">
<rect x="3937.01" y="3937.01" width="109056" height="74806" rx="0" />
</g>
<g style="fill:#000000; fill-opacity:0.0; 
stroke:#000000; stroke-width:39.3701; stroke-opacity:1; 
stroke-linecap:round; stroke-linejoin:round;">
</g>
<g style="fill:#000000; fill-opacity:0.0; 
stroke:#000000; stroke-width:59.0551; stroke-opacity:1; 
stroke-linecap:round; stroke-linejoin:round;">
<rect x="4724.41" y="4724.41" width="107481" height="73231.2" rx="0" />
</g>
<g style="fill:#000000; fill-opacity:0.0; 
stroke:#000000; stroke-width:39.3701; stroke-opacity:1; 
stroke-linecap:round; stroke-linejoin:round;">
</g>
<g style="fill:#000000; fill-opacity:0.0; 
stroke:#000000; stroke-width:59.0551; stroke-opacity:1; 
stroke-linecap:round; stroke-linejoin:round;">
<path d="M23622 4724
L23622 3937
" />
</g>
<g style="fill:#000000; fill-opacity:0.0; 
stroke:#000000; stroke-width:39.3701; stroke-opacity:1; 
stroke-linecap:round; stroke-linejoin:round;">
</g>
<g style="fill:#000000; fill-opacity:0.0; 
stroke:#000000; stroke-width:59.0551; stroke-opacity:1; 
stroke-linecap:round; stroke-linejoin:round;">
<path d="M43307 4724
L43307 3937
" />
</g>
<g style="fill:#000000; fill-opacity:0.0; 
stroke:#000000; stroke-width:39.3701; stroke-opacity:1; 
stroke-linecap:round; stroke-linejoin:round;">
</g>
<g style="fill:#000000; fill-opacity:0.0; 
stroke:#000000; stroke-width:59.0551; stroke-opacity:1; 
stroke-linecap:round; stroke-linejoin:round;">
<path d="M62992 4724
L62992 3937
" />
</g>
<g style="fill:#000000; fill-opacity:0.0; 
stroke:#000000; stroke-width:39.3701; stroke-opacity:1; 
stroke-linecap:round; stroke-linejoin:round;">
</g>
<g style="fill:#000000; fill-opacity:0.0; 
stroke:#000000; stroke-width:59.0551; stroke-opacity:1; 
stroke-linecap:round; stroke-linejoin:round;">
<path d="M82677 4724
L82677 3937
" />
</g>
<g style="fill:#000000; fill-opacity:0.0; 
stroke:#000000; stroke-width:39.3701; stroke-opacity:1; 
stroke-linecap:round; stroke-linejoin:round;">
</g>
<g style="fill:#000000; fill-opacity:0.0; 
stroke:#000000; stroke-width:59.0551; stroke-opacity:1; 
stroke-linecap:round; stroke-linejoin:round;">
<path d="M102362 4724
L102362 3937
" />
</g>
<g style="fill:#000000; fill-opacity:0.0; 
stroke:#000000; stroke-width:39.3701; stroke-opacity:1; 
stroke-linecap:round; stroke-linejoin:round;">
</g>
<g style="fill:#000000; fill-opacity:0.0; 
stroke:#000000; stroke-width:59.0551; stroke-opacity:1; 
stroke-linecap:round; stroke-linejoin:round;">
<path d="M14199 4562
L13906 4562
" />
<path d="M14052 4562
L14052 4050
L14004 4123
L13955 4172
L13906 4196
" />
</g>
<g style="fill:#000000; fill-opacity:0.0; 
stroke:#000000; stroke-width:39.3701; stroke-opacity:1; 
stroke-linecap:round; stroke-linejoin:round;">
</g>
<g style="fill:#000000; fill-opacity:0.0; 
stroke:#000000; stroke-width:59.0551; stroke-opacity:1; 
stroke-linecap:round; stroke-linejoin:round;">
<path d="M33591 4099
L33615 4074
L33664 4050
L33786 4050
L33835 4074
L33859 4099
L33884 4147
L33884 4196
L33859 4269
L33567 4562
L33884 4562
" />
</g>
<g style="fill:#000000; fill-opacity:0.0; 
stroke:#000000; stroke-width:39.3701; stroke-opacity:1; 
stroke-linecap:round; stroke-linejoin:round;">
</g>
<g style="fill:#000000; fill-opacity:0.0; 
stroke:#000000; stroke-width:59.0551; stroke-opacity:1; 
stroke-linecap:round; stroke-linejoin:round;">
<path d="M53252 4050
L53569 4050
L53398 4245
L53471 4245
L53520 4269
L53544 4294
L53569 4342
L53569 4464
L53544 4513
L53520 4537
L53471 4562
L53325 4562
L53276 4537
L53252 4513
" />
</g>
<g style="fill:#000000; fill-opacity:0.0; 
stroke:#000000; stroke-width:39.3701; stroke-opacity:1; 
stroke-linecap:round; stroke-linejoin:round;">
</g>
<g style="fill:#000000; fill-opacity:0.0; 
stroke:#000000; stroke-width:59.0551; stroke-opacity:1; 
stroke-linecap:round; stroke-linejoin:round;">
<path d="M73205 4221
L73205 4562
" />
<path d="M73083 4026
L72961 4391
L73278 4391
" />
</g>
<g style="fill:#000000; fill-opacity:0.0; 
stroke:#000000; stroke-width:39.3701; stroke-opacity:1; 
stroke-linecap:round; stroke-linejoin:round;">
</g>
<g style="fill:#000000; fill-opacity:0.0; 
stroke:#000000; stroke-width:59.0551; stroke-opacity:1; 
stroke-linecap:round; stroke-linejoin:round;">
<path d="M92914 4050
L92671 4050
L92646 4294
L92671 4269
L92719 4245
L92841 4245
L92890 4269
L92914 4294
L92939 4342
L92939 4464
L92914 4513
L92890 4537
L92841 4562
L92719 4562
L92671 4537
L92646 4513
" />
</g>
<g style="fill:#000000; fill-opacity:0.0; 
stroke:#000000; stroke-width:39.3701; stroke-opacity:1; 
stroke-linecap:round; stroke-linejoin:round;">
</g>
<g style="fill:#000000; fill-opacity:0.0; 
stroke:#000000; stroke-width:59.0551; stroke-opacity:1; 
stroke-linecap:round; stroke-linejoin:round;">
<path d="M112575 4050
L112477 4050
L112429 4074
L112404 4099
L112356 4172
L112331 4269
L112331 4464
L112356 4513
L112380 4537
L112429 4562
L112526 4562
L112575 4537
L112599 4513
L112624 4464
L112624 4342
L112599 4294
L112575 4269
L112526 4245
L112429 4245
L112380 4269
L112356 4294
L112331 4342
" />
</g>
<g style="fill:#000000; fill-opacity:0.0; 
stroke:#000000; stroke-width:39.3701; stroke-opacity:1; 
stroke-linecap:round; stroke-linejoin:round;">
</g>
<g style="fill:#000000; fill-opacity:0.0; 
stroke:#000000; stroke-width:59.0551; stroke-opacity:1; 
stroke-linecap:round; stroke-linejoin:round;">
<path d="M23622 77955
L23622 78742
" />
</g>
<g style="fill:#000000; fill-opacity:0.0; 
stroke:#000000; stroke-width:39.3701; stroke-opacity:1; 
stroke-linecap:round; stroke-linejoin:round;">
</g>
<g style="fill:#000000; fill-opacity:0.0; 
stroke:#000000; stroke-width:59.0551; stroke-opacity:1; 
stroke-linecap:round; stroke-linejoin:round;">
<path d="M43307 77955
L43307 78742
" />
</g>
<g style="fill:#000000; fill-opacity:0.0; 
stroke:#000000; stroke-width:39.3701; stroke-opacity:1; 
stroke-linecap:round; stroke-linejoin:round;">
</g>
<g style="fill:#000000; fill-opacity:0.0; 
stroke:#000000; stroke-width:59.0551; stroke-opacity:1; 
stroke-linecap:round; stroke-linejoin:round;">
<path d="M62992 77955
L62992 78742
" />
</g>
<g style="fill:#000000; fill-opacity:0.0; 
stroke:#000000; stroke-width:39.3701; stroke-opacity:1; 
stroke-linecap:round; stroke-linejoin:round;">
</g>
<g style="fill:#000000; fill-opacity:0.0; 
stroke:#000000; stroke-width:59.0551; stroke-opacity:1; 
stroke-linecap:round; stroke-linejoin:round;">
<path d="M82677 77955
L82677 78742
" />
</g>
<g style="fill:#000000; fill-opacity:0.0; 
stroke:#000000; stroke-width:39.3701; stroke-opacity:1; 
stroke-linecap:round; stroke-linejoin:round;">
</g>
<g style="fill:#000000; fill-opacity:0.0; 
stroke:#000000; stroke-width:59.0551; stroke-opacity:1; 
stroke-linecap:round; stroke-linejoin:round;">
<path d="M102362 77955
L102362 78742
" />
</g>
<g style="fill:#000000; fill-opacity:0.0; 
stroke:#000000; stroke-width:39.3701; stroke-opacity:1; 
stroke-linecap:round; stroke-linejoin:round;">
</g>
<g style="fill:#000000; fill-opacity:0.0; 
stroke:#000000; stroke-width:59.0551; stroke-opacity:1; 
stroke-linecap:round; stroke-linejoin:round;">
<path d="M14199 78580
L13906 78580
" />
<path d="M14052 78580
L14052 78069
L14004 78142
L13955 78190
L13906 78215
" />
</g>
<g style="fill:#000000; fill-opacity:0.0; 
stroke:#000000; stroke-width:39.3701; stroke-opacity:1; 
stroke-linecap:round; stroke-linejoin:round;">
</g>
<g style="fill:#000000; fill-opacity:0.0; 
stroke:#000000; stroke-width:59.0551; stroke-opacity:1; 
stroke-linecap:round; stroke-linejoin:round;">
<path d="M33591 78117
L33615 78093
L33664 78069
L33786 78069
L33835 78093
L33859 78117
L33884 78166
L33884 78215
L33859 78288
L33567 78580
L33884 78580
" />
</g>
<g style="fill:#000000; fill-opacity:0.0; 
stroke:#000000; stroke-width:39.3701; stroke-opacity:1; 
stroke-linecap:round; stroke-linejoin:round;">
</g>
<g style="fill:#000000; fill-opacity:0.0; 
stroke:#000000; stroke-width:59.0551; stroke-opacity:1; 
stroke-linecap:round; stroke-linejoin:round;">
<path d="M53252 78069
L53569 78069
L53398 78263
L53471 78263
L53520 78288
L53544 78312
L53569 78361
L53569 78483
L53544 78532
L53520 78556
L53471 78580
L53325 78580
L53276 78556
L53252 78532
" />
</g>
<g style="fill:#000000; fill-opacity:0.0; 
stroke:#000000; stroke-width:39.3701; stroke-opacity:1; 
stroke-linecap:round; stroke-linejoin:round;">
</g>
<g style="fill:#000000; fill-opacity:0.0; 
stroke:#000000; stroke-width:59.0551; stroke-opacity:1; 
stroke-linecap:round; stroke-linejoin:round;">
<path d="M73205 78239
L73205 78580
" />
<path d="M73083 78044
L72961 78410
L73278 78410
" />
</g>
<g style="fill:#000000; fill-opacity:0.0; 
stroke:#000000; stroke-width:39.3701; stroke-opacity:1; 
stroke-linecap:round; stroke-linejoin:round;">
</g>
<g style="fill:#000000; fill-opacity:0.0; 
stroke:#000000; stroke-width:59.0551; stroke-opacity:1; 
stroke-linecap:round; stroke-linejoin:round;">
<path d="M92914 78069
L92671 78069
L92646 78312
L92671 78288
L92719 78263
L92841 78263
L92890 78288
L92914 78312
L92939 78361
L92939 78483
L92914 78532
L92890 78556
L92841 78580
L92719 78580
L92671 78556
L92646 78532
" />
</g>
<g style="fill:#000000; fill-opacity:0.0; 
stroke:#000000; stroke-width:39.3701; stroke-opacity:1; 
stroke-linecap:round; stroke-linejoin:round;">
</g>
<g style="fill:#000000; fill-opacity:0.0; 
stroke:#000000; stroke-width:59.0551; stroke-opacity:1; 
stroke-linecap:round; stroke-linejoin:round;">
<path d="M112575 78069
L112477 78069
L112429 78093
L112404 78117
L112356 78190
L112331 78288
L112331 78483
L112356 78532
L112380 78556
L112429 78580
L112526 78580
L112575 78556
L112599 78532
L112624 78483
L112624 78361
L112599 78312
L112575 78288
L112526 78263
L112429 78263
L112380 78288
L112356 78312
L112331 78361
" />
</g>
<g style="fill:#000000; fill-opacity:0.0; 
stroke:#000000; stroke-width:39.3701; stroke-opacity:1; 
stroke-linecap:round; stroke-linejoin:round;">
</g>
<g style="fill:#000000; fill-opacity:0.0; 
stroke:#000000; stroke-width:59.0551; stroke-opacity:1; 
stroke-linecap:round; stroke-linejoin:round;">
<path d="M3937 23622
L4724 23622
" />
</g>
<g style="fill:#000000; fill-opacity:0.0; 
stroke:#000000; stroke-width:39.3701; stroke-opacity:1; 
stroke-linecap:round; stroke-linejoin:round;">
</g>
<g style="fill:#000000; fill-opacity:0.0; 
stroke:#000000; stroke-width:59.0551; stroke-opacity:1; 
stroke-linecap:round; stroke-linejoin:round;">
<path d="M3937 43307
L4724 43307
" />
</g>
<g style="fill:#000000; fill-opacity:0.0; 
stroke:#000000; stroke-width:39.3701; stroke-opacity:1; 
stroke-linecap:round; stroke-linejoin:round;">
</g>
<g style="fill:#000000; fill-opacity:0.0; 
stroke:#000000; stroke-width:59.0551; stroke-opacity:1; 
stroke-linecap:round; stroke-linejoin:round;">
<path d="M3937 62992
L4724 62992
" />
</g>
<g style="fill:#000000; fill-opacity:0.0; 
stroke:#000000; stroke-width:39.3701; stroke-opacity:1; 
stroke-linecap:round; stroke-linejoin:round;">
</g>
<g style="fill:#000000; fill-opacity:0.0; 
stroke:#000000; stroke-width:59.0551; stroke-opacity:1; 
stroke-linecap:round; stroke-linejoin:round;">
<path d="M4208 13864
L4452 13864
" />
<path d="M4160 14011
L4330 13499
L4501 14011
" />
</g>
<g style="fill:#000000; fill-opacity:0.0; 
stroke:#000000; stroke-width:39.3701; stroke-opacity:1; 
stroke-linecap:round; stroke-linejoin:round;">
</g>
<g style="fill:#000000; fill-opacity:0.0; 
stroke:#000000; stroke-width:59.0551; stroke-opacity:1; 
stroke-linecap:round; stroke-linejoin:round;">
<path d="M4367 33428
L4440 33452
L4464 33476
L4489 33525
L4489 33598
L4464 33647
L4440 33671
L4391 33696
L4196 33696
L4196 33184
L4367 33184
L4416 33208
L4440 33233
L4464 33281
L4464 33330
L4440 33379
L4416 33403
L4367 33428
L4196 33428
" />
</g>
<g style="fill:#000000; fill-opacity:0.0; 
stroke:#000000; stroke-width:39.3701; stroke-opacity:1; 
stroke-linecap:round; stroke-linejoin:round;">
</g>
<g style="fill:#000000; fill-opacity:0.0; 
stroke:#000000; stroke-width:59.0551; stroke-opacity:1; 
stroke-linecap:round; stroke-linejoin:round;">
<path d="M4489 53332
L4464 53356
L4391 53381
L4342 53381
L4269 53356
L4221 53308
L4196 53259
L4172 53161
L4172 53088
L4196 52991
L4221 52942
L4269 52893
L4342 52869
L4391 52869
L4464 52893
L4489 52918
" />
</g>
<g style="fill:#000000; fill-opacity:0.0; 
stroke:#000000; stroke-width:39.3701; stroke-opacity:1; 
stroke-linecap:round; stroke-linejoin:round;">
</g>
<g style="fill:#000000; fill-opacity:0.0; 
stroke:#000000; stroke-width:59.0551; stroke-opacity:1; 
stroke-linecap:round; stroke-linejoin:round;">
<path d="M4196 73066
L4196 72554
L4318 72554
L4391 72578
L4440 72627
L4464 72676
L4489 72773
L4489 72846
L4464 72944
L4440 72993
L4391 73041
L4318 73066
L4196 73066
" />
</g>
<g style="fill:#000000; fill-opacity:0.0; 
stroke:#000000; stroke-width:39.3701; stroke-opacity:1; 
stroke-linecap:round; stroke-linejoin:round;">
</g>
<g style="fill:#000000; fill-opacity:0.0; 
stroke:#000000; stroke-width:59.0551; stroke-opacity:1; 
stroke-linecap:round; stroke-linejoin:round;">
<path d="M112992 23622
L112205 23622
" />
</g>
<g style="fill:#000000; fill-opacity:0.0; 
stroke:#000000; stroke-width:39.3701; stroke-opacity:1; 
stroke-linecap:round; stroke-linejoin:round;">
</g>
<g style="fill:#000000; fill-opacity:0.0; 
stroke:#000000; stroke-width:59.0551; stroke-opacity:1; 
stroke-linecap:round; stroke-linejoin:round;">
<path d="M112992 43307
L112205 43307
" />
</g>
<g style="fill:#000000; fill-opacity:0.0; 
stroke:#000000; stroke-width:39.3701; stroke-opacity:1; 
stroke-linecap:round; stroke-linejoin:round;">
</g>
<g style="fill:#000000; fill-opacity:0.0; 
stroke:#000000; stroke-width:59.0551; stroke-opacity:1; 
stroke-linecap:round; stroke-linejoin:round;">
<path d="M112992 62992
L112205 62992
" />
</g>
<g style="fill:#000000; fill-opacity:0.0; 
stroke:#000000; stroke-width:39.3701; stroke-opacity:1; 
stroke-linecap:round; stroke-linejoin:round;">
</g>
<g style="fill:#000000; fill-opacity:0.0; 
stroke:#000000; stroke-width:59.0551; stroke-opacity:1; 
stroke-linecap:round; stroke-linejoin:round;">
<path d="M112477 13864
L112721 13864
" />
<path d="M112428 14011
L112599 13499
L112769 14011
" />
</g>
<g style="fill:#000000; fill-opacity:0.0; 
stroke:#000000; stroke-width:39.3701; stroke-opacity:1; 
stroke-linecap:round; stroke-linejoin:round;">
</g>
<g style="fill:#000000; fill-opacity:0.0; 
stroke:#000000; stroke-width:59.0551; stroke-opacity:1; 
stroke-linecap:round; stroke-linejoin:round;">
<path d="M112635 33428
L112708 33452
L112733 33476
L112757 33525
L112757 33598
L112733 33647
L112708 33671
L112660 33696
L112465 33696
L112465 33184
L112635 33184
L112684 33208
L112708 33233
L112733 33281
L112733 33330
L112708 33379
L112684 33403
L112635 33428
L112465 33428
" />
</g>
<g style="fill:#000000; fill-opacity:0.0; 
stroke:#000000; stroke-width:39.3701; stroke-opacity:1; 
stroke-linecap:round; stroke-linejoin:round;">
</g>
<g style="fill:#000000; fill-opacity:0.0; 
stroke:#000000; stroke-width:59.0551; stroke-opacity:1; 
stroke-linecap:round; stroke-linejoin:round;">
<path d="M112757 53332
L112733 53356
L112660 53381
L112611 53381
L112538 53356
L112489 53308
L112465 53259
L112440 53161
L112440 53088
L112465 52991
L112489 52942
L112538 52893
L112611 52869
L112660 52869
L112733 52893
L112757 52918
" />
</g>
<g style="fill:#000000; fill-opacity:0.0; 
stroke:#000000; stroke-width:39.3701; stroke-opacity:1; 
stroke-linecap:round; stroke-linejoin:round;">
</g>
<g style="fill:#000000; fill-opacity:0.0; 
stroke:#000000; stroke-width:59.0551; stroke-opacity:1; 
stroke-linecap:round; stroke-linejoin:round;">
<path d="M112465 73066
L112465 72554
L112587 72554
L112660 72578
L112708 72627
L112733 72676
L112757 72773
L112757 72846
L112733 72944
L112708 72993
L112660 73041
L112587 73066
L112465 73066
" />
</g>
<g style="fill:#000000; fill-opacity:0.0; 
stroke:#000000; stroke-width:39.3701; stroke-opacity:1; 
stroke-linecap:round; stroke-linejoin:round;">
</g>
<g style="fill:#000000; fill-opacity:0.0; 
stroke:#000000; stroke-width:59.0551; stroke-opacity:1; 
stroke-linecap:round; stroke-linejoin:round;">
<path d="M99678 77671
L99678 77080
L99819 77080
L99903 77109
L99960 77165
L99988 77221
L100016 77334
L100016 77418
L99988 77530
L99960 77587
L99903 77643
L99819 77671
L99678 77671
" />
<path d="M100522 77671
L100522 77362
L100494 77305
L100438 77277
L100325 77277
L100269 77305
" />
<path d="M100522 77643
L100466 77671
L100325 77671
L100269 77643
L100241 77587
L100241 77530
L100269 77474
L100325 77446
L100466 77446
L100522 77418
" />
<path d="M100719 77277
L100944 77277
" />
<path d="M100803 77080
L100803 77587
L100831 77643
L100888 77671
L100944 77671
" />
<path d="M101366 77643
L101309 77671
L101197 77671
L101141 77643
L101112 77587
L101112 77362
L101141 77305
L101197 77277
L101309 77277
L101366 77305
L101394 77362
L101394 77418
L101112 77474
" />
<path d="M101647 77615
L101675 77643
L101647 77671
L101619 77643
L101647 77615
L101647 77671
" />
<path d="M101647 77305
L101675 77334
L101647 77362
L101619 77334
L101647 77305
L101647 77362
" />
</g>
<g style="fill:#000000; fill-opacity:0.0; 
stroke:#000000; stroke-width:39.3701; stroke-opacity:1; 
stroke-linecap:round; stroke-linejoin:round;">
</g>
<g style="fill:#000000; fill-opacity:0.0; 
stroke:#000000; stroke-width:59.0551; stroke-opacity:1; 
stroke-linecap:round; stroke-linejoin:round;">
<path d="M69685 76774
L112205 76774
" />
</g>
<g style="fill:#000000; fill-opacity:0.0; 
stroke:#000000; stroke-width:39.3701; stroke-opacity:1; 
stroke-linecap:round; stroke-linejoin:round;">
</g>
<g style="fill:#000000; fill-opacity:0.0; 
stroke:#000000; stroke-width:59.0551; stroke-opacity:1; 
stroke-linecap:round; stroke-linejoin:round;">
<path d="M70249 77691
L70249 77100
" />
<path d="M70587 77691
L70334 77353
" />
<path d="M70587 77100
L70249 77438
" />
<path d="M70840 77691
L70840 77297
" />
<path d="M70840 77100
L70812 77128
L70840 77156
L70868 77128
L70840 77100
L70840 77156
" />
<path d="M71458 77634
L71430 77663
L71346 77691
L71290 77691
L71205 77663
L71149 77606
L71121 77550
L71093 77438
L71093 77353
L71121 77241
L71149 77184
L71205 77128
L71290 77100
L71346 77100
L71430 77128
L71458 77156
" />
<path d="M71965 77691
L71965 77381
L71936 77325
L71880 77297
L71768 77297
L71711 77325
" />
<path d="M71965 77663
L71908 77691
L71768 77691
L71711 77663
L71683 77606
L71683 77550
L71711 77494
L71768 77466
L71908 77466
L71965 77438
" />
<path d="M72499 77691
L72499 77100
" />
<path d="M72499 77663
L72443 77691
L72330 77691
L72274 77663
L72246 77634
L72218 77578
L72218 77409
L72246 77353
L72274 77325
L72330 77297
L72443 77297
L72499 77325
" />
<path d="M73230 77381
L73427 77381
" />
<path d="M73511 77691
L73230 77691
L73230 77100
L73511 77100
" />
<path d="M73764 77634
L73792 77663
L73764 77691
L73736 77663
L73764 77634
L73764 77691
" />
<path d="M74046 77691
L74046 77100
L74186 77100
L74271 77128
L74327 77184
L74355 77241
L74383 77353
L74383 77438
L74355 77550
L74327 77606
L74271 77663
L74186 77691
L74046 77691
" />
<path d="M74636 77634
L74664 77663
L74636 77691
L74608 77663
L74636 77634
L74636 77691
" />
<path d="M74889 77522
L75170 77522
" />
<path d="M74833 77691
L75030 77100
L75227 77691
" />
<path d="M75424 77634
L75452 77663
L75424 77691
L75395 77663
L75424 77634
L75424 77691
" />
<path d="M76605 77691
L76605 77100
" />
<path d="M76661 77466
L76830 77691
" />
<path d="M76830 77297
L76605 77522
" />
<path d="M77083 77691
L77083 77297
" />
<path d="M77083 77100
L77055 77128
L77083 77156
L77111 77128
L77083 77100
L77083 77156
" />
<path d="M77617 77663
L77561 77691
L77448 77691
L77392 77663
L77364 77634
L77336 77578
L77336 77409
L77364 77353
L77392 77325
L77448 77297
L77561 77297
L77617 77325
" />
<path d="M78123 77691
L78123 77381
L78095 77325
L78039 77297
L77926 77297
L77870 77325
" />
<path d="M78123 77663
L78067 77691
L77926 77691
L77870 77663
L77842 77606
L77842 77550
L77870 77494
L77926 77466
L78067 77466
L78123 77438
" />
<path d="M78657 77691
L78657 77100
" />
<path d="M78657 77663
L78601 77691
L78489 77691
L78433 77663
L78404 77634
L78376 77578
L78376 77409
L78404 77353
L78433 77325
L78489 77297
L78601 77297
L78657 77325
" />
<path d="M79670 77100
L79389 77100
L79361 77381
L79389 77353
L79445 77325
L79585 77325
L79642 77353
L79670 77381
L79698 77438
L79698 77578
L79670 77634
L79642 77663
L79585 77691
L79445 77691
L79389 77663
L79361 77634
" />
<path d="M79951 77634
L79979 77663
L79951 77691
L79923 77663
L79951 77634
L79951 77691
" />
<path d="M80345 77100
L80401 77100
L80457 77128
L80485 77156
L80514 77213
L80542 77325
L80542 77466
L80514 77578
L80485 77634
L80457 77663
L80401 77691
L80345 77691
L80289 77663
L80260 77634
L80232 77578
L80204 77466
L80204 77325
L80232 77213
L80260 77156
L80289 77128
L80345 77100
" />
<path d="M80795 77634
L80823 77663
L80795 77691
L80767 77663
L80795 77634
L80795 77691
" />
<path d="M81048 77156
L81076 77128
L81132 77100
L81273 77100
L81329 77128
L81357 77156
L81385 77213
L81385 77269
L81357 77353
L81020 77691
L81385 77691
" />
<path d="M81638 77466
L82088 77466
" />
<path d="M82370 77691
L82370 77100
" />
<path d="M82370 77325
L82426 77297
L82538 77297
L82594 77325
L82623 77353
L82651 77409
L82651 77578
L82623 77634
L82594 77663
L82538 77691
L82426 77691
L82370 77663
" />
<path d="M83129 77663
L83073 77691
L82960 77691
L82904 77663
L82876 77606
L82876 77381
L82904 77325
L82960 77297
L83073 77297
L83129 77325
L83157 77381
L83157 77438
L82876 77494
" />
<path d="M83635 77663
L83579 77691
L83466 77691
L83410 77663
L83382 77606
L83382 77381
L83410 77325
L83466 77297
L83579 77297
L83635 77325
L83663 77381
L83663 77438
L83382 77494
" />
<path d="M83860 77100
L84254 77100
L84001 77691
" />
<path d="M84732 77100
L84619 77100
L84563 77128
L84535 77156
L84479 77241
L84451 77353
L84451 77578
L84479 77634
L84507 77663
L84563 77691
L84675 77691
L84732 77663
L84760 77634
L84788 77578
L84788 77438
L84760 77381
L84732 77353
L84675 77325
L84563 77325
L84507 77353
L84479 77381
L84451 77438
" />
<path d="M85294 77691
L85294 77381
L85266 77325
L85210 77297
L85097 77297
L85041 77325
" />
<path d="M85294 77663
L85238 77691
L85097 77691
L85041 77663
L85013 77606
L85013 77550
L85041 77494
L85097 77466
L85238 77466
L85294 77438
" />
<path d="M85688 77100
L85744 77100
L85800 77128
L85828 77156
L85857 77213
L85885 77325
L85885 77466
L85857 77578
L85828 77634
L85800 77663
L85744 77691
L85688 77691
L85632 77663
L85603 77634
L85575 77578
L85547 77466
L85547 77325
L85575 77213
L85603 77156
L85632 77128
L85688 77100
" />
<path d="M85997 76939
L86560 76939
" />
<path d="M86082 77100
L86475 77100
L86222 77691
" />
<path d="M86560 76939
L87122 76939
" />
<path d="M86813 77100
L86869 77100
L86925 77128
L86953 77156
L86981 77213
L87010 77325
L87010 77466
L86981 77578
L86953 77634
L86925 77663
L86869 77691
L86813 77691
L86756 77663
L86728 77634
L86700 77578
L86672 77466
L86672 77325
L86700 77213
L86728 77156
L86756 77128
L86813 77100
" />
<path d="M87516 77297
L87516 77691
" />
<path d="M87263 77297
L87263 77606
L87291 77663
L87347 77691
L87431 77691
L87488 77663
L87516 77634
" />
<path d="M87797 77691
L87797 77100
" />
<path d="M87797 77325
L87853 77297
L87966 77297
L88022 77325
L88050 77353
L88078 77409
L88078 77578
L88050 77634
L88022 77663
L87966 77691
L87853 77691
L87797 77663
" />
<path d="M88584 77297
L88584 77691
" />
<path d="M88331 77297
L88331 77606
L88359 77663
L88416 77691
L88500 77691
L88556 77663
L88584 77634
" />
<path d="M88866 77297
L88866 77691
" />
<path d="M88866 77353
L88894 77325
L88950 77297
L89034 77297
L89091 77325
L89119 77381
L89119 77691
" />
<path d="M89316 77297
L89541 77297
" />
<path d="M89400 77100
L89400 77606
L89428 77663
L89484 77691
L89541 77691
" />
<path d="M89990 77297
L89990 77691
" />
<path d="M89737 77297
L89737 77606
L89765 77663
L89822 77691
L89906 77691
L89962 77663
L89990 77634
" />
<path d="M90581 77691
L90244 77691
" />
<path d="M90412 77691
L90412 77100
L90356 77184
L90300 77241
L90244 77269
" />
<path d="M90918 77353
L90862 77325
L90834 77297
L90806 77241
L90806 77213
L90834 77156
L90862 77128
L90918 77100
L91031 77100
L91087 77128
L91115 77156
L91143 77213
L91143 77241
L91115 77297
L91087 77325
L91031 77353
L90918 77353
L90862 77381
L90834 77409
L90806 77466
L90806 77578
L90834 77634
L90862 77663
L90918 77691
L91031 77691
L91087 77663
L91115 77634
L91143 77578
L91143 77466
L91115 77409
L91087 77381
L91031 77353
" />
<path d="M91397 77634
L91425 77663
L91397 77691
L91368 77663
L91397 77634
L91397 77691
" />
<path d="M91790 77100
L91846 77100
L91903 77128
L91931 77156
L91959 77213
L91987 77325
L91987 77466
L91959 77578
L91931 77634
L91903 77663
L91846 77691
L91790 77691
L91734 77663
L91706 77634
L91678 77578
L91650 77466
L91650 77325
L91678 77213
L91706 77156
L91734 77128
L91790 77100
" />
<path d="M92493 77297
L92493 77691
" />
<path d="M92353 77072
L92212 77494
L92578 77494
" />
<path d="M92803 77634
L92831 77663
L92803 77691
L92774 77663
L92803 77634
L92803 77691
" />
<path d="M93393 77691
L93056 77691
" />
<path d="M93224 77691
L93224 77100
L93168 77184
L93112 77241
L93056 77269
" />
</g>
<g style="fill:#000000; fill-opacity:0.0; 
stroke:#000000; stroke-width:39.3701; stroke-opacity:1; 
stroke-linecap:round; stroke-linejoin:round;">
</g>
<g style="fill:#000000; fill-opacity:0.0; 
stroke:#000000; stroke-width:59.0551; stroke-opacity:1; 
stroke-linecap:round; stroke-linejoin:round;">
<path d="M69685 75593
L112205 75593
" />
</g>
<g style="fill:#000000; fill-opacity:0.0; 
stroke:#000000; stroke-width:39.3701; stroke-opacity:1; 
stroke-linecap:round; stroke-linejoin:round;">
</g>
<g style="fill:#000000; fill-opacity:0.0; 
stroke:#000000; stroke-width:118.11; stroke-opacity:1; 
stroke-linecap:round; stroke-linejoin:round;">
<path d="M99803 74985
L99884 75014
L100024 75014
L100084 74985
L100116 74957
L100151 74901
L100158 74845
L100137 74789
L100112 74760
L100060 74732
L99951 74704
L99898 74676
L99873 74648
L99852 74592
L99859 74536
L99894 74479
L99926 74451
L99986 74423
L100126 74423
L100207 74451
" />
<path d="M100390 75014
L100439 74620
" />
<path d="M100464 74423
L100432 74451
L100457 74479
L100488 74451
L100464 74423
L100457 74479
" />
<path d="M100664 74620
L100974 74620
L100615 75014
L100924 75014
" />
<path d="M101378 74985
L101318 75014
L101206 75014
L101153 74985
L101132 74929
L101160 74704
L101195 74648
L101255 74620
L101367 74620
L101420 74648
L101441 74704
L101434 74760
L101146 74817
" />
<path d="M101662 74957
L101687 74985
L101655 75014
L101631 74985
L101662 74957
L101655 75014
" />
<path d="M101701 74648
L101726 74676
L101694 74704
L101670 74676
L101701 74648
L101694 74704
" />
<path d="M102380 74845
L102661 74845
" />
<path d="M102302 75014
L102573 74423
L102696 75014
" />
<path d="M103195 74620
L103146 75014
" />
<path d="M103083 74395
L102889 74817
L103255 74817
" />
</g>
<g style="fill:#000000; fill-opacity:0.0; 
stroke:#000000; stroke-width:39.3701; stroke-opacity:1; 
stroke-linecap:round; stroke-linejoin:round;">
</g>
<g style="fill:#000000; fill-opacity:0.0; 
stroke:#000000; stroke-width:59.0551; stroke-opacity:1; 
stroke-linecap:round; stroke-linejoin:round;">
<path d="M99678 76510
L99678 75919
" />
<path d="M100213 76510
L100213 75919
" />
<path d="M100213 76481
L100156 76510
L100044 76510
L99988 76481
L99960 76453
L99931 76397
L99931 76228
L99960 76172
L99988 76144
L100044 76116
L100156 76116
L100213 76144
" />
<path d="M100494 76453
L100522 76481
L100494 76510
L100466 76481
L100494 76453
L100494 76510
" />
<path d="M100494 76144
L100522 76172
L100494 76200
L100466 76172
L100494 76144
L100494 76200
" />
<path d="M101534 76510
L101197 76510
" />
<path d="M101366 76510
L101366 75919
L101309 76003
L101253 76060
L101197 76088
" />
<path d="M102209 75891
L101703 76650
" />
<path d="M102715 76510
L102378 76510
" />
<path d="M102547 76510
L102547 75919
L102490 76003
L102434 76060
L102378 76088
" />
</g>
<g style="fill:#000000; fill-opacity:0.0; 
stroke:#000000; stroke-width:39.3701; stroke-opacity:1; 
stroke-linecap:round; stroke-linejoin:round;">
</g>
<g style="fill:#000000; fill-opacity:0.0; 
stroke:#000000; stroke-width:59.0551; stroke-opacity:1; 
stroke-linecap:round; stroke-linejoin:round;">
<path d="M69685 73723
L112205 73723
" />
</g>
<g style="fill:#000000; fill-opacity:0.0; 
stroke:#000000; stroke-width:39.3701; stroke-opacity:1; 
stroke-linecap:round; stroke-linejoin:round;">
</g>
<g style="fill:#000000; fill-opacity:0.0; 
stroke:#000000; stroke-width:157.48; stroke-opacity:1; 
stroke-linecap:round; stroke-linejoin:round;">
<path d="M70359 72229
L70809 72229
" />
<path d="M70486 73016
L70584 72229
" />
<path d="M70973 73016
L71039 72491
" />
<path d="M71072 72229
L71030 72266
L71063 72304
L71105 72266
L71072 72229
L71063 72304
" />
<path d="M71302 72491
L71602 72491
" />
<path d="M71447 72229
L71362 72903
L71391 72978
L71461 73016
L71536 73016
" />
<path d="M71911 73016
L71841 72978
L71812 72903
L71897 72229
" />
<path d="M72515 72978
L72436 73016
L72286 73016
L72216 72978
L72187 72903
L72225 72603
L72272 72529
L72351 72491
L72501 72491
L72572 72529
L72600 72603
L72590 72678
L72206 72753
" />
<path d="M72895 72941
L72928 72978
L72886 73016
L72853 72978
L72895 72941
L72886 73016
" />
<path d="M72947 72529
L72979 72566
L72937 72603
L72904 72566
L72947 72529
L72937 72603
" />
<path d="M73851 72791
L74226 72791
" />
<path d="M73748 73016
L74109 72229
L74273 73016
" />
<path d="M74939 72491
L74873 73016
" />
<path d="M74601 72491
L74550 72903
L74578 72978
L74648 73016
L74761 73016
L74840 72978
L74882 72941
" />
<path d="M75201 72491
L75501 72491
" />
<path d="M75346 72229
L75262 72903
L75290 72978
L75360 73016
L75435 73016
" />
<path d="M75810 73016
L75740 72978
L75707 72941
L75679 72866
L75707 72641
L75754 72566
L75796 72529
L75876 72491
L75988 72491
L76059 72529
L76092 72566
L76120 72641
L76092 72866
L76045 72941
L76003 72978
L75923 73016
L75810 73016
" />
<path d="M76377 72978
L76448 73016
L76598 73016
L76677 72978
L76724 72903
L76729 72866
L76701 72791
L76631 72753
L76518 72753
L76448 72716
L76420 72641
L76424 72603
L76471 72529
L76551 72491
L76663 72491
L76734 72529
" />
<path d="M77390 72978
L77310 73016
L77160 73016
L77090 72978
L77057 72941
L77029 72866
L77057 72641
L77104 72566
L77146 72529
L77226 72491
L77376 72491
L77446 72529
" />
<path d="M77835 73016
L77765 72978
L77732 72941
L77704 72866
L77732 72641
L77779 72566
L77821 72529
L77901 72491
L78013 72491
L78084 72529
L78116 72566
L78144 72641
L78116 72866
L78069 72941
L78027 72978
L77948 73016
L77835 73016
" />
<path d="M78501 72491
L78402 73278
" />
<path d="M78496 72529
L78576 72491
L78726 72491
L78796 72529
L78829 72566
L78857 72641
L78829 72866
L78782 72941
L78740 72978
L78660 73016
L78510 73016
L78440 72978
" />
<path d="M79452 72978
L79372 73016
L79222 73016
L79152 72978
L79124 72903
L79162 72603
L79208 72529
L79288 72491
L79438 72491
L79508 72529
L79536 72603
L79527 72678
L79143 72753
" />
</g>
<g style="fill:#000000; fill-opacity:0.0; 
stroke:#000000; stroke-width:39.3701; stroke-opacity:1; 
stroke-linecap:round; stroke-linejoin:round;">
</g>
<g style="fill:#000000; fill-opacity:0.0; 
stroke:#000000; stroke-width:59.0551; stroke-opacity:1; 
stroke-linecap:round; stroke-linejoin:round;">
<path d="M70446 76121
L70249 76121
" />
<path d="M70249 76431
L70249 75840
L70530 75840
" />
<path d="M70755 76431
L70755 76037
" />
<path d="M70755 75840
L70727 75868
L70755 75897
L70783 75868
L70755 75840
L70755 75897
" />
<path d="M71121 76431
L71065 76403
L71037 76346
L71037 75840
" />
<path d="M71571 76403
L71515 76431
L71402 76431
L71346 76403
L71318 76346
L71318 76121
L71346 76065
L71402 76037
L71515 76037
L71571 76065
L71599 76121
L71599 76178
L71318 76234
" />
<path d="M71852 76375
L71880 76403
L71852 76431
L71824 76403
L71852 76375
L71852 76431
" />
<path d="M71852 76065
L71880 76093
L71852 76121
L71824 76093
L71852 76065
L71852 76121
" />
<path d="M72555 76262
L72836 76262
" />
<path d="M72499 76431
L72696 75840
L72893 76431
" />
<path d="M73343 76037
L73343 76431
" />
<path d="M73089 76037
L73089 76346
L73118 76403
L73174 76431
L73258 76431
L73314 76403
L73343 76375
" />
<path d="M73539 76037
L73764 76037
" />
<path d="M73624 75840
L73624 76346
L73652 76403
L73708 76431
L73764 76431
" />
<path d="M74046 76431
L73989 76403
L73961 76375
L73933 76318
L73933 76150
L73961 76093
L73989 76065
L74046 76037
L74130 76037
L74186 76065
L74214 76093
L74242 76150
L74242 76318
L74214 76375
L74186 76403
L74130 76431
L74046 76431
" />
<path d="M74467 76403
L74524 76431
L74636 76431
L74692 76403
L74720 76346
L74720 76318
L74692 76262
L74636 76234
L74552 76234
L74496 76206
L74467 76150
L74467 76121
L74496 76065
L74552 76037
L74636 76037
L74692 76065
" />
<path d="M75227 76403
L75170 76431
L75058 76431
L75002 76403
L74974 76375
L74945 76318
L74945 76150
L74974 76093
L75002 76065
L75058 76037
L75170 76037
L75227 76065
" />
<path d="M75564 76431
L75508 76403
L75480 76375
L75452 76318
L75452 76150
L75480 76093
L75508 76065
L75564 76037
L75648 76037
L75705 76065
L75733 76093
L75761 76150
L75761 76318
L75733 76375
L75705 76403
L75648 76431
L75564 76431
" />
<path d="M76014 76037
L76014 76628
" />
<path d="M76014 76065
L76070 76037
L76183 76037
L76239 76065
L76267 76093
L76295 76150
L76295 76318
L76267 76375
L76239 76403
L76183 76431
L76070 76431
L76014 76403
" />
<path d="M76773 76403
L76717 76431
L76605 76431
L76548 76403
L76520 76346
L76520 76121
L76548 76065
L76605 76037
L76717 76037
L76773 76065
L76801 76121
L76801 76178
L76520 76234
" />
<path d="M77055 76375
L77083 76403
L77055 76431
L77026 76403
L77055 76375
L77055 76431
" />
<path d="M77336 76431
L77336 75840
" />
<path d="M77392 76206
L77561 76431
" />
<path d="M77561 76037
L77336 76262
" />
<path d="M77814 76431
L77814 76037
" />
<path d="M77814 75840
L77786 75868
L77814 75897
L77842 75868
L77814 75840
L77814 75897
" />
<path d="M78348 76403
L78292 76431
L78179 76431
L78123 76403
L78095 76375
L78067 76318
L78067 76150
L78095 76093
L78123 76065
L78179 76037
L78292 76037
L78348 76065
" />
<path d="M78854 76431
L78854 76121
L78826 76065
L78770 76037
L78657 76037
L78601 76065
" />
<path d="M78854 76403
L78798 76431
L78657 76431
L78601 76403
L78573 76346
L78573 76290
L78601 76234
L78657 76206
L78798 76206
L78854 76178
" />
<path d="M79389 76431
L79389 75840
" />
<path d="M79389 76403
L79332 76431
L79220 76431
L79164 76403
L79136 76375
L79107 76318
L79107 76150
L79136 76093
L79164 76065
L79220 76037
L79332 76037
L79389 76065
" />
<path d="M79529 76487
L79979 76487
" />
<path d="M80120 76037
L80120 76628
" />
<path d="M80120 76065
L80176 76037
L80289 76037
L80345 76065
L80373 76093
L80401 76150
L80401 76318
L80373 76375
L80345 76403
L80289 76431
L80176 76431
L80120 76403
" />
<path d="M80907 76403
L80851 76431
L80738 76431
L80682 76403
L80654 76375
L80626 76318
L80626 76150
L80654 76093
L80682 76065
L80738 76037
L80851 76037
L80907 76065
" />
<path d="M81160 76431
L81160 75840
" />
<path d="M81160 76065
L81217 76037
L81329 76037
L81385 76065
L81413 76093
L81442 76150
L81442 76318
L81413 76375
L81385 76403
L81329 76431
L81217 76431
L81160 76403
" />
</g>
<g style="fill:#000000; fill-opacity:0.0; 
stroke:#000000; stroke-width:39.3701; stroke-opacity:1; 
stroke-linecap:round; stroke-linejoin:round;">
</g>
<g style="fill:#000000; fill-opacity:0.0; 
stroke:#000000; stroke-width:59.0551; stroke-opacity:1; 
stroke-linecap:round; stroke-linejoin:round;">
<path d="M69685 71459
L112205 71459
" />
</g>
<g style="fill:#000000; fill-opacity:0.0; 
stroke:#000000; stroke-width:39.3701; stroke-opacity:1; 
stroke-linecap:round; stroke-linejoin:round;">
</g>
<g style="fill:#000000; fill-opacity:0.0; 
stroke:#000000; stroke-width:118.11; stroke-opacity:1; 
stroke-linecap:round; stroke-linejoin:round;">
<path d="M70391 74803
L70672 74803
" />
<path d="M70313 74971
L70584 74381
L70707 74971
" />
<path d="M71206 74578
L71157 74971
" />
<path d="M70953 74578
L70914 74887
L70935 74943
L70988 74971
L71072 74971
L71132 74943
L71164 74915
" />
<path d="M71403 74578
L71628 74578
" />
<path d="M71512 74381
L71449 74887
L71470 74943
L71522 74971
L71579 74971
" />
<path d="M71776 74971
L71849 74381
" />
<path d="M72029 74971
L72067 74662
L72046 74606
L71993 74578
L71909 74578
L71849 74606
L71818 74634
" />
<path d="M72394 74971
L72341 74943
L72317 74915
L72296 74859
L72317 74690
L72352 74634
L72384 74606
L72443 74578
L72528 74578
L72580 74606
L72605 74634
L72626 74690
L72605 74859
L72570 74915
L72538 74943
L72479 74971
L72394 74971
" />
<path d="M72844 74971
L72893 74578
" />
<path d="M72879 74690
L72914 74634
L72946 74606
L73006 74578
L73062 74578
" />
<path d="M73217 74915
L73241 74943
L73210 74971
L73185 74943
L73217 74915
L73210 74971
" />
<path d="M73255 74606
L73280 74634
L73248 74662
L73224 74634
L73255 74606
L73248 74662
" />
<path d="M73930 74381
L74268 74381
" />
<path d="M74025 74971
L74099 74381
" />
<path d="M74391 74971
L74465 74381
" />
<path d="M74644 74971
L74683 74662
L74661 74606
L74609 74578
L74524 74578
L74465 74606
L74433 74634
" />
<path d="M75009 74971
L74957 74943
L74932 74915
L74911 74859
L74932 74690
L74967 74634
L74999 74606
L75059 74578
L75143 74578
L75196 74606
L75220 74634
L75241 74690
L75220 74859
L75185 74915
L75154 74943
L75094 74971
L75009 74971
" />
<path d="M75459 74971
L75509 74578
" />
<path d="M75502 74634
L75533 74606
L75593 74578
L75677 74578
L75730 74606
L75751 74662
L75713 74971
" />
<path d="M75751 74662
L75786 74606
L75846 74578
L75930 74578
L75983 74606
L76004 74662
L75966 74971
" />
<path d="M76500 74971
L76539 74662
L76517 74606
L76465 74578
L76352 74578
L76293 74606
" />
<path d="M76503 74943
L76444 74971
L76303 74971
L76250 74943
L76229 74887
L76236 74831
L76271 74775
L76331 74746
L76472 74746
L76532 74718
" />
<path d="M76757 74943
L76809 74971
L76922 74971
L76982 74943
L77017 74887
L77020 74859
L76999 74803
L76946 74775
L76862 74775
L76809 74746
L76788 74690
L76792 74662
L76827 74606
L76887 74578
L76971 74578
L77024 74606
" />
<path d="M77990 74971
L77709 74971
L77783 74381
" />
<path d="M78226 74662
L78423 74662
" />
<path d="M78468 74971
L78187 74971
L78261 74381
L78542 74381
" />
<path d="M78722 74971
L78795 74381
L79020 74381
L79073 74409
L79098 74437
L79119 74493
L79108 74578
L79073 74634
L79041 74662
L78982 74690
L78757 74690
" />
<path d="M79498 74381
L79611 74381
L79664 74409
L79713 74465
L79727 74578
L79702 74775
L79660 74887
L79597 74943
L79537 74971
L79425 74971
L79372 74943
L79323 74887
L79309 74775
L79333 74578
L79375 74465
L79439 74409
L79498 74381
" />
<path d="M79931 74971
L80005 74381
" />
<path d="M80230 74381
L80549 74971
" />
<path d="M80623 74381
L80156 74971
" />
</g>
<g style="fill:#000000; fill-opacity:0.0; 
stroke:#000000; stroke-width:39.3701; stroke-opacity:1; 
stroke-linecap:round; stroke-linejoin:round;">
</g>
<g style="fill:#000000; fill-opacity:0.0; 
stroke:#000000; stroke-width:59.0551; stroke-opacity:1; 
stroke-linecap:round; stroke-linejoin:round;">
<path d="M99016 77955
L99016 73723
" />
</g>
<g style="fill:#000000; fill-opacity:0.0; 
stroke:#000000; stroke-width:39.3701; stroke-opacity:1; 
stroke-linecap:round; stroke-linejoin:round;">
<rect x="69887.1" y="65578.9" width="32666.7" height="5850" rx="0" />
</g>
<g style="fill:#000084; fill-opacity:0.0; 
stroke:#000084; stroke-width:-0.000393701; stroke-opacity:1; 
stroke-linecap:round; stroke-linejoin:round;">
</g>
<g style="fill:#000084; fill-opacity:0.0; 
stroke:#000084; stroke-width:39.3701; stroke-opacity:1; 
stroke-linecap:round; stroke-linejoin:round;">
<path d="M59489 38001
L59489 38789
" />
<path d="M59016 38001
L59489 38001
" />
<path d="M59016 38789
L59016 38001
" />
<path d="M59489 38789
L59016 38789
" />
<path d="M60473 38789
L60000 38789
" />
<path d="M60000 38789
L60000 38001
" />
<path d="M60000 38001
L60473 38001
" />
<path d="M60473 38001
L60473 38789
" />
<path d="M61457 38789
L60985 38789
" />
<path d="M60985 38789
L60985 38001
" />
<path d="M60985 38001
L61457 38001
" />
<path d="M61457 38001
L61457 38789
" />
<path d="M62441 38001
L62441 38789
" />
<path d="M61969 38001
L62441 38001
" />
<path d="M61969 38789
L61969 38001
" />
<path d="M62441 38789
L61969 38789
" />
<path d="M63426 38001
L63426 38789
" />
<path d="M62953 38001
L63426 38001
" />
<path d="M62953 38789
L62953 38001
" />
<path d="M63426 38789
L62953 38789
" />
<path d="M55158 36427
L54685 36427
" />
<path d="M54685 36427
L54685 35639
" />
<path d="M54685 35639
L55158 35639
" />
<path d="M55158 35639
L55158 36427
" />
<path d="M55158 30915
L54685 30915
" />
<path d="M54685 30915
L54685 30127
" />
<path d="M54685 30127
L55158 30127
" />
<path d="M55158 30127
L55158 30915
" />
<path d="M84833 24251
L84046 24251
" />
<path d="M84833 23779
L84833 24251
" />
<path d="M84046 23779
L84833 23779
" />
<path d="M84046 24251
L84046 23779
" />
<path d="M84065 32322
L84065 31850
" />
<path d="M84065 31850
L84853 31850
" />
<path d="M84853 31850
L84853 32322
" />
<path d="M84853 32322
L84065 32322
" />
<path d="M84853 40393
L84065 40393
" />
<path d="M84853 39921
L84853 40393
" />
<path d="M84065 39921
L84853 39921
" />
<path d="M84065 40393
L84065 39921
" />
<path d="M70729 30157
L67933 30157
" />
<path d="M67933 30157
L67933 27716
" />
<path d="M70729 27716
L70729 30157
" />
<path d="M70729 27716
L67933 27716
" />
<path d="M69075 28937
L68720 28937
" />
<path d="M69528 28937
L69921 28937
" />
<path d="M69075 28622
L69075 29252
" />
<path d="M69528 29232
L69528 28622
" />
<path d="M69075 28937
L69528 29232
" />
<path d="M69075 28937
L69528 28622
" />
<path d="M69075 31693
L69528 31378
" />
<path d="M69075 31693
L69528 31988
" />
<path d="M69528 31988
L69528 31378
" />
<path d="M69075 31378
L69075 32008
" />
<path d="M69528 31693
L69921 31693
" />
<path d="M69075 31693
L68720 31693
" />
<path d="M70729 30472
L67933 30472
" />
<path d="M70729 30472
L70729 32913
" />
<path d="M67933 32913
L67933 30472
" />
<path d="M70729 32913
L67933 32913
" />
<path d="M56063 21643
L56536 21643
" />
<path d="M56536 21643
L56536 22431
" />
<path d="M56536 22431
L56063 22431
" />
<path d="M56063 22431
L56063 21643
" />
<path d="M58622 21643
L59095 21643
" />
<path d="M59095 21643
L59095 22431
" />
<path d="M59095 22431
L58622 22431
" />
<path d="M58622 22431
L58622 21643
" />
<path d="M61181 22431
L61181 21643
" />
<path d="M61654 22431
L61181 22431
" />
<path d="M61654 21643
L61654 22431
" />
<path d="M61181 21643
L61654 21643
" />
<path d="M63741 21643
L64213 21643
" />
<path d="M64213 21643
L64213 22431
" />
<path d="M64213 22431
L63741 22431
" />
<path d="M63741 22431
L63741 21643
" />
<path d="M66300 22431
L66300 21643
" />
<path d="M66772 22431
L66300 22431
" />
<path d="M66772 21643
L66772 22431
" />
<path d="M66300 21643
L66772 21643
" />
<path d="M79115 25826
L76634 25826
" />
<path d="M76634 25826
L76241 26220
" />
<path d="M76241 26220
L76241 27519
" />
<path d="M76241 27519
L79115 27519
" />
<path d="M79115 27519
L79115 25826
" />
<path d="M79075 30649
L76595 30649
" />
<path d="M76595 30649
L76201 31043
" />
<path d="M76201 31043
L76201 32342
" />
<path d="M76201 32342
L79075 32342
" />
<path d="M79075 32342
L79075 30649
" />
<path d="M79075 39035
L79075 37342
" />
<path d="M76201 39035
L79075 39035
" />
<path d="M76201 37736
L76201 39035
" />
<path d="M76595 37342
L76201 37736
" />
<path d="M79075 37342
L76595 37342
" />
<path d="M74764 41354
L54764 41354
" />
<path d="M74764 39354
L74764 41354
" />
<path d="M55158 39354
L74764 39354
" />
<path d="M54764 39748
L55158 39354
" />
<path d="M54764 41354
L54764 39748
" />
<path d="M69918 23188
L72398 23188
" />
<path d="M72398 23188
L72792 22795
" />
<path d="M72792 22795
L72792 21496
" />
<path d="M72792 21496
L69918 21496
" />
<path d="M69918 21496
L69918 23188
" />
</g>
<g style="fill:#000084; fill-opacity:0.0; 
stroke:#000084; stroke-width:59.0551; stroke-opacity:1; 
stroke-linecap:round; stroke-linejoin:round;">
<path d="M59074 35414
L59074 35189
" />
<path d="M59074 35301
L59468 35301
L59412 35264
L59374 35226
L59355 35189
" />
<path d="M59468 35658
L59468 35695
L59449 35733
L59430 35751
L59393 35770
L59318 35789
L59224 35789
L59149 35770
L59112 35751
L59093 35733
L59074 35695
L59074 35658
L59093 35620
L59112 35601
L59149 35583
L59224 35564
L59318 35564
L59393 35583
L59430 35601
L59449 35620
L59468 35658
" />
<path d="M59468 36032
L59468 36070
L59449 36107
L59430 36126
L59393 36145
L59318 36164
L59224 36164
L59149 36145
L59112 36126
L59093 36107
L59074 36070
L59074 36032
L59093 35995
L59112 35976
L59149 35958
L59224 35939
L59318 35939
L59393 35958
L59430 35976
L59449 35995
L59468 36032
" />
<path d="M59337 36332
L59074 36332
" />
<path d="M59299 36332
L59318 36351
L59337 36389
L59337 36445
L59318 36482
L59280 36501
L59074 36501
" />
<path d="M59280 36820
L59280 36689
" />
<path d="M59074 36689
L59468 36689
L59468 36876
" />
<path d="M60058 35414
L60058 35189
" />
<path d="M60058 35301
L60452 35301
L60396 35264
L60358 35226
L60340 35189
" />
<path d="M60452 35658
L60452 35695
L60433 35733
L60415 35751
L60377 35770
L60302 35789
L60208 35789
L60133 35770
L60096 35751
L60077 35733
L60058 35695
L60058 35658
L60077 35620
L60096 35601
L60133 35583
L60208 35564
L60302 35564
L60377 35583
L60415 35601
L60433 35620
L60452 35658
" />
<path d="M60452 36032
L60452 36070
L60433 36107
L60415 36126
L60377 36145
L60302 36164
L60208 36164
L60133 36145
L60096 36126
L60077 36107
L60058 36070
L60058 36032
L60077 35995
L60096 35976
L60133 35958
L60208 35939
L60302 35939
L60377 35958
L60415 35976
L60433 35995
L60452 36032
" />
<path d="M60321 36332
L60058 36332
" />
<path d="M60283 36332
L60302 36351
L60321 36389
L60321 36445
L60302 36482
L60265 36501
L60058 36501
" />
<path d="M60265 36820
L60265 36689
" />
<path d="M60058 36689
L60452 36689
L60452 36876
" />
<path d="M61043 35414
L61043 35189
" />
<path d="M61043 35301
L61436 35301
L61380 35264
L61343 35226
L61324 35189
" />
<path d="M61436 35658
L61436 35695
L61418 35733
L61399 35751
L61361 35770
L61286 35789
L61193 35789
L61118 35770
L61080 35751
L61061 35733
L61043 35695
L61043 35658
L61061 35620
L61080 35601
L61118 35583
L61193 35564
L61286 35564
L61361 35583
L61399 35601
L61418 35620
L61436 35658
" />
<path d="M61436 36032
L61436 36070
L61418 36107
L61399 36126
L61361 36145
L61286 36164
L61193 36164
L61118 36145
L61080 36126
L61061 36107
L61043 36070
L61043 36032
L61061 35995
L61080 35976
L61118 35958
L61193 35939
L61286 35939
L61361 35958
L61399 35976
L61418 35995
L61436 36032
" />
<path d="M61305 36332
L61043 36332
" />
<path d="M61268 36332
L61286 36351
L61305 36389
L61305 36445
L61286 36482
L61249 36501
L61043 36501
" />
<path d="M61249 36820
L61249 36689
" />
<path d="M61043 36689
L61436 36689
L61436 36876
" />
<path d="M62027 35414
L62027 35189
" />
<path d="M62027 35301
L62421 35301
L62364 35264
L62327 35226
L62308 35189
" />
<path d="M62421 35658
L62421 35695
L62402 35733
L62383 35751
L62346 35770
L62271 35789
L62177 35789
L62102 35770
L62064 35751
L62046 35733
L62027 35695
L62027 35658
L62046 35620
L62064 35601
L62102 35583
L62177 35564
L62271 35564
L62346 35583
L62383 35601
L62402 35620
L62421 35658
" />
<path d="M62421 36032
L62421 36070
L62402 36107
L62383 36126
L62346 36145
L62271 36164
L62177 36164
L62102 36145
L62064 36126
L62046 36107
L62027 36070
L62027 36032
L62046 35995
L62064 35976
L62102 35958
L62177 35939
L62271 35939
L62346 35958
L62383 35976
L62402 35995
L62421 36032
" />
<path d="M62289 36332
L62027 36332
" />
<path d="M62252 36332
L62271 36351
L62289 36389
L62289 36445
L62271 36482
L62233 36501
L62027 36501
" />
<path d="M62233 36820
L62233 36689
" />
<path d="M62027 36689
L62421 36689
L62421 36876
" />
<path d="M63011 35414
L63011 35189
" />
<path d="M63011 35301
L63405 35301
L63349 35264
L63311 35226
L63292 35189
" />
<path d="M63405 35658
L63405 35695
L63386 35733
L63367 35751
L63330 35770
L63255 35789
L63161 35789
L63086 35770
L63049 35751
L63030 35733
L63011 35695
L63011 35658
L63030 35620
L63049 35601
L63086 35583
L63161 35564
L63255 35564
L63330 35583
L63367 35601
L63386 35620
L63405 35658
" />
<path d="M63405 36032
L63405 36070
L63386 36107
L63367 36126
L63330 36145
L63255 36164
L63161 36164
L63086 36145
L63049 36126
L63030 36107
L63011 36070
L63011 36032
L63030 35995
L63049 35976
L63086 35958
L63161 35939
L63255 35939
L63330 35958
L63367 35976
L63386 35995
L63405 36032
" />
<path d="M63274 36332
L63011 36332
" />
<path d="M63236 36332
L63255 36351
L63274 36389
L63274 36445
L63255 36482
L63217 36501
L63011 36501
" />
<path d="M63217 36820
L63217 36689
" />
<path d="M63011 36689
L63405 36689
L63405 36876
" />
<path d="M54312 35119
L54087 35119
" />
<path d="M54200 35119
L54200 34725
L54162 34781
L54125 34819
L54087 34837
" />
<path d="M54556 34725
L54594 34725
L54631 34744
L54650 34762
L54669 34800
L54687 34875
L54687 34969
L54669 35044
L54650 35081
L54631 35100
L54594 35119
L54556 35119
L54519 35100
L54500 35081
L54481 35044
L54462 34969
L54462 34875
L54481 34800
L54500 34762
L54519 34744
L54556 34725
" />
<path d="M54931 34725
L54968 34725
L55006 34744
L55025 34762
L55043 34800
L55062 34875
L55062 34969
L55043 35044
L55025 35081
L55006 35100
L54968 35119
L54931 35119
L54894 35100
L54875 35081
L54856 35044
L54837 34969
L54837 34875
L54856 34800
L54875 34762
L54894 34744
L54931 34725
" />
<path d="M55231 34856
L55231 35119
" />
<path d="M55231 34894
L55250 34875
L55287 34856
L55343 34856
L55381 34875
L55400 34912
L55400 35119
" />
<path d="M55718 34912
L55587 34912
" />
<path d="M55587 35119
L55587 34725
L55775 34725
" />
<path d="M54312 29607
L54087 29607
" />
<path d="M54200 29607
L54200 29213
L54162 29269
L54125 29307
L54087 29326
" />
<path d="M54556 29213
L54594 29213
L54631 29232
L54650 29251
L54669 29288
L54687 29363
L54687 29457
L54669 29532
L54650 29569
L54631 29588
L54594 29607
L54556 29607
L54519 29588
L54500 29569
L54481 29532
L54462 29457
L54462 29363
L54481 29288
L54500 29251
L54519 29232
L54556 29213
" />
<path d="M54931 29213
L54968 29213
L55006 29232
L55025 29251
L55043 29288
L55062 29363
L55062 29457
L55043 29532
L55025 29569
L55006 29588
L54968 29607
L54931 29607
L54894 29588
L54875 29569
L54856 29532
L54837 29457
L54837 29363
L54856 29288
L54875 29251
L54894 29232
L54931 29213
" />
<path d="M55231 29344
L55231 29607
" />
<path d="M55231 29382
L55250 29363
L55287 29344
L55343 29344
L55381 29363
L55400 29401
L55400 29607
" />
<path d="M55718 29401
L55587 29401
" />
<path d="M55587 29607
L55587 29213
L55775 29213
" />
<path d="M83840 24981
L83615 24981
" />
<path d="M83727 24981
L83727 24587
L83690 24643
L83652 24681
L83615 24700
" />
<path d="M84084 24587
L84121 24587
L84159 24606
L84177 24625
L84196 24662
L84215 24737
L84215 24831
L84196 24906
L84177 24943
L84159 24962
L84121 24981
L84084 24981
L84046 24962
L84027 24943
L84009 24906
L83990 24831
L83990 24737
L84009 24662
L84027 24625
L84046 24606
L84084 24587
" />
<path d="M84459 24587
L84496 24587
L84534 24606
L84552 24625
L84571 24662
L84590 24737
L84590 24831
L84571 24906
L84552 24943
L84534 24962
L84496 24981
L84459 24981
L84421 24962
L84402 24943
L84384 24906
L84365 24831
L84365 24737
L84384 24662
L84402 24625
L84421 24606
L84459 24587
" />
<path d="M84759 24718
L84759 24981
" />
<path d="M84759 24756
L84777 24737
L84815 24718
L84871 24718
L84909 24737
L84927 24775
L84927 24981
" />
<path d="M85246 24775
L85115 24775
" />
<path d="M85115 24981
L85115 24587
L85302 24587
" />
<path d="M83840 33052
L83615 33052
" />
<path d="M83727 33052
L83727 32658
L83690 32714
L83652 32752
L83615 32770
" />
<path d="M84084 32658
L84121 32658
L84159 32677
L84177 32695
L84196 32733
L84215 32808
L84215 32902
L84196 32977
L84177 33014
L84159 33033
L84121 33052
L84084 33052
L84046 33033
L84027 33014
L84009 32977
L83990 32902
L83990 32808
L84009 32733
L84027 32695
L84046 32677
L84084 32658
" />
<path d="M84459 32658
L84496 32658
L84534 32677
L84552 32695
L84571 32733
L84590 32808
L84590 32902
L84571 32977
L84552 33014
L84534 33033
L84496 33052
L84459 33052
L84421 33033
L84402 33014
L84384 32977
L84365 32902
L84365 32808
L84384 32733
L84402 32695
L84421 32677
L84459 32658
" />
<path d="M84759 32789
L84759 33052
" />
<path d="M84759 32827
L84777 32808
L84815 32789
L84871 32789
L84909 32808
L84927 32845
L84927 33052
" />
<path d="M85246 32845
L85115 32845
" />
<path d="M85115 33052
L85115 32658
L85302 32658
" />
<path d="M83840 41122
L83615 41122
" />
<path d="M83727 41122
L83727 40729
L83690 40785
L83652 40823
L83615 40841
" />
<path d="M84084 40729
L84121 40729
L84159 40748
L84177 40766
L84196 40804
L84215 40879
L84215 40973
L84196 41047
L84177 41085
L84159 41104
L84121 41122
L84084 41122
L84046 41104
L84027 41085
L84009 41047
L83990 40973
L83990 40879
L84009 40804
L84027 40766
L84046 40748
L84084 40729
" />
<path d="M84459 40729
L84496 40729
L84534 40748
L84552 40766
L84571 40804
L84590 40879
L84590 40973
L84571 41047
L84552 41085
L84534 41104
L84496 41122
L84459 41122
L84421 41104
L84402 41085
L84384 41047
L84365 40973
L84365 40879
L84384 40804
L84402 40766
L84421 40748
L84459 40729
" />
<path d="M84759 40860
L84759 41122
" />
<path d="M84759 40898
L84777 40879
L84815 40860
L84871 40860
L84909 40879
L84927 40916
L84927 41122
" />
<path d="M85246 40916
L85115 40916
" />
<path d="M85115 41122
L85115 40729
L85302 40729
" />
<path d="M68159 27442
L68216 27461
L68309 27461
L68347 27442
L68366 27424
L68384 27386
L68384 27349
L68366 27311
L68347 27292
L68309 27274
L68234 27255
L68197 27236
L68178 27217
L68159 27180
L68159 27142
L68178 27105
L68197 27086
L68234 27067
L68328 27067
L68384 27086
" />
<path d="M68722 27442
L68684 27461
L68609 27461
L68572 27442
L68553 27424
L68534 27386
L68534 27274
L68553 27236
L68572 27217
L68609 27199
L68684 27199
L68722 27217
" />
<path d="M68891 27461
L68891 27067
" />
<path d="M69059 27461
L69059 27255
L69040 27217
L69003 27199
L68947 27199
L68909 27217
L68891 27236
" />
<path d="M69303 27461
L69265 27442
L69247 27424
L69228 27386
L69228 27274
L69247 27236
L69265 27217
L69303 27199
L69359 27199
L69397 27217
L69415 27236
L69434 27274
L69434 27386
L69415 27424
L69397 27442
L69359 27461
L69303 27461
" />
<path d="M69547 27199
L69697 27199
" />
<path d="M69603 27067
L69603 27405
L69622 27442
L69659 27461
L69697 27461
" />
<path d="M69772 27199
L69922 27199
" />
<path d="M69828 27067
L69828 27405
L69847 27442
L69884 27461
L69922 27461
" />
<path d="M70053 27461
L70053 27067
" />
<path d="M70090 27311
L70203 27461
" />
<path d="M70203 27199
L70053 27349
" />
<path d="M70334 27199
L70428 27461
" />
<path d="M70522 27199
L70428 27461
L70390 27555
L70372 27574
L70334 27592
" />
<path d="M69087 33524
L68862 33524
" />
<path d="M68975 33524
L68975 33130
L68937 33187
L68900 33224
L68862 33243
" />
<path d="M69425 33262
L69425 33524
" />
<path d="M69331 33112
L69237 33393
L69481 33393
" />
<path d="M69575 33130
L69706 33524
L69837 33130
" />
<path d="M55681 23898
L55456 23898
" />
<path d="M55568 23898
L55568 23504
L55531 23561
L55493 23598
L55456 23617
" />
<path d="M55925 23504
L55962 23504
L56000 23523
L56018 23542
L56037 23579
L56056 23654
L56056 23748
L56037 23823
L56018 23861
L56000 23879
L55962 23898
L55925 23898
L55887 23879
L55868 23861
L55850 23823
L55831 23748
L55831 23654
L55850 23579
L55868 23542
L55887 23523
L55925 23504
" />
<path d="M56300 23504
L56337 23504
L56375 23523
L56393 23542
L56412 23579
L56431 23654
L56431 23748
L56412 23823
L56393 23861
L56375 23879
L56337 23898
L56300 23898
L56262 23879
L56243 23861
L56225 23823
L56206 23748
L56206 23654
L56225 23579
L56243 23542
L56262 23523
L56300 23504
" />
<path d="M56600 23898
L56600 23504
" />
<path d="M56637 23748
L56750 23898
" />
<path d="M56750 23636
L56600 23786
" />
<path d="M57143 23898
L57012 23711
" />
<path d="M56918 23898
L56918 23504
L57068 23504
L57106 23523
L57124 23542
L57143 23579
L57143 23636
L57124 23673
L57106 23692
L57068 23711
L56918 23711
" />
<path d="M58240 23898
L58015 23898
" />
<path d="M58127 23898
L58127 23504
L58090 23561
L58052 23598
L58015 23617
" />
<path d="M58484 23504
L58521 23504
L58559 23523
L58577 23542
L58596 23579
L58615 23654
L58615 23748
L58596 23823
L58577 23861
L58559 23879
L58521 23898
L58484 23898
L58446 23879
L58427 23861
L58409 23823
L58390 23748
L58390 23654
L58409 23579
L58427 23542
L58446 23523
L58484 23504
" />
<path d="M58859 23504
L58896 23504
L58934 23523
L58952 23542
L58971 23579
L58990 23654
L58990 23748
L58971 23823
L58952 23861
L58934 23879
L58896 23898
L58859 23898
L58821 23879
L58802 23861
L58784 23823
L58765 23748
L58765 23654
L58784 23579
L58802 23542
L58821 23523
L58859 23504
" />
<path d="M59159 23898
L59159 23504
" />
<path d="M59196 23748
L59309 23898
" />
<path d="M59309 23636
L59159 23786
" />
<path d="M59702 23898
L59571 23711
" />
<path d="M59477 23898
L59477 23504
L59627 23504
L59665 23523
L59684 23542
L59702 23579
L59702 23636
L59684 23673
L59665 23692
L59627 23711
L59477 23711
" />
<path d="M60799 23898
L60574 23898
" />
<path d="M60687 23898
L60687 23504
L60649 23561
L60612 23598
L60574 23617
" />
<path d="M61043 23504
L61080 23504
L61118 23523
L61136 23542
L61155 23579
L61174 23654
L61174 23748
L61155 23823
L61136 23861
L61118 23879
L61080 23898
L61043 23898
L61005 23879
L60986 23861
L60968 23823
L60949 23748
L60949 23654
L60968 23579
L60986 23542
L61005 23523
L61043 23504
" />
<path d="M61418 23504
L61455 23504
L61493 23523
L61511 23542
L61530 23579
L61549 23654
L61549 23748
L61530 23823
L61511 23861
L61493 23879
L61455 23898
L61418 23898
L61380 23879
L61361 23861
L61343 23823
L61324 23748
L61324 23654
L61343 23579
L61361 23542
L61380 23523
L61418 23504
" />
<path d="M61718 23898
L61718 23504
" />
<path d="M61755 23748
L61868 23898
" />
<path d="M61868 23636
L61718 23786
" />
<path d="M62261 23898
L62130 23711
" />
<path d="M62036 23898
L62036 23504
L62186 23504
L62224 23523
L62243 23542
L62261 23579
L62261 23636
L62243 23673
L62224 23692
L62186 23711
L62036 23711
" />
<path d="M63358 23898
L63133 23898
" />
<path d="M63246 23898
L63246 23504
L63208 23561
L63171 23598
L63133 23617
" />
<path d="M63602 23504
L63639 23504
L63677 23523
L63696 23542
L63714 23579
L63733 23654
L63733 23748
L63714 23823
L63696 23861
L63677 23879
L63639 23898
L63602 23898
L63564 23879
L63546 23861
L63527 23823
L63508 23748
L63508 23654
L63527 23579
L63546 23542
L63564 23523
L63602 23504
" />
<path d="M63977 23504
L64014 23504
L64052 23523
L64070 23542
L64089 23579
L64108 23654
L64108 23748
L64089 23823
L64070 23861
L64052 23879
L64014 23898
L63977 23898
L63939 23879
L63921 23861
L63902 23823
L63883 23748
L63883 23654
L63902 23579
L63921 23542
L63939 23523
L63977 23504
" />
<path d="M64277 23898
L64277 23504
" />
<path d="M64314 23748
L64427 23898
" />
<path d="M64427 23636
L64277 23786
" />
<path d="M64820 23898
L64689 23711
" />
<path d="M64595 23898
L64595 23504
L64745 23504
L64783 23523
L64802 23542
L64820 23579
L64820 23636
L64802 23673
L64783 23692
L64745 23711
L64595 23711
" />
<path d="M65917 23898
L65692 23898
" />
<path d="M65805 23898
L65805 23504
L65767 23561
L65730 23598
L65692 23617
" />
<path d="M66161 23504
L66198 23504
L66236 23523
L66255 23542
L66273 23579
L66292 23654
L66292 23748
L66273 23823
L66255 23861
L66236 23879
L66198 23898
L66161 23898
L66123 23879
L66105 23861
L66086 23823
L66067 23748
L66067 23654
L66086 23579
L66105 23542
L66123 23523
L66161 23504
" />
<path d="M66536 23504
L66573 23504
L66611 23523
L66630 23542
L66648 23579
L66667 23654
L66667 23748
L66648 23823
L66630 23861
L66611 23879
L66573 23898
L66536 23898
L66498 23879
L66480 23861
L66461 23823
L66442 23748
L66442 23654
L66461 23579
L66480 23542
L66498 23523
L66536 23504
" />
<path d="M66836 23898
L66836 23504
" />
<path d="M66873 23748
L66986 23898
" />
<path d="M66986 23636
L66836 23786
" />
<path d="M67379 23898
L67248 23711
" />
<path d="M67154 23898
L67154 23504
L67304 23504
L67342 23523
L67361 23542
L67379 23579
L67379 23636
L67361 23673
L67342 23692
L67304 23711
L67154 23711
" />
<path d="M77040 28130
L76815 28130
" />
<path d="M76928 28130
L76928 27737
L76890 27793
L76853 27830
L76815 27849
" />
<path d="M77284 27737
L77321 27737
L77359 27755
L77378 27774
L77396 27812
L77415 27887
L77415 27980
L77396 28055
L77378 28093
L77359 28112
L77321 28130
L77284 28130
L77246 28112
L77228 28093
L77209 28055
L77190 27980
L77190 27887
L77209 27812
L77228 27774
L77246 27755
L77284 27737
" />
<path d="M77659 27737
L77696 27737
L77734 27755
L77753 27774
L77771 27812
L77790 27887
L77790 27980
L77771 28055
L77753 28093
L77734 28112
L77696 28130
L77659 28130
L77621 28112
L77603 28093
L77584 28055
L77565 27980
L77565 27887
L77584 27812
L77603 27774
L77621 27755
L77659 27737
" />
<path d="M77959 27868
L77959 28262
" />
<path d="M78146 28074
L78165 28112
L78202 28130
" />
<path d="M77959 28074
L77977 28112
L78015 28130
L78090 28130
L78127 28112
L78146 28074
L78146 27868
" />
<path d="M78502 27924
L78371 27924
" />
<path d="M78371 28130
L78371 27737
L78559 27737
" />
<path d="M77001 32953
L76776 32953
" />
<path d="M76888 32953
L76888 32559
L76851 32616
L76813 32653
L76776 32672
" />
<path d="M77244 32559
L77282 32559
L77319 32578
L77338 32597
L77357 32634
L77376 32709
L77376 32803
L77357 32878
L77338 32916
L77319 32934
L77282 32953
L77244 32953
L77207 32934
L77188 32916
L77169 32878
L77151 32803
L77151 32709
L77169 32634
L77188 32597
L77207 32578
L77244 32559
" />
<path d="M77619 32559
L77657 32559
L77694 32578
L77713 32597
L77732 32634
L77751 32709
L77751 32803
L77732 32878
L77713 32916
L77694 32934
L77657 32953
L77619 32953
L77582 32934
L77563 32916
L77544 32878
L77526 32803
L77526 32709
L77544 32634
L77563 32597
L77582 32578
L77619 32559
" />
<path d="M77919 32691
L77919 33084
" />
<path d="M78107 32897
L78126 32934
L78163 32953
" />
<path d="M77919 32897
L77938 32934
L77976 32953
L78051 32953
L78088 32934
L78107 32897
L78107 32691
" />
<path d="M78463 32747
L78332 32747
" />
<path d="M78332 32953
L78332 32559
L78519 32559
" />
<path d="M77001 39646
L76776 39646
" />
<path d="M76888 39646
L76888 39252
L76851 39309
L76813 39346
L76776 39365
" />
<path d="M77244 39252
L77282 39252
L77319 39271
L77338 39290
L77357 39327
L77376 39402
L77376 39496
L77357 39571
L77338 39609
L77319 39627
L77282 39646
L77244 39646
L77207 39627
L77188 39609
L77169 39571
L77151 39496
L77151 39402
L77169 39327
L77188 39290
L77207 39271
L77244 39252
" />
<path d="M77619 39252
L77657 39252
L77694 39271
L77713 39290
L77732 39327
L77751 39402
L77751 39496
L77732 39571
L77713 39609
L77694 39627
L77657 39646
L77619 39646
L77582 39627
L77563 39609
L77544 39571
L77526 39496
L77526 39402
L77544 39327
L77563 39290
L77582 39271
L77619 39252
" />
<path d="M77919 39384
L77919 39777
" />
<path d="M78107 39590
L78126 39627
L78163 39646
" />
<path d="M77919 39590
L77938 39627
L77976 39646
L78051 39646
L78088 39627
L78107 39590
L78107 39384
" />
<path d="M78463 39440
L78332 39440
" />
<path d="M78332 39646
L78332 39252
L78519 39252
" />
<path d="M66873 38920
L66855 38938
L66798 38957
L66761 38957
L66705 38938
L66667 38901
L66648 38863
L66630 38788
L66630 38732
L66648 38657
L66667 38620
L66705 38582
L66761 38563
L66798 38563
L66855 38582
L66873 38601
" />
<path d="M67098 38957
L67061 38938
L67042 38920
L67023 38882
L67023 38770
L67042 38732
L67061 38713
L67098 38695
L67154 38695
L67192 38713
L67211 38732
L67229 38770
L67229 38882
L67211 38920
L67192 38938
L67154 38957
L67098 38957
" />
<path d="M67398 38695
L67398 38957
" />
<path d="M67398 38732
L67417 38713
L67454 38695
L67511 38695
L67548 38713
L67567 38751
L67567 38957
" />
<path d="M67754 38695
L67754 38957
" />
<path d="M67754 38732
L67773 38713
L67811 38695
L67867 38695
L67904 38713
L67923 38751
L67923 38957
" />
<path d="M68017 38995
L68317 38995
" />
<path d="M68486 38563
L68523 38563
L68561 38582
L68579 38601
L68598 38638
L68617 38713
L68617 38807
L68598 38882
L68579 38920
L68561 38938
L68523 38957
L68486 38957
L68448 38938
L68429 38920
L68411 38882
L68392 38807
L68392 38713
L68411 38638
L68429 38601
L68448 38582
L68486 38563
" />
<path d="M68767 38601
L68786 38582
L68823 38563
L68917 38563
L68954 38582
L68973 38601
L68992 38638
L68992 38676
L68973 38732
L68748 38957
L68992 38957
" />
<path d="M69123 38957
L69329 38695
" />
<path d="M69123 38695
L69329 38957
" />
<path d="M69460 38601
L69479 38582
L69517 38563
L69610 38563
L69648 38582
L69667 38601
L69685 38638
L69685 38676
L69667 38732
L69442 38957
L69685 38957
" />
<path d="M69929 38563
L69967 38563
L70004 38582
L70023 38601
L70042 38638
L70060 38713
L70060 38807
L70042 38882
L70023 38920
L70004 38938
L69967 38957
L69929 38957
L69892 38938
L69873 38920
L69854 38882
L69835 38807
L69835 38713
L69854 38638
L69873 38601
L69892 38582
L69929 38563
" />
<path d="M70135 38995
L70435 38995
" />
<path d="M70604 38563
L70679 38563
L70717 38582
L70754 38620
L70773 38695
L70773 38826
L70754 38901
L70717 38938
L70679 38957
L70604 38957
L70567 38938
L70529 38901
L70510 38826
L70510 38695
L70529 38620
L70567 38582
L70604 38563
" />
<path d="M71110 38957
L71110 38563
" />
<path d="M71110 38938
L71073 38957
L70998 38957
L70960 38938
L70941 38920
L70923 38882
L70923 38770
L70941 38732
L70960 38713
L70998 38695
L71073 38695
L71110 38713
" />
<path d="M71466 38957
L71466 38563
" />
<path d="M71466 38938
L71429 38957
L71354 38957
L71316 38938
L71298 38920
L71279 38882
L71279 38770
L71298 38732
L71316 38713
L71354 38695
L71429 38695
L71466 38713
" />
<path d="M71560 38995
L71860 38995
" />
<path d="M71954 38751
L72085 38751
" />
<path d="M72141 38957
L71954 38957
L71954 38563
L72141 38563
" />
<path d="M72273 38695
L72366 38957
L72460 38695
" />
<path d="M72760 38938
L72723 38957
L72648 38957
L72610 38938
L72591 38901
L72591 38751
L72610 38713
L72648 38695
L72723 38695
L72760 38713
L72779 38751
L72779 38788
L72591 38826
" />
<path d="M72947 38695
L72947 38957
" />
<path d="M72947 38732
L72966 38713
L73004 38695
L73060 38695
L73097 38713
L73116 38751
L73116 38957
" />
<path d="M70737 23800
L70512 23800
" />
<path d="M70624 23800
L70624 23406
L70587 23462
L70549 23500
L70512 23518
" />
<path d="M70981 23406
L71018 23406
L71056 23425
L71074 23443
L71093 23481
L71112 23556
L71112 23650
L71093 23725
L71074 23762
L71056 23781
L71018 23800
L70981 23800
L70943 23781
L70924 23762
L70906 23725
L70887 23650
L70887 23556
L70906 23481
L70924 23443
L70943 23425
L70981 23406
" />
<path d="M71356 23406
L71393 23406
L71431 23425
L71449 23443
L71468 23481
L71487 23556
L71487 23650
L71468 23725
L71449 23762
L71431 23781
L71393 23800
L71356 23800
L71318 23781
L71299 23762
L71281 23725
L71262 23650
L71262 23556
L71281 23481
L71299 23443
L71318 23425
L71356 23406
" />
<path d="M71656 23537
L71656 23931
" />
<path d="M71843 23743
L71862 23781
L71899 23800
" />
<path d="M71656 23743
L71674 23781
L71712 23800
L71787 23800
L71824 23781
L71843 23743
L71843 23537
" />
<path d="M72199 23593
L72068 23593
" />
<path d="M72068 23800
L72068 23406
L72256 23406
" />
</g>
<g style="fill:#000000; fill-opacity:0.0; 
stroke:#000000; stroke-width:59.0551; stroke-opacity:1; 
stroke-linecap:round; stroke-linejoin:round;">
</g>
<g style="fill:#848484; fill-opacity:0.0; 
stroke:#848484; stroke-width:59.0551; stroke-opacity:1; 
stroke-linecap:round; stroke-linejoin:round;">
</g>
<g style="fill:#848484; fill-opacity:0.0; 
stroke:#848484; stroke-width:19.685; stroke-opacity:1; 
stroke-linecap:round; stroke-linejoin:round;">
<path d="M59626 37667
L59626 39124
" />
<path d="M58878 37667
L59626 37667
" />
<path d="M58878 39124
L58878 37667
" />
<path d="M59626 39124
L58878 39124
" />
<path d="M60611 39124
L59863 39124
" />
<path d="M59863 39124
L59863 37667
" />
<path d="M59863 37667
L60611 37667
" />
<path d="M60611 37667
L60611 39124
" />
<path d="M61595 39124
L60847 39124
" />
<path d="M60847 39124
L60847 37667
" />
<path d="M60847 37667
L61595 37667
" />
<path d="M61595 37667
L61595 39124
" />
<path d="M62579 37667
L62579 39124
" />
<path d="M61831 37667
L62579 37667
" />
<path d="M61831 39124
L61831 37667
" />
<path d="M62579 39124
L61831 39124
" />
<path d="M63563 37667
L63563 39124
" />
<path d="M62815 37667
L63563 37667
" />
<path d="M62815 39124
L62815 37667
" />
<path d="M63563 39124
L62815 39124
" />
<path d="M55296 36761
L54548 36761
" />
<path d="M54548 36761
L54548 35305
" />
<path d="M54548 35305
L55296 35305
" />
<path d="M55296 35305
L55296 36761
" />
<path d="M55296 31250
L54548 31250
" />
<path d="M54548 31250
L54548 29793
" />
<path d="M54548 29793
L55296 29793
" />
<path d="M55296 29793
L55296 31250
" />
<path d="M85168 24389
L83711 24389
" />
<path d="M85168 23641
L85168 24389
" />
<path d="M83711 23641
L85168 23641
" />
<path d="M83711 24389
L83711 23641
" />
<path d="M83731 32460
L83731 31712
" />
<path d="M83731 31712
L85187 31712
" />
<path d="M85187 31712
L85187 32460
" />
<path d="M85187 32460
L83731 32460
" />
<path d="M85187 40531
L83731 40531
" />
<path d="M85187 39783
L85187 40531
" />
<path d="M83731 39783
L85187 39783
" />
<path d="M83731 40531
L83731 39783
" />
<path d="M66615 27618
L72048 27618
" />
<path d="M72048 27618
L72048 30255
" />
<path d="M72048 30255
L66615 30255
" />
<path d="M66615 30255
L66615 27618
" />
<path d="M66615 33011
L66615 30374
" />
<path d="M72048 33011
L66615 33011
" />
<path d="M72048 30374
L72048 33011
" />
<path d="M66615 30374
L72048 30374
" />
<path d="M55926 21309
L56674 21309
" />
<path d="M56674 21309
L56674 22765
" />
<path d="M56674 22765
L55926 22765
" />
<path d="M55926 22765
L55926 21309
" />
<path d="M58485 21309
L59233 21309
" />
<path d="M59233 21309
L59233 22765
" />
<path d="M59233 22765
L58485 22765
" />
<path d="M58485 22765
L58485 21309
" />
<path d="M61044 22765
L61044 21309
" />
<path d="M61792 22765
L61044 22765
" />
<path d="M61792 21309
L61792 22765
" />
<path d="M61044 21309
L61792 21309
" />
<path d="M63603 21309
L64351 21309
" />
<path d="M64351 21309
L64351 22765
" />
<path d="M64351 22765
L63603 22765
" />
<path d="M63603 22765
L63603 21309
" />
<path d="M66162 22765
L66162 21309
" />
<path d="M66910 22765
L66162 22765
" />
<path d="M66910 21309
L66910 22765
" />
<path d="M66162 21309
L66910 21309
" />
<path d="M75874 27618
L75874 25728
" />
<path d="M75874 25728
L79481 25728
" />
<path d="M79481 25728
L79481 27618
" />
<path d="M79481 27618
L75874 27618
" />
<path d="M75835 32440
L75835 30551
" />
<path d="M75835 30551
L79441 30551
" />
<path d="M79441 30551
L79441 32440
" />
<path d="M79441 32440
L75835 32440
" />
<path d="M79441 39133
L75835 39133
" />
<path d="M79441 37244
L79441 39133
" />
<path d="M75835 37244
L79441 37244
" />
<path d="M75835 39133
L75835 37244
" />
<path d="M74949 41562
L54555 41562
" />
<path d="M74949 39161
L74949 41562
" />
<path d="M54555 39161
L74949 39161
" />
<path d="M54555 41562
L54555 39161
" />
<path d="M73158 21397
L73158 23287
" />
<path d="M73158 23287
L69552 23287
" />
<path d="M69552 23287
L69552 21397
" />
<path d="M69552 21397
L73158 21397
" />
</g>
<g style="fill:#000000; fill-opacity:0.0; 
stroke:#000000; stroke-width:19.685; stroke-opacity:1; 
stroke-linecap:round; stroke-linejoin:round;">
</g>
<g style="fill:#840084; fill-opacity:0.0; 
stroke:#840084; stroke-width:19.685; stroke-opacity:1; 
stroke-linecap:round; stroke-linejoin:round;">
</g>
<g style="fill:#840084; fill-opacity:0.0; 
stroke:#840084; stroke-width:47.2441; stroke-opacity:1; 
stroke-linecap:round; stroke-linejoin:round;">
<path d="M59532 38498
L59532 38292
" />
<path d="M58973 38498
L58973 38292
" />
<path d="M59957 38498
L59957 38292
" />
<path d="M60516 38498
L60516 38292
" />
<path d="M60941 38498
L60941 38292
" />
<path d="M61500 38498
L61500 38292
" />
<path d="M62485 38498
L62485 38292
" />
<path d="M61926 38498
L61926 38292
" />
<path d="M63469 38498
L63469 38292
" />
<path d="M62910 38498
L62910 38292
" />
<path d="M54642 36136
L54642 35930
" />
<path d="M55201 36136
L55201 35930
" />
<path d="M54642 30624
L54642 30418
" />
<path d="M55201 30624
L55201 30418
" />
<path d="M84336 24295
L84542 24295
" />
<path d="M84336 23736
L84542 23736
" />
<path d="M84356 31807
L84562 31807
" />
<path d="M84356 32366
L84562 32366
" />
<path d="M84356 40437
L84562 40437
" />
<path d="M84356 39877
L84562 39877
" />
<path d="M66654 30216
L66654 27657
" />
<path d="M66654 30216
L71063 30216
" />
<path d="M66654 27657
L71063 27657
" />
<path d="M66654 30413
L71063 30413
" />
<path d="M66654 32972
L71063 32972
" />
<path d="M66654 32972
L66654 30413
" />
<path d="M56579 21934
L56579 22140
" />
<path d="M56020 21934
L56020 22140
" />
<path d="M59138 21934
L59138 22140
" />
<path d="M58579 21934
L58579 22140
" />
<path d="M61138 21934
L61138 22140
" />
<path d="M61697 21934
L61697 22140
" />
<path d="M64256 21934
L64256 22140
" />
<path d="M63697 21934
L63697 22140
" />
<path d="M66256 21934
L66256 22140
" />
<path d="M66815 21934
L66815 22140
" />
<path d="M79115 25783
L75872 25783
" />
<path d="M75872 25783
L75872 27562
" />
<path d="M75872 27562
L79115 27562
" />
<path d="M79075 30606
L75833 30606
" />
<path d="M75833 30606
L75833 32385
" />
<path d="M75833 32385
L79075 32385
" />
<path d="M75833 39078
L79075 39078
" />
<path d="M75833 37299
L75833 39078
" />
<path d="M79075 37299
L75833 37299
" />
<path d="M54741 39854
L54741 39330
" />
<path d="M54741 39330
L55264 39330
" />
<path d="M54741 40354
L55764 40354
" />
<path d="M55764 40354
L55764 39330
" />
<path d="M55764 39330
L74788 39330
" />
<path d="M74788 41377
L74788 39330
" />
<path d="M54741 41377
L74788 41377
" />
<path d="M54741 41377
L54741 40354
" />
<path d="M69918 23232
L73160 23232
" />
<path d="M73160 23232
L73160 21452
" />
<path d="M73160 21452
L69918 21452
" />
</g>
<g style="fill:#840084; fill-opacity:0.0; 
stroke:#840084; stroke-width:59.0551; stroke-opacity:1; 
stroke-linecap:round; stroke-linejoin:round;">
<path d="M59187 37443
L59168 37462
L59112 37481
L59074 37481
L59018 37462
L58980 37425
L58962 37387
L58943 37312
L58943 37256
L58962 37181
L58980 37143
L59018 37106
L59074 37087
L59112 37087
L59168 37106
L59187 37125
" />
<path d="M59562 37481
L59337 37481
" />
<path d="M59449 37481
L59449 37087
L59412 37143
L59374 37181
L59337 37200
" />
<path d="M60171 37443
L60152 37462
L60096 37481
L60058 37481
L60002 37462
L59965 37425
L59946 37387
L59927 37312
L59927 37256
L59946 37181
L59965 37143
L60002 37106
L60058 37087
L60096 37087
L60152 37106
L60171 37125
" />
<path d="M60321 37125
L60340 37106
L60377 37087
L60471 37087
L60508 37106
L60527 37125
L60546 37162
L60546 37200
L60527 37256
L60302 37481
L60546 37481
" />
<path d="M61155 37443
L61136 37462
L61080 37481
L61043 37481
L60986 37462
L60949 37425
L60930 37387
L60912 37312
L60912 37256
L60930 37181
L60949 37143
L60986 37106
L61043 37087
L61080 37087
L61136 37106
L61155 37125
" />
<path d="M61286 37087
L61530 37087
L61399 37237
L61455 37237
L61493 37256
L61511 37275
L61530 37312
L61530 37406
L61511 37443
L61493 37462
L61455 37481
L61343 37481
L61305 37462
L61286 37443
" />
<path d="M62139 37443
L62121 37462
L62064 37481
L62027 37481
L61971 37462
L61933 37425
L61915 37387
L61896 37312
L61896 37256
L61915 37181
L61933 37143
L61971 37106
L62027 37087
L62064 37087
L62121 37106
L62139 37125
" />
<path d="M62477 37218
L62477 37481
" />
<path d="M62383 37068
L62289 37350
L62533 37350
" />
<path d="M63124 37443
L63105 37462
L63049 37481
L63011 37481
L62955 37462
L62918 37425
L62899 37387
L62880 37312
L62880 37256
L62899 37181
L62918 37143
L62955 37106
L63011 37087
L63049 37087
L63105 37106
L63124 37125
" />
<path d="M63480 37087
L63292 37087
L63274 37275
L63292 37256
L63330 37237
L63424 37237
L63461 37256
L63480 37275
L63499 37312
L63499 37406
L63480 37443
L63461 37462
L63424 37481
L63330 37481
L63292 37462
L63274 37443
" />
<path d="M54856 37345
L54837 37364
L54781 37382
L54744 37382
L54687 37364
L54650 37326
L54631 37289
L54612 37214
L54612 37157
L54631 37082
L54650 37045
L54687 37007
L54744 36989
L54781 36989
L54837 37007
L54856 37026
" />
<path d="M55193 36989
L55118 36989
L55081 37007
L55062 37026
L55025 37082
L55006 37157
L55006 37307
L55025 37345
L55043 37364
L55081 37382
L55156 37382
L55193 37364
L55212 37345
L55231 37307
L55231 37214
L55212 37176
L55193 37157
L55156 37139
L55081 37139
L55043 37157
L55025 37176
L55006 37214
" />
<path d="M54856 31833
L54837 31852
L54781 31871
L54744 31871
L54687 31852
L54650 31814
L54631 31777
L54612 31702
L54612 31646
L54631 31571
L54650 31533
L54687 31496
L54744 31477
L54781 31477
L54837 31496
L54856 31514
" />
<path d="M54987 31477
L55250 31477
L55081 31871
" />
<path d="M82720 24156
L82701 24175
L82645 24193
L82607 24193
L82551 24175
L82513 24137
L82495 24100
L82476 24025
L82476 23968
L82495 23893
L82513 23856
L82551 23818
L82607 23800
L82645 23800
L82701 23818
L82720 23837
" />
<path d="M83095 24193
L82870 24193
" />
<path d="M82982 24193
L82982 23800
L82945 23856
L82907 23893
L82870 23912
" />
<path d="M83245 23837
L83263 23818
L83301 23800
L83395 23800
L83432 23818
L83451 23837
L83470 23875
L83470 23912
L83451 23968
L83226 24193
L83470 24193
" />
<path d="M82720 32227
L82701 32245
L82645 32264
L82607 32264
L82551 32245
L82513 32208
L82495 32170
L82476 32095
L82476 32039
L82495 31964
L82513 31927
L82551 31889
L82607 31871
L82645 31871
L82701 31889
L82720 31908
" />
<path d="M83095 32264
L82870 32264
" />
<path d="M82982 32264
L82982 31871
L82945 31927
L82907 31964
L82870 31983
" />
<path d="M83226 31871
L83470 31871
L83338 32020
L83395 32020
L83432 32039
L83451 32058
L83470 32095
L83470 32189
L83451 32227
L83432 32245
L83395 32264
L83282 32264
L83245 32245
L83226 32227
" />
<path d="M82720 40298
L82701 40316
L82645 40335
L82607 40335
L82551 40316
L82513 40279
L82495 40241
L82476 40166
L82476 40110
L82495 40035
L82513 39998
L82551 39960
L82607 39941
L82645 39941
L82701 39960
L82720 39979
" />
<path d="M83095 40335
L82870 40335
" />
<path d="M82982 40335
L82982 39941
L82945 39998
L82907 40035
L82870 40054
" />
<path d="M83432 40073
L83432 40335
" />
<path d="M83338 39923
L83245 40204
L83488 40204
" />
<path d="M69040 28524
L69040 28130
L69134 28130
L69190 28149
L69228 28187
L69247 28224
L69265 28299
L69265 28355
L69247 28430
L69228 28468
L69190 28505
L69134 28524
L69040 28524
" />
<path d="M69640 28524
L69415 28524
" />
<path d="M69528 28524
L69528 28130
L69490 28187
L69453 28224
L69415 28243
" />
<path d="M69040 31280
L69040 30886
L69134 30886
L69190 30905
L69228 30943
L69247 30980
L69265 31055
L69265 31111
L69247 31186
L69228 31224
L69190 31261
L69134 31280
L69040 31280
" />
<path d="M69415 30924
L69434 30905
L69472 30886
L69565 30886
L69603 30905
L69622 30924
L69640 30961
L69640 30999
L69622 31055
L69397 31280
L69640 31280
" />
<path d="M56234 23308
L56103 23120
" />
<path d="M56009 23308
L56009 22914
L56159 22914
L56196 22933
L56215 22951
L56234 22989
L56234 23045
L56215 23083
L56196 23101
L56159 23120
L56009 23120
" />
<path d="M56609 23308
L56384 23308
" />
<path d="M56496 23308
L56496 22914
L56459 22970
L56421 23008
L56384 23026
" />
<path d="M58793 23308
L58662 23120
" />
<path d="M58568 23308
L58568 22914
L58718 22914
L58756 22933
L58774 22951
L58793 22989
L58793 23045
L58774 23083
L58756 23101
L58718 23120
L58568 23120
" />
<path d="M58943 22951
L58962 22933
L58999 22914
L59093 22914
L59130 22933
L59149 22951
L59168 22989
L59168 23026
L59149 23083
L58924 23308
L59168 23308
" />
<path d="M61352 23308
L61221 23120
" />
<path d="M61127 23308
L61127 22914
L61277 22914
L61315 22933
L61333 22951
L61352 22989
L61352 23045
L61333 23083
L61315 23101
L61277 23120
L61127 23120
" />
<path d="M61483 22914
L61727 22914
L61596 23064
L61652 23064
L61690 23083
L61708 23101
L61727 23139
L61727 23233
L61708 23270
L61690 23289
L61652 23308
L61540 23308
L61502 23289
L61483 23270
" />
<path d="M63911 23308
L63780 23120
" />
<path d="M63686 23308
L63686 22914
L63836 22914
L63874 22933
L63892 22951
L63911 22989
L63911 23045
L63892 23083
L63874 23101
L63836 23120
L63686 23120
" />
<path d="M64249 23045
L64249 23308
" />
<path d="M64155 22895
L64061 23176
L64305 23176
" />
<path d="M66470 23308
L66339 23120
" />
<path d="M66245 23308
L66245 22914
L66395 22914
L66433 22933
L66451 22951
L66470 22989
L66470 23045
L66451 23083
L66433 23101
L66395 23120
L66245 23120
" />
<path d="M66826 22914
L66639 22914
L66620 23101
L66639 23083
L66676 23064
L66770 23064
L66808 23083
L66826 23101
L66845 23139
L66845 23233
L66826 23270
L66808 23289
L66770 23308
L66676 23308
L66639 23289
L66620 23270
" />
<path d="M77612 26813
L77593 26832
L77537 26851
L77499 26851
L77443 26832
L77406 26795
L77387 26757
L77368 26682
L77368 26626
L77387 26551
L77406 26513
L77443 26476
L77499 26457
L77537 26457
L77593 26476
L77612 26495
" />
<path d="M77799 26851
L77874 26851
L77912 26832
L77931 26813
L77968 26757
L77987 26682
L77987 26532
L77968 26495
L77949 26476
L77912 26457
L77837 26457
L77799 26476
L77781 26495
L77762 26532
L77762 26626
L77781 26663
L77799 26682
L77837 26701
L77912 26701
L77949 26682
L77968 26663
L77987 26626
" />
<path d="M77385 31636
L77366 31655
L77310 31674
L77273 31674
L77216 31655
L77179 31617
L77160 31580
L77141 31505
L77141 31449
L77160 31374
L77179 31336
L77216 31299
L77273 31280
L77310 31280
L77366 31299
L77385 31317
" />
<path d="M77760 31674
L77535 31674
" />
<path d="M77648 31674
L77648 31280
L77610 31336
L77573 31374
L77535 31392
" />
<path d="M78004 31280
L78041 31280
L78079 31299
L78097 31317
L78116 31355
L78135 31430
L78135 31524
L78116 31599
L78097 31636
L78079 31655
L78041 31674
L78004 31674
L77966 31655
L77947 31636
L77929 31599
L77910 31524
L77910 31430
L77929 31355
L77947 31317
L77966 31299
L78004 31280
" />
<path d="M77385 38329
L77366 38348
L77310 38367
L77273 38367
L77216 38348
L77179 38310
L77160 38273
L77141 38198
L77141 38142
L77160 38067
L77179 38029
L77216 37992
L77273 37973
L77310 37973
L77366 37992
L77385 38010
" />
<path d="M77760 38367
L77535 38367
" />
<path d="M77648 38367
L77648 37973
L77610 38029
L77573 38067
L77535 38085
" />
<path d="M78135 38367
L77910 38367
" />
<path d="M78022 38367
L78022 37973
L77985 38029
L77947 38067
L77910 38085
" />
<path d="M53905 40138
L53905 40419
L53886 40476
L53848 40513
L53792 40532
L53755 40532
" />
<path d="M54148 40307
L54111 40288
L54092 40269
L54073 40232
L54073 40213
L54092 40176
L54111 40157
L54148 40138
L54223 40138
L54261 40157
L54280 40176
L54298 40213
L54298 40232
L54280 40269
L54261 40288
L54223 40307
L54148 40307
L54111 40326
L54092 40344
L54073 40382
L54073 40457
L54092 40494
L54111 40513
L54148 40532
L54223 40532
L54261 40513
L54280 40494
L54298 40457
L54298 40382
L54280 40344
L54261 40326
L54223 40307
" />
<path d="M71121 22483
L71103 22501
L71046 22520
L71009 22520
L70953 22501
L70915 22464
L70896 22426
L70878 22351
L70878 22295
L70896 22220
L70915 22183
L70953 22145
L71009 22126
L71046 22126
L71103 22145
L71121 22164
" />
<path d="M71496 22520
L71271 22520
" />
<path d="M71384 22520
L71384 22126
L71346 22183
L71309 22220
L71271 22239
" />
<path d="M71852 22126
L71665 22126
L71646 22314
L71665 22295
L71702 22276
L71796 22276
L71834 22295
L71852 22314
L71871 22351
L71871 22445
L71852 22483
L71834 22501
L71796 22520
L71702 22520
L71665 22501
L71646 22483
" />
</g>
<g style="fill:#000000; fill-opacity:0.0; 
stroke:#000000; stroke-width:59.0551; stroke-opacity:1; 
stroke-linecap:round; stroke-linejoin:round;">
</g>
<g style="fill:#C2C200; fill-opacity:0.0; 
stroke:#C2C200; stroke-width:59.0551; stroke-opacity:1; 
stroke-linecap:round; stroke-linejoin:round;">
</g>
<g style="fill:#C2C200; fill-opacity:0.0; 
stroke:#C2C200; stroke-width:78.7402; stroke-opacity:1; 
stroke-linecap:round; stroke-linejoin:round;">
<path d="M51969 19685
L85433 19685
" />
<path d="M51969 41732
L51969 19685
" />
<path d="M85433 41732
L51969 41732
" />
<path d="M85433 19685
L85433 41732
" />
</g> 
</svg>
