<?xml version="1.0" standalone="no"?>
 <!DOCTYPE svg PUBLIC "-//W3C//DTD SVG 1.1//EN" 
 "http://www.w3.org/Graphics/SVG/1.1/DTD/svg11.dtd"> 
<svg xmlns="http://www.w3.org/2000/svg" version="1.1" 
    width="29.7002cm" height="21.0007cm" viewBox="0 0 116930 82680 ">
<title>SVG Picture created as Autoscope-brd.svg date 2019/03/04 17:38:01 </title>
  <desc>Picture generated by PCBNEW </desc>
<g style="fill:#000000; fill-opacity:1;stroke:#000000; stroke-opacity:1;
stroke-linecap:round; stroke-linejoin:round; "
 transform="translate(0 0) scale(1 1)">
</g>
<g style="fill:#000000; fill-opacity:0.0; 
stroke:#000000; stroke-width:-0.000393701; stroke-opacity:1; 
stroke-linecap:round; stroke-linejoin:round;">
</g>
<g style="fill:#000084; fill-opacity:0.0; 
stroke:#000084; stroke-width:-0.000393701; stroke-opacity:1; 
stroke-linecap:round; stroke-linejoin:round;">
</g>
<g style="fill:#000084; fill-opacity:0.0; 
stroke:#000084; stroke-width:39.3701; stroke-opacity:1; 
stroke-linecap:round; stroke-linejoin:round;">
<path d="M59489 38001
L59489 38789
" />
<path d="M59016 38001
L59489 38001
" />
<path d="M59016 38789
L59016 38001
" />
<path d="M59489 38789
L59016 38789
" />
<path d="M60473 38789
L60000 38789
" />
<path d="M60000 38789
L60000 38001
" />
<path d="M60000 38001
L60473 38001
" />
<path d="M60473 38001
L60473 38789
" />
<path d="M61457 38789
L60985 38789
" />
<path d="M60985 38789
L60985 38001
" />
<path d="M60985 38001
L61457 38001
" />
<path d="M61457 38001
L61457 38789
" />
<path d="M62441 38001
L62441 38789
" />
<path d="M61969 38001
L62441 38001
" />
<path d="M61969 38789
L61969 38001
" />
<path d="M62441 38789
L61969 38789
" />
<path d="M63426 38001
L63426 38789
" />
<path d="M62953 38001
L63426 38001
" />
<path d="M62953 38789
L62953 38001
" />
<path d="M63426 38789
L62953 38789
" />
<path d="M55158 36427
L54685 36427
" />
<path d="M54685 36427
L54685 35639
" />
<path d="M54685 35639
L55158 35639
" />
<path d="M55158 35639
L55158 36427
" />
<path d="M55158 30915
L54685 30915
" />
<path d="M54685 30915
L54685 30127
" />
<path d="M54685 30127
L55158 30127
" />
<path d="M55158 30127
L55158 30915
" />
<path d="M84833 24251
L84046 24251
" />
<path d="M84833 23779
L84833 24251
" />
<path d="M84046 23779
L84833 23779
" />
<path d="M84046 24251
L84046 23779
" />
<path d="M84065 32322
L84065 31850
" />
<path d="M84065 31850
L84853 31850
" />
<path d="M84853 31850
L84853 32322
" />
<path d="M84853 32322
L84065 32322
" />
<path d="M84853 40393
L84065 40393
" />
<path d="M84853 39921
L84853 40393
" />
<path d="M84065 39921
L84853 39921
" />
<path d="M84065 40393
L84065 39921
" />
<path d="M70729 30157
L67933 30157
" />
<path d="M67933 30157
L67933 27716
" />
<path d="M70729 27716
L70729 30157
" />
<path d="M70729 27716
L67933 27716
" />
<path d="M69075 28937
L68720 28937
" />
<path d="M69528 28937
L69921 28937
" />
<path d="M69075 28622
L69075 29252
" />
<path d="M69528 29232
L69528 28622
" />
<path d="M69075 28937
L69528 29232
" />
<path d="M69075 28937
L69528 28622
" />
<path d="M69075 31693
L69528 31378
" />
<path d="M69075 31693
L69528 31988
" />
<path d="M69528 31988
L69528 31378
" />
<path d="M69075 31378
L69075 32008
" />
<path d="M69528 31693
L69921 31693
" />
<path d="M69075 31693
L68720 31693
" />
<path d="M70729 30472
L67933 30472
" />
<path d="M70729 30472
L70729 32913
" />
<path d="M67933 32913
L67933 30472
" />
<path d="M70729 32913
L67933 32913
" />
<path d="M56063 21643
L56536 21643
" />
<path d="M56536 21643
L56536 22431
" />
<path d="M56536 22431
L56063 22431
" />
<path d="M56063 22431
L56063 21643
" />
<path d="M58622 21643
L59095 21643
" />
<path d="M59095 21643
L59095 22431
" />
<path d="M59095 22431
L58622 22431
" />
<path d="M58622 22431
L58622 21643
" />
<path d="M61181 22431
L61181 21643
" />
<path d="M61654 22431
L61181 22431
" />
<path d="M61654 21643
L61654 22431
" />
<path d="M61181 21643
L61654 21643
" />
<path d="M63741 21643
L64213 21643
" />
<path d="M64213 21643
L64213 22431
" />
<path d="M64213 22431
L63741 22431
" />
<path d="M63741 22431
L63741 21643
" />
<path d="M66300 22431
L66300 21643
" />
<path d="M66772 22431
L66300 22431
" />
<path d="M66772 21643
L66772 22431
" />
<path d="M66300 21643
L66772 21643
" />
<path d="M79115 25826
L76634 25826
" />
<path d="M76634 25826
L76241 26220
" />
<path d="M76241 26220
L76241 27519
" />
<path d="M76241 27519
L79115 27519
" />
<path d="M79115 27519
L79115 25826
" />
<path d="M79075 30649
L76595 30649
" />
<path d="M76595 30649
L76201 31043
" />
<path d="M76201 31043
L76201 32342
" />
<path d="M76201 32342
L79075 32342
" />
<path d="M79075 32342
L79075 30649
" />
<path d="M79075 39035
L79075 37342
" />
<path d="M76201 39035
L79075 39035
" />
<path d="M76201 37736
L76201 39035
" />
<path d="M76595 37342
L76201 37736
" />
<path d="M79075 37342
L76595 37342
" />
<path d="M74764 41354
L54764 41354
" />
<path d="M74764 39354
L74764 41354
" />
<path d="M55158 39354
L74764 39354
" />
<path d="M54764 39748
L55158 39354
" />
<path d="M54764 41354
L54764 39748
" />
</g>
<g style="fill:#000084; fill-opacity:0.0; 
stroke:#000084; stroke-width:59.0551; stroke-opacity:1; 
stroke-linecap:round; stroke-linejoin:round;">
<path d="M59074 35414
L59074 35189
" />
<path d="M59074 35301
L59468 35301
L59412 35264
L59374 35226
L59355 35189
" />
<path d="M59468 35658
L59468 35695
L59449 35733
L59430 35751
L59393 35770
L59318 35789
L59224 35789
L59149 35770
L59112 35751
L59093 35733
L59074 35695
L59074 35658
L59093 35620
L59112 35601
L59149 35583
L59224 35564
L59318 35564
L59393 35583
L59430 35601
L59449 35620
L59468 35658
" />
<path d="M59468 36032
L59468 36070
L59449 36107
L59430 36126
L59393 36145
L59318 36164
L59224 36164
L59149 36145
L59112 36126
L59093 36107
L59074 36070
L59074 36032
L59093 35995
L59112 35976
L59149 35958
L59224 35939
L59318 35939
L59393 35958
L59430 35976
L59449 35995
L59468 36032
" />
<path d="M59337 36332
L59074 36332
" />
<path d="M59299 36332
L59318 36351
L59337 36389
L59337 36445
L59318 36482
L59280 36501
L59074 36501
" />
<path d="M59280 36820
L59280 36689
" />
<path d="M59074 36689
L59468 36689
L59468 36876
" />
<path d="M60058 35414
L60058 35189
" />
<path d="M60058 35301
L60452 35301
L60396 35264
L60358 35226
L60340 35189
" />
<path d="M60452 35658
L60452 35695
L60433 35733
L60415 35751
L60377 35770
L60302 35789
L60208 35789
L60133 35770
L60096 35751
L60077 35733
L60058 35695
L60058 35658
L60077 35620
L60096 35601
L60133 35583
L60208 35564
L60302 35564
L60377 35583
L60415 35601
L60433 35620
L60452 35658
" />
<path d="M60452 36032
L60452 36070
L60433 36107
L60415 36126
L60377 36145
L60302 36164
L60208 36164
L60133 36145
L60096 36126
L60077 36107
L60058 36070
L60058 36032
L60077 35995
L60096 35976
L60133 35958
L60208 35939
L60302 35939
L60377 35958
L60415 35976
L60433 35995
L60452 36032
" />
<path d="M60321 36332
L60058 36332
" />
<path d="M60283 36332
L60302 36351
L60321 36389
L60321 36445
L60302 36482
L60265 36501
L60058 36501
" />
<path d="M60265 36820
L60265 36689
" />
<path d="M60058 36689
L60452 36689
L60452 36876
" />
<path d="M61043 35414
L61043 35189
" />
<path d="M61043 35301
L61436 35301
L61380 35264
L61343 35226
L61324 35189
" />
<path d="M61436 35658
L61436 35695
L61418 35733
L61399 35751
L61361 35770
L61286 35789
L61193 35789
L61118 35770
L61080 35751
L61061 35733
L61043 35695
L61043 35658
L61061 35620
L61080 35601
L61118 35583
L61193 35564
L61286 35564
L61361 35583
L61399 35601
L61418 35620
L61436 35658
" />
<path d="M61436 36032
L61436 36070
L61418 36107
L61399 36126
L61361 36145
L61286 36164
L61193 36164
L61118 36145
L61080 36126
L61061 36107
L61043 36070
L61043 36032
L61061 35995
L61080 35976
L61118 35958
L61193 35939
L61286 35939
L61361 35958
L61399 35976
L61418 35995
L61436 36032
" />
<path d="M61305 36332
L61043 36332
" />
<path d="M61268 36332
L61286 36351
L61305 36389
L61305 36445
L61286 36482
L61249 36501
L61043 36501
" />
<path d="M61249 36820
L61249 36689
" />
<path d="M61043 36689
L61436 36689
L61436 36876
" />
<path d="M62027 35414
L62027 35189
" />
<path d="M62027 35301
L62421 35301
L62364 35264
L62327 35226
L62308 35189
" />
<path d="M62421 35658
L62421 35695
L62402 35733
L62383 35751
L62346 35770
L62271 35789
L62177 35789
L62102 35770
L62064 35751
L62046 35733
L62027 35695
L62027 35658
L62046 35620
L62064 35601
L62102 35583
L62177 35564
L62271 35564
L62346 35583
L62383 35601
L62402 35620
L62421 35658
" />
<path d="M62421 36032
L62421 36070
L62402 36107
L62383 36126
L62346 36145
L62271 36164
L62177 36164
L62102 36145
L62064 36126
L62046 36107
L62027 36070
L62027 36032
L62046 35995
L62064 35976
L62102 35958
L62177 35939
L62271 35939
L62346 35958
L62383 35976
L62402 35995
L62421 36032
" />
<path d="M62289 36332
L62027 36332
" />
<path d="M62252 36332
L62271 36351
L62289 36389
L62289 36445
L62271 36482
L62233 36501
L62027 36501
" />
<path d="M62233 36820
L62233 36689
" />
<path d="M62027 36689
L62421 36689
L62421 36876
" />
<path d="M63011 35414
L63011 35189
" />
<path d="M63011 35301
L63405 35301
L63349 35264
L63311 35226
L63292 35189
" />
<path d="M63405 35658
L63405 35695
L63386 35733
L63367 35751
L63330 35770
L63255 35789
L63161 35789
L63086 35770
L63049 35751
L63030 35733
L63011 35695
L63011 35658
L63030 35620
L63049 35601
L63086 35583
L63161 35564
L63255 35564
L63330 35583
L63367 35601
L63386 35620
L63405 35658
" />
<path d="M63405 36032
L63405 36070
L63386 36107
L63367 36126
L63330 36145
L63255 36164
L63161 36164
L63086 36145
L63049 36126
L63030 36107
L63011 36070
L63011 36032
L63030 35995
L63049 35976
L63086 35958
L63161 35939
L63255 35939
L63330 35958
L63367 35976
L63386 35995
L63405 36032
" />
<path d="M63274 36332
L63011 36332
" />
<path d="M63236 36332
L63255 36351
L63274 36389
L63274 36445
L63255 36482
L63217 36501
L63011 36501
" />
<path d="M63217 36820
L63217 36689
" />
<path d="M63011 36689
L63405 36689
L63405 36876
" />
<path d="M54312 35119
L54087 35119
" />
<path d="M54200 35119
L54200 34725
L54162 34781
L54125 34819
L54087 34837
" />
<path d="M54556 34725
L54594 34725
L54631 34744
L54650 34762
L54669 34800
L54687 34875
L54687 34969
L54669 35044
L54650 35081
L54631 35100
L54594 35119
L54556 35119
L54519 35100
L54500 35081
L54481 35044
L54462 34969
L54462 34875
L54481 34800
L54500 34762
L54519 34744
L54556 34725
" />
<path d="M54931 34725
L54968 34725
L55006 34744
L55025 34762
L55043 34800
L55062 34875
L55062 34969
L55043 35044
L55025 35081
L55006 35100
L54968 35119
L54931 35119
L54894 35100
L54875 35081
L54856 35044
L54837 34969
L54837 34875
L54856 34800
L54875 34762
L54894 34744
L54931 34725
" />
<path d="M55231 34856
L55231 35119
" />
<path d="M55231 34894
L55250 34875
L55287 34856
L55343 34856
L55381 34875
L55400 34912
L55400 35119
" />
<path d="M55718 34912
L55587 34912
" />
<path d="M55587 35119
L55587 34725
L55775 34725
" />
<path d="M54312 29607
L54087 29607
" />
<path d="M54200 29607
L54200 29213
L54162 29269
L54125 29307
L54087 29326
" />
<path d="M54556 29213
L54594 29213
L54631 29232
L54650 29251
L54669 29288
L54687 29363
L54687 29457
L54669 29532
L54650 29569
L54631 29588
L54594 29607
L54556 29607
L54519 29588
L54500 29569
L54481 29532
L54462 29457
L54462 29363
L54481 29288
L54500 29251
L54519 29232
L54556 29213
" />
<path d="M54931 29213
L54968 29213
L55006 29232
L55025 29251
L55043 29288
L55062 29363
L55062 29457
L55043 29532
L55025 29569
L55006 29588
L54968 29607
L54931 29607
L54894 29588
L54875 29569
L54856 29532
L54837 29457
L54837 29363
L54856 29288
L54875 29251
L54894 29232
L54931 29213
" />
<path d="M55231 29344
L55231 29607
" />
<path d="M55231 29382
L55250 29363
L55287 29344
L55343 29344
L55381 29363
L55400 29401
L55400 29607
" />
<path d="M55718 29401
L55587 29401
" />
<path d="M55587 29607
L55587 29213
L55775 29213
" />
<path d="M83840 24981
L83615 24981
" />
<path d="M83727 24981
L83727 24587
L83690 24643
L83652 24681
L83615 24700
" />
<path d="M84084 24587
L84121 24587
L84159 24606
L84177 24625
L84196 24662
L84215 24737
L84215 24831
L84196 24906
L84177 24943
L84159 24962
L84121 24981
L84084 24981
L84046 24962
L84027 24943
L84009 24906
L83990 24831
L83990 24737
L84009 24662
L84027 24625
L84046 24606
L84084 24587
" />
<path d="M84459 24587
L84496 24587
L84534 24606
L84552 24625
L84571 24662
L84590 24737
L84590 24831
L84571 24906
L84552 24943
L84534 24962
L84496 24981
L84459 24981
L84421 24962
L84402 24943
L84384 24906
L84365 24831
L84365 24737
L84384 24662
L84402 24625
L84421 24606
L84459 24587
" />
<path d="M84759 24718
L84759 24981
" />
<path d="M84759 24756
L84777 24737
L84815 24718
L84871 24718
L84909 24737
L84927 24775
L84927 24981
" />
<path d="M85246 24775
L85115 24775
" />
<path d="M85115 24981
L85115 24587
L85302 24587
" />
<path d="M83840 33052
L83615 33052
" />
<path d="M83727 33052
L83727 32658
L83690 32714
L83652 32752
L83615 32770
" />
<path d="M84084 32658
L84121 32658
L84159 32677
L84177 32695
L84196 32733
L84215 32808
L84215 32902
L84196 32977
L84177 33014
L84159 33033
L84121 33052
L84084 33052
L84046 33033
L84027 33014
L84009 32977
L83990 32902
L83990 32808
L84009 32733
L84027 32695
L84046 32677
L84084 32658
" />
<path d="M84459 32658
L84496 32658
L84534 32677
L84552 32695
L84571 32733
L84590 32808
L84590 32902
L84571 32977
L84552 33014
L84534 33033
L84496 33052
L84459 33052
L84421 33033
L84402 33014
L84384 32977
L84365 32902
L84365 32808
L84384 32733
L84402 32695
L84421 32677
L84459 32658
" />
<path d="M84759 32789
L84759 33052
" />
<path d="M84759 32827
L84777 32808
L84815 32789
L84871 32789
L84909 32808
L84927 32845
L84927 33052
" />
<path d="M85246 32845
L85115 32845
" />
<path d="M85115 33052
L85115 32658
L85302 32658
" />
<path d="M83840 41122
L83615 41122
" />
<path d="M83727 41122
L83727 40729
L83690 40785
L83652 40823
L83615 40841
" />
<path d="M84084 40729
L84121 40729
L84159 40748
L84177 40766
L84196 40804
L84215 40879
L84215 40973
L84196 41047
L84177 41085
L84159 41104
L84121 41122
L84084 41122
L84046 41104
L84027 41085
L84009 41047
L83990 40973
L83990 40879
L84009 40804
L84027 40766
L84046 40748
L84084 40729
" />
<path d="M84459 40729
L84496 40729
L84534 40748
L84552 40766
L84571 40804
L84590 40879
L84590 40973
L84571 41047
L84552 41085
L84534 41104
L84496 41122
L84459 41122
L84421 41104
L84402 41085
L84384 41047
L84365 40973
L84365 40879
L84384 40804
L84402 40766
L84421 40748
L84459 40729
" />
<path d="M84759 40860
L84759 41122
" />
<path d="M84759 40898
L84777 40879
L84815 40860
L84871 40860
L84909 40879
L84927 40916
L84927 41122
" />
<path d="M85246 40916
L85115 40916
" />
<path d="M85115 41122
L85115 40729
L85302 40729
" />
<path d="M68159 27442
L68216 27461
L68309 27461
L68347 27442
L68366 27424
L68384 27386
L68384 27349
L68366 27311
L68347 27292
L68309 27274
L68234 27255
L68197 27236
L68178 27217
L68159 27180
L68159 27142
L68178 27105
L68197 27086
L68234 27067
L68328 27067
L68384 27086
" />
<path d="M68722 27442
L68684 27461
L68609 27461
L68572 27442
L68553 27424
L68534 27386
L68534 27274
L68553 27236
L68572 27217
L68609 27199
L68684 27199
L68722 27217
" />
<path d="M68891 27461
L68891 27067
" />
<path d="M69059 27461
L69059 27255
L69040 27217
L69003 27199
L68947 27199
L68909 27217
L68891 27236
" />
<path d="M69303 27461
L69265 27442
L69247 27424
L69228 27386
L69228 27274
L69247 27236
L69265 27217
L69303 27199
L69359 27199
L69397 27217
L69415 27236
L69434 27274
L69434 27386
L69415 27424
L69397 27442
L69359 27461
L69303 27461
" />
<path d="M69547 27199
L69697 27199
" />
<path d="M69603 27067
L69603 27405
L69622 27442
L69659 27461
L69697 27461
" />
<path d="M69772 27199
L69922 27199
" />
<path d="M69828 27067
L69828 27405
L69847 27442
L69884 27461
L69922 27461
" />
<path d="M70053 27461
L70053 27067
" />
<path d="M70090 27311
L70203 27461
" />
<path d="M70203 27199
L70053 27349
" />
<path d="M70334 27199
L70428 27461
" />
<path d="M70522 27199
L70428 27461
L70390 27555
L70372 27574
L70334 27592
" />
<path d="M69087 33524
L68862 33524
" />
<path d="M68975 33524
L68975 33130
L68937 33187
L68900 33224
L68862 33243
" />
<path d="M69425 33262
L69425 33524
" />
<path d="M69331 33112
L69237 33393
L69481 33393
" />
<path d="M69575 33130
L69706 33524
L69837 33130
" />
<path d="M55681 23898
L55456 23898
" />
<path d="M55568 23898
L55568 23504
L55531 23561
L55493 23598
L55456 23617
" />
<path d="M55925 23504
L55962 23504
L56000 23523
L56018 23542
L56037 23579
L56056 23654
L56056 23748
L56037 23823
L56018 23861
L56000 23879
L55962 23898
L55925 23898
L55887 23879
L55868 23861
L55850 23823
L55831 23748
L55831 23654
L55850 23579
L55868 23542
L55887 23523
L55925 23504
" />
<path d="M56300 23504
L56337 23504
L56375 23523
L56393 23542
L56412 23579
L56431 23654
L56431 23748
L56412 23823
L56393 23861
L56375 23879
L56337 23898
L56300 23898
L56262 23879
L56243 23861
L56225 23823
L56206 23748
L56206 23654
L56225 23579
L56243 23542
L56262 23523
L56300 23504
" />
<path d="M56600 23898
L56600 23504
" />
<path d="M56637 23748
L56750 23898
" />
<path d="M56750 23636
L56600 23786
" />
<path d="M57143 23898
L57012 23711
" />
<path d="M56918 23898
L56918 23504
L57068 23504
L57106 23523
L57124 23542
L57143 23579
L57143 23636
L57124 23673
L57106 23692
L57068 23711
L56918 23711
" />
<path d="M58240 23898
L58015 23898
" />
<path d="M58127 23898
L58127 23504
L58090 23561
L58052 23598
L58015 23617
" />
<path d="M58484 23504
L58521 23504
L58559 23523
L58577 23542
L58596 23579
L58615 23654
L58615 23748
L58596 23823
L58577 23861
L58559 23879
L58521 23898
L58484 23898
L58446 23879
L58427 23861
L58409 23823
L58390 23748
L58390 23654
L58409 23579
L58427 23542
L58446 23523
L58484 23504
" />
<path d="M58859 23504
L58896 23504
L58934 23523
L58952 23542
L58971 23579
L58990 23654
L58990 23748
L58971 23823
L58952 23861
L58934 23879
L58896 23898
L58859 23898
L58821 23879
L58802 23861
L58784 23823
L58765 23748
L58765 23654
L58784 23579
L58802 23542
L58821 23523
L58859 23504
" />
<path d="M59159 23898
L59159 23504
" />
<path d="M59196 23748
L59309 23898
" />
<path d="M59309 23636
L59159 23786
" />
<path d="M59702 23898
L59571 23711
" />
<path d="M59477 23898
L59477 23504
L59627 23504
L59665 23523
L59684 23542
L59702 23579
L59702 23636
L59684 23673
L59665 23692
L59627 23711
L59477 23711
" />
<path d="M60799 23898
L60574 23898
" />
<path d="M60687 23898
L60687 23504
L60649 23561
L60612 23598
L60574 23617
" />
<path d="M61043 23504
L61080 23504
L61118 23523
L61136 23542
L61155 23579
L61174 23654
L61174 23748
L61155 23823
L61136 23861
L61118 23879
L61080 23898
L61043 23898
L61005 23879
L60986 23861
L60968 23823
L60949 23748
L60949 23654
L60968 23579
L60986 23542
L61005 23523
L61043 23504
" />
<path d="M61418 23504
L61455 23504
L61493 23523
L61511 23542
L61530 23579
L61549 23654
L61549 23748
L61530 23823
L61511 23861
L61493 23879
L61455 23898
L61418 23898
L61380 23879
L61361 23861
L61343 23823
L61324 23748
L61324 23654
L61343 23579
L61361 23542
L61380 23523
L61418 23504
" />
<path d="M61718 23898
L61718 23504
" />
<path d="M61755 23748
L61868 23898
" />
<path d="M61868 23636
L61718 23786
" />
<path d="M62261 23898
L62130 23711
" />
<path d="M62036 23898
L62036 23504
L62186 23504
L62224 23523
L62243 23542
L62261 23579
L62261 23636
L62243 23673
L62224 23692
L62186 23711
L62036 23711
" />
<path d="M63358 23898
L63133 23898
" />
<path d="M63246 23898
L63246 23504
L63208 23561
L63171 23598
L63133 23617
" />
<path d="M63602 23504
L63639 23504
L63677 23523
L63696 23542
L63714 23579
L63733 23654
L63733 23748
L63714 23823
L63696 23861
L63677 23879
L63639 23898
L63602 23898
L63564 23879
L63546 23861
L63527 23823
L63508 23748
L63508 23654
L63527 23579
L63546 23542
L63564 23523
L63602 23504
" />
<path d="M63977 23504
L64014 23504
L64052 23523
L64070 23542
L64089 23579
L64108 23654
L64108 23748
L64089 23823
L64070 23861
L64052 23879
L64014 23898
L63977 23898
L63939 23879
L63921 23861
L63902 23823
L63883 23748
L63883 23654
L63902 23579
L63921 23542
L63939 23523
L63977 23504
" />
<path d="M64277 23898
L64277 23504
" />
<path d="M64314 23748
L64427 23898
" />
<path d="M64427 23636
L64277 23786
" />
<path d="M64820 23898
L64689 23711
" />
<path d="M64595 23898
L64595 23504
L64745 23504
L64783 23523
L64802 23542
L64820 23579
L64820 23636
L64802 23673
L64783 23692
L64745 23711
L64595 23711
" />
<path d="M65917 23898
L65692 23898
" />
<path d="M65805 23898
L65805 23504
L65767 23561
L65730 23598
L65692 23617
" />
<path d="M66161 23504
L66198 23504
L66236 23523
L66255 23542
L66273 23579
L66292 23654
L66292 23748
L66273 23823
L66255 23861
L66236 23879
L66198 23898
L66161 23898
L66123 23879
L66105 23861
L66086 23823
L66067 23748
L66067 23654
L66086 23579
L66105 23542
L66123 23523
L66161 23504
" />
<path d="M66536 23504
L66573 23504
L66611 23523
L66630 23542
L66648 23579
L66667 23654
L66667 23748
L66648 23823
L66630 23861
L66611 23879
L66573 23898
L66536 23898
L66498 23879
L66480 23861
L66461 23823
L66442 23748
L66442 23654
L66461 23579
L66480 23542
L66498 23523
L66536 23504
" />
<path d="M66836 23898
L66836 23504
" />
<path d="M66873 23748
L66986 23898
" />
<path d="M66986 23636
L66836 23786
" />
<path d="M67379 23898
L67248 23711
" />
<path d="M67154 23898
L67154 23504
L67304 23504
L67342 23523
L67361 23542
L67379 23579
L67379 23636
L67361 23673
L67342 23692
L67304 23711
L67154 23711
" />
<path d="M77040 28130
L76815 28130
" />
<path d="M76928 28130
L76928 27737
L76890 27793
L76853 27830
L76815 27849
" />
<path d="M77284 27737
L77321 27737
L77359 27755
L77378 27774
L77396 27812
L77415 27887
L77415 27980
L77396 28055
L77378 28093
L77359 28112
L77321 28130
L77284 28130
L77246 28112
L77228 28093
L77209 28055
L77190 27980
L77190 27887
L77209 27812
L77228 27774
L77246 27755
L77284 27737
" />
<path d="M77659 27737
L77696 27737
L77734 27755
L77753 27774
L77771 27812
L77790 27887
L77790 27980
L77771 28055
L77753 28093
L77734 28112
L77696 28130
L77659 28130
L77621 28112
L77603 28093
L77584 28055
L77565 27980
L77565 27887
L77584 27812
L77603 27774
L77621 27755
L77659 27737
" />
<path d="M77959 27868
L77959 28262
" />
<path d="M78146 28074
L78165 28112
L78202 28130
" />
<path d="M77959 28074
L77977 28112
L78015 28130
L78090 28130
L78127 28112
L78146 28074
L78146 27868
" />
<path d="M78502 27924
L78371 27924
" />
<path d="M78371 28130
L78371 27737
L78559 27737
" />
<path d="M77001 32953
L76776 32953
" />
<path d="M76888 32953
L76888 32559
L76851 32616
L76813 32653
L76776 32672
" />
<path d="M77244 32559
L77282 32559
L77319 32578
L77338 32597
L77357 32634
L77376 32709
L77376 32803
L77357 32878
L77338 32916
L77319 32934
L77282 32953
L77244 32953
L77207 32934
L77188 32916
L77169 32878
L77151 32803
L77151 32709
L77169 32634
L77188 32597
L77207 32578
L77244 32559
" />
<path d="M77619 32559
L77657 32559
L77694 32578
L77713 32597
L77732 32634
L77751 32709
L77751 32803
L77732 32878
L77713 32916
L77694 32934
L77657 32953
L77619 32953
L77582 32934
L77563 32916
L77544 32878
L77526 32803
L77526 32709
L77544 32634
L77563 32597
L77582 32578
L77619 32559
" />
<path d="M77919 32691
L77919 33084
" />
<path d="M78107 32897
L78126 32934
L78163 32953
" />
<path d="M77919 32897
L77938 32934
L77976 32953
L78051 32953
L78088 32934
L78107 32897
L78107 32691
" />
<path d="M78463 32747
L78332 32747
" />
<path d="M78332 32953
L78332 32559
L78519 32559
" />
<path d="M77001 39646
L76776 39646
" />
<path d="M76888 39646
L76888 39252
L76851 39309
L76813 39346
L76776 39365
" />
<path d="M77244 39252
L77282 39252
L77319 39271
L77338 39290
L77357 39327
L77376 39402
L77376 39496
L77357 39571
L77338 39609
L77319 39627
L77282 39646
L77244 39646
L77207 39627
L77188 39609
L77169 39571
L77151 39496
L77151 39402
L77169 39327
L77188 39290
L77207 39271
L77244 39252
" />
<path d="M77619 39252
L77657 39252
L77694 39271
L77713 39290
L77732 39327
L77751 39402
L77751 39496
L77732 39571
L77713 39609
L77694 39627
L77657 39646
L77619 39646
L77582 39627
L77563 39609
L77544 39571
L77526 39496
L77526 39402
L77544 39327
L77563 39290
L77582 39271
L77619 39252
" />
<path d="M77919 39384
L77919 39777
" />
<path d="M78107 39590
L78126 39627
L78163 39646
" />
<path d="M77919 39590
L77938 39627
L77976 39646
L78051 39646
L78088 39627
L78107 39590
L78107 39384
" />
<path d="M78463 39440
L78332 39440
" />
<path d="M78332 39646
L78332 39252
L78519 39252
" />
<path d="M66873 38920
L66855 38938
L66798 38957
L66761 38957
L66705 38938
L66667 38901
L66648 38863
L66630 38788
L66630 38732
L66648 38657
L66667 38620
L66705 38582
L66761 38563
L66798 38563
L66855 38582
L66873 38601
" />
<path d="M67098 38957
L67061 38938
L67042 38920
L67023 38882
L67023 38770
L67042 38732
L67061 38713
L67098 38695
L67154 38695
L67192 38713
L67211 38732
L67229 38770
L67229 38882
L67211 38920
L67192 38938
L67154 38957
L67098 38957
" />
<path d="M67398 38695
L67398 38957
" />
<path d="M67398 38732
L67417 38713
L67454 38695
L67511 38695
L67548 38713
L67567 38751
L67567 38957
" />
<path d="M67754 38695
L67754 38957
" />
<path d="M67754 38732
L67773 38713
L67811 38695
L67867 38695
L67904 38713
L67923 38751
L67923 38957
" />
<path d="M68017 38995
L68317 38995
" />
<path d="M68486 38563
L68523 38563
L68561 38582
L68579 38601
L68598 38638
L68617 38713
L68617 38807
L68598 38882
L68579 38920
L68561 38938
L68523 38957
L68486 38957
L68448 38938
L68429 38920
L68411 38882
L68392 38807
L68392 38713
L68411 38638
L68429 38601
L68448 38582
L68486 38563
" />
<path d="M68767 38601
L68786 38582
L68823 38563
L68917 38563
L68954 38582
L68973 38601
L68992 38638
L68992 38676
L68973 38732
L68748 38957
L68992 38957
" />
<path d="M69123 38957
L69329 38695
" />
<path d="M69123 38695
L69329 38957
" />
<path d="M69460 38601
L69479 38582
L69517 38563
L69610 38563
L69648 38582
L69667 38601
L69685 38638
L69685 38676
L69667 38732
L69442 38957
L69685 38957
" />
<path d="M69929 38563
L69967 38563
L70004 38582
L70023 38601
L70042 38638
L70060 38713
L70060 38807
L70042 38882
L70023 38920
L70004 38938
L69967 38957
L69929 38957
L69892 38938
L69873 38920
L69854 38882
L69835 38807
L69835 38713
L69854 38638
L69873 38601
L69892 38582
L69929 38563
" />
<path d="M70135 38995
L70435 38995
" />
<path d="M70604 38563
L70679 38563
L70717 38582
L70754 38620
L70773 38695
L70773 38826
L70754 38901
L70717 38938
L70679 38957
L70604 38957
L70567 38938
L70529 38901
L70510 38826
L70510 38695
L70529 38620
L70567 38582
L70604 38563
" />
<path d="M71110 38957
L71110 38563
" />
<path d="M71110 38938
L71073 38957
L70998 38957
L70960 38938
L70941 38920
L70923 38882
L70923 38770
L70941 38732
L70960 38713
L70998 38695
L71073 38695
L71110 38713
" />
<path d="M71466 38957
L71466 38563
" />
<path d="M71466 38938
L71429 38957
L71354 38957
L71316 38938
L71298 38920
L71279 38882
L71279 38770
L71298 38732
L71316 38713
L71354 38695
L71429 38695
L71466 38713
" />
<path d="M71560 38995
L71860 38995
" />
<path d="M71954 38751
L72085 38751
" />
<path d="M72141 38957
L71954 38957
L71954 38563
L72141 38563
" />
<path d="M72273 38695
L72366 38957
L72460 38695
" />
<path d="M72760 38938
L72723 38957
L72648 38957
L72610 38938
L72591 38901
L72591 38751
L72610 38713
L72648 38695
L72723 38695
L72760 38713
L72779 38751
L72779 38788
L72591 38826
" />
<path d="M72947 38695
L72947 38957
" />
<path d="M72947 38732
L72966 38713
L73004 38695
L73060 38695
L73097 38713
L73116 38751
L73116 38957
" />
</g>
<g style="fill:#000000; fill-opacity:0.0; 
stroke:#000000; stroke-width:59.0551; stroke-opacity:1; 
stroke-linecap:round; stroke-linejoin:round;">
</g>
<g style="fill:#848484; fill-opacity:0.0; 
stroke:#848484; stroke-width:59.0551; stroke-opacity:1; 
stroke-linecap:round; stroke-linejoin:round;">
</g>
<g style="fill:#848484; fill-opacity:0.0; 
stroke:#848484; stroke-width:19.685; stroke-opacity:1; 
stroke-linecap:round; stroke-linejoin:round;">
<path d="M59626 37667
L59626 39124
" />
<path d="M58878 37667
L59626 37667
" />
<path d="M58878 39124
L58878 37667
" />
<path d="M59626 39124
L58878 39124
" />
<path d="M60611 39124
L59863 39124
" />
<path d="M59863 39124
L59863 37667
" />
<path d="M59863 37667
L60611 37667
" />
<path d="M60611 37667
L60611 39124
" />
<path d="M61595 39124
L60847 39124
" />
<path d="M60847 39124
L60847 37667
" />
<path d="M60847 37667
L61595 37667
" />
<path d="M61595 37667
L61595 39124
" />
<path d="M62579 37667
L62579 39124
" />
<path d="M61831 37667
L62579 37667
" />
<path d="M61831 39124
L61831 37667
" />
<path d="M62579 39124
L61831 39124
" />
<path d="M63563 37667
L63563 39124
" />
<path d="M62815 37667
L63563 37667
" />
<path d="M62815 39124
L62815 37667
" />
<path d="M63563 39124
L62815 39124
" />
<path d="M55296 36761
L54548 36761
" />
<path d="M54548 36761
L54548 35305
" />
<path d="M54548 35305
L55296 35305
" />
<path d="M55296 35305
L55296 36761
" />
<path d="M55296 31250
L54548 31250
" />
<path d="M54548 31250
L54548 29793
" />
<path d="M54548 29793
L55296 29793
" />
<path d="M55296 29793
L55296 31250
" />
<path d="M85168 24389
L83711 24389
" />
<path d="M85168 23641
L85168 24389
" />
<path d="M83711 23641
L85168 23641
" />
<path d="M83711 24389
L83711 23641
" />
<path d="M83731 32460
L83731 31712
" />
<path d="M83731 31712
L85187 31712
" />
<path d="M85187 31712
L85187 32460
" />
<path d="M85187 32460
L83731 32460
" />
<path d="M85187 40531
L83731 40531
" />
<path d="M85187 39783
L85187 40531
" />
<path d="M83731 39783
L85187 39783
" />
<path d="M83731 40531
L83731 39783
" />
<path d="M66615 27618
L72048 27618
" />
<path d="M72048 27618
L72048 30255
" />
<path d="M72048 30255
L66615 30255
" />
<path d="M66615 30255
L66615 27618
" />
<path d="M66615 33011
L66615 30374
" />
<path d="M72048 33011
L66615 33011
" />
<path d="M72048 30374
L72048 33011
" />
<path d="M66615 30374
L72048 30374
" />
<path d="M55926 21309
L56674 21309
" />
<path d="M56674 21309
L56674 22765
" />
<path d="M56674 22765
L55926 22765
" />
<path d="M55926 22765
L55926 21309
" />
<path d="M58485 21309
L59233 21309
" />
<path d="M59233 21309
L59233 22765
" />
<path d="M59233 22765
L58485 22765
" />
<path d="M58485 22765
L58485 21309
" />
<path d="M61044 22765
L61044 21309
" />
<path d="M61792 22765
L61044 22765
" />
<path d="M61792 21309
L61792 22765
" />
<path d="M61044 21309
L61792 21309
" />
<path d="M63603 21309
L64351 21309
" />
<path d="M64351 21309
L64351 22765
" />
<path d="M64351 22765
L63603 22765
" />
<path d="M63603 22765
L63603 21309
" />
<path d="M66162 22765
L66162 21309
" />
<path d="M66910 22765
L66162 22765
" />
<path d="M66910 21309
L66910 22765
" />
<path d="M66162 21309
L66910 21309
" />
<path d="M75874 27618
L75874 25728
" />
<path d="M75874 25728
L79481 25728
" />
<path d="M79481 25728
L79481 27618
" />
<path d="M79481 27618
L75874 27618
" />
<path d="M75835 32440
L75835 30551
" />
<path d="M75835 30551
L79441 30551
" />
<path d="M79441 30551
L79441 32440
" />
<path d="M79441 32440
L75835 32440
" />
<path d="M79441 39133
L75835 39133
" />
<path d="M79441 37244
L79441 39133
" />
<path d="M75835 37244
L79441 37244
" />
<path d="M75835 39133
L75835 37244
" />
<path d="M74949 41562
L54555 41562
" />
<path d="M74949 39161
L74949 41562
" />
<path d="M54555 39161
L74949 39161
" />
<path d="M54555 41562
L54555 39161
" />
</g>
<g style="fill:#000000; fill-opacity:0.0; 
stroke:#000000; stroke-width:19.685; stroke-opacity:1; 
stroke-linecap:round; stroke-linejoin:round;">
</g>
<g style="fill:#840084; fill-opacity:0.0; 
stroke:#840084; stroke-width:19.685; stroke-opacity:1; 
stroke-linecap:round; stroke-linejoin:round;">
</g>
<g style="fill:#840084; fill-opacity:0.0; 
stroke:#840084; stroke-width:47.2441; stroke-opacity:1; 
stroke-linecap:round; stroke-linejoin:round;">
<path d="M59532 38498
L59532 38292
" />
<path d="M58973 38498
L58973 38292
" />
<path d="M59957 38498
L59957 38292
" />
<path d="M60516 38498
L60516 38292
" />
<path d="M60941 38498
L60941 38292
" />
<path d="M61500 38498
L61500 38292
" />
<path d="M62485 38498
L62485 38292
" />
<path d="M61926 38498
L61926 38292
" />
<path d="M63469 38498
L63469 38292
" />
<path d="M62910 38498
L62910 38292
" />
<path d="M54642 36136
L54642 35930
" />
<path d="M55201 36136
L55201 35930
" />
<path d="M54642 30624
L54642 30418
" />
<path d="M55201 30624
L55201 30418
" />
<path d="M84336 24295
L84542 24295
" />
<path d="M84336 23736
L84542 23736
" />
<path d="M84356 31807
L84562 31807
" />
<path d="M84356 32366
L84562 32366
" />
<path d="M84356 40437
L84562 40437
" />
<path d="M84356 39877
L84562 39877
" />
<path d="M66654 30216
L66654 27657
" />
<path d="M66654 30216
L71063 30216
" />
<path d="M66654 27657
L71063 27657
" />
<path d="M66654 30413
L71063 30413
" />
<path d="M66654 32972
L71063 32972
" />
<path d="M66654 32972
L66654 30413
" />
<path d="M56579 21934
L56579 22140
" />
<path d="M56020 21934
L56020 22140
" />
<path d="M59138 21934
L59138 22140
" />
<path d="M58579 21934
L58579 22140
" />
<path d="M61138 21934
L61138 22140
" />
<path d="M61697 21934
L61697 22140
" />
<path d="M64256 21934
L64256 22140
" />
<path d="M63697 21934
L63697 22140
" />
<path d="M66256 21934
L66256 22140
" />
<path d="M66815 21934
L66815 22140
" />
<path d="M79115 25783
L75872 25783
" />
<path d="M75872 25783
L75872 27562
" />
<path d="M75872 27562
L79115 27562
" />
<path d="M79075 30606
L75833 30606
" />
<path d="M75833 30606
L75833 32385
" />
<path d="M75833 32385
L79075 32385
" />
<path d="M75833 39078
L79075 39078
" />
<path d="M75833 37299
L75833 39078
" />
<path d="M79075 37299
L75833 37299
" />
<path d="M54741 39854
L54741 39330
" />
<path d="M54741 39330
L55264 39330
" />
<path d="M54741 40354
L55764 40354
" />
<path d="M55764 40354
L55764 39330
" />
<path d="M55764 39330
L74788 39330
" />
<path d="M74788 41377
L74788 39330
" />
<path d="M54741 41377
L74788 41377
" />
<path d="M54741 41377
L54741 40354
" />
</g>
<g style="fill:#840084; fill-opacity:0.0; 
stroke:#840084; stroke-width:59.0551; stroke-opacity:1; 
stroke-linecap:round; stroke-linejoin:round;">
<path d="M59187 37443
L59168 37462
L59112 37481
L59074 37481
L59018 37462
L58980 37425
L58962 37387
L58943 37312
L58943 37256
L58962 37181
L58980 37143
L59018 37106
L59074 37087
L59112 37087
L59168 37106
L59187 37125
" />
<path d="M59562 37481
L59337 37481
" />
<path d="M59449 37481
L59449 37087
L59412 37143
L59374 37181
L59337 37200
" />
<path d="M60171 37443
L60152 37462
L60096 37481
L60058 37481
L60002 37462
L59965 37425
L59946 37387
L59927 37312
L59927 37256
L59946 37181
L59965 37143
L60002 37106
L60058 37087
L60096 37087
L60152 37106
L60171 37125
" />
<path d="M60321 37125
L60340 37106
L60377 37087
L60471 37087
L60508 37106
L60527 37125
L60546 37162
L60546 37200
L60527 37256
L60302 37481
L60546 37481
" />
<path d="M61155 37443
L61136 37462
L61080 37481
L61043 37481
L60986 37462
L60949 37425
L60930 37387
L60912 37312
L60912 37256
L60930 37181
L60949 37143
L60986 37106
L61043 37087
L61080 37087
L61136 37106
L61155 37125
" />
<path d="M61286 37087
L61530 37087
L61399 37237
L61455 37237
L61493 37256
L61511 37275
L61530 37312
L61530 37406
L61511 37443
L61493 37462
L61455 37481
L61343 37481
L61305 37462
L61286 37443
" />
<path d="M62139 37443
L62121 37462
L62064 37481
L62027 37481
L61971 37462
L61933 37425
L61915 37387
L61896 37312
L61896 37256
L61915 37181
L61933 37143
L61971 37106
L62027 37087
L62064 37087
L62121 37106
L62139 37125
" />
<path d="M62477 37218
L62477 37481
" />
<path d="M62383 37068
L62289 37350
L62533 37350
" />
<path d="M63124 37443
L63105 37462
L63049 37481
L63011 37481
L62955 37462
L62918 37425
L62899 37387
L62880 37312
L62880 37256
L62899 37181
L62918 37143
L62955 37106
L63011 37087
L63049 37087
L63105 37106
L63124 37125
" />
<path d="M63480 37087
L63292 37087
L63274 37275
L63292 37256
L63330 37237
L63424 37237
L63461 37256
L63480 37275
L63499 37312
L63499 37406
L63480 37443
L63461 37462
L63424 37481
L63330 37481
L63292 37462
L63274 37443
" />
<path d="M54856 37345
L54837 37364
L54781 37382
L54744 37382
L54687 37364
L54650 37326
L54631 37289
L54612 37214
L54612 37157
L54631 37082
L54650 37045
L54687 37007
L54744 36989
L54781 36989
L54837 37007
L54856 37026
" />
<path d="M55193 36989
L55118 36989
L55081 37007
L55062 37026
L55025 37082
L55006 37157
L55006 37307
L55025 37345
L55043 37364
L55081 37382
L55156 37382
L55193 37364
L55212 37345
L55231 37307
L55231 37214
L55212 37176
L55193 37157
L55156 37139
L55081 37139
L55043 37157
L55025 37176
L55006 37214
" />
<path d="M54856 31833
L54837 31852
L54781 31871
L54744 31871
L54687 31852
L54650 31814
L54631 31777
L54612 31702
L54612 31646
L54631 31571
L54650 31533
L54687 31496
L54744 31477
L54781 31477
L54837 31496
L54856 31514
" />
<path d="M54987 31477
L55250 31477
L55081 31871
" />
<path d="M84196 23368
L84177 23387
L84121 23406
L84084 23406
L84027 23387
L83990 23350
L83971 23312
L83952 23237
L83952 23181
L83971 23106
L83990 23068
L84027 23031
L84084 23012
L84121 23012
L84177 23031
L84196 23050
" />
<path d="M84571 23406
L84346 23406
" />
<path d="M84459 23406
L84459 23012
L84421 23068
L84384 23106
L84346 23125
" />
<path d="M84721 23050
L84740 23031
L84777 23012
L84871 23012
L84909 23031
L84927 23050
L84946 23087
L84946 23125
L84927 23181
L84702 23406
L84946 23406
" />
<path d="M84206 31439
L84187 31458
L84131 31477
L84093 31477
L84037 31458
L84000 31421
L83981 31383
L83962 31308
L83962 31252
L83981 31177
L84000 31139
L84037 31102
L84093 31083
L84131 31083
L84187 31102
L84206 31121
" />
<path d="M84581 31477
L84356 31477
" />
<path d="M84468 31477
L84468 31083
L84431 31139
L84393 31177
L84356 31196
" />
<path d="M84712 31083
L84956 31083
L84825 31233
L84881 31233
L84918 31252
L84937 31271
L84956 31308
L84956 31402
L84937 31439
L84918 31458
L84881 31477
L84768 31477
L84731 31458
L84712 31439
" />
<path d="M84196 39510
L84177 39529
L84121 39548
L84084 39548
L84027 39529
L83990 39491
L83971 39454
L83952 39379
L83952 39323
L83971 39248
L83990 39210
L84027 39173
L84084 39154
L84121 39154
L84177 39173
L84196 39191
" />
<path d="M84571 39548
L84346 39548
" />
<path d="M84459 39548
L84459 39154
L84421 39210
L84384 39248
L84346 39266
" />
<path d="M84909 39285
L84909 39548
" />
<path d="M84815 39135
L84721 39416
L84965 39416
" />
<path d="M69040 28524
L69040 28130
L69134 28130
L69190 28149
L69228 28187
L69247 28224
L69265 28299
L69265 28355
L69247 28430
L69228 28468
L69190 28505
L69134 28524
L69040 28524
" />
<path d="M69640 28524
L69415 28524
" />
<path d="M69528 28524
L69528 28130
L69490 28187
L69453 28224
L69415 28243
" />
<path d="M69040 31280
L69040 30886
L69134 30886
L69190 30905
L69228 30943
L69247 30980
L69265 31055
L69265 31111
L69247 31186
L69228 31224
L69190 31261
L69134 31280
L69040 31280
" />
<path d="M69415 30924
L69434 30905
L69472 30886
L69565 30886
L69603 30905
L69622 30924
L69640 30961
L69640 30999
L69622 31055
L69397 31280
L69640 31280
" />
<path d="M56234 23308
L56103 23120
" />
<path d="M56009 23308
L56009 22914
L56159 22914
L56196 22933
L56215 22951
L56234 22989
L56234 23045
L56215 23083
L56196 23101
L56159 23120
L56009 23120
" />
<path d="M56609 23308
L56384 23308
" />
<path d="M56496 23308
L56496 22914
L56459 22970
L56421 23008
L56384 23026
" />
<path d="M58793 23308
L58662 23120
" />
<path d="M58568 23308
L58568 22914
L58718 22914
L58756 22933
L58774 22951
L58793 22989
L58793 23045
L58774 23083
L58756 23101
L58718 23120
L58568 23120
" />
<path d="M58943 22951
L58962 22933
L58999 22914
L59093 22914
L59130 22933
L59149 22951
L59168 22989
L59168 23026
L59149 23083
L58924 23308
L59168 23308
" />
<path d="M61352 23308
L61221 23120
" />
<path d="M61127 23308
L61127 22914
L61277 22914
L61315 22933
L61333 22951
L61352 22989
L61352 23045
L61333 23083
L61315 23101
L61277 23120
L61127 23120
" />
<path d="M61483 22914
L61727 22914
L61596 23064
L61652 23064
L61690 23083
L61708 23101
L61727 23139
L61727 23233
L61708 23270
L61690 23289
L61652 23308
L61540 23308
L61502 23289
L61483 23270
" />
<path d="M63911 23308
L63780 23120
" />
<path d="M63686 23308
L63686 22914
L63836 22914
L63874 22933
L63892 22951
L63911 22989
L63911 23045
L63892 23083
L63874 23101
L63836 23120
L63686 23120
" />
<path d="M64249 23045
L64249 23308
" />
<path d="M64155 22895
L64061 23176
L64305 23176
" />
<path d="M66470 23308
L66339 23120
" />
<path d="M66245 23308
L66245 22914
L66395 22914
L66433 22933
L66451 22951
L66470 22989
L66470 23045
L66451 23083
L66433 23101
L66395 23120
L66245 23120
" />
<path d="M66826 22914
L66639 22914
L66620 23101
L66639 23083
L66676 23064
L66770 23064
L66808 23083
L66826 23101
L66845 23139
L66845 23233
L66826 23270
L66808 23289
L66770 23308
L66676 23308
L66639 23289
L66620 23270
" />
<path d="M77612 26813
L77593 26832
L77537 26851
L77499 26851
L77443 26832
L77406 26795
L77387 26757
L77368 26682
L77368 26626
L77387 26551
L77406 26513
L77443 26476
L77499 26457
L77537 26457
L77593 26476
L77612 26495
" />
<path d="M77799 26851
L77874 26851
L77912 26832
L77931 26813
L77968 26757
L77987 26682
L77987 26532
L77968 26495
L77949 26476
L77912 26457
L77837 26457
L77799 26476
L77781 26495
L77762 26532
L77762 26626
L77781 26663
L77799 26682
L77837 26701
L77912 26701
L77949 26682
L77968 26663
L77987 26626
" />
<path d="M77385 31636
L77366 31655
L77310 31674
L77273 31674
L77216 31655
L77179 31617
L77160 31580
L77141 31505
L77141 31449
L77160 31374
L77179 31336
L77216 31299
L77273 31280
L77310 31280
L77366 31299
L77385 31317
" />
<path d="M77760 31674
L77535 31674
" />
<path d="M77648 31674
L77648 31280
L77610 31336
L77573 31374
L77535 31392
" />
<path d="M78004 31280
L78041 31280
L78079 31299
L78097 31317
L78116 31355
L78135 31430
L78135 31524
L78116 31599
L78097 31636
L78079 31655
L78041 31674
L78004 31674
L77966 31655
L77947 31636
L77929 31599
L77910 31524
L77910 31430
L77929 31355
L77947 31317
L77966 31299
L78004 31280
" />
<path d="M77385 38329
L77366 38348
L77310 38367
L77273 38367
L77216 38348
L77179 38310
L77160 38273
L77141 38198
L77141 38142
L77160 38067
L77179 38029
L77216 37992
L77273 37973
L77310 37973
L77366 37992
L77385 38010
" />
<path d="M77760 38367
L77535 38367
" />
<path d="M77648 38367
L77648 37973
L77610 38029
L77573 38067
L77535 38085
" />
<path d="M78135 38367
L77910 38367
" />
<path d="M78022 38367
L78022 37973
L77985 38029
L77947 38067
L77910 38085
" />
<path d="M53905 40138
L53905 40419
L53886 40476
L53848 40513
L53792 40532
L53755 40532
" />
<path d="M54148 40307
L54111 40288
L54092 40269
L54073 40232
L54073 40213
L54092 40176
L54111 40157
L54148 40138
L54223 40138
L54261 40157
L54280 40176
L54298 40213
L54298 40232
L54280 40269
L54261 40288
L54223 40307
L54148 40307
L54111 40326
L54092 40344
L54073 40382
L54073 40457
L54092 40494
L54111 40513
L54148 40532
L54223 40532
L54261 40513
L54280 40494
L54298 40457
L54298 40382
L54280 40344
L54261 40326
L54223 40307
" />
</g>
<g style="fill:#000000; fill-opacity:0.0; 
stroke:#000000; stroke-width:59.0551; stroke-opacity:1; 
stroke-linecap:round; stroke-linejoin:round;">
</g>
<g style="fill:#C2C200; fill-opacity:0.0; 
stroke:#C2C200; stroke-width:59.0551; stroke-opacity:1; 
stroke-linecap:round; stroke-linejoin:round;">
</g>
<g style="fill:#C2C200; fill-opacity:0.0; 
stroke:#C2C200; stroke-width:78.7402; stroke-opacity:1; 
stroke-linecap:round; stroke-linejoin:round;">
<path d="M51969 19685
L85433 19685
" />
<path d="M51969 41732
L51969 19685
" />
<path d="M85433 41732
L51969 41732
" />
<path d="M85433 19685
L85433 41732
" />
</g> 
</svg>
