<?xml version="1.0" encoding="UTF-8" standalone="no"?>
<svg
   xmlns:dc="http://purl.org/dc/elements/1.1/"
   xmlns:cc="http://creativecommons.org/ns#"
   xmlns:rdf="http://www.w3.org/1999/02/22-rdf-syntax-ns#"
   xmlns:svg="http://www.w3.org/2000/svg"
   xmlns="http://www.w3.org/2000/svg"
   xmlns:sodipodi="http://sodipodi.sourceforge.net/DTD/sodipodi-0.dtd"
   xmlns:inkscape="http://www.inkscape.org/namespaces/inkscape"
   version="1.1"
   width="887.31299"
   height="535.12201"
   id="svg190"
   sodipodi:docname="sch_functionnal.svg"
   inkscape:version="0.92.3 (2405546, 2018-03-11)">
  <metadata
     id="metadata194">
    <rdf:RDF>
      <cc:Work
         rdf:about="">
        <dc:format>image/svg+xml</dc:format>
        <dc:type
           rdf:resource="http://purl.org/dc/dcmitype/StillImage" />
        <dc:title></dc:title>
      </cc:Work>
    </rdf:RDF>
  </metadata>
  <sodipodi:namedview
     pagecolor="#ffffff"
     bordercolor="#666666"
     borderopacity="1"
     objecttolerance="10"
     gridtolerance="10"
     guidetolerance="10"
     inkscape:pageopacity="0"
     inkscape:pageshadow="2"
     inkscape:window-width="1920"
     inkscape:window-height="1001"
     id="namedview192"
     showgrid="false"
     fit-margin-top="0"
     fit-margin-left="0"
     fit-margin-right="0"
     fit-margin-bottom="0"
     inkscape:zoom="1.2270382"
     inkscape:cx="523.77772"
     inkscape:cy="275.4044"
     inkscape:window-x="0"
     inkscape:window-y="27"
     inkscape:window-maximized="1"
     inkscape:current-layer="svg190" />
  <defs
     id="defs2" />
  <g
     transform="matrix(0.93,0,0,0.93,-272.769,-376.929)"
     id="g188">
    <rect
       x="602"
       y="518"
       width="182"
       height="280"
       rx="12.23"
       ry="12.23"
       pointer-events="none"
       id="rect4"
       style="fill:none;stroke:#000000;stroke-width:1.39999998" />
    <g
       font-size="16.799999999999997px"
       id="g10"
       style="font-size:16.79999924px;font-family:Arial, Helvetica;text-anchor:middle;fill:#000000">
      <text
         x="693"
         y="653.79999"
         id="text6">Pico-Pi</text>
      <text
         x="693"
         y="673.40002"
         id="text8">IMX7D</text>
    </g>
    <rect
       x="840"
       y="518"
       width="182"
       height="280"
       rx="12.23"
       ry="12.23"
       pointer-events="none"
       id="rect12"
       style="fill:none;stroke:#000000;stroke-width:1.39999998" />
    <circle
       cx="1085"
       cy="567"
       pointer-events="none"
       id="ellipse14"
       r="21"
       style="fill:none;stroke:#000000;stroke-width:1.39999998" />
    <g
       font-size="16.799999999999997px"
       id="g18"
       style="font-size:16.79999924px;font-family:Arial, Helvetica;text-anchor:middle;fill:#000000">
      <text
         x="1085"
         y="572.59998"
         id="text16">M</text>
    </g>
    <circle
       cx="1085"
       cy="623"
       pointer-events="none"
       id="ellipse20"
       r="21"
       style="fill:none;stroke:#000000;stroke-width:1.39999998" />
    <g
       font-size="16.799999999999997px"
       id="g24"
       style="font-size:16.79999924px;font-family:Arial, Helvetica;text-anchor:middle;fill:#000000">
      <text
         x="1085"
         y="628.59998"
         id="text22">M</text>
    </g>
    <rect
       x="924"
       y="546"
       width="84"
       height="42"
       rx="2.8199999"
       ry="2.8199999"
       pointer-events="none"
       id="rect26"
       style="fill:none;stroke:#000000;stroke-width:1.39999998" />
    <g
       font-size="16.799999999999997px"
       id="g30"
       style="font-size:16.79999924px;font-family:Arial, Helvetica;text-anchor:middle;fill:#000000">
      <text
         x="966"
         y="572.59998"
         id="text28">Controller</text>
    </g>
    <rect
       x="924"
       y="602"
       width="84"
       height="42"
       rx="2.8199999"
       ry="2.8199999"
       pointer-events="none"
       id="rect32"
       style="fill:none;stroke:#000000;stroke-width:1.39999998" />
    <g
       font-size="16.799999999999997px"
       id="g36"
       style="font-size:16.79999924px;font-family:Arial, Helvetica;text-anchor:middle;fill:#000000">
      <text
         x="966"
         y="628.59998"
         id="text34">Controller</text>
    </g>
    <rect
       x="854"
       y="714"
       width="154"
       height="70"
       rx="4.6999998"
       ry="4.6999998"
       pointer-events="none"
       id="rect38"
       style="fill:none;stroke:#000000;stroke-width:1.39999998" />
    <g
       font-size="16.799999999999997px"
       id="g42"
       style="font-size:16.79999924px;font-family:Arial, Helvetica;text-anchor:middle;fill:#000000">
      <text
         x="931"
         y="754.59998"
         id="text40">DC/DC</text>
    </g>
    <rect
       x="1078"
       y="728"
       width="70"
       height="42"
       rx="2.8199999"
       ry="2.8199999"
       pointer-events="none"
       id="rect44"
       style="fill:none;stroke:#000000;stroke-width:1.39999998" />
    <g
       font-size="16.799999999999997px"
       id="g48"
       style="font-size:16.79999924px;font-family:Arial, Helvetica;text-anchor:middle;fill:#000000">
      <text
         x="1113"
         y="754.59998"
         id="text46">AC/DC</text>
    </g>
    <rect
       x="644"
       y="406"
       width="98"
       height="70"
       rx="4.6999998"
       ry="4.6999998"
       pointer-events="none"
       id="rect50"
       style="fill:none;stroke:#000000;stroke-width:1.39999998" />
    <g
       font-size="16.799999999999997px"
       id="g54"
       style="font-size:16.79999924px;font-family:Arial, Helvetica;text-anchor:middle;fill:#000000">
      <text
         x="693"
         y="446.60001"
         id="text52">Camera</text>
    </g>
    <rect
       x="434"
       y="532"
       width="98"
       height="70"
       rx="4.6999998"
       ry="4.6999998"
       pointer-events="none"
       id="rect56"
       style="fill:none;stroke:#000000;stroke-width:1.39999998" />
    <g
       font-size="16.799999999999997px"
       id="g62"
       style="font-size:16.79999924px;font-family:Arial, Helvetica;text-anchor:middle;fill:#000000">
      <text
         x="483"
         y="562.79999"
         id="text58">Touch</text>
      <text
         x="483"
         y="582.40002"
         id="text60">screen</text>
    </g>
    <path
       d="m 1199.89,735 v 6.02 H 1197 v 6.29 h 1.16 v 5.36 c 0,3.33 1.79,6.01 4.03,6.01 h 1.22 V 763 h 1.18 v -4.32 h 1.22 c 2.24,0 4.03,-2.68 4.03,-6.01 v -5.36 h 1.16 v -6.29 h -2.89 V 735 h -2.94 v 6.02 h -2.34 V 735 Z m 1.18,1.81 h 0.58 v 4.37 h -0.58 z m 5.28,0 h 0.58 v 4.37 h -0.58 z m -8.21,6.07 h 11.72 v 2.73 h -11.72 z m 1.13,3.55 h 2.64 4.18 2.64 v 4.38 1.8 0.27 h -0.02 c -0.1,2.29 -1.35,4.11 -2.91,4.11 h -3.6 c -1.56,0 -2.81,-1.82 -2.91,-4.11 h -0.02 v -0.27 -1.8 z"
       transform="rotate(90,1204,749)"
       pointer-events="none"
       id="path64"
       inkscape:connector-curvature="0"
       style="fill:#000000;stroke:none" />
    <path
       d="m 1201.9,756.94 c -0.69,-0.1 -1.34,-0.6 -1.83,-1.38 -0.36,-0.57 -0.59,-1.24 -0.71,-2.08 -0.05,-0.31 -0.06,-0.42 -0.06,-3.68 l -0.01,-3.36 h 4.71 4.71 l -0.01,3.36 c 0,3.26 -0.01,3.37 -0.06,3.68 -0.28,1.81 -1.14,3.07 -2.35,3.43 -0.17,0.05 -4.08,0.08 -4.39,0.03 z"
       stroke-miterlimit="10"
       transform="rotate(90,1204,749)"
       pointer-events="none"
       id="path66"
       inkscape:connector-curvature="0"
       style="fill:#ffffff;stroke:#000000;stroke-width:1.39999998;stroke-linecap:round;stroke-linejoin:bevel;stroke-miterlimit:10" />
    <path
       d="m 1201.71,756.89 c -0.38,-0.11 -0.82,-0.37 -1.14,-0.7 -0.21,-0.21 -0.59,-0.77 -0.73,-1.07 -0.31,-0.67 -0.49,-1.43 -0.51,-2.18 -0.01,-0.21 -0.02,-1.76 -0.03,-3.44 l -0.01,-3.06 h 4.71 4.71 l -0.01,3.2 c -0.01,1.76 -0.03,3.35 -0.04,3.53 -0.03,0.41 -0.11,0.84 -0.25,1.27 -0.35,1.14 -0.96,1.93 -1.78,2.33 -0.21,0.1 -0.29,0.11 -0.63,0.14 -0.22,0.02 -1.23,0.03 -2.25,0.03 -1.47,0 -1.89,-0.01 -2.04,-0.05 z"
       stroke-miterlimit="10"
       transform="rotate(90,1204,749)"
       pointer-events="none"
       id="path68"
       inkscape:connector-curvature="0"
       style="fill:#ffffff;stroke:#000000;stroke-width:1.39999998;stroke-linecap:round;stroke-linejoin:bevel;stroke-miterlimit:10" />
    <path
       d="m 1198.15,744.24 v -1.35 h 5.85 5.85 v 1.35 1.35 h -5.85 -5.85 z"
       stroke-miterlimit="10"
       transform="rotate(90,1204,749)"
       pointer-events="none"
       id="path70"
       inkscape:connector-curvature="0"
       style="fill:#ffffff;stroke:#000000;stroke-width:1.39999998;stroke-linecap:round;stroke-linejoin:bevel;stroke-miterlimit:10" />
    <path
       d="m 1201.08,738.98 v -2.16 h 0.28 0.29 v 2.16 2.17 h -0.29 -0.28 z"
       stroke-miterlimit="10"
       transform="rotate(90,1204,749)"
       pointer-events="none"
       id="path72"
       inkscape:connector-curvature="0"
       style="fill:#ffffff;stroke:#000000;stroke-width:1.39999998;stroke-linecap:round;stroke-linejoin:bevel;stroke-miterlimit:10" />
    <path
       d="m 1206.35,738.98 v -2.16 h 0.29 0.28 v 2.16 2.17 h -0.28 -0.29 z"
       stroke-miterlimit="10"
       transform="rotate(90,1204,749)"
       pointer-events="none"
       id="path74"
       inkscape:connector-curvature="0"
       style="fill:#ffffff;stroke:#000000;stroke-width:1.39999998;stroke-linecap:round;stroke-linejoin:bevel;stroke-miterlimit:10" />
    <path
       d="m 1078,749 h -70"
       stroke-miterlimit="10"
       pointer-events="none"
       id="path78"
       inkscape:connector-curvature="0"
       style="fill:none;stroke:#000000;stroke-width:2.79999995;stroke-miterlimit:10" />
    <path
       d="M 830.57,658 H 793.43"
       stroke-miterlimit="10"
       pointer-events="none"
       id="path80"
       inkscape:connector-curvature="0"
       style="fill:none;stroke:#000000;stroke-width:2.79999995;stroke-miterlimit:10" />
    <path
       d="m 836.87,658 -8.4,4.2 2.1,-4.2 -2.1,-4.2 z"
       stroke-miterlimit="10"
       pointer-events="none"
       id="path82"
       inkscape:connector-curvature="0"
       style="fill:#000000;stroke:#000000;stroke-width:2.79999995;stroke-miterlimit:10" />
    <path
       d="m 787.13,658 8.4,-4.2 -2.1,4.2 2.1,4.2 z"
       stroke-miterlimit="10"
       pointer-events="none"
       id="path84"
       inkscape:connector-curvature="0"
       style="fill:#000000;stroke:#000000;stroke-width:2.79999995;stroke-miterlimit:10" />
    <path
       d="M 1054.57,623 H 1008"
       stroke-miterlimit="10"
       pointer-events="none"
       id="path86"
       inkscape:connector-curvature="0"
       style="fill:none;stroke:#000000;stroke-width:2.79999995;stroke-miterlimit:10" />
    <path
       d="m 1060.87,623 -8.4,4.2 2.1,-4.2 -2.1,-4.2 z"
       stroke-miterlimit="10"
       pointer-events="none"
       id="path88"
       inkscape:connector-curvature="0"
       style="fill:#000000;stroke:#000000;stroke-width:2.79999995;stroke-miterlimit:10" />
    <path
       d="M 1054.57,567 H 1008"
       stroke-miterlimit="10"
       pointer-events="none"
       id="path90"
       inkscape:connector-curvature="0"
       style="fill:none;stroke:#000000;stroke-width:2.79999995;stroke-miterlimit:10" />
    <path
       d="m 1060.87,567 -8.4,4.2 2.1,-4.2 -2.1,-4.2 z"
       stroke-miterlimit="10"
       pointer-events="none"
       id="path92"
       inkscape:connector-curvature="0"
       style="fill:#000000;stroke:#000000;stroke-width:2.79999995;stroke-miterlimit:10" />
    <rect
       x="1134"
       y="602"
       width="70"
       height="42"
       rx="2.8199999"
       ry="2.8199999"
       pointer-events="none"
       id="rect94"
       style="fill:none;stroke:#000000;stroke-width:1.39999998" />
    <g
       font-size="16.799999999999997px"
       id="g100"
       style="font-size:16.79999924px;font-family:Arial, Helvetica;text-anchor:middle;fill:#000000">
      <text
         x="1169"
         y="618.79999"
         id="text96">Position</text>
      <text
         x="1169"
         y="638.40002"
         id="text98">sensor</text>
    </g>
    <rect
       x="1134"
       y="546"
       width="70"
       height="42"
       rx="2.8199999"
       ry="2.8199999"
       pointer-events="none"
       id="rect102"
       style="fill:none;stroke:#000000;stroke-width:1.39999998" />
    <g
       font-size="16.799999999999997px"
       id="g108"
       style="font-size:16.79999924px;font-family:Arial, Helvetica;text-anchor:middle;fill:#000000">
      <text
         x="1169"
         y="562.79999"
         id="text104">Position</text>
      <text
         x="1169"
         y="582.40002"
         id="text106">sensor</text>
    </g>
    <path
       d="m 693,476 v 32.57"
       stroke-miterlimit="10"
       pointer-events="none"
       id="path110"
       inkscape:connector-curvature="0"
       style="fill:none;stroke:#000000;stroke-width:2.79999995;stroke-miterlimit:10" />
    <path
       d="m 693,514.87 -4.2,-8.4 4.2,2.1 4.2,-2.1 z"
       stroke-miterlimit="10"
       pointer-events="none"
       id="path112"
       inkscape:connector-curvature="0"
       style="fill:#000000;stroke:#000000;stroke-width:2.79999995;stroke-miterlimit:10" />
    <path
       d="m 541.43,567 h 51.14"
       stroke-miterlimit="10"
       pointer-events="none"
       id="path114"
       inkscape:connector-curvature="0"
       style="fill:none;stroke:#000000;stroke-width:2.79999995;stroke-miterlimit:10" />
    <path
       d="m 535.13,567 8.4,-4.2 -2.1,4.2 2.1,4.2 z"
       stroke-miterlimit="10"
       pointer-events="none"
       id="path116"
       inkscape:connector-curvature="0"
       style="fill:#000000;stroke:#000000;stroke-width:2.79999995;stroke-miterlimit:10" />
    <path
       d="m 598.87,567 -8.4,4.2 2.1,-4.2 -2.1,-4.2 z"
       stroke-miterlimit="10"
       pointer-events="none"
       id="path118"
       inkscape:connector-curvature="0"
       style="fill:#000000;stroke:#000000;stroke-width:2.79999995;stroke-miterlimit:10" />
    <path
       d="m 1204,623 h 7 q 7,0 7,14 v 10.5 q 0,10.5 -14,10.5 h -172.57"
       stroke-miterlimit="10"
       pointer-events="none"
       id="path120"
       inkscape:connector-curvature="0"
       style="fill:none;stroke:#000000;stroke-width:2.79999995;stroke-miterlimit:10" />
    <path
       d="m 1025.13,658 8.4,-4.2 -2.1,4.2 2.1,4.2 z"
       stroke-miterlimit="10"
       pointer-events="none"
       id="path122"
       inkscape:connector-curvature="0"
       style="fill:#000000;stroke:#000000;stroke-width:2.79999995;stroke-miterlimit:10" />
    <path
       d="m 1204,567 h 28 q 14,0 14,14 v 91 q 0,14 -14,14 h -200.57"
       stroke-miterlimit="10"
       pointer-events="none"
       id="path124"
       inkscape:connector-curvature="0"
       style="fill:none;stroke:#000000;stroke-width:2.79999995;stroke-miterlimit:10" />
    <path
       d="m 1025.13,686 8.4,-4.2 -2.1,4.2 2.1,4.2 z"
       stroke-miterlimit="10"
       pointer-events="none"
       id="path126"
       inkscape:connector-curvature="0"
       style="fill:#000000;stroke:#000000;stroke-width:2.79999995;stroke-miterlimit:10" />
    <circle
       cx="322"
       cy="504"
       pointer-events="none"
       id="ellipse128"
       r="14"
       style="fill:none;stroke:#000000;stroke-width:1.39999998" />
    <path
       d="m 322,518 v 46.67 m 0,-37.34 h -28 m 28,0 h 28 M 322,564.67 294,602 m 28,-37.33 28,37.33"
       stroke-miterlimit="10"
       pointer-events="none"
       id="path130"
       inkscape:connector-curvature="0"
       style="fill:none;stroke:#000000;stroke-width:1.39999998;stroke-miterlimit:10" />
    <ellipse
       cx="434"
       cy="847"
       rx="140"
       ry="133"
       transform="rotate(180,434,847)"
       pointer-events="none"
       id="ellipse132"
       style="fill:none;stroke:#000000;stroke-width:1.39999998" />
    <g
       font-size="16.799999999999997px"
       id="g136"
       style="font-size:16.79999924px;font-family:Arial, Helvetica;text-anchor:middle;fill:#000000">
      <text
         x="434"
         y="852.59998"
         id="text134">Network</text>
    </g>
    <rect
       x="406"
       y="756"
       width="70"
       height="42"
       rx="2.8199999"
       ry="2.8199999"
       pointer-events="none"
       id="rect138"
       style="fill:none;stroke:#000000;stroke-width:1.39999998" />
    <g
       font-size="16.799999999999997px"
       id="g142"
       style="font-size:16.79999924px;font-family:Arial, Helvetica;text-anchor:middle;fill:#000000">
      <text
         x="441"
         y="782.59998"
         id="text140">https</text>
    </g>
    <rect
       x="476"
       y="826"
       width="70"
       height="42"
       rx="2.8199999"
       ry="2.8199999"
       pointer-events="none"
       id="rect144"
       style="fill:none;stroke:#000000;stroke-width:1.39999998" />
    <g
       font-size="16.799999999999997px"
       id="g148"
       style="font-size:16.79999924px;font-family:Arial, Helvetica;text-anchor:middle;fill:#000000">
      <text
         x="511"
         y="852.59998"
         id="text146">ssh</text>
    </g>
    <path
       d="M 583.43,847 H 679 q 14,0 14,-14 v -25.57"
       stroke-miterlimit="10"
       pointer-events="none"
       id="path150"
       inkscape:connector-curvature="0"
       style="fill:none;stroke:#000000;stroke-width:2.79999995;stroke-miterlimit:10" />
    <path
       d="m 577.13,847 8.4,-4.2 -2.1,4.2 2.1,4.2 z"
       stroke-miterlimit="10"
       pointer-events="none"
       id="path152"
       inkscape:connector-curvature="0"
       style="fill:#000000;stroke:#000000;stroke-width:2.79999995;stroke-miterlimit:10" />
    <path
       d="m 693,801.13 4.2,8.4 -4.2,-2.1 -4.2,2.1 z"
       stroke-miterlimit="10"
       pointer-events="none"
       id="path154"
       inkscape:connector-curvature="0"
       style="fill:#000000;stroke:#000000;stroke-width:2.79999995;stroke-miterlimit:10" />
    <g
       font-size="15.399999999999999px"
       id="g162"
       style="font-size:15.39999962px;font-family:Arial, Helvetica;text-anchor:middle;fill:#000000">
      <rect
         x="629"
         y="851"
         width="61"
         height="37"
         id="rect156"
         style="fill:#ffffff;stroke:none;stroke-width:0" />
      <text
         x="658"
         y="863.79999"
         id="text158">Wifi</text>
      <text
         x="658"
         y="882"
         id="text160">Ethernet</text>
    </g>
    <rect
       x="308"
       y="658"
       width="84"
       height="42"
       rx="2.8199999"
       ry="2.8199999"
       pointer-events="none"
       id="rect164"
       style="fill:none;stroke:#000000;stroke-width:1.39999998" />
    <g
       font-size="16.799999999999997px"
       id="g168"
       style="font-size:16.79999924px;font-family:Arial, Helvetica;text-anchor:middle;fill:#000000">
      <text
         x="350"
         y="684.59998"
         id="text166">Computer</text>
    </g>
    <path
       d="m 335.73,611.23 7.91,37.54"
       stroke-miterlimit="10"
       pointer-events="none"
       id="path170"
       inkscape:connector-curvature="0"
       style="fill:none;stroke:#000000;stroke-width:2.79999995;stroke-miterlimit:10" />
    <path
       d="m 334.43,605.06 5.84,7.36 -4.54,-1.19 -3.68,2.92 z"
       stroke-miterlimit="10"
       pointer-events="none"
       id="path172"
       inkscape:connector-curvature="0"
       style="fill:#000000;stroke:#000000;stroke-width:2.79999995;stroke-miterlimit:10" />
    <path
       d="m 344.93,654.94 -5.84,-7.36 4.55,1.19 3.67,-2.92 z"
       stroke-miterlimit="10"
       pointer-events="none"
       id="path174"
       inkscape:connector-curvature="0"
       style="fill:#000000;stroke:#000000;stroke-width:2.79999995;stroke-miterlimit:10" />
    <path
       d="m 359.35,550.87 65.3,8.52"
       stroke-miterlimit="10"
       pointer-events="none"
       id="path176"
       inkscape:connector-curvature="0"
       style="fill:none;stroke:#000000;stroke-width:2.79999995;stroke-miterlimit:10" />
    <path
       d="m 353.1,550.06 8.88,-3.08 -2.63,3.89 1.54,4.44 z"
       stroke-miterlimit="10"
       pointer-events="none"
       id="path178"
       inkscape:connector-curvature="0"
       style="fill:#000000;stroke:#000000;stroke-width:2.79999995;stroke-miterlimit:10" />
    <path
       d="m 430.9,560.2 -8.88,3.08 2.63,-3.89 -1.54,-4.44 z"
       stroke-miterlimit="10"
       pointer-events="none"
       id="path180"
       inkscape:connector-curvature="0"
       style="fill:#000000;stroke:#000000;stroke-width:2.79999995;stroke-miterlimit:10" />
    <path
       d="M 401.43,679 H 420 q 14,0 14,12.78 v 12.79"
       stroke-miterlimit="10"
       pointer-events="none"
       id="path182"
       inkscape:connector-curvature="0"
       style="fill:none;stroke:#000000;stroke-width:2.79999995;stroke-miterlimit:10" />
    <path
       d="m 395.13,679 8.4,-4.2 -2.1,4.2 2.1,4.2 z"
       stroke-miterlimit="10"
       pointer-events="none"
       id="path184"
       inkscape:connector-curvature="0"
       style="fill:#000000;stroke:#000000;stroke-width:2.79999995;stroke-miterlimit:10" />
    <path
       d="m 434,710.87 -4.2,-8.4 4.2,2.1 4.2,-2.1 z"
       stroke-miterlimit="10"
       pointer-events="none"
       id="path186"
       inkscape:connector-curvature="0"
       style="fill:#000000;stroke:#000000;stroke-width:2.79999995;stroke-miterlimit:10" />
  </g>
  <path
     id="path76-3"
     style="fill:none;stroke:#000000;stroke-width:2.60399985;stroke-miterlimit:10"
     d="m 839.007,319.641 h -39.06 m 33.984,0 h -39.06"
     inkscape:connector-curvature="0" />
</svg>
