
<svg xmlns="http://www.w3.org/2000/svg"
     xmlns:xlink="http://www.w3.org/1999/xlink" version="1.1" width="642"
     height="614">
    <defs/>
    <g transform=" scale(0.94) translate(-177.3,-387.30000000000007)">
        <rect x="518" y="434" width="84" height="70" rx="4.7" ry="4.7"
              fill="none" stroke="#000000" stroke-width="1.4"
              pointer-events="none"/>
        <g fill="#000" font-family="Arial,Helvetica" text-anchor="middle"
           font-size="16.799999999999997px">
            <text x="560" y="474.6">
                12V / 5V
            </text>
        </g>
        <rect x="518" y="602" width="84" height="70" rx="4.7" ry="4.7"
              fill="none" stroke="#000000" stroke-width="1.4"
              pointer-events="none"/>
        <g fill="#000" font-family="Arial,Helvetica" text-anchor="middle"
           font-size="16.799999999999997px">
            <text x="560" y="642.6">
                GPS
            </text>
        </g>
        <rect x="518" y="686" width="84" height="70" rx="4.7" ry="4.7"
              fill="none" stroke="#000000" stroke-width="1.4"
              pointer-events="none"/>
        <g fill="#000" font-family="Arial,Helvetica" text-anchor="middle"
           font-size="16.799999999999997px">
            <text x="560" y="726.6">
                IMU
            </text>
        </g>
        <rect x="518" y="770" width="84" height="70" rx="4.7" ry="4.7"
              fill="none" stroke="#000000" stroke-width="1.4"
              pointer-events="none"/>
        <g fill="#000" font-family="Arial,Helvetica" text-anchor="middle"
           font-size="16.799999999999997px">
            <text x="560" y="800.8">
                Position
            </text>
            <text x="560" y="820.4">
                sensor
            </text>
        </g>
        <rect x="770" y="602" width="84" height="70" rx="4.7" ry="4.7"
              fill="none" stroke="#000000" stroke-width="1.4"
              pointer-events="none"/>
        <g fill="#000" font-family="Arial,Helvetica" text-anchor="middle"
           font-size="16.799999999999997px">
            <text x="812" y="642.6">
                Camera
            </text>
        </g>
        <rect x="770" y="686" width="84" height="70" rx="4.7" ry="4.7"
              fill="none" stroke="#000000" stroke-width="1.4"
              pointer-events="none"/>
        <g fill="#000" font-family="Arial,Helvetica" text-anchor="middle"
           font-size="16.799999999999997px">
            <text x="812" y="726.6">
                Screen
            </text>
        </g>
        <rect x="644" y="504" width="84" height="336" rx="5.64" ry="5.64"
              fill="none" stroke="#000000" stroke-width="1.4"
              pointer-events="none"/>
        <g fill="#000" font-family="Arial,Helvetica" text-anchor="middle"
           font-size="16.799999999999997px">
            <text x="686" y="677.6">
                RPI
            </text>
        </g>
        <ellipse cx="805" cy="917" rx="35" ry="35" fill="none" stroke="#000000"
                 stroke-width="1.4" pointer-events="none"/>
        <g fill="#000" font-family="Arial,Helvetica" text-anchor="middle"
           font-size="16.799999999999997px">
            <text x="805" y="922.6">
                M
            </text>
        </g>
        <rect x="644" y="518" width="42" height="28" fill="none"
              stroke="#000000" stroke-width="1.4" pointer-events="none"/>
        <g fill="#000" font-family="Arial,Helvetica" text-anchor="middle"
           font-size="16.799999999999997px">
            <text x="665" y="537.6">
                5V
            </text>
        </g>
        <rect x="644" y="546" width="42" height="28" fill="none"
              stroke="#000000" stroke-width="1.4" pointer-events="none"/>
        <g fill="#000" font-family="Arial,Helvetica" text-anchor="middle"
           font-size="16.799999999999997px">
            <text x="665" y="565.6">
                3,3V
            </text>
        </g>
        <rect x="182" y="434" width="84" height="70" rx="4.7" ry="4.7"
              fill="none" stroke="#000000" stroke-width="1.4"
              pointer-events="none"/>
        <g fill="#000" font-family="Arial,Helvetica" text-anchor="middle"
           font-size="16.799999999999997px">
            <text x="224" y="455">
                220VAC
            </text>
            <text x="224" y="474.6">
                /
            </text>
            <text x="224" y="494.2">
                12VDC
            </text>
        </g>
        <path d="M 508.57 469 L 350 469 Q 336 469 322 469 L 266 469" fill="none"
              stroke="#000000" stroke-width="2.8" stroke-miterlimit="10"
              pointer-events="none"/>
        <path d="M 514.87 469 L 506.47 473.2 L 508.57 469 L 506.47 464.8 Z"
              fill="#000000" stroke="#000000" stroke-width="2.8"
              stroke-miterlimit="10" pointer-events="none"/>
        <path d="M 760.57 637 L 737.43 637" fill="none" stroke="#000000"
              stroke-width="2.8" stroke-miterlimit="10" pointer-events="none"/>
        <path d="M 766.87 637 L 758.47 641.2 L 760.57 637 L 758.47 632.8 Z"
              fill="#000000" stroke="#000000" stroke-width="2.8"
              stroke-miterlimit="10" pointer-events="none"/>
        <path d="M 731.13 637 L 739.53 632.8 L 737.43 637 L 739.53 641.2 Z"
              fill="#000000" stroke="#000000" stroke-width="2.8"
              stroke-miterlimit="10" pointer-events="none"/>
        <path d="M 760.57 721 L 737.43 721" fill="none" stroke="#000000"
              stroke-width="2.8" stroke-miterlimit="10" pointer-events="none"/>
        <path d="M 766.87 721 L 758.47 725.2 L 760.57 721 L 758.47 716.8 Z"
              fill="#000000" stroke="#000000" stroke-width="2.8"
              stroke-miterlimit="10" pointer-events="none"/>
        <path d="M 731.13 721 L 739.53 716.8 L 737.43 721 L 739.53 725.2 Z"
              fill="#000000" stroke="#000000" stroke-width="2.8"
              stroke-miterlimit="10" pointer-events="none"/>
        <path d="M 611.43 721 L 634.57 721" fill="none" stroke="#000000"
              stroke-width="2.8" stroke-miterlimit="10" pointer-events="none"/>
        <path d="M 605.13 721 L 613.53 716.8 L 611.43 721 L 613.53 725.2 Z"
              fill="#000000" stroke="#000000" stroke-width="2.8"
              stroke-miterlimit="10" pointer-events="none"/>
        <path d="M 640.87 721 L 632.47 725.2 L 634.57 721 L 632.47 716.8 Z"
              fill="#000000" stroke="#000000" stroke-width="2.8"
              stroke-miterlimit="10" pointer-events="none"/>
        <path d="M 560 504 L 560 518 Q 560 532 574 532 L 634.57 532" fill="none"
              stroke="#000000" stroke-width="2.8" stroke-miterlimit="10"
              pointer-events="none"/>
        <path d="M 640.87 532 L 632.47 536.2 L 634.57 532 L 632.47 527.8 Z"
              fill="#000000" stroke="#000000" stroke-width="2.8"
              stroke-miterlimit="10" pointer-events="none"/>
        <path d="M 644 560 L 490 560 Q 476 560 476 574 L 476 623 Q 476 637 490 637 L 508.57 637"
              fill="none" stroke="#000000" stroke-width="2.8"
              stroke-miterlimit="10" pointer-events="none"/>
        <path d="M 514.87 637 L 506.47 641.2 L 508.57 637 L 506.47 632.8 Z"
              fill="#000000" stroke="#000000" stroke-width="2.8"
              stroke-miterlimit="10" pointer-events="none"/>
        <path d="M 644 560 L 490 560 Q 476 560 476 574 L 476 707 Q 476 721 490 721 L 508.57 721"
              fill="none" stroke="#000000" stroke-width="2.8"
              stroke-miterlimit="10" pointer-events="none"/>
        <path d="M 514.87 721 L 506.47 725.2 L 508.57 721 L 506.47 716.8 Z"
              fill="#000000" stroke="#000000" stroke-width="2.8"
              stroke-miterlimit="10" pointer-events="none"/>
        <path d="M 644 560 L 490 560 Q 476 560 476 574 L 476 791 Q 476 805 490 805 L 508.57 805"
              fill="none" stroke="#000000" stroke-width="2.8"
              stroke-miterlimit="10" pointer-events="none"/>
        <path d="M 514.87 805 L 506.47 809.2 L 508.57 805 L 506.47 800.8 Z"
              fill="#000000" stroke="#000000" stroke-width="2.8"
              stroke-miterlimit="10" pointer-events="none"/>
        <path d="M 611.43 637 L 634.57 637" fill="none" stroke="#000000"
              stroke-width="2.8" stroke-miterlimit="10" pointer-events="none"/>
        <path d="M 605.13 637 L 613.53 632.8 L 611.43 637 L 613.53 641.2 Z"
              fill="#000000" stroke="#000000" stroke-width="2.8"
              stroke-miterlimit="10" pointer-events="none"/>
        <path d="M 640.87 637 L 632.47 641.2 L 634.57 637 L 632.47 632.8 Z"
              fill="#000000" stroke="#000000" stroke-width="2.8"
              stroke-miterlimit="10" pointer-events="none"/>
        <path d="M 602 805 L 634.57 805" fill="none" stroke="#000000"
              stroke-width="2.8" stroke-miterlimit="10" pointer-events="none"/>
        <path d="M 640.87 805 L 632.47 809.2 L 634.57 805 L 632.47 800.8 Z"
              fill="#000000" stroke="#000000" stroke-width="2.8"
              stroke-miterlimit="10" pointer-events="none"/>
        <path d="M 308 392 L 294 392 L 294 543.2 L 308 543.2" fill="none"
              stroke="#000000" stroke-width="1.4" stroke-miterlimit="10"
              transform="rotate(180,301,467.6)" pointer-events="none"/>
        <rect x="644" y="882" width="84" height="70" rx="4.7" ry="4.7"
              fill="none" stroke="#000000" stroke-width="1.4"
              pointer-events="none"/>
        <g fill="#000" font-family="Arial,Helvetica" text-anchor="middle"
           font-size="16.799999999999997px">
            <text x="686" y="922.6">
                Controller
            </text>
        </g>
        <path d="M 644 560 L 490 560 Q 476 560 476 574 L 476 896 Q 476 910 490 910 L 634.57 910"
              fill="none" stroke="#000000" stroke-width="2.8"
              stroke-miterlimit="10" pointer-events="none"/>
        <path d="M 640.87 910 L 632.47 914.2 L 634.57 910 L 632.47 905.8 Z"
              fill="#000000" stroke="#000000" stroke-width="2.8"
              stroke-miterlimit="10" pointer-events="none"/>
        <path d="M 686 840 L 686 872.57" fill="none" stroke="#000000"
              stroke-width="2.8" stroke-miterlimit="10" pointer-events="none"/>
        <path d="M 686 878.87 L 681.8 870.47 L 686 872.57 L 690.2 870.47 Z"
              fill="#000000" stroke="#000000" stroke-width="2.8"
              stroke-miterlimit="10" pointer-events="none"/>
        <path d="M 728 917 L 760.57 917" fill="none" stroke="#000000"
              stroke-width="2.8" stroke-miterlimit="10" pointer-events="none"/>
        <path d="M 766.87 917 L 758.47 921.2 L 760.57 917 L 758.47 912.8 Z"
              fill="#000000" stroke="#000000" stroke-width="2.8"
              stroke-miterlimit="10" pointer-events="none"/>
        <path d="M 266 469 L 378 469 Q 392 469 392 483 L 392 910 Q 392 924 406 924 L 634.57 924"
              fill="none" stroke="#000000" stroke-width="2.8"
              stroke-miterlimit="10" pointer-events="none"/>
        <path d="M 640.87 924 L 632.47 928.2 L 634.57 924 L 632.47 919.8 Z"
              fill="#000000" stroke="#000000" stroke-width="2.8"
              stroke-miterlimit="10" pointer-events="none"/>
        <ellipse cx="805" cy="1001" rx="35" ry="35" fill="none" stroke="#000000"
                 stroke-width="1.4" pointer-events="none"/>
        <g fill="#000" font-family="Arial,Helvetica" text-anchor="middle"
           font-size="16.799999999999997px">
            <text x="805" y="1006.6">
                Fan
            </text>
        </g>
        <path d="M 266 469 L 378 469 Q 392 469 392 483 L 392 987 Q 392 1001 406 1001 L 760.57 1001"
              fill="none" stroke="#000000" stroke-width="2.8"
              stroke-miterlimit="10" pointer-events="none"/>
        <path d="M 766.87 1001 L 758.47 1005.2 L 760.57 1001 L 758.47 996.8 Z"
              fill="#000000" stroke="#000000" stroke-width="2.8"
              stroke-miterlimit="10" pointer-events="none"/>
    </g>
</svg>