
<svg xmlns="http://www.w3.org/2000/svg"
     xmlns:xlink="http://www.w3.org/1999/xlink" version="1.1" width="1070"
     height="430">
    <defs>
        <linearGradient x1="0%" y1="0%" x2="0%" y2="100%"
                        id="mx-gradient-ff7f00-1-ff7f00-1-s-0">
            <stop offset="0%" style="stop-color:#ff7f00"/>
            <stop offset="100%" style="stop-color:#ff7f00"/>
        </linearGradient>
    </defs>
    <g transform=" scale(0.91) translate(-275,-915)">
        <rect x="1260" y="920" width="120" height="100" rx="6.72" ry="6.72"
              fill="none" stroke="#000000" stroke-width="2"
              pointer-events="none"/>
        <g fill="#000" font-family="Arial,Helvetica" text-anchor="middle"
           font-size="24px">
            <text x="1319.5" y="977.5">
                GPS
            </text>
        </g>
        <rect x="1260" y="1040" width="120" height="100" rx="6.72" ry="6.72"
              fill="none" stroke="#000000" stroke-width="2"
              pointer-events="none"/>
        <g fill="#000" font-family="Arial,Helvetica" text-anchor="middle"
           font-size="24px">
            <text x="1319.5" y="1097.5">
                IMU
            </text>
        </g>
        <ellipse cx="1310" cy="1330" rx="50" ry="50" fill="none"
                 stroke="#000000" stroke-width="2" pointer-events="none"/>
        <g fill="#000" font-family="Arial,Helvetica" text-anchor="middle"
           font-size="24px">
            <text x="1309.5" y="1337.5">
                M
            </text>
        </g>
        <rect x="700" y="920" width="240" height="40"
              fill="url(#mx-gradient-ff7f00-1-ff7f00-1-s-0)" stroke="#000000"
              stroke-width="2" pointer-events="none"/>
        <g fill="#000" font-family="Arial,Helvetica" font-weight="bold"
           text-anchor="middle" font-size="24px">
            <text x="819.5" y="947.5">
                Autoscope core
            </text>
        </g>
        <rect x="980" y="920" width="240" height="40"
              fill="url(#mx-gradient-ff7f00-1-ff7f00-1-s-0)" stroke="#000000"
              stroke-width="2" pointer-events="none"/>
        <g fill="#000" font-family="Arial,Helvetica" font-weight="bold"
           text-anchor="middle" font-size="24px">
            <text x="1099.5" y="947.5">
                Driver GPS
            </text>
        </g>
        <rect x="980" y="1040" width="240" height="40"
              fill="url(#mx-gradient-ff7f00-1-ff7f00-1-s-0)" stroke="#000000"
              stroke-width="2" pointer-events="none"/>
        <g fill="#000" font-family="Arial,Helvetica" font-weight="bold"
           text-anchor="middle" font-size="24px">
            <text x="1099.5" y="1067.5">
                Driver IMU
            </text>
        </g>
        <rect x="980" y="1160" width="240" height="40"
              fill="url(#mx-gradient-ff7f00-1-ff7f00-1-s-0)" stroke="#000000"
              stroke-width="2" pointer-events="none"/>
        <g fill="#000" font-family="Arial,Helvetica" font-weight="bold"
           text-anchor="middle" font-size="24px">
            <text x="1099.5" y="1187.5">
                Driver motors
            </text>
        </g>
        <rect x="980" y="1200" width="240" height="180" fill="none"
              stroke="#000000" stroke-width="2" pointer-events="none"/>
        <g fill="#000" font-family="Arial,Helvetica" text-anchor="middle"
           font-size="24px">
            <text x="1099.5" y="1283.5">
                -rotate(motor, nstep)
            </text>
            <text x="1099.5" y="1311.5">
                -stop(motor)
            </text>
        </g>
        <rect x="980" y="1080" width="240" height="60" fill="none"
              stroke="#000000" stroke-width="2" pointer-events="none"/>
        <g fill="#000" font-family="Arial,Helvetica" text-anchor="middle"
           font-size="24px">
            <text x="1099.5" y="1117.5">
                -getCoord()
            </text>
        </g>
        <rect x="980" y="960" width="240" height="60" fill="none"
              stroke="#000000" stroke-width="2" pointer-events="none"/>
        <g fill="#000" font-family="Arial,Helvetica" text-anchor="middle"
           font-size="24px">
            <text x="1099.5" y="997.5">
                -getCoord()
            </text>
        </g>
        <rect x="700" y="960" width="240" height="420" fill="none"
              stroke="#000000" stroke-width="2" pointer-events="none"/>
        <g fill="#000" font-family="Arial,Helvetica" text-anchor="middle"
           font-size="24px">
            <text x="819.5" y="1163.5">
                -getPosition(axis)
            </text>
            <text x="819.5" y="1191.5">
                -goTo(axis, position)
            </text>
        </g>
        <rect x="460" y="960" width="200" height="420" fill="none"
              stroke="#000000" stroke-width="2" pointer-events="none"/>
        <g fill="#000" font-family="Arial,Helvetica" text-anchor="middle"
           font-size="24px">
            <text x="559.5" y="1135.5">
                -switchView()
            </text>
            <text x="559.5" y="1163.5">
                -takePhoto()
            </text>
            <text x="559.5" y="1191.5">
                -placeStellarium()
            </text>
            <text x="559.5" y="1219.5">
                -placeTelescope()
            </text>
        </g>
        <rect x="460" y="920" width="200" height="40"
              fill="url(#mx-gradient-ff7f00-1-ff7f00-1-s-0)" stroke="#000000"
              stroke-width="2" pointer-events="none"/>
        <g fill="#000" font-family="Arial,Helvetica" font-weight="bold"
           text-anchor="middle" font-size="24px">
            <text x="559.5" y="947.5">
                User interface
            </text>
        </g>
        <rect x="280" y="1080" width="140" height="60" fill="none"
              stroke="#000000" stroke-width="2" pointer-events="none"/>
        <rect x="280" y="1040" width="140" height="40"
              fill="url(#mx-gradient-ff7f00-1-ff7f00-1-s-0)" stroke="#000000"
              stroke-width="2" pointer-events="none"/>
        <g fill="#000" font-family="Arial,Helvetica" font-weight="bold"
           text-anchor="middle" font-size="24px">
            <text x="349.5" y="1067.5">
                Stellarium
            </text>
        </g>
        <rect x="280" y="960" width="140" height="60" fill="none"
              stroke="#000000" stroke-width="2" pointer-events="none"/>
        <rect x="280" y="920" width="140" height="40"
              fill="url(#mx-gradient-ff7f00-1-ff7f00-1-s-0)" stroke="#000000"
              stroke-width="2" pointer-events="none"/>
        <g fill="#000" font-family="Arial,Helvetica" font-weight="bold"
           text-anchor="middle" font-size="24px">
            <text x="349.5" y="947.5">
                Video
            </text>
        </g>
        <rect x="280" y="1200" width="140" height="60" fill="none"
              stroke="#000000" stroke-width="2" pointer-events="none"/>
        <rect x="280" y="1160" width="140" height="40"
              fill="url(#mx-gradient-ff7f00-1-ff7f00-1-s-0)" stroke="#000000"
              stroke-width="2" pointer-events="none"/>
        <g fill="#000" font-family="Arial,Helvetica" font-weight="bold"
           text-anchor="middle" font-size="24px">
            <text x="349.5" y="1187.5">
                Siril
            </text>
        </g>
        <rect x="280" y="1320" width="140" height="60" fill="none"
              stroke="#000000" stroke-width="2" pointer-events="none"/>
        <g fill="#000" font-family="Arial,Helvetica" text-anchor="middle"
           font-size="24px">
            <text x="349.5" y="1343.5">
                -poweroff()
            </text>
            <text x="349.5" y="1371.5">
                -shell()
            </text>
        </g>
        <rect x="280" y="1280" width="140" height="40"
              fill="url(#mx-gradient-ff7f00-1-ff7f00-1-s-0)" stroke="#000000"
              stroke-width="2" pointer-events="none"/>
        <g fill="#000" font-family="Arial,Helvetica" font-weight="bold"
           text-anchor="middle" font-size="24px">
            <text x="349.5" y="1307.5">
                System
            </text>
        </g>
        <rect x="1260" y="1160" width="120" height="100" rx="6.72" ry="6.72"
              fill="none" stroke="#000000" stroke-width="2"
              pointer-events="none"/>
        <g fill="#000" font-family="Arial,Helvetica" text-anchor="middle"
           font-size="24px">
            <text x="1319.5" y="1203.5">
                Position
            </text>
            <text x="1319.5" y="1231.5">
                sensor
            </text>
        </g>
        <path d="M 420 980 L 430 980 Q 440 980 450 980 L 460 980" fill="none"
              stroke="#000000" stroke-width="4" stroke-miterlimit="10"
              pointer-events="none"/>
        <path d="M 420 1100 L 430 1100 Q 440 1100 450 1100 L 460 1100"
              fill="none" stroke="#000000" stroke-width="4"
              stroke-miterlimit="10" pointer-events="none"/>
        <path d="M 420 1220 L 430 1220 Q 440 1220 450 1220 L 460 1220"
              fill="none" stroke="#000000" stroke-width="4"
              stroke-miterlimit="10" pointer-events="none"/>
        <path d="M 420 1340 L 430 1340 Q 440 1340 450 1340 L 460 1340"
              fill="none" stroke="#000000" stroke-width="4"
              stroke-miterlimit="10" pointer-events="none"/>
        <path d="M 673.47 1170 L 686.53 1170" fill="none" stroke="#000000"
              stroke-width="4" stroke-miterlimit="10" pointer-events="none"/>
        <path d="M 664.47 1170 L 676.47 1164 L 673.47 1170 L 676.47 1176 Z"
              fill="#000000" stroke="#000000" stroke-width="4"
              stroke-miterlimit="10" pointer-events="none"/>
        <path d="M 695.53 1170 L 683.53 1176 L 686.53 1170 L 683.53 1164 Z"
              fill="#000000" stroke="#000000" stroke-width="4"
              stroke-miterlimit="10" pointer-events="none"/>
        <path d="M 966.53 1280 L 963.26 1280 Q 960 1280 950 1280 L 940 1280"
              fill="none" stroke="#000000" stroke-width="4"
              stroke-miterlimit="10" pointer-events="none"/>
        <path d="M 975.53 1280 L 963.53 1286 L 966.53 1280 L 963.53 1274 Z"
              fill="#000000" stroke="#000000" stroke-width="4"
              stroke-miterlimit="10" pointer-events="none"/>
        <path d="M 980 1100 L 970 1100 Q 960 1100 956.74 1100 L 953.47 1100"
              fill="none" stroke="#000000" stroke-width="4"
              stroke-miterlimit="10" pointer-events="none"/>
        <path d="M 944.47 1100 L 956.47 1094 L 953.47 1100 L 956.47 1106 Z"
              fill="#000000" stroke="#000000" stroke-width="4"
              stroke-miterlimit="10" pointer-events="none"/>
        <path d="M 980 980 L 970 980 Q 960 980 956.74 980 L 953.47 980"
              fill="none" stroke="#000000" stroke-width="4"
              stroke-miterlimit="10" pointer-events="none"/>
        <path d="M 944.47 980 L 956.47 974 L 953.47 980 L 956.47 986 Z"
              fill="#000000" stroke="#000000" stroke-width="4"
              stroke-miterlimit="10" pointer-events="none"/>
        <path d="M 1260 970 L 1233.47 970" fill="none" stroke="#000000"
              stroke-width="4" stroke-miterlimit="10" pointer-events="none"/>
        <path d="M 1224.47 970 L 1236.47 964 L 1233.47 970 L 1236.47 976 Z"
              fill="#000000" stroke="#000000" stroke-width="4"
              stroke-miterlimit="10" pointer-events="none"/>
        <path d="M 1260 1090 L 1233.47 1090" fill="none" stroke="#000000"
              stroke-width="4" stroke-miterlimit="10" pointer-events="none"/>
        <path d="M 1224.47 1090 L 1236.47 1084 L 1233.47 1090 L 1236.47 1096 Z"
              fill="#000000" stroke="#000000" stroke-width="4"
              stroke-miterlimit="10" pointer-events="none"/>
        <path d="M 1260 1210 L 1233.47 1210" fill="none" stroke="#000000"
              stroke-width="4" stroke-miterlimit="10" pointer-events="none"/>
        <path d="M 1224.47 1210 L 1236.47 1204 L 1233.47 1210 L 1236.47 1216 Z"
              fill="#000000" stroke="#000000" stroke-width="4"
              stroke-miterlimit="10" pointer-events="none"/>
        <path d="M 1246.53 1330 L 1220 1330" fill="none" stroke="#000000"
              stroke-width="4" stroke-miterlimit="10" pointer-events="none"/>
        <path d="M 1255.53 1330 L 1243.53 1336 L 1246.53 1330 L 1243.53 1324 Z"
              fill="#000000" stroke="#000000" stroke-width="4"
              stroke-miterlimit="10" pointer-events="none"/>
    </g>
</svg>